<svg id="Слой_1" data-name="Слой 1" xmlns="http://www.w3.org/2000/svg" viewBox="0 0 29.1 23.28"><defs><style>.cls-1{fill:#b8331e;}.cls-2{fill:#3e4347;}.cls-3{fill:#f14e3a;}.cls-4{fill:#ffd45c;}</style></defs><polygon class="cls-1" points="12.73 11.91 1.51 11.91 1.49 15.1 5.91 18.73 22.28 18.73 22.28 11.91 12.73 11.91"/><path class="cls-2" d="M407.28,399v-6c-2.52,0-1.12,2.2-2.06,3.55-1.25,1.79-3.6.2-3.6,2.44h-3.44l.91-8.64h.58v.89a.84.84,0,0,0-.38.7v3.07a.83.83,0,0,0,.83.83.84.84,0,0,0,.84-.83V392a.84.84,0,0,0-.84-.83v-.75h8.52l.91,8.63Zm2.27-9.54H398.18l-1.35,10.37H386.48v.76H396.7l2.13,3.1h3.46l8.62-3.78Z" transform="translate(-385 -388.04)"/><path class="cls-3" d="M410.22,389.5c0,.35-.12.48-.44.48H398c-.32,0-.43-.13-.43-.48v-1c0-.36.11-.49.43-.49h11.74c.32,0,.44.13.44.49Z" transform="translate(-385 -388.04)"/><path class="cls-3" d="M387.35,397.38l10.38-1.57v4.06H386.12A16.62,16.62,0,0,1,387.35,397.38Z" transform="translate(-385 -388.04)"/><path class="cls-3" d="M402.13,403.14a5.54,5.54,0,0,1,10.29-.12l1.68-.79a7.29,7.29,0,0,0-6.8-4.55,7.2,7.2,0,0,0-6.84,4.55Z" transform="translate(-385 -388.04)"/><circle class="cls-2" cx="22.28" cy="17.37" r="5.91"/><path class="cls-4" d="M410.46,405.41a3.19,3.19,0,1,1-3.18-3.18A3.18,3.18,0,0,1,410.46,405.41Z" transform="translate(-385 -388.04)"/><circle class="cls-2" cx="22.28" cy="17.37" r="1.36"/><path class="cls-3" d="M391.46,402.38a5.23,5.23,0,0,0-3.45-.45,2.28,2.28,0,0,0-2.1-1.41V395H385v6.82h.91v-.42a1.35,1.35,0,0,1,1.22.78,5,5,0,0,0-1,.58H385v1.43h1.45l6.6,3.19h1.31A5.18,5.18,0,0,0,391.46,402.38Z" transform="translate(-385 -388.04)"/><path class="cls-2" d="M389.09,403.14a4.09,4.09,0,1,1-4.09,4.09A4.09,4.09,0,0,1,389.09,403.14Z" transform="translate(-385 -388.04)"/><path class="cls-4" d="M391.36,407.23a2.28,2.28,0,1,1-2.27-2.28A2.27,2.27,0,0,1,391.36,407.23Z" transform="translate(-385 -388.04)"/><path class="cls-2" d="M389.09,406.32a.91.91,0,1,1-.91.91A.91.91,0,0,1,389.09,406.32Z" transform="translate(-385 -388.04)"/></svg>