<svg id="Слой_1" data-name="Слой 1" xmlns="http://www.w3.org/2000/svg" viewBox="0 0 25.18 29.05"><defs><style>.cls-1{fill:#3e4347;}.cls-2{fill:#ffe62e;}.cls-3{fill:#ffce31;}</style></defs><path class="cls-1" d="M435.43,402.19v-1h-.91v1.42a.47.47,0,0,0,.46.48,1.43,1.43,0,1,1-1.36,1.43.48.48,0,0,0-.46-.48.47.47,0,0,0-.45.48,2.27,2.27,0,1,0,2.72-2.33Z" transform="translate(-432.5 -385.11)"/><path class="cls-1" d="M455.87,391.38l-1-1.91h2Zm-10,1,1-1.91,1,1.91Zm-1.8-2.91h2l-1,1.91Zm-1.8,2.91,1-1.91,1,1.91Zm-1.8-2.91h2l-1,1.91Zm-1.8,2.91,1-1.91,1,1.91Zm-1.79-2.91h2l-1,1.91Zm-2.14,2.91,1.13-2.33,1.22,2.33ZM457.67,388h-22.3l-2.87,5.81h25.17v-1.45h-1l1-1.91Z" transform="translate(-432.5 -385.11)"/><rect class="cls-1" x="2" y="8.23" width="0.97" height="4.84"/><polygon class="cls-2" points="3.29 12.59 1.67 12.59 0.06 14.52 4.9 14.52 3.29 12.59"/><polygon class="cls-3" points="0.06 14.52 1.67 16.46 3.29 16.46 4.9 14.52 0.06 14.52"/><path class="cls-3" d="M449.26,402.54v-2.9l4.24,1.45Zm4.24,2.91L449.26,404l4.24-1.46Zm-4.24,2.9v-2.9l4.24,1.45Zm4.24,2.91-4.24-1.45,4.24-1.46Zm0-13.07v1.45l-4.24-1.45H448v16h1.27v-2.9l4.24,1.45-4.24,1.45h5.51v-16Z" transform="translate(-432.5 -385.11)"/><path class="cls-2" d="M455.74,397.31a1.31,1.31,0,0,1-1.25,1.36h-6.23a1.31,1.31,0,0,1-1.24-1.36V386.47a1.31,1.31,0,0,1,1.24-1.36h6.23a1.31,1.31,0,0,1,1.25,1.36Z" transform="translate(-432.5 -385.11)"/><path class="cls-3" d="M448.41,391.53a.81.81,0,0,0,.73.85h4.36a.8.8,0,0,0,.72-.85v-4.11a.79.79,0,0,0-.72-.85h-4.36a.8.8,0,0,0-.73.85Z" transform="translate(-432.5 -385.11)"/><path class="cls-3" d="M454.22,396.25a.91.91,0,0,1-.83,1h-4.15a.92.92,0,0,1-.83-1v-1.94a.92.92,0,0,1,.83-1h4.15a.91.91,0,0,1,.83,1Z" transform="translate(-432.5 -385.11)"/></svg>