<svg id="Слой_1" data-name="Слой 1" xmlns="http://www.w3.org/2000/svg" viewBox="0 0 25.74 25.74"><defs><style>.cls-1{fill:#94989b;}.cls-1,.cls-2{fill-rule:evenodd;}.cls-2{fill:#b2c1c0;}</style></defs><path class="cls-1" d="M434.22,387c-.77.77-2.26,5.65,4,12,2,2,3.51.53,4.77,1.8l11.27,11.3s2.47-.81,2.81-2.89L434.78,386.8S434.61,386.61,434.22,387Z" transform="translate(-432.44 -386.54)"/><path class="cls-2" d="M458.11,390.42c.3-.56-.39-.39-.39-.39s-4.56,4.38-5.19,3.84,4.46-4.73,3.86-5.51-5,4.48-5.57,3.85,3.83-5.21,3.83-5.21.17-.68-.39-.38c-6.87,3.69-7.74,7.13-7.74,7.13a1.2,1.2,0,0,0,.27,1.19c.06.05-12.52,12.55-14.21,14.24-.82.82,2.19,3.78,3,3,1.69-1.69,14.17-14.29,14.22-14.24a1.18,1.18,0,0,0,1.18.28S454.42,397.3,458.11,390.42Z" transform="translate(-432.44 -386.54)"/></svg>