<svg id="Слой_1" data-name="Слой 1" xmlns="http://www.w3.org/2000/svg" viewBox="0 0 29.57 19.71"><defs><style>.cls-1{fill:#596066;}.cls-2{fill:#3e4347;}.cls-3{fill:#ffce31;}.cls-4{fill:#594640;}</style></defs><path class="cls-1" d="M435.78,398.77v3.36c0,6.91,18.61,6.91,18.61,0v-3.36Z" transform="translate(-430.3 -389.78)"/><polygon class="cls-2" points="29.57 6.66 14.79 13.31 0 6.66 14.79 0 29.57 6.66"/><path class="cls-3" d="M445,396.13l-7.39,3.33a.33.33,0,0,0-.18.3v3.33c0,.41.48.41.48,0V400l7.22-3.25C445.44,396.61,445.32,396,445,396.13Z" transform="translate(-430.3 -389.78)"/><path class="cls-3" d="M437.69,401.89a1.25,1.25,0,1,1-.92,1.2A1.09,1.09,0,0,1,437.69,401.89Z" transform="translate(-430.3 -389.78)"/><path class="cls-3" d="M437.69,409.5c.51,0,.93-.27.93-.61v-5.8h-1.85v5.8C436.77,409.23,437.18,409.5,437.69,409.5Z" transform="translate(-430.3 -389.78)"/><path class="cls-4" d="M438.32,403.19l-.1.07v6.13l.1-.06Z" transform="translate(-430.3 -389.78)"/><path class="cls-4" d="M437.93,403.37l-.09,0v6.1l.09,0Z" transform="translate(-430.3 -389.78)"/><path class="cls-4" d="M437.55,403.39l-.1,0v6.1l.1,0Z" transform="translate(-430.3 -389.78)"/><path class="cls-4" d="M437.16,403.26l-.1-.07v6.14l.1.05Z" transform="translate(-430.3 -389.78)"/></svg>