<svg id="Слой_1" data-name="Слой 1" xmlns="http://www.w3.org/2000/svg" viewBox="0 0 25.96 25.96"><defs><style>.cls-1{fill:#dbb471;}.cls-2{opacity:0.5;isolation:isolate;}.cls-3{fill:#89664c;}.cls-4{fill:#699635;}.cls-5{fill:#83bf4f;}.cls-6{fill:none;stroke:#699635;stroke-miterlimit:10;stroke-width:0.41px;}.cls-7{fill:#f9f3d9;}.cls-8{fill:#e8e8e8;}</style></defs><path class="cls-1" d="M454,406.3c0,4.93-4,4.91-8.92,4.91s-8.93,0-8.93-4.91,4-12.93,8.93-12.93S454,401.37,454,406.3Z" transform="translate(-432.11 -387.28)"/><g class="cls-2"><path class="cls-3" d="M454,406.3a15.51,15.51,0,0,0-1.26-5.64c.15,1.26-.17,3.5-4,4.32-5.48,1.16-2.65,2.74-4.78,2.91-1.83.15-6.68-.58-7.65-3.33a10.77,10.77,0,0,0-.15,1.74c0,4.93,4,4.91,8.93,4.91S454,411.23,454,406.3Z" transform="translate(-432.11 -387.28)"/></g><path class="cls-3" d="M446.5,405a1.88,1.88,0,0,1-.54.29c0-.59,0-1.18,0-1.78l.21,0A.8.8,0,0,1,446.5,405Zm-1.32.47a1.6,1.6,0,0,1-.54,0l-.06-1.85.72-.05c0,.64,0,1.27.06,1.91Zm-1.36-2.6a1.12,1.12,0,0,1-.47-.3c-.38-.35.14-.69.47-.85.05.39.09.78.12,1.18Zm1.48-1.3c0,.45,0,.9,0,1.35l-.54.05h-.2c0-.48-.07-1-.14-1.44A2.68,2.68,0,0,1,445.3,401.53Zm2.18,2.43c-.17-.82-.86-1-1.58-1.08,0-.38,0-.77,0-1.15a5.92,5.92,0,0,1,.61.33c.34.2.65-.34.31-.55a4.53,4.53,0,0,0-.92-.43v-1.33a.3.3,0,1,0-.6,0c0,.39,0,.78,0,1.16a3.22,3.22,0,0,0-1,0c-.06-.29-.12-.58-.2-.87a.3.3,0,1,0-.58.17q.1.42.18.84l-.08,0c-.82.32-1.33,1.14-.72,1.91a1.52,1.52,0,0,0,1.05.55c0,.52,0,1.05,0,1.58a4,4,0,0,1-.74-.63c-.27-.28-.7.16-.43.45a3.86,3.86,0,0,0,1.2.87c0,.46,0,.91.09,1.36s.65.4.61,0-.07-.78-.09-1.17a2.6,2.6,0,0,0,.74,0c0,.42.06.84.11,1.25s.66.4.61,0-.09-.91-.12-1.36C446.86,405.64,447.7,405,447.48,404Z" transform="translate(-432.11 -387.28)"/><polygon class="cls-4" points="13.78 22.32 12.86 22.32 12.86 23.93 16.63 25.96 25.14 23.32 25.14 21.91 22.04 20.08 13.78 22.32"/><path class="cls-5" d="M445.09,408.67a9.44,9.44,0,0,0,3.73,2.95,18.6,18.6,0,0,0,8.43-2.95s-2.41-1.16-3.08-2.73C454.17,405.94,452.53,408.19,445.09,408.67Z" transform="translate(-432.11 -387.28)"/><polygon class="cls-4" points="11.15 22.29 12.04 22.21 12.17 23.74 8.65 25.96 0.15 24.13 0.04 22.79 2.93 20.81 11.15 22.29"/><path class="cls-5" d="M444,408.63a9.21,9.21,0,0,1-3.41,3.08,18.52,18.52,0,0,1-8.44-2.13s2.26-1.29,2.79-2.83C434.9,406.75,436.67,408.76,444,408.63Z" transform="translate(-432.11 -387.28)"/><path class="cls-6" d="M441.94,409.06s-.13.32.45.34l-1.5,1.27s-.88-.1-1.08.52a24.15,24.15,0,0,1-6-1.45s.48-.38-.1-.62a2.91,2.91,0,0,0,.85-.93.84.84,0,0,0,.86-.42A12.66,12.66,0,0,0,441.94,409.06Z" transform="translate(-432.11 -387.28)"/><ellipse class="cls-4" cx="3.58" cy="21.82" rx="0.78" ry="0.52"/><path class="cls-7" d="M439.81,408.43a20.15,20.15,0,0,1-2.95,2.87l.1,1.12-1.44-.31-.09-1.18a18,18,0,0,0,2.52-2.82A10.86,10.86,0,0,0,439.81,408.43Z" transform="translate(-432.11 -387.28)"/><path class="cls-7" d="M449.18,408.18s.37,1,3.11,2.77v1.19l1.57-.49v-1.23a18.31,18.31,0,0,1-3-2.69Z" transform="translate(-432.11 -387.28)"/><polygon class="cls-4" points="14.77 19.59 13.86 19.54 13.79 21.22 17.39 23.52 25.87 21.23 25.93 19.77 22.97 17.7 14.77 19.59"/><path class="cls-5" d="M446.13,405.87a9.65,9.65,0,0,0,3.53,3.25,17.42,17.42,0,0,0,8.4-2.61s-2.31-1.34-2.89-3C455.17,403.5,453.46,405.76,446.13,405.87Z" transform="translate(-432.11 -387.28)"/><path class="cls-6" d="M448,406.31s.2.31-.44.44l1.7,1.36s1-.26,1.31.33a27.48,27.48,0,0,0,5.91-1.69s-.61-.3,0-.64a6.68,6.68,0,0,1-1-1,1,1,0,0,1-1.05-.27S452.93,406.08,448,406.31Z" transform="translate(-432.11 -387.28)"/><path class="cls-4" d="M451.09,407.31a1.2,1.2,0,0,1-1.13.18c-.44-.12-.66-.39-.49-.61a1.2,1.2,0,0,1,1.13-.18C451,406.82,451.26,407.09,451.09,407.31Z" transform="translate(-432.11 -387.28)"/><path class="cls-7" d="M450.29,405.52a21.5,21.5,0,0,0,3,3l0,1.23,1.43-.39,0-1.29a19.16,19.16,0,0,1-2.63-3A10.06,10.06,0,0,1,450.29,405.52Z" transform="translate(-432.11 -387.28)"/><path class="cls-1" d="M450.76,388.09c0,2.46-3.18,6.49-5.67,6.49s-5.68-3.62-5.68-6.08.34,0,2.84,0c.35,0,2.08-1.22,2.84-1.22.53,0,2,1.22,2.83,1.22C450.09,388.5,450.76,386.24,450.76,388.09Z" transform="translate(-432.11 -387.28)"/><path class="cls-3" d="M444.34,392.66c-.24.14-1.4,0-1.78.33s.21,1.24-.27,1.74c-1,1-1.74,2.07-1.51,2.69.38,1.05,1.16-1.93,1.87-.81s.56-.76,1.62.2.15-1.72,1.19-.56,1.08,2.54,1.81,2.54-.92-3.19.25-2.43,2.38.5,1.25-.69c-.35-.37-.86-1-1.42-1.59-.22-.22,0-1.24-.24-1.42s-.86.46-1.08.34c-.47-.25-.31.21-1,.34C444.44,393.44,444.85,392.35,444.34,392.66Z" transform="translate(-432.11 -387.28)"/><path class="cls-8" d="M439.69,395.07c1.57-1.5,4.48-.66,6.15.06s2.66-1.6,1.63-2.75c-.6-.67-1.56.14-2,.6s-.73,1-1.16,1.49c-.65.72-2.24.13-1.73-.91s2.75.16,3.5.38a7.06,7.06,0,0,0,4.36.05c.48-.17.27-1-.22-.78a7.24,7.24,0,0,1-4.68-.28c-.76-.24-2-.91-2.82-.53-2.32,1.09-.15,4.22,1.77,3a4.6,4.6,0,0,0,1.05-1.15c.18-.26,1.21-1.8,1.45-1,.12.39,0,1.12-.43,1.27-.29.11-.87-.27-1.15-.38a9.91,9.91,0,0,0-1.61-.47c-1.48-.32-3.53-.26-4.71.87C438.74,394.86,439.32,395.43,439.69,395.07Z" transform="translate(-432.11 -387.28)"/><path class="cls-3" d="M450.29,387.5a3.78,3.78,0,0,1-2.37,1c-.82,0-2.3-1.22-2.83-1.22-.76,0-2.49,1.22-2.84,1.22a3.67,3.67,0,0,1-2.44-1,5.12,5.12,0,0,0,1.83,2.75c1,.67.88-.11,1.42-.82s.9-1.08,1.81.75c.49,1,1.4-2.75,2.14-1.56C448.37,390.83,448.84,389.64,450.29,387.5Z" transform="translate(-432.11 -387.28)"/><path class="cls-1" d="M453.34,408.55l0,1.23,1.43-.39,0-1.29S453.93,408.4,453.34,408.55Z" transform="translate(-432.11 -387.28)"/><path class="cls-1" d="M452.29,411v1.19l1.57-.49v-1.23A7.66,7.66,0,0,1,452.29,411Z" transform="translate(-432.11 -387.28)"/><path class="cls-1" d="M436.86,411.3l.1,1.12-1.44-.31-.09-1.18A10.9,10.9,0,0,0,436.86,411.3Z" transform="translate(-432.11 -387.28)"/></svg>