<svg id="Слой_1" data-name="Слой 1" xmlns="http://www.w3.org/2000/svg" viewBox="0 0 29.62 21.23"><defs><style>.cls-1{fill:#b2c1c0;}.cls-2{fill:#3e4347;}.cls-3{fill:#62727a;}.cls-4{fill:#f15744;}.cls-5{fill:#ffce31;}.cls-6{fill:#d33b23;}.cls-7{fill:#fff;}</style></defs><path class="cls-1" d="M.93,14.77H28.7a.93.93,0,0,1,.93.93v.92a.92.92,0,0,1-.92.92H.92A.92.92,0,0,1,0,16.62v-.92A.93.93,0,0,1,.93,14.77Z"/><path class="cls-2" d="M435.36,403.79a3.23,3.23,0,1,1-3.24,3.23A3.25,3.25,0,0,1,435.36,403.79Z" transform="translate(-430.27 -389.02)"/><ellipse class="cls-1" cx="5.09" cy="18" rx="1.85" ry="1.85"/><path class="cls-2" d="M454.34,403.79A3.23,3.23,0,1,1,451.1,407,3.24,3.24,0,0,1,454.34,403.79Z" transform="translate(-430.27 -389.02)"/><path class="cls-1" d="M454.34,405.18a1.85,1.85,0,1,1-1.85,1.84A1.84,1.84,0,0,1,454.34,405.18Z" transform="translate(-430.27 -389.02)"/><path class="cls-3" d="M456.19,389h-13a2.78,2.78,0,0,0-2.77,2.77v12H459v-12A2.78,2.78,0,0,0,456.19,389Z" transform="translate(-430.27 -389.02)"/><path class="cls-4" d="M436.75,392.71c-2.2,0-2.77,0-2.77,3.7,0,2.77-2.78,2.77-2.78,5.54v1.84h9.26V392.71Z" transform="translate(-430.27 -389.02)"/><rect class="cls-5" x="1.85" y="12" width="0.93" height="1.85"/><path class="cls-6" d="M435.6,399.18c-.54,0-.83.39-.64.86l.78,2a1.54,1.54,0,0,0,1.33.86h1.48a1,1,0,0,0,1-.92V400.1a1,1,0,0,0-1-.92Z" transform="translate(-430.27 -389.02)"/><path class="cls-2" d="M439.53,393.64h-3.7s-.93.1-.93,1.38v2.21s0,1,.93,1h3.7Z" transform="translate(-430.27 -389.02)"/><path d="M454.34,390" transform="translate(-430.27 -389.02)"/><path class="cls-2" d="M435.36,404.71a.47.47,0,1,1-.46.47A.47.47,0,0,1,435.36,404.71Z" transform="translate(-430.27 -389.02)"/><circle class="cls-2" cx="3.49" cy="17.08" r="0.46"/><path class="cls-2" d="M433.53,407.55a.46.46,0,0,1,.46.8.47.47,0,0,1-.63-.17A.46.46,0,0,1,433.53,407.55Z" transform="translate(-430.27 -389.02)"/><path class="cls-2" d="M435.36,408.41a.46.46,0,0,1,.47.46.47.47,0,0,1-.93,0A.46.46,0,0,1,435.36,408.41Z" transform="translate(-430.27 -389.02)"/><path class="cls-2" d="M437,407.48a.47.47,0,0,1,0,.93.47.47,0,0,1,0-.93Z" transform="translate(-430.27 -389.02)"/><path class="cls-2" d="M437,405.64a.46.46,0,0,1,.46.46.47.47,0,0,1-.46.46.46.46,0,0,1-.46-.46A.45.45,0,0,1,437,405.64Z" transform="translate(-430.27 -389.02)"/><path class="cls-3" d="M435.36,406.1a.93.93,0,1,1-.92.92A.92.92,0,0,1,435.36,406.1Z" transform="translate(-430.27 -389.02)"/><path class="cls-2" d="M454.34,404.71a.47.47,0,1,1-.46.47A.47.47,0,0,1,454.34,404.71Z" transform="translate(-430.27 -389.02)"/><circle class="cls-2" cx="22.47" cy="17.08" r="0.46"/><path class="cls-2" d="M452.51,407.55a.46.46,0,0,1,.46.8.47.47,0,0,1-.63-.17A.46.46,0,0,1,452.51,407.55Z" transform="translate(-430.27 -389.02)"/><path class="cls-2" d="M454.34,408.41a.46.46,0,0,1,.47.46.47.47,0,0,1-.93,0A.46.46,0,0,1,454.34,408.41Z" transform="translate(-430.27 -389.02)"/><path class="cls-2" d="M456,407.48a.47.47,0,1,1-.47.47A.47.47,0,0,1,456,407.48Z" transform="translate(-430.27 -389.02)"/><path class="cls-2" d="M456,405.64a.46.46,0,0,1,.46.46.47.47,0,1,1-.46-.46Z" transform="translate(-430.27 -389.02)"/><path class="cls-3" d="M454.34,406.1a.93.93,0,1,1-.92.92A.93.93,0,0,1,454.34,406.1Z" transform="translate(-430.27 -389.02)"/><path class="cls-7" d="M442.15,397.86h-.27v-2a1.35,1.35,0,0,1,.34,0,.86.86,0,0,1,1,.95A.93.93,0,0,1,442.15,397.86Zm1.13-2.06a1.65,1.65,0,0,0-1.11-.32,4.62,4.62,0,0,0-.79.06v2.68a5.7,5.7,0,0,0,.67,0,1.79,1.79,0,0,0,1.23-.37,1.4,1.4,0,0,0,.43-1.08A1.2,1.2,0,0,0,443.28,395.8Z" transform="translate(-430.27 -389.02)"/><polygon class="cls-7" points="15.39 8 14.37 8 14.37 8.79 15.51 8.79 15.51 9.2 13.87 9.2 13.87 6.48 15.45 6.48 15.45 6.89 14.37 6.89 14.37 7.59 15.39 7.59 15.39 8 15.39 8"/><polygon class="cls-7" points="16.45 8.79 16.45 6.48 15.95 6.48 15.95 9.2 17.57 9.2 17.57 8.79 16.45 8.79"/><rect class="cls-7" x="17.94" y="6.48" width="0.5" height="2.72"/><path class="cls-7" d="M450.88,395.5l-.39,1.25a9.7,9.7,0,0,0-.28,1h0a9.77,9.77,0,0,0-.27-1l-.37-1.24H449l.88,2.73h.57l.94-2.73Z" transform="translate(-430.27 -389.02)"/><polygon class="cls-7" points="21.93 8.79 21.93 8 22.96 8 22.96 7.59 21.93 7.59 21.93 6.89 23.02 6.89 23.02 6.48 21.43 6.48 21.43 9.2 23.08 9.2 23.08 8.79 21.93 8.79"/><path class="cls-7" d="M454.58,396.74h-.3v-.86a1.76,1.76,0,0,1,.31,0c.32,0,.53.14.53.44S454.91,396.74,454.58,396.74Zm.92.73a.67.67,0,0,0-.38-.53h0a.71.71,0,0,0,.49-.68.7.7,0,0,0-.23-.55,1.28,1.28,0,0,0-.84-.22,4.83,4.83,0,0,0-.75.06v2.69h.49v-1.12h.25c.28,0,.41.12.49.47a5,5,0,0,0,.18.65h.52A6.18,6.18,0,0,1,455.5,397.47Z" transform="translate(-430.27 -389.02)"/><path class="cls-7" d="M457.48,395.5l-.32.7c-.1.2-.17.37-.24.54h0c-.07-.18-.14-.34-.23-.54l-.33-.7h-.57l.86,1.59v1.14h.5v-1.15l.91-1.58Z" transform="translate(-430.27 -389.02)"/><path class="cls-2" d="M442.77,394.56v-2.77a.47.47,0,0,1,.46-.46h13a.47.47,0,0,1,.47.46v2.77h.92v-2.77a1.38,1.38,0,0,0-1.39-1.38h-13a1.39,1.39,0,0,0-1.39,1.38v2.77Z" transform="translate(-430.27 -389.02)"/><path class="cls-2" d="M456.66,399.18V401a.46.46,0,0,1-.47.46h-13a.46.46,0,0,1-.46-.46v-1.84h-.93V401a1.39,1.39,0,0,0,1.39,1.39h13a1.39,1.39,0,0,0,1.39-1.39v-1.84Z" transform="translate(-430.27 -389.02)"/><path class="cls-1" d="M443.7,391.79a.47.47,0,1,1-.47.46A.47.47,0,0,1,443.7,391.79Z" transform="translate(-430.27 -389.02)"/><path class="cls-1" d="M455.73,391.79a.47.47,0,0,1,0,.93.47.47,0,0,1,0-.93Z" transform="translate(-430.27 -389.02)"/><path class="cls-1" d="M443.7,400.1a.46.46,0,1,1-.47.46A.46.46,0,0,1,443.7,400.1Z" transform="translate(-430.27 -389.02)"/><path class="cls-1" d="M455.73,400.1a.46.46,0,1,1,0,.92.46.46,0,0,1,0-.92Z" transform="translate(-430.27 -389.02)"/><path class="cls-3" d="M13,16.15h3.71a.93.93,0,0,1,.93.93V18a.93.93,0,0,1-.93.93H13A.93.93,0,0,1,12,18v-.92A.92.92,0,0,1,13,16.15Z"/><path class="cls-1" d="M443.35,405.64a.47.47,0,1,0,0,.92h3.47a.47.47,0,1,0,0-.92Z" transform="translate(-430.27 -389.02)"/></svg>