<svg id="Слой_1" data-name="Слой 1" xmlns="http://www.w3.org/2000/svg" viewBox="0 0 27.36 27.36"><defs><style>.cls-1{fill:#d0d0d0;}.cls-2{fill:#e8e8e8;}.cls-3{fill:#62727a;}.cls-4{fill:#f15744;}.cls-5{fill:#d33b23;}.cls-6{fill:#f9f3d9;}.cls-7{fill:#b4d7ee;}.cls-8{fill:#89664c;}.cls-9{fill:#dbb471;}</style></defs><circle class="cls-1" cx="23.3" cy="5.63" r="1.28"/><path class="cls-1" d="M452.57,389a1.82,1.82,0,1,1-1.82,1.81A1.81,1.81,0,0,1,452.57,389Z" transform="translate(-431.4 -385.96)"/><circle class="cls-1" cx="20.52" cy="3.33" r="2.05"/><path class="cls-2" d="M451.54,388.1a2.27,2.27,0,0,1,2.12,1.48,1.21,1.21,0,0,0,0-.19,1.68,1.68,0,0,0-2.92-1.14A2.31,2.31,0,0,1,451.54,388.1Z" transform="translate(-431.4 -385.96)"/><path class="cls-2" d="M452,389.5a2.26,2.26,0,0,1,2.13,1.47,1.15,1.15,0,0,0,0-.19,1.68,1.68,0,0,0-2.92-1.14A2.25,2.25,0,0,1,452,389.5Z" transform="translate(-431.4 -385.96)"/><path class="cls-2" d="M454.22,391a1.64,1.64,0,0,1,1.53,1.07s0-.09,0-.14a1.22,1.22,0,0,0-2.11-.82A1.56,1.56,0,0,1,454.22,391Z" transform="translate(-431.4 -385.96)"/><rect class="cls-3" y="25.65" width="27.36" height="1.71" rx="0.43"/><polygon class="cls-4" points="16.67 17.1 11.54 12.83 11.54 17.1 6.41 12.83 6.41 17.1 1.28 12.83 1.28 25.65 21.8 25.65 21.8 17.1 16.67 17.1"/><polygon class="cls-5" points="22.15 18.47 25.74 18.47 25.57 14.88 22.32 14.88 22.15 18.47"/><polygon class="cls-5" points="25.39 11.29 25.22 7.7 22.66 7.7 22.49 11.29 25.39 11.29"/><polygon class="cls-5" points="21.98 22.06 21.8 25.65 26.08 25.65 25.91 22.06 21.98 22.06"/><polygon class="cls-1" points="25.39 11.29 22.49 11.29 22.32 14.88 25.57 14.88 25.39 11.29"/><polygon class="cls-1" points="21.98 22.06 25.91 22.06 25.74 18.47 22.15 18.47 21.98 22.06"/><rect class="cls-6" x="1.28" y="19.24" width="15.39" height="4.28"/><rect class="cls-7" x="1.28" y="19.67" width="14.96" height="3.42"/><rect class="cls-8" x="17.96" y="21.38" width="2.57" height="4.28"/><rect class="cls-5" x="17.53" y="20.52" width="3.42" height="0.86"/><rect class="cls-6" x="1.28" y="21.16" width="14.96" height="0.43"/><rect class="cls-6" x="6.2" y="19.24" width="0.43" height="4.28"/><rect class="cls-6" x="11.33" y="19.24" width="0.43" height="4.28"/><circle class="cls-9" cx="19.88" cy="23.3" r="0.21"/><rect class="cls-1" x="17.96" y="25.65" width="2.57" height="0.86"/><rect class="cls-2" x="17.53" y="26.51" width="3.42" height="0.86"/><circle class="cls-1" cx="24.16" cy="6.84" r="0.86"/><path class="cls-1" d="M449.36,386a2.17,2.17,0,1,1-2.17,2.17A2.17,2.17,0,0,1,449.36,386Z" transform="translate(-431.4 -385.96)"/><path class="cls-1" d="M445.9,386a2.51,2.51,0,1,1-2.5,2.5A2.5,2.5,0,0,1,445.9,386Z" transform="translate(-431.4 -385.96)"/><path class="cls-1" d="M442.75,386a2.12,2.12,0,1,1-2.12,2.12A2.12,2.12,0,0,1,442.75,386Z" transform="translate(-431.4 -385.96)"/><circle class="cls-1" cx="7.85" cy="2.99" r="2.99"/><path class="cls-1" d="M435.93,386a3.92,3.92,0,1,1-3.92,3.92A3.91,3.91,0,0,1,435.93,386Z" transform="translate(-431.4 -385.96)"/><path class="cls-2" d="M434.87,387.36a4.66,4.66,0,0,1,4.36,3c0-.12,0-.25,0-.38a3.45,3.45,0,0,0-6-2.35A4.59,4.59,0,0,1,434.87,387.36Z" transform="translate(-431.4 -385.96)"/><path class="cls-2" d="M438.47,387.19a3.66,3.66,0,0,1,3.43,2.38c0-.1,0-.2,0-.3a2.73,2.73,0,0,0-2.73-2.73,2.7,2.7,0,0,0-2,.88A3.58,3.58,0,0,1,438.47,387.19Z" transform="translate(-431.4 -385.96)"/><path class="cls-2" d="M442.17,386.84a2.62,2.62,0,0,1,2.46,1.71,1.48,1.48,0,0,0,0-.21,2,2,0,0,0-1.95-2,2,2,0,0,0-1.43.63A2.49,2.49,0,0,1,442.17,386.84Z" transform="translate(-431.4 -385.96)"/><path class="cls-2" d="M445.18,387a3,3,0,0,1,2.82,2,2,2,0,0,0,0-.25,2.24,2.24,0,0,0-3.88-1.52A3,3,0,0,1,445.18,387Z" transform="translate(-431.4 -385.96)"/><path class="cls-2" d="M448.83,386.86a2.57,2.57,0,0,1,2.4,1.66,1.41,1.41,0,0,0,0-.21A1.9,1.9,0,0,0,448,387,2.55,2.55,0,0,1,448.83,386.86Z" transform="translate(-431.4 -385.96)"/><path class="cls-2" d="M455.24,392.32a1.08,1.08,0,0,1,1,.7.19.19,0,0,0,0-.08.81.81,0,0,0-1.4-.55A1,1,0,0,1,455.24,392.32Z" transform="translate(-431.4 -385.96)"/></svg>