<svg id="Слой_1" data-name="Слой 1" xmlns="http://www.w3.org/2000/svg" viewBox="0 0 28.55 28.55"><defs><style>.cls-1{fill:#e8e8e8;}.cls-2{fill:#62727a;}.cls-3{fill:#b4d7ee;}.cls-4{fill:#fff;}.cls-5{fill:#b2c1c0;}.cls-6{fill:#f15744;}</style></defs><path class="cls-1" d="M448.65,393.39h-11.6a1.79,1.79,0,0,0-1.78,1.79v16.95h15.17V395.18A1.79,1.79,0,0,0,448.65,393.39Z" transform="translate(-430.81 -385.36)"/><path class="cls-2" d="M457.58,401.42H442.41a.89.89,0,0,0-.89.9v9.81h17v-9.81A.89.89,0,0,0,457.58,401.42Z" transform="translate(-430.81 -385.36)"/><path class="cls-2" d="M433.93,401.42a.94.94,0,0,0-.69.37L432,403.73a1.68,1.68,0,0,0-.25.82v7.58h3.57V401.42Z" transform="translate(-430.81 -385.36)"/><rect class="cls-3" x="5.35" y="23.64" width="4.46" height="3.12"/><rect class="cls-2" y="26.77" width="28.55" height="1.78" rx="0.45"/><rect class="cls-3" x="5.35" y="12.94" width="0.89" height="2.68" rx="0.22"/><rect class="cls-3" x="7.14" y="12.94" width="0.89" height="2.68" rx="0.22"/><rect class="cls-3" x="8.92" y="12.94" width="0.89" height="2.68" rx="0.22"/><rect class="cls-3" x="10.71" y="12.94" width="0.89" height="2.68" rx="0.22"/><rect class="cls-3" x="12.49" y="12.94" width="0.89" height="2.68" rx="0.22"/><rect class="cls-3" x="5.35" y="16.51" width="0.89" height="2.68" rx="0.22"/><rect class="cls-3" x="7.14" y="16.51" width="0.89" height="2.68" rx="0.22"/><rect class="cls-3" x="8.92" y="16.51" width="0.89" height="2.68" rx="0.22"/><rect class="cls-3" x="5.35" y="20.08" width="0.89" height="2.68" rx="0.22"/><rect class="cls-3" x="7.14" y="20.08" width="0.89" height="2.68" rx="0.22"/><rect class="cls-3" x="8.92" y="20.08" width="0.89" height="2.68" rx="0.22"/><rect class="cls-3" x="14.28" y="19.63" width="13.38" height="7.14"/><rect class="cls-3" x="2.23" y="18.29" width="0.89" height="2.68" rx="0.22"/><rect class="cls-3" x="2.23" y="22.31" width="0.89" height="2.68" rx="0.22"/><polygon class="cls-4" points="9.37 23.64 5.8 23.64 5.35 23.64 5.35 24.09 5.35 26.77 5.8 26.77 5.8 24.09 7.36 24.09 7.36 26.77 7.81 26.77 7.81 24.09 9.37 24.09 9.37 26.77 9.81 26.77 9.81 24.09 9.81 23.64 9.37 23.64"/><rect class="cls-4" x="7.14" y="24.98" width="0.89" height="0.89" rx="0.22"/><rect class="cls-5" x="5.8" y="26.77" width="3.57" height="0.89"/><rect class="cls-1" x="5.8" y="27.66" width="3.57" height="0.89"/><path class="cls-4" d="M445.53,405h12.94v-.89H444.64a.45.45,0,0,0-.45.45v7.58h.9v-1.34a.44.44,0,0,1,.44-.44h12.94v-.9H445.53a.44.44,0,0,1-.44-.44v-.9a.44.44,0,0,1,.44-.44h12.94v-.89H445.53a.45.45,0,0,1-.44-.45v-.89A.45.45,0,0,1,445.53,405Z" transform="translate(-430.81 -385.36)"/><rect class="cls-3" x="5.35" y="9.37" width="0.89" height="2.68" rx="0.22"/><rect class="cls-3" x="7.14" y="9.37" width="0.89" height="2.68" rx="0.22"/><rect class="cls-3" x="8.92" y="9.37" width="0.89" height="2.68" rx="0.22"/><rect class="cls-3" x="10.71" y="9.37" width="0.89" height="2.68" rx="0.22"/><rect class="cls-3" x="12.49" y="9.37" width="0.89" height="2.68" rx="0.22"/><rect class="cls-3" x="14.28" y="12.94" width="0.89" height="2.68" rx="0.22"/><rect class="cls-3" x="14.28" y="9.37" width="0.89" height="2.68" rx="0.22"/><rect class="cls-3" x="16.06" y="12.94" width="0.89" height="2.68" rx="0.22"/><rect class="cls-3" x="16.06" y="9.37" width="0.89" height="2.68" rx="0.22"/><rect class="cls-3" x="17.84" y="12.94" width="0.89" height="2.68" rx="0.22"/><rect class="cls-3" x="17.84" y="9.37" width="0.89" height="2.68" rx="0.22"/><rect class="cls-5" x="8.48" y="3.57" width="7.14" height="4.46"/><path class="cls-1" d="M442.85,385.36a3.57,3.57,0,1,1-3.56,3.57A3.57,3.57,0,0,1,442.85,385.36Z" transform="translate(-430.81 -385.36)"/><path class="cls-6" d="M445.09,388h-1.34V386.7a.45.45,0,0,0-.45-.45h-.89a.45.45,0,0,0-.45.45V388h-1.34a.45.45,0,0,0-.44.45v.89a.44.44,0,0,0,.44.44H442v1.34a.45.45,0,0,0,.45.45h.89a.45.45,0,0,0,.45-.45v-1.34h1.34a.44.44,0,0,0,.44-.44v-.89A.45.45,0,0,0,445.09,388Z" transform="translate(-430.81 -385.36)"/></svg>