<svg id="Слой_1" data-name="Слой 1" xmlns="http://www.w3.org/2000/svg" viewBox="0 0 25.96 25.96"><defs><style>.cls-1{fill:#d0d0d0;}.cls-2{fill:#94989b;}.cls-3{fill:#fff;}.cls-4{fill:#42ade2;}.cls-5{fill:#428bc1;}</style></defs><path class="cls-1" d="M458.06,410.86a1.89,1.89,0,0,1-2,1.76h-22a1.89,1.89,0,0,1-2-1.76V390.34a1.88,1.88,0,0,1,2-1.75h22a1.88,1.88,0,0,1,2,1.75Z" transform="translate(-432.11 -386.66)"/><polygon class="cls-2" points="19.83 3.86 6.12 3.86 7.45 0 18.5 0 19.83 3.86"/><polygon class="cls-2" points="7.45 1.17 6.12 3.86 10.98 11.05 10.98 6.11 7.45 1.17"/><polygon class="cls-2" points="18.5 1.17 19.83 3.86 14.97 11.05 14.97 6.11 18.5 1.17"/><polygon class="cls-3" points="7.45 0 6.12 3.86 10.98 9.88 10.98 4.94 7.45 0"/><polygon class="cls-3" points="18.5 0 19.83 3.86 14.97 9.88 14.97 4.94 18.5 0"/><polygon class="cls-4" points="15.31 9.88 10.65 9.88 9.32 23.03 13 25.96 16.64 23.03 15.31 9.88"/><path class="cls-5" d="M447.55,397.86l-.14-1.32h-4.65l-.14,1.35C443.61,398.6,446.49,398.54,447.55,397.86Z" transform="translate(-432.11 -386.66)"/><path class="cls-4" d="M447.75,396.54c-.89.87-4.56.95-5.33,0s.67-4.94.67-4.94a3.72,3.72,0,0,0,4,0S448.69,395.61,447.75,396.54Z" transform="translate(-432.11 -386.66)"/></svg>