<?xml version="1.0" encoding="utf-8"?>
<!-- Generator: Adobe Illustrator 24.1.2, SVG Export Plug-In . SVG Version: 6.00 Build 0)  -->
<svg version="1.1" id="Слой_1" xmlns="http://www.w3.org/2000/svg" xmlns:xlink="http://www.w3.org/1999/xlink" x="0px" y="0px"
	 viewBox="0 0 28.6 28.6" style="enable-background:new 0 0 28.6 28.6;" xml:space="preserve">
<style type="text/css">
	.st0{fill:#ACB8BF;}
	.st1{fill:#DAE3EA;}
	.st2{fill:#94989B;}
	.st3{fill:#C8D0D6;}
</style>
<rect y="27.7" class="st0" width="28.6" height="0.9"/>
<rect x="1.7" y="25.9" class="st0" width="25.2" height="0.9"/>
<rect x="0.8" y="26.8" class="st1" width="26.9" height="0.9"/>
<rect x="2.5" y="25" class="st1" width="23.6" height="0.9"/>
<rect x="1.3" y="12.3" class="st2" width="25.9" height="0.9"/>
<rect y="13.2" class="st1" width="28.6" height="0.9"/>
<polygon class="st2" points="14.3,1.4 0,9.2 1.2,10.9 14.3,2.2 27.4,10.9 28.6,9.2 "/>
<polygon class="st1" points="14.3,0 0,9.2 0,10.5 14.3,1.3 28.6,10.5 28.6,9.2 "/>
<polygon class="st1" points="14.3,2.2 0,11.4 0,12.3 28.6,12.3 28.6,11.4 "/>
<polygon class="st0" points="14.3,3.6 2.4,11.4 26.1,11.4 "/>
<rect x="3.1" y="14.9" class="st1" width="2.9" height="9.3"/>
<rect x="2.7" y="24.2" class="st2" width="3.6" height="0.8"/>
<rect x="2.7" y="14.1" class="st2" width="3.6" height="0.8"/>
<rect x="3.4" y="15.2" class="st3" width="0.3" height="8.6"/>
<rect x="5.3" y="15.2" class="st3" width="0.3" height="8.6"/>
<rect x="4.7" y="15.2" class="st3" width="0.3" height="8.6"/>
<rect x="4" y="15.2" class="st3" width="0.3" height="8.6"/>
<rect x="9.6" y="14.9" class="st1" width="2.9" height="9.3"/>
<rect x="9.3" y="24.2" class="st2" width="3.6" height="0.8"/>
<rect x="9.3" y="14.1" class="st2" width="3.6" height="0.8"/>
<rect x="9.9" y="15.2" class="st3" width="0.3" height="8.6"/>
<rect x="11.8" y="15.2" class="st3" width="0.3" height="8.6"/>
<rect x="11.2" y="15.2" class="st3" width="0.3" height="8.6"/>
<rect x="10.5" y="15.2" class="st3" width="0.3" height="8.6"/>
<rect x="16.1" y="14.9" class="st1" width="2.9" height="9.3"/>
<rect x="15.8" y="24.2" class="st2" width="3.6" height="0.8"/>
<rect x="15.8" y="14.1" class="st2" width="3.6" height="0.8"/>
<rect x="16.4" y="15.2" class="st3" width="0.3" height="8.6"/>
<rect x="18.4" y="15.2" class="st3" width="0.3" height="8.6"/>
<rect x="17.7" y="15.2" class="st3" width="0.3" height="8.6"/>
<rect x="17" y="15.2" class="st3" width="0.3" height="8.6"/>
<rect x="22.6" y="14.9" class="st1" width="2.9" height="9.3"/>
<rect x="22.3" y="24.2" class="st2" width="3.6" height="0.8"/>
<rect x="22.3" y="14.1" class="st2" width="3.6" height="0.8"/>
<rect x="22.9" y="15.2" class="st3" width="0.3" height="8.6"/>
<rect x="24.9" y="15.2" class="st3" width="0.3" height="8.6"/>
<rect x="24.2" y="15.2" class="st3" width="0.3" height="8.6"/>
<rect x="23.5" y="15.2" class="st3" width="0.3" height="8.6"/>
</svg>
