<svg id="Слой_1" data-name="Слой 1" xmlns="http://www.w3.org/2000/svg" viewBox="0 0 450 375.21"><defs><style>.cls-1{fill:#ec615b;}.cls-2{fill:#461eb8;}.cls-3,.cls-5,.cls-6,.cls-8,.cls-9{fill:#9b9797;}.cls-3{opacity:0.18;}.cls-4{fill:#fff;}.cls-5{opacity:0.19;}.cls-6{opacity:0.22;}.cls-7{fill:#1a1b22;}.cls-8{opacity:0.25;}.cls-9{opacity:0.35;}.cls-10{fill:#161616;}</style></defs><path class="cls-1" d="M22.49,187.82a2.16,2.16,0,0,0,2.22,1.56A6.21,6.21,0,0,0,28,188.17a3.44,3.44,0,0,1,2-.63,2.63,2.63,0,0,1,1.43.82c.83.76,1.68,1.56,2.9,1.36A5.61,5.61,0,0,0,36.92,188a2.86,2.86,0,0,1,2.75-.82c2,.48,4.15,2.3,6.19,1,.88-.55,1.52-1.85,2.67-1.83a3.82,3.82,0,0,1,2.17,1.15c1.44,1.17,3.19,2.74,5.13,1.63a19.66,19.66,0,0,0,2.45-2.29,2.8,2.8,0,0,1,2.83-.4c2,.65,4,2.36,6.25,1.77a6.87,6.87,0,0,0,2.84-2,3.82,3.82,0,0,1,2.9-1.3c2.22.13,4.15,1.73,6.42,1.58a4,4,0,0,0,1.55-.44c.58-.3.07-1.17-.51-.87a3.82,3.82,0,0,1-3,0c-1.07-.32-2.09-.79-3.17-1.06a4.81,4.81,0,0,0-3.22.11,10.84,10.84,0,0,0-2.65,2.13,3.12,3.12,0,0,1-2.86.89,14.82,14.82,0,0,1-3-1.22,6.28,6.28,0,0,0-3-.8,4.16,4.16,0,0,0-2.74,1.51c-.66.7-1.35,1.69-2.39,1.77a3.49,3.49,0,0,1-2.26-1c-1.32-1.05-2.9-2.75-4.76-2-1.07.46-1.62,1.74-2.77,2a4.86,4.86,0,0,1-2.89-.66,7.57,7.57,0,0,0-3.12-.85A4.48,4.48,0,0,0,36,187.46c-.65.6-1.48,1.54-2.47,1.22s-1.6-1.44-2.57-1.89c-1.33-.62-2.65,0-3.8.72a3.75,3.75,0,0,1-2.94.78.92.92,0,0,1-.72-.74c-.13-.64-1.1-.37-1,.27Z"/><path class="cls-2" d="M52.81,181c.31-.55,1-.52,1.54-.38a9.1,9.1,0,0,1,2.07,1.09,3.37,3.37,0,0,0,2.4.53,3.62,3.62,0,0,0,1.8-1.38,2.11,2.11,0,0,1,1.63-.93,4.89,4.89,0,0,1,1.78.5c1.27.56,2.6,1.32,4,1.11a4.8,4.8,0,0,0,2-.9,5.38,5.38,0,0,1,1.86-1,3.18,3.18,0,0,1,1.9.43c.64.3,1.24.66,1.9.9a2.57,2.57,0,0,0,1.75.11c.77-.28,1-1,1.52-1.54,1.12-1.4,2.83,1.36,3.57,2A2.44,2.44,0,0,0,85,182a12.58,12.58,0,0,0,1.27-.64,6,6,0,0,1,1.23-.42,6.07,6.07,0,0,1,5.16,1.24c.5.41,1.21-.3.71-.72a7.06,7.06,0,0,0-4.63-1.66,6.68,6.68,0,0,0-2.46.47c-.72.28-1.55,1-2.36.83s-1.28-1-1.75-1.53a4,4,0,0,0-2-1.41A1.93,1.93,0,0,0,78,179c-.38.53-.66,1.18-1.42,1.11a5.41,5.41,0,0,1-1.79-.71,7.41,7.41,0,0,0-2-.8,3.26,3.26,0,0,0-2.16.37c-.68.36-1.26.88-1.94,1.24-2.65,1.42-5.23-2.61-7.91-.94-.73.46-1.11,1.29-1.82,1.76-.91.6-2-.19-2.78-.68-1.22-.77-3.36-1.53-4.27.09a.5.5,0,0,0,.87.51Z"/><path class="cls-2" d="M359.16,12.78c.13-.54.82-.53,1.27-.42a5.14,5.14,0,0,1,1.74,1.19,3.19,3.19,0,0,0,2.21.85,18.94,18.94,0,0,0,2.53-.78c1.46-.32,3,.37,4.36.75a4.9,4.9,0,0,0,4.23-.31c.57-.39,1.22-1.17,2-1s1.24.82,1.9,1.11c1.25.54,2.56,0,3.73-.49,1-.41,2.34-1.17,3.32-.39.62.49,1.06,1.15,2,1.1s1.56-.7,2.38-1c1.61-.55,3.36,0,4.94.4a11,11,0,0,0,5.27.51c.63-.15.36-1.12-.27-1-3.18.72-6.18-1.58-9.37-1.1a7,7,0,0,0-2.25.88,1.22,1.22,0,0,1-1.12.18,6.43,6.43,0,0,1-.93-.81c-1.1-.87-2.46-.51-3.65,0s-2.44,1.28-3.61.78c-.69-.29-1.2-.9-1.93-1.13a2.43,2.43,0,0,0-2.22.58,3.88,3.88,0,0,1-1.9,1,5.76,5.76,0,0,1-2.21-.29c-1.48-.41-3-1-4.55-.81a5.71,5.71,0,0,0-1.39.42,3.7,3.7,0,0,1-1.49.39c-.89-.06-1.57-.89-2.23-1.4a3,3,0,0,0-2.13-.69,1.65,1.65,0,0,0-1.56,1.21.51.51,0,0,0,1,.26Z"/><path class="cls-1" d="M376,10.27c.94-.87,2.39-.33,3.45,0a5.69,5.69,0,0,0,4.06.07c.69-.33,1.26-.9,2-1.19a2.86,2.86,0,0,1,2.11.16c1.4.53,2.7,1.43,4.27,1.25a11.72,11.72,0,0,0,2.33-.67,3.65,3.65,0,0,1,2.15-.3c.71.21,1.2.84,1.82,1.19a2.41,2.41,0,0,0,2.17.09,10.72,10.72,0,0,1,2-.91,2.78,2.78,0,0,1,2,.59,14.3,14.3,0,0,0,1.91,1.16,4.28,4.28,0,0,0,2.42.32c1.89-.26,3.44-1.49,5.3-1.84,1.18-.21,2.94-.12,3.42,1.22.22.6,1.2.34,1-.27a3.25,3.25,0,0,0-3.05-2,9.31,9.31,0,0,0-4.42,1.16,8.1,8.1,0,0,1-2.63.8,3.84,3.84,0,0,1-2.4-.72c-1.26-.8-2.58-1.84-4.16-1.25a11.05,11.05,0,0,1-2.13,1c-.76.11-1.33-.54-1.89-.94-1.47-1.07-3-.46-4.54.08a4.22,4.22,0,0,1-2.35.28,12.53,12.53,0,0,1-2.19-.88A5.84,5.84,0,0,0,386.35,8a3.77,3.77,0,0,0-2.25.76,4,4,0,0,1-2.26.94,9.24,9.24,0,0,1-2.32-.44c-1.44-.39-3-.79-4.27.34-.48.44.24,1.15.71.71Z"/><path class="cls-1" d="M370.78,328.34c.7-1.49,2.78-.7,3.84-.17a8,8,0,0,0,2.58,1,4.62,4.62,0,0,0,2.53-.48,21.11,21.11,0,0,1,2.23-1,2.93,2.93,0,0,1,2.39.36,15.49,15.49,0,0,0,2.32,1.3,5.3,5.3,0,0,0,2.82.17c2-.35,3.66-1.46,5.57-1.95a5.65,5.65,0,0,1,2.52-.14,3,3,0,0,1,1.08.45c.37.25.65.6,1,.83a1.79,1.79,0,0,0,2.21-.49,9.26,9.26,0,0,1,2-1.63,6.91,6.91,0,0,1,5-.55c1.05.29,2,.89,3.08,1.13a5,5,0,0,0,3.11-.43,7.31,7.31,0,0,1,3.08-.87,4.58,4.58,0,0,1,2.85,1c.49.41,1.21-.3.71-.71a5.68,5.68,0,0,0-5.33-1.08c-.93.3-1.79.83-2.75,1.06a4.75,4.75,0,0,1-3-.54,9.09,9.09,0,0,0-2.74-.8,8,8,0,0,0-2.62.18,7.71,7.71,0,0,0-2.47,1.05,7.43,7.43,0,0,0-1,.81,6,6,0,0,1-1,.94c-.39.22-.67,0-1-.27a4.71,4.71,0,0,0-1.09-.78,4.85,4.85,0,0,0-2.5-.41c-2,.15-3.72,1.16-5.59,1.8a6.17,6.17,0,0,1-3,.41,7.3,7.3,0,0,1-2.5-1.23,4.24,4.24,0,0,0-2.5-.79,6.41,6.41,0,0,0-2.4.79,5.48,5.48,0,0,1-2.76.85,9.67,9.67,0,0,1-3-1.21c-1.43-.64-3.73-.85-4.53.86-.27.59.6,1.1.87.51Z"/><path class="cls-2" d="M389.34,323.53c.25-1.27,2-1.27,2.92-1,1.57.45,3,1.21,4.69.64,1.28-.44,2.3-1.36,3.53-1.9a3,3,0,0,1,1.91-.24,7.17,7.17,0,0,1,1.95.94,5.37,5.37,0,0,0,3.86,1,10.51,10.51,0,0,0,3.51-1.67,6.56,6.56,0,0,1,3.66-1.32c1.56.08,3,.94,4.61.79,1.86-.17,2.83-1.86,4.44-2.56a5.74,5.74,0,0,1,4.91.17c.57.31,1.08-.56.51-.87a6.85,6.85,0,0,0-4.6-.62,6.5,6.5,0,0,0-2.11.87c-.7.45-1.26,1.08-2,1.54-1.47,1-3.12.16-4.67-.17a5.94,5.94,0,0,0-4.17.65,33.15,33.15,0,0,1-3.59,2,3.65,3.65,0,0,1-1.79.24,5.85,5.85,0,0,1-2.1-.94c-1.27-.76-2.57-1.42-4.09-1-1.36.38-2.42,1.36-3.68,1.94a3.51,3.51,0,0,1-2.53.18,25,25,0,0,0-2.68-.81c-1.37-.21-3.2.28-3.51,1.84-.12.63.85.9,1,.27Z"/><path class="cls-2" d="M52.19,83.05a7.75,7.75,0,0,1,4.89-2.68,7.55,7.55,0,0,1,2.88.16,20.89,20.89,0,0,1,2.94,1.21,6.1,6.1,0,0,0,3.11.62,7.18,7.18,0,0,0,2.5-.8c1.63-.85,3.08-2.14,4.87-2.64s3.74.15,5.46.81,3.54,1.48,5.44,1.38A6.39,6.39,0,0,0,87,80.27a5.47,5.47,0,0,1,3-.94c2,.14,3.8,1.47,5.82,1.76a12.21,12.21,0,0,0,4.12-.42,27.27,27.27,0,0,1,12.37.39.5.5,0,0,0,.27-1,28.41,28.41,0,0,0-7.45-1,27.59,27.59,0,0,0-3.75.27c-1.27.18-2.52.53-3.79.68a7.1,7.1,0,0,1-3.35-.46c-.95-.35-1.88-.79-2.86-1.06a5.33,5.33,0,0,0-3-.06c-1.07.33-2,1.06-3,1.4-1.85.57-3.76-.17-5.48-.83a13.28,13.28,0,0,0-5.51-1.35c-2,.12-3.57,1.24-5.18,2.25a10.4,10.4,0,0,1-2.48,1.22A4.54,4.54,0,0,1,63.82,81c-1.14-.42-2.19-1.06-3.36-1.41a8.39,8.39,0,0,0-3.27-.27,8.72,8.72,0,0,0-5.71,3c-.42.5.29,1.21.71.71Z"/><path class="cls-1" d="M89.21,73.55c1.34-1.8,4.14-.75,5.68.14a22.32,22.32,0,0,0,3.38,1.8,5.94,5.94,0,0,0,3.61.14c2.16-.57,4.36-2.22,6.65-1.31a14.27,14.27,0,0,0,3.28,1.38c1.32.17,2.27-.6,3.19-1.42a8.83,8.83,0,0,1,7.84-2c.63.14.9-.83.27-1a9.87,9.87,0,0,0-7.46,1.24,11.37,11.37,0,0,0-1.51,1.18,3.57,3.57,0,0,1-1.56,1c-1.19.25-2.35-.7-3.36-1.16a5.2,5.2,0,0,0-3.56-.29c-1.19.3-2.28.86-3.44,1.25a5.36,5.36,0,0,1-3.62.06,24.61,24.61,0,0,1-3.5-1.89C93,71.51,90,70.86,88.34,73c-.39.53.49,1,.87.51Z"/><circle class="cls-1" cx="106.3" cy="113.86" r="3.33"/><circle class="cls-1" cx="283.28" cy="3.19" r="3.19"/><circle class="cls-1" cx="447.3" cy="235.15" r="2.7"/><circle class="cls-1" cx="263.65" cy="317.78" r="2.55"/><circle class="cls-2" cx="299.86" cy="10" r="1.54"/><circle class="cls-2" cx="99.09" cy="139.1" r="2.8"/><circle class="cls-2" cx="435.22" cy="259.14" r="2.43"/><path class="cls-3" d="M259.33,243.44a68.34,68.34,0,0,0-3.89,7.76c-2.75,6.45-5.16,12.11-4.46,19.3a26.53,26.53,0,0,0,7.65,16.32c5.4,5.51,12,7.69,16.42,9.07,16.11,5.09,24.17,7.63,26.25,8.12a250.72,250.72,0,0,0,37.21,6.17,242.29,242.29,0,0,0,34.42.54,17.25,17.25,0,0,1-8-3.16c-.84-.62-4.35-3.34-6.69-10.36-2.07-6.2-2-12.25-1-19,1.94-13,6.67-22.68,11.93-33.28,3.22-6.49,4.49-8.16,9.27-18,3.16-6.47,5.53-11.73,7.17-18.78,1.41-6,1.44-9.79.95-13.1a22.73,22.73,0,0,0-3.15-9.26,21.62,21.62,0,0,0-7.9-7.41A130.16,130.16,0,0,0,358,180a133.6,133.6,0,0,0-32.26,9.54c-16.65,7.3-27.44,16.15-37.34,24.39A208.76,208.76,0,0,0,259.33,243.44Z"/><path d="M1.52,258.5c23.81,11.58,52.13-1.2,72.37-14.54,21.48-14.17,39.21-33.24,55.45-53,4.16-5.06,8.24-10.2,12.28-15.35s8.15-10.72,12.77-15.62a51.23,51.23,0,0,1,16.12-11.84,64.8,64.8,0,0,1,19.54-5c14.11-1.58,28.61-.48,42.69.91a426.4,426.4,0,0,1,44.93,7c29.7,6.2,58.78,15,87.65,24.27l10.89,3.53c.62.2.89-.77.27-1-28.84-9.38-57.81-18.52-87.38-25.34-28.54-6.59-58.15-11.5-87.53-11.11-12.6.17-25.73,1.88-36.68,8.54-11.19,6.8-18.68,18.21-26.64,28.29-16,20.23-32.72,40.2-53,56.25a152.26,152.26,0,0,1-33,20.2c-12.45,5.46-26.71,9.06-40.28,6.3A41.61,41.61,0,0,1,2,257.63c-.58-.28-1.09.59-.51.87Z"/><path d="M.16,258.43a66.92,66.92,0,0,0,22.07,13.82,66.17,66.17,0,0,0,7.12,2.27.51.51,0,0,0,.27-1A66.18,66.18,0,0,1,6.49,262.45a63.6,63.6,0,0,1-5.62-4.73c-.47-.44-1.19.27-.71.71Z"/><path d="M28.63,274.36c-3.18,3.92-7.89,6-12.57,7.59-1.36.45-2.73.87-4.1,1.27-.37.11-.54.74-.12.92a60.58,60.58,0,0,0,27.44,4.69,58.57,58.57,0,0,0,7.92-1l-.57-.74C43,293,37,296.87,30.92,300c-1.76.91-3.54,1.77-5.33,2.63-.46.22-.22.94.25.94,5.9,0,11.8,0,17.69-.07a64.23,64.23,0,0,0,15.34-1.6,29.75,29.75,0,0,0,7.92-3.29c.56-.34,0-1.21-.5-.87A33.94,33.94,0,0,1,52,302.1c-5.32.54-10.7.43-16,.44l-10.09,0,.26.94c6.31-3,12.82-6.19,17.76-11.27a26.59,26.59,0,0,0,3.64-4.68.51.51,0,0,0-.57-.74,59.3,59.3,0,0,1-34.58-3.56l-.12.92c4.88-1.44,9.94-3,14-6.13a18.66,18.66,0,0,0,3.1-3c.4-.5-.31-1.22-.72-.71Z"/><path d="M65,299.17a51.35,51.35,0,0,1-11.21,19.38c-.92,1-3,2.72-1.49,4.12a3,3,0,0,0,2,.66,18,18,0,0,0,2.64-.13,45.09,45.09,0,0,0,22.55-8.43c.52-.38,0-1.25-.51-.87A44.19,44.19,0,0,1,58.75,322c-.9.12-1.81.21-2.72.27a8.33,8.33,0,0,1-2.34,0c-.66-.15-1.15-.57-.74-1.26a4.76,4.76,0,0,1,.77-.9c.33-.34.66-.69,1-1a52.14,52.14,0,0,0,6.36-8.57,52.48,52.48,0,0,0,4.92-11c.19-.62-.78-.88-1-.27Z"/><path d="M78.27,315.23a36,36,0,0,1-5.54,15A35,35,0,0,1,70,333.91a.51.51,0,0,0,.36.86,42.6,42.6,0,0,0,23.32-8.15A41.93,41.93,0,0,0,99,322c.46-.47-.26-1.18-.71-.72A41.55,41.55,0,0,1,77.23,332.9a39.71,39.71,0,0,1-6.88.86l.36.87a37,37,0,0,0,8.57-19.4c.08-.64-.93-.63-1,0Z"/><path d="M97.39,322.58A31.13,31.13,0,0,1,94,337.22a30.54,30.54,0,0,1-2.25,3.71.51.51,0,0,0,.31.74c7.63,2.3,15.6-.45,22.13-4.49a57.84,57.84,0,0,0,5.47-3.85c.51-.41-.21-1.11-.71-.72-5.82,4.6-12.92,8.7-20.53,8.9a19.44,19.44,0,0,1-6.1-.82l.31.74a32.14,32.14,0,0,0,5.56-14.38,31.74,31.74,0,0,0,.25-4.47.51.51,0,0,0-1,0Z"/><path d="M118.8,334.3a43.27,43.27,0,0,1-3.36,18.07,42.19,42.19,0,0,1-2.33,4.66.52.52,0,0,0,.57.75,55,55,0,0,0,20.49-12.08,56,56,0,0,0,4.61-4.88c.41-.49-.3-1.21-.72-.71a53.89,53.89,0,0,1-18.47,14.25,50.53,50.53,0,0,1-6.18,2.44l.57.74a44,44,0,0,0,5.66-17.88,43.57,43.57,0,0,0,.17-5.36c0-.65-1-.65-1,0Z"/><path d="M138.28,341a69.34,69.34,0,0,1-1.58,20.11c-.42,1.87-.93,3.71-1.5,5.53a.51.51,0,0,0,.62.62,46.6,46.6,0,0,0,19.75-8.46,45.89,45.89,0,0,0,4.65-3.94c.47-.45-.24-1.16-.71-.71a45.87,45.87,0,0,1-18.15,10.75,46.74,46.74,0,0,1-5.81,1.39l.62.62a70.73,70.73,0,0,0,3.27-20.1q0-2.91-.15-5.81c0-.65-1-.65-1,0Z"/><path d="M160.76,354.58a35,35,0,0,1-5,19.88.51.51,0,0,0,.69.69c9.37-4.8,18.77-9.74,27-16.41a89.18,89.18,0,0,0,17.91-20.35c10.07-15.33,16.64-32.58,25.17-48.75a177.7,177.7,0,0,1,16.81-25.9q9.72-12.53,20.27-24.39c13.83-15.55,29.1-30.15,46.9-41.11,17.51-10.78,37.6-18.11,58.31-18.61,2.55-.06,5.1,0,7.65.13.65,0,.65-1,0-1-20.62-1.17-41.05,4.68-59.12,14.39-18.25,9.8-34,23.58-48.16,38.61-7.19,7.66-14,15.67-20.61,23.81-6.77,8.32-13.33,16.83-18.77,26.09C220.41,297.59,213.91,315,204.68,331a104.31,104.31,0,0,1-16.18,21.79c-7.41,7.42-16.33,12.93-25.53,17.84-2.33,1.24-4.69,2.45-7,3.66l.69.69a35.9,35.9,0,0,0,5.15-20.39c0-.65-1-.65-1,0Z"/><path d="M375.25,178.82c5.6,2.7,9.14,8.27,10.44,14.23,1.57,7.17-.12,14.64-2.52,21.42-4.82,13.63-12.73,25.84-18.75,38.92-5.73,12.44-9.93,26.43-7.48,40.21,1,5.65,3.21,11.8,8.3,15s11.81,2.54,17.22.42c10.73-4.22,17.94-14.28,22.6-24.42a109.41,109.41,0,0,0,9.52-40.5c.67-15.11-2.76-29.87-3.68-44.88-.94-15.44-1.29-31-1.51-46.43-.2-14.1-.29-28.35,1.33-42.38,1.41-12.31,4.39-24.8,11.1-35.36a53.92,53.92,0,0,1,5.65-7.37c.44-.47-.28-1.19-.71-.71-17.22,18.83-18.17,46.5-18.42,70.61-.16,15.45.37,30.9.9,46.35.26,7.64.51,15.29,1.24,22.91s2.1,15,2.77,22.47a111.88,111.88,0,0,1-4.55,42.8c-3.57,11.54-9,23.55-18.62,31.29-4.67,3.75-10.6,6.46-16.68,6.4a14,14,0,0,1-9.29-3.31,18.46,18.46,0,0,1-4.85-7.81c-4.61-13.35-.95-28.31,4.31-40.89,5.47-13.06,13.24-25,18.66-38.09,4.76-11.5,8.44-26-.17-36.72a18.25,18.25,0,0,0-6.3-5c-.58-.28-1.09.59-.51.87Z"/><path d="M257,246.69c-4.46,9.25-8.87,20.35-5.16,30.6,3.07,8.47,10.92,13.75,18.81,17.29a134.51,134.51,0,0,0,13.89,5.15q8.17,2.67,16.52,4.73a244.07,244.07,0,0,0,33.52,5.85,241.19,241.19,0,0,0,34.1,1.12l4.29-.21c.65,0,.65-1,0-1a241.44,241.44,0,0,1-66.69-5.56A219,219,0,0,1,275,295.34c-7.9-3.07-16.32-7.38-20.7-15-5.39-9.36-2.21-20.45,1.87-29.64.53-1.18,1.07-2.34,1.63-3.5.28-.58-.59-1.09-.87-.51Z"/><path d="M288.29,152.59a82.6,82.6,0,0,0,8.07-19.85,186.4,186.4,0,0,0,4.25-21.44c1.05-7,1.93-14,3.17-21a132,132,0,0,1,5-20.18A69.29,69.29,0,0,1,318,51.9c.5-.7,1-1.38,1.57-2.06.4-.5-.31-1.22-.72-.71a67.14,67.14,0,0,0-9.95,17.73,117.53,117.53,0,0,0-5.5,20c-1.35,7-2.28,14-3.3,21-1,7.22-2.18,14.45-3.92,21.54a87.37,87.37,0,0,1-7.45,20.3c-.42.79-.85,1.57-1.3,2.34a.5.5,0,0,0,.87.51Z"/><path d="M319.16,49.51a50.12,50.12,0,0,0,4.06,12.08.51.51,0,0,0,.79.1,36.62,36.62,0,0,1,16.12-11.44l-.62-.62a19.23,19.23,0,0,0,2.59,14.74.51.51,0,0,0,.79.11l15.86-13.05-.79-.1,7.65,15.79a.5.5,0,0,0,.79.1,175,175,0,0,0,13.52-13.85l-.79-.1a58.12,58.12,0,0,1,6.91,16,.51.51,0,0,0,.92.12,34.47,34.47,0,0,1,14.65-13.06,32.89,32.89,0,0,1,5.34-2l-.62-.62a79.09,79.09,0,0,0-2.1,23.2.51.51,0,0,0,.86.36,37.64,37.64,0,0,1,16.7-8.8,36.7,36.7,0,0,1,5.41-.86c.64,0,.65-1.06,0-1a38.38,38.38,0,0,0-22.82,10l.86.35A77.7,77.7,0,0,1,407.31,54a.51.51,0,0,0-.62-.62,35.53,35.53,0,0,0-17.17,10.84,34.09,34.09,0,0,0-3.43,4.66L387,69a58.94,58.94,0,0,0-7-16.26.51.51,0,0,0-.79-.1,176.7,176.7,0,0,1-13.52,13.85l.79.1-7.65-15.79a.51.51,0,0,0-.79-.1l-15.86,13,.79.11a18.25,18.25,0,0,1-2.49-14c.08-.35-.24-.76-.62-.62A37.62,37.62,0,0,0,323.3,61l.79.11a49,49,0,0,1-4-11.84c-.13-.63-1.1-.36-1,.27Z"/><path d="M311.32,101.31l18.12,2.9,18.12,2.89,10.26,1.63c.63.11.91-.87.27-1L340,104.87,321.85,102l-10.26-1.64c-.64-.1-.91.87-.27,1Z"/><path d="M306.83,124.15a64.79,64.79,0,0,1,16.59,3.31c.61.21.88-.76.27-1a65.59,65.59,0,0,0-16.86-3.35c-.65,0-.65,1,0,1Z"/><path d="M332.25,128.62c8.7,2.32,17.51,4.29,26.37,5.89,2.53.46,5.06.88,7.6,1.28.63.1.91-.87.27-1q-13.37-2.1-26.51-5.28-3.75-.9-7.47-1.89a.5.5,0,0,0-.26,1Z"/><path d="M301.7,142.74q11,2.06,21.95,4.62t21.64,5.6q6.07,1.72,12.11,3.61c.62.19.89-.78.27-1q-10.71-3.33-21.56-6.18t-21.75-5.16q-6.18-1.32-12.39-2.48c-.64-.12-.91.85-.27,1Z"/><path d="M200.73,151.82q9.47,1.53,18.84,3.58T238.11,160q5.2,1.44,10.37,3c.62.2.88-.78.26-1q-9.15-2.84-18.46-5.18t-18.64-4.14q-5.29-1-10.64-1.89c-.63-.11-.91.87-.27,1Z"/><path d="M274.81,170.32a148.2,148.2,0,0,1,17.68,6c.6.25.86-.73.27-1a145.29,145.29,0,0,0-17.68-6,.5.5,0,0,0-.27,1Z"/><path d="M152.13,188.67q8.16,3.09,16.37,6.08T185,200.68q8.23,2.91,16.5,5.72t16.57,5.54q8.34,2.75,16.7,5.39l2.06.65a.5.5,0,0,0,.27-1q-8.33-2.62-16.63-5.34t-16.65-5.54q-8.28-2.81-16.51-5.7t-16.45-5.88q-8.25-3-16.46-6.09l-2-.76c-.61-.23-.87.74-.27,1Z"/><path d="M133.44,217.94q15.18,4.76,30.27,9.84t29.9,10.43q8.38,3,16.72,6.16c.61.22.87-.75.27-1q-14.91-5.58-29.93-10.85t-30-10.15q-8.46-2.76-17-5.42a.5.5,0,0,0-.27,1Z"/><path d="M83.68,249.77q9.91,7.57,20.31,14.47t21.17,13q10.83,6.18,22.07,11.61t22.66,10q11.56,4.67,23.43,8.54l2.94.94c.62.2.88-.77.26-1q-11.84-3.75-23.41-8.3t-22.86-9.9Q139,283.87,128.18,277.8T107,265q-10.43-6.78-20.36-14.25l-2.45-1.86c-.52-.39-1,.48-.51.87Z"/><path d="M73,265.71a113.83,113.83,0,0,0,21.28,17.17c2.21,1.39,4.47,2.69,6.77,3.92.57.3,1.08-.57.51-.87a113.13,113.13,0,0,1-22.32-15.62q-2.85-2.56-5.53-5.32c-.45-.46-1.16.25-.71.72Z"/><path d="M101.93,278.76q7.6,5.53,15.45,10.74t15.9,10.09c3,1.83,6.05,3.61,9.11,5.37a.5.5,0,0,0,.5-.87q-8.16-4.68-16.12-9.71T111.06,284q-4.35-3-8.62-6.11c-.53-.39-1,.49-.51.87Z"/><ellipse class="cls-4" cx="164.95" cy="27.53" rx="13.7" ry="15.27"/><path d="M165,43.14c-7.74,0-14-7-14-15.61s6.3-15.61,14-15.61,14,7,14,15.61S172.68,43.14,165,43.14Zm0-30.54c-7.37,0-13.37,6.69-13.37,14.93s6,14.93,13.37,14.93,13.36-6.7,13.36-14.93S172.31,12.6,165,12.6Z"/><ellipse class="cls-4" cx="168.03" cy="27.53" rx="13.7" ry="15.27"/><path d="M168,43.14c-7.74,0-14-7-14-15.61s6.29-15.61,14-15.61,14,7,14,15.61S175.77,43.14,168,43.14Zm0-30.54c-7.37,0-13.36,6.69-13.36,14.93s6,14.93,13.36,14.93,13.36-6.7,13.36-14.93S175.4,12.6,168,12.6Z"/><path class="cls-4" d="M152.49,56.48c-.74.36.09,3.63.68,5.38a22.67,22.67,0,0,0,5.33,8.59A16.5,16.5,0,0,0,161,75.78a19,19,0,0,0,4.83,4.54,29.1,29.1,0,0,0,5.47,3.08c.15,1.28.48,4.2.63,5.5,4.39,38.57,1.93,15,3.93,31.87.71,6,1,8.47,2.16,12.19a45.18,45.18,0,0,0,5.13,10.72,28.59,28.59,0,0,0,4,1.25,31.31,31.31,0,0,0,11.39.32c6.7-1,11.39-3.77,18.27-7.84a90.28,90.28,0,0,0,11.76-8.3c5.68-4.63,7.48-7.09,8.05-7.9,2.11-3,2.95-5.36,4.34-9.24,1.3-3.62,1.43-5.22.82-6.72a6.52,6.52,0,0,0-2.68-3,58.76,58.76,0,0,0-5.67,1.79,58,58,0,0,0-8.27,3.83,69.66,69.66,0,0,0-8.88,6.25c-8.43,6.61-9.37,8.33-13.92,10.9a39.9,39.9,0,0,1-8.67,3.63c-.37-1.21-1-3.09-1.86-5.33-1.85-4.66-2.88-5.66-4.19-9-1.14-2.87-1.57-5.41-2.43-10.49a59.9,59.9,0,0,1-1.15-10.1c-.05-5.11-.08-7.66.63-10.85.4-1.8.95-3.54.29-5.68a16.67,16.67,0,0,0-2.41-3.77c-1.57-2.14-3.31-4.15-4.74-6.38-1.6-2.49-2.09-3.86-3.52-4.12a2.15,2.15,0,0,0-2,.55c-.72.88-.31,2.83,1.41,4.64a13.3,13.3,0,0,1-4.43-1.82c-1.88-1.22-2.92-2.61-4.85-5.25-1.2-1.64-3.11-4.46-4.08-5.9-1.38-2-2.13-3.18-2.79-3s-.89,1.5-1,2.47c-.17-.1-1.37-.81-2.08-.37s-.88,2.18.26,4C153.93,57.25,153,56.25,152.49,56.48Z"/><path class="cls-3" d="M171.47,84.69c.18,1.75.44,4.1.85,6.87a160.2,160.2,0,0,0,3.82,18.13c3.85,14.67,5.84,22.06,8.93,24.86.62.56,6.12,5.39,13.71,5.26,6.21-.11,10.49-3.49,17.37-9.08,11.87-9.66,19.7-16.08,24.39-19.93a21.67,21.67,0,0,1-2.08,7.54,23.7,23.7,0,0,1-6.14,7.53c-3.85,3.43-7.79,5.92-15.53,10.75-6.92,4.33-10.43,6.51-12.76,7.3a29.6,29.6,0,0,1-13.68,1.59,26.12,26.12,0,0,1-7.57-2.34,48.41,48.41,0,0,1-3.38-6.57A49.24,49.24,0,0,1,175.83,122C174.93,113.71,173.33,100.93,171.47,84.69Z"/><path d="M194.16,129a27.3,27.3,0,0,0,9.58-4.36c3.21-2.13,6.32-4.42,9.42-6.71s6.17-4.67,9.24-7a52.49,52.49,0,0,1,9.28-6,20.38,20.38,0,0,1,11.85-2.08c.64.1.91-.87.27-1-7.5-1.21-14.43,2.63-20.25,6.94-3.12,2.3-6.14,4.72-9.24,7s-6.37,4.7-9.62,7-6.8,4.46-10.79,5.25c-.64.13-.37,1.1.26,1Z"/><path d="M194.55,129.51c-.63-3.44-2.35-6.51-3.82-9.64a63,63,0,0,1-3.62-9.59,66.14,66.14,0,0,1-2.54-20.18,64.53,64.53,0,0,1,1.37-11.42c.13-.63-.84-.9-1-.27a66.53,66.53,0,0,0,4.17,40.41c1.59,3.61,3.72,7,4.44,11,.12.64,1.09.37,1-.27Z"/><path d="M185.4,79c.78-1.84-.81-3.64-1.83-5l-3.91-5.26c-1.27-1.71-2.51-3.44-3.81-5.12a2.46,2.46,0,0,0-2-1.19,2.26,2.26,0,0,0-1.81,1.18c-1.09,1.82.32,3.65,1.53,5,.44.48,1.15-.24.71-.72-.84-.91-2.14-2.31-1.43-3.64.25-.47.77-1,1.34-.73s1.13,1.14,1.54,1.69l6.53,8.8c.57.75,1.17,1.49,1.67,2.29a2.71,2.71,0,0,1,.46,2.49.5.5,0,1,0,1,.26Z"/><path d="M171.58,83A35,35,0,0,1,163.67,78a13.32,13.32,0,0,1-2.8-3.41,13.52,13.52,0,0,1-1.42-5c-.25-2-.45-4.1-.63-6.16a41,41,0,0,1-.31-5.86A7.92,7.92,0,0,1,159,55c.06-.15.18-.51.34-.6s.09-.06.17.1a8.86,8.86,0,0,1,.5,1.42,38.66,38.66,0,0,1,1,5.57c.48,3.57,1.35,7.42,4.42,9.68.52.39,1-.49.5-.87-2.88-2.13-3.54-6-4-9.32A32,32,0,0,0,160.84,55c-.24-.7-.56-1.93-1.55-1.74s-1.22,1.29-1.44,2a16.53,16.53,0,0,0-.22,5.87q.26,3.3.61,6.59a22.29,22.29,0,0,0,1.1,5.9,12.79,12.79,0,0,0,2.58,4c2.52,2.7,5.88,4.48,9.15,6.12.58.29,1.09-.58.51-.87Z"/><path d="M159.47,70.84a34.52,34.52,0,0,1-5.4-8A13.78,13.78,0,0,1,153,58.21a10.65,10.65,0,0,1,0-1.13,3.55,3.55,0,0,1,.05-.57,1.6,1.6,0,0,0,.05-.21l-.13.05a.55.55,0,0,1,.12.14c.52.66,1,1.43,1.41,2.14l3.29,5c.35.54,1.22,0,.87-.51l-3.34-5.08-.77-1.19a7,7,0,0,0-.87-1.23,1,1,0,0,0-1.61.61,11.59,11.59,0,0,0,.53,5.35,20.36,20.36,0,0,0,2.4,5,61.31,61.31,0,0,0,3.8,5c.42.5,1.13-.22.72-.71Z"/><path d="M155.79,58.56a12.91,12.91,0,0,1-.71-2.18c-.09-.38-.16-.77-.22-1.16a2.36,2.36,0,0,1,0-.38,1.3,1.3,0,0,1,0-.26c0-.08,0,0,0,0s-.09-.05,0,0a.82.82,0,0,1,.25.2c.28.3.53.64.79,1l1.6,2a.5.5,0,1,0,.71-.71l-1.5-1.84c-.25-.3-.49-.61-.74-.9a1.9,1.9,0,0,0-.81-.62,1,1,0,0,0-1,.2,1.26,1.26,0,0,0-.38.85,4.16,4.16,0,0,0,.06.93c.06.36.12.71.21,1.06a13.59,13.59,0,0,0,.81,2.43.5.5,0,0,0,.69.18.51.51,0,0,0,.18-.69Z"/><path d="M157.71,56.19a4.22,4.22,0,0,0-.36-1.75,4.5,4.5,0,0,1-.21-.74,2.13,2.13,0,0,1,0-.56.8.8,0,0,1,.22-.46s0,0,0,0l.07,0c-.07,0,0,0,0,0s-.08,0,0,0h.13c-.12,0,0,0,0,0s.15.06.1,0l.08,0,0,0c-.05,0-.06,0,0,0s.1.14,0,0c0,0,0,.09,0,0,0,.11,0-.1,0,0s0,0,0,0l0,.08a.52.52,0,0,0,.35.62.5.5,0,0,0,.62-.35,1.12,1.12,0,0,0-.79-1.39,1.35,1.35,0,0,0-1.62.54,2.45,2.45,0,0,0-.18,1.93,5.87,5.87,0,0,1,.49,2,.51.51,0,0,0,.5.5.52.52,0,0,0,.51-.5Z"/><path d="M159.14,53.39a30.57,30.57,0,0,0,10,13.31,29.91,29.91,0,0,0,4,2.57c.57.3,1.08-.57.51-.87a29.56,29.56,0,0,1-11.53-11.12,27.9,27.9,0,0,1-2-4.16c-.23-.6-1.21-.34-1,.27Z"/><path d="M170.7,83.74q1.92,13.1,3.47,26.26c.47,4,.87,8.11,1.37,12.15a72.12,72.12,0,0,0,2,10.92,31.79,31.79,0,0,0,5.18,10.87c.39.51,1.27,0,.87-.51-4.46-5.83-6-13.18-6.93-20.31-.52-4-.9-8-1.36-12q-.75-6.53-1.61-13-.94-7.33-2-14.64c-.09-.64-1.07-.37-1,.27Z"/><path d="M183.24,144.09a26.88,26.88,0,0,0,15.7,1.6,45.43,45.43,0,0,0,15.19-6c2.41-1.42,4.73-3,7-4.56s4.45-3.12,6.62-4.75c4.16-3.13,8.15-6.65,10.8-11.19a27.23,27.23,0,0,0,3.68-14.91c0-.66-.08-1.32-.16-2s-1.09-.65-1,0A26.26,26.26,0,0,1,238.57,117c-2.28,4.63-6,8.27-10,11.43-2,1.6-4.15,3.1-6.26,4.59s-4.45,3.11-6.75,4.56a50.45,50.45,0,0,1-14.6,6.63,27.55,27.55,0,0,1-15.38-.3c-.62-.21-1.24-.45-1.84-.72s-1.1.6-.51.87Z"/><path d="M153.08,256.7l5.34,16.85a86.7,86.7,0,0,1-12.79,8.95c-4,2.3-8.59,4.45-10.58,9.06-.29.66-1.17,2.69-.34,3.61s3.1.24,4.71-.33a69.32,69.32,0,0,0,12.42-6c7.45-4.44,8.39-3.62,17.22-9,2.5-1.52,4.51-2.85,5.85-3.76-.45-2.13-1.1-5.08-1.95-8.58-.94-3.93-1.93-8-3.5-13.06-.72-2.36-1.75-5.52-3.12-9.23Z"/><path class="cls-4" d="M140.59,256.71a25.15,25.15,0,0,0,4.3,1.67,27.63,27.63,0,0,0,13.72,0,48.16,48.16,0,0,0,19.79-9.56c-1.06-5-2-10.19-2.87-15.66-1.43-9.34-2.28-18.15-2.73-26.32,2.11,1.39,5.06,3.24,8.71,5.25,5.1,2.81,8.89,4.9,14.1,6.54,4.21,1.33,8.83,2.79,15,2.37a35.12,35.12,0,0,0,14.32-4.42c3.09-1.73,12.47-7,15.58-17.72.78-2.71,2.1-7.27.3-11.91-2.79-7.18-12-11.73-23-11.31-2.82-1.17-7.41-3.09-13-5.54-9.24-4-13.28-5.95-20.38-8.61-10-3.76-13.6-4.25-16-4.44-3.62-.28-7.9-.57-12.85,1.42a24.64,24.64,0,0,0-10.32,8c-1.86,2.41-3.51,5.4-5.54,12.88A117.87,117.87,0,0,0,136,200.67a160.35,160.35,0,0,0-.53,24.24A157.06,157.06,0,0,0,140.59,256.71Z"/><path class="cls-5" d="M178.43,248.48l-7.57,5q-.31-7.58-.41-15.49c-.13-12.72.23-24.87,1-36.4a96.11,96.11,0,0,0,10.64,5c5.74,2.26,13.81,5.45,23.4,5.91a54.21,54.21,0,0,0,27.18-6.15A22.07,22.07,0,0,1,224,217.13a24.75,24.75,0,0,1-6.93,2.7A46.8,46.8,0,0,1,205,221.25c-7.58-.21-20.14-4.81-32.62-15.13Z"/><path d="M141.07,256.57a156,156,0,0,1-2.7-68.86c1.7-9.11,4-19.57,11.7-25.62a23.69,23.69,0,0,1,14.05-4.66,44.06,44.06,0,0,1,15.91,3c5.61,2,11,4.46,16.51,6.78l16.82,7.14,4.21,1.79c.59.25,1.1-.62.51-.87l-17.37-7.38c-5.58-2.37-11.13-4.82-16.76-7.06-5.26-2.09-10.73-3.88-16.4-4.3a28,28,0,0,0-14.75,2.65c-8.87,4.55-12.44,14.52-14.46,23.66a156.83,156.83,0,0,0,.7,69.85c.33,1.4.69,2.79,1.06,4.18a.5.5,0,0,0,1-.27Z"/><path d="M140.51,257.27a26.59,26.59,0,0,0,15.21,2.17,44.3,44.3,0,0,0,15.1-5.32c2.69-1.47,5.29-3.12,7.84-4.83.53-.36,0-1.23-.51-.87a74.85,74.85,0,0,1-13.9,7.7,33.5,33.5,0,0,1-15,2.5A23,23,0,0,1,141,256.4c-.58-.28-1.09.58-.51.87Z"/><path d="M178.91,248.35q-1.89-8.74-3.26-17.6T173.46,213q-.47-5-.77-10.07c0-.65-1.05-.65-1,0q.54,9,1.61,17.91T176,238.63q.92,5,2,10c.14.63,1.11.36,1-.27Z"/><path d="M172.55,207.3a119.36,119.36,0,0,0,19.11,10.32A51.75,51.75,0,0,0,202,221a31.92,31.92,0,0,0,10.18.35A32.5,32.5,0,0,0,223,218c.58-.29.07-1.16-.51-.87A31.38,31.38,0,0,1,203,220.21a46.92,46.92,0,0,1-10.12-3.15c-3.25-1.36-6.45-2.87-9.57-4.52-3.52-1.86-7-3.9-10.29-6.11-.54-.36-1,.52-.5.87Z"/><path d="M153.5,259.7a82.44,82.44,0,0,1,4.44,14l.23-.57a151.93,151.93,0,0,0-13.33,9.36q-3.21,2.52-6.28,5.2c-1,.92-2.07,1.84-3.08,2.79-.84.77-2,1.6-2.14,2.81a2.58,2.58,0,0,0,1.5,2.56,4.42,4.42,0,0,0,3.63,0c1.33-.51,2.6-1.16,3.88-1.75l3.92-1.87c5.21-2.51,10.36-5.15,15.48-7.84q3.84-2,7.67-4.07l3.83-2a5,5,0,0,0,1.61-1,.89.89,0,0,0-.13-1.32.77.77,0,0,0-1.13.2c-.34.55.53,1.06.88.51l-.32.12c0-.18-.06-.2-.13-.09a1.61,1.61,0,0,0-.28.17l-.87.47-1.8,1-3.47,1.85q-3.5,1.86-7,3.71c-4.64,2.43-9.31,4.82-14,7.11-2.36,1.14-4.73,2.27-7.11,3.36-1.07.49-2.33,1.15-3.56.9-.85-.17-1.82-1-1.52-1.94a3,3,0,0,1,.83-1.14c.47-.45.95-.89,1.43-1.33.91-.83,1.83-1.65,2.75-2.46,1.86-1.63,3.75-3.2,5.68-4.73A150,150,0,0,1,158.68,274a.51.51,0,0,0,.23-.57,81.55,81.55,0,0,0-4.44-14,.52.52,0,0,0-.62-.35.5.5,0,0,0-.35.62Z"/><path d="M169,254.62l4.23,16.85,1.21,4.8a.5.5,0,0,0,1-.27l-4.23-16.84-1.21-4.8a.5.5,0,0,0-1,.26Z"/><path class="cls-2" d="M249.22,95.11a47.37,47.37,0,0,0-11.42,10.34,64.87,64.87,0,0,0-13.49,26.1c-1.74,6.8-.76,7.63-2.22,14.43a67.66,67.66,0,0,1-10.73,24.42A79.75,79.75,0,0,0,263.9,193c2.21-7,5-16.34,7.77-27.38,5.22-20.61,3.75-20.29,8.88-42.55,5.26-22.85,7.72-27.17,4.44-31.08C278.86,84.66,260.55,88.09,249.22,95.11Z"/><path d="M179.51,263.55l6.69,14.11a79.37,79.37,0,0,0-6.75,7.26,72.58,72.58,0,0,0-8.11,12c-1.17,2.22-2,4.15-2.6,5.57a34.15,34.15,0,0,0,7-2.19,36.37,36.37,0,0,0,9.64-6.29c5.2-4.49,11.31-9.78,18.19-15.95-1.29-2.63-2.58-5.35-3.85-8.15-2.49-5.51-4.68-10.87-6.62-16Z"/><path class="cls-4" d="M161.69,261.57c-1.49-2.87-3.28-6.57-5.13-11a153.94,153.94,0,0,1-11.36-45.67c-.92-10.16-1.45-16,.34-23.84,1.26-5.53,2.71-11.55,7.94-16.61a27.57,27.57,0,0,1,13.41-6.85c7.63-1.79,13.81-.3,21.07,1.45a77.43,77.43,0,0,1,16.48,6c2.39,1.21,5.52,2.94,21.41,14.52,3.78,2.76,6.91,5.07,9.11,6.7a81.78,81.78,0,0,0,23.47,6.29,62,62,0,0,1-3.23,8.19,68.12,68.12,0,0,1-7.71,12.26c-3,3.9-5.85,7.47-10.62,10.83a26.1,26.1,0,0,1-7.72,3.92,23.27,23.27,0,0,1-7,.95c-3.17-.07-6.18-.84-11.12-3.18a84.52,84.52,0,0,1-13.66-8.26c-3.67-2.63-8.51-6.32-14-11.11q1.64,4.94,3.53,10a292.14,292.14,0,0,0,13.33,30.4,13,13,0,0,1-1.54,6.14,13.86,13.86,0,0,1-4.6,4.77,38.94,38.94,0,0,1-14.62,6A35.28,35.28,0,0,1,161.69,261.57Z"/><path class="cls-6" d="M177.54,190.34c.15,4.56.48,9.32,1,14.24a188.51,188.51,0,0,0,14.31,53.73,12.29,12.29,0,0,0,5.85-5.55,12.12,12.12,0,0,0,1.22-6.47l-14.73-36.8Z"/><path class="cls-6" d="M177.54,190.34c1.64,1.87,4.12,4.58,7.34,7.62,8.36,7.87,19.23,18.12,31.55,20.19,19.32,3.24,36.3-14.68,38.77-17.36A63.92,63.92,0,0,1,247,213.63c-3.95,4.83-7.27,9.12-13.22,12.17a22.65,22.65,0,0,1-8.93,2.84c-1.46.11-5.07.23-14.14-3.87a117.16,117.16,0,0,1-19.42-11.53c-3.31-2.35-6-4.41-7.71-5.82Q180.58,198.89,177.54,190.34Z"/><path d="M162.12,261.31a153.71,153.71,0,0,1-16.07-52.93,130.12,130.12,0,0,1-.9-18.51c.19-6.07,1.1-12.28,3.76-17.8a25.69,25.69,0,0,1,10-11.29c5.19-3,11.43-3.24,17.28-2.92a67.72,67.72,0,0,1,16.45,3,89.41,89.41,0,0,1,29.65,16.36c1.08.88,2.14,1.79,3.19,2.71.48.43,1.2-.28.71-.71a94.28,94.28,0,0,0-29.51-18,71.4,71.4,0,0,0-16.53-4,62.1,62.1,0,0,0-8.73-.41,31,31,0,0,0-9.33,1.45,24.14,24.14,0,0,0-12,9.74,37.45,37.45,0,0,0-5.52,16.29,97.1,97.1,0,0,0,0,19.21,154.44,154.44,0,0,0,14.65,54.28c.66,1.37,1.33,2.73,2,4.07.3.58,1.17.07.87-.51Z"/><path d="M177.06,190.47q3.72,11.29,8,22.39t9.14,21.92q2.72,6.09,5.61,12.1c.28.58,1.15.07.87-.51q-5.13-10.67-9.72-21.56t-8.59-22q-2.28-6.27-4.36-12.61c-.2-.61-1.18-.35-1,.27Z"/><path d="M161.54,262.43c5.83,2.9,12.54,2.65,18.73,1.16a60.93,60.93,0,0,0,9.2-3.07,21.88,21.88,0,0,0,7.92-5.08,11,11,0,0,0,3.05-9.28c-.12-.64-1.09-.37-1,.26a9.76,9.76,0,0,1-2.44,7.9,19.56,19.56,0,0,1-7.36,5,59.61,59.61,0,0,1-8.75,3.05,36.9,36.9,0,0,1-9,1.3,21.74,21.74,0,0,1-9.82-2.13c-.58-.28-1.09.59-.51.87Z"/><path d="M183.41,207a152.88,152.88,0,0,0,15.22,12.38,58.08,58.08,0,0,0,17.3,8.45A27.69,27.69,0,0,0,226.47,229a20.56,20.56,0,0,0,9-3.51,45.76,45.76,0,0,0,7.29-6.25A69.47,69.47,0,0,0,258.13,195c.27-.74.54-1.49.79-2.24s-.77-.88-1-.27a68.42,68.42,0,0,1-14.19,24.25,57.14,57.14,0,0,1-6.87,6.51,23.11,23.11,0,0,1-8.3,4.38,22.12,22.12,0,0,1-10.48-.23,53.76,53.76,0,0,1-17.21-7.65,129.12,129.12,0,0,1-15-11.84l-1.75-1.56c-.48-.43-1.19.28-.71.71Z"/><path d="M179.07,263.8l6.69,14.11c.28.59,1.15.08.87-.51l-6.69-14.11c-.28-.58-1.14-.07-.87.51Z"/><path d="M185.77,277.76a66.5,66.5,0,0,0-14.66,18.52q-1.58,3-2.86,6.09c-.24.6.73.86,1,.27a65.23,65.23,0,0,1,12.53-19.56c1.5-1.61,3.08-3.15,4.73-4.6.49-.43-.22-1.14-.71-.72Z"/><path d="M168.44,302.72c2.72,1.16,5.48-.73,7.75-2.07,2.46-1.46,4.88-3,7.24-4.64A127.9,127.9,0,0,0,197,285.3q3.62-3.3,7-6.86c.45-.47-.27-1.19-.71-.72A127.3,127.3,0,0,1,191,289.13a126,126,0,0,1-13.62,9.65c-1.32.81-2.64,1.63-4,2.35s-2.92,1.34-4.36.72c-.59-.25-1.1.61-.51.87Z"/><path d="M194.52,257.55a137.16,137.16,0,0,0,6.31,16.06c.69,1.48,1.42,2.95,2.16,4.41.3.58,1.17.07.87-.5a138.25,138.25,0,0,1-6.81-15.66q-.83-2.28-1.56-4.58c-.2-.62-1.17-.35-1,.27Z"/><path class="cls-4" d="M248.28,44.34c-1.48,1.22-2.74,3.07-5.28,6.78-3.06,4.49-6.21,8.94-7.78,15.32a33.2,33.2,0,0,0-1,13.15A32.64,32.64,0,0,0,242,96.33a44.11,44.11,0,0,0,5.63-.83A43.1,43.1,0,0,0,255,93.21c.75,1.61,1.62,3.32,2.62,5.08a70.31,70.31,0,0,0,4.78,7.31c.91-.8,2.26-2,3.79-3.65a74.25,74.25,0,0,0,6.63-8.44c5.37-7.05,8.19-5.52,11.79-11.07A24.33,24.33,0,0,0,288.19,70a29.57,29.57,0,0,0-5.05-17.87A26,26,0,0,0,273,42.72C265.34,38.89,254.87,39,248.28,44.34Z"/><path class="cls-5" d="M271.13,58.32a42.11,42.11,0,0,1-2.71,9.47c-3.06,7.36-7.42,11.95-11.95,16.63a87.12,87.12,0,0,1-14.32,11.89A39.95,39.95,0,0,0,264,87.73c.85,1.73,1.74,3.48,2.65,5.26,1,2,2,3.85,3,5.71.77-1.36,2-3.45,3.69-5.88,3.22-4.64,4.94-6,8.34-10.48,3.79-5,5.68-7.43,6.36-10.14.31-1.23,2.32-9.17-2.85-13.51C281.62,55.7,275.94,55.52,271.13,58.32Z"/><path class="cls-7" d="M237.86,59.36a23.81,23.81,0,0,1,7.49-11c8.53-6.93,18.93-5,20.48-4.66a27.09,27.09,0,0,0,4.15,13,26.66,26.66,0,0,0,7.21,7.55,6.32,6.32,0,0,1,4.42,1.59c2.44,2.32,1.61,5.9,1.49,6.42A6.77,6.77,0,0,1,281,75.94c-3,2.54-7.28,1-7.45.9a11.81,11.81,0,0,0-2.35,4.74,13.6,13.6,0,0,0,1,8.29c3.12,8,5.78,14.8,12.44,17.34,8.83,3.37,20.27-2.46,24.74-10.83,5.16-9.7-1.32-21.27-5.78-29.43a58.61,58.61,0,0,0-8.69-12,31.86,31.86,0,0,0-8.62-15.69c-1.25-1.24-9.61-9.22-22.24-9-10.72.19-24.3,6.31-27.08,17.51A19.65,19.65,0,0,0,237.86,59.36Z"/><path class="cls-7" d="M236.4,87.71a32,32,0,0,0-.37,9.21c.42,3.83,1.06,9.8,4.52,12.28,4.24,3,12.68.82,20-6.07l-4.71-10.28a47.46,47.46,0,0,1-6.62,2.26,46.4,46.4,0,0,1-6.87,1.27Z"/><path d="M245,48a45.18,45.18,0,0,0-10.36,18.73,33.81,33.81,0,0,0,1,20.34,28.72,28.72,0,0,0,6,9.66c.45.46,1.16-.25.71-.72a29.15,29.15,0,0,1-7.73-17.86A36.51,36.51,0,0,1,239,58.27a47.1,47.1,0,0,1,6.73-9.6c.43-.48-.28-1.2-.72-.71Z"/><path d="M242.15,96.81a36.42,36.42,0,0,0,14.18-3.64,41.74,41.74,0,0,0,12.18-9,44.56,44.56,0,0,0,5.44-7.1c.34-.55-.53-1.06-.87-.51A42.92,42.92,0,0,1,263,87.87,38.66,38.66,0,0,1,250,94.51a34,34,0,0,1-7.89,1.29c-.65,0-.65,1,0,1Z"/><path d="M270.8,80.48a20,20,0,0,0,1.66,11.41c.28.59,1.15.08.87-.5a18.82,18.82,0,0,1-1.56-10.64c.1-.64-.87-.91-1-.27Z"/><path d="M255.2,93.54a31.61,31.61,0,0,0,6.9,12.26c.44.48,1.15-.23.72-.71a30.41,30.41,0,0,1-6.65-11.82.5.5,0,0,0-1,.27Z"/><path d="M262.51,106.08c2.72-.93,4.67-3.09,6.32-5.35A61.83,61.83,0,0,0,274,92.4c.3-.57-.57-1.08-.87-.5a65.49,65.49,0,0,1-4.88,8c-1.54,2.14-3.38,4.33-6,5.21-.61.21-.35,1.18.27,1Z"/><path d="M251.83,52.53A73.47,73.47,0,0,0,243,69.47q-.91,2.53-1.64,5.13a.51.51,0,0,0,.84.49l5.85-5.36c.48-.44-.23-1.16-.71-.72l-5.85,5.37.84.49a72,72,0,0,1,7.41-17.31q1.38-2.31,2.92-4.52c.37-.54-.5-1-.87-.51Z"/><path d="M241.09,79.42c2.33,1.84,5.3.93,7.66-.34s4.5-2.75,5.59-5.12c.27-.59-.6-1.1-.87-.51A10.64,10.64,0,0,1,248.61,78c-2,1.09-4.76,2.32-6.81.7-.5-.4-1.22.3-.71.71Z"/><ellipse cx="245.07" cy="56.65" rx="2.52" ry="0.8" transform="translate(100.96 262.8) rotate(-68.06)"/><ellipse cx="259.95" cy="60.57" rx="2.52" ry="0.8" transform="translate(106.65 279.07) rotate(-68.06)"/><path d="M245.85,50.13a3.14,3.14,0,0,1,2.5-1,2.32,2.32,0,0,1,1.87,1.36.5.5,0,0,0,.69.18.52.52,0,0,0,.18-.69,3.28,3.28,0,0,0-2.66-1.85,4.12,4.12,0,0,0-3.29,1.27.5.5,0,0,0,.71.71Z"/><path d="M259.33,53.34a5,5,0,0,1,4.06-.94A3,3,0,0,1,265,53.48a5.37,5.37,0,0,1,1,2c.12.64,1.09.37,1-.26a6.15,6.15,0,0,0-1.2-2.36,3.94,3.94,0,0,0-2-1.4,5.86,5.86,0,0,0-4.95,1c-.54.35,0,1.23.51.87Z"/><path d="M277.19,64.71A5.19,5.19,0,0,1,281.1,66a5.68,5.68,0,0,1,1.73,4c.1,2.74-1.39,5.82-4.14,6.71a4.83,4.83,0,0,1-4.44-.67c-.51-.39-1,.48-.51.87a5.74,5.74,0,0,0,4.62.93,6.59,6.59,0,0,0,4-2.7c1.93-2.7,2.17-6.88-.11-9.46a6.12,6.12,0,0,0-5-2c-.65,0-.65,1.06,0,1Z"/><path class="cls-4" d="M279.85,88.76c-2.07,1.19-3.33,2.89-4.66,5.3a45.11,45.11,0,0,0-4.77,13.43c-3.38,17.71-2.43,10.19-3.73,18.64-1,6.33-2.15,14.75-3.24,24.83a40.82,40.82,0,0,0-3.27,8.35,43,43,0,0,0-1.38,9.25c-.89,15.12-.33,15.75-1,23.94-.37,4.59.12,9.25-.46,13.82a10.86,10.86,0,0,0,.83,6.65,8.61,8.61,0,0,0,3.19,3.42c1.8,1.06,3.67,1.06,7.35,1A48.43,48.43,0,0,0,275,217c3.56-.47,5.66-.53,8.07-1.64.91-.42,2.39-1.13,2.33-1.89,0-.22-.19-.77-2.81-1.55a24.44,24.44,0,0,0-6.26-1,7.32,7.32,0,0,1,2.07-1.85c.34-.2,1.25-.7,4.45-1.13a25.12,25.12,0,0,1,4.39-.35c2.51.07,3,.56,4.62.18a10.5,10.5,0,0,0,2.82-1.32,7.27,7.27,0,0,0,2.9-2.33,5.16,5.16,0,0,0,.76-2.34,13.61,13.61,0,0,0-4.51-4,11.46,11.46,0,0,0-7.06-1.61,12.15,12.15,0,0,0-5.46,2.41,18.37,18.37,0,0,0-4.5,4.34l-6.58,1.44c2.19-10.85,4.1-20.06,5.58-27.1,2-9.69,4.52-21.48,8-36.83.34-1.51,1.48-6.36,3.72-16.08,1.36-5.9,1.94-12,3.7-17.8a28,28,0,0,0,1.3-9.4,11.84,11.84,0,0,0-1.77-6.42,7.47,7.47,0,0,0-2.64-2.64C284.58,86.14,280.4,88.45,279.85,88.76Z"/><path class="cls-8" d="M291.54,92.17c-.64,3.66-1.72,9.61-3.29,16.89-5,23.41-7.92,27.37-12.46,48.45-2.76,12.8-4.57,24.71-5.83,33-1.06,6.94-1.85,12.85-2.41,17.29l10.22-6.09-7,1.67c1.44-7.93,2.81-14.37,3.82-18.9,1.41-6.33,2.41-10.15,3.62-16.69,1-5.31,1.63-9.71,2-12.66,2-8.11,4.16-17.21,6.51-27.17,1.44-6.1,1.88-12.47,3.91-18.4a28.34,28.34,0,0,0,1.9-12.3A25.42,25.42,0,0,0,291.54,92.17Z"/><path class="cls-9" d="M278.38,209.07a23.8,23.8,0,0,1,3.65-1,25.16,25.16,0,0,1,5.19-.47c2.85.07,3.12.61,4.62.18.68-.2.34-.23,3.28-1.8,1.6-.85,2.29-1.16,2.44-1.85a2.12,2.12,0,0,0-.65-1.69c-2.05-.64-4.22-1.24-6.53-1.79-1.34-.32-2.66-.6-3.94-.86-1.13,1.32-2.26,2.65-3.41,4Q280.69,206.45,278.38,209.07Z"/><path d="M262.61,150.6c-3.17,6.75-4.16,14.22-4.58,21.6-.22,3.88-.31,7.76-.44,11.64l-.42,12.36-.46,14c0,.64,1,.64,1,0l.83-24.56c.25-7.56.23-15.22,1.45-22.71a45,45,0,0,1,3.49-11.79c.27-.58-.6-1.09-.87-.5Z"/><path d="M264,151q1.35-14.67,4-29.15c.88-4.75,1.84-9.48,2.94-14.17a51.23,51.23,0,0,1,4.47-12.86A17.39,17.39,0,0,1,279,90.11a9.23,9.23,0,0,1,4.94-2.47c3.82-.44,6.7,2.67,7.67,6.1a17.14,17.14,0,0,1,.2,7c-.33,2.38-.85,4.74-1.32,7.1q-1.43,7.28-3,14.51-3.13,14.43-6.83,28.74c-.3,1.18-.61,2.35-.92,3.53a.5.5,0,0,0,1,.27q3.87-14.73,7.17-29.61,1.64-7.42,3.14-14.9c.5-2.48,1-5,1.46-7.44a25.11,25.11,0,0,0,.5-7.38c-.42-3.66-2.49-7.52-6.22-8.66-3.92-1.19-7.7,1.31-10.1,4.23-2.83,3.44-4.42,7.87-5.62,12.11-1.33,4.69-2.29,9.49-3.23,14.27q-2.91,14.77-4.46,29.78c-.12,1.22-.24,2.45-.35,3.68-.06.64.95.64,1,0Z"/><path d="M279.93,154.07l-4,19.89-4,19.89L269.7,205c-.13.63.84.9,1,.27l4-19.9,4-19.89,2.24-11.18c.13-.63-.85-.9-1-.26Z"/><path d="M256.84,210.19a8.85,8.85,0,0,0,3.91,6.41c2.66,1.77,5.85,1.47,8.88,1.25l5.35-.38a34.9,34.9,0,0,0,5.1-.56,14.47,14.47,0,0,0,4.24-1.71c.55-.33,1.33-.74,1.52-1.41s-.39-1.26-.92-1.66a8.11,8.11,0,0,0-4.46-1.67,10.8,10.8,0,0,0-2.47.2,4.91,4.91,0,0,1-2.74-.06c-.61-.24-.87.73-.27,1,1.37.55,2.8.08,4.2-.07a7.22,7.22,0,0,1,3.75.59,6.74,6.74,0,0,1,1.64,1c.26.22.41.34.12.6a6.44,6.44,0,0,1-.88.59A13.57,13.57,0,0,1,280,215.9a29.23,29.23,0,0,1-4.56.53l-4.77.34c-2.76.2-5.9.74-8.49-.53a7.81,7.81,0,0,1-4.29-6.05c-.07-.64-1.08-.65-1,0Z"/><path d="M276.7,211.15a46.27,46.27,0,0,0,6.65-7.05c.51-.64,1-1.29,1.52-1.94a9.34,9.34,0,0,1,1.43-1.75,1.26,1.26,0,0,1,1.12-.06l1.35.37,2.57.71,5.94,1.62a.5.5,0,0,0,.27-1l-5.46-1.49-2.73-.75-1.36-.37a4.26,4.26,0,0,0-1.27-.24,2.45,2.45,0,0,0-1.79,1.21l-1.56,2c-1.06,1.36-2.14,2.7-3.29,4a37.07,37.07,0,0,1-4.11,4c-.5.41.22,1.12.72.71Z"/><path d="M275.61,203.92a54.69,54.69,0,0,0,4.5-3.54c.71-.62,1.4-1.26,2.08-1.92a12.63,12.63,0,0,1,1.93-1.72,3.33,3.33,0,0,1,2.59-.47c.81.15,1.61.36,2.4.58a22,22,0,0,1,4.67,1.84,13.36,13.36,0,0,1,4.18,3.44c.41.51,1.11-.21.72-.71a17.24,17.24,0,0,0-8.67-5.36c-.82-.25-1.65-.46-2.49-.65a5.25,5.25,0,0,0-2.86,0c-1.72.58-3,2.2-4.24,3.39a52.34,52.34,0,0,1-5.32,4.3c-.52.37,0,1.24.51.87Z"/><path d="M271.19,204.13q3.06-.57,6.08-1.39a.51.51,0,0,0-.27-1c-2,.56-4,1-6.08,1.4a.5.5,0,0,0-.35.62.52.52,0,0,0,.62.35Z"/><path d="M284.41,203.35c2.27-1.3,5-.62,7.33.05a21.67,21.67,0,0,0,3.81.87,3,3,0,0,0,2.76-.89.51.51,0,0,0,0-.71.5.5,0,0,0-.71,0c-.65.83-1.86.66-2.78.48-1.31-.26-2.58-.68-3.88-1-2.31-.6-4.87-.89-7,.35a.5.5,0,0,0,.51.87Z"/><path d="M281.93,206.26c1.27-1.84,3.89-1.77,5.82-1.31,2.37.56,4.66,1.57,7.14,1.16a4.89,4.89,0,0,0,3-1.63c.42-.5-.29-1.22-.71-.72-1.49,1.8-4.07,1.6-6.1,1.07-2.36-.61-4.72-1.58-7.19-1a4.75,4.75,0,0,0-2.85,1.9c-.37.53.5,1,.87.5Z"/><path d="M278.51,209.56l5.11-1.3a7.54,7.54,0,0,1,2.45-.32c.77.05,1.51.25,2.27.36,2.49.35,5.4.06,7.13-2,.42-.49-.29-1.21-.71-.71-1.7,2-4.58,2-6.95,1.57a11,11,0,0,0-2.35-.27,10.41,10.41,0,0,0-2.27.41l-4.95,1.26a.5.5,0,0,0,.27,1Z"/><path class="cls-10" d="M165.62,19.1l1.17,17.22c0,.48.78.49.75,0L166.37,19.1c0-.48-.79-.49-.75,0Z"/><path class="cls-10" d="M163.86,20.93a16.52,16.52,0,0,1,4.88.71c1.21.37,3.3,1,3.41,2.51s-2,2.05-3.08,2.38a16,16,0,0,1-5,.77.38.38,0,0,0,0,.75,16.89,16.89,0,0,0,4.47-.59,8.51,8.51,0,0,0,3.6-1.64,2.23,2.23,0,0,0,.18-3.05,6.7,6.7,0,0,0-3.5-1.87,16.94,16.94,0,0,0-5-.72.38.38,0,0,0,0,.75Z"/><path class="cls-10" d="M164.86,32.74l4.8-.49a.38.38,0,0,0,0-.75l-4.8.49a.39.39,0,0,0-.38.38.38.38,0,0,0,.38.37Z"/><path d="M324.18,88.86l11.59,1.94c.94.15,1.35-1.29.4-1.45l-11.59-1.94c-.95-.16-1.35,1.29-.4,1.45Z"/><path d="M327.4,88.31l5.49-10-1.4-.37,1,11.14c.09,1,1.59,1,1.5,0L333,78a.76.76,0,0,0-1.4-.38l-5.49,9.94c-.46.85.83,1.61,1.3.76Z"/><path d="M341.08,78.89,338.45,90c-.22.94,1.23,1.34,1.45.4l2.63-11.08c.22-.94-1.23-1.34-1.45-.4Z"/><path d="M337.29,78.62l9.55,1.55a.78.78,0,0,0,.93-.52.76.76,0,0,0-.53-.92l-9.55-1.56a.79.79,0,0,0-.93.53.77.77,0,0,0,.53.92Z"/><path d="M354.36,78.89,351.53,93c-.19.94,1.25,1.35,1.44.4l2.84-14.11c.19-.94-1.26-1.34-1.45-.4Z"/><path d="M363.4,79.89l-2.86,13.29c-.2.94,1.24,1.34,1.45.4l2.86-13.29c.2-.94-1.24-1.34-1.45-.4Z"/><path d="M363.79,86.91a17,17,0,0,1,6.5-4.89.78.78,0,0,0,.52-.92.76.76,0,0,0-.92-.53,18.61,18.61,0,0,0-7.16,5.28.75.75,0,1,0,1.06,1.06Z"/><path d="M363.57,86.64a39.87,39.87,0,0,1,4.8,7.81.76.76,0,0,0,1,.27.77.77,0,0,0,.27-1,41.93,41.93,0,0,0-5-8.11.75.75,0,0,0-1.06,0,.77.77,0,0,0,0,1.06Z"/><path d="M376.13,81.9l-2.35,13.48c-.16,1,1.28,1.35,1.45.4l2.35-13.48c.16-.94-1.28-1.35-1.45-.4Z"/><path d="M373,81.31l9.9,2.08c.95.2,1.35-1.25.4-1.45l-9.9-2.08c-.94-.2-1.34,1.25-.4,1.45Z"/></svg>