<?xml version="1.0" encoding="utf-8"?>
<!-- Generator: Adobe Illustrator 24.1.2, SVG Export Plug-In . SVG Version: 6.00 Build 0)  -->
<svg version="1.1" id="Слой_1" xmlns="http://www.w3.org/2000/svg" xmlns:xlink="http://www.w3.org/1999/xlink" x="0px" y="0px"
	 viewBox="0 0 330 330" style="enable-background:new 0 0 330 330;" xml:space="preserve">
<style type="text/css">
	.st0{opacity:0.1;fill:url(#SVGID_1_);enable-background:new    ;}
	.st1{fill:url(#SVGID_2_);}
	.st2{fill:#FFFFFF;}
	.st3{fill:#91B3FA;}
	.st4{fill:#BDD0FB;}
	.st5{opacity:0.6;}
	.st6{opacity:0.6;fill:#FFFFFF;enable-background:new    ;}
	.st7{fill:url(#SVGID_3_);}
	.st8{fill:url(#SVGID_4_);}
	.st9{fill:url(#SVGID_5_);}
	.st10{fill:url(#SVGID_6_);}
	.st11{fill:url(#SVGID_7_);}
	.st12{fill:url(#SVGID_8_);}
	.st13{fill:url(#SVGID_9_);}
	.st14{fill:#7D97F4;}
	.st15{opacity:0.2;fill:#FFFFFF;enable-background:new    ;}
	.st16{fill:url(#SVGID_10_);}
	.st17{fill:url(#SVGID_11_);}
	.st18{fill:url(#SVGID_12_);}
	.st19{fill:url(#SVGID_13_);}
	.st20{fill:url(#SVGID_14_);}
	.st21{fill:url(#SVGID_15_);}
	.st22{fill:url(#SVGID_16_);}
	.st23{fill:url(#SVGID_17_);}
	.st24{opacity:0.63;fill:url(#SVGID_18_);enable-background:new    ;}
	.st25{opacity:0.63;fill:url(#SVGID_19_);enable-background:new    ;}
	.st26{opacity:0.63;fill:url(#SVGID_20_);enable-background:new    ;}
	.st27{opacity:0.63;fill:url(#SVGID_21_);enable-background:new    ;}
	.st28{opacity:0.63;fill:url(#SVGID_22_);enable-background:new    ;}
	.st29{opacity:0.63;fill:url(#SVGID_23_);enable-background:new    ;}
	.st30{fill:url(#SVGID_24_);}
	.st31{opacity:0.7;}
	.st32{fill:url(#SVGID_25_);}
	.st33{fill:url(#SVGID_26_);}
	.st34{fill:url(#SVGID_27_);}
	.st35{fill:url(#SVGID_28_);}
	.st36{fill:url(#SVGID_29_);}
	.st37{fill:url(#SVGID_30_);}
	.st38{fill:url(#SVGID_31_);}
	.st39{fill:url(#SVGID_32_);}
	.st40{fill:url(#SVGID_33_);}
	.st41{fill:url(#SVGID_34_);}
	.st42{fill:url(#SVGID_35_);}
	.st43{fill:url(#SVGID_36_);}
	.st44{fill:url(#SVGID_37_);}
	.st45{opacity:0.78;fill:#FFFFFF;enable-background:new    ;}
	.st46{fill:#FE7062;}
	.st47{fill:url(#SVGID_38_);}
	.st48{fill:url(#SVGID_39_);}
	.st49{fill:url(#SVGID_40_);}
	.st50{fill:url(#SVGID_41_);}
	.st51{fill:url(#SVGID_42_);}
	.st52{fill:url(#SVGID_43_);}
	.st53{fill:url(#SVGID_44_);}
	.st54{fill:url(#SVGID_45_);}
	.st55{fill:url(#SVGID_46_);}
	.st56{fill:url(#SVGID_47_);}
	.st57{fill:url(#SVGID_48_);}
	.st58{fill:url(#SVGID_49_);}
	.st59{fill:url(#SVGID_50_);}
	.st60{fill:url(#SVGID_51_);}
</style>
<g>
	
		<linearGradient id="SVGID_1_" gradientUnits="userSpaceOnUse" x1="346.8102" y1="1117.8275" x2="107.8259" y2="859.8763" gradientTransform="matrix(1 0 0 1 0 -747.2)">
		<stop  offset="0" style="stop-color:#20C3D0"/>
		<stop  offset="0.3016" style="stop-color:#1EC0D0"/>
		<stop  offset="0.5347" style="stop-color:#19B6CF"/>
		<stop  offset="0.7449" style="stop-color:#11A6CD"/>
		<stop  offset="0.9405" style="stop-color:#058FCA"/>
		<stop  offset="1" style="stop-color:#0086C9"/>
	</linearGradient>
	<path class="st0" d="M313.5,223.6C280.7,300.4,194,333.3,126.1,327.8c-18.6-1.5-55.8-4.7-85-32.2c-55.9-53-47.3-163.5,6.3-228.6
		c6.9-8.4,54.6-64.6,129-63.8c54.4,0.5,92.7,31.3,97.4,35.2c5.9,4.8,18.8,16.4,30.5,34.6C331.6,115.8,334.1,175.6,313.5,223.6z"/>
	<g>
		
			<linearGradient id="SVGID_2_" gradientUnits="userSpaceOnUse" x1="281.7036" y1="676.428" x2="107.6549" y2="1065.8525" gradientTransform="matrix(1 0 0 1 0 -747.2)">
			<stop  offset="0" style="stop-color:#4F52FF"/>
			<stop  offset="1" style="stop-color:#4042E2"/>
		</linearGradient>
		<path class="st1" d="M59,59.2c0-11.1,9-20.1,20.1-20.1h170.4c9.4,0,17.1,7.4,17.6,16.7l12.6,247c0.4,7.4-5.4,13.5-12.8,13.6
			l-195.2,3.5C64.6,320,59,314.5,59,307.6V59.2L59,59.2z"/>
		<path class="st2" d="M100,315.9L100,315.9l-21.8-0.3c-7.3-0.1-13.3-6.2-13.3-13.5v-33c0-0.3,0.2-0.4,0.4-0.4s0.4,0.2,0.4,0.4v33
			c0,6.8,5.5,12.4,12.3,12.5l21.8,0.3c0.3,0,0.4,0.2,0.4,0.4C100.5,315.7,100.3,315.9,100,315.9z"/>
		<g>
			<path class="st3" d="M72.9,43c0-3.5,3.1-6.2,6.6-5.8c23.2,3.2,103.2,12.9,169.4,7.8c3-0.3,5.6,2,5.8,5.1l13.2,248
				c0.2,3.4-2.4,6.3-5.8,6.5c-27.8,1.7-142.4,8-183.2,3.7c-2.5-0.3-4.4-2.4-4.4-4.8L72.9,43z"/>
			<path class="st4" d="M75.7,49.2c0-3.4,3-6.1,6.3-5.5c22.4,3.1,99.4,12.4,163,7.6c2.9-0.3,5.5,1.9,5.5,4.9l12.7,238.7
				c0.2,3.3-2.3,6.1-5.6,6.2c-26.7,1.6-137,7.7-176.3,3.6c-2.4-0.3-4.2-2.3-4.2-4.7L75.7,49.2z"/>
			<g class="st5">
				<path class="st2" d="M240,73.3c0.3,0,0.5-0.3,0.5-0.5l-0.1-2.4c0-0.3-0.3-0.5-0.5-0.5l-64.4-1.1c-0.3,0-0.4,0.2-0.4,0.5l1.2,3.6
					c0.1,0.3,0.4,0.5,0.7,0.5L240,73.3L240,73.3z"/>
			</g>
			<g class="st5">
				<path class="st2" d="M175.6,78.2c-0.3,0-0.4,0.2-0.4,0.5l1.2,3.6c0.1,0.3,0.4,0.5,0.7,0.5H240c0.3,0,0.5-0.3,0.5-0.5l-0.1-2.4
					c0-0.3-0.3-0.5-0.5-0.5L175.6,78.2z"/>
			</g>
			<g class="st5">
				<path class="st2" d="M175.6,87.8c-0.3,0-0.4,0.2-0.4,0.5l1.2,3.6c0.1,0.3,0.4,0.5,0.7,0.5H240c0.3,0,0.5-0.3,0.5-0.5l-0.1-2.4
					c0-0.3-0.3-0.5-0.5-0.5L175.6,87.8z"/>
			</g>
			<g class="st5">
				<path class="st2" d="M240.1,111.8c0.3,0,0.5-0.3,0.5-0.5l-0.2-2.4c0-0.3-0.3-0.5-0.5-0.5L93,107.3c-0.3,0-0.4,0.2-0.2,0.4l3,3.8
					c0.2,0.3,0.5,0.4,0.9,0.4L240.1,111.8L240.1,111.8z"/>
			</g>
			<g class="st5">
				<path class="st2" d="M93,116.7c-0.3,0-0.4,0.2-0.2,0.4l3,3.8c0.2,0.3,0.5,0.4,0.9,0.4h143.4c0.3,0,0.5-0.3,0.5-0.5l-0.2-2.4
					c0-0.3-0.3-0.5-0.5-0.5L93,116.7z"/>
			</g>
			<g>
				<path class="st2" d="M112.9,155.4L112.9,155.4l-12.1-0.1c-1.8,0-3.2-1.2-3.3-2.8l-1.1-10.2c-0.1-0.6,0.1-1.2,0.5-1.7
					s1.1-0.9,1.8-0.9l0,0c1.1-0.1,2.5-0.2,4-0.4c3.3-0.3,7.2-0.6,9.5-0.6c1.7,0,3,1,3.4,2.4c0.6,2.4,0.6,6.8,0.4,11.5
					C116,154.2,114.5,155.4,112.9,155.4z M98.7,140.7c-0.4,0-0.9,0.3-1.2,0.6c-0.3,0.3-0.4,0.6-0.4,1l1.1,10.2
					c0.1,1.1,1.1,1.9,2.4,1.9l12.1,0.1l0,0c1.1,0,2.1-0.8,2.2-1.8c0.1-4.7,0.2-9-0.4-11.3c-0.3-1-1.3-1.7-2.5-1.7
					c-2.2,0-6.2,0.4-9.4,0.6C101.3,140.5,99.8,140.6,98.7,140.7L98.7,140.7z"/>
				<path class="st6" d="M100,141.8c2.6-0.2,8.1-0.7,10.7-0.8c1.1,0,2.1,0.6,2.4,1.6c0.5,1.8,0.4,5.6,0.4,9.1c0,1.1-1,1.8-2.1,1.8
					l-9.7-0.1c-1.2,0-2.2-0.8-2.3-1.8l-0.9-8.2C98.5,142.6,99.1,141.8,100,141.8z"/>
				<g class="st5">
					<path class="st2" d="M123.5,148.6c0.4,1.3,1.6,2.3,2.9,2.3l112.4-1c1.2,0,2.3-1.1,2.3-2.3s-1.1-2.2-2.3-2.2l-112.4-0.5
						C124.5,144.8,123.1,146.8,123.5,148.6z"/>
				</g>
				
					<linearGradient id="SVGID_3_" gradientUnits="userSpaceOnUse" x1="183.9245" y1="791.8575" x2="142.7984" y2="844.9042" gradientTransform="matrix(1 0 0 1 0 -747.2)">
					<stop  offset="0" style="stop-color:#FF928E"/>
					<stop  offset="1" style="stop-color:#FE7062"/>
				</linearGradient>
				<path class="st7" d="M100.6,143.3L100.6,143.3c0.9-0.5,2-0.2,2.6,0.7l2.4,4.3c0.3,0.4,0.9,0.4,1.1-0.1l6-13.2
					c0.3-0.7,1.3-0.4,1.2,0.3c-0.1,4-1.1,11.7-7.6,18.2c0,0-3.6-1.4-6.4-7.7C99.3,144.9,99.7,143.9,100.6,143.3z"/>
				<path class="st2" d="M112.9,181.4L112.9,181.4l-12.1-0.1c-1.8,0-3.2-1.2-3.3-2.8l-1.1-10.2c-0.1-0.6,0.1-1.2,0.5-1.7
					s1.1-0.9,1.8-0.9l0,0c1.1-0.1,2.5-0.2,4-0.4c3.3-0.3,7.2-0.6,9.5-0.6c0,0,0,0,0.1,0c1.6,0,3,1,3.3,2.4c0.6,2.4,0.6,6.8,0.4,11.5
					C116,180.2,114.5,181.4,112.9,181.4z M98.7,166.7c-0.4,0-0.9,0.3-1.2,0.6c-0.3,0.3-0.4,0.6-0.4,1l1.1,10.2
					c0.1,1.1,1.1,1.9,2.4,1.9l12.1,0.1l0,0c1.1,0,2.1-0.8,2.2-1.8c0.1-4.7,0.2-9-0.4-11.3c-0.3-1-1.3-1.7-2.5-1.7
					c-2.2,0-6.2,0.4-9.4,0.6C101.3,166.6,99.8,166.6,98.7,166.7L98.7,166.7z"/>
				<path class="st6" d="M100,167.8c2.6-0.2,8.1-0.7,10.7-0.8c1.1,0,2.1,0.6,2.4,1.6c0.5,1.8,0.4,5.6,0.4,9.1c0,1.1-1,1.8-2.1,1.8
					l-9.7-0.1c-1.2,0-2.2-0.8-2.3-1.8l-0.9-8.2C98.5,168.6,99.1,167.8,100,167.8z"/>
				<g class="st5">
					<path class="st2" d="M123.5,174.7c0.4,1.3,1.6,2.3,2.9,2.3l112.4-1c1.2,0,2.3-1.1,2.3-2.3s-1.1-2.2-2.3-2.2L126.4,171
						C124.5,170.9,123.1,172.8,123.5,174.7z"/>
				</g>
				
					<linearGradient id="SVGID_4_" gradientUnits="userSpaceOnUse" x1="196.5525" y1="801.6477" x2="155.4265" y2="854.6943" gradientTransform="matrix(1 0 0 1 0 -747.2)">
					<stop  offset="0" style="stop-color:#FF928E"/>
					<stop  offset="1" style="stop-color:#FE7062"/>
				</linearGradient>
				<path class="st8" d="M100.6,169.4L100.6,169.4c0.9-0.5,2-0.2,2.6,0.7l2.4,4.3c0.3,0.4,0.9,0.4,1.1-0.1l6-13.2
					c0.3-0.7,1.3-0.4,1.2,0.3c-0.1,4-1.1,11.7-7.6,18.2c0,0-3.6-1.4-6.4-7.7C99.3,171,99.7,169.9,100.6,169.4z"/>
				<path class="st2" d="M112.9,207.5L112.9,207.5l-12.1-0.1c-1.8,0-3.2-1.2-3.3-2.8l-1.1-10.2c-0.1-0.6,0.1-1.2,0.5-1.7
					s1.1-0.9,1.8-0.9l0,0c1.1-0.1,2.5-0.2,4-0.4c3.3-0.3,7.2-0.6,9.5-0.6c0,0,0,0,0.1,0c1.6,0,3,1,3.3,2.4c0.6,2.4,0.6,6.8,0.4,11.5
					C116,206.2,114.5,207.5,112.9,207.5z M98.7,192.8c-0.4,0-0.9,0.3-1.2,0.6c-0.3,0.3-0.4,0.6-0.4,1l1.1,10.2
					c0.1,1.1,1.1,1.9,2.4,1.9l12.1,0.1l0,0c1.1,0,2.1-0.8,2.2-1.8c0.1-4.7,0.2-9-0.4-11.3c-0.3-1-1.3-1.7-2.5-1.7
					c-2.2,0-6.2,0.4-9.4,0.6C101.3,192.6,99.8,192.7,98.7,192.8L98.7,192.8z"/>
				<path class="st6" d="M100,193.8c2.6-0.2,8.1-0.7,10.7-0.8c1.1,0,2.1,0.6,2.4,1.6c0.5,1.8,0.4,5.6,0.4,9.1c0,1.1-1,1.8-2.1,1.8
					l-9.7-0.1c-1.2,0-2.2-0.8-2.3-1.8l-0.9-8.2C98.5,194.6,99.1,193.8,100,193.8z"/>
				<g class="st5">
					<path class="st2" d="M123.5,200.7c0.4,1.3,1.6,2.3,2.9,2.3l112.4-1c1.2,0,2.3-1.1,2.3-2.3s-1.1-2.2-2.3-2.2L126.4,197
						C124.5,196.9,123.1,198.8,123.5,200.7z"/>
				</g>
				<path class="st2" d="M112.9,233.5L112.9,233.5l-12.1-0.1c-1.8,0-3.2-1.2-3.3-2.8l-1.1-10.2c-0.1-0.6,0.1-1.2,0.5-1.7
					s1.1-0.9,1.8-0.9l0,0c1.1-0.1,2.5-0.2,4-0.4c3.3-0.3,7.2-0.6,9.5-0.6c0,0,0,0,0.1,0c1.6,0,3,1,3.3,2.4c0.6,2.4,0.6,6.8,0.4,11.5
					C116,232.3,114.5,233.5,112.9,233.5z M98.7,218.8c-0.4,0-0.9,0.3-1.2,0.6c-0.3,0.3-0.4,0.6-0.4,1l1.1,10.2
					c0.1,1.1,1.1,1.9,2.4,1.9l12.1,0.1l0,0c1.1,0,2.1-0.8,2.2-1.8c0.1-4.7,0.2-9-0.4-11.3c-0.3-1-1.3-1.8-2.5-1.7
					c-2.2,0-6.2,0.4-9.4,0.6C101.3,218.6,99.8,218.7,98.7,218.8L98.7,218.8z"/>
				<path class="st6" d="M100,219.9c2.6-0.2,8.1-0.7,10.7-0.8c1.1,0,2.1,0.6,2.4,1.6c0.5,1.8,0.4,5.6,0.4,9.1c0,1.1-1,1.8-2.1,1.8
					l-9.7-0.1c-1.2,0-2.2-0.8-2.3-1.8l-0.9-8.2C98.5,220.6,99.1,219.9,100,219.9z"/>
				<g class="st5">
					<path class="st2" d="M123.5,226.7L123.5,226.7c0.4,1.3,1.6,2.3,2.9,2.3l112.4-1c1.2,0,2.3-1.1,2.3-2.3s-1.1-2.2-2.3-2.2
						L126.4,223C124.5,222.9,123.1,224.9,123.5,226.7z"/>
				</g>
				<path class="st2" d="M114.2,258.6C114.2,258.6,114.1,258.6,114.2,258.6l-12.1-0.1c-1.8,0-3.2-1.2-3.3-2.8l-1.1-10.2
					c-0.1-0.6,0.1-1.2,0.5-1.7s1.1-0.9,1.8-0.9l0,0c1.1-0.1,2.5-0.2,4-0.4c3.3-0.3,7.2-0.6,9.5-0.6c0,0,0,0,0.1,0c1.6,0,3,1,3.3,2.4
					c0.6,2.4,0.6,6.8,0.4,11.5C117.3,257.4,115.9,258.6,114.2,258.6z M100,243.9c-0.4,0-0.9,0.3-1.2,0.6c-0.3,0.3-0.4,0.6-0.4,1
					l1.1,10.2c0.1,1.1,1.1,1.9,2.4,1.9l12.1,0.1l0,0c1.1,0,2.1-0.8,2.2-1.8c0.1-4.7,0.2-9-0.4-11.3c-0.3-1-1.3-1.8-2.5-1.7
					c-2.2,0-6.2,0.4-9.4,0.6C102.5,243.7,101.1,243.8,100,243.9L100,243.9z"/>
				<path class="st6" d="M101.4,244.9c2.6-0.2,8.1-0.7,10.7-0.8c1.1,0,2.1,0.6,2.4,1.6c0.5,1.8,0.4,5.6,0.4,9.1c0,1.1-1,1.8-2.1,1.8
					l-9.7-0.1c-1.2,0-2.2-0.8-2.3-1.8l-0.9-8.2C99.7,245.7,100.4,245,101.4,244.9z"/>
				<g class="st5">
					<path class="st2" d="M124.8,251.9L124.8,251.9c0.4,1.3,1.6,2.3,2.9,2.3l112.4-1c1.2,0,2.3-1.1,2.3-2.3s-1.1-2.2-2.3-2.2
						l-112.4-0.5C125.8,248.1,124.3,249.9,124.8,251.9z"/>
				</g>
				
					<linearGradient id="SVGID_5_" gradientUnits="userSpaceOnUse" x1="209.7389" y1="811.8708" x2="168.6129" y2="864.9175" gradientTransform="matrix(1 0 0 1 0 -747.2)">
					<stop  offset="0" style="stop-color:#FF928E"/>
					<stop  offset="1" style="stop-color:#FE7062"/>
				</linearGradient>
				<path class="st9" d="M101.4,195.6L101.4,195.6c0.9-0.5,2-0.2,2.6,0.7l2.4,4.3c0.3,0.4,0.9,0.4,1.1-0.1l6-13.2
					c0.3-0.7,1.3-0.4,1.2,0.3c-0.1,4-1.1,11.7-7.6,18.2c0,0-3.6-1.4-6.4-7.7C100.1,197.2,100.5,196.1,101.4,195.6z"/>
			</g>
			<g>
				<g>
					<g>
						<path class="st2" d="M99.6,90c0.6-2.3,1.3-4.6,1.9-6.9s1.3-4.6,1.9-6.9c0.4-1.3,0.7-2.6,1.1-3.9c0.2-0.5-0.2-1.1-0.7-1.3
							c-0.5-0.1-1.1,0.2-1.3,0.7c-0.6,2.3-1.3,4.6-1.9,6.9s-1.3,4.6-1.9,6.9c-0.4,1.3-0.7,2.6-1.1,3.9c-0.2,0.5,0.2,1.1,0.7,1.3
							C98.9,90.9,99.4,90.6,99.6,90L99.6,90z"/>
						<path class="st2" d="M102.6,72.3c0.6,2.3,1.2,4.5,1.8,6.8c0.6,2.3,1.2,4.5,1.8,6.8c0.4,1.2,0.7,2.6,1,3.8
							c0.2,0.5,0.8,0.9,1.3,0.7c0.5-0.2,0.9-0.7,0.7-1.3c-0.6-2.3-1.2-4.5-1.8-6.8c-0.6-2.3-1.2-4.5-1.8-6.8c-0.4-1.2-0.7-2.6-1-3.8
							c-0.2-0.5-0.8-0.9-1.3-0.7C102.8,71.1,102.4,71.8,102.6,72.3L102.6,72.3z"/>
					</g>
					<path class="st2" d="M95.1,90.8c2.2,0,4.3,0,6.5,0s4.3,0,6.5,0c1.2,0,2.5,0,3.7,0c0.5,0,1.1-0.5,1.1-1.1s-0.4-1.1-1.1-1.1
						c-2.2,0-4.3,0-6.5,0s-4.3,0-6.5,0c-1.2,0-2.5,0-3.7,0c-0.5,0-1.1,0.5-1.1,1.1C94.1,90.3,94.5,90.8,95.1,90.8L95.1,90.8z"/>
				</g>
				<g>
					<path class="st2" d="M112.8,73.2c3,0,6,0,8.9,0c0.9,0,1.7,0,2.6,0c0.5,0,1.1-0.5,1.1-1.1S125,71,124.3,71c-3,0-6,0-8.9,0
						c-0.9,0-1.7,0-2.6,0c-0.5,0-1.1,0.5-1.1,1.1S112.2,73.2,112.8,73.2L112.8,73.2z"/>
					<path class="st2" d="M117.5,72.1c0,2.3,0,4.6,0,6.9s0,4.6,0,6.9c0,1.3,0,2.6,0,3.9c0,0.5,0.5,1.1,1.1,1.1s1.1-0.4,1.1-1.1
						c0-2.3,0-4.6,0-6.9s0-4.6,0-6.9c0-1.3,0-2.6,0-3.9c0-0.5-0.5-1.1-1.1-1.1S117.5,71.5,117.5,72.1L117.5,72.1z"/>
				</g>
				<g>
					<path class="st2" d="M151.9,73.2c3,0,6,0,8.9,0c0.9,0,1.7,0,2.6,0c0.5,0,1.1-0.5,1.1-1.1s-0.4-1.1-1.1-1.1c-3,0-6,0-8.9,0
						c-0.9,0-1.7,0-2.6,0c-0.5,0-1.1,0.5-1.1,1.1S151.3,73.2,151.9,73.2L151.9,73.2z"/>
					<path class="st2" d="M156.6,72.1c0,2.3,0,4.6,0,6.9s0,4.6,0,6.9c0,1.3,0,2.6,0,3.9c0,0.5,0.5,1.1,1.1,1.1s1.1-0.4,1.1-1.1
						c0-2.3,0-4.6,0-6.9s0-4.6,0-6.9c0-1.3,0-2.6,0-3.9c0-0.5-0.5-1.1-1.1-1.1C157.1,71.1,156.6,71.5,156.6,72.1L156.6,72.1z"/>
				</g>
				<path class="st2" d="M131.1,72.2c0,2.3,0,4.5,0,6.8s0,4.5,0,6.8c0,1.3,0,2.6,0,3.9c0,0.5,0.5,1.1,1.1,1.1s1.1-0.4,1.1-1.1
					c0-2.3,0-4.5,0-6.8s0-4.5,0-6.8c0-1.3,0-2.6,0-3.9c0-0.5-0.5-1.1-1.1-1.1C131.5,71.1,131.1,71.6,131.1,72.2L131.1,72.2z"/>
				<g>
					<path class="st2" d="M139.2,72.1c0,2.3,0,4.6,0,6.9s0,4.6,0,6.9c0,1.3,0,2.6,0,3.9c0,0.5,0.5,1.1,1.1,1.1s1.1-0.4,1.1-1.1
						c0-2.3,0-4.6,0-6.9s0-4.6,0-6.9c0-1.3,0-2.6,0-3.9c0-0.5-0.5-1.1-1.1-1.1C139.6,71.1,139.2,71.5,139.2,72.1L139.2,72.1z"/>
					<g>
						<path class="st2" d="M141.1,82c2-2.3,4-4.5,6-6.8c0.5-0.6,1.1-1.2,1.7-1.9c0.2-0.2,0.4-0.4,0.4-0.8c0-0.3-0.1-0.6-0.4-0.8
							c-0.4-0.4-1.1-0.4-1.5,0c-2,2.3-4,4.5-6,6.8c-0.5,0.6-1.1,1.2-1.7,1.9c-0.2,0.2-0.4,0.4-0.4,0.8c0,0.3,0.1,0.6,0.4,0.8
							C140.1,82.3,140.8,82.4,141.1,82L141.1,82z"/>
						<path class="st2" d="M148.8,88.6c-2-2.3-4-4.5-6-6.8c-0.5-0.6-1.1-1.2-1.7-1.9c-0.4-0.4-1.1-0.4-1.5,0s-0.4,1.1,0,1.5
							c2,2.3,4,4.5,6,6.8c0.5,0.6,1.1,1.2,1.7,1.9c0.4,0.4,1.1,0.4,1.5,0C149.2,89.6,149.1,89,148.8,88.6L148.8,88.6z"/>
					</g>
				</g>
			</g>
		</g>
		
			<linearGradient id="SVGID_6_" gradientUnits="userSpaceOnUse" x1="193.6901" y1="727.2802" x2="115.3429" y2="830.3441" gradientTransform="matrix(1 0 0 1 0 -747.2)">
			<stop  offset="0" style="stop-color:#09005D"/>
			<stop  offset="1" style="stop-color:#1A0F91"/>
		</linearGradient>
		<path class="st10" d="M174.7,5.5c-6.2-4.3-11.5-4.2-15.3-3.1c-3.4,1.1-5.6,4.3-5.4,7.9l1.6,17.8l19.3,1.8
			C175.1,29.8,186.8,13.9,174.7,5.5z M166.2,19.8c-2.6,0-4.8-2.2-4.8-4.8s2.2-4.8,4.8-4.8s4.8,2.2,4.8,4.8
			C171,17.7,168.9,19.8,166.2,19.8z"/>
		
			<linearGradient id="SVGID_7_" gradientUnits="userSpaceOnUse" x1="202.2534" y1="733.7897" x2="123.9061" y2="836.8538" gradientTransform="matrix(1 0 0 1 0 -747.2)">
			<stop  offset="0" style="stop-color:#09005D"/>
			<stop  offset="1" style="stop-color:#1A0F91"/>
		</linearGradient>
		<path class="st11" d="M129.3,39.5v-8.9c0-3.1,2.6-5.5,5.6-5.5l61.5,2.1c2.7,0.1,4.9,2.3,5.1,5l0.5,8.5L129.3,39.5z"/>
		
			<linearGradient id="SVGID_8_" gradientUnits="userSpaceOnUse" x1="167.3055" y1="746.7178" x2="160.3615" y2="875.569" gradientTransform="matrix(1 0 0 1 0 -747.2)">
			<stop  offset="0" style="stop-color:#4F52FF"/>
			<stop  offset="1" style="stop-color:#4042E2"/>
		</linearGradient>
		<path class="st12" d="M104.3,41.8c0.2-3.1,2.7-5.5,5.8-5.5h107.5c3.9,0,7.1,2.8,7.8,6.6l0.1,0.5c0.7,4.1-2.5,8-6.7,8H108.5
			c-2.6,0-4.6-2.1-4.4-4.7L104.3,41.8z"/>
	</g>
	<g>
		<g>
			<g>
				
					<linearGradient id="SVGID_9_" gradientUnits="userSpaceOnUse" x1="186.5701" y1="992.961" x2="329.2877" y2="992.961" gradientTransform="matrix(1 0 0 1 0 -747.2)">
					<stop  offset="0" style="stop-color:#09005D"/>
					<stop  offset="1" style="stop-color:#1A0F91"/>
				</linearGradient>
				<path class="st13" d="M188.9,170.1c-0.8,26.8-3.2,119.4-2,152.2c0.1,3.5,3.3,6.2,7.2,6.4c19.4,0.5,90.6,2,122.3,0.8
					c6.6-0.3,11.9-5,12-10.8c0.7-28.1,2.1-107.4-1.3-143.7c-0.4-4.3-4.3-7.8-9.1-8.3c-21.1-1.8-92.6-6.4-120-4.8
					C192.8,162.2,189,165.7,188.9,170.1z"/>
				<path class="st14" d="M194.4,182v22.8c0,4.4,3.5,7.9,7.9,7.9H311c4.4,0,7.9-3.5,7.9-7.9V182c0-4.4-3.5-7.9-7.9-7.9H202.3
					C198,174,194.4,177.6,194.4,182z"/>
				<path class="st15" d="M313.4,181.8c-1-1-2.3-1.6-3.7-1.6L208,178.6c-2.7,0-5,2-5.3,4.7l-2.1,22.6c-0.2,1.8,2.9,3.4,6.8,3.4
					l100,1.2c3.9,0.1,7-1.4,7.1-3.3l0.4-21.7C314.9,184.2,314.4,182.8,313.4,181.8z"/>
			</g>
			
				<linearGradient id="SVGID_10_" gradientUnits="userSpaceOnUse" x1="173.8387" y1="1017.4693" x2="269.5594" y2="925.316" gradientTransform="matrix(1 0 0 1 0 -747.2)">
				<stop  offset="0" style="stop-color:#4F52FF"/>
				<stop  offset="1" style="stop-color:#4042E2"/>
			</linearGradient>
			<path class="st16" d="M221.6,235.6c0,4-3.3,7.3-7.3,7.3h-8.9c-4,0-7.3-3.3-7.3-7.3l0,0c0-4,3.3-7.3,7.3-7.3h8.9
				C218.3,228.4,221.6,231.6,221.6,235.6L221.6,235.6z"/>
			
				<linearGradient id="SVGID_11_" gradientUnits="userSpaceOnUse" x1="189.6642" y1="1033.9073" x2="285.3848" y2="941.7542" gradientTransform="matrix(1 0 0 1 0 -747.2)">
				<stop  offset="0" style="stop-color:#4F52FF"/>
				<stop  offset="1" style="stop-color:#4042E2"/>
			</linearGradient>
			<path class="st17" d="M254.5,235.6c0,4-3.3,7.3-7.3,7.3h-8.9c-4,0-7.3-3.3-7.3-7.3l0,0c0-4,3.3-7.3,7.3-7.3h8.9
				C251.2,228.4,254.5,231.6,254.5,235.6L254.5,235.6z"/>
			
				<linearGradient id="SVGID_12_" gradientUnits="userSpaceOnUse" x1="204.8162" y1="1049.6461" x2="300.5368" y2="957.4929" gradientTransform="matrix(1 0 0 1 0 -747.2)">
				<stop  offset="0" style="stop-color:#4F52FF"/>
				<stop  offset="1" style="stop-color:#4042E2"/>
			</linearGradient>
			<path class="st18" d="M286,235.6c0,4-3.3,7.3-7.3,7.3h-8.9c-4,0-7.3-3.3-7.3-7.3l0,0c0-4,3.3-7.3,7.3-7.3h8.9
				C282.8,228.4,286,231.6,286,235.6L286,235.6z"/>
			
				<linearGradient id="SVGID_13_" gradientUnits="userSpaceOnUse" x1="313.6479" y1="975.413" x2="261.5719" y2="1036.816" gradientTransform="matrix(1 0 0 1 0 -747.2)">
				<stop  offset="0" style="stop-color:#E1473D"/>
				<stop  offset="1" style="stop-color:#E9605A"/>
			</linearGradient>
			<path class="st19" d="M318.1,236.7c0,4-3.3,7.4-7.4,7.4h-8.5c-4,0-7.4-3.3-7.4-7.4l0,0c0-4,3.3-7.4,7.4-7.4h8.5
				C314.8,229.4,318.1,232.6,318.1,236.7L318.1,236.7z"/>
			
				<linearGradient id="SVGID_14_" gradientUnits="userSpaceOnUse" x1="185.2304" y1="1029.3021" x2="280.9509" y2="937.1489" gradientTransform="matrix(1 0 0 1 0 -747.2)">
				<stop  offset="0" style="stop-color:#4F52FF"/>
				<stop  offset="1" style="stop-color:#4042E2"/>
			</linearGradient>
			<path class="st20" d="M221.6,258.4c0,4-3.3,7.3-7.3,7.3h-8.9c-4,0-7.3-3.3-7.3-7.3l0,0c0-4,3.3-7.3,7.3-7.3h8.9
				C218.3,251.1,221.6,254.3,221.6,258.4L221.6,258.4z"/>
			
				<linearGradient id="SVGID_15_" gradientUnits="userSpaceOnUse" x1="201.056" y1="1045.7401" x2="296.7765" y2="953.587" gradientTransform="matrix(1 0 0 1 0 -747.2)">
				<stop  offset="0" style="stop-color:#4F52FF"/>
				<stop  offset="1" style="stop-color:#4042E2"/>
			</linearGradient>
			<path class="st21" d="M254.5,258.4c0,4-3.3,7.3-7.3,7.3h-8.9c-4,0-7.3-3.3-7.3-7.3l0,0c0-4,3.3-7.3,7.3-7.3h8.9
				C251.2,251.1,254.5,254.3,254.5,258.4L254.5,258.4z"/>
			
				<linearGradient id="SVGID_16_" gradientUnits="userSpaceOnUse" x1="216.2081" y1="1061.4788" x2="311.9286" y2="969.3256" gradientTransform="matrix(1 0 0 1 0 -747.2)">
				<stop  offset="0" style="stop-color:#4F52FF"/>
				<stop  offset="1" style="stop-color:#4042E2"/>
			</linearGradient>
			<path class="st22" d="M286,258.4c0,4-3.3,7.3-7.3,7.3h-8.9c-4,0-7.3-3.3-7.3-7.3l0,0c0-4,3.3-7.3,7.3-7.3h8.9
				C282.8,251.1,286,254.3,286,258.4L286,258.4z"/>
			
				<linearGradient id="SVGID_17_" gradientUnits="userSpaceOnUse" x1="232.0337" y1="1077.9169" x2="327.7542" y2="985.7637" gradientTransform="matrix(1 0 0 1 0 -747.2)">
				<stop  offset="0" style="stop-color:#4F52FF"/>
				<stop  offset="1" style="stop-color:#4042E2"/>
			</linearGradient>
			<path class="st23" d="M318.9,258.4c0,4-3.3,7.3-7.3,7.3h-8.9c-4,0-7.3-3.3-7.3-7.3l0,0c0-4,3.3-7.3,7.3-7.3h8.9
				C315.7,251.1,318.9,254.3,318.9,258.4L318.9,258.4z"/>
			<g>
				
					<linearGradient id="SVGID_18_" gradientUnits="userSpaceOnUse" x1="195.2732" y1="1039.7335" x2="290.9938" y2="947.5803" gradientTransform="matrix(1 0 0 1 0 -747.2)">
					<stop  offset="0" style="stop-color:#4F52FF"/>
					<stop  offset="1" style="stop-color:#4042E2"/>
				</linearGradient>
				<path class="st24" d="M221.6,278.5c0,4-3.3,7.3-7.3,7.3h-8.9c-4,0-7.3-3.3-7.3-7.3l0,0c0-4,3.3-7.3,7.3-7.3h8.9
					C218.3,271.3,221.6,274.6,221.6,278.5L221.6,278.5z"/>
				
					<linearGradient id="SVGID_19_" gradientUnits="userSpaceOnUse" x1="211.0987" y1="1056.1718" x2="306.8192" y2="964.0185" gradientTransform="matrix(1 0 0 1 0 -747.2)">
					<stop  offset="0" style="stop-color:#4F52FF"/>
					<stop  offset="1" style="stop-color:#4042E2"/>
				</linearGradient>
				<path class="st25" d="M254.5,278.5c0,4-3.3,7.3-7.3,7.3h-8.9c-4,0-7.3-3.3-7.3-7.3l0,0c0-4,3.3-7.3,7.3-7.3h8.9
					C251.2,271.3,254.5,274.6,254.5,278.5L254.5,278.5z"/>
				
					<linearGradient id="SVGID_20_" gradientUnits="userSpaceOnUse" x1="226.2508" y1="1071.9104" x2="321.9715" y2="979.7571" gradientTransform="matrix(1 0 0 1 0 -747.2)">
					<stop  offset="0" style="stop-color:#4F52FF"/>
					<stop  offset="1" style="stop-color:#4042E2"/>
				</linearGradient>
				<path class="st26" d="M286,278.5c0,4-3.3,7.3-7.3,7.3h-8.9c-4,0-7.3-3.3-7.3-7.3l0,0c0-4,3.3-7.3,7.3-7.3h8.9
					C282.8,271.3,286,274.6,286,278.5L286,278.5z"/>
			</g>
			<g>
				
					<linearGradient id="SVGID_21_" gradientUnits="userSpaceOnUse" x1="206.3652" y1="1051.255" x2="302.0859" y2="959.1017" gradientTransform="matrix(1 0 0 1 0 -747.2)">
					<stop  offset="0" style="stop-color:#4F52FF"/>
					<stop  offset="1" style="stop-color:#4042E2"/>
				</linearGradient>
				<path class="st27" d="M221.6,300.7c0,4-3.3,7.3-7.3,7.3h-8.9c-4,0-7.3-3.3-7.3-7.3l0,0c0-4,3.3-7.3,7.3-7.3h8.9
					C218.3,293.4,221.6,296.6,221.6,300.7L221.6,300.7z"/>
				
					<linearGradient id="SVGID_22_" gradientUnits="userSpaceOnUse" x1="222.1907" y1="1067.6931" x2="317.9113" y2="975.5398" gradientTransform="matrix(1 0 0 1 0 -747.2)">
					<stop  offset="0" style="stop-color:#4F52FF"/>
					<stop  offset="1" style="stop-color:#4042E2"/>
				</linearGradient>
				<path class="st28" d="M254.5,300.7c0,4-3.3,7.3-7.3,7.3h-8.9c-4,0-7.3-3.3-7.3-7.3l0,0c0-4,3.3-7.3,7.3-7.3h8.9
					C251.2,293.4,254.5,296.6,254.5,300.7L254.5,300.7z"/>
				
					<linearGradient id="SVGID_23_" gradientUnits="userSpaceOnUse" x1="237.3427" y1="1083.4319" x2="333.0634" y2="991.2786" gradientTransform="matrix(1 0 0 1 0 -747.2)">
					<stop  offset="0" style="stop-color:#4F52FF"/>
					<stop  offset="1" style="stop-color:#4042E2"/>
				</linearGradient>
				<path class="st29" d="M286,300.7c0,4-3.3,7.3-7.3,7.3h-8.9c-4,0-7.3-3.3-7.3-7.3l0,0c0-4,3.3-7.3,7.3-7.3h8.9
					C282.8,293.4,286,296.6,286,300.7L286,300.7z"/>
			</g>
			
				<linearGradient id="SVGID_24_" gradientUnits="userSpaceOnUse" x1="296.2704" y1="1053.0713" x2="327.7809" y2="1007.2917" gradientTransform="matrix(1 0 0 1 0 -747.2)">
				<stop  offset="0" style="stop-color:#4F52FF"/>
				<stop  offset="1" style="stop-color:#4042E2"/>
			</linearGradient>
			<path class="st30" d="M315.8,300.1c0,5.1-4.1,9.2-9.2,9.2H306c-5.1,0-9.2-4.1-9.2-9.2v-17.6c0-5.1,4.1-9.2,9.2-9.2h0.5
				c5.1,0,9.2,4.1,9.2,9.2L315.8,300.1L315.8,300.1z"/>
		</g>
		<g class="st31">
			<path class="st2" d="M303.1,185.1c0,0.9-0.7,1.6-1.6,1.6h-4.4c-0.9,0-1.6-0.7-1.6-1.6l0,0c0-0.9,0.7-1.6,1.6-1.6h4.4
				C302.4,183.5,303.1,184.2,303.1,185.1L303.1,185.1z"/>
			<path class="st2" d="M303.1,206.6c0,0.9-0.7,1.6-1.6,1.6h-4.4c-0.9,0-1.6-0.7-1.6-1.6l0,0c0-0.9,0.7-1.6,1.6-1.6h4.4
				C302.4,205,303.1,205.7,303.1,206.6L303.1,206.6z"/>
			<path class="st2" d="M296.2,193.9c0,0.9-0.7,1.6-1.6,1.6l0,0c-0.9,0-1.6-0.7-1.6-1.6v-4.4c0-0.9,0.7-1.6,1.6-1.6l0,0
				c0.9,0,1.6,0.7,1.6,1.6V193.9z"/>
			<path class="st2" d="M296.2,202.8c0,0.9-0.7,1.6-1.6,1.6l0,0c-0.9,0-1.6-0.7-1.6-1.6v-4.4c0-0.9,0.7-1.6,1.6-1.6l0,0
				c0.9,0,1.6,0.7,1.6,1.6V202.8z"/>
			<path class="st2" d="M306.9,193.9c0,0.9-0.7,1.6-1.6,1.6l0,0c-0.9,0-1.6-0.7-1.6-1.6v-4.4c0-0.9,0.7-1.6,1.6-1.6l0,0
				c0.9,0,1.6,0.7,1.6,1.6V193.9z"/>
			<path class="st2" d="M306.9,202.8c0,0.9-0.7,1.6-1.6,1.6l0,0c-0.9,0-1.6-0.7-1.6-1.6v-4.4c0-0.9,0.7-1.6,1.6-1.6l0,0
				c0.9,0,1.6,0.7,1.6,1.6V202.8z"/>
		</g>
	</g>
	<g>
		<g>
			
				<linearGradient id="SVGID_25_" gradientUnits="userSpaceOnUse" x1="66.6716" y1="738.3669" x2="57.9492" y2="841.2906" gradientTransform="matrix(1 0 0 1 0 -747.2)">
				<stop  offset="0" style="stop-color:#FF928E"/>
				<stop  offset="1" style="stop-color:#FE7062"/>
			</linearGradient>
			<path class="st32" d="M75.2,258.3H13.8c-2.7,0-4.9-2.2-4.9-4.9V251c0-2.7,2.2-4.9,4.9-4.9h61.5c2.7,0,4.9,2.2,4.9,4.9v2.4
				C80.2,256.1,78,258.3,75.2,258.3z"/>
		</g>
		<g>
			
				<linearGradient id="SVGID_26_" gradientUnits="userSpaceOnUse" x1="65.6121" y1="737.9612" x2="56.8897" y2="840.8849" gradientTransform="matrix(1 0 0 1 0 -747.2)">
				<stop  offset="0" style="stop-color:#FF928E"/>
				<stop  offset="1" style="stop-color:#FE7062"/>
			</linearGradient>
			<path class="st33" d="M75.2,245.4H13.8c-2.7,0-4.9-2.2-4.9-4.9v-2.4c0-2.7,2.2-4.9,4.9-4.9h61.5c2.7,0,4.9,2.2,4.9,4.9v2.4
				C80.2,243.1,78,245.4,75.2,245.4z"/>
		</g>
		<g>
			
				<linearGradient id="SVGID_27_" gradientUnits="userSpaceOnUse" x1="67.7634" y1="738.7832" x2="59.041" y2="841.707" gradientTransform="matrix(1 0 0 1 0 -747.2)">
				<stop  offset="0" style="stop-color:#FF928E"/>
				<stop  offset="1" style="stop-color:#FE7062"/>
			</linearGradient>
			<path class="st34" d="M75.2,271.6H13.8c-2.7,0-4.9-2.2-4.9-4.9v-2.4c0-2.7,2.2-4.9,4.9-4.9h61.5c2.7,0,4.9,2.2,4.9,4.9v2.4
				C80.2,269.4,78,271.6,75.2,271.6z"/>
		</g>
		<g>
			
				<linearGradient id="SVGID_28_" gradientUnits="userSpaceOnUse" x1="68.847" y1="739.1971" x2="60.1246" y2="842.1208" gradientTransform="matrix(1 0 0 1 0 -747.2)">
				<stop  offset="0" style="stop-color:#FF928E"/>
				<stop  offset="1" style="stop-color:#FE7062"/>
			</linearGradient>
			<path class="st35" d="M75.2,284.8H13.8c-2.7,0-4.9-2.2-4.9-4.9v-2.4c0-2.7,2.2-4.9,4.9-4.9h61.5c2.7,0,4.9,2.2,4.9,4.9v2.4
				C80.2,282.6,78,284.8,75.2,284.8z"/>
		</g>
		<g>
			
				<linearGradient id="SVGID_29_" gradientUnits="userSpaceOnUse" x1="69.9305" y1="739.6115" x2="61.2081" y2="842.5352" gradientTransform="matrix(1 0 0 1 0 -747.2)">
				<stop  offset="0" style="stop-color:#FF928E"/>
				<stop  offset="1" style="stop-color:#FE7062"/>
			</linearGradient>
			<path class="st36" d="M75.2,298H13.8c-2.7,0-4.9-2.2-4.9-4.9v-2.4c0-2.7,2.2-4.9,4.9-4.9h61.5c2.7,0,4.9,2.2,4.9,4.9v2.4
				C80.2,295.8,78,298,75.2,298z"/>
		</g>
		<g>
			
				<linearGradient id="SVGID_30_" gradientUnits="userSpaceOnUse" x1="70.9809" y1="740.0139" x2="62.2586" y2="842.9377" gradientTransform="matrix(1 0 0 1 0 -747.2)">
				<stop  offset="0" style="stop-color:#FF928E"/>
				<stop  offset="1" style="stop-color:#FE7062"/>
			</linearGradient>
			<path class="st37" d="M75.2,310.8H13.8c-2.7,0-4.9-2.2-4.9-4.9v-2.4c0-2.7,2.2-4.9,4.9-4.9h61.5c2.7,0,4.9,2.2,4.9,4.9v2.4
				C80.2,308.6,78,310.8,75.2,310.8z"/>
		</g>
		<g>
			
				<linearGradient id="SVGID_31_" gradientUnits="userSpaceOnUse" x1="72.0319" y1="740.416" x2="63.3095" y2="843.3397" gradientTransform="matrix(1 0 0 1 0 -747.2)">
				<stop  offset="0" style="stop-color:#FF928E"/>
				<stop  offset="1" style="stop-color:#FE7062"/>
			</linearGradient>
			<path class="st38" d="M75.2,323.6H13.8c-2.7,0-4.9-2.2-4.9-4.9v-2.4c0-2.7,2.2-4.9,4.9-4.9h61.5c2.7,0,4.9,2.2,4.9,4.9v2.4
				C80.2,321.4,78,323.6,75.2,323.6z"/>
		</g>
	</g>
	<g>
		<g>
			
				<linearGradient id="SVGID_32_" gradientUnits="userSpaceOnUse" x1="142.0506" y1="745.2562" x2="133.3283" y2="848.1799" gradientTransform="matrix(1 0 0 1 0 -747.2)">
				<stop  offset="0" style="stop-color:#FF928E"/>
				<stop  offset="1" style="stop-color:#FE7062"/>
			</linearGradient>
			<path class="st39" d="M149,285H87.5c-2.7,0-4.9-2.2-4.9-4.9v-2.4c0-2.7,2.2-4.9,4.9-4.9H149c2.7,0,4.9,2.2,4.9,4.9v2.4
				C153.9,282.8,151.8,285,149,285z"/>
		</g>
		<g>
			
				<linearGradient id="SVGID_33_" gradientUnits="userSpaceOnUse" x1="143.1428" y1="745.6714" x2="134.4204" y2="848.5951" gradientTransform="matrix(1 0 0 1 0 -747.2)">
				<stop  offset="0" style="stop-color:#FF928E"/>
				<stop  offset="1" style="stop-color:#FE7062"/>
			</linearGradient>
			<path class="st40" d="M149,298.3H87.5c-2.7,0-4.9-2.2-4.9-4.9V291c0-2.7,2.2-4.9,4.9-4.9H149c2.7,0,4.9,2.2,4.9,4.9v2.4
				C153.9,296.1,151.8,298.3,149,298.3z"/>
		</g>
		<g>
			
				<linearGradient id="SVGID_34_" gradientUnits="userSpaceOnUse" x1="144.1936" y1="746.072" x2="135.4712" y2="848.9958" gradientTransform="matrix(1 0 0 1 0 -747.2)">
				<stop  offset="0" style="stop-color:#FF928E"/>
				<stop  offset="1" style="stop-color:#FE7062"/>
			</linearGradient>
			<path class="st41" d="M149,311.1H87.5c-2.7,0-4.9-2.2-4.9-4.9v-2.4c0-2.7,2.2-4.9,4.9-4.9H149c2.7,0,4.9,2.2,4.9,4.9v2.4
				C153.9,308.9,151.8,311.1,149,311.1z"/>
		</g>
		<g>
			
				<linearGradient id="SVGID_35_" gradientUnits="userSpaceOnUse" x1="145.2443" y1="746.4739" x2="136.5219" y2="849.3977" gradientTransform="matrix(1 0 0 1 0 -747.2)">
				<stop  offset="0" style="stop-color:#FF928E"/>
				<stop  offset="1" style="stop-color:#FE7062"/>
			</linearGradient>
			<path class="st42" d="M149,323.9H87.5c-2.7,0-4.9-2.2-4.9-4.9v-2.4c0-2.7,2.2-4.9,4.9-4.9H149c2.7,0,4.9,2.2,4.9,4.9v2.4
				C153.9,321.7,151.8,323.9,149,323.9z"/>
		</g>
	</g>
	<g>
		
			<linearGradient id="SVGID_36_" gradientUnits="userSpaceOnUse" x1="-154.0755" y1="773.9155" x2="-163.0159" y2="879.4107" gradientTransform="matrix(1 -5.000000e-04 5.000000e-04 1 218.1626 -830.3996)">
			<stop  offset="0" style="stop-color:#FF928E"/>
			<stop  offset="1" style="stop-color:#FE7062"/>
		</linearGradient>
		<circle class="st43" cx="43" cy="198.5" r="32.6"/>
		
			<linearGradient id="SVGID_37_" gradientUnits="userSpaceOnUse" x1="-154.0755" y1="773.9152" x2="-163.0158" y2="879.4104" gradientTransform="matrix(1 -5.000000e-04 5.000000e-04 1 218.1626 -830.3996)">
			<stop  offset="0" style="stop-color:#FF928E"/>
			<stop  offset="1" style="stop-color:#FE7062"/>
		</linearGradient>
		<circle class="st44" cx="43" cy="198.5" r="31.6"/>
		<ellipse class="st45" cx="43.4" cy="198.1" rx="26.7" ry="26.7"/>
		<path class="st46" d="M55.6,193.1c0-0.8,0.2-1.8,0-2.6s-0.4-1.8-0.8-2.6c-0.2-0.4-0.4-1-0.8-1.4c-0.4-0.4-0.6-1-1-1.4
			c-0.6-0.8-1.6-1.4-2.6-1.6c-0.6-0.2-1.2-0.4-1.8-0.6c-0.4,0-0.8-0.2-1.2-0.2c-1.2,0-2.2-0.2-3.3-0.2c-1,0-1.8,0.2-2.8,0.2
			c0-0.8,0-1.6,0-2.4c0-0.4-0.2-0.6-0.2-1c-0.2-0.4-0.4-0.6-0.6-0.8c-0.4-0.4-1.2-0.8-2-0.6c-0.6,0-1.4,0.4-1.8,0.8
			c-0.2,0.2-0.2,0.4-0.4,0.6c-0.2,0.4-0.4,0.8-0.2,1.4c0,1,0,2.2,0,3.2c-0.8,0.2-1.6,0.6-2.4,1c-0.6,0.2-1.2,0.6-1.6,0.8
			c-0.2,0.2-0.6,0.4-0.6,0.8c-0.2,0.2-0.4,0.6-0.4,1c-0.2,0.6,0,1.4,0.4,2s1,1,1.6,1.2c0.2,0,0.4,0,0.6,0c0.4,0,0.8-0.2,1.2-0.4
			s0.8-0.4,1.4-0.6c0,1.6,0,3.2,0,5c0,1.2,0,2.4,0,3.6c-0.6,0-1-0.2-1.6-0.2c-0.4,0-0.6,0-1,0s-0.6,0.2-1,0.4c-0.6,0.4-1,1-1.2,1.6
			s0,1.4,0.4,2s1,1,1.6,1.2c1,0.2,1.8,0.2,2.8,0.4c0,1.2,0,2.4,0.2,3.6c-0.2,0-0.4,0-0.6,0c-0.6,0-1.4-0.2-2-0.2s-1.2,0-1.6,0.4
			c-0.4,0.2-0.8,0.8-1,1.4c0,0.6,0,1.2,0.4,1.6c0.4,0.4,0.8,0.8,1.4,1c1.2,0.2,2.6,0.2,3.8,0.4c0,1.4,0.2,2.8,0.2,4
			c0,0.6,0.4,1.4,0.8,1.8c0.4,0.4,1.2,0.8,2,0.6c0.6,0,1.4-0.4,1.8-0.8c0.4-0.6,0.6-1.2,0.6-2c0-1.2-0.2-2.6-0.2-3.8
			c0.4,0,0.8,0,1-0.2c1-0.2,1.8-0.2,2.8-0.4c0.2,0,0.6,0,0.8-0.2s0.4-0.2,0.6-0.4c0.4-0.4,0.6-1,0.6-1.6s-0.2-1-0.8-1.4
			c-0.4-0.4-1-0.6-1.6-0.6c-1.2,0.2-2.4,0.4-3.6,0.6c0-1.2,0-2.2-0.2-3.3c0.2,0,0.6,0,0.8,0c1,0,2-0.2,3.2-0.4
			c1.6-0.4,3.2-1,4.7-1.8c0.8-0.4,1.6-1,2.2-1.6c0.6-0.6,1.2-1.4,1.8-2.2c0.4-0.8,0.8-1.6,1-2.4C55.4,194.4,55.6,193.9,55.6,193.1z
			 M49.6,189.3L49.6,189.3L49.6,189.3z M47.1,197.3c-1,0.4-2,0.8-3,1c-0.8,0.2-1.8,0.2-2.6,0.2c0-3.3-0.2-6.8-0.2-10.1l0,0
			c1.6-0.2,3.3-0.4,5.2-0.4c0.6,0,1.4,0.2,2,0.4c0.2,0.2,0.6,0.2,0.8,0.4l0.2,0.2c0.2,0.4,0.6,0.8,0.8,1c0.2,0.4,0.2,0.8,0.4,1
			c0,0.4,0,0.8,0,1.4c0,0.4-0.2,1-0.2,1.4c-0.2,0.4-0.4,0.8-0.6,1.2c-0.2,0.4-0.6,0.8-1,1C48.3,196.5,47.7,196.9,47.1,197.3z"/>
	</g>
	<g>
		
			<linearGradient id="SVGID_38_" gradientUnits="userSpaceOnUse" x1="13302.209" y1="903.6821" x2="13257.8545" y2="928.9988" gradientTransform="matrix(-1 0 0 1 13511.5723 -747.2)">
			<stop  offset="0" style="stop-color:#FEBBBA"/>
			<stop  offset="1" style="stop-color:#FF928E"/>
		</linearGradient>
		<path class="st47" d="M216.1,197.7c0.1,0,28.1-49.3,32-53.9c0.6-0.8,1.7-1.1,2.6-1.1l7.8,1l9.2,20l-15.4-9
			c1.5,10.6-18.2,26.1-25,31.8c-0.7,0.6-0.7,1.6-0.1,2.3l2.7,2.8c-4.4,4.5-9.6,7.4-15.3,8.7L216.1,197.7z"/>
		
			<linearGradient id="SVGID_39_" gradientUnits="userSpaceOnUse" x1="-9888.6133" y1="-4461.9526" x2="-9892.0186" y2="-4409.7446" gradientTransform="matrix(0.8974 -0.4412 0.4412 0.8974 11057.7842 -176.9086)">
			<stop  offset="0" style="stop-color:#09005D"/>
			<stop  offset="1" style="stop-color:#1A0F91"/>
		</linearGradient>
		<path class="st48" d="M228.4,190.1c0,0,1.8,0.5,2.3,2.1c0.3,0.7,0,1.6-0.7,2c-2.8,2-12.2,8.6-16.5,9.8c-0.4,0.1-0.7-0.2-0.6-0.6
			c0.3-1,1-3,3.3-6L216,198c-0.3,0.5,0.4,1.1,0.8,0.8C219.7,197.2,225.6,193.6,228.4,190.1z"/>
		
			<linearGradient id="SVGID_40_" gradientUnits="userSpaceOnUse" x1="13297.8281" y1="909.8489" x2="13449.5859" y2="814.8463" gradientTransform="matrix(-1 0 0 1 13511.5723 -747.2)">
			<stop  offset="0" style="stop-color:#FEBBBA"/>
			<stop  offset="1" style="stop-color:#FF928E"/>
		</linearGradient>
		<path class="st49" d="M227.1,209.8c0.1,0,4.3-10.2,4.3-10.2c3.9-23.6,13.3-43.7,16.1-49.1c0.4-0.9,1.3-1.5,2.4-1.6l7.9-0.7
			l13.1,17.7l-16.9-5.6c3.6,10-12.6,29.3-18,36.2c-0.5,0.7-0.4,1.8,0.4,2.3l3.3,2.2c-3.4,5.3-7.8,9.1-13.3,11.6L227.1,209.8z"/>
		
			<linearGradient id="SVGID_41_" gradientUnits="userSpaceOnUse" x1="-8568.3311" y1="-6563.6938" x2="-8571.7354" y2="-6511.4893" gradientTransform="matrix(0.7895 -0.6137 0.6137 0.7895 11015.7773 118.0275)">
			<stop  offset="0" style="stop-color:#09005D"/>
			<stop  offset="1" style="stop-color:#1A0F91"/>
		</linearGradient>
		<path class="st50" d="M237.7,199.9c0,0,1.8,0.2,2.7,1.6c0.4,0.7,0.3,1.6-0.3,2.1c-2.4,2.6-10.2,10.9-14.2,13
			c-0.4,0.2-0.7-0.1-0.7-0.4c0-1.1,0.4-3.2,2-6.5l-0.1,0.4c-0.2,0.6,0.5,1,1,0.6C230.6,208.5,235.6,203.9,237.7,199.9z"/>
		<g>
			
				<linearGradient id="SVGID_42_" gradientUnits="userSpaceOnUse" x1="5375.3521" y1="1030.7802" x2="5392.6372" y2="958.0646" gradientTransform="matrix(-1 0 0 1 5679.873 -747.2)">
				<stop  offset="0" style="stop-color:#FF928E"/>
				<stop  offset="1" style="stop-color:#FE7062"/>
			</linearGradient>
			<path class="st51" d="M294.6,144.6c0,0,7.1,10.6,7.7,15.5c0.6,4.8-1.9,6.5-9.4,7.1c-22.2,1.8-33.2-4.8-33.2-4.8
				c-1.5-9.7-2.6-12.1-15.3-17.4c0,0,16,1.2,19.3,0C267,143.7,294.6,144.6,294.6,144.6z"/>
		</g>
		<g>
			
				<linearGradient id="SVGID_43_" gradientUnits="userSpaceOnUse" x1="-13409.3906" y1="-779.8824" x2="-13398.4844" y2="-752.5231" gradientTransform="matrix(0.9446 -0.3283 0.3283 0.9446 13181.166 -3595.2158)">
				<stop  offset="0" style="stop-color:#09005D"/>
				<stop  offset="1" style="stop-color:#1A0F91"/>
			</linearGradient>
			<path class="st52" d="M266.2,85.2c0,0,4.9-5.9,10.2,1.3c1,1.3,4.7,0.3,6,3c0.7,1.4,2.2,2.2,3.8,1.9c3.9-0.7,10.1-0.8,13.3,5.3
				c2.4,4.6,0.5,7.3-1.8,8.9c-1.8,1.1-2.4,3.4-1.3,5.2c1,1.8,1.2,4-1.4,6.9c-5.8,6.2-17.4-4-17.4-4L268.3,92L266.2,85.2z"/>
			<path class="st2" d="M275.3,143.2c0,0-8.3-7.9-12.4-13.1c-2.2-2.8-2.9-6.6-1.8-10c1.8-6.2,5.2-12.8,5.5-13.8
				c0.4-1.6,9.8-1.5,9.8-1.5s18.3,11.9,25.5,32l-8.1,2.6c0,0-4.7-8-9.5-13.1c0,0,8.2,10.8,8.4,15.2L275.3,143.2z"/>
			
				<linearGradient id="SVGID_44_" gradientUnits="userSpaceOnUse" x1="-11264.0469" y1="889.0653" x2="-11219.9053" y2="889.0653" gradientTransform="matrix(1 0 0 1 11551.1094 -747.2)">
				<stop  offset="0" style="stop-color:#FEBBBA"/>
				<stop  offset="1" style="stop-color:#FF928E"/>
			</linearGradient>
			<path class="st53" d="M259.5,146.3l6.2-6.8l7.2,1.9c0,0,8.4,1.3,13.2,0c4.8-1.3,4.8-1.3,4.8-1.3l10.8-3.3l1.7,4.8
				c0.4,1.2,0,2.6-1.1,3.3c-1,0.7-2,1.4-2.7,1.7c-1.4,0.6-33,0.2-33,0.2L259.5,146.3z"/>
			
				<linearGradient id="SVGID_45_" gradientUnits="userSpaceOnUse" x1="-13097.3906" y1="59.0743" x2="-13095.2305" y2="43.2731" gradientTransform="matrix(0.9974 -7.170000e-02 7.170000e-02 0.9974 13328.165 -877.2565)">
				<stop  offset="0" style="stop-color:#FEBBBA"/>
				<stop  offset="1" style="stop-color:#FF928E"/>
			</linearGradient>
			<path class="st54" d="M270,93.6l6.2,11.6c-0.4,2.6-6.8,2.6-7.8,1.1c-0.1-0.2-0.2-0.4-0.2-0.5l-3.8-7.7c-0.2-0.8,1.9-3.3,2.6-3.7
				l2.5-1.3C270.5,92.5,266.5,92.4,270,93.6z"/>
			<g>
				
					<linearGradient id="SVGID_46_" gradientUnits="userSpaceOnUse" x1="-12941.1367" y1="-4057.2708" x2="-12920.7998" y2="-4093.4631" gradientTransform="matrix(0.5458 -0.8379 0.8379 0.5458 10733.4941 -8521.6641)">
					<stop  offset="0" style="stop-color:#FEBBBA"/>
					<stop  offset="1" style="stop-color:#FF928E"/>
				</linearGradient>
				<path class="st55" d="M257.3,90.8c0,0-0.7,4,2.4,8.9c3.1,5,6.2,4.7,7.7,3c1.6-1.8,3.4-4.7,2.6-9.8
					C269.1,88,258.3,85.8,257.3,90.8z"/>
				
					<linearGradient id="SVGID_47_" gradientUnits="userSpaceOnUse" x1="-12936.7363" y1="-4088.8481" x2="-12926.5684" y2="-4063.3418" gradientTransform="matrix(0.5458 -0.8379 0.8379 0.5458 10733.4941 -8521.6641)">
					<stop  offset="0" style="stop-color:#09005D"/>
					<stop  offset="1" style="stop-color:#1A0F91"/>
				</linearGradient>
				<path class="st56" d="M266.3,93.6c0,0-5-6.6-8.9-0.9l0.1,1.9c0,0-5-0.3-4.5-4.8c0.5-4.6,4.7-7.7,10.3-6.2c5.6,1.6,9,3.3,9.6,7.3
					s-2.6,3.3-2.6,3.3s-1.2-2.7-2.7-2.9c-1.5-0.2-1,1.9-1,1.9L266.3,93.6z"/>
				
					<linearGradient id="SVGID_48_" gradientUnits="userSpaceOnUse" x1="-12936.8818" y1="-4054.8806" x2="-12916.5459" y2="-4091.072" gradientTransform="matrix(0.5458 -0.8379 0.8379 0.5458 10733.4941 -8521.6641)">
					<stop  offset="0" style="stop-color:#FEBBBA"/>
					<stop  offset="1" style="stop-color:#FF928E"/>
				</linearGradient>
				<path class="st57" d="M267.4,93.4c0,0-2.6-3.3-0.3-4c2.4-0.7,2.3,3.3,2.1,4.7L267.4,93.4z"/>
			</g>
		</g>
		<g>
			
				<linearGradient id="SVGID_49_" gradientUnits="userSpaceOnUse" x1="-11343.6309" y1="544.8676" x2="-11366.7451" y2="551.2025" gradientTransform="matrix(0.9988 -4.940000e-02 4.940000e-02 0.9988 11588.1484 -963.2029)">
				<stop  offset="0" style="stop-color:#09005D"/>
				<stop  offset="1" style="stop-color:#1A0F91"/>
			</linearGradient>
			<path class="st58" d="M280.2,149L280.2,149h-28.8c-0.7,0-1.3-0.6-1.3-1.3s0.6-1.3,1.3-1.3h28.7c0.7,0,1.3,0.6,1.3,1.3
				S280.9,149,280.2,149z"/>
			
				<linearGradient id="SVGID_50_" gradientUnits="userSpaceOnUse" x1="225.0426" y1="884.7885" x2="432.9255" y2="867.2985" gradientTransform="matrix(1 0 0 1 0 -747.2)">
				<stop  offset="0" style="stop-color:#09005D"/>
				<stop  offset="1" style="stop-color:#1A0F91"/>
			</linearGradient>
			<path class="st59" d="M225.6,122.9h23.9c1.8,0,3.3,1.1,4.1,2.6l11.1,23.4H235c-1.1,0-2.2-0.7-2.6-1.8l-8.5-21.6
				C223.3,124.3,224.3,122.9,225.6,122.9z"/>
			
				<linearGradient id="SVGID_51_" gradientUnits="userSpaceOnUse" x1="-11307.3477" y1="877.8889" x2="-11314.7891" y2="889.0948" gradientTransform="matrix(1 0 0 1 11551.1094 -747.2)">
				<stop  offset="0" style="stop-color:#4F52FF"/>
				<stop  offset="1" style="stop-color:#4042E2"/>
			</linearGradient>
			<path class="st60" d="M242.4,134.9c0.5,1.6,0.2,3.2-0.9,3.5c-1,0.4-2.2-0.7-2.7-2.4c-0.5-1.6-0.2-3.2,0.9-3.5
				C240.8,132.3,242,133.3,242.4,134.9z"/>
		</g>
	</g>
</g>
</svg>
