<?xml version="1.0" encoding="utf-8"?>
<!-- Generator: Adobe Illustrator 24.1.2, SVG Export Plug-In . SVG Version: 6.00 Build 0)  -->
<svg version="1.1" id="Слой_1" xmlns="http://www.w3.org/2000/svg" xmlns:xlink="http://www.w3.org/1999/xlink" x="0px" y="0px"
	 viewBox="0 0 1920 627" style="enable-background:new 0 0 1920 627;" xml:space="preserve">
<style type="text/css">
	.st0{opacity:0.7;}
	.st1{fill:#5222D0;}
	.st2{fill:#EC615B;}
</style>
<g class="st0">
	<circle class="st1" cx="1387.8" cy="299.5" r="2.8"/>
	<circle class="st1" cx="1290.3" cy="459.2" r="5.7"/>
	<circle class="st1" cx="91.4" cy="345.4" r="5.1"/>
	
		<ellipse transform="matrix(0.3827 -0.9239 0.9239 0.3827 783.5278 1443.6305)" class="st1" cx="1472" cy="135.5" rx="3.8" ry="3.8"/>
	<circle class="st2" cx="1465.6" cy="124.3" r="4.3"/>
	<circle class="st2" cx="1484.7" cy="128.8" r="1.4"/>
	<circle class="st2" cx="1834.2" cy="24.1" r="2.3"/>
	<circle class="st2" cx="87.4" cy="68.4" r="3.9"/>
	<circle class="st2" cx="153.2" cy="560.3" r="3.5"/>
	<circle class="st1" cx="1744.4" cy="384" r="2.4"/>
	<circle class="st2" cx="1598.4" cy="303.5" r="4"/>
	<path class="st2" d="M166.7,213.2c0,1.3,0.9,2.5,2.1,2.9c2.2,0.7,4.1-0.8,6.2-1.2c3.4-0.6,6.1,1.1,7.9,3.8c1,1.3,1.9,2.7,3.7,2.8
		c2.3,0.2,4.4-1.6,6.3-2.6c1.6-0.8,3.7-1.6,5.5-1.1c1.6,0.4,2.5,1.7,3.5,2.8c2.7,3.4,7.2,4.9,11.5,3.8c0.4-0.1,0.6-0.6,0.4-1
		c-0.1-0.3-0.5-0.5-0.8-0.5c-2.5,0.7-5.2,0.3-7.5-1.1c-1.8-1.1-2.8-3-4.4-4.4c-3.1-2.5-7-1-10.1,0.8c-1.6,0.9-2.6,1.7-4.4,1.4
		s-2-1.2-3-2.5c-0.9-1.3-2.2-2.4-3.7-3c-1.4-0.6-2.9-0.8-4.4-0.7c-1.5,0.1-7.2,3.1-7.3-0.1C168.1,212.4,166.6,212.4,166.7,213.2
		L166.7,213.2z"/>
	<path class="st2" d="M188.7,229.7c3.9-2.5,8.9-2.5,12.8,0c1.3,0.9,2.4,2.4,3.9,2.6c2,0.3,3.2-1.4,4.7-2.3s3-1.3,4.7-0.4
		c0.9,0.6,1.7,1.3,2.4,2.1c1.2,0.9,2.7,1.5,4.2,1.7c3,0.5,6.1-0.4,8.3-2.5c0.7-0.6-0.4-1.7-1.1-1c-1.6,1.5-3.8,2.4-6.1,2.3
		c-2.6-0.1-4.1-1.4-6-3c-2.5-2.2-5.3-1.7-7.9,0.1c-1.4,1-2.1,2.1-4.6,0.7c-0.6-0.5-1.3-1-1.9-1.5c-1.4-1-3.1-1.6-4.8-1.9
		c-3.3-0.6-6.7,0.1-9.5,1.9C187.1,229,187.9,230.3,188.7,229.7L188.7,229.7z"/>
	<path class="st2" d="M1621.2,510.2c-0.5-1.5,0.3-3.1,1.8-3.7c0.2-0.1,0.4-0.1,0.6-0.1c0.9,0,1.8,0.1,2.6,0.4c1.2,0.3,2.5,0.3,3.6,0
		c1.9-0.9,2.1-2.9,2.5-4.7c0.1-0.7,0.3-1.3,0.7-1.9c0.3-0.4,2.3-0.5,3-0.7c1-0.4,1.9-1,2.6-1.8c2-2.2,4.2-8.9,8.3-7
		c0.8,0.4,1.7-0.9,0.8-1.3c-3.2-1.5-6,1-7.7,3.6c-1.2,1.8-2.3,4.5-4.6,5.1c-1.5,0.4-2.8,0-3.8,1.5c-0.8,1.1-0.7,2.6-1,3.9
		c-1,3.3-4.2,1.5-6.6,1.5c-2.4,0-4.4,1.9-4.4,4.3c0,0.5,0.1,0.9,0.2,1.3C1620,511.5,1621.5,511.1,1621.2,510.2L1621.2,510.2z"/>
	<path class="st2" d="M1638.3,509.3c0-2.7,1.8-5.2,4.4-5.9c1.5-0.4,3.2,0.2,4.4-1s1.8-3.3,3-4.6c1.7-1.8,4-3,6.5-3.4
		c1-0.1,0.6-1.6-0.4-1.4c-2.3,0.4-4.4,1.3-6.1,2.8c-2.2,1.8-3.1,5.4-6,5.9c-2,0.4-3.7,0.7-5.2,2.3c-1.4,1.4-2.1,3.4-2.1,5.3
		C1636.8,510.3,1638.3,510.3,1638.3,509.3L1638.3,509.3z"/>
	<path class="st1" d="M1825.9,351.3c-0.6-1.7,0.1-3.6,1.8-4.4c1.5-0.7,3.2-0.3,4.1,1.1c1,1.4,0.6,3.4-0.9,4.4c-1,0.7-2.4,0.7-3.4,0
		c-0.8-0.5-1.6,0.8-0.8,1.3c1.9,1.1,4.3,0.9,5.9-0.7c1.8-1.9,1.6-4.9-0.3-6.7c-1.4-1.2-3.3-1.6-5-0.8c-2.5,1-3.7,3.8-2.8,6.3
		C1824.7,352.6,1826.2,352.2,1825.9,351.3L1825.9,351.3z"/>
	<path class="st1" d="M1815.2,559.3c-1.4-3,3.4-2.8,4.7-2.2s2.3,1.3,3.5,2c0.4,0.2,0.8,0.1,1-0.3c0.1-0.1,0.1-0.2,0.1-0.4
		c-0.1-3,2.2-5.6,5.3-5.7c1.4-0.1,2.7,0.4,3.7,1.3c0.8,0.6,1.8-0.5,1.1-1c-2.9-2.5-7.3-2.2-9.9,0.7c-1.1,1.3-1.7,3-1.7,4.8
		c0.4-0.2,0.8-0.5,1.2-0.7c-2.4-1.3-5.3-3.7-8.2-2.4c-1.9,0.8-2.9,2.7-2,4.6C1814.4,560.9,1815.6,560.2,1815.2,559.3L1815.2,559.3z"
		/>
	<path class="st1" d="M230.9,445.1c3.5-2.4,8.2-1.8,8.6-7.1c0.1-2,0.1-3.8,2.3-4.6c1.1-0.4,2.2-0.8,3.3-1.3c2.5-1.2,4.6-2.9,6.4-5
		c0.6-0.8-0.4-1.8-1-1c-2,2.4-4.7,4.3-7.6,5.4c-1.7,0.6-3.5,0.9-4.3,2.7c-1.1,2.4,0.3,5.2-2.2,6.9c-1.8,1.3-4.3,1.3-6.2,2.6
		C229.4,444.5,230.1,445.8,230.9,445.1L230.9,445.1z"/>
	<path class="st1" d="M235.3,434c-0.3-1.7,0.3-3.5,1.5-4.7c1.2-1.1,2.8-1.2,4.2-1.5c1.8-0.4,3.1-1,3.9-2.8c0.4-1.3,1-2.6,1.6-3.8
		c0.9-1.2,1.9-2.2,3.1-3.1c2.2-1.5,4.5-2.7,7-3.6c0.9-0.4,0.1-1.6-0.7-1.3c-2.7,1-5.3,2.4-7.7,4.2c-2.4,1.8-3.3,3.8-4.5,6.5
		c-1.1,2.4-2.5,2.3-4.7,2.8c-1.2,0.2-2.4,0.8-3.3,1.6c-1.7,1.6-2.4,3.9-1.9,6.1C234,435.4,235.5,435,235.3,434L235.3,434z"/>
	<path class="st1" d="M1432.8,605.3c-3.6-2.9-1.6-9.3,3.3-8.5c2.3,0.3,4,2.1,4.1,4.4c-0.1,2.6-2.2,4.7-4.8,4.9c-0.9,0-0.9,1.5,0,1.5
		c3.2-0.2,5.8-2.5,6.2-5.7c0.3-3-1.7-5.7-4.5-6.4c-6.5-1.8-10.5,6.8-5.4,10.9C1432.5,606.9,1433.5,605.9,1432.8,605.3L1432.8,605.3z
		"/>
	<path class="st1" d="M1150,173.6c0.5-2.1,1.6-2.8,3.2-2.1c0.7,0.3,1.4,0.6,2,0.8c0.7,0.3,1.4,0.5,2.2,0.6c1.1,0.2,2.2,0,3.1-0.6
		c2.6-2,0.6-6.9,4.8-7.2c3-0.2,5.5,1.1,7.9-1.4c1.3-1.3,2.1-2.8,3.9-3.7c2.1-1,4.6-1,6.8-0.1c0.9,0.4,1.3-1.1,0.4-1.4
		c-3.6-1.5-7.8-0.6-10.6,2.2c-0.9,0.9-1.5,2.2-2.6,2.8c-1.1,0.6-2.7,0.4-4,0.3c-1.6-0.1-3.3-0.3-4.7,0.7s-1.5,2.6-1.9,4.2
		c-0.5,2-1.8,3.3-3.9,2.6c-1.1-0.3-2.1-0.9-3.2-1.3c-1.6-0.5-3.4-0.5-4.6,0.9c-0.9,0.9-1.1,2.4-0.3,3.4
		C1149.2,175.1,1150.5,174.3,1150,173.6L1150,173.6z"/>
	<path class="st1" d="M1172.5,173.5c0.3-2.7,2.5-4.7,5.1-4.9c1.9-0.1,3.7,1.2,5.7,0.8c2.6-0.5,3.6-3.1,4.9-5.1
		c3.7-5.8,12-2.2,16.6-6.9c0.7-0.7-0.4-1.7-1-1c-2.6,2.6-6.5,2.4-10,3c-2.8,0.3-5.3,1.9-6.9,4.2c-1.1,1.8-2,4.3-4.4,4.5
		c-1.9,0.1-3.7-1.1-5.7-0.8c-3,0.5-5.3,2.9-5.7,5.9C1170.9,174.2,1172.4,174.5,1172.5,173.5L1172.5,173.5z"/>
	<path class="st1" d="M1043,359.2c-2.6-0.3-3.4-3.6-2.6-5.8c1.1-2.6,3.8-4.2,6.6-3.8c2.8,0.5,4.8,3,4.7,5.8
		c-0.3,2.7-2.8,4.7-5.5,4.4c-0.2,0-0.5-0.1-0.7-0.1c-0.4-0.1-0.8,0.1-0.9,0.5s0.1,0.8,0.5,0.9c3.6,0.8,7.1-1.3,8-4.9
		c0.8-3.8-2.2-7.6-5.9-8.2c-3.9-0.5-7.5,1.9-8.5,5.7c-0.7,3.1,0.9,6.6,4.2,7C1044,360.8,1044,359.3,1043,359.2L1043,359.2z"/>
	<path class="st1" d="M1057,371.2c-0.8-2.9,2.8-6.2,5.4-4.2c1.7,1.4,1.9,3.8,0.5,5.5c-0.2,0.3-0.5,0.5-0.7,0.7
		c-0.8,0.5,0,1.8,0.8,1.3c3.1-2,3.1-7.2-0.2-9c-3.8-2.1-8.4,2.2-7.3,6.1c0.1,0.4,0.5,0.6,0.9,0.6
		C1056.8,372,1057.1,371.6,1057,371.2L1057,371.2L1057,371.2z"/>
	<path class="st1" d="M1763.2,191.8c-1.6-1.3-2.2-3.5-0.6-5.1c1.4-1.5,3.2-1.2,4.9-0.4c1.6,0.7,3.1,1.6,4.8,1.2
		c5.5-1,0.5-8.9,5-10.6c1.9-0.7,2.2,0.4,3.4,1.5c0.5,0.5,1.2,0.9,1.9,0.9c1.3,0,2.4-0.7,3.1-1.8c1.2-1.9,0.6-4.5,1.2-6.6
		c0.4-1.4,1.1-3.1,2.5-3.8c1.7-0.8,4.3,0.1,4.3,2.1c0,0.4,0.5,0.8,0.9,0.7c0.4,0,0.7-0.3,0.7-0.7c0.1-4.7-6.1-5.1-8.5-1.9
		c-0.7,0.9-1.2,2-1.4,3.1c-0.4,1.5,0,3.8-0.6,5.2c-1.9,4.1-3.1,1.1-4,0.2c-0.4-0.4-0.8-0.7-1.3-0.9c-0.9-0.3-1.9-0.2-2.7,0.2
		c-2.6,1.2-3,3.9-3.1,6.5c0,1.4,0.5,4-1.9,4.4c-1,0.2-2.2-0.5-3-0.9c-1-0.6-2.2-1-3.3-1.1c-5.1-0.3-7,6-3.2,9
		C1762.9,193.6,1764,192.5,1763.2,191.8L1763.2,191.8z"/>
	<path class="st1" d="M1782.1,167.9c-1-2-0.6-4.3,1-5.9c1.6-1.6,3.4-1,5.3-1.5c2.6-0.8,2.7-2.9,2.9-5.2c0.5-7.1,11.9-3.3,12.8-10.5
		c0.1-1-1.5-1-1.6,0c-0.5,4.2-7.2,3.8-9.9,5.4c-1.1,0.6-1.9,1.5-2.4,2.6c-0.5,1.4-0.1,3-0.5,4.4c-0.8,2.6-3.8,1.6-5.8,2.4
		c-0.9,0.4-1.7,1.1-2.4,1.9c-1.6,2-1.9,4.8-0.7,7.1C1781.2,169.7,1782.6,168.8,1782.1,167.9L1782.1,167.9z"/>
	<path class="st2" d="M803.2,468.2l9.9-8l-0.9-0.4c-0.3,2.4-0.9,4.7-2,6.8c-0.2,0.5,0.3,1,0.8,0.8c3.9-2.5,8-4.8,12.3-6.8l-0.8-0.8
		c-1.5,2.1-2.5,4.6-3,7.1c-0.1,0.3,0.1,0.6,0.4,0.7c0.1,0,0.3,0,0.4-0.1c3.6-2.1,7.1-4.2,10.7-6.3c-0.3-0.2-0.5-0.4-0.8-0.6
		c-0.4,2.1-0.8,4.2-1.3,6.4c-0.1,0.7,0.9,1,1,0.3c0.4-2.1,0.8-4.2,1.3-6.4c0.1-0.3-0.1-0.6-0.4-0.7c-0.1,0-0.3,0-0.4,0.1
		c-3.6,2.1-7.1,4.2-10.7,6.3c0.3,0.2,0.5,0.4,0.8,0.6c0.5-2.5,1.5-4.8,2.9-6.9c0.3-0.5-0.3-0.9-0.8-0.8c-4.2,2-8.3,4.2-12.3,6.8
		l0.8,0.8c1.2-2.3,1.9-4.8,2.2-7.4c0.1-0.5-0.6-0.6-0.9-0.4l-9.9,8C801.9,467.8,802.6,468.6,803.2,468.2L803.2,468.2z"/>
	<path class="st2" d="M817,475.1c2.5-1.5,4.9-3.1,7.3-4.7c-0.3-0.1-0.5-0.3-0.8-0.5c-0.2,1.7-0.6,3.4-1.3,5
		c-0.2,0.5,0.4,0.8,0.8,0.6c4-2.2,7.9-4.6,11.7-7.2c-0.3-0.2-0.5-0.4-0.8-0.6c-0.7,1.7-1.5,3.5-2.2,5.2c-0.3,0.6,0.8,0.9,1,0.3
		c0.7-1.7,1.4-3.5,2.2-5.2c0.2-0.4-0.4-0.9-0.8-0.6c-3.8,2.6-7.7,5-11.7,7.2c0.3,0.2,0.5,0.4,0.8,0.6c0.6-1.7,1.1-3.4,1.3-5.2
		c0-0.3-0.3-0.6-0.6-0.5c-0.1,0-0.2,0-0.3,0.1c-2.4,1.6-4.9,3.1-7.3,4.7C815.8,474.5,816.4,475.4,817,475.1L817,475.1z"/>
</g>
</svg>
