<svg id="Слой_1" data-name="Слой 1" xmlns="http://www.w3.org/2000/svg" viewBox="0 0 450 361.5"><defs><style>.cls-1{fill:#5222d0;}.cls-2{fill:#ec615b;}.cls-3{fill:#161616;}.cls-4{fill:#fff;}.cls-5{fill:#898989;}.cls-5,.cls-6{opacity:0.11;}.cls-6{fill:#999;}.cls-7{fill:#969595;opacity:0.14;}.cls-8{fill:#7a7a7a;opacity:0.15;}.cls-9{fill:#757575;opacity:0.21;}.cls-10{fill:#1a1b22;}</style></defs><path class="cls-1" d="M128.06,18c1.14-2.54,4.79-1.76,6.84-1,2.63,1,6.31,2.2,8.43-.41a7.24,7.24,0,0,1,1.61-1.83,3.43,3.43,0,0,1,2-.41,10,10,0,0,1,4.3,1.73,11.45,11.45,0,0,0,4.85,2,4.5,4.5,0,0,0,2.47-.51c.76-.4,1.39-1,2.14-1.43a7.36,7.36,0,0,1,8.84,1.45c.42.46,1.1-.23.68-.69a8.33,8.33,0,0,0-8.3-2.3,7.2,7.2,0,0,0-2,.91,10.7,10.7,0,0,1-2.32,1.44c-1.77.57-3.61-.4-5.11-1.28A15.92,15.92,0,0,0,148,13.51a4.41,4.41,0,0,0-4.3,1,15.35,15.35,0,0,1-1.64,2,3.47,3.47,0,0,1-2,.67,12.34,12.34,0,0,1-4.66-1c-2.51-.92-6.76-1.72-8.16,1.37-.26.56.58,1.06.84.49Z"/><path class="cls-1" d="M.72,144.63c1.5-1,3.25.32,4.37,1.31.63.56,1.19,1.17,1.85,1.69a7.33,7.33,0,0,0,2.15,1.2,3.05,3.05,0,0,0,3.85-1.4c.38-.71.57-1.51,1-2.19a2.83,2.83,0,0,1,1.52-1.2,6.62,6.62,0,0,1,4.14.32c1.61.56,3.05,1.53,4.63,2.16a6.48,6.48,0,0,0,5.07.27c1.61-.72,2.39-2.3,3.43-3.62a4.07,4.07,0,0,1,2.34-1.65c1-.18,1.79.53,2.54,1.08a11.45,11.45,0,0,0,5.81,2.18c.62.05.61-.92,0-1a10.46,10.46,0,0,1-5.21-2,5.59,5.59,0,0,0-2.35-1.28,3.41,3.41,0,0,0-2.41.61c-1.47,1-2.15,2.64-3.36,3.88s-3.07,1.37-4.77.83-3.19-1.54-4.83-2.21a8.74,8.74,0,0,0-4.39-.76,4.05,4.05,0,0,0-3.27,2.36,9.5,9.5,0,0,1-1,2.13,1.93,1.93,0,0,1-1.9.65c-2-.36-3.16-2.05-4.62-3.22s-3.34-2.13-5-1c-.53.34,0,1.18.49.84Z"/><path class="cls-1" d="M264.69,149.69a2.87,2.87,0,0,1,2.89-1.52,9,9,0,0,1,4.05,1.41,8.93,8.93,0,0,0,4.49,1.36,7.4,7.4,0,0,0,3.45-1.2c2.15-1.35,4-3.47,6.45-4.2,3.26-1,6.14,1.45,9.05,2.47,2.5.88,6.23.91,7.56-1.86.27-.56-.56-1.05-.84-.49-1.15,2.4-4.45,2.14-6.56,1.38-3-1.09-5.8-3.34-9.18-2.52-2.56.62-4.43,2.67-6.54,4.1a6.94,6.94,0,0,1-3.29,1.34,8.48,8.48,0,0,1-4.45-1.41,8.81,8.81,0,0,0-4.55-1.35,3.66,3.66,0,0,0-3.36,2,.48.48,0,0,0,.83.49Z"/><path class="cls-1" d="M83.43,289.89a4.4,4.4,0,0,1,3.37-2.36,8.08,8.08,0,0,1,5,1.14c1.48.79,2.89,2,4.63,2.1a3.16,3.16,0,0,0,2.17-.71,22,22,0,0,1,1.78-1.57,5.71,5.71,0,0,1,4.53-.24c1.53.43,3,1.15,4.45,1.63a9.29,9.29,0,0,0,4.37.46,4.57,4.57,0,0,0,1.9-.8c.61-.46,1-1.15,1.58-1.6.81-.59,2-.12,2.82.13l3.26.95L130,291a.48.48,0,0,0,.26-.93l-6.07-1.76-3-.86a13.69,13.69,0,0,0-2.89-.7,2.63,2.63,0,0,0-2.15.88,4.6,4.6,0,0,1-5.92,1.55c-3-.8-6.1-3-9.33-1.95a5.2,5.2,0,0,0-2,1.25A4,4,0,0,1,97,289.78a4,4,0,0,1-2.47-.64c-.8-.43-1.56-.95-2.37-1.38a9,9,0,0,0-5.61-1.17,5.29,5.29,0,0,0-4,2.81c-.26.56.58,1.05.84.49Z"/><path class="cls-2" d="M111.56,283.19a7.57,7.57,0,0,1,2.93-2.69,4,4,0,0,1,3.18.3c2.09,1,3.85,2.8,6.24,3.09,2.65.32,4.89-1.47,7.37-2.06a6.47,6.47,0,0,1,4.14.6,21.34,21.34,0,0,0,4.33,1.43,17.66,17.66,0,0,0,10.06-1c.57-.23.32-1.17-.25-.93a16.87,16.87,0,0,1-9.13,1.08,19.14,19.14,0,0,1-4.45-1.38,7.93,7.93,0,0,0-4.27-.85c-2.59.35-4.84,2.34-7.51,2.18-2.4-.16-4.22-2.19-6.32-3.12a4.78,4.78,0,0,0-3.76-.22,8.71,8.71,0,0,0-3.4,3.09c-.38.5.46,1,.84.49Z"/><path class="cls-2" d="M28.62,133.11a4.25,4.25,0,0,1,3.82-.57,15.09,15.09,0,0,1,4,2.09c1.21.77,2.81,1.9,4.3,1.29,1.16-.48,1.65-1.71,2.47-2.57,2.07-2.18,5.48-1.14,7.81-.08.73.33,1.44.68,2.17,1a7.9,7.9,0,0,0,2.32.76c1.53.15,2.45-1.21,3.65-1.91a8.22,8.22,0,0,1,8.49.14c.53.34,1-.5.49-.84a9.15,9.15,0,0,0-7.91-.86,8.67,8.67,0,0,0-1.86.91c-.61.39-1.1.93-1.71,1.31a2.38,2.38,0,0,1-2.3-.07c-.77-.3-1.51-.66-2.26-1-2.57-1.2-5.64-2.37-8.39-.93A4.85,4.85,0,0,0,42.17,133,17.43,17.43,0,0,1,41,134.57a1.66,1.66,0,0,1-1.8.44A9.92,9.92,0,0,1,37,133.87a14.93,14.93,0,0,0-4.68-2.35,5.05,5.05,0,0,0-4.4.91c-.48.4.21,1.09.68.68Z"/><path class="cls-2" d="M255,140.88c.07-.68.82-1,1.42-1.09a3.8,3.8,0,0,1,2.44.77,10.46,10.46,0,0,0,2.63,1.32,6.58,6.58,0,0,0,2.65.1,21.6,21.6,0,0,0,5.32-1.93,12.07,12.07,0,0,1,5.74-1.29,21.44,21.44,0,0,1,7.35,2.43c.56.27,1.05-.57.49-.84a25,25,0,0,0-6.84-2.44,10.64,10.64,0,0,0-3.56,0,15,15,0,0,0-2.85.92,27.84,27.84,0,0,1-5.68,2.14,5.38,5.38,0,0,1-2.7-.16,26.41,26.41,0,0,1-2.86-1.56,3.75,3.75,0,0,0-2.84-.32,2.25,2.25,0,0,0-1.68,1.92c-.07.62.91.61,1,0Z"/><path class="cls-2" d="M158,73.43a3.45,3.45,0,0,1,3.55-1.5,11.92,11.92,0,0,1,4.62,1.71c1.66.88,3.54,1.84,5.48,1.67a5.07,5.07,0,0,0,2.53-1c.71-.52,1.33-1.16,2-1.73a4.89,4.89,0,0,1,2.14-1.19,5.22,5.22,0,0,1,2.19,0c1.56.29,3,.93,4.53,1.36a7,7,0,0,0,4.56,0c1.66-.68,2.82-2.27,4.71-2.4s3.59.72,5.25,1.38a10.88,10.88,0,0,0,5.46,1c.62-.09.35-1-.26-.94a10,10,0,0,1-4.94-1A16.07,16.07,0,0,0,195,69.47a5.23,5.23,0,0,0-2.32.35,12.14,12.14,0,0,0-2.39,1.5,4.67,4.67,0,0,1-2.26.91,7.1,7.1,0,0,1-2.25-.23c-3-.72-6.33-2.74-9.29-.87-1.47.93-2.51,2.61-4.25,3.09-1.94.53-4-.54-5.62-1.42A12.55,12.55,0,0,0,161.33,71a4.28,4.28,0,0,0-4.18,2c-.29.55.54,1,.84.49Z"/><path class="cls-2" d="M173.34,242.87c.53-3.15,4.92-3.14,7.22-2.21,1.92.78,3.63,2,5.57,2.74a7.78,7.78,0,0,0,5.5.21,23.83,23.83,0,0,0,4.57-2.43,9.43,9.43,0,0,1,4.56-1.71c1.82,0,3.28,1.07,4.66,2.12s3,2.19,5,2.25c2.56.08,4.76-1.38,7.12-2.11,1.82-.57,4.15-.83,5.58.71.43.46,1.11-.22.69-.68a5.54,5.54,0,0,0-5.15-1.3c-2.2.37-4.11,1.59-6.25,2.16a5.9,5.9,0,0,1-3.28,0,8.83,8.83,0,0,1-2.44-1.35c-1.45-1.05-2.86-2.33-4.68-2.69-3.64-.72-6.57,2.22-9.61,3.66a7.88,7.88,0,0,1-2.4.75,6.77,6.77,0,0,1-3.09-.38c-2-.69-3.78-1.93-5.73-2.78-2.82-1.22-8.08-1.13-8.73,2.76-.11.61.83.87.93.25Z"/><path class="cls-2" d="M332.55,3.36c0-1,1.25-1.32,2.08-1.29,1.32,0,2.37,1,3.47,1.56a4.49,4.49,0,0,0,3.85.49,14.66,14.66,0,0,0,3-1.91,3.85,3.85,0,0,1,3.14-.86A13.82,13.82,0,0,1,351.28,3a4.76,4.76,0,0,0,3.29.79c1.3-.26,2.12-1.34,3.12-2.1,1.48-1.12,3.46-.64,5.16-.49l6.21.54c.62.06.62-.91,0-1L363.41.27,360.68,0a5.68,5.68,0,0,0-2.49.25c-1.26.5-2,1.69-3.19,2.32s-2.27.1-3.28-.47A14.35,14.35,0,0,0,348.47.44a4.34,4.34,0,0,0-3.5.62,33.47,33.47,0,0,1-3.11,2.06c-1.35.61-2.58.09-3.77-.62S335.59.94,334,1.13a2.46,2.46,0,0,0-2.44,2.23.49.49,0,0,0,1,0Z"/><path class="cls-3" d="M247.3,232.05,206.53,134.9,160,197.1,87,67l1.38-.84,73.88,111.47,54.35-78.32,36.86,111.12,51.82-8.08ZM206.93,131.67l41.19,98.14,47.48-24.33-43.21,6.74L216.11,102.87,162.25,180.5,99.1,85.21l61.08,108.93Z"/><path class="cls-3" d="M82,122.47l-15.65-97,71.82,63.79-1,1.3L82.92,56.67l.73,65.66ZM68.71,29.72l13.2,81.78-.64-57.77L130,84.12Z"/><path class="cls-4" d="M331.1,244.1c-.21,2.17-.49,5.16-.77,8.73-.81,10.59-1.34,23.1-1.08,37.06a404.53,404.53,0,0,0,4.44,52c1,6.79,2,12.44,2.81,16.48a51.52,51.52,0,0,0,15.85,3.06,53.27,53.27,0,0,0,28-7.12c-1.28-5.91-2.79-14-3.94-23.59-1.14-9.48-2.11-17.64-1.66-27.82.35-7.7,1.87-15.38,4.9-30.43,4.7-23.35,6.37-26.1,4.35-29.39C381.3,238.65,371.72,233.08,331.1,244.1Z"/><path class="cls-5" d="M367.69,261.27a99.27,99.27,0,0,0-6.14,17.89c-1.25,5.24-3.29,15.68-1.79,38.6a297.6,297.6,0,0,0,5.87,42.4l14.77-5.81c-1.11-5.08-2.4-11.68-3.51-19.46a212.41,212.41,0,0,1-2.3-23.78,198.67,198.67,0,0,1,.78-25.32,243.32,243.32,0,0,1,4.33-29.38Z"/><path class="cls-3" d="M330.62,244.1q-1.1,11-1.57,22t-.32,22.1q.16,11,.93,22t2.18,22q1.4,10.92,3.4,21.74c.16.9.33,1.8.51,2.69.11.62,1.05.36.93-.26q-2.08-10.81-3.55-21.74t-2.31-21.91q-.84-11-1.07-22t.17-22q.39-11,1.41-21.94c.08-.91.17-1.82.26-2.73.06-.62-.91-.61-1,0Z"/><path class="cls-3" d="M376.36,271q-1.07,8.12-1.57,16.3t-.47,16.37q0,8.19.63,16.37t1.73,16.26q1.14,8.11,2.82,16.13c.14.68.28,1.36.43,2s1.07.36.94-.25q-1.74-8-2.94-16t-1.86-16.31c-.44-5.41-.69-10.85-.76-16.28s0-10.87.33-16.29.77-10.9,1.44-16.32c.08-.66.16-1.33.25-2,0-.26-.25-.48-.49-.49a.5.5,0,0,0-.48.49Z"/><path class="cls-4" d="M412.68,245.93c.53.8.58,1.11,2.35,7.33s3.79,12.59,5.52,18.94c3.05,11.14,7.24,22.5,11,32.56,4.42,12,10.44,27,18.49,44.19l-40.76,4.21c-11.36-16.24-18.05-28.14-22.13-36.27-3.46-6.89-8.12-13.14-11.4-20.11a37.73,37.73,0,0,0-8.46-12.07,23.25,23.25,0,0,0-6.85-4.4,22.42,22.42,0,0,0-5.24-1.41,45.28,45.28,0,0,1,4.35-17.12c1.71-3.57,5.86-12,14.82-17.39C387.45,236.47,406.91,237.33,412.68,245.93Z"/><path class="cls-6" d="M394.78,241.07q2.06,9.62,4.86,19.68a325.62,325.62,0,0,0,38.09,85.39l7.62-6.6c-3.62-8.5-6.88-16.58-9.8-24.18-2.54-6.58-6.43-16.74-10.9-30.31-3.25-9.87-5.42-17.36-7.61-24.92-3.24-11.22-5.8-20.85-7.69-28.26Z"/><path class="cls-3" d="M413.45,249.32q2.44,9,5.12,18t5.61,17.8q2.94,8.91,6.13,17.72t6.6,17.46q3.43,8.7,7.1,17.3l.93,2.15c.24.57,1.08.08.83-.49q-3.7-8.6-7.16-17.29T432,304.57q-3.19-8.76-6.16-17.62t-5.63-17.7q-2.71-8.92-5.16-17.94c-.2-.75-.41-1.5-.61-2.25a.49.49,0,0,0-.94.26Z"/><path class="cls-3" d="M357.57,280.2c4.9.51,8.78,3.85,11.75,7.56a56.83,56.83,0,0,1,4.25,6.29c1.55,2.62,3.05,5.28,4.56,7.93,3.17,5.57,6.3,11.17,9.47,16.75s6.33,11.09,9.62,16.56,6.68,10.87,10.26,16.15c.44.66.89,1.31,1.34,2,.35.51,1.19,0,.84-.49-3.68-5.34-7.17-10.81-10.53-16.35s-6.59-11.11-9.79-16.73S383,308.58,379.8,303q-2.39-4.23-4.83-8.43a64.55,64.55,0,0,0-4.12-6.36c-2.88-3.86-6.6-7.52-11.45-8.64a16.23,16.23,0,0,0-1.83-.3c-.62-.06-.62.91,0,1Z"/><path class="cls-2" d="M344.06,118.24a72.87,72.87,0,0,1,17.81-8.58c5.17-1.67,30.1-9.72,52.47,3.5a53.46,53.46,0,0,1,14.31,12.4c-.63,4.48-1.6,11.09-2.86,19.08-2.37,15-4.27,25.26-6.36,36.89-1.75,9.73-4.17,23.49-7,40.39q1.13,13.67,2.23,27.35A69.8,69.8,0,0,1,385.08,261c-28.59,4.15-50.2-11.57-55-15.26,1.2-22,3.08-45.22,5.85-69.41C338.24,156.12,341,136.73,344.06,118.24Z"/><path class="cls-4" d="M346.76,117.13c-.43,2.05-1.07,5.12-1.82,8.84-2.65,13.14-4,19.84-4.77,26.46a156.46,156.46,0,0,0-1.05,16.47,107.93,107.93,0,0,1,18.25.84c11.54,1.52,19.23,2.64,23.71,8.62a18.26,18.26,0,0,1,3.38,10.16,94.42,94.42,0,0,1-9.77,4.62,97.81,97.81,0,0,1-21.09,5.75c-6.49,1-12.17,1.89-19.57.77-8.28-1.25-11.16-3.85-12.5-5.4a15,15,0,0,1-3.22-6.58c-.66-3.07-.12-5.25,1.26-11.23,2.6-11.21,2-9.17,2.57-11.21,1.17-4.41,2.58-9.77,5-16.43a97.64,97.64,0,0,1,6.1-14.28A70.7,70.7,0,0,1,346.76,117.13Z"/><path class="cls-7" d="M336.55,129.13c-1.08,2.79-2.66,7.08-4.24,12.42-4.73,15.95-4.92,25.75-4.93,28.46,0,7,0,10.62,2.09,13.85,3.81,5.88,11,7.25,18.78,8.73a71.29,71.29,0,0,0,25.24.19,68,68,0,0,1-12.58,4.71A72,72,0,0,1,346,199.72c-8.72.55-13.08.82-18.16-1.43-2.3-1-6.45-2.92-8.53-7.25-.76-1.59-1.35-3.71-1-8.88.49-6.56,2.05-11.22,3.56-16,4.45-13.94,3.13-11.68,5.27-17.39A129.17,129.17,0,0,1,336.55,129.13Z"/><path class="cls-3" d="M346.41,116.79A50.67,50.67,0,0,0,337.16,127a75.53,75.53,0,0,0-6.74,12.24,141,141,0,0,0-5.13,13.51q-2.57,7.8-4.49,15.79c-.64,2.67-1.22,5.34-1.75,8a65.33,65.33,0,0,0-1.29,8,13.2,13.2,0,0,0,1.28,7,13.92,13.92,0,0,0,4.11,4.72c3.93,2.95,8.93,3.82,13.73,4a88.16,88.16,0,0,0,15.32-.78,95.72,95.72,0,0,0,15-3.27,93.55,93.55,0,0,0,14.22-5.65c1.11-.55,2.21-1.12,3.3-1.72.55-.3.06-1.14-.49-.84a91.37,91.37,0,0,1-13.68,6.09A93.42,93.42,0,0,1,356,198a91.9,91.9,0,0,1-14.9,1.42c-4.95.07-10.22-.07-14.76-2.29-3.77-1.83-7-5.17-7.53-9.46a25.25,25.25,0,0,1,.62-7.84q.72-4,1.6-7.89,1.75-7.81,4.12-15.49c1.45-4.7,3.05-9.36,4.92-13.91a84.85,84.85,0,0,1,6.14-12.24,53.16,53.16,0,0,1,8.43-10.63c.8-.77,1.62-1.5,2.47-2.2.48-.4-.21-1.09-.69-.69Z"/><path class="cls-3" d="M327.23,173a58,58,0,0,1,14.49-3.3,59.23,59.23,0,0,1,14.93.46,57.21,57.21,0,0,1,8.16,1.92c.6.19.85-.75.26-.94a59.78,59.78,0,0,0-29.9-1.42A58.16,58.16,0,0,0,327,172c-.58.21-.33,1.15.26.93Z"/><path class="cls-3" d="M346.83,117.4a189.43,189.43,0,0,0-7.62,40c-.3,3.82-.5,7.65-.57,11.48,0,.62,1,.62,1,0a188.82,188.82,0,0,1,5.16-40.23q1.34-5.55,3-11c.18-.6-.76-.85-.94-.25Z"/><path class="cls-4" d="M423.07,121.82c-.83,1.88-1.89,4.41-3,7.44A138.65,138.65,0,0,0,415,146.84a157.94,157.94,0,0,0-3.57,26.58c-2.05-.87-5.1-2.18-8.82-3.75-19.25-8.16-22.47-9.26-25.21-10.1-9.91-3.06-15.82-3.53-20.16-3.47-5.37.08-9.07,1-12.36,3.07a19.37,19.37,0,0,0-5.23,5l-.48,4.78A29.39,29.39,0,0,1,351,171.25a32.88,32.88,0,0,1,8.11,5.25,180.22,180.22,0,0,1,13.44,12.38,58.46,58.46,0,0,0,24.08,13.49c8.72,2.34,15.36,1.7,22.31,1,3.75-.36,6.29-.9,8.75-2.61.77-.54,3.95-2.89,6.64-10.59,1.41-4.05,2.11-7.94,2.55-14.33a120.22,120.22,0,0,0-.35-24c-.36-3.06-1.7-8.45-4.37-19.25a15.46,15.46,0,0,0-3.51-7.09A14.62,14.62,0,0,0,423.07,121.82Z"/><path class="cls-8" d="M429.24,126.74c.44,4.55.88,10.8.93,18.26A136.81,136.81,0,0,1,429,166.81c-1.89,13.16-2.84,19.74-7.93,23.95-7.22,6-17.66,4-20.32,3.47-6.8-1.3-8-3.85-22.46-13.38-18.14-11.95-25.66-14.13-32.88-13.38a27.47,27.47,0,0,0-6.31,1.43A30.21,30.21,0,0,1,351,171.25a32.3,32.3,0,0,1,10,7c5.7,5.37,12.83,12.08,19.77,16.58,1.44.94,12.07,7.68,25.25,9a54.84,54.84,0,0,0,15.2-.77,14.28,14.28,0,0,0,5-1.49c3.76-2,5.49-5.48,6.87-8.32,1.87-3.87,2.41-7.07,3.11-11.36a81.49,81.49,0,0,0,.94-11.88,124,124,0,0,0-.25-13.84,82.3,82.3,0,0,0-2-14.52A66.26,66.26,0,0,0,429.24,126.74Z"/><path class="cls-3" d="M422.65,121.58a131.76,131.76,0,0,0-6.83,19.5,130.12,130.12,0,0,0-3.64,20.35q-.58,5.82-.62,11.68a.49.49,0,0,0,1,0,128.69,128.69,0,0,1,6.77-40.25q1.84-5.49,4.19-10.79c.25-.57-.59-1.06-.84-.49Z"/><path class="cls-3" d="M340,164.36c2.14-3.62,6.05-5.68,10-6.74a37.55,37.55,0,0,1,14.63-.66,74,74,0,0,1,14.93,3.89c4.94,1.77,9.78,3.82,14.62,5.84q7.56,3.13,15.08,6.36l1.85.79c.57.24,1.06-.59.49-.84q-7.64-3.27-15.3-6.48c-5-2.08-10-4.2-15-6.08A80.85,80.85,0,0,0,366,156.19a40.63,40.63,0,0,0-15.19.23c-4.07.91-8.18,2.78-10.78,6.15a14.12,14.12,0,0,0-.88,1.3.49.49,0,0,0,.84.49Z"/><path class="cls-3" d="M339.12,169.38c6.22.31,12.71,1.76,17.67,5.74,1.3,1,2.52,2.21,3.74,3.36q3.69,3.48,7.4,6.94A88.21,88.21,0,0,0,378.48,194a78.07,78.07,0,0,0,9.65,5.52,70.33,70.33,0,0,0,6.65,2.8,37.21,37.21,0,0,0,5.27,1.4,54.32,54.32,0,0,0,22.21-.43c.63-.14,1.25-.29,1.87-.45a.49.49,0,0,0-.26-.94A53.91,53.91,0,0,1,403,203.18a39.7,39.7,0,0,1-7.15-1.58,57.48,57.48,0,0,1-5.71-2.27,75.21,75.21,0,0,1-19.81-13.05c-2.78-2.51-5.5-5.1-8.23-7.67-1.32-1.25-2.63-2.51-4-3.69-4.43-3.77-10-5.58-15.72-6.25-1.07-.12-2.14-.21-3.22-.26-.62,0-.62.94,0,1Z"/><path class="cls-3" d="M423.36,122.27c2.49.68,4.25,2.72,5.55,4.85a41.53,41.53,0,0,1,3.57,7.75,71,71,0,0,1,3.59,17.31,158.23,158.23,0,0,1,.57,18.22,71.8,71.8,0,0,1-2.52,18.79c-1.35,4.61-3.63,9.67-8.07,12.05a9.91,9.91,0,0,1-1.64.71c-.59.19-.34,1.13.26.94,4.95-1.65,7.9-6.38,9.61-11a62.59,62.59,0,0,0,3.25-18.76,158.9,158.9,0,0,0-.32-18.9,77.18,77.18,0,0,0-3.27-18,49.48,49.48,0,0,0-3.49-8.29,14,14,0,0,0-5.06-5.81,8,8,0,0,0-1.77-.72.49.49,0,0,0-.26.94Z"/><path class="cls-4" d="M352.13,44.69A61.13,61.13,0,0,0,350,50.58a70.59,70.59,0,0,0-3,14.22,61.5,61.5,0,0,0-.07,14.11c.48,4.2.89,7.87,2.75,12.07a31.27,31.27,0,0,0,10.27,12.48,42.49,42.49,0,0,0,8.34-.35,41.59,41.59,0,0,0,6.06-1.31,77.54,77.54,0,0,0,1.33,7.67c.6,2.66,1.3,5.09,2,7.29a21.57,21.57,0,0,0,7.88.28,22.81,22.81,0,0,0,13.23-7.32c-.72-4-1.2-7.47-1.51-10.19-.82-7-.55-8.71-.1-10.11,1-3.09,2.8-4.36,6-7.56,6.21-6.19,9.86-9.83,11.22-14.53,1.72-6-.85-11.67-3.31-17.11-1.25-2.76-3.92-8.65-9-12.87C386.85,24.72,357.49,33.29,352.13,44.69Z"/><path class="cls-9" d="M397.31,48a57.53,57.53,0,0,1-2.57,13.8c-.67,2.12-3,9.08-9.75,18.39a97.9,97.9,0,0,1-24.53,23.56,36.44,36.44,0,0,0,10.74-1.29A38.16,38.16,0,0,0,390.14,90q1.08,12.26,2.15,24.51l6-3.87c-.32-2-.74-5.11-1-8.87-.59-9.39-.88-14.09,1.84-17.29,3-3.53,6.13-1.38,9.94-5.33,3.16-3.29,3.69-7.57,4.23-12,.6-4.92,1.09-8.88-1.11-12.5C408.13,47.89,398.24,48,397.31,48Z"/><path class="cls-10" d="M350,50.58c-1.25-2.16-3.54-6.83-2.06-11.58.81-2.59,2.87-5.6,11.81-9.78C374,22.54,380.05,25,389.24,19.44A37.27,37.27,0,0,0,401.61,6.89q-.64,4.89-1.3,9.78a22.49,22.49,0,0,0,7.76-.37C416.52,14.38,421.26,8,422.65,6a30.92,30.92,0,0,1-4.06,20.48l7.56-5.35c0,2.36-.11,4.89-.37,7.57a81.14,81.14,0,0,1-2.58,14l5.54-7.19c-.19,1.83-.48,4.51-.93,7.75C426.25,54.68,425.47,60.39,423,66c-1.82,4.1-4.24,9.59-9.79,14-5.23,4.19-9.48,4.43-12.92,9.42a18.91,18.91,0,0,0-3.11,9.21l.72-19a6.17,6.17,0,0,0,4.42,1.47c3-.38,4.61-3.72,5.73-6.09.47-1,4.09-8.7.55-12.73a5.36,5.36,0,0,0-3.85-1.91c-3,0-4.72,3-4.82,3.2a57.26,57.26,0,0,0-9.65-17.93c-3.49-4.37-5.69-7.12-9.73-8.81-8.39-3.5-18.31.26-24.23,5.4A26.18,26.18,0,0,0,350,50.58Z"/><path class="cls-3" d="M351.66,44.56A71.66,71.66,0,0,0,346.14,70,65.51,65.51,0,0,0,347,83a36.24,36.24,0,0,0,4,11.88,24.05,24.05,0,0,0,8.72,9,.49.49,0,0,0,.49-.84c-6.89-4-10.58-11.54-12.06-19.1a61.4,61.4,0,0,1-1-12.77,70.52,70.52,0,0,1,5.52-26.35.49.49,0,0,0-.34-.6.5.5,0,0,0-.6.34Z"/><path class="cls-3" d="M360.46,104.25a41.18,41.18,0,0,0,19.2-4.47A40.82,40.82,0,0,0,398.73,79c.23-.57-.7-.83-.94-.26a39.71,39.71,0,0,1-37.33,24.51.49.49,0,0,0,0,1Z"/><path class="cls-3" d="M401.91,61.83a3.78,3.78,0,0,1,5.11,0,7.45,7.45,0,0,1,2.21,5.92,24,24,0,0,1-.41,3.78,20.5,20.5,0,0,1-.83,3.26,9.09,9.09,0,0,1-3.79,4.94,5.35,5.35,0,0,1-3.17.79A2.62,2.62,0,0,1,398.72,79c-.21-.59-1.15-.34-.93.25.78,2.2,3.5,2.55,5.46,1.92a9,9,0,0,0,5.13-4.82,21.88,21.88,0,0,0,1.8-7.94c.15-2.53-.34-5.28-2.25-7.1s-4.9-2.09-6.71-.17c-.43.45.26,1.14.69.69Z"/><path class="cls-3" d="M398.06,79.48a69,69,0,0,0-.89,23.5c.3,2.24.71,4.45,1.22,6.65.15.61,1.08.35.94-.26a68.13,68.13,0,0,1-1.4-23.08c.25-2.2.6-4.39,1.06-6.55.13-.61-.81-.87-.93-.26Z"/><path class="cls-3" d="M373.84,101.8a79.11,79.11,0,0,0,1.65,9c.36,1.48.76,3,1.21,4.41.1.35.21.69.32,1a2.3,2.3,0,0,0,.4,1,.56.56,0,0,0,.87-.69.46.46,0,0,0-.42-.24h0c-.62.07-.62,1,0,1h0l-.42-.24,0,0-.05-.37v0l.23-.29-.05,0,.38-.05c.18.22.23.23.13,0l-.05-.15c-.05-.17-.11-.34-.16-.51s-.19-.6-.28-.89q-.28-.93-.54-1.86-.51-1.83-.93-3.69-.86-3.75-1.33-7.58c-.08-.61-1.05-.62-1,0Z"/><path class="cls-3" d="M377.84,117.37c6.43,1.89,12.78-1.23,18.18-4.47,1.29-.78,2.67-1.57,3.24-3.05.22-.59-.72-.84-.94-.26-.45,1.18-1.71,1.82-2.73,2.43-1.29.78-2.59,1.54-3.93,2.22a22.94,22.94,0,0,1-8.52,2.68,13.84,13.84,0,0,1-5-.49.49.49,0,0,0-.26.94Z"/><path class="cls-3" d="M362.91,52.14q-3,10.89-5.54,21.91-.71,3.11-1.37,6.22a.49.49,0,0,0,.81.47,94.69,94.69,0,0,0,6.93-7.65c.39-.48-.29-1.18-.69-.69a94.69,94.69,0,0,1-6.93,7.65l.82.48q2.37-11.06,5.24-22,.81-3.07,1.67-6.15a.49.49,0,0,0-.94-.25Z"/><path class="cls-3" d="M358.19,84.3a4.18,4.18,0,0,0,3.33.6,29.53,29.53,0,0,0,4.18-.65,12.86,12.86,0,0,0,6.12-3.62,13.9,13.9,0,0,0,2.31-3.23c.29-.55-.55-1-.84-.49a13,13,0,0,1-4.13,4.73,14.31,14.31,0,0,1-6.6,2.17c-.65.08-1.31.17-2,.2a2.41,2.41,0,0,1-1.72-.4c-.47-.41-1.16.28-.69.69Z"/><path class="cls-3" d="M350.9,57.4c.37,2,1.09,4.47,3.38,4.87,2.61.46,4.45-1.77,5.43-3.87.27-.57-.57-1.06-.83-.49-.8,1.68-2.27,3.85-4.46,3.4-1.84-.37-2.29-2.61-2.58-4.17-.12-.61-1-.35-.94.26Z"/><path class="cls-3" d="M353.79,48.06a6,6,0,0,1,4-3.62,2.62,2.62,0,0,1,2.73.46,6,6,0,0,1,1.23,2.38c.2.58,1.14.33.94-.26a7,7,0,0,0-1.56-2.88,3.51,3.51,0,0,0-3.37-.7,7,7,0,0,0-4.88,4.37c-.22.58.72.84.94.25Z"/><path class="cls-3" d="M372.93,46.12a5.87,5.87,0,0,1,5.22-3.38,4.1,4.1,0,0,1,4.2,3.78.49.49,0,0,0,1,0,5.05,5.05,0,0,0-4.9-4.74,6.79,6.79,0,0,0-6.33,3.85c-.27.56.57,1,.84.49Z"/><path class="cls-3" d="M370.76,57.52a4.68,4.68,0,0,0,2.8,5.29,6.54,6.54,0,0,0,6.5-1.08,9.82,9.82,0,0,0,1.43-1.38c.35-.42.87-1.05.45-1.6s-1.21,0-.84.49c.1.12-.91,1.09-1.05,1.22a7,7,0,0,1-1.33,1,5.69,5.69,0,0,1-3.37.8,4.18,4.18,0,0,1-2.92-1.48,3.53,3.53,0,0,1-.73-3c.14-.61-.79-.87-.94-.26Z"/></svg>