<?xml version="1.0" encoding="utf-8"?>
<!-- Generator: Adobe Illustrator 24.1.2, SVG Export Plug-In . SVG Version: 6.00 Build 0)  -->
<svg version="1.1" id="Слой_1" xmlns="http://www.w3.org/2000/svg" xmlns:xlink="http://www.w3.org/1999/xlink" x="0px" y="0px"
	 viewBox="0 0 330 330" style="enable-background:new 0 0 330 330;" xml:space="preserve">
<style type="text/css">
	.st0{opacity:0.1;fill:url(#SVGID_1_);enable-background:new    ;}
	.st1{fill:url(#SVGID_2_);}
	.st2{fill:#FFFFFF;}
	.st3{fill:#91B3FA;}
	.st4{fill:#5222D0;}
	.st5{fill:#7D97F4;}
	.st6{fill:#BDD0FB;}
	.st7{fill:url(#SVGID_3_);}
	.st8{fill:url(#SVGID_4_);}
	.st9{fill:url(#SVGID_5_);}
	.st10{fill:url(#SVGID_6_);}
	.st11{fill:url(#SVGID_7_);}
	.st12{fill:url(#SVGID_8_);}
	.st13{fill:url(#SVGID_9_);}
	.st14{fill:url(#SVGID_10_);}
	.st15{fill:url(#SVGID_11_);}
	.st16{fill:url(#SVGID_12_);}
	.st17{fill:url(#SVGID_13_);}
	.st18{fill:url(#SVGID_14_);}
	.st19{fill:url(#SVGID_15_);}
	.st20{fill:url(#SVGID_16_);}
	.st21{fill:url(#SVGID_17_);}
	.st22{fill:url(#SVGID_18_);}
	.st23{fill:url(#SVGID_19_);}
	.st24{fill:#F8A570;}
	.st25{fill:url(#SVGID_20_);}
	.st26{fill:url(#SVGID_21_);}
	.st27{fill:url(#SVGID_22_);}
	.st28{fill:url(#SVGID_23_);}
	.st29{fill:url(#SVGID_24_);}
	.st30{opacity:0.78;fill:#FFFFFF;enable-background:new    ;}
	.st31{fill:url(#SVGID_25_);}
	.st32{fill:url(#SVGID_26_);}
	.st33{fill:url(#SVGID_27_);}
	.st34{fill:url(#SVGID_28_);}
	.st35{fill:url(#SVGID_29_);}
	.st36{fill:url(#SVGID_30_);}
	.st37{fill:url(#SVGID_31_);}
	.st38{fill:url(#SVGID_32_);}
	.st39{fill:url(#SVGID_33_);}
	.st40{fill:url(#SVGID_34_);}
</style>
<g>
	
		<linearGradient id="SVGID_1_" gradientUnits="userSpaceOnUse" x1="364.4283" y1="1167.7089" x2="75.8725" y2="809.3406" gradientTransform="matrix(1 0 0 1 0 -747.5)">
		<stop  offset="0" style="stop-color:#20C3D0"/>
		<stop  offset="0.3016" style="stop-color:#1EC0D0"/>
		<stop  offset="0.5347" style="stop-color:#19B6CF"/>
		<stop  offset="0.7449" style="stop-color:#11A6CD"/>
		<stop  offset="0.9405" style="stop-color:#058FCA"/>
		<stop  offset="1" style="stop-color:#0086C9"/>
	</linearGradient>
	<path class="st0" d="M284.9,279c-6.6,7-12.9,11.5-17.8,15.1c-58.2,41.8-126.9,29.6-141.6,26.7c-21.6-4.4-63.4-12.9-93.5-48.5
		c-45.7-53.8-38.6-138.6-3.2-194.6c6.5-10.2,40.7-67.1,110.3-76.2C181.2-4,230.3,7.1,265.8,37C340.3,99.5,335,226.1,284.9,279z"/>
	<g>
		<g>
			
				<linearGradient id="SVGID_2_" gradientUnits="userSpaceOnUse" x1="254.7339" y1="728.6736" x2="171.7068" y2="1000.9072" gradientTransform="matrix(1 0 0 1 0 -747.5)">
				<stop  offset="0" style="stop-color:#FF928E"/>
				<stop  offset="1" style="stop-color:#FE7062"/>
			</linearGradient>
			<path class="st1" d="M144.4,218.3c0.4,0.1,0.7,0.1,1.1,0.2c54.3,8.6,105.3-29.1,114.1-84.1l-99.4-15.8L144.4,218.3z"/>
			<path class="st2" d="M160.6,118.5L93.8,194c13.6,12.1,30.6,20.6,49.8,24c0.6,0.1,1.2,0.2,1.9,0.3L160.6,118.5z"/>
			<path class="st3" d="M160.2,118.6L61.6,98.4c-0.1,0.7-0.3,1.2-0.4,1.9c-6.7,36,6.7,71.2,32.1,93.8L160.2,118.6z"/>
			<path class="st4" d="M172.5,110.3l97.6,19c8.8-45.6-14.5-90.1-54.2-109.7l-43.7,89.9C171.9,109.9,172.1,110.2,172.5,110.3z"/>
			<path class="st5" d="M160.5,118.9l41.7-91.6c-8-3.8-15.1-5.9-24.2-7.5c-42.4-7.6-83.3,12.6-104.1,47.8L160.5,118.9z"/>
			<path class="st6" d="M74,66.5c-5.8,9.7-10.1,20.4-12.5,32.1l0,0l98.6,20.3L74,66.5z"/>
		</g>
		<path class="st3" d="M91.2,51.6c-0.2,0-0.4-0.1-0.6-0.3c-0.3-0.3-0.3-0.8,0-1.1c10.7-10.7,23.8-18.9,38.1-23.6
			c14.7-4.9,30.7-6.2,46.1-3.8c1.4,0.2,2.8,0.5,4.2,0.7c0.5,0.1,0.7,0.5,0.6,0.9c-0.1,0.5-0.5,0.7-0.9,0.7c-1.4-0.3-2.7-0.6-4.1-0.7
			c-30.2-4.8-61.1,5.3-82.8,26.9C91.7,51.5,91.4,51.6,91.2,51.6z"/>
		<path class="st2" d="M93,190.6c-0.2,0-0.4-0.1-0.6-0.2C72.7,171.6,61.6,145.2,62,118c0-0.5,0.4-0.7,0.8-0.7l0,0
			c0.5,0,0.8,0.4,0.7,0.8C63,144.9,74,170.9,93.4,189.5c0.3,0.3,0.4,0.8,0,1.1C93.5,190.5,93.3,190.6,93,190.6z"/>
		
			<linearGradient id="SVGID_3_" gradientUnits="userSpaceOnUse" x1="212.0184" y1="915.3185" x2="222.4012" y2="822.6722" gradientTransform="matrix(1 0 0 1 0 -747.5)">
			<stop  offset="0" style="stop-color:#FEBBBA"/>
			<stop  offset="1" style="stop-color:#FF928E"/>
		</linearGradient>
		<path class="st7" d="M183.7,214.2c-0.4,0-0.6-0.3-0.7-0.6c-0.1-0.5,0.2-0.8,0.6-0.9c19.3-4.9,36.3-15.6,49.3-30.8
			c0.3-0.4,0.8-0.4,1.1-0.1c0.4,0.3,0.4,0.8,0.1,1.1c-13.2,15.5-30.5,26.3-50,31.4C183.8,214.2,183.7,214.2,183.7,214.2z"/>
		<path class="st3" d="M195.8,71.4c-0.1,0-0.3,0-0.4-0.1c-0.4-0.2-0.6-0.7-0.4-1.1l22.8-46.1l0.7,0.5c7.5,4.6,14.4,9.8,21.7,16.6
			c0.3,0.3,0.4,0.8,0,1.1c-0.3,0.3-0.8,0.4-1.1,0c-7-6.5-13.6-11.6-20.8-16l-22.1,44.6C196.4,71.3,196.1,71.4,195.8,71.4z"/>
	</g>
	<g>
		
			<linearGradient id="SVGID_4_" gradientUnits="userSpaceOnUse" x1="327.6423" y1="847.151" x2="215.8408" y2="1082.7328" gradientTransform="matrix(1 0 0 1 0 -747.5)">
			<stop  offset="0" style="stop-color:#4F52FF"/>
			<stop  offset="1" style="stop-color:#4042E2"/>
		</linearGradient>
		<path class="st8" d="M210.8,296.3l60.9-117h-12.5c-2.3,0-3.5-2.7-2.1-4.5L322,95.5c2.8-3.4,8.3-1.3,8.1,3.2l-4.5,77.6
			c-0.3,4.5-4.2,7.7-8.6,7.2l-8.7-1l-60.4,131.2c-1.6,3.4-5,5.6-8.7,5.6h-20.9L210.8,296.3z"/>
		
			<linearGradient id="SVGID_5_" gradientUnits="userSpaceOnUse" x1="234.7043" y1="1076.397" x2="170.0226" y2="954.2202" gradientTransform="matrix(1 0 0 1 0 -747.5)">
			<stop  offset="0" style="stop-color:#4F52FF"/>
			<stop  offset="1" style="stop-color:#4042E2"/>
		</linearGradient>
		<path class="st9" d="M160.5,214.2l43,95.7c2.5,5.7,8.2,9.3,14.4,9.3H240c3,0,5.7-1.6,7-4.2l0.8-1.4l0,0c-2.4,0-4.5-1.3-5.7-3.4
			L185,197.8L160.5,214.2z"/>
		
			<linearGradient id="SVGID_6_" gradientUnits="userSpaceOnUse" x1="194.3263" y1="919.3906" x2="76.2013" y2="1065.4503" gradientTransform="matrix(1 0 0 1 0 -747.5)">
			<stop  offset="0" style="stop-color:#4F52FF"/>
			<stop  offset="1" style="stop-color:#4042E2"/>
		</linearGradient>
		<path class="st10" d="M190.8,209.1L190.8,209.1c-4.4-3.4-10.6-2.4-13.6,2.1l-63.3,95.2c-5.1,7.6-13.6,12.2-22.7,12.2h-8.9
			l-7.2-20.9c0,0,58.7-90.3,73.8-104c0,0,15.1-13.7,29.9-3.3c3.9,2.7,6.9,6.6,8.7,11.1L190.8,209.1z"/>
		
			<linearGradient id="SVGID_7_" gradientUnits="userSpaceOnUse" x1="89.0614" y1="1051.1031" x2="-20.5658" y2="937.9678" gradientTransform="matrix(1 0 0 1 0 -747.5)">
			<stop  offset="0" style="stop-color:#4F52FF"/>
			<stop  offset="1" style="stop-color:#4042E2"/>
		</linearGradient>
		<path class="st11" d="M6.4,241.5c0,0,10.6-13.3,31-15.3c0,0,9.7,3.3,29.1,38.2s32.2,50.7,47.3,42.1l-1.2,2
			c-4.1,6.9-11.5,11.1-19.5,11.1h-8.3c-9.2,0-17.1-14.2-22.5-21.6C47.2,276.8,15.7,244.8,6.4,241.5z"/>
		<path class="st3" d="M147.2,244.2c-0.1,0-0.2,0-0.4-0.1c-0.3-0.2-0.4-0.6-0.2-0.8l27.7-41.2c1-1.5,2.7-2.3,4.4-2.1
			c1.8,0.1,3.2,1.2,4.1,2.8c0.2,0.3,0,0.7-0.3,0.8s-0.6,0-0.8-0.3c-0.6-1.2-1.8-2-3.1-2.1s-2.6,0.5-3.3,1.6L147.6,244
			C147.6,244.1,147.4,244.2,147.2,244.2z"/>
	</g>
	<g>
		
			<linearGradient id="SVGID_8_" gradientUnits="userSpaceOnUse" x1="52.5427" y1="1068.0945" x2="80.5016" y2="1068.0945" gradientTransform="matrix(1 0 0 1 0 -747.5)">
			<stop  offset="0" style="stop-color:#53D8FF"/>
			<stop  offset="1" style="stop-color:#3840F7"/>
		</linearGradient>
		<path class="st12" d="M79.7,319.2c-4.8,0.4-13.1,1.1-19.6,1.4c-3.9,0.2-6.2-0.2-7.5-0.7c0,0.2,0,0.3,0,0.4c0,0.7,0.6,1.2,1.3,1.3
			c12.4,0.7,22.2,0.3,25.8,0c0.7,0,1.1-0.8,0.7-1.5C80.1,319.8,79.9,319.5,79.7,319.2z"/>
		
			<linearGradient id="SVGID_9_" gradientUnits="userSpaceOnUse" x1="52.5411" y1="1062.5577" x2="79.6982" y2="1062.5577" gradientTransform="matrix(1 0 0 1 0 -747.5)">
			<stop  offset="0" style="stop-color:#09005D"/>
			<stop  offset="1" style="stop-color:#1A0F91"/>
		</linearGradient>
		<path class="st13" d="M60,320.6c6.6-0.3,14.8-0.9,19.6-1.4c-4.7-5.8-19.6-9.7-19.6-9.7h-4.3c-2.9,4.2-3.3,8.2-3.2,10.3
			C53.9,320.3,56.1,320.7,60,320.6z"/>
		
			<linearGradient id="SVGID_10_" gradientUnits="userSpaceOnUse" x1="55.1214" y1="1054.8278" x2="62.989" y2="1054.8278" gradientTransform="matrix(1 0 0 1 0 -747.5)">
			<stop  offset="0" style="stop-color:#FEBBBA"/>
			<stop  offset="1" style="stop-color:#FF928E"/>
		</linearGradient>
		<path class="st14" d="M55.1,302.6l0.4,7.8c0,0.8,0.6,1.6,1.5,1.7c0.8,0.1,1.9,0.1,3.2-0.3c0.7-0.3,1.3-0.8,1.4-1.7l1.4-7.6
			L55.1,302.6L55.1,302.6z"/>
		<g>
			
				<linearGradient id="SVGID_11_" gradientUnits="userSpaceOnUse" x1="2.6878" y1="1074.9117" x2="13.3913" y2="1074.9117" gradientTransform="matrix(1 0 0 1 0 -747.5)">
				<stop  offset="0" style="stop-color:#53D8FF"/>
				<stop  offset="1" style="stop-color:#3840F7"/>
			</linearGradient>
			<path class="st15" d="M6.2,328.2c-2-0.4-3.1-1.8-3.4-3.3l0,0c-0.3,1.6,0.4,3.3,1.9,4c1.7,0.9,3.6,1.1,5,1c1.6-0.1,3-0.9,3.8-2.2
				l0,0C11.8,328.7,9.6,328.9,6.2,328.2z"/>
			
				<linearGradient id="SVGID_12_" gradientUnits="userSpaceOnUse" x1="2.7676" y1="1064.3562" x2="18.4705" y2="1064.3562" gradientTransform="matrix(1 0 0 1 0 -747.5)">
				<stop  offset="0" style="stop-color:#09005D"/>
				<stop  offset="1" style="stop-color:#1A0F91"/>
			</linearGradient>
			<path class="st16" d="M16,305h-3.5c-5.3-0.2-8.6,14.3-9.7,20c0.4,1.5,1.3,2.9,3.4,3.3c3.4,0.7,5.7,0.5,7.2-0.5
				c2.9-4.9,4.3-12,5-16.2C19.1,306.8,16,305,16,305z"/>
		</g>
		
			<linearGradient id="SVGID_13_" gradientUnits="userSpaceOnUse" x1="10.9338" y1="1050.7224" x2="20.3363" y2="1050.7224" gradientTransform="matrix(1 0 0 1 0 -747.5)">
			<stop  offset="0" style="stop-color:#FEBBBA"/>
			<stop  offset="1" style="stop-color:#FF928E"/>
		</linearGradient>
		<path class="st17" d="M12.9,297.7l-1.9,7.7c-0.3,0.9,0.2,2,1.1,2.4c1.1,0.6,2.6,1.1,4,0.9c0.6-0.1,1.2-0.6,1.4-1.2l2.9-8.1
			L12.9,297.7z"/>
		
			<linearGradient id="SVGID_14_" gradientUnits="userSpaceOnUse" x1="-170.0118" y1="1206.3947" x2="184.3239" y2="880.7888" gradientTransform="matrix(1 0 0 1 0 -747.5)">
			<stop  offset="0" style="stop-color:#09005D"/>
			<stop  offset="1" style="stop-color:#1A0F91"/>
		</linearGradient>
		<path class="st18" d="M80.9,196.3c0,0-17.2,108.1-17,108.8c0,0-4.7,2.1-10,0.3c0,0,1.6-57.8,5.2-80c0,0-29.5,51.7-38.8,77.5
			c0,0-4.9-0.6-8.9-3.3c0,0,31.7-93,40.2-105.5L80.9,196.3z"/>
		
			<linearGradient id="SVGID_15_" gradientUnits="userSpaceOnUse" x1="140.2838" y1="852.1821" x2="102.9793" y2="900.7143" gradientTransform="matrix(1 0 0 1 0 -747.5)">
			<stop  offset="0" style="stop-color:#FEBBBA"/>
			<stop  offset="1" style="stop-color:#FF928E"/>
		</linearGradient>
		<path class="st19" d="M160.1,90.4c0,0-11.7,2.6-18.7,5.9c-1.4,0.7-2.5,1.8-3.2,3.2c-2.1,4.6-8.4,16.4-20.8,21.9
			c1.8,2.3,4.6,7.2,5.8,15.5c7.4-5.5,13.7-14.7,16.8-29.8c0,0,2.3,1.3,5.3-0.2c1.6-0.7,3.3-1.8,4.6-2.6c1.3-0.8,2.3-2.1,2.7-3.6
			c0.5-2,0.2-3.7,0.2-5.7l6-1.9C158.9,93.1,160.6,92.4,160.1,90.4z"/>
		<path class="st2" d="M123.3,136.8c-1.2-8.3-4.1-13.1-5.8-15.5c-7.6,3.4-17.6,4.6-30.2,0.2c-1.2-0.4-2.4-0.7-3.6-0.7
			c-6.8-0.4-28.9-1.1-47.3,4.9c-3.9,1.3-6.9,4.2-8.6,7.9c-5,11.4-13,37.4,9.4,50.6c1.8-4.3,3.7-7.7,5.4-10.2
			c-3.6-6-4.6-14.4,1.8-25.2c4.6,12.6,6.9,30.9,7.3,39.1c0.2,2.7-0.3,5.4-1.4,7.8l-0.1,0.3c-0.2,0.6,0.1,1.1,0.6,1.3
			c12.6,2.8,25.7,2,29.6,1.8c0.7-0.1,1.3-0.6,1.5-1.2c6.1-25.8,6.1-43.4,4.6-54.5C91.9,144.4,109.4,147.1,123.3,136.8z"/>
		
			<linearGradient id="SVGID_16_" gradientUnits="userSpaceOnUse" x1="59.3645" y1="890.78" x2="60.9625" y2="852.4271" gradientTransform="matrix(1 0 0 1 0 -747.5)">
			<stop  offset="0" style="stop-color:#FEBBBA"/>
			<stop  offset="1" style="stop-color:#FF928E"/>
		</linearGradient>
		<path class="st20" d="M55.2,105.7c0,0-1.3,13.5-2.4,17.5c-0.2,0.7,0.1,1.2,0.6,1.6c1.9,1.1,6.5,2.9,12.7-0.2
			c1-0.5,1.6-1.6,1.6-2.7l-0.6-13L55.2,105.7z"/>
		<g>
			
				<linearGradient id="SVGID_17_" gradientUnits="userSpaceOnUse" x1="68.2925" y1="844.2064" x2="45.0115" y2="862.0199" gradientTransform="matrix(1 0 0 1 0 -747.5)">
				<stop  offset="0" style="stop-color:#FEBBBA"/>
				<stop  offset="1" style="stop-color:#FF928E"/>
			</linearGradient>
			<path class="st21" d="M67.4,88.5c0,0,4.1,9.4,4.4,14.3s1.3,8.1-4.4,9.1s-10.5-1.9-13.1-6.8c0,0-4.1-7.5-3.2-10.6
				C52.1,91.4,67.4,88.5,67.4,88.5z"/>
			
				<linearGradient id="SVGID_18_" gradientUnits="userSpaceOnUse" x1="51.8314" y1="830.149" x2="73.5327" y2="858.0894" gradientTransform="matrix(1 0 0 1 0 -747.5)">
				<stop  offset="0" style="stop-color:#09005D"/>
				<stop  offset="1" style="stop-color:#1A0F91"/>
			</linearGradient>
			<path class="st22" d="M56.3,101.6l0.3-0.2c0.4-0.2,0.6-0.7,0.4-1.1c-0.8-1.6-2.3-5.1-0.4-5.9c2.6-1,12.9-3.2,15.1-6.8
				c2.1-3.5,0.3-8.1-2.6-9.4c-0.2-0.1-0.4,0-0.6,0.2l-0.3,0.5c-0.2,0.3-0.6,0.3-0.7-0.1c-0.1-0.3-0.6-0.4-0.6-0.1
				c-0.6,1.1-2.5,2.9-7.4,3.8c-6.9,1.3-11.6,4.1-11.8,9c0,0.3-0.4,0.5-0.6,0.3c-0.6-0.3-1.3-0.5-2.4,0.5c-1.9,1.6-1.1,5.9,3.1,9.3
				c0.2,0.2,0.2,0.5,0,0.7c-0.7,0.5-1.9,1.7,1,3.3c3.1,1.7,5.3,1.5,6.2,1.4c0.2,0,0.4-0.3,0.3-0.5l-0.9-4.3
				c-0.1-0.3,0.1-0.5,0.4-0.5h1.5V101.6z"/>
			
				<linearGradient id="SVGID_19_" gradientUnits="userSpaceOnUse" x1="65.3595" y1="840.3605" x2="42.0779" y2="858.1745" gradientTransform="matrix(1 0 0 1 0 -747.5)">
				<stop  offset="0" style="stop-color:#FEBBBA"/>
				<stop  offset="1" style="stop-color:#FF928E"/>
			</linearGradient>
			<path class="st23" d="M56.5,102.4c0,0-1.6-5.9-4.3-4.3s1.4,6.7,3.5,7L56.5,102.4z"/>
		</g>
		<path class="st24" d="M143.2,105.6c-0.1,0-0.2,0-0.3-0.1c-0.2-0.2-0.3-0.5-0.1-0.7c0.5-0.6,4.4-5.3,5.8-6.2
			c0.6-0.3,0.8-0.7,0.9-0.9c0-0.2,0-0.3-0.1-0.5l-4.6,0.9l-2.6,2.2c-0.2,0.2-0.6,0.2-0.7-0.1c-0.2-0.2-0.2-0.6,0.1-0.7l2.7-2.3
			c0.1-0.1,0.2-0.1,0.2-0.1l5.1-1c0.2,0,0.4,0,0.6,0.2c0.4,0.6,0.5,1.1,0.4,1.6c-0.2,0.6-0.6,1.1-1.4,1.6c-1.1,0.7-4.4,4.6-5.6,5.9
			C143.5,105.5,143.4,105.6,143.2,105.6z"/>
		
			<linearGradient id="SVGID_20_" gradientUnits="userSpaceOnUse" x1="38.027" y1="956.056" x2="98.5771" y2="877.9781" gradientTransform="matrix(1 0 0 1 0 -747.5)">
			<stop  offset="0" style="stop-color:#FEBBBA"/>
			<stop  offset="1" style="stop-color:#FF928E"/>
		</linearGradient>
		<path class="st25" d="M56.3,190.6l18,0.2l-6.3-5.9c-1.6-1.5-4-1.7-5.7-0.6c-1,0.7-2.2,1.6-3.2,2.9c0,0-11.2-4.1-16.7-13.3
			c-1.7,2.5-3.7,5.9-5.4,10.2C41.8,187,48.2,189.3,56.3,190.6z"/>
		<g>
			
				<linearGradient id="SVGID_21_" gradientUnits="userSpaceOnUse" x1="-8992.0518" y1="700.9799" x2="-9028.8076" y2="711.0538" gradientTransform="matrix(-0.9988 -4.940000e-02 -4.940000e-02 0.9988 -8896.1133 -963.5111)">
				<stop  offset="0" style="stop-color:#09005D"/>
				<stop  offset="1" style="stop-color:#1A0F91"/>
			</linearGradient>
			<path class="st26" d="M58.2,192.9L58.2,192.9l45.7-0.1c1.1,0,2-0.9,2-2s-0.9-2-2-2l-45.6,0.1c-1.1,0-2,0.9-2,2
				C56.3,192,57.1,192.9,58.2,192.9z"/>
			
				<linearGradient id="SVGID_22_" gradientUnits="userSpaceOnUse" x1="-8959.0225" y1="904.872" x2="-8984.9902" y2="932.3179" gradientTransform="matrix(-1 0 0 1 -8858.7363 -747.5)">
				<stop  offset="0" style="stop-color:#09005D"/>
				<stop  offset="1" style="stop-color:#1A0F91"/>
			</linearGradient>
			<path class="st27" d="M145,151.9h-38c-2.8,0-5.4,1.6-6.6,4.1l-17.6,37h47.3c1.8,0,3.4-1.1,4.1-2.8l13.6-34.2
				C148.6,154,147.1,151.9,145,151.9z"/>
			<ellipse transform="matrix(0.3113 -0.9503 0.9503 0.3113 -79.8197 233.2949)" class="st3" cx="121" cy="171.7" rx="4.8" ry="3"/>
		</g>
	</g>
	<g>
		
			<linearGradient id="SVGID_23_" gradientUnits="userSpaceOnUse" x1="1161.2767" y1="1332.7439" x2="1181.4198" y2="1309.3636" gradientTransform="matrix(0.9991 -4.100000e-02 4.100000e-02 0.9991 -1016.9974 -1185.7966)">
			<stop  offset="0" style="stop-color:#E1473D"/>
			<stop  offset="1" style="stop-color:#E9605A"/>
		</linearGradient>
		<ellipse class="st28" cx="217.4" cy="73.5" rx="15" ry="15.1"/>
		
			<linearGradient id="SVGID_24_" gradientUnits="userSpaceOnUse" x1="1192.8021" y1="1292.2994" x2="1133.219" y2="1382.3124" gradientTransform="matrix(0.9991 -4.100000e-02 4.100000e-02 0.9991 -1016.9974 -1185.7966)">
			<stop  offset="0" style="stop-color:#FF928E"/>
			<stop  offset="1" style="stop-color:#FE7062"/>
		</linearGradient>
		<ellipse class="st29" cx="217.4" cy="73.5" rx="14.5" ry="14.5"/>
		<ellipse class="st30" cx="217.7" cy="73.8" rx="12.2" ry="12.3"/>
		
			<linearGradient id="SVGID_25_" gradientUnits="userSpaceOnUse" x1="216.2619" y1="830.7098" x2="219.2123" y2="812.7712" gradientTransform="matrix(1 0 0 1 0 -747.5)">
			<stop  offset="0" style="stop-color:#FF928E"/>
			<stop  offset="1" style="stop-color:#FE7062"/>
		</linearGradient>
		<path class="st31" d="M224.1,71.7c0-0.4,0.1-0.8,0-1.2c-0.1-0.4-0.2-0.8-0.4-1.2c-0.1-0.2-0.2-0.5-0.4-0.7s-0.3-0.5-0.5-0.7
			c-0.3-0.4-0.7-0.7-1.2-0.7c-0.3-0.1-0.6-0.2-0.8-0.3c-0.2,0-0.4-0.1-0.6-0.1c-0.6,0-1-0.1-1.6-0.1c-0.5,0-0.8,0.1-1.3,0.1
			c0-0.4,0-0.7,0-1.1c0-0.2-0.1-0.3-0.1-0.5c-0.1-0.2-0.2-0.3-0.3-0.4c-0.2-0.2-0.6-0.4-0.9-0.3c-0.3,0-0.6,0.2-0.8,0.4
			c-0.1,0.1-0.1,0.2-0.2,0.3c-0.1,0.2-0.2,0.4-0.1,0.7c0,0.5,0,1,0,1.5c-0.4,0.1-0.7,0.3-1.1,0.5c-0.3,0.1-0.6,0.3-0.7,0.4
			c-0.1,0.1-0.3,0.2-0.3,0.4c-0.1,0.1-0.2,0.3-0.2,0.5c-0.1,0.3,0,0.7,0.2,0.9c0.2,0.3,0.5,0.5,0.7,0.6c0.1,0,0.2,0,0.3,0
			c0.2,0,0.4-0.1,0.6-0.2c0.2-0.1,0.4-0.2,0.6-0.3c0,0.7,0,1.5,0,2.3c0,0.6,0,1.1,0,1.7c-0.3,0-0.5-0.1-0.7-0.1s-0.3,0-0.5,0
			s-0.3,0.1-0.5,0.2c-0.3,0.2-0.5,0.5-0.6,0.7c-0.1,0.3,0,0.7,0.2,0.9c0.2,0.3,0.5,0.5,0.7,0.6c0.5,0.1,0.8,0.1,1.3,0.2
			c0,0.6,0,1.1,0.1,1.7c-0.1,0-0.2,0-0.3,0c-0.3,0-0.6-0.1-0.9-0.1s-0.6,0-0.7,0.2c-0.2,0.1-0.4,0.4-0.5,0.7c0,0.3,0,0.6,0.2,0.7
			c0.2,0.2,0.4,0.4,0.6,0.5c0.6,0.1,1.2,0.1,1.8,0.2c0,0.7,0.1,1.3,0.1,1.9c0,0.3,0.2,0.7,0.4,0.8c0.2,0.2,0.6,0.4,0.9,0.3
			c0.3,0,0.6-0.2,0.8-0.4c0.2-0.3,0.3-0.6,0.3-0.9c0-0.6-0.1-1.2-0.1-1.8c0.2,0,0.4,0,0.5-0.1c0.5-0.1,0.8-0.1,1.3-0.2
			c0.1,0,0.3,0,0.4-0.1s0.2-0.1,0.3-0.2c0.2-0.2,0.3-0.5,0.3-0.7c0-0.3-0.1-0.5-0.4-0.7c-0.2-0.2-0.5-0.3-0.7-0.3
			c-0.6,0.1-1.1,0.2-1.7,0.3c0-0.6,0-1-0.1-1.6c0.1,0,0.3,0,0.4,0c0.5,0,0.9-0.1,1.5-0.2c0.7-0.2,1.5-0.5,2.2-0.8
			c0.4-0.2,0.7-0.5,1-0.7c0.3-0.3,0.6-0.7,0.8-1c0.2-0.4,0.4-0.7,0.5-1.1C224,72.3,224.1,72.1,224.1,71.7z M221.3,69.9L221.3,69.9
			L221.3,69.9z M220.1,73.6c-0.5,0.2-0.9,0.4-1.4,0.5c-0.4,0.1-0.8,0.1-1.2,0.1c0-1.6-0.1-3.2-0.1-4.7l0,0c0.7-0.1,1.6-0.2,2.4-0.2
			c0.3,0,0.6,0.1,0.9,0.2c0.1,0.1,0.3,0.1,0.4,0.2l0.1,0.1c0.1,0.2,0.3,0.4,0.4,0.5c0.1,0.2,0.1,0.4,0.2,0.5c0,0.2,0,0.4,0,0.7
			c0,0.2-0.1,0.5-0.1,0.7c-0.1,0.2-0.2,0.4-0.3,0.6s-0.3,0.4-0.5,0.5C220.7,73.3,220.4,73.5,220.1,73.6z"/>
	</g>
	<g>
		
			<linearGradient id="SVGID_26_" gradientUnits="userSpaceOnUse" x1="1187.7595" y1="1314.4492" x2="1220.6327" y2="1276.2927" gradientTransform="matrix(0.9991 -4.100000e-02 4.100000e-02 0.9991 -1016.9974 -1185.7966)">
			<stop  offset="0" style="stop-color:#E1473D"/>
			<stop  offset="1" style="stop-color:#E9605A"/>
		</linearGradient>
		<ellipse class="st32" cx="255.5" cy="38.5" rx="24.5" ry="24.5"/>
		
			<linearGradient id="SVGID_27_" gradientUnits="userSpaceOnUse" x1="1239.2179" y1="1248.4496" x2="1141.9784" y2="1395.3506" gradientTransform="matrix(0.9991 -4.100000e-02 4.100000e-02 0.9991 -1016.9974 -1185.7966)">
			<stop  offset="0" style="stop-color:#FF928E"/>
			<stop  offset="1" style="stop-color:#FE7062"/>
		</linearGradient>
		<ellipse class="st33" cx="255.5" cy="38.5" rx="23.6" ry="23.7"/>
		<ellipse class="st30" cx="256" cy="39" rx="20" ry="20.1"/>
		
			<linearGradient id="SVGID_28_" gradientUnits="userSpaceOnUse" x1="7.8808" y1="902.2748" x2="21.0224" y2="877.8783" gradientTransform="matrix(0.9905 -0.1373 0.1373 0.9905 116.6606 -840.3733)">
			<stop  offset="0" style="stop-color:#FF928E"/>
			<stop  offset="1" style="stop-color:#FE7062"/>
		</linearGradient>
		<path class="st34" d="M265,33.9c0-0.7-0.1-1.3-0.3-2c-0.2-0.7-0.5-1.3-0.8-1.9c-0.3-0.4-0.5-0.7-0.7-1c-0.3-0.4-0.6-0.7-0.9-0.9
			c-0.6-0.6-1.3-0.8-2.1-1c-0.5-0.1-1-0.2-1.5-0.2c-0.4,0-0.6,0-1,0c-0.8,0-1.7,0.1-2.5,0.3c-0.7,0.1-1.4,0.3-2,0.5
			c-0.1-0.6-0.2-1.2-0.2-1.8c0-0.3-0.2-0.5-0.3-0.7s-0.3-0.4-0.6-0.6c-0.4-0.3-1-0.5-1.6-0.3c-0.5,0.1-1,0.4-1.3,0.8
			c-0.1,0.2-0.2,0.3-0.3,0.5c-0.1,0.4-0.2,0.7-0.1,1.1c0.1,0.8,0.2,1.6,0.3,2.4c-0.6,0.3-1.2,0.7-1.8,1c-0.4,0.3-0.8,0.6-1.2,0.8
			c-0.2,0.2-0.4,0.4-0.5,0.7c-0.2,0.2-0.2,0.5-0.2,0.7c0,0.5,0.2,1.1,0.5,1.5c0.4,0.4,0.8,0.7,1.4,0.7c0.2,0,0.4,0,0.6,0
			c0.4-0.1,0.6-0.2,0.8-0.5c0.3-0.2,0.6-0.4,0.9-0.6c0.2,1.2,0.4,2.5,0.6,3.7c0.2,0.9,0.3,1.8,0.5,2.7c-0.4,0-0.7,0-1.2,0
			c-0.3,0-0.6,0-0.7,0.1c-0.3,0.1-0.5,0.2-0.6,0.4c-0.4,0.4-0.6,0.9-0.6,1.4c0,0.6,0.1,1.1,0.5,1.5s0.8,0.7,1.4,0.7
			c0.7,0,1.4,0,2.1-0.1c0.2,0.9,0.4,1.9,0.5,2.8c-0.2,0-0.4,0-0.6,0c-0.6,0-1.1,0.1-1.6,0.1s-0.8,0.1-1.2,0.4
			c-0.3,0.3-0.6,0.7-0.6,1.1c0,0.5,0.1,0.8,0.4,1.2c0.3,0.3,0.7,0.6,1.1,0.6c1,0,1.9-0.1,3-0.2c0.2,1,0.4,2,0.6,3.2
			c0.1,0.5,0.5,1,0.8,1.3c0.4,0.3,1,0.5,1.6,0.3c0.5-0.1,1-0.4,1.3-0.8c0.3-0.5,0.4-1,0.3-1.6c-0.2-1-0.4-2-0.6-3
			c0.3-0.1,0.6-0.1,0.8-0.2c0.6-0.2,1.4-0.4,2-0.6c0.2,0,0.4-0.1,0.6-0.3c0.2-0.1,0.4-0.3,0.5-0.5c0.2-0.4,0.4-0.8,0.3-1.3
			c-0.1-0.4-0.4-0.8-0.6-1c-0.4-0.2-0.8-0.4-1.3-0.3c-0.9,0.3-1.9,0.6-2.8,0.7c-0.2-0.8-0.3-1.7-0.5-2.5c0.2,0,0.4-0.1,0.6-0.1
			c0.8-0.2,1.6-0.4,2.3-0.7c1.2-0.5,2.4-1.1,3.4-2c0.6-0.5,1-0.9,1.5-1.5s0.8-1.2,1.1-1.9c0.3-0.7,0.5-1.3,0.6-2
			C265,34.9,265.1,34.4,265,33.9z M260.1,31.6L260.1,31.6C260,31.5,260,31.5,260.1,31.6z M258.8,38c-0.6,0.5-1.4,0.7-2.1,1
			c-0.6,0.2-1.3,0.4-1.9,0.5c-0.5-2.6-0.8-5.1-1.2-7.7c0,0,0,0,0-0.1c1.3-0.4,2.6-0.7,3.9-0.7c0.6,0,1,0,1.6,0.1
			c0.2,0.1,0.4,0.1,0.6,0.2c0.1,0,0.1,0.1,0.2,0.2c0.3,0.3,0.5,0.5,0.6,0.7c0.2,0.3,0.3,0.6,0.4,0.8c0.1,0.4,0.2,0.7,0.2,1
			c0,0.4,0,0.7-0.1,1.1c-0.1,0.4-0.2,0.7-0.4,1c-0.2,0.4-0.4,0.7-0.6,0.9C259.7,37.3,259.3,37.7,258.8,38z"/>
	</g>
	<g>
		
			<linearGradient id="SVGID_29_" gradientUnits="userSpaceOnUse" x1="1203.6302" y1="1370.3508" x2="1237.4564" y2="1331.0884" gradientTransform="matrix(0.9991 -4.100000e-02 4.100000e-02 0.9991 -1016.9974 -1185.7966)">
			<stop  offset="0" style="stop-color:#E1473D"/>
			<stop  offset="1" style="stop-color:#E9605A"/>
		</linearGradient>
		<ellipse class="st35" cx="274.6" cy="92.5" rx="25.2" ry="25.3"/>
		
			<linearGradient id="SVGID_30_" gradientUnits="userSpaceOnUse" x1="1256.5823" y1="1302.4448" x2="1156.5242" y2="1453.6042" gradientTransform="matrix(0.9991 -4.100000e-02 4.100000e-02 0.9991 -1016.9974 -1185.7966)">
			<stop  offset="0" style="stop-color:#FF928E"/>
			<stop  offset="1" style="stop-color:#FE7062"/>
		</linearGradient>
		<ellipse class="st36" cx="274.6" cy="92.5" rx="24.4" ry="24.4"/>
		<ellipse class="st30" cx="275.1" cy="93" rx="20.6" ry="20.6"/>
		
			<linearGradient id="SVGID_31_" gradientUnits="userSpaceOnUse" x1="331.0902" y1="812.9268" x2="346.8536" y2="790.0499" gradientTransform="matrix(0.9986 5.209922e-02 -5.209922e-02 0.9986 -23.08 -724.9832)">
			<stop  offset="0" style="stop-color:#FF928E"/>
			<stop  offset="1" style="stop-color:#FE7062"/>
		</linearGradient>
		<path class="st37" d="M286.4,90.4c0.1-0.7,0.2-1.4,0.1-2s-0.2-1.4-0.5-2c-0.2-0.4-0.4-0.8-0.6-1.2c-0.2-0.4-0.5-0.7-0.8-1.1
			c-0.5-0.7-1.2-1.1-1.9-1.4c-0.5-0.2-0.9-0.4-1.5-0.6c-0.4-0.1-0.6-0.2-1-0.2c-0.8-0.1-1.8-0.2-2.6-0.2c-0.7,0-1.5,0-2.1,0.1
			c0-0.7,0.1-1.2,0.1-1.9c0-0.3-0.1-0.6-0.2-0.7c-0.1-0.3-0.2-0.5-0.5-0.7c-0.4-0.4-0.9-0.7-1.5-0.6c-0.6,0-1,0.2-1.4,0.7
			c-0.1,0.2-0.2,0.3-0.4,0.5c-0.2,0.4-0.3,0.7-0.3,1c-0.1,0.8-0.1,1.7-0.2,2.5c-0.6,0.2-1.3,0.4-1.9,0.7c-0.5,0.2-0.9,0.4-1.4,0.6
			c-0.3,0.1-0.5,0.3-0.6,0.6c-0.2,0.2-0.3,0.5-0.4,0.7c-0.1,0.5-0.1,1.1,0.2,1.6s0.7,0.8,1.3,0.9c0.2,0,0.4,0,0.6,0.1
			c0.4,0,0.6-0.1,0.9-0.3c0.4-0.2,0.7-0.3,1.1-0.4c-0.1,1.3-0.1,2.6-0.2,3.9c0,0.9-0.1,1.9-0.1,2.8c-0.4-0.1-0.8-0.1-1.2-0.2
			c-0.3-0.1-0.6-0.1-0.8,0c-0.3,0-0.6,0.1-0.7,0.3c-0.5,0.3-0.8,0.7-0.9,1.3s-0.1,1.1,0.2,1.6s0.7,0.8,1.3,0.9
			c0.7,0.1,1.4,0.3,2.1,0.4c0,0.9,0,2,0,2.9c-0.2,0-0.4,0-0.6-0.1c-0.6-0.1-1.1-0.2-1.7-0.3c-0.5-0.1-0.8-0.1-1.3,0.2
			c-0.4,0.2-0.6,0.7-0.7,1c-0.1,0.5-0.1,0.9,0.2,1.3c0.3,0.4,0.6,0.7,1,0.7c1,0.2,1.9,0.4,3,0.5c0,1.1,0,2.1,0,3.3
			c0,0.6,0.3,1.1,0.6,1.4c0.4,0.4,0.9,0.7,1.5,0.6c0.6,0,1-0.2,1.4-0.7c0.4-0.4,0.6-0.9,0.6-1.5c0-1,0-2,0-3.1c0.3,0,0.6,0,0.8,0
			c0.7,0,1.4-0.1,2.1-0.2c0.2,0,0.5,0,0.6-0.2c0.2-0.1,0.4-0.2,0.6-0.4c0.3-0.3,0.6-0.8,0.5-1.2c0-0.5-0.2-0.8-0.5-1.2
			c-0.3-0.3-0.7-0.6-1.2-0.5c-0.9,0.1-1.9,0.2-2.9,0.3c0-0.8,0-1.8,0-2.6c0.2,0,0.5,0,0.6,0c0.8,0,1.7-0.1,2.5-0.3
			c1.3-0.2,2.6-0.7,3.8-1.3c0.6-0.4,1.2-0.7,1.9-1.2c0.6-0.5,1-1,1.5-1.7c0.4-0.6,0.6-1.2,0.9-1.9C286.2,91.4,286.3,90.9,286.4,90.4
			z M281.7,87.1L281.7,87.1C281.7,87,281.7,87.1,281.7,87.1z M279.3,93.2c-0.7,0.3-1.5,0.5-2.3,0.7c-0.6,0.1-1.4,0.1-2.1,0.1
			c0.1-2.7,0.2-5.3,0.3-8c0,0,0,0,0-0.1c1.3-0.2,2.7-0.2,4,0c0.6,0.1,1,0.2,1.6,0.4c0.2,0.1,0.4,0.2,0.6,0.3
			c0.1,0.1,0.1,0.1,0.2,0.2c0.2,0.3,0.4,0.6,0.6,0.9c0.1,0.3,0.2,0.6,0.3,0.8c0,0.4,0,0.7,0,1c-0.1,0.4-0.2,0.7-0.3,1
			c-0.2,0.4-0.4,0.7-0.6,0.9c-0.3,0.3-0.6,0.6-0.8,0.8C280.2,92.8,279.8,93,279.3,93.2z"/>
	</g>
	<g>
		
			<linearGradient id="SVGID_32_" gradientUnits="userSpaceOnUse" x1="1241.9282" y1="1320.2366" x2="1268.9812" y2="1288.8358" gradientTransform="matrix(0.9991 -4.100000e-02 4.100000e-02 0.9991 -1016.9974 -1185.7966)">
			<stop  offset="0" style="stop-color:#E1473D"/>
			<stop  offset="1" style="stop-color:#E9605A"/>
		</linearGradient>
		<ellipse class="st38" cx="304.2" cy="49.2" rx="20.1" ry="20.2"/>
		
			<linearGradient id="SVGID_33_" gradientUnits="userSpaceOnUse" x1="1284.2678" y1="1265.9319" x2="1204.245" y2="1386.8236" gradientTransform="matrix(0.9991 -4.100000e-02 4.100000e-02 0.9991 -1016.9974 -1185.7966)">
			<stop  offset="0" style="stop-color:#FF928E"/>
			<stop  offset="1" style="stop-color:#FE7062"/>
		</linearGradient>
		<ellipse class="st39" cx="304.2" cy="49.2" rx="19.5" ry="19.5"/>
		<ellipse class="st30" cx="304.7" cy="49.7" rx="16.5" ry="16.5"/>
		
			<linearGradient id="SVGID_34_" gradientUnits="userSpaceOnUse" x1="296.9506" y1="807.0284" x2="308.5442" y2="788.0989" gradientTransform="matrix(1 0 0 1 0 -747.5)">
			<stop  offset="0" style="stop-color:#FF928E"/>
			<stop  offset="1" style="stop-color:#FE7062"/>
		</linearGradient>
		<path class="st40" d="M312.9,47.3c0-0.6,0.1-1.1,0-1.6c-0.1-0.6-0.2-1.1-0.5-1.6c-0.2-0.3-0.3-0.7-0.5-0.9
			c-0.2-0.3-0.5-0.6-0.6-0.8c-0.5-0.5-1-0.8-1.6-1c-0.4-0.2-0.7-0.3-1.2-0.4c-0.3-0.1-0.6-0.1-0.8-0.1c-0.6-0.1-1.4-0.1-2-0.1
			s-1.1,0.1-1.7,0.2c0-0.5,0-0.9,0-1.5c0-0.2-0.1-0.5-0.2-0.6c-0.1-0.2-0.2-0.4-0.4-0.5c-0.3-0.3-0.7-0.5-1.2-0.4
			c-0.4,0-0.8,0.2-1.1,0.6c-0.1,0.1-0.2,0.3-0.3,0.4c-0.1,0.3-0.2,0.6-0.2,0.8c0,0.7,0,1.3,0,2c-0.6,0.2-1,0.4-1.6,0.6
			c-0.4,0.2-0.7,0.4-1,0.5c-0.2,0.1-0.4,0.3-0.5,0.5s-0.2,0.4-0.3,0.6c-0.1,0.4,0,0.9,0.3,1.2c0.3,0.4,0.6,0.7,1,0.7
			c0.2,0,0.3,0,0.5,0c0.3,0,0.6-0.1,0.7-0.3c0.3-0.1,0.6-0.3,0.8-0.4c0,1,0,2,0,3.1c0,0.7,0,1.5,0.1,2.2c-0.3,0-0.6-0.1-0.9-0.1
			c-0.2-0.1-0.5-0.1-0.6,0c-0.2,0-0.4,0.1-0.6,0.2c-0.4,0.2-0.6,0.7-0.7,1c-0.1,0.4,0,0.8,0.3,1.2s0.6,0.7,1,0.7
			c0.6,0.1,1.1,0.1,1.7,0.2c0,0.7,0.1,1.6,0.1,2.3c-0.2,0-0.3,0-0.5,0c-0.5,0-0.8-0.1-1.3-0.1c-0.4-0.1-0.7,0-1,0.2
			s-0.6,0.6-0.6,0.8c-0.1,0.4,0,0.7,0.2,1s0.5,0.6,0.8,0.6c0.8,0.1,1.6,0.2,2.4,0.2c0,0.8,0.1,1.7,0.1,2.6c0,0.4,0.3,0.8,0.6,1.1
			c0.3,0.3,0.7,0.5,1.2,0.4c0.4,0,0.8-0.2,1.1-0.6c0.3-0.4,0.5-0.7,0.4-1.2c0-0.8-0.1-1.6-0.1-2.4c0.2,0,0.5,0,0.6-0.1
			c0.6-0.1,1.1-0.2,1.7-0.3c0.2,0,0.4-0.1,0.5-0.2c0.2-0.1,0.3-0.2,0.4-0.3c0.2-0.3,0.4-0.7,0.4-1c0-0.4-0.2-0.7-0.5-0.9
			s-0.6-0.4-1-0.4c-0.7,0.2-1.5,0.3-2.3,0.3c0-0.7-0.1-1.4-0.1-2c0.2,0,0.4,0,0.5,0c0.6-0.1,1.3-0.2,1.9-0.3c1-0.2,2-0.7,3-1.1
			c0.5-0.3,0.9-0.7,1.4-1c0.5-0.4,0.7-0.8,1.1-1.4c0.3-0.5,0.5-1,0.6-1.6C312.8,48.2,312.8,47.8,312.9,47.3z M309.1,44.9L309.1,44.9
			L309.1,44.9z M307.5,49.9c-0.6,0.3-1.2,0.5-1.8,0.7c-0.6,0.1-1.1,0.2-1.7,0.2c-0.1-2.1-0.1-4.2-0.1-6.3l0,0c1-0.2,2.1-0.3,3.2-0.2
			c0.5,0,0.8,0.1,1.2,0.2c0.2,0.1,0.3,0.2,0.5,0.2c0.1,0,0.1,0.1,0.2,0.2c0.2,0.2,0.4,0.5,0.5,0.7s0.2,0.5,0.2,0.7
			c0,0.3,0.1,0.6,0.1,0.8c0,0.3-0.1,0.6-0.2,0.8c-0.1,0.3-0.3,0.6-0.4,0.7c-0.2,0.3-0.4,0.5-0.6,0.7
			C308.2,49.5,307.8,49.7,307.5,49.9z"/>
	</g>
</g>
</svg>
