<svg id="Слой_1" data-name="Слой 1" xmlns="http://www.w3.org/2000/svg" viewBox="0 0 450 395.46"><defs><style>.cls-1{fill:#ec615b;}.cls-2{fill:#5222d0;}.cls-3{fill:#161616;}.cls-4{fill:#e8e8e8;}.cls-5{fill:#191919;}.cls-6{fill:#fff;}.cls-10,.cls-11,.cls-12,.cls-13,.cls-15,.cls-16,.cls-17,.cls-18,.cls-19,.cls-7,.cls-8,.cls-9{fill:#6d6c6c;isolation:isolate;}.cls-7{opacity:0.14;}.cls-8{opacity:0.1;}.cls-9{opacity:0.2;}.cls-10{opacity:0.12;}.cls-11{opacity:0.15;}.cls-12{opacity:0.16;}.cls-13{opacity:0.18;}.cls-14{fill:#1a1b22;}.cls-15{opacity:0.22;}.cls-16{opacity:0.11;}.cls-17{opacity:0.17;}.cls-18{opacity:0.13;}.cls-19{opacity:0.24;}</style></defs><path class="cls-1" d="M95.22,82A27.6,27.6,0,0,0,74.87,97.4a23.14,23.14,0,0,0-2.38,14.51c1.84,10,10.6,15,12,15.73,4.45-6.79,8.85-13.62,13.3-20.4Q96.43,94.64,95.22,82Z"/><path class="cls-2" d="M98.54,106.43c6.56-3.55,13.07-7.09,19.63-10.69a18,18,0,0,1,4.09,11.19,16.2,16.2,0,0,1-.36,3.37C114.08,109,106.31,107.69,98.54,106.43Z"/><path class="cls-2" d="M28.19,137.43c.81,10.55,1.58,21.16,2.38,31.71,2.88-.18,5.75-.4,8.58-.58-.94-10.74-1.88-21.43-2.83-32.17-2.74.36-5.43.68-8.13,1Z"/><path class="cls-1" d="M44.23,148.43c.45,6.52.9,13,1.39,19.5,2.88-.27,5.75-.49,8.58-.76-.63-6.52-1.21-13-1.84-19.5C49.62,147.89,46.93,148.16,44.23,148.43Z"/><path class="cls-3" d="M12.37,201.39l0-.46q-3-47.55-6-95.09Q3.18,55.53,0,5.21l0-.46L134.22,0l0,.43c4.15,61.7,8.44,125.49,12.62,188.22l0,.44-.43,0q-33.61,3.09-67.2,6.14l-66.44,6.08ZM1,5.61q3.15,50.1,6.3,100.17,3,47.33,5.95,94.63l66-6,66.76-6.1C141.79,125.83,137.52,62.35,133.38.93Z"/><path class="cls-4" d="M9.51,31.1Q37.2,29.56,65,29.89a.68.68,0,0,0,0-1.35q-27.75-.33-55.47,1.21C8.65,29.8,8.65,31.15,9.51,31.1Z"/><path class="cls-4" d="M11.89,43.41A381.91,381.91,0,0,1,51.73,41.3a.68.68,0,0,0,0-1.35,368.69,368.69,0,0,0-39.84,2.11C11,42.15,11,43.5,11.89,43.41Z"/><path class="cls-4" d="M13.1,66.36q26.55-2.76,53.23-3a.67.67,0,0,0,0-1.34q-26.68.2-53.23,3C12.25,65.11,12.25,66.45,13.1,66.36Z"/><path class="cls-4" d="M85.78,127.81c-8.71-3.36-13.88-13-13-22.19s7.82-17.25,16.13-21c5.71-2.56,12-3.1,17.61-.09a29,29,0,0,1,10.83,10.15,25.26,25.26,0,0,1-.72,28.07c-3.51,5.17-10.11,6.65-15.9,7.55s-11.82.58-16.67-3c-.72-.5-1.39.67-.67,1.16,4.49,3.28,10,4,15.4,3.42s11.68-1.71,16-5.12,6.82-9.75,7.72-15a24.8,24.8,0,0,0-2.2-14.6c-4.72-10.2-15.59-18.37-27.13-15.54-10,2.42-18.78,10.46-21.2,20.57C69.34,113,75,125,85.38,129.07c.85.36,1.21-.94.4-1.26Z"/><path class="cls-4" d="M95.26,82q.81,12.47,1.66,24.93c0,.86,1.39.86,1.35,0Q97.46,94.42,96.61,82C96.56,81.1,95.22,81.1,95.26,82Z"/><path class="cls-4" d="M98.18,107.69q10.25-5.59,20.21-11.77c.72-.45,0-1.62-.67-1.17-6.6,4.14-13.34,8-20.21,11.77A.67.67,0,0,0,98.18,107.69Z"/><path class="cls-4" d="M98.45,107.91c7.73,0,15.36,1.85,23,3.15.86.13,1.22-1.17.36-1.3-7.68-1.31-15.45-3.19-23.31-3.19a.67.67,0,0,0,0,1.34Z"/><path class="cls-4" d="M97.28,107c-4.31,7.14-8.62,14.24-13,21.38a.67.67,0,0,0,1.17.67c4.31-7.14,8.62-14.24,13-21.38C98.9,107,97.73,106.25,97.28,107Z"/><path class="cls-4" d="M20.78,170.67q29.31-2.22,58.49-5.21c.85-.09.85-1.44,0-1.35q-29.25,3-58.49,5.21c-.85.09-.85,1.44,0,1.35Z"/><path class="cls-4" d="M27.43,137.56c.72,10.33,1.48,20.71,2.2,31,.05.86,1.39.86,1.35,0-.72-10.33-1.48-20.71-2.2-31-.09-.85-1.44-.85-1.35,0Z"/><path class="cls-4" d="M28.73,137.7a33.87,33.87,0,0,1,7.73-.45l-.67-.68c.67,10.52,1.66,21,2.87,31.4.09.86,1.44.86,1.35,0-1.26-10.42-2.2-20.93-2.88-31.4a.69.69,0,0,0-.67-.67,38.43,38.43,0,0,0-8.09.49C27.52,136.57,27.92,137.88,28.73,137.7Z"/><path class="cls-4" d="M42.88,148.21a147.88,147.88,0,0,1,1.89,18.91c0,.85,1.39.85,1.35,0a148.15,148.15,0,0,0-1.93-19.27c-.14-.85-1.44-.49-1.31.36Z"/><path class="cls-4" d="M44.5,148.88a55.24,55.24,0,0,0,7.73-.49l-.68-.68c.63,6.25,1.31,12.45,1.93,18.69.09.86,1.44.86,1.35,0-.63-6.24-1.3-12.44-1.93-18.69,0-.31-.27-.71-.67-.67a62.69,62.69,0,0,1-7.73.5A.67.67,0,0,0,44.5,148.88Z"/><path class="cls-4" d="M58.87,137.47c1.08,9.71,1.76,19.41,2,29.2,0,.85,1.39.85,1.34,0q-.47-14.62-2-29.2c-.09-.85-1.44-.85-1.35,0Z"/><path class="cls-4" d="M59.55,138c1.44.09,2.92.14,4.36.23,2,.09,2.06.13,2.11,2.15.13,2.92.27,5.8.45,8.72a146.18,146.18,0,0,0,2.06,16.57c.18.86,1.44.5,1.31-.36a155.5,155.5,0,0,1-2.3-21c-.09-1.62-.13-3.19-.22-4.81,0-.62,0-1.57-.45-2.11s-1.48-.45-2.16-.49l-5.21-.27c-.81,0-.81,1.35,0,1.39Z"/><path class="cls-4" d="M77,180.24a456,456,0,0,0,51.71-6.61c.85-.18.49-1.43-.36-1.3A448.54,448.54,0,0,1,77,178.89a.68.68,0,1,0,0,1.35Z"/><path class="cls-4" d="M103.44,171.66l22.14-2.29c.86-.09.86-1.44,0-1.35l-22.14,2.29c-.86.09-.86,1.44,0,1.35Z"/><path class="cls-4" d="M116,162.67l10.16-.4c.85-.05.85-1.39,0-1.35l-10.16.41C115.12,161.37,115.12,162.72,116,162.67Z"/><path class="cls-4" d="M80.44,11.6a19.85,19.85,0,0,1,1.07,7.6c0,.85,1.31.85,1.35,0a20.67,20.67,0,0,0-1.12-7.95C81.42,10.44,80.12,10.8,80.44,11.6Z"/><path class="cls-4" d="M81.56,11.74q18.52-1.89,37.1-2.47c.86,0,.86-1.39,0-1.35-12.39.41-24.79,1.21-37.1,2.47C80.71,10.48,80.71,11.83,81.56,11.74Z"/><path class="cls-4" d="M82.86,19.92l36.88-2.7c.86,0,.86-1.39,0-1.35l-36.88,2.7c-.85,0-.85,1.39,0,1.35Z"/><path class="cls-4" d="M118.84,9.49c.41,2.79.81,5.53,1.22,8.31.13.86,1.43.5,1.3-.36-.41-2.78-.81-5.52-1.21-8.31C120,8.28,118.71,8.64,118.84,9.49Z"/><path class="cls-5" d="M227.24,319.54a9.73,9.73,0,0,0-10.42-1.26,10.14,10.14,0,0,0-5,11.23c.81,6.15,1.62,12.35,2.43,18.51-16.4,7.5-24.21,12.39-23.54,14.64.81,2.74,14.11,1.57,39.94-3.41C229.48,346,228.36,332.79,227.24,319.54Z"/><path class="cls-6" d="M216.28,173.72c-.63,9-1.67,23.68-3.42,41.83-2.15,22.77-3.05,45.72-6.11,68.41-3.14,23.54-6.6,39.66,1.35,45.28,2.88,2,6.34,2,8.81,1.71,2.6-.68,5.21-1.4,7.81-2.07,2.56,1.26,6,2.47,8.81,1,8.17-4.17.45-25.6,1-56.33.4-20.26,4.31-40.47,9.52-67,4-20.26,7-30.77,1.35-35.94-6.83-6.33-22-.27-29.15,3.1Z"/><path class="cls-3" d="M214.61,331.55a11.53,11.53,0,0,1-6.77-1.94c-7.22-5.1-5.4-18-2.66-37.56q.56-3.9,1.13-8.15c1.92-14.31,3-29,4.06-43.14.62-8.29,1.25-16.85,2-25.26,1.79-18.63,2.84-33.71,3.41-41.81l0-.26.24-.11c8.16-3.83,22.87-9.31,29.65-3,5.13,4.72,3.36,13.53.14,29.54-.43,2.14-.89,4.4-1.36,6.81-5.08,25.91-9.1,46.38-9.51,66.94a258.21,258.21,0,0,0,1.7,31.47c1.35,13.6,2.25,22.58-3,25.25-2.3,1.19-5.27.88-9.06-.95l-3.74,1-3.91,1H217A17.4,17.4,0,0,1,214.61,331.55ZM216.71,174c-.57,8.16-1.62,23.12-3.4,41.57-.79,8.39-1.43,16.95-2,25.23-1.05,14.19-2.14,28.87-4.07,43.2q-.57,4.25-1.13,8.16c-2.7,19.21-4.48,31.91,2.29,36.69,2.16,1.52,5,2.07,8.46,1.63l3.88-1c1.3-.35,2.6-.7,3.91-1l.16-.05.15.08c3.59,1.76,6.34,2.1,8.4,1,4.68-2.39,3.81-11.13,2.49-24.36a259.79,259.79,0,0,1-1.7-31.58c.41-20.63,4.44-41.14,9.53-67.1.47-2.4.93-4.67,1.36-6.81,3.15-15.68,4.89-24.32.13-28.71C238.8,165.09,224.71,170.29,216.71,174Z"/><path class="cls-7" d="M229.17,169.5a158.07,158.07,0,0,1,3.5,34.64c-.22,23.62-5.75,38.54-9.74,56.28a253.6,253.6,0,0,0-5.57,69.76c2.38-.45,4.8-.94,7.18-1.39a8.71,8.71,0,0,0,5.8,1.62,8.55,8.55,0,0,0,5.34-2.56c2.38-2.7,1.89-6.7,1.62-8.63-1-8.4-1.26-16.89-2.11-25.33a165.88,165.88,0,0,1-.72-20,180.7,180.7,0,0,1,1.39-18.6c2-16.67,3.78-19.5,7.68-43.71,3-18.24,1.67-14.91,2.79-19,1-3.69,2.78-9,1.84-15.82-.45-3.19-1.26-5-2.56-6.29-2.7-2.65-6.69-2.6-9.07-2.56a19.68,19.68,0,0,0-7.37,1.62Z"/><path class="cls-8" d="M242,215.32a124.92,124.92,0,0,0-9.07,29.06c-3.78,20.85-.05,31.45-3.24,53.73A146.3,146.3,0,0,1,222,328.34c1.62.23,3.24.45,4.9.72,2.42.85,5.48,1.48,7.68,0,3.95-2.65,2.61-10.42,1.62-19.54,0,0-1.22-11.23-1.4-32.57-.09-11.81,1-20.53,2.56-33.24,1.4-11.41,3.1-21.07,4.63-28.39Z"/><path class="cls-5" d="M283.93,316.12a9.73,9.73,0,0,0-10.42-1.25,10.14,10.14,0,0,0-5,11.23c.81,6.15,1.62,12.35,2.43,18.5-16.4,7.5-24.21,12.4-23.54,14.65.81,2.74,14.11,1.57,39.94-3.42C286.13,342.58,285,329.37,283.93,316.12Z"/><path class="cls-6" d="M267.17,172.33c2.61,21.34,5.39,43.35,8.36,66.21,2,15.73,2.51,19.46,4.09,25.56,2.69,10.61,6.33,19.63,9.47,36,1.49,7.64,2.25,13.84-1.3,18.51-2.65,3.5-7.82,6.29-9,5.21-.5-.49-.18-1.75.27-2.88-1.08,1-7.91,7.46-13.35,5.22-3.18-1.31-4.49-5-5.12-7.06A171.83,171.83,0,0,1,253.2,280c-.4-7.55-1.39-15.28-3.32-30.77a311,311,0,0,0-9.93-47.8c-.85-.54-9.21-6.11-9.75-16.4,0-.76-.36-8.53,4.54-13.79,6.47-7,20.3-7.45,32.43,1.08Z"/><path class="cls-3" d="M268.19,327.11a6.91,6.91,0,0,1-2.63-.51c-3.55-1.45-4.87-5.72-5.38-7.33A174,174,0,0,1,252.75,280c-.38-7.2-1.28-14.39-3.07-28.73l-.25-2a308,308,0,0,0-9.86-47.56c-1.46-1-9.29-6.55-9.82-16.66-.05-.88-.36-8.74,4.66-14.12,3.32-3.57,8.45-5.49,14.43-5.42A33.7,33.7,0,0,1,267.43,172l.16.12,0,.2c2.51,20.56,5.24,42.21,8.35,66.21,2,15.93,2.54,19.52,4.08,25.5.92,3.64,2,7.07,3.05,10.72a235,235,0,0,1,6.44,25.34c1.44,7.42,2.33,14-1.39,18.86-2.26,3-6.26,5.43-8.32,5.61a1.64,1.64,0,0,1-1.33-.34,1.92,1.92,0,0,1-.33-1.78C276,324.27,272,327.11,268.19,327.11ZM248.61,166.47c-5.71,0-10.59,1.91-13.54,5.09-4.76,5.11-4.47,12.62-4.42,13.46.53,10.07,8.62,15.46,9.54,16l.14.09,0,.17a309.59,309.59,0,0,1,9.94,47.86l.25,2c1.79,14.36,2.69,21.56,3.08,28.79A172.62,172.62,0,0,0,261,319c.47,1.51,1.71,5.49,4.86,6.78,4.88,2,11.08-3.41,12.87-5.12l1.49-1.44-.77,1.93c-.62,1.56-.52,2.24-.37,2.39a1,1,0,0,0,.63.1c1.84-.17,5.59-2.5,7.68-5.26,3.5-4.6,2.62-10.94,1.22-18.15A235,235,0,0,0,282.24,275c-1.1-3.65-2.13-7.09-3.06-10.74-1.55-6-2-9.64-4.1-25.62-3.1-23.92-5.83-45.51-8.33-66A32.09,32.09,0,0,0,248.61,166.47Z"/><path class="cls-6" d="M230.92,177.72c-1.62,4.67-2.07,9.93.5,14.38,2.2,3.81,5.75,8,10.06,9.34.81.27,1.17-1,.36-1.3-4-1.22-7.28-5.21-9.26-8.72-2.38-4.13-1.84-9-.36-13.34.32-.81-1-1.17-1.3-.36Z"/><path class="cls-6" d="M229.57,186.08a16.05,16.05,0,0,0,11.73,14.78.68.68,0,0,0,.36-1.31,14.69,14.69,0,0,1-10.74-13.47c0-.86-1.39-.86-1.35,0Z"/><path class="cls-7" d="M249.47,166.49c1.17,3.51,3,9.17,4.94,16.17,5.75,20.31,15.68,55.48,16.31,97.8.09,7.05.36,42.94,3.59,43.12.77,0,2-1.93,3.73-1.48,1.17.31,1.22,1.39,2.25,1.79,2.25.86,6-3,7.77-5.84a14.17,14.17,0,0,0,2.38-6.42c.18-1.44.05-2.47-.45-5.52-.72-4.72-1.08-7.06-1.35-8.22-1.93-9.12-5.39-17.88-8.22-30.24-1.21-5.21-2-9.88-3-15.27-.31-1.71-1.16-6.69-2.11-12.89-2.11-14.2-2.78-23.94-4.17-36.39-.77-6.78-1.94-16.35-3.73-28a12.67,12.67,0,0,0-2.7-3.91c-.49-.45-2-1.84-6.15-3.15a29.6,29.6,0,0,0-9.08-1.57Z"/><path class="cls-9" d="M278.67,261c2.47,11.5,4.13,21.34,5.26,29.06,1.79,12.58,1.88,17.16-.45,22-3.51,7.32-10.78,11.67-10.33,12.26.18.22,1.34-.23,5.39-2.83.13,1.08.45,2.29,1.34,2.69,2.3,1,7.37-4,9.57-8.67,3-6.51.81-13.2-1.21-19.63C285.72,287.73,282.36,276.14,278.67,261Z"/><path class="cls-6" d="M218.93,96c-4.4-.59-8.45,5.16-16.31,16.62A178.75,178.75,0,0,0,191,132c-5.35-.27-10.69-.54-16-.86-5-.27-10-.54-15-.85-2-.67-4.94-1.66-8.58-2.52-5.88-1.43-18.06-3.81-18.82-1.7-.23.67.58,2.06,5.79,5.34a12.8,12.8,0,0,0,0,9,12.47,12.47,0,0,0,5.26,6.2c4.49,2.38,10.69,1.08,15.23-3.37,3.5,2.11,22.5,13.21,40.38,5.62,5.84-2.47,9.93-6.25,13.57-9.57,6.6-6.06,15.27-14,15.5-25.07.18-8-4-17.61-9.39-18.32Z"/><path class="cls-3" d="M185.87,152c-11.56,0-21.93-5.18-26.94-8.16-4.58,4.32-10.91,5.64-15.5,3.21a12.77,12.77,0,0,1-5.46-6.43,13.21,13.21,0,0,1-.13-9c-5.49-3.49-6-4.83-5.68-5.67,1.05-2.9,16.31.66,19.36,1.41a85.25,85.25,0,0,1,8.56,2.51c5,.31,10,.58,14.89.85,5.25.3,10.59.57,15.75.83a181.27,181.27,0,0,1,11.53-19.24c7.72-11.25,12-17.45,16.74-16.81h0c5.72.77,10,10.73,9.77,18.78-.22,11.23-9.12,19.41-15.62,25.37l-.16.15c-3.62,3.31-7.72,7.05-13.55,9.52A34.4,34.4,0,0,1,185.87,152Zm-27.07-9.28.3.18c6.6,4,23.72,12.49,40,5.58,5.69-2.4,9.73-6.09,13.29-9.35l.15-.13c6.75-6.2,15.13-13.9,15.35-24.75.17-7.52-3.81-17.17-9-17.87h0c-4.05-.53-7.79,4.65-15.88,16.43a177.92,177.92,0,0,0-11.6,19.4l-.14.26H191c-5.25-.27-10.69-.54-16-.86-4.9-.26-10-.54-15-.85l-.11,0a86.61,86.61,0,0,0-8.54-2.51c-9.47-2.31-17.85-3.22-18.3-2,0,.17-.06,1.24,5.61,4.81l.32.2-.14.35a12.3,12.3,0,0,0,0,8.7,12,12,0,0,0,5,6c4.34,2.29,10.38.94,14.7-3.3Z"/><path class="cls-3" d="M132.23,126.65a52.58,52.58,0,0,0,5.44,5.12,22.55,22.55,0,0,0,6.37,3c.63.22.9-.77.27-1a20.61,20.61,0,0,1-6.64-3.32,65.48,65.48,0,0,1-4.72-4.54C132.5,125.48,131.78,126.2,132.23,126.65Z"/><path class="cls-3" d="M153.48,131.27a11.19,11.19,0,0,0-4.49,3c-.86.94-2.12,2.42-1.8,3.77.31,1.53,2.2,1.53,3.46,1.53a11.75,11.75,0,0,0,5.7-1.66c.54-.32.05-1.22-.49-.86a10.55,10.55,0,0,1-3.64,1.4c-1.12.18-4.4.58-3.82-1.53s3.46-3.91,5.39-4.63c.54-.22.27-1.21-.31-1Z"/><path class="cls-3" d="M137.8,132.26c-.94,3-.94,5.93,2.29,7.37,2.38,1.08,5.84.54,7-2,.27-.59-.58-1.08-.85-.5-1,2.11-3.82,2.47-5.79,1.58-2.74-1.22-2.48-3.69-1.71-6.16a.51.51,0,0,0-1-.27Z"/><path class="cls-3" d="M137.58,138.91c.18,2.56,1.75,5.08,4.44,5.57a4.93,4.93,0,0,0,5.44-3.14c.22-.59-.72-.86-1-.27a4,4,0,0,1-4.67,2.33,4.91,4.91,0,0,1-3.24-4.49c0-.63-1-.63-1,0Z"/><path class="cls-3" d="M147.28,141.83c3.5-.63,2.33,5.62-.23,5.39-.62,0-.62.94,0,1,2.16.18,3.33-2.47,3.46-4.26a2.89,2.89,0,0,0-3.5-3.06C146.38,141,146.65,141.92,147.28,141.83Z"/><path class="cls-3" d="M147,138.19s0,0,0-.09l-.49.14c.36.09.4,1.25.36,1.48a2.46,2.46,0,0,1-.72,1.57c-.45.45.27,1.17.72.72a3.49,3.49,0,0,0,1-2.61c0-.71-.27-2-1.13-2.15a.5.5,0,0,0-.49.13c0,.05,0,.05,0,.09-.36.5.31,1.22.76.72Z"/><path class="cls-3" d="M144.58,134.87a1.64,1.64,0,0,1,1.49,2.11.51.51,0,0,0,1,.27,2.61,2.61,0,0,0-2.42-3.37.5.5,0,1,0,0,1Z"/><path class="cls-10" d="M225.58,103.2a76.51,76.51,0,0,1-6.88,14.64c-3.5,5.8-7.41,12.22-15,17.61a42.38,42.38,0,0,1-47.39,2c-2.7,2-4.54,2.16-5.75,1.89s-1.48-.81-3.37-1.39a14.65,14.65,0,0,0-3.64-.63c-2.61-.18-5.3-.36-6,.85-.94,1.66,2.11,5.21,4.49,7.14a11.8,11.8,0,0,0,5.62,2.74c6.24,1,10.87-4.44,11.14-4.76a56.07,56.07,0,0,0,6.51,3.51c4.54,2.11,11,5,19.5,5a38.14,38.14,0,0,0,18.15-4.62c1.7-1,4.89-3.78,11.23-9.39,5.88-5.21,8-7.5,10-10.65a25.53,25.53,0,0,0,3.51-7.5C229.53,112.63,227.06,106.25,225.58,103.2Z"/><path class="cls-11" d="M228,108.59a57.62,57.62,0,0,1-4.9,11.77c-2.38,4.31-8.67,15.41-22,22.23a40.87,40.87,0,0,1-20.26,5.26A39.73,39.73,0,0,1,159.54,141a29.48,29.48,0,0,1-8,3.5c-4.68,1.21-8,.81-8.13,1.48s3.14,2.11,6.51,2c4.72-.13,8-3.23,9.25-4.49,3.1,2.25,14.69,10.15,29.87,8.13,11.73-1.57,19.14-8.17,25.65-14,4.86-4.36,10.47-9.53,12.63-18.15a29.62,29.62,0,0,0,.63-10.87Z"/><path class="cls-1" d="M214.17,96.15c-.9,1-2.47,3.23-3.82,13.74a143.39,143.39,0,0,0,0,34.05c1,10,2.38,22.1,4.4,35.85a80.63,80.63,0,0,0,36.39,2.69,78.75,78.75,0,0,0,17.92-5.07,184.49,184.49,0,0,1-.59-26.28c1.53-30.86,2.92-39.44,2.92-39.44,1-6.16,2-10-.31-13.43s-6.65-4.76-20.53-5.66C229.48,91.16,218.88,90.58,214.17,96.15Z"/><path class="cls-7" d="M244.49,92.69c1.39,4.94,2.56,10.19,3.55,15.76a175.13,175.13,0,0,1-3.55,74.62c2.6-.18,5.34-.5,8.26-1a88.29,88.29,0,0,0,16.13-4.31c-.63-8.94-.81-16.58-.81-22.64a295.64,295.64,0,0,1,2.16-35c.81-6.29,1.66-11.55,2.38-15.36A8.77,8.77,0,0,0,272,99.6a9.4,9.4,0,0,0-3.95-4.13,13.94,13.94,0,0,0-7.5-1.75c-3.86-.13-9-.36-16.08-1Z"/><path class="cls-12" d="M272.25,103.29c-7.95,20.62-9.61,35.35-9.44,45.28.05,3.73.45,12.67-4.31,22.05a40.54,40.54,0,0,1-9.66,12.22,70.26,70.26,0,0,0,8.85-1.75,73.76,73.76,0,0,0,10.65-3.73c-.4-11.59-.36-24.16.4-37.6.68-13.11,1.94-25.29,3.51-36.47Z"/><path class="cls-6" d="M266.14,96.28c5.52-2.43,13,4.67,17.88,9.21,5.3,5,16,15.09,16.57,31.62.45,13.79-6.42,23.77-9.83,27.94a42.44,42.44,0,0,1-15,11.59,19.76,19.76,0,0,1-1.3,6.61c-.58,1.43-3.55,9-9.21,9.3-.76,0-3.37,0-6.38-2.79a2.3,2.3,0,0,1-1.66-.94,2.62,2.62,0,0,1-.05-2.79,3.11,3.11,0,0,1-1.57-2.06,3.07,3.07,0,0,1,.81-2.7,2.93,2.93,0,0,1,.94-2.25c.81-.53,1.67-.09,3-.18a6,6,0,0,0,3.5-1.66c-1.61-.45-5.25-1.61-5.16-2.92,0-1.52,5.3-2.42,6.47-2.65a28.17,28.17,0,0,1,7-.27c1-1.79,2.43-4.44,4.14-7.63,2.87-5.39,4.31-8.09,5.16-10a47.37,47.37,0,0,0,3.91-16.62,111.71,111.71,0,0,0-9.07-7.91c-8.54-6.65-11.41-6.78-13.75-10.55-4.4-7.06-2.29-19.72,3.64-22.33Z"/><path class="cls-3" d="M264.92,193a9.26,9.26,0,0,1-6.25-2.81,2.75,2.75,0,0,1-1.83-1.11,3,3,0,0,1-.27-2.89,3.38,3.38,0,0,1-1.43-2.14,3.47,3.47,0,0,1,.82-3,3,3,0,0,1,1.12-2.42,2.82,2.82,0,0,1,2-.3,6.67,6.67,0,0,0,1.21.05,5.42,5.42,0,0,0,2.57-1c-3.16-1-4.73-2-4.65-3.14s2-2.15,6.6-3l.23,0a28.54,28.54,0,0,1,6.84-.3c1.08-2,2.49-4.57,4-7.38,2.86-5.37,4.3-8.06,5.15-10a47.29,47.29,0,0,0,3.86-16.26,110.38,110.38,0,0,0-8.89-7.73,89.67,89.67,0,0,0-8.16-5.69c-2.67-1.7-4.29-2.73-5.69-5-2.55-4.09-3.15-10.47-1.48-15.88,1.1-3.55,3-6.07,5.32-7.09h0c5.74-2.52,13.24,4.5,18.21,9.15l.15.14c5.25,4.94,16.18,15.21,16.72,31.94.44,13.45-6,23.47-9.94,28.24a43.15,43.15,0,0,1-14.91,11.59,20,20,0,0,1-1.32,6.48l0,.08c-2.43,6-5.74,9.29-9.56,9.5Zm-8.28-11.35a2.64,2.64,0,0,0-.62,2.22,2.54,2.54,0,0,0,1.31,1.74l.43.29-.22.36a2.17,2.17,0,0,0,0,2.3,1.89,1.89,0,0,0,1.29.75H259l.13.12c2.63,2.48,4.91,2.73,6,2.67,3.41-.19,6.53-3.37,8.79-8.95l0-.07a19,19,0,0,0,1.27-6.45v-.28l.25-.11a42.28,42.28,0,0,0,14.85-11.47c3.82-4.67,10.16-14.48,9.73-27.64-.53-16.36-11.27-26.46-16.43-31.31l-.15-.15c-4.8-4.48-12-11.26-17.24-9-2.09.92-3.8,3.24-4.82,6.53-1.6,5.18-1,11.27,1.38,15.15,1.29,2.09,2.76,3,5.42,4.7a96.09,96.09,0,0,1,8.22,5.74,112.59,112.59,0,0,1,9.11,7.94l.15.14v.21a48.41,48.41,0,0,1-3.95,16.77c-.86,1.95-2.3,4.66-5.18,10-1.57,2.93-3,5.65-4.13,7.64l-.14.25-.29,0a27,27,0,0,0-6.9.27l-.22,0c-5.42,1-5.87,1.92-5.87,2.18,0,.56,1.61,1.57,4.83,2.47l.81.22-.63.55a6.7,6.7,0,0,1-3.75,1.77,7.5,7.5,0,0,1-1.38,0,1.94,1.94,0,0,0-1.39.15,2.41,2.41,0,0,0-.74,1.9l0,.26Z"/><path class="cls-3" d="M255.94,180.73c.72,3.51,6.11,2.7,8.27,1.44.54-.32,0-1.21-.5-.85-1.57.94-6.24,2-6.78-.81-.13-.68-1.12-.41-1,.22Z"/><path class="cls-3" d="M256.48,186.35c2.7,1.93,6.65,1,9.48-.27.58-.27.09-1.13-.49-.86-2.52,1.13-6.07,1.94-8.45.27C256.48,185.09,256,186,256.48,186.35Z"/><path class="cls-3" d="M258.5,190.3a8.4,8.4,0,0,0,8.58-.63c.54-.36.05-1.26-.49-.85a7.38,7.38,0,0,1-7.55.63C258.46,189.13,257.92,190,258.5,190.3Z"/><path class="cls-13" d="M264.21,98c-.9,3.05,9.61,6,18.82,15.85,3.19,3.42,9.7,10.38,11.23,20.71,1.93,12.81-4.76,23-7.23,26.73A46.37,46.37,0,0,1,273,175a14.67,14.67,0,0,1-3.69,9.7c-.72.81-3.55,3.91-7.68,4.36-2.38.27-4.53-.4-4.62-.13s1.61.63,3.77,2.11c1.39.94,1.44,1.35,2.11,1.66,2.79,1.3,7.19-2.65,7.68-3.05,4.58-4.18,5.12-10.38,5.21-12.67,1-.59,2.43-1.39,4.05-2.47a58.15,58.15,0,0,0,10.42-8.63,41.2,41.2,0,0,0,8.85-16.66c.89-3.37,3.37-13.12-.59-23.77-1.75-4.62-4-7.63-8-12.89-3.59-4.71-6.24-7.05-11.36-11.59-3.69-3.28-5.89-4.8-8.85-5-2-.14-5.53.36-6,2Z"/><path class="cls-13" d="M295,118.56A47.27,47.27,0,0,1,298.39,138a45.86,45.86,0,0,1-4.62,18.82,47.69,47.69,0,0,1-18.69,19.76,38.76,38.76,0,0,0,13.38-8.4c14.06-13.56,12-32.7,11.82-34.05a40.52,40.52,0,0,0-5.3-15.54Z"/><path class="cls-6" d="M243.5,61.69c2.69,9,3.68,14.29,7.5,22.55a96.53,96.53,0,0,0,4.72,8.94,47.42,47.42,0,0,1-18.38,4.54,46.83,46.83,0,0,1-12.12-1.17,48.74,48.74,0,0,0,.27-9.07,45.46,45.46,0,0,0-2.16-10.87c-4.31-.54-8.67-1.13-13-1.67-.86-1.88-1.71-3.82-2.56-5.7l-3.55-.14c.9-2.6,2.24-6.69,3.82-11.77,2.92-9.56,2.87-10.91,4.44-13.07,4.36-5.88,14.11-9.66,20.53-6.47,3.82,1.85,6.07,9.21,10.47,23.9Z"/><path class="cls-3" d="M235.66,98.2A47.57,47.57,0,0,1,225.12,97l-.4-.09.05-.41a47.94,47.94,0,0,0,.27-9A44.59,44.59,0,0,0,223,77l-6.21-.8-6.49-.83-.25,0-.1-.23c-.43-.95-.86-1.9-1.28-2.86l-1.17-2.59-3.87-.15.19-.57c1.08-3.13,2.47-7.41,3.82-11.76.9-3,1.53-5.16,2-6.78,1.07-3.74,1.39-4.87,2.52-6.42,4.37-5.9,14.31-10,21.09-6.61,4,2,6.26,9.38,10.7,24.17h0c.66,2.23,1.21,4.19,1.75,6.09A92.25,92.25,0,0,0,256.1,93l.26.43-.45.21a47.68,47.68,0,0,1-18.55,4.58Zm-9.95-2A45.73,45.73,0,0,0,255.08,93c-1.14-1.92-2.77-4.86-4.49-8.55a99,99,0,0,1-5.78-16.54c-.53-1.89-1.08-3.85-1.74-6.07h0C238.85,47.73,236.52,40,232.84,38.2c-6.4-3.18-15.82.72-20,6.33-1,1.42-1.34,2.51-2.38,6.14-.46,1.62-1.09,3.83-2,6.8-1.27,4.09-2.58,8.13-3.63,11.21l3.22.12.12.25c.42,1,.85,1.9,1.28,2.86l1.17,2.62,6.25.8,6.49.83.28,0,.09.28a45.57,45.57,0,0,1,2.17,11A48.15,48.15,0,0,1,225.71,96.2Z"/><path class="cls-3" d="M204.33,69.82a39.89,39.89,0,0,0,6.65-.45c.85-.13.49-1.43-.36-1.3a36.92,36.92,0,0,1-6.29.4A.68.68,0,0,0,204.33,69.82Z"/><path class="cls-3" d="M203.47,52.66a2.93,2.93,0,0,1,3.73.86c.5.71,1.67,0,1.17-.68a4.32,4.32,0,0,0-5.57-1.35c-.76.41-.09,1.58.67,1.17Z"/><path class="cls-3" d="M214.08,54.23a3.78,3.78,0,0,1,4.31,1.49c.49.72,1.66,0,1.17-.68A5.17,5.17,0,0,0,213.72,53a.65.65,0,1,0,.36,1.25Z"/><path class="cls-3" d="M214.39,59.27a2.44,2.44,0,0,1,.31-1.44,1.6,1.6,0,0,1,.23-.32c-.18-.22-.27-.27-.23,0s0,.54-.09.67a3.59,3.59,0,0,1-.22.68.85.85,0,0,1-.13.22c.22.41.35.45.44.14a5.12,5.12,0,0,0,.41-.81l.4-.81a.68.68,0,0,0-1.07-.81,2.36,2.36,0,0,0-.63,1,.67.67,0,0,0,1.3.36.75.75,0,0,1,.27-.45l-1.08-.81c-.31.63-.67,1.26-.94,1.94a1.05,1.05,0,0,0,.31,1.39c1.21.76,2-.81,2.2-1.75s.18-2.79-1.3-2.38c-1.17.36-1.62,2.06-1.57,3.1S214.44,60.12,214.39,59.27Z"/><path class="cls-14" d="M210.93,46.6a22.75,22.75,0,0,1,3.19-8.49,17.28,17.28,0,0,1,4.9-5.3c4.89-3.19,12.4-2.92,17.83,1a17.69,17.69,0,0,1,6.83,17.47c-10.87-1.53-21.83-3.1-32.75-4.67Z"/><path class="cls-3" d="M193.05,46.73l50.49,6.34c2.56.31,2.56-3.73,0-4l-50.49-6.33C190.45,42.38,190.49,46.42,193.05,46.73Z"/><path class="cls-3" d="M232.81,50.82c-3,1.08-4.72,3.14-6.7,5.53-4.22,5.12-3,7-5.92,10.19-4.72,5.08-9.53,2.07-13.75,7.06-3.59,4.22-3.1,9.92-3,11.23a15,15,0,0,0,4.95,9.83c3.63,3,8.49,3.69,8.8,3,.09-.22-.27-.85-3-2.65a9.54,9.54,0,0,0,3.59,1.53c1.84.31,3.59,0,3.59-.27s-1-.18-1.75-1a3.39,3.39,0,0,1-.76-1.53c1.48.95,3.32,1.8,5.07,1.26,4.81-1.43,5.66-12.08,5.93-15.63.9-11.41-2.38-17.65,1.62-21.7.31-.36,1.93-2,3.73-1.61,2.24.4,3.95,3.86,3.23,6.15-.63,2-2.87,2.52-2.74,2.92s4-.27,7.19-2.78a6.81,6.81,0,0,0,2.61-3,7.21,7.21,0,0,0-1.49-6.7C241.3,49.43,236,49.65,232.81,50.82Z"/><path class="cls-3" d="M216.36,98.36A14.7,14.7,0,0,1,208.13,95,15.35,15.35,0,0,1,203,84.87c-.22-2.13-.37-7.53,3.07-11.57,2.21-2.61,4.61-3.13,6.94-3.64s4.56-1,6.82-3.42a10.69,10.69,0,0,0,2.29-3.94,19.36,19.36,0,0,1,3.62-6.24c1.93-2.33,3.75-4.52,6.88-5.66h0c3.7-1.34,9-1.29,11.76,2A7.67,7.67,0,0,1,246,59.51a7.23,7.23,0,0,1-2.76,3.21c-2.95,2.33-6.42,3.18-7.38,3a.67.67,0,0,1-.48-.34l0-.06c-.16-.48.29-.76.77-1.06a4.15,4.15,0,0,0,2-2.14,4.9,4.9,0,0,0-.67-3.79,3.51,3.51,0,0,0-2.21-1.78c-1.7-.34-3.3,1.45-3.31,1.47-2.31,2.33-2.06,5.44-1.69,10.14a67.7,67.7,0,0,1,.18,11.3c-.27,3.58-1.1,14.48-6.25,16a5.66,5.66,0,0,1-4.24-.62A1.83,1.83,0,0,0,220,95a2.61,2.61,0,0,0,1.19.66c.29.09.68.21.68.63a.53.53,0,0,1-.2.42c-.5.42-2.36.56-3.92.29l-.41-.09c.38.46.36.72.28.94a.86.86,0,0,1-.65.46A2.8,2.8,0,0,1,216.36,98.36ZM233,51.24c-2.9,1.06-4.65,3.16-6.5,5.39a18.56,18.56,0,0,0-3.47,6,11.44,11.44,0,0,1-2.48,4.23c-2.45,2.64-4.9,3.17-7.28,3.69s-4.43,1-6.45,3.35c-3.21,3.77-3.07,8.87-2.86,10.89a14.46,14.46,0,0,0,4.78,9.54,13.47,13.47,0,0,0,8,3.14,12,12,0,0,0-2.35-1.86l-.3-.21.5-.74.3.2a8.26,8.26,0,0,0,5.36,1.35,3.21,3.21,0,0,1-.8-.6,4.07,4.07,0,0,1-.87-1.72l-.3-1.12,1,.63c1.92,1.22,3.41,1.6,4.7,1.2,3-.9,4.92-6,5.62-15.23a69.42,69.42,0,0,0-.18-11.16c-.38-4.77-.65-8.22,1.92-10.82.06-.07,1.94-2.19,4.14-1.74a4.41,4.41,0,0,1,2.81,2.2,5.74,5.74,0,0,1,.76,4.52,4.56,4.56,0,0,1-2,2.39A14.56,14.56,0,0,0,242.68,62a6.25,6.25,0,0,0,2.46-2.81,6.74,6.74,0,0,0-1.4-6.25c-2.7-3.13-7.93-2.74-10.78-1.71Z"/><path class="cls-15" d="M237.25,65.55c-.71.09-1.75.09-1.79-.13s.22-.31.22-.31a3.5,3.5,0,0,1-1.93,1.21,2.24,2.24,0,0,1-1.26-.27A101.5,101.5,0,0,1,238,80.42a102.59,102.59,0,0,1,3.42,16.4,26.3,26.3,0,0,0,7.81-1.21,27.07,27.07,0,0,0,6.11-2.83A67.22,67.22,0,0,1,248,77.91c-.54-1.62-1.71-5.44-2.25-7.32-1-3.42-1.89-6.25-2.43-8.13A11.44,11.44,0,0,1,242,63.53,9.65,9.65,0,0,1,237.25,65.55Z"/><path class="cls-3" d="M129.36,227.76h2.42a.67.67,0,0,0,0-1.34h-2.42A.67.67,0,1,0,129.36,227.76Z"/><path class="cls-3" d="M126.88,229.07H358.32a1.35,1.35,0,0,0,0-2.7H126.88A1.35,1.35,0,0,0,126.88,229.07Z"/><path class="cls-3" d="M127.51,235.71H355.26a1.35,1.35,0,0,0,0-2.69H127.51a1.35,1.35,0,0,0,0,2.69Z"/><path class="cls-3" d="M134.66,242.27V387.41a1.35,1.35,0,0,0,2.69,0V242.27A1.35,1.35,0,0,0,134.66,242.27Z"/><path class="cls-3" d="M322.34,240.48V371.69a1.35,1.35,0,0,0,2.69,0V240.48A1.35,1.35,0,0,0,322.34,240.48Z"/><path class="cls-3" d="M135.19,242.23V384.09a1.35,1.35,0,0,0,2.7,0V242.23A1.35,1.35,0,0,0,135.19,242.23Z"/><path class="cls-3" d="M135.78,242.81V384.09a1.35,1.35,0,0,0,2.69,0V242.81A1.35,1.35,0,0,0,135.78,242.81Z"/><path class="cls-3" d="M322.11,239.8V368.41a1.35,1.35,0,0,0,2.7,0V239.8A1.35,1.35,0,0,0,322.11,239.8Z"/><path class="cls-3" d="M322.74,240.43V367.87a1.35,1.35,0,0,0,2.69,0V240.43A1.35,1.35,0,0,0,322.74,240.43Z"/><path class="cls-3" d="M129,235.94a67.84,67.84,0,0,1,6.24,8.94c.9,1.48,3.23.13,2.34-1.35a77.68,77.68,0,0,0-6.7-9.48c-1.12-1.35-3,.54-1.88,1.89Z"/><path class="cls-3" d="M138.11,243.94c3.33-2.79,6.61-5.62,9.93-8.41,1.3-1.12-.58-3-1.88-1.88-3.33,2.78-6.61,5.61-9.93,8.4C134.88,243.17,136.81,245.06,138.11,243.94Z"/><path class="cls-3" d="M314.61,237.33l8.35,5.26c1.49.94,2.83-1.4,1.35-2.34L316,235C314.47,234.1,313.13,236.43,314.61,237.33Z"/><path class="cls-3" d="M330.83,234.14a85.27,85.27,0,0,0-6.7,6c-1.21,1.21.68,3.15,1.89,1.89a87,87,0,0,1,6.69-6C334.06,235,332.17,233.06,330.83,234.14Z"/><path class="cls-3" d="M316.72,237.47a42.55,42.55,0,0,0,10.69.31c-.22-.85-.45-1.66-.67-2.51a10.37,10.37,0,0,1-4.76,1.39c-1,.13-2,1.48-1,2.29a4.79,4.79,0,0,0,4.54,1c1.66-.4,1-3-.72-2.6a1.83,1.83,0,0,1-1.93-.36c-.32.76-.63,1.52-.94,2.29a12.74,12.74,0,0,0,6.1-1.8c1-.67.77-2.65-.67-2.51a41.51,41.51,0,0,1-10-.23c-1.66-.18-2.38,2.43-.67,2.7Z"/><path class="cls-3" d="M329.75,234.91a4.65,4.65,0,0,0-3.6.62,1.43,1.43,0,0,0-.49,1.85,1.38,1.38,0,0,0,1.84.49,1.72,1.72,0,0,1,1.48-.36,1.42,1.42,0,0,0,1.67-.94A1.3,1.3,0,0,0,329.75,234.91Z"/><path class="cls-3" d="M132.05,237.2c.81.54,3.82,1.93,3.68,3.1l1.35-1.35a13.22,13.22,0,0,1-.85-2.43c-.41.68-.77,1.35-1.17,2a23.6,23.6,0,0,0,7.73-1.66l-1.31-2.24a45.51,45.51,0,0,1-4.89,4.4l1.84,1.84c1.62-2.74-.67-5-3-6.15-.23.85-.45,1.66-.67,2.51,1.84-.09,3.68-.13,5.52,0s1.71-2.61,0-2.7a44.21,44.21,0,0,0-5.52.05c-1.26.09-1.94,1.88-.68,2.51.81.41,2.79,1.26,2.07,2.47s.72,2.7,1.84,1.84a46.92,46.92,0,0,0,5.44-4.8c.85-.9,0-2.79-1.31-2.25a22.14,22.14,0,0,1-7,1.57,1.38,1.38,0,0,0-1.16,2c.76,1.7.72,3.77,3.19,3.72a1.37,1.37,0,0,0,1.34-1.34c.36-2.7-3.19-4.23-5-5.39-1.53-1-2.88,1.34-1.44,2.29Z"/><path class="cls-6" d="M386.17,294.38c.18,2.11.36,4.27.54,6.38l62.12-.54c-.22-2-.45-4-.67-6C427.45,294.29,406.83,294.34,386.17,294.38Z"/><path class="cls-3" d="M386.57,301.48h62.08a1.35,1.35,0,0,0,0-2.7H386.57A1.35,1.35,0,0,0,386.57,301.48Z"/><path class="cls-3" d="M387,295.32h60.91a1.35,1.35,0,0,0,0-2.69H387A1.35,1.35,0,0,0,387,295.32Z"/><path class="cls-3" d="M384.86,294.38V299a1.35,1.35,0,0,0,2.7,0v-4.58A1.35,1.35,0,0,0,384.86,294.38Z"/><path class="cls-3" d="M447.3,294.38v6.11a1.35,1.35,0,0,0,2.7,0v-6.11A1.35,1.35,0,0,0,447.3,294.38Z"/><path class="cls-3" d="M417,300.89v77.4a1.35,1.35,0,0,0,2.69,0v-77.4a1.35,1.35,0,0,0-2.69,0Z"/><path class="cls-3" d="M416.94,377.89c-4.63,2.74-9.26,5.48-13.93,8.22-1.48.9-.13,3.23,1.35,2.34,4.63-2.74,9.25-5.48,13.93-8.23A1.35,1.35,0,0,0,416.94,377.89Z"/><path class="cls-3" d="M417.7,379.82c5.26,2.92,10.47,5.89,15.72,8.81a1.35,1.35,0,0,0,1.35-2.34c-5.25-2.92-10.46-5.89-15.72-8.81A1.35,1.35,0,0,0,417.7,379.82Z"/><path class="cls-3" d="M403.82,389.43c10-.09,19.9-.4,29.87-.89,1.71-.09,1.76-2.79,0-2.7-9.92.49-19.9.81-29.87.9A1.35,1.35,0,0,0,403.82,389.43Z"/><path class="cls-3" d="M405.3,301.88a173.14,173.14,0,0,1,11.05,18c.81,1.53,3.15.18,2.34-1.35a174.73,174.73,0,0,0-11.05-18C406.65,299.1,404.32,300.45,405.3,301.88Z"/><path class="cls-3" d="M432.3,300a86.85,86.85,0,0,0-15,19,1.35,1.35,0,0,0,2.33,1.35,84.28,84.28,0,0,1,14.6-18.42c1.26-1.21-.67-3.14-1.93-1.93Z"/><path class="cls-3" d="M322.51,352.78c-.35,6.42-.67,12.85-1,19.27-17.16,7.46-25.42,12.35-24.75,14.6.76,2.69,14,1.75,39.53-2.74q.27-16.52.49-33l-14.24,1.89Z"/><path class="cls-2" d="M375.79,248.7c-3.82,3.41-9.25,8.35-15.59,14.46-15.09,14.65-26.19,25.38-33.69,36.48-6.2,9.21-15.41,26.72-16.12,55.38a83.43,83.43,0,0,0,23.09,3.06c3-.05,6-.23,8.62-.54a77.34,77.34,0,0,1,.27-28.66,76.16,76.16,0,0,1,7-20,146.36,146.36,0,0,0,42.59-28.39c8.8-8.49,18.82-18.2,16.12-25.07C405.57,248.88,392.41,246.36,375.79,248.7Z"/><path class="cls-13" d="M397,248.74a292.23,292.23,0,0,1-59.79,59.48q-5.65,24.86-11.32,49.68a33.1,33.1,0,0,0,5.48.49,36.88,36.88,0,0,0,10.29-1.21,83.7,83.7,0,0,1-.36-22.46A81.84,81.84,0,0,1,348.88,309a188.39,188.39,0,0,0,24-13.21S391,284.05,405.08,266a16.28,16.28,0,0,0,2.25-3.95c.67-1.75,1.52-3.91.85-6.16-.63-2-2.16-3.14-3.77-4.26a17.45,17.45,0,0,0-7.37-2.88Z"/><path class="cls-12" d="M348.52,309.25q-2.89,5.38-5.66,11.32a221.47,221.47,0,0,0-13.52,37.69c4.14-.18,8.22-.36,12.36-.5a79.49,79.49,0,0,1-.86-21.24,78.49,78.49,0,0,1,7.68-27.27Z"/><path class="cls-3" d="M350.23,359q3.11,9.63,6.2,19.27c-15.27,9.16-22.51,14.69-21.65,16.53q1.55,3.38,39.53-10-5.26-15.3-10.51-30.59c-4.54,1.52-9.08,3.14-13.57,4.76Z"/><path class="cls-2" d="M424.31,257.41c3.18,16.22-1.62,25.34-3.91,28.84-4.58,7-10.69,9.16-28.53,18-7,3.46-17.56,8.85-30.54,16a129.55,129.55,0,0,0,11.72,37,37.41,37.41,0,0,1-32.52,9.88,87,87,0,0,1-9.35-33.6c-.58-9-1.25-19.18,4-29.25,4.05-7.72,7.95-8.44,24.3-20.93,24.58-18.73,27-25.74,39.71-28.34,10.38-2.12,19.59.36,25.12,2.42Z"/><path class="cls-15" d="M407.5,254.4a44.12,44.12,0,0,1-4.35,21.74c-3.51,7.06-8.18,12.09-23.59,22.51-13.7,9.25-24.61,16.39-31.67,21l13.48,45.14a26.54,26.54,0,0,0,4.63-2.06,25.77,25.77,0,0,0,6.6-5.48,136.45,136.45,0,0,1-5.7-14.11,138.75,138.75,0,0,1-5.8-22.68c11.14-6.2,19-10.25,23.54-12.54,6.83-3.41,10.2-5.12,13.66-6.78,1.16-.54,3.77-1.75,7.18-3.55a74.41,74.41,0,0,0,7.42-4.09,29.45,29.45,0,0,0,7.72-7.5c4-5.84,4.4-12,4.67-16.4a43,43,0,0,0-.94-11.94,41.21,41.21,0,0,0-9.25-2.7,33.72,33.72,0,0,0-7.6-.54Z"/><path class="cls-16" d="M425.25,266.4a41.06,41.06,0,0,1-4.31,9.56c-7.06,11.32-17.84,15.82-25.38,19.59a141.24,141.24,0,0,0-34.37,24.71c3.77-2.12,8.4-4.63,13.79-7.51,9.53-5.07,14.24-7.59,19.14-9.92,3.82-1.8,8.17-3.73,14.69-7.19,4.67-2.47,7.23-4,9.66-6.83a26.67,26.67,0,0,0,4.76-8.53,34.36,34.36,0,0,0,2-13.88Z"/><path class="cls-17" d="M361,320.7a120.42,120.42,0,0,0,.81,12.09,118.78,118.78,0,0,0,6.74,27.89,15.55,15.55,0,0,0,2.74-1.93,12.88,12.88,0,0,0,1.57-1.57c-1.89-3.91-3.73-8.26-5.48-13A147.63,147.63,0,0,1,361,320.7Z"/><path class="cls-6" d="M394.7,169.46c-5.61,1.88-6.6,8.58-10.37,16.21a70,70,0,0,1-18.92,22.1c-4.71,3.64-14.91,10.07-31.93,11.19a35.82,35.82,0,0,0-7.46-2.11c-4.63-.77-11.1-1.89-15.45,1.84-2,1.71-4.18,4.94-3.19,6.92,1.21,2.42,6.6,1.48,15.45,1.08,12.26-.54,11.68.8,20.21.27,7.64-.5,19.68-1.22,32.21-8.54a58.05,58.05,0,0,0,19.68-18.64c2.87-4.49,4.17-8.13,6.83-15.45,3.5-9.62,2.91-11.77,1.93-13-1.71-2.34-5.84-2.92-9-1.84Z"/><path class="cls-3" d="M312.45,227.66c-2.91,0-4.75-.41-5.48-1.85-1.17-2.35,1.4-5.82,3.3-7.46,4.47-3.82,10.93-2.75,15.65-2l.17,0a36.35,36.35,0,0,1,7.46,2.1c15.59-1.05,25.78-6.6,31.59-11.08a70.36,70.36,0,0,0,18.78-21.94c1-2,1.79-3.95,2.55-5.81,2.11-5.13,3.78-9.19,8.09-10.64,3.15-1.08,7.57-.63,9.49,2,1,1.33,1.76,3.47-1.87,13.45l-.09.25c-2.61,7.2-3.92,10.81-6.78,15.29a59.11,59.11,0,0,1-19.83,18.79c-12.51,7.31-24.36,8.07-32.2,8.58h-.21a48.48,48.48,0,0,1-8.37-.1,80.63,80.63,0,0,0-11.85-.17c-1.73.08-3.35.18-4.78.27C315.89,227.54,314,227.66,312.45,227.66Zm6.44-11.14a12,12,0,0,0-8,2.51c-2.11,1.82-3.88,4.77-3.08,6.38s4.58,1.45,10.23,1.1c1.44-.09,3.07-.19,4.8-.27a79.46,79.46,0,0,1,12,.17,48,48,0,0,0,8.24.1l.2,0C351,226,362.7,225.23,375,218a58.06,58.06,0,0,0,19.52-18.49c2.81-4.4,4.11-8,6.69-15.12l.09-.25c3.48-9.54,2.86-11.5,2-12.59-1.66-2.28-5.69-2.65-8.48-1.7h0c-3.93,1.32-5.52,5.21-7.55,10.13-.76,1.88-1.56,3.81-2.57,5.86a71.34,71.34,0,0,1-19,22.26c-5.92,4.57-16.31,10.23-32.19,11.28h-.1l-.09,0a34.92,34.92,0,0,0-7.37-2.09l-.16,0A42.91,42.91,0,0,0,318.89,216.52Z"/><path class="cls-3" d="M328.13,220.35c-2.83.54-6.92.68-9,3-1.17,1.35-1,3.73,1.16,3.73a.52.52,0,0,0,0-1c-1.07-1.13-1-2,.36-2.65a7.75,7.75,0,0,1,1.49-.77,12.34,12.34,0,0,1,1.75-.49c1.48-.32,3-.59,4.49-.85C329,221.21,328.76,220.26,328.13,220.35Z"/><path class="cls-3" d="M306.93,224.53c2.65,3.32,6.78-.54,10,.31a.51.51,0,0,0,.27-1,6.78,6.78,0,0,0-4,.27c-1.84.58-4.09,1.57-5.57-.32-.36-.49-1.08.23-.67.72Z"/><path class="cls-3" d="M308.54,220.44c.09,1.35,1,1.89,2.3,1.89,2.92,0,5.48-1.17,8.4-.23a.51.51,0,0,0,.26-1,10.61,10.61,0,0,0-4.44-.41c-1.08.09-5.39,1.3-5.48-.31-.09-.59-1.08-.59-1,0Z"/><path class="cls-3" d="M313,217.66a2.76,2.76,0,0,0,2.38,1.75,21.56,21.56,0,0,1,6.38,1.35c.58.27,1.12-.63.49-.86a17.52,17.52,0,0,0-3.59-1.17c-1.44-.26-4.09.18-4.72-1.34C313.67,216.8,312.68,217.07,313,217.66Z"/><path class="cls-12" d="M400.14,169.59c-2.56.63-1.8,7.5-3.15,13.88-2.24,10.29-9.56,16.71-17.65,23.81-5.48,4.81-11.9,10.47-21.7,13a82.05,82.05,0,0,1-14.91,2.11c-8.09.41-12.08.63-12.35.59a15.69,15.69,0,0,0-8.13,1c-.72.31-2.7,1.17-2.57,1.8.18.94,4.86.67,15.37.58,7.77,0,7,.09,9.34,0a67,67,0,0,0,21.11-3.64c12.54-4.49,20.26-12.44,23.81-16.12a56.24,56.24,0,0,0,5.89-7.24c2.78-4.17,4.08-7.9,6.64-15.22,3-8.54,3-10.79,1.8-12.54-.81-1-2.29-2.33-3.5-2Z"/><path class="cls-18" d="M308.14,226a10.91,10.91,0,0,1,5.26-5.89c5.39-2.56,10.64.9,10.87,1a26,26,0,0,1-2.88,1.34c-1.12.5-1.57.59-2,1a3.44,3.44,0,0,0-.32,2.87,21.82,21.82,0,0,1-5.57.45,20.77,20.77,0,0,1-5.39-.85Z"/><path class="cls-7" d="M403.6,177a72.47,72.47,0,0,1-15.1,27.13A73.59,73.59,0,0,1,355,225.52c5.07-.9,23.94-4.9,37.24-22.15A59.06,59.06,0,0,0,403.6,177Z"/><path class="cls-6" d="M393.18,169.82c-2.83,3.1-4.86,7.18-6.16,22.28-1.93,22.05,1.12,27.13-2.29,38-1.57,5-4.81,12.22-12.31,20a80.91,80.91,0,0,0,25.38,10.79,79.82,79.82,0,0,0,27.31,1.52c8.09-24.84,7.42-44.92,5.75-57.27-1.57-11.77-5.12-38.86-19.22-42.27-6.7-1.66-14.29,2.38-18.46,6.92Z"/><path class="cls-3" d="M415.8,263.43a79.64,79.64,0,0,1-18.1-2.08,81.17,81.17,0,0,1-25.52-10.84l-.46-.29.38-.4A50.48,50.48,0,0,0,384.3,230c1.87-6,1.78-10.13,1.65-16.45a180.11,180.11,0,0,1,.62-21.5c1.26-14.56,3.18-19.15,6.27-22.55h0c4.24-4.6,12-8.77,18.91-7,14.33,3.47,18,30.8,19.54,42.47l0,.18c2.51,18.66.57,38-5.77,57.47l-.09.28-.29,0A81.85,81.85,0,0,1,415.8,263.43Zm-42.68-13.38a80.47,80.47,0,0,0,24.78,10.43A79.4,79.4,0,0,0,424.78,262c6.22-19.25,8.12-38.36,5.64-56.8l0-.18c-1.53-11.49-5.12-38.39-18.86-41.72-6.58-1.63-14,2.37-18,6.79-2.5,2.74-4.68,6.28-6,22a178.4,178.4,0,0,0-.62,21.4c.13,6.41.22,10.64-1.69,16.74A51,51,0,0,1,373.12,250.05Z"/><path class="cls-10" d="M408,163c-.22,1.84-.54,4.58-.85,7.86-2.11,22,.36,26-1.26,38.9-.9,7.37-2.78,21.16-12.49,34a58.3,58.3,0,0,1-11.36,11.36,72.67,72.67,0,0,0,21.88,7,71.25,71.25,0,0,0,20.88,0,124.48,124.48,0,0,0,4.5-16.49,127.55,127.55,0,0,0,2.38-30.5c-.59-14.24-1.89-44.79-17.52-51A17,17,0,0,0,408,163Z"/><path class="cls-19" d="M431.4,227.49c-.54-.09-1.79,5.48-3.64,10.52-2.33,6.51-6.73,15.27-15.85,24.75,4.4-.23,8.85-.41,13.25-.63a167.81,167.81,0,0,0,4.9-20.62c1-5.89,2-13.88,1.34-14Z"/><path class="cls-6" d="M419.86,169.23c5.07,1,7.23,9,9,16.08a78.84,78.84,0,0,1,.4,40.61c-2,7.86-3.82,15.19-10.06,22.6a48,48,0,0,1-23.36,14.87c-5.39,3.72-8.18,5.61-9.75,6.6-1.12.72-1.79,1.12-3,2a17.4,17.4,0,0,1-2.92,2,6.47,6.47,0,0,1-4.49-.05,3,3,0,0,1-2.6-.81,2.49,2.49,0,0,1-.77-1.66,2.16,2.16,0,0,1-1.75-3.23,3.29,3.29,0,0,1-.36-1.49c-.22-3.14,3.5-5.66,5.57-7.09a27.4,27.4,0,0,1,13.3-4.58A46.19,46.19,0,0,0,403,243.89c1.53-1.8,11.72-14.46,10.91-31.49-.31-7.14-2.87-20.44-4.31-32.84a9.46,9.46,0,0,1,.94-5.66c1.89-3.19,6.2-5.25,9.35-4.67Z"/><path class="cls-3" d="M378.18,274.8a8.55,8.55,0,0,1-2.5-.4,3.48,3.48,0,0,1-2.9-.95,3.12,3.12,0,0,1-.86-1.58,2.74,2.74,0,0,1-1.51-.92,2.66,2.66,0,0,1-.32-2.71,3.49,3.49,0,0,1-.32-1.48c-.24-3.3,3.43-5.85,5.63-7.37l.13-.1A28,28,0,0,1,389,254.64a45.27,45.27,0,0,0,13.66-11c1.2-1.4,11.62-14.19,10.81-31.18-.17-4.06-1.07-10-2.11-16.94-.77-5.19-1.58-10.56-2.2-15.86v-.06a9.82,9.82,0,0,1,1-5.88c1.95-3.28,6.44-5.52,9.82-4.89h0c5.47,1.07,7.64,9.58,9.38,16.41a79.29,79.29,0,0,1,.41,40.83l-.12.45c-2,7.7-3.85,15-10,22.33a47.93,47.93,0,0,1-23.51,15c-5.4,3.73-8.12,5.58-9.7,6.57l-.68.43c-.76.49-1.37.87-2.31,1.53-.61.44-1.05.78-1.39,1a6.63,6.63,0,0,1-1.61,1A5.88,5.88,0,0,1,378.18,274.8Zm-2.47-1.32.12,0a5.09,5.09,0,0,0,5.6-.85c.35-.27.8-.61,1.42-1.06,1-.68,1.58-1.06,2.35-1.56l.68-.43c1.56-1,4.37-2.89,9.73-6.59l.07,0,.07,0a46.94,46.94,0,0,0,23.13-14.72c6.06-7.19,7.91-14.37,9.86-22l.12-.45a78.42,78.42,0,0,0-.41-40.39c-1.59-6.24-3.77-14.79-8.68-15.75-3-.56-7.1,1.48-8.87,4.46a9.12,9.12,0,0,0-.89,5.34v.05c.61,5.29,1.42,10.64,2.19,15.82,1,6.94,1.94,12.93,2.12,17,.83,17.33-9.8,30.37-11,31.8a46.09,46.09,0,0,1-14,11.29l-.08,0h-.09A27.13,27.13,0,0,0,376.05,260l-.14.09c-2,1.42-5.44,3.78-5.24,6.6A2.85,2.85,0,0,0,371,268l.1.2-.1.2a1.78,1.78,0,0,0,.13,1.94,1.85,1.85,0,0,0,1.22.64h.44v.44a2.06,2.06,0,0,0,.63,1.35,2.67,2.67,0,0,0,2.18.69Z"/><path class="cls-3" d="M370.71,268.55a.52.52,0,0,0,0-1A.52.52,0,0,0,370.71,268.55Z"/><path class="cls-3" d="M370.22,268v.32a.51.51,0,0,0,.94.27,14.17,14.17,0,0,1,7.06-5,.51.51,0,0,0-.27-1,15.39,15.39,0,0,0-7.68,5.48l.94.27V268c0-.63-1-.63-1,0Z"/><path class="cls-3" d="M372.74,271.65a22,22,0,0,1,8.35-5.88c.59-.23.36-1.22-.27-1a22.74,22.74,0,0,0-8.8,6.11C371.61,271.43,372.33,272.15,372.74,271.65Z"/><path class="cls-3" d="M376.11,274.08a33,33,0,0,1,8.08-6.65c.54-.32.05-1.21-.49-.85a33.45,33.45,0,0,0-8.27,6.82C375,273.85,375.7,274.57,376.11,274.08Z"/><path class="cls-18" d="M417.88,170.94c-1.71,2.47,1.08,6.83,2.65,10.06,2.29,4.76,2.65,9.93,3.37,20.26,1.3,18.73-7.41,34.77-8,35.89-7.95,14.15-20.3,22.64-24.17,25.25-6.56,4.4-15.85,9.21-15.09,11.05.27.67,1.75.76,2.38.72,2.16-.09,3-1.76,6.06-3.87,1.58-1.12,1.53-.76,4.23-2.38a70,70,0,0,0,6.47-4.4A47,47,0,0,0,409,257.64a45.4,45.4,0,0,0,16.57-19c1.62-3.54,2.25-6.37,3.51-12a85.78,85.78,0,0,0,2.2-27.85,79,79,0,0,0-2.79-14.2c-2-7.86-3.86-14.64-7.36-15.09a3.66,3.66,0,0,0-3.24,1.44Z"/><path class="cls-12" d="M430.68,195.51c-.4,0-.31,4.72-2.24,17.25-1.75,11.23-2.65,17-5.12,22.24a49.32,49.32,0,0,1-10.87,14.73c-6.79,6.56-10.87,7-21.25,14.64a125.55,125.55,0,0,0-11.86,9.89c5.39-3.6,10.74-7.19,16.13-10.74a48.25,48.25,0,0,0,23.27-14.87c5.61-6.65,7.81-13.16,9.52-18.24C434.1,212.31,431.4,195.51,430.68,195.51Z"/><path class="cls-6" d="M399.69,149.65c-2,1.39-2.38,4.08-2.7,7a29.76,29.76,0,0,0,2.38,14.78,32.76,32.76,0,0,0,6.16-.59,31.79,31.79,0,0,0,4.8-1.34c-.17-6-.31-12-.49-17.93C406.07,148.84,402.11,148,399.69,149.65Z"/><path class="cls-3" d="M399.37,171.93h-.29l-.12-.28a30.16,30.16,0,0,1-2.41-15c.29-2.72.61-5.81,2.88-7.37h0c2.56-1.75,6.65-1,10.68,2l.17.13v.22c.09,3,.17,6,.25,9s.15,6,.24,9v.33l-.3.11a31.15,31.15,0,0,1-4.88,1.36A32.51,32.51,0,0,1,399.37,171.93Zm.57-21.91c-1.79,1.23-2.16,3.56-2.5,6.73A29.3,29.3,0,0,0,399.67,171a31.8,31.8,0,0,0,5.77-.58,30.23,30.23,0,0,0,4.44-1.22q-.13-4.3-.24-8.63c-.08-2.92-.15-5.83-.24-8.74-3.6-2.6-7.3-3.32-9.46-1.84Z"/><path class="cls-6" d="M389,119.68c-3.15,1.8-4.49,4.81-7.14,10.65-3,6.65-5,12.4-5.84,16.62a1.36,1.36,0,0,0,.76,1.53,17,17,0,0,0,2.83.67,18.2,18.2,0,0,0,1.8,8,18.69,18.69,0,0,0,9.74,8.89A32.09,32.09,0,0,0,402,162.18a24.36,24.36,0,0,0,7.19-5.62,22.6,22.6,0,0,0,4.13-7.18,7.86,7.86,0,0,0,3.87-.9c3.05-1.66,5.66-6,4-8.67-1.21-1.93-4.54-2.74-7.95-1.48a24.26,24.26,0,0,0-.49-5.75,23.9,23.9,0,0,0-3.24-7.86c-4.13-5.8-14.19-8.67-20.57-5Z"/><path class="cls-3" d="M391.1,166.51l-.11,0a19.22,19.22,0,0,1-10-9.11,18.62,18.62,0,0,1-1.84-7.84l-.48-.08a9,9,0,0,1-2.09-.55,1.79,1.79,0,0,1-1-2c.79-4.13,2.76-9.75,5.87-16.71l.06-.14c2.59-5.71,4-8.86,7.26-10.72h0c6.27-3.57,16.75-1,21.16,5.16a23.71,23.71,0,0,1,3.29,8v0a24.33,24.33,0,0,1,.52,5.22c3.26-1,6.56-.22,7.87,1.87a4.57,4.57,0,0,1,.36,3.6,9.84,9.84,0,0,1-4.57,5.7,8,8,0,0,1-3.76.95,23.27,23.27,0,0,1-4.11,7,24.87,24.87,0,0,1-7.31,5.71,32.37,32.37,0,0,1-11,3.92Zm-1.88-46.44c-3,1.72-4.3,4.59-6.89,10.31l-.07.14c-3.07,6.89-5,12.45-5.8,16.52a.89.89,0,0,0,.51,1,8.54,8.54,0,0,0,1.86.47c.33.06.64.11.89.18l.34.08v.35a17.69,17.69,0,0,0,1.75,7.8,18.29,18.29,0,0,0,9.39,8.63,31.47,31.47,0,0,0,10.6-3.79,24.2,24.2,0,0,0,7.07-5.52,22.36,22.36,0,0,0,4.05-7l.11-.3h.31a7.39,7.39,0,0,0,3.65-.85,9,9,0,0,0,4.13-5.15,3.72,3.72,0,0,0-.25-2.89c-1.17-1.86-4.36-2.42-7.41-1.29l-.63.23,0-.67a23.84,23.84,0,0,0-.48-5.64v0a23.16,23.16,0,0,0-3.15-7.65c-4.18-5.85-14.07-8.28-20-4.91Z"/><path class="cls-14" d="M377.68,140a20.09,20.09,0,0,1-3.24-12,16.28,16.28,0,0,1,3.15-9.3,15.82,15.82,0,0,1,9.3-5.7,12.43,12.43,0,0,1,3.5-3.82c.72-.5,2.7-1.71,7.55-2a33.94,33.94,0,0,1,11.14,1.3,21.42,21.42,0,0,1,7.54,3.82c5.71,4.49,5.26,8,12.49,15.32,1.66,1.66,2.83,2.25,5.35,4.72a68.89,68.89,0,0,1,5.93,6.51c2.65,3.37,7.63,9.75,8.58,18.37.31,2.92,1.21,11.14-3.91,17.43-7,8.58-22.69,9.26-32.25,2.43-1.8-1.26-9.26-6.65-8.85-15.32.36-7.82,6.87-12.49,7.77-13.16a5.61,5.61,0,0,0,3.86.27c3.19-1.17,4.54-6.07,2.88-8.54a4,4,0,0,0-2.07-1.48c-2.61-.9-5,1-5.21,1.17a59.65,59.65,0,0,1-8-7,42.3,42.3,0,0,1-4.22-4.9,40.75,40.75,0,0,1-3.1-5.12,24.18,24.18,0,0,0-7.59,3.28A24.81,24.81,0,0,0,383,131a31.41,31.41,0,0,0-3,4,48.31,48.31,0,0,0-2.38,5Z"/><path class="cls-3" d="M381.23,155.71a10.24,10.24,0,0,0,6.78-4.49c.36-.54-.49-1-.85-.5a9.42,9.42,0,0,1-6.16,4.05C380.33,154.86,380.6,155.8,381.23,155.71Z"/><path class="cls-8" d="M396.5,124.58c.81,1.62,1.84,3.77,3,6.33,3.59,7.82,4,10,4.13,11.86a19.43,19.43,0,0,1-.72,6.52c-2.06,8.35-8.13,13.92-11.14,16.35a26.07,26.07,0,0,0,5.26-1.17,27.07,27.07,0,0,0,7-3.59,14.73,14.73,0,0,0,.67,6,18.8,18.8,0,0,0,3.87,6.38,19.92,19.92,0,0,0,5.79,5,20.55,20.55,0,0,0,7.1,2.52,29.19,29.19,0,0,0,9,.58c2.92-.27,7.55-.67,11.86-4a15.78,15.78,0,0,0,5-6.2c.36-.81.9-2.33,1.17-6.38.31-4.76.54-8.08-.59-12.3a26.54,26.54,0,0,0-5.34-10.2c-3.6,9.66-12.27,15.23-20.08,14.06-6.11-.94-9.79-5.75-10.87-7.23a6.13,6.13,0,0,0,6.2-1.93c1.66-2,2.15-5.53,0-7.42a5.29,5.29,0,0,0-6.65.14,59.32,59.32,0,0,1-8.45-7.41,55.91,55.91,0,0,1-6.33-7.91Z"/><path class="cls-3" d="M386.12,139.18a1.15,1.15,0,0,1,.14-1.48c-.14,0-.23.09-.36.13H386c-.13,0-.22-.09-.36-.13.45.36.09,1.75-.09,2.15a1.77,1.77,0,0,1,.32-.22.14.14,0,0,0-.09,0c.13,0,.27.05.4.05-.27-.14-.22-.85-.18-1a2.79,2.79,0,0,1,.32-1.08c-.23,0-.45.13-.68.18a.88.88,0,0,1,.23.81,1,1,0,0,1-.09.36c-.05.22-.14.22.09.26a2.08,2.08,0,0,0,.31.23s0,0,0-.09c-.41-.49-1.26,0-.86.49a.8.8,0,0,0,.9.32,1.11,1.11,0,0,0,.63-.9,2,2,0,0,0-.58-2.38.46.46,0,0,0-.68.18,3.46,3.46,0,0,0-.13,3.19.76.76,0,0,0,1.08.27c.4-.32.45-1.13.49-1.57.09-.68,0-2.61-1.21-2-.95.5-.86,2-.41,2.79.18.54,1.08,0,.72-.54Z"/><path class="cls-3" d="M384.06,134.6c2.38-.41,4.4.9,6.24,2.29.54.4,1-.5.49-.85-2.06-1.58-4.31-2.79-7-2.39-.63,0-.36,1,.27.95Z"/><circle class="cls-2" cx="30.25" cy="276.52" r="5.1"/><circle class="cls-2" cx="330.39" cy="152.84" r="5.48"/><circle class="cls-1" cx="56.29" cy="291.6" r="3.29"/><circle class="cls-1" cx="384.37" cy="66.48" r="3.66"/><path class="cls-1" d="M275.81,26.88c.36,3.1,4.28,3.57,6.67,2.62,1.68-.67,3.06-1.93,4.63-2.8a6.75,6.75,0,0,1,2.52-.9,6.37,6.37,0,0,1,2.38.26c3.07.9,6,3.46,9.36,2.63,1.73-.43,3-1.71,4.35-2.85a10.56,10.56,0,0,1,2.18-1.56,7.56,7.56,0,0,1,2.77-.75c4.81-.4,8.86,2.67,12.87,4.82.58.31,1.1-.57.52-.88-3.61-1.94-7.06-4.43-11.23-4.92a9.56,9.56,0,0,0-5.57.91c-1.55.83-2.7,2.18-4.1,3.21a5.2,5.2,0,0,1-4.48,1,27.06,27.06,0,0,1-4.49-1.86,9.13,9.13,0,0,0-4.69-1A11.17,11.17,0,0,0,284.7,27a15.05,15.05,0,0,1-2.5,1.5,5.43,5.43,0,0,1-2.29.4c-1.28,0-2.91-.57-3.07-2-.08-.65-1.1-.66-1,0Z"/><path class="cls-2" d="M319.83,38.31a1.54,1.54,0,0,1,.9-1.55,2.67,2.67,0,0,1,2.16-.17c1.72.53,3,1.91,4.75,2.46a4,4,0,0,0,2.5.06A4.44,4.44,0,0,0,332,37.79a15.73,15.73,0,0,1,1.49-1.67,3.31,3.31,0,0,1,2.21-.78c3.73,0,6.56,3.72,10.4,2.92,2.88-.6,4.55-4.18,7.71-3.76a12.35,12.35,0,0,1,4.25,1.88,9.28,9.28,0,0,0,4.57,1.49.51.51,0,0,0,0-1c-3,0-5.23-2.54-8-3.24a5.28,5.28,0,0,0-4.21.76c-1.29.83-2.36,2.07-3.79,2.67-1.87.79-3.84-.1-5.52-.94A12.9,12.9,0,0,0,336,34.32a4.71,4.71,0,0,0-2.39.5,6.07,6.07,0,0,0-1.76,1.59A5.67,5.67,0,0,1,330.16,38a3.1,3.1,0,0,1-2.58-.06c-1.88-.73-3.36-2.4-5.47-2.53-1.58-.09-3.52,1.15-3.3,2.9.08.65,1.1.66,1,0Z"/><path class="cls-2" d="M154.41,81.61c-1.71-.2-2.2-2.37-1.68-3.77A4.08,4.08,0,0,1,157,75.35a3.68,3.68,0,0,1,3.08,3.79,3.27,3.27,0,0,1-4.05,2.79.49.49,0,0,0-.26.94A4.33,4.33,0,0,0,161,79.69a4.65,4.65,0,0,0-3.86-5.32,5.05,5.05,0,0,0-5.51,3.7c-.46,2,.58,4.28,2.75,4.54.62,0,.62-.94,0-1Z"/><path class="cls-2" d="M163.5,89.39c-.52-1.85,1.82-4,3.53-2.75a2.54,2.54,0,0,1-.13,4c-.51.32,0,1.17.49.84a3.54,3.54,0,0,0-.1-5.87c-2.49-1.4-5.45,1.43-4.73,4a.48.48,0,1,0,.94-.23Z"/></svg>