<?xml version="1.0" encoding="utf-8"?>
<!-- Generator: Adobe Illustrator 24.1.2, SVG Export Plug-In . SVG Version: 6.00 Build 0)  -->
<svg version="1.1" id="Слой_1" xmlns="http://www.w3.org/2000/svg" xmlns:xlink="http://www.w3.org/1999/xlink" x="0px" y="0px"
	 viewBox="0 0 330 330" style="enable-background:new 0 0 330 330;" xml:space="preserve">
<style type="text/css">
	.st0{opacity:0.1;fill:url(#SVGID_1_);enable-background:new    ;}
	.st1{fill:url(#SVGID_2_);}
	.st2{fill:#91B3FA;}
	.st3{fill:#BDD0FB;}
	.st4{opacity:0.49;}
	.st5{fill:#FFFFFF;}
	.st6{opacity:0.64;}
	.st7{opacity:0.54;fill:#FFFFFF;enable-background:new    ;}
	.st8{fill:url(#SVGID_3_);}
	.st9{fill:url(#SVGID_4_);}
	.st10{opacity:0.37;fill:#FFFFFF;enable-background:new    ;}
	.st11{opacity:0.74;fill:#FFFFFF;enable-background:new    ;}
	.st12{fill:url(#SVGID_5_);}
	.st13{fill:url(#SVGID_6_);}
	.st14{fill:url(#SVGID_7_);}
	.st15{fill:url(#SVGID_8_);}
	.st16{fill:url(#SVGID_9_);}
	.st17{fill:url(#SVGID_10_);}
	.st18{fill:url(#SVGID_11_);}
	.st19{fill:url(#SVGID_12_);}
	.st20{fill:url(#SVGID_13_);}
	.st21{fill:url(#SVGID_14_);}
	.st22{fill:url(#SVGID_15_);}
	.st23{fill:url(#SVGID_16_);}
	.st24{fill:url(#SVGID_17_);}
	.st25{fill:url(#SVGID_18_);}
	.st26{fill:url(#SVGID_19_);}
	.st27{fill:url(#SVGID_20_);}
	.st28{fill:url(#SVGID_21_);}
	.st29{fill:url(#SVGID_22_);}
	.st30{fill:url(#SVGID_23_);}
	.st31{fill:url(#SVGID_24_);}
	.st32{fill:url(#SVGID_25_);}
	.st33{fill:url(#SVGID_26_);}
	.st34{fill:url(#SVGID_27_);}
	.st35{fill:url(#SVGID_28_);}
	.st36{fill:url(#SVGID_29_);}
	.st37{fill:url(#SVGID_30_);}
	.st38{fill:url(#SVGID_31_);}
	.st39{fill:url(#SVGID_32_);}
	.st40{fill:url(#SVGID_33_);}
	.st41{fill:url(#SVGID_34_);}
	.st42{fill:url(#SVGID_35_);}
	.st43{fill:url(#SVGID_36_);}
	.st44{fill:url(#SVGID_37_);}
	.st45{fill:url(#SVGID_38_);}
	.st46{fill:url(#SVGID_39_);}
	.st47{fill:url(#SVGID_40_);}
	.st48{fill:url(#SVGID_41_);}
	.st49{fill:url(#SVGID_42_);}
	.st50{fill:url(#SVGID_43_);}
</style>
<g>
	
		<linearGradient id="SVGID_1_" gradientUnits="userSpaceOnUse" x1="353.2728" y1="0.3967" x2="109.6731" y2="213.5463" gradientTransform="matrix(1 0 0 -1 0 332.5)">
		<stop  offset="0" style="stop-color:#20C3D0"/>
		<stop  offset="0.3016" style="stop-color:#1EC0D0"/>
		<stop  offset="0.5347" style="stop-color:#19B6CF"/>
		<stop  offset="0.7449" style="stop-color:#11A6CD"/>
		<stop  offset="0.9405" style="stop-color:#058FCA"/>
		<stop  offset="1" style="stop-color:#0086C9"/>
	</linearGradient>
	<path class="st0" d="M311.8,221.4c-31.5,74.2-115.3,115.8-188,104.5c-11.8-1.8-44.2-7.2-73-32.9c-55.2-49.3-67.1-147-22.5-215.9
		C60.8,27.1,118.9-1.4,174.2,0.1c11.9,0.3,57.5,2.2,97.6,35.3c5.9,4.9,18.9,16.5,30.6,34.8C329.9,113.1,332.3,173.2,311.8,221.4z"/>
	<g>
		<g>
			
				<linearGradient id="SVGID_2_" gradientUnits="userSpaceOnUse" x1="-9502.0635" y1="252.1145" x2="-9749.6797" y2="63.5779" gradientTransform="matrix(-1 0 0 -1 -9453.7441 332.5)">
				<stop  offset="0" style="stop-color:#09005D"/>
				<stop  offset="1" style="stop-color:#1A0F91"/>
			</linearGradient>
			<path class="st1" d="M315.1,80.1L35.1,75.4c-11.3-0.2-20.3,9.5-19.6,21L25.2,262c0.5,9.1,7.8,16.2,16.7,16.3l269,2.7
				c6.6,0.1,12.2-5.3,12.4-12.1L329.8,96C330,87.4,323.4,80.2,315.1,80.1z"/>
			<path class="st2" d="M310.8,84.3L38.2,79.8c-11-0.2-19.8,9-19.1,20l9.4,157.6c0.5,8.6,7.6,15.4,16.3,15.4l262,2.5
				c6.5,0.1,11.8-5,12.1-11.5l6.3-164.5C325.3,91.2,318.9,84.4,310.8,84.3z"/>
		</g>
		<path class="st3" d="M304.6,88.7L42.5,84.4c-10.6-0.2-19.1,8.6-18.4,19l9,150.1c0.5,8.2,7.3,14.6,15.6,14.7l252,2.4
			c6.2,0.1,11.3-4.8,11.6-10.9l6-156.7C318.7,95.3,312.5,88.9,304.6,88.7z"/>
		<g>
			<g class="st4">
				<path class="st5" d="M269.2,180h29.6c4,0,7.2,3.4,7.1,7.4l-3.4,68.6c-0.2,3.8-3.3,6.7-7.1,6.7h-26.2c-3.9,0-7.1-3.2-7.1-7.1V187
					C262.2,183.2,265.3,180,269.2,180z"/>
				<path class="st5" d="M198.2,117.8l103.6,1.6c4,0.1,7.1,3.4,7,7.4L307,162c-0.2,3.8-3.3,6.7-7.1,6.7H198.1
					c-3.9,0-7.1-3.2-7.1-7.1v-36.9C191,120.9,194.2,117.7,198.2,117.8z"/>
				<path class="st5" d="M194.1,181.6h48.3c3.9,0,7.1,3.2,7.1,7.1v68.6c0,3.9-3.2,7.1-7.1,7.1h-48.3c-3.9,0-7.1-3.2-7.1-7.1v-68.6
					C187,184.8,190.2,181.6,194.1,181.6z"/>
			</g>
			<g>
				<g class="st6">
					<path class="st5" d="M141.6,162.2h28.9c1.8,0,3.3,1.5,3.3,3.3c0,1.8-1.5,3.3-3.3,3.3h-28.9c-1.8,0-3.3-1.5-3.3-3.3
						C138.3,163.7,139.8,162.2,141.6,162.2z"/>
					<path class="st5" d="M97.5,162.2h28.9c1.8,0,3.3,1.5,3.3,3.3c0,1.8-1.5,3.3-3.3,3.3H97.5c-1.8,0-3.3-1.5-3.3-3.3
						C94.3,163.7,95.8,162.2,97.5,162.2z"/>
					<path class="st5" d="M82.4,168.7H53.5c-1.8,0-3.3-1.5-3.3-3.3c0-1.8,1.5-3.3,3.3-3.3h28.9c1.8,0,3.3,1.5,3.3,3.3
						C85.7,167.3,84.2,168.7,82.4,168.7z"/>
					<path class="st5" d="M141.6,172.4h28.9c1.8,0,3.3,1.5,3.3,3.3V195c0,1.8-1.5,3.3-3.3,3.3h-28.9c-1.8,0-3.3-1.5-3.3-3.3v-19.3
						C138.3,173.8,139.8,172.4,141.6,172.4z"/>
					<path class="st5" d="M97.5,172.4h28.9c1.8,0,3.3,1.5,3.3,3.3V195c0,1.8-1.5,3.3-3.3,3.3H97.5c-1.8,0-3.3-1.5-3.3-3.3v-19.3
						C94.3,173.8,95.8,172.4,97.5,172.4z"/>
					<path class="st5" d="M53.5,172.4h28.9c1.8,0,3.3,1.5,3.3,3.3V195c0,1.8-1.5,3.3-3.3,3.3H53.5c-1.8,0-3.3-1.5-3.3-3.3v-19.3
						C50.3,173.8,51.7,172.4,53.5,172.4z"/>
				</g>
			</g>
			<g>
				<rect x="166.1" y="235.7" class="st5" width="6" height="27"/>
				<rect x="156.1" y="244.9" class="st5" width="6" height="17.8"/>
				<rect x="146.1" y="222" class="st5" width="6" height="40.7"/>
				<rect x="136.1" y="252.9" class="st5" width="6" height="9.8"/>
				<rect x="126.1" y="227.5" class="st5" width="6" height="35.3"/>
				<rect x="116.1" y="233.5" class="st5" width="6" height="29.2"/>
				<rect x="106.1" y="240.1" class="st5" width="6" height="22.6"/>
				<rect x="96.1" y="213.8" class="st5" width="6" height="48.9"/>
				<rect x="86.1" y="218.9" class="st5" width="6" height="43.8"/>
				<rect x="76.1" y="226.8" class="st5" width="6" height="35.9"/>
				<rect x="66.2" y="253.8" class="st5" width="6" height="8.9"/>
				<rect x="56.2" y="236.6" class="st5" width="6" height="26.1"/>
			</g>
			<path class="st7" d="M156.4,213.7h26.3c1.2,0,2.1,0.9,2.1,2.1c0,1.2-0.9,2.1-2.1,2.1h-26.3c-1.2,0-2.1-0.9-2.1-2.1
				C154.3,214.6,155.2,213.7,156.4,213.7z"/>
			<path class="st7" d="M156.4,207.2h26.3c1.2,0,2.1,0.9,2.1,2.1s-0.9,2.1-2.1,2.1h-26.3c-1.2,0-2.1-0.9-2.1-2.1
				S155.2,207.2,156.4,207.2z"/>
			<path class="st7" d="M108.9,213.7h26.3c1.2,0,2.1,0.9,2.1,2.1c0,1.2-0.9,2.1-2.1,2.1h-26.3c-1.2,0-2.1-0.9-2.1-2.1
				C106.8,214.6,107.8,213.7,108.9,213.7z"/>
			<path class="st7" d="M108.9,207.2h26.3c1.2,0,2.1,0.9,2.1,2.1s-0.9,2.1-2.1,2.1h-26.3c-1.2,0-2.1-0.9-2.1-2.1
				S107.8,207.2,108.9,207.2z"/>
		</g>
	</g>
	<g>
		<g>
			
				<linearGradient id="SVGID_3_" gradientUnits="userSpaceOnUse" x1="-139.1354" y1="13.3798" x2="104.7756" y2="217.5656" gradientTransform="matrix(1 0 0 -1 0 332.5)">
				<stop  offset="0" style="stop-color:#4F52FF"/>
				<stop  offset="1" style="stop-color:#4042E2"/>
			</linearGradient>
			<path class="st8" d="M243.7,129.9H51.4c-4.3,0-7.7-3.4-7.7-7.7V33.6c0-4.2,3.4-7.6,7.6-7.7l192.6-3c8.5-0.2,15.4,6.7,15.4,15.2
				v76.2C259.3,123,252.3,129.9,243.7,129.9z"/>
			
				<linearGradient id="SVGID_4_" gradientUnits="userSpaceOnUse" x1="183.517" y1="336.9624" x2="271.106" y2="561.5959" gradientTransform="matrix(1 0 0 -1 0 332.5)">
				<stop  offset="0" style="stop-color:#4F52FF"/>
				<stop  offset="1" style="stop-color:#4042E2"/>
			</linearGradient>
			<path class="st9" d="M238.7,126H58c-4,0-7.2-3.1-7.2-7V39.3c0-3.8,3.2-6.9,7.1-7l181-2.8c8-0.1,14.4,6,14.4,13.7v68.7
				C253.4,119.6,246.8,126,238.7,126z"/>
			<path class="st2" d="M259.3,49.7V38.1c0-8.5-7-15.3-15.4-15.2L51.3,26c-4.2,0.1-7.6,3.5-7.6,7.7v16L259.3,49.7L259.3,49.7z"/>
			<ellipse class="st10" cx="55.9" cy="40.4" rx="2.9" ry="2.9"/>
		</g>
		<g>
			<g>
				<path class="st11" d="M89.8,79.8c1.7-3.1,4.9-5.3,8.6-5.6l0.3-15.6C88,58.7,78.9,64.9,74.9,74L89.8,79.8z"/>
				<path class="st5" d="M101.5,74.3c5,0.8,8.9,5,9.4,10.2l15.4,0.9c-0.2-13.8-10.9-25.3-24.5-26.7L101.5,74.3z"/>
				<path class="st11" d="M110.7,87.4c-0.9,5.2-5.5,9.1-10.9,9c-1.6,0-3.2-0.4-4.5-1l-8.3,13.3c3.9,2.1,8.2,3.3,12.9,3.3
					c13.9,0.1,25.1-10.3,26.4-23.7L110.7,87.4z"/>
				<path class="st11" d="M84.3,107l8.3-13.3c-2.5-2.1-4.1-5.2-4.1-8.7c0-0.8,0.1-1.7,0.3-2.4l-15-5.8c-0.8,2.5-1.2,5.2-1.2,8
					C72.6,93.9,77.2,102.1,84.3,107z"/>
			</g>
			<g>
				<path class="st5" d="M147.1,81c1.6-3,4.6-5.1,8.1-5.5l0.3-15.2c-10,0.1-18.6,6.1-22.5,15L147.1,81z"/>
				<path class="st11" d="M158.1,75.6c4.7,0.8,8.4,4.9,8.9,9.8l14.5,0.9c-0.2-13.3-10.2-24.5-23.2-25.9L158.1,75.6z"/>
				<path class="st11" d="M166.9,88.3c-0.8,5-5.1,8.8-10.3,8.7c-1.5,0-3-0.3-4.3-1l-7.9,12.9c3.6,2,7.8,3.2,12.2,3.2
					c13.1,0.1,23.7-10.1,24.9-23L166.9,88.3z"/>
				<path class="st11" d="M141.9,107.4l7.9-12.9c-2.4-2-3.9-5-3.9-8.5c0-0.8,0.1-1.6,0.3-2.4L132,78c-0.8,2.4-1.2,5-1.2,7.7
					C130.9,94.7,135.2,102.6,141.9,107.4z"/>
			</g>
			<g>
				<path class="st11" d="M201.2,82.1c1.5-2.9,4.4-5,7.6-5.4l0.3-14.8c-9.5,0.1-17.6,6-21.2,14.6L201.2,82.1z"/>
				<path class="st11" d="M211.5,76.9c4.4,0.8,8,4.8,8.4,9.6l13.8,0.8c-0.2-12.9-9.7-23.8-21.9-25.1L211.5,76.9z"/>
				<path class="st5" d="M219.9,89.2c-0.8,4.9-4.9,8.6-9.7,8.5c-1.4,0-2.9-0.3-4-0.9l-7.4,12.5c3.4,2,7.3,3.1,11.5,3.1
					c12.3,0.1,22.3-9.7,23.5-22.3L219.9,89.2z"/>
				<path class="st11" d="M196.3,107.8l7.5-12.5c-2.3-1.9-3.7-5-3.7-8.2c0-0.8,0.1-1.6,0.3-2.3l-13.3-5.5c-0.7,2.4-1.1,4.9-1.1,7.5
					C185.9,95.4,190,103.1,196.3,107.8z"/>
			</g>
		</g>
	</g>
	<g>
		
			<linearGradient id="SVGID_5_" gradientUnits="userSpaceOnUse" x1="6136.6802" y1="22.3975" x2="6058.1611" y2="-63.0091" gradientTransform="matrix(1 0 0 -1 -6061.9053 332.5)">
			<stop  offset="0" style="stop-color:#09005D"/>
			<stop  offset="1" style="stop-color:#1A0F91"/>
		</linearGradient>
		<path class="st12" d="M49.9,316.5c0,0-0.8,4.6-1.2,9.2c-0.2,1.8,1.2,3.4,3,3.4c6,0.3,19.1,0.8,23.7,0.5c0.7,0,1.2-0.8,0.9-1.4
			c-0.3-0.5-0.7-1-1.2-1.3l-21.4-9.8L49.9,316.5z"/>
		
			<linearGradient id="SVGID_6_" gradientUnits="userSpaceOnUse" x1="6111.1914" y1="15.9958" x2="6118.1597" y2="15.9958" gradientTransform="matrix(1 0 0 -1 -6061.9053 332.5)">
			<stop  offset="0" style="stop-color:#FEBBBA"/>
			<stop  offset="1" style="stop-color:#FF928E"/>
		</linearGradient>
		<path class="st13" d="M49.3,313.8l0.7,5.5c0,0,3.8,1.8,6.3-0.3l-1.6-6.1L49.3,313.8z"/>
		
			<linearGradient id="SVGID_7_" gradientUnits="userSpaceOnUse" x1="6142.8301" y1="119.0079" x2="6076.0176" y2="28.4527" gradientTransform="matrix(1 0 0 -1 -6061.9053 332.5)">
			<stop  offset="0" style="stop-color:#09005D"/>
			<stop  offset="1" style="stop-color:#1A0F91"/>
		</linearGradient>
		<path class="st14" d="M49.8,210.3c-0.3,1.4-1.5,71.8,6,103.3c0.1,0.5-0.2,1-0.6,1.3c-1.2,0.5-3.4,1.2-6.1,1.3
			c-0.8,0-1.6-0.5-1.8-1.3c-2.2-7.3-12.4-43.9-13.8-78.9c-1.5-39.1,0-1.3,0-1.3l0.8-24.2H49.8z"/>
		
			<linearGradient id="SVGID_8_" gradientUnits="userSpaceOnUse" x1="6119.0635" y1="38.5932" x2="6040.5444" y2="-46.8134" gradientTransform="matrix(1 0 0 -1 -6061.9053 332.5)">
			<stop  offset="0" style="stop-color:#09005D"/>
			<stop  offset="1" style="stop-color:#1A0F91"/>
		</linearGradient>
		<path class="st15" d="M25.3,318.8c0,0-1.3,2.4-2.5,8.5c-0.3,1.1,0.6,2.2,1.7,2.3c2,0.2,5.1,0.4,7.6,0.4c1.2,0,2-1,1.9-2.1
			c-0.3-2.3-1.1-6-3.8-8.8L25.3,318.8z"/>
		
			<linearGradient id="SVGID_9_" gradientUnits="userSpaceOnUse" x1="6086.0557" y1="16.4295" x2="6092.0771" y2="16.4295" gradientTransform="matrix(1 0 0 -1 -6061.9053 332.5)">
			<stop  offset="0" style="stop-color:#FEBBBA"/>
			<stop  offset="1" style="stop-color:#FF928E"/>
		</linearGradient>
		<path class="st16" d="M24.2,311.8l1.5,8.3c0,0,1.5,1.1,4.5,0.3l-0.8-9L24.2,311.8z"/>
		
			<linearGradient id="SVGID_10_" gradientUnits="userSpaceOnUse" x1="6130.9458" y1="127.7759" x2="6064.1338" y2="37.2207" gradientTransform="matrix(1 0 0 -1 -6061.9053 332.5)">
			<stop  offset="0" style="stop-color:#09005D"/>
			<stop  offset="1" style="stop-color:#1A0F91"/>
		</linearGradient>
		<path class="st17" d="M20,212.4c-6.1,37.1,1.3,91.7,3.9,102.3c0.2,0.7,0.7,1.2,1.3,1.3c1.1,0.2,2.9,0.3,4.8-0.2
			c0.7-0.2,1.1-0.8,1.1-1.4c0.3-8.6-0.3-61.7,5.5-82.6c0.3-1.1,0.9-2,1.8-2.6l11.1-7.9l0.8-12.8L20,212.4z"/>
		<g>
			
				<linearGradient id="SVGID_11_" gradientUnits="userSpaceOnUse" x1="5421.9419" y1="-950.5628" x2="5469.0137" y2="-873.6987" gradientTransform="matrix(1 0 0 -1 -6061.9053 332.5)">
				<stop  offset="0" style="stop-color:#09005D"/>
				<stop  offset="1" style="stop-color:#1A0F91"/>
			</linearGradient>
			<path class="st18" d="M59.2,142.1c-18.4-0.3-38.7,4.9-38.7,4.9c-5.5,32.1-0.9,69-0.9,69c14.3,3.8,30.4-2.3,30.4-2.3
				c2.4-13.4,13.4-51,13.4-51c9-1.1,16.5-3.7,22.5-7.1c-4.6-5.4-6.9-12.3-7.8-16.4C71.5,141.1,64.9,142.2,59.2,142.1z"/>
			
				<linearGradient id="SVGID_12_" gradientUnits="userSpaceOnUse" x1="-6042.7495" y1="239.5236" x2="-6030.4438" y2="204.3651" gradientTransform="matrix(-1 0 0 -1 -5934.623 332.5)">
				<stop  offset="0" style="stop-color:#09005D"/>
				<stop  offset="1" style="stop-color:#1A0F91"/>
			</linearGradient>
			<path class="st19" d="M113.6,115c-1.8-2.2-4.1-1.2-4.1-1.2c-2.7,11.4-17,20.7-31.6,25.3c0.9,4,3.2,10.9,7.8,16.4
				C110,141.8,113.6,115,113.6,115z"/>
		</g>
		<g>
			
				<linearGradient id="SVGID_13_" gradientUnits="userSpaceOnUse" x1="-6053.248" y1="235.8491" x2="-6040.9429" y2="200.6906" gradientTransform="matrix(-1 0 0 -1 -5934.623 332.5)">
				<stop  offset="0" style="stop-color:#FEBBBA"/>
				<stop  offset="1" style="stop-color:#FF928E"/>
			</linearGradient>
			<path class="st20" d="M113.1,115.5c0.2,0.6-2,1.5-3.3-0.9c-0.1-1.2-0.8-6.2-0.1-7.2c3.8-5.1,11-11.5,11-11.5
				c1.3,1.2,0.3,2.4,0.3,2.4l-3.5,3.7c0.8,1.3,1.7,2.4,2.1,4.1c0.3,1.3,0.1,2.5-0.5,3.6c-0.6,1.1-1.4,2.6-2.3,3.7
				C115.3,115.5,113.1,115.5,113.1,115.5z"/>
			
				<linearGradient id="SVGID_14_" gradientUnits="userSpaceOnUse" x1="-6043.8433" y1="213.3646" x2="-6053.1123" y2="232.0627" gradientTransform="matrix(-1 0 0 -1 -5934.623 332.5)">
				<stop  offset="0" style="stop-color:#FEBBBA"/>
				<stop  offset="1" style="stop-color:#FF928E"/>
			</linearGradient>
			<path class="st21" d="M116,104.3l-3.2,2.8l-1,2.7l2.9,3.2c0,0,0.9-5.4,1.7-6.5C117,105.2,116.7,104.7,116,104.3z"/>
		</g>
		
			<linearGradient id="SVGID_15_" gradientUnits="userSpaceOnUse" x1="5400.6484" y1="-937.5244" x2="5447.7202" y2="-860.6602" gradientTransform="matrix(1 0 0 -1 -6061.9053 332.5)">
			<stop  offset="0" style="stop-color:#09005D"/>
			<stop  offset="1" style="stop-color:#1A0F91"/>
		</linearGradient>
		<path class="st22" d="M27.5,164.8L20.5,147c0,0-17.2,11.7-20.1,26.5c3.3,0.2,9.2,1,14.9,3.9C16.7,170.5,27.5,164.8,27.5,164.8z"/>
		
			<linearGradient id="SVGID_16_" gradientUnits="userSpaceOnUse" x1="6061.9053" y1="147.5704" x2="6106.9609" y2="147.5704" gradientTransform="matrix(1 0 0 -1 -6061.9053 332.5)">
			<stop  offset="0" style="stop-color:#FEBBBA"/>
			<stop  offset="1" style="stop-color:#FF928E"/>
		</linearGradient>
		<path class="st23" d="M42.5,181.6c0,0-19.3,10.9-25.9,1.6c-1.3-1.9-1.7-3.9-1.3-5.7c-5.8-2.9-11.7-3.8-14.9-4
			c-0.8,4.4-0.4,9.2,2.2,14c11.4,20.9,42.5-1.2,42.5-1.2L42.5,181.6z"/>
		<g>
			
				<linearGradient id="SVGID_17_" gradientUnits="userSpaceOnUse" x1="6120.6821" y1="179.6052" x2="6145.4761" y2="76.2957" gradientTransform="matrix(1 0 0 -1 -6061.9053 332.5)">
				<stop  offset="0" style="stop-color:#09005D"/>
				<stop  offset="1" style="stop-color:#1A0F91"/>
			</linearGradient>
			<path class="st24" d="M40.3,195.3l10.5-36.8c0.1-0.4,0.5-0.8,0.9-0.8c1.9-0.3,7.5-0.8,13.9-1.4c7.7-0.7,16.6-1.2,22-0.8
				c0.8,0.1,1.3,0.8,0.8,1.5c-3,6.1-15.5,31.1-21.8,39.4c-0.2,0.3-0.5,0.4-0.8,0.4l-24.4-0.3C40.5,196.8,40,196.1,40.3,195.3z"/>
			
				<linearGradient id="SVGID_18_" gradientUnits="userSpaceOnUse" x1="6103.6665" y1="152.2822" x2="6117.7144" y2="152.2822" gradientTransform="matrix(1 0 0 -1 -6061.9053 332.5)">
				<stop  offset="0" style="stop-color:#FEBBBA"/>
				<stop  offset="1" style="stop-color:#FF928E"/>
			</linearGradient>
			<path class="st25" d="M42.8,186.4c0,0-1.4-6-0.8-8.1c0.6-2.2,1.8-4.9,5.5-4.3c3.9,0.6,8.3,2.2,8.3,2.2s-0.3,2.8-3.1,1.9l1.8,1.4
				c0,0-0.3,2.3-2.7,1l1.7,1.8c0,0-1.1,1.8-2.9,0.7C48.7,181.9,47.9,187.2,42.8,186.4z"/>
		</g>
		
			<linearGradient id="SVGID_19_" gradientUnits="userSpaceOnUse" x1="6096.5469" y1="195.6995" x2="6114.377" y2="195.6995" gradientTransform="matrix(1 0 0 -1 -6061.9053 332.5)">
			<stop  offset="0" style="stop-color:#FEBBBA"/>
			<stop  offset="1" style="stop-color:#FF928E"/>
		</linearGradient>
		<path class="st26" d="M40.5,127.2l-5.9,17c-0.1,0.3,0,0.6,0.3,0.8c1.6,0.9,7.4,3.4,14.3-0.9c0.8-0.4,1.2-1.2,1.3-2l1.9-14.7
			L40.5,127.2L40.5,127.2z"/>
		<g>
			
				<linearGradient id="SVGID_20_" gradientUnits="userSpaceOnUse" x1="1834.2271" y1="-5012.3057" x2="1811.5913" y2="-5042.251" gradientTransform="matrix(0.817 -0.5767 -0.5767 -0.817 -4340.0659 -2926.3911)">
				<stop  offset="0" style="stop-color:#FEBBBA"/>
				<stop  offset="1" style="stop-color:#FF928E"/>
			</linearGradient>
			<path class="st27" d="M52.6,108.2c0.2,0.3,5.5,19.2,5.5,19.2l-10.9,2.8l-7.6-17.3C39.4,113,49.8,104.1,52.6,108.2z"/>
			
				<linearGradient id="SVGID_21_" gradientUnits="userSpaceOnUse" x1="1816.9099" y1="-5019.4941" x2="1843.9487" y2="-5019.4941" gradientTransform="matrix(0.817 -0.5767 -0.5767 -0.817 -4340.0659 -2926.3911)">
				<stop  offset="0" style="stop-color:#09005D"/>
				<stop  offset="1" style="stop-color:#1A0F91"/>
			</linearGradient>
			<path class="st28" d="M43.5,115.6l3.4,9.4c0.1,0.1,0.1,0.3,0.2,0.3c0.4,0.7,2.2,2.8,4.2,0.8c1.8-1.7,3.5-3.3,5.1-3.5
				c0.7-0.1,1.4,0.3,1.6,1c0.5,1.8,1.5,5.6,1.8,9.2c0.1,0.8-0.4,1.3-1.1,1.5c-2.1,0.4-6.6,1.2-10.4,0.8c-0.5,0-0.9-0.3-1.2-0.8
				c-1-2.3-4.2-9.2-5.4-11c-1.1-1.7-3.9-1.6-5-1.5c-0.3,0-0.8-0.1-1-0.3c-1-0.8-2.9-3.1-0.3-5.8c0.6-0.6,0.6-1.4,0-2
				c-1.2-1.1-2.4-3-0.5-5.4c1.9-2.4,4.5-2,6.1-1.4c0.7,0.3,1.3,0,1.7-0.6c0.2-0.3,0.5-0.6,1.2-0.5c0.8,0.1,1.5-0.6,1.4-1.4
				c0-1.5,0.5-3.5,3.2-4.4c4.8-1.5,7.7,3.1,8.1,6.5s-5,4.8-8.1,4.5c-2.4-0.2-4.1,2.2-4.8,3.3C43.5,114.7,43.5,115.2,43.5,115.6z"/>
			
				<linearGradient id="SVGID_22_" gradientUnits="userSpaceOnUse" x1="50.8126" y1="218.0668" x2="3.5401" y2="176.3556" gradientTransform="matrix(1 0 0 -1 0 332.5)">
				<stop  offset="0" style="stop-color:#FEBBBA"/>
				<stop  offset="1" style="stop-color:#FF928E"/>
			</linearGradient>
			<path class="st29" d="M42.9,126.8c0,0-0.8-6-3.3-6.3c-2.5-0.3-4.9,1.8-2.4,5.1C40.3,129.8,42.9,126.8,42.9,126.8z"/>
		</g>
	</g>
	<g>
		<g>
			
				<linearGradient id="SVGID_23_" gradientUnits="userSpaceOnUse" x1="-7667.0991" y1="74.5192" x2="-7702.5356" y2="-5.6801" gradientTransform="matrix(-1 0 0 -1 -7370.6255 332.5)">
				<stop  offset="0" style="stop-color:#4F52FF"/>
				<stop  offset="1" style="stop-color:#4042E2"/>
			</linearGradient>
			<path class="st30" d="M308.8,264.5c1,1.5,5.1,35.9,5.7,48.6c0.1,0.8-0.7,1.6-1.5,1.6c-0.8,0-1.3-0.5-1.5-1.3l-7.5-47.9
				L308.8,264.5z"/>
			
				<linearGradient id="SVGID_24_" gradientUnits="userSpaceOnUse" x1="-7637.9199" y1="61.6262" x2="-7673.3569" y2="-18.5733" gradientTransform="matrix(-1 0 0 -1 -7370.6255 332.5)">
				<stop  offset="0" style="stop-color:#4F52FF"/>
				<stop  offset="1" style="stop-color:#4042E2"/>
			</linearGradient>
			<path class="st31" d="M276,264.5c-1,1.5-5.1,35.9-5.7,48.6c-0.1,0.8,0.7,1.6,1.5,1.6c0.8,0,1.3-0.5,1.5-1.3l7.5-47.9L276,264.5z"
				/>
			
				<linearGradient id="SVGID_25_" gradientUnits="userSpaceOnUse" x1="300.765" y1="102.2305" x2="285.858" y2="44.3912" gradientTransform="matrix(1 0 0 -1 0 332.5)">
				<stop  offset="0" style="stop-color:#4F52FF"/>
				<stop  offset="1" style="stop-color:#4042E2"/>
			</linearGradient>
			<path class="st32" d="M315.1,261.8v0.3c0,2.7-2.3,5-5.2,5l-34.5,0.6c-2.9,0.1-5.3-2-5.4-4.7v-0.3c-0.2-2.8,2.2-5.1,5.2-5.1
				l34.5-0.6C312.5,256.9,315,259.1,315.1,261.8z"/>
		</g>
		<g>
			<g>
				
					<linearGradient id="SVGID_26_" gradientUnits="userSpaceOnUse" x1="-7628.5942" y1="20.7605" x2="-7603.5649" y2="20.7605" gradientTransform="matrix(-1 0 0 -1 -7370.6255 332.5)">
					<stop  offset="0" style="stop-color:#09005D"/>
					<stop  offset="1" style="stop-color:#1A0F91"/>
				</linearGradient>
				<path class="st33" d="M247.9,311.9c6.1,0,8.8-0.5,10.1-1c-0.3,1-1.1,1.8-2.3,1.8H234c-0.8,0-1.2-0.7-1-1.3
					C235.5,311.5,240.7,311.9,247.9,311.9z"/>
				
					<linearGradient id="SVGID_27_" gradientUnits="userSpaceOnUse" x1="-7609.2632" y1="68.8366" x2="-7616.1021" y2="21.5875" gradientTransform="matrix(-1 0 0 -1 -7370.6255 332.5)">
					<stop  offset="0" style="stop-color:#09005D"/>
					<stop  offset="1" style="stop-color:#1A0F91"/>
				</linearGradient>
				<path class="st34" d="M232.9,311.4c0-0.2,0.1-0.3,0.2-0.3c1.7-2.1,5-5.5,9.5-5.4c6.6,0.1,8.9,0.8,14.1,0l1.2,4
					c0.1,0.4,0.1,0.8,0,1.2c-1.2,0.5-3.9,1-10.1,1C240.7,311.9,235.5,311.5,232.9,311.4z"/>
			</g>
			
				<linearGradient id="SVGID_28_" gradientUnits="userSpaceOnUse" x1="-7627.335" y1="28.2188" x2="-7620.563" y2="28.2188" gradientTransform="matrix(-1 0 0 -1 -7370.6255 332.5)">
				<stop  offset="0" style="stop-color:#FEBBBA"/>
				<stop  offset="1" style="stop-color:#FF928E"/>
			</linearGradient>
			<path class="st35" d="M255.2,301.4l1.5,5c0,0-3.3,1.5-6.2,0.3l-0.6-4.4L255.2,301.4z"/>
			<g>
				
					<linearGradient id="SVGID_29_" gradientUnits="userSpaceOnUse" x1="207.1166" y1="23.1049" x2="224.3969" y2="53.2958" gradientTransform="matrix(1 0 0 -1 0 332.5)">
					<stop  offset="0" style="stop-color:#09005D"/>
					<stop  offset="1" style="stop-color:#1A0F91"/>
				</linearGradient>
				<path class="st36" d="M210.2,308.7c4.8,3.9,7.2,5.1,8.5,5.5c-0.8,0.7-2,0.7-2.9,0l-17-13.6c-0.6-0.4-0.5-1.3,0-1.7
					C200.7,300.6,204.6,304.2,210.2,308.7z"/>
				
					<linearGradient id="SVGID_30_" gradientUnits="userSpaceOnUse" x1="-7575.4219" y1="63.9387" x2="-7582.2603" y2="16.6894" gradientTransform="matrix(-1 0 0 -1 -7370.6255 332.5)">
					<stop  offset="0" style="stop-color:#09005D"/>
					<stop  offset="1" style="stop-color:#1A0F91"/>
				</linearGradient>
				<path class="st37" d="M198.9,298.9c0.1-0.1,0.3-0.2,0.3-0.2c2.6-0.6,7.2-1.1,10.7,1.8c5.1,4.2,6.5,6.2,10.9,8.8l-1.6,3.9
					c-0.2,0.4-0.4,0.8-0.8,0.9c-1.3-0.4-3.7-1.7-8.5-5.5C204.6,304.2,200.7,300.6,198.9,298.9z"/>
			</g>
			
				<linearGradient id="SVGID_31_" gradientUnits="userSpaceOnUse" x1="-7664.7754" y1="58.8301" x2="-7611.1187" y2="58.8301" gradientTransform="matrix(-1 0 0 -1 -7370.6255 332.5)">
				<stop  offset="0" style="stop-color:#09005D"/>
				<stop  offset="1" style="stop-color:#1A0F91"/>
			</linearGradient>
			<path class="st38" d="M287.1,243.6c0,0-36.8,3-44.2,6.5c-7.6,3.5,6.1,53.2,6.1,53.2s2,1,6.6-0.4c0,0-4.7-36.7-1.2-44.7l39.8-6.5
				L287.1,243.6z"/>
			
				<linearGradient id="SVGID_32_" gradientUnits="userSpaceOnUse" x1="-7595.2524" y1="27.7289" x2="-7587.167" y2="27.7289" gradientTransform="matrix(-1 0 0 -1 -7370.6255 332.5)">
				<stop  offset="0" style="stop-color:#FEBBBA"/>
				<stop  offset="1" style="stop-color:#FF928E"/>
			</linearGradient>
			<path class="st39" d="M224.6,302.4c-0.3,0.3-3.6,7-3.6,7s-3.7-0.8-4.4-3.1l3.3-6L224.6,302.4z"/>
			
				<linearGradient id="SVGID_33_" gradientUnits="userSpaceOnUse" x1="-7616.0972" y1="81.1648" x2="-7674.9512" y2="14.4357" gradientTransform="matrix(-1 0 0 -1 -7370.6255 332.5)">
				<stop  offset="0" style="stop-color:#09005D"/>
				<stop  offset="1" style="stop-color:#1A0F91"/>
			</linearGradient>
			<path class="st40" d="M309.2,243.3c0,0,1.2,2.9,1.2,6.7c-0.1,5.3-4.3,9.6-9.6,9.8l-43.4,2c-0.9,0-1.7,0.7-1.9,1.6
				c-1,3.9-6,16-30.4,40.3c-0.7,0.7-1.7,0.8-2.4,0.3l-3.4-2.2c-0.3-0.3-0.5-0.7-0.3-1.1l25.3-43.2c1.3-2.2,3.4-3.8,6-4.4l37-9.5
				L309.2,243.3z"/>
			
				<linearGradient id="SVGID_34_" gradientUnits="userSpaceOnUse" x1="-7640.1533" y1="141.613" x2="-7636.1675" y2="151.6647" gradientTransform="matrix(-1 0 0 -1 -7370.6255 332.5)">
				<stop  offset="0" style="stop-color:#FEBBBA"/>
				<stop  offset="1" style="stop-color:#FF928E"/>
			</linearGradient>
			<path class="st41" d="M266.4,175.9c0,0,4.6,8.2,9.4,12.2l-9.8,5.5c0,0-2.2-8.7-7.2-11.3L266.4,175.9z"/>
			<path class="st5" d="M310,243.6c0,0-11.8,2.9-22.9,0c0,0-15.7-21.1-21.7-26.8c0,0-9.7,15.3-31.1,17.4l-1.2-2.7
				c0,0,17.1-7.9,22.4-20c5.3-12.1,7.4-17.3,12.2-20.5c3-1.9,4.8-3.4,5.7-4c0.5-0.4,1.2-0.4,1.8-0.1
				C280.1,190,304.1,206.4,310,243.6z"/>
			
				<linearGradient id="SVGID_35_" gradientUnits="userSpaceOnUse" x1="-7606.0942" y1="102.5314" x2="-7587.4189" y2="102.5314" gradientTransform="matrix(-1 0 0 -1 -7370.6255 332.5)">
				<stop  offset="0" style="stop-color:#FEBBBA"/>
				<stop  offset="1" style="stop-color:#FF928E"/>
			</linearGradient>
			<path class="st42" d="M235.5,230.2l-2.4-0.7l-7.4-1.7c-0.9-0.2-1.8-0.1-2.6,0.4l-6.3,3.9h17.5L235.5,230.2z"/>
			<g>
				
					<linearGradient id="SVGID_36_" gradientUnits="userSpaceOnUse" x1="-5698.9023" y1="512.499" x2="-5718.9155" y2="497.1857" gradientTransform="matrix(-0.9914 -0.1306 0.1306 -0.9914 -5459.4209 -65.7806)">
					<stop  offset="0" style="stop-color:#FEBBBA"/>
					<stop  offset="1" style="stop-color:#FF928E"/>
				</linearGradient>
				<path class="st43" d="M259.1,163.5c0,0-4.5,7.6-5.3,11.7s-2,6.7,2.7,8.2s9.2-0.4,11.8-4.3c0,0,4.3-6,3.9-8.7
					C271.7,167.7,259.1,163.5,259.1,163.5z"/>
				
					<linearGradient id="SVGID_37_" gradientUnits="userSpaceOnUse" x1="-5712.9551" y1="524.5272" x2="-5694.832" y2="501.1942" gradientTransform="matrix(-0.9914 -0.1306 0.1306 -0.9914 -5459.4209 -65.7806)">
					<stop  offset="0" style="stop-color:#09005D"/>
					<stop  offset="1" style="stop-color:#1A0F91"/>
				</linearGradient>
				<path class="st44" d="M267,175.9l-0.6-0.1c0,0,3.2-4.9,1.1-6c-2.1-1.2-10.7-4.1-12.1-7.5c-1.4-3.3,0.7-6.9,3.3-7.6
					c0.2-0.1,0.3,0.1,0.4,0.2l0.2,0.4c0.1,0.3,0.5,0.3,0.6,0c0.1-0.3,0.5-0.3,0.6,0c0.4,1,1.8,2.7,6,4c5.8,1.8,9.5,4.8,9,9
					c0,0.3,0.3,0.4,0.5,0.3c0.5-0.3,1.2-0.3,2,0.7c1.4,1.6,0.3,5.1-3.7,7.6c-0.2,0.1-0.3,0.4-0.1,0.5c0.6,0.5,1.4,1.7-1.3,2.7
					c-2.8,1-4.3,0.7-4.8,0.5c-0.2-0.1-0.3-0.3-0.2-0.3l0.7-3.6c0-0.2-0.1-0.3-0.3-0.4L267,175.9z"/>
				
					<linearGradient id="SVGID_38_" gradientUnits="userSpaceOnUse" x1="-5701.3774" y1="515.7333" x2="-5721.3906" y2="500.4202" gradientTransform="matrix(-0.9914 -0.1306 0.1306 -0.9914 -5459.4209 -65.7806)">
					<stop  offset="0" style="stop-color:#FEBBBA"/>
					<stop  offset="1" style="stop-color:#FF928E"/>
				</linearGradient>
				<path class="st45" d="M266.8,176.7c0,0,2-5,4.1-3.2c2.1,1.8-1.9,5.5-3.8,5.5L266.8,176.7z"/>
			</g>
		</g>
		<g>
			<g>
				
					<linearGradient id="SVGID_39_" gradientUnits="userSpaceOnUse" x1="857.0669" y1="3240.8054" x2="807.1208" y2="3192.5173" gradientTransform="matrix(1.388 -6.860000e-02 -6.850000e-02 -1.3855 3269.9431 506.6293)">
					<stop  offset="0" style="stop-color:#4F52FF"/>
					<stop  offset="1" style="stop-color:#4042E2"/>
				</linearGradient>
				<path class="st46" d="M242.2,235.6L242.2,235.6h-37.4c-0.9,0-1.7-0.8-1.7-1.7s0.8-1.7,1.7-1.7h37.3c0.9,0,1.7,0.8,1.7,1.7
					S243.1,235.6,242.2,235.6z"/>
			</g>
		</g>
		<g>
			
				<linearGradient id="SVGID_40_" gradientUnits="userSpaceOnUse" x1="-7602.9609" y1="13.0242" x2="-7599.231" y2="-74.9466" gradientTransform="matrix(-1 0 0 -1 -7370.6255 332.5)">
				<stop  offset="0" style="stop-color:#4F52FF"/>
				<stop  offset="1" style="stop-color:#4042E2"/>
			</linearGradient>
			<path class="st47" d="M225.6,237.5c0.2,0.7,15.7,59,19.6,73.8c0.4,1.7-0.8,3.4-2.5,3.4c-1.2,0-2.3-0.8-2.6-2l-17.3-70
				L225.6,237.5z"/>
			
				<linearGradient id="SVGID_41_" gradientUnits="userSpaceOnUse" x1="-7577.4844" y1="14.1046" x2="-7573.7544" y2="-73.8657" gradientTransform="matrix(-1 0 0 -1 -7370.6255 332.5)">
				<stop  offset="0" style="stop-color:#4F52FF"/>
				<stop  offset="1" style="stop-color:#4042E2"/>
			</linearGradient>
			<path class="st48" d="M217.1,237.5c-0.2,0.7-15.7,59-19.6,73.8c-0.4,1.7,0.8,3.4,2.5,3.4c1.2,0,2.3-0.8,2.6-2l17.3-70
				L217.1,237.5z"/>
			
				<linearGradient id="SVGID_42_" gradientUnits="userSpaceOnUse" x1="-7588.543" y1="13.6355" x2="-7584.8125" y2="-74.3351" gradientTransform="matrix(-1 0 0 -1 -7370.6255 332.5)">
				<stop  offset="0" style="stop-color:#4F52FF"/>
				<stop  offset="1" style="stop-color:#4042E2"/>
			</linearGradient>
			<path class="st49" d="M216.5,235.6h9.7v7.8c0,1.1-0.9,2-2,2h-1.3v17.5c0,0.8-0.7,1.5-1.5,1.5c-0.8,0-1.5-0.7-1.5-1.5v-17.5h-0.7
				c-1.4,0-2.7-1.2-2.7-2.7L216.5,235.6L216.5,235.6z"/>
			
				<linearGradient id="SVGID_43_" gradientUnits="userSpaceOnUse" x1="-7592.8984" y1="99.1108" x2="-7599.7734" y2="48.2763" gradientTransform="matrix(-1 0 0 -1 -7370.6255 332.5)">
				<stop  offset="0" style="stop-color:#09005D"/>
				<stop  offset="1" style="stop-color:#1A0F91"/>
			</linearGradient>
			<path class="st50" d="M250,233.7h-54.1c-0.8,0-1.4,0.5-1.6,1.3l-0.8,2.9c-0.3,1.1,0.5,2.1,1.6,2.1l55.5-0.3c1.1,0,1.8-1,1.6-2.1
				l-0.7-2.6C251.4,234.3,250.7,233.7,250,233.7z"/>
		</g>
	</g>
	<path class="st5" d="M236.8,198.2v25.7c0,4-3.3,7.3-7.3,7.3h-35.2c-4.1,0-7.5-3.4-7.5-7.5V185c0-3.3,4-4.8,6.2-2.4l6.8,7.6
		c2.6,2.9,7.1,3.4,10.2,0.9l0.7-0.5c2.4-1.8,5.8-1.8,8.1,0.2l3.7,3.2c2.9,2.4,6.9,3,10.3,1.5l0,0
		C234.7,194.7,236.8,196.1,236.8,198.2z"/>
</g>
</svg>
