<?xml version="1.0" encoding="utf-8"?>
<!-- Generator: Adobe Illustrator 24.1.2, SVG Export Plug-In . SVG Version: 6.00 Build 0)  -->
<svg version="1.1" id="Слой_1" xmlns="http://www.w3.org/2000/svg" xmlns:xlink="http://www.w3.org/1999/xlink" x="0px" y="0px"
	 viewBox="0 0 450 403.1" style="enable-background:new 0 0 450 403.1;" xml:space="preserve">
<style type="text/css">
	.st0{opacity:7.000000e-02;fill:#353535;enable-background:new    ;}
	.st1{fill:#FFFFFF;}
	.st2{fill:#161616;}
	.st3{opacity:6.000000e-02;fill:#353535;enable-background:new    ;}
	.st4{opacity:0.1;fill:#353535;enable-background:new    ;}
	.st5{opacity:0.39;fill:#EC615B;enable-background:new    ;}
	.st6{opacity:0.39;}
	.st7{fill:#EC615B;}
	.st8{opacity:9.000000e-02;fill:#353535;enable-background:new    ;}
	.st9{opacity:8.000000e-02;fill:#353535;enable-background:new    ;}
	.st10{opacity:5.000000e-02;fill:#353535;enable-background:new    ;}
	.st11{fill:#1A1B22;}
	.st12{opacity:0.13;fill:#353535;enable-background:new    ;}
	.st13{fill:#5222D0;}
</style>
<g id="machine">
	<path class="st0" d="M157,357.9l-57.4,44.9l-77.2-33.6l81.8-44.8c3.7-0.5,7.5-0.5,11.2,0C140.4,327.7,154.3,352.8,157,357.9z"/>
	<path class="st1" d="M99.4,153.9C99,211.6,98.6,269.3,98.3,327l56.3,35.5l59.8-42c-0.1-48.5-0.2-97.1-0.4-145.7
		c-16.6-14.4-33.2-28.8-49.7-43.2C142.6,139,121,146.4,99.4,153.9z"/>
	<path class="st2" d="M154.2,202.8v159.8c0,0.3,0.3,0.6,0.6,0.6s0.6-0.3,0.6-0.6V202.8c0-0.3-0.3-0.6-0.6-0.6
		C154.4,202.2,154.2,202.5,154.2,202.8z"/>
	<path class="st2" d="M213.4,175.1c0.1,37.9,0.1,75.9,0.2,113.9c0,10.6,0,21.2,0,31.9c0,0.3,0.3,0.5,0.7,0.5c0.3,0,0.5-0.2,0.5-0.5
		c-0.1-37.9-0.1-75.9-0.2-113.9c0-10.6,0-21.2,0-31.9C214.6,174.4,213.4,174.4,213.4,175.1L213.4,175.1z"/>
	<path class="st2" d="M99.1,154.1l49.5-16.6l12.2-4.1c0.9-0.3,1.9-0.9,2.9-0.6c0.7,0.2,1.7,1.4,2.3,2c1.7,1.5,3.5,2.9,5.2,4.4
		c6.6,5.6,13.1,11.1,19.6,16.7c7.5,6.4,15,12.8,22.5,19.2l0.1-0.9c-19.3,9.7-38.8,19-58.4,27.9c0.2,0,0.5,0.1,0.7,0.1l-19-16.5
		c-10.1-8.8-20.3-17.6-30.4-26.5c-2.3-2-4.6-4-6.9-6.1c-0.2-0.2-0.6-0.2-0.8,0c-0.1,0.1-0.2,0.3-0.2,0.4V326c0,0.8-0.2,1.4,0.4,1.9
		s1.2,0.9,1.8,1.2c1.3,0.8,2.6,1.6,3.8,2.5c16.2,10.3,32.5,20.7,48.7,31c0.4,0.3,0.8,0.5,1.2,0.8c0.2,0.1,0.4,0.1,0.6,0
		c19.8-14.1,39.6-28.1,59.3-42.2c0.6-0.4,0-1.4-0.6-1l-31.2,22.2l-15.8,11.2c-2.6,1.8-5.1,3.7-7.7,5.5c-1.1,0.8-2.8,1.6-3.7,2.6
		c-0.3,0.3-0.2,0.6-0.5,0.6c-0.5,0-1.7-1.1-2.1-1.4c-1.5-1-3-1.9-4.6-2.9l-13.8-8.8c-9.8-6.3-19.6-12.5-29.4-18.7l-4.1-2.6
		c-0.3-0.3-0.7-0.5-1.1-0.7c-0.3-0.1-0.5-0.5-0.3,0s0.1-0.3,0.2-0.5c0-0.7,0-1.4,0-2.1V159.5c0.1-1.7,0.1-3.5,0-5.2
		c0-0.2,0-0.5,0-0.7l-1,0.4c6.3,5.5,12.7,11,19,16.5c10.1,8.8,20.3,17.6,30.4,26.5c2.3,2,4.6,4,6.9,6.1c0.2,0.2,0.5,0.2,0.7,0.1
		c19.6-8.9,39.1-18.2,58.5-27.9c0.3-0.2,0.4-0.5,0.2-0.8c0,0,0-0.1-0.1-0.1l-40.7-34.7c-1.6-1.4-3.3-2.8-4.9-4.2l-2.3-2
		c-0.6-0.5-1.7-1.8-2.4-2.1c-0.5-0.2-1,0.1-1.5,0.3c-1.1,0.3-2.1,0.7-3.3,1.1l-6.4,2.2c-8.4,2.8-16.7,5.6-25.1,8.4L98.7,153
		C98.1,153.2,98.4,154.3,99.1,154.1L99.1,154.1z"/>
	<path class="st2" d="M107,331.4v-22.5c0-0.3-0.3-0.6-0.6-0.6c-0.3,0-0.6,0.3-0.6,0.6v22.5c0,0.3,0.3,0.6,0.6,0.6
		S107,331.7,107,331.4z"/>
	<path class="st2" d="M106.2,308.4c8.9,5,17.7,10.2,26.4,15.7c0.6,0.4,1.2-0.6,0.6-1c-8.7-5.5-17.5-10.7-26.4-15.7
		C106.1,307,105.5,308,106.2,308.4z"/>
	<path class="st2" d="M132.4,323.8c-0.5,7.8-1,15.7-1.5,23.5c0,0.7,1.1,0.7,1.1,0c0.5-7.8,1-15.7,1.5-23.5
		C133.5,323,132.4,323,132.4,323.8L132.4,323.8z"/>
	<path class="st2" d="M110.7,316.7c-0.6,5.2-1,10.5-1.1,15.8c0,0.3,0.3,0.6,0.6,0.6c0.3,0,0.6-0.3,0.6-0.6
		c0.1-5.3,0.5-10.6,1.1-15.8C111.9,315.9,110.8,316,110.7,316.7z"/>
	<path class="st2" d="M116.7,319.4c-0.7,5.4-1.2,10.9-1.4,16.4c0,0.7,1.1,0.7,1.1,0c0.3-5.5,0.8-11,1.4-16.4
		C118,318.7,116.9,318.7,116.7,319.4z"/>
	<path class="st2" d="M123,323.4c-0.8,5.5-1.4,11.1-1.8,16.7c0,0.7,1.1,0.7,1.1,0c0.3-5.5,0.9-11,1.8-16.4
		C124.2,323,123.1,322.7,123,323.4z"/>
	<path class="st2" d="M127.6,326.1c-0.3,4.9-0.7,9.8-1,14.7c0,0.7,1.1,0.7,1.2,0c0.3-4.9,0.7-9.8,1-14.7
		C128.8,325.4,127.7,325.4,127.6,326.1z"/>
	<path class="st2" d="M106.9,304.5c9.7,5.1,19.3,10.4,28.7,16.1c0.3,0.2,0.6,0.1,0.8-0.2c0.2-0.3,0.1-0.6-0.2-0.8l0,0
		c-9.4-5.7-19-11.1-28.7-16.1C106.9,303.2,106.3,304.2,106.9,304.5z"/>
	<path class="st2" d="M107.6,303.6v-5.9c0-0.3-0.3-0.6-0.6-0.6c-0.3,0-0.6,0.3-0.6,0.6v5.9c0,0.3,0.3,0.6,0.6,0.6
		C107.4,304.2,107.6,304,107.6,303.6L107.6,303.6z"/>
	<path class="st2" d="M107,297.6c10.2,4.9,20,10.4,29.4,16.6c0.6,0.4,1.2-0.6,0.6-1c-9.4-6.2-19.3-11.8-29.4-16.6
		C106.9,296.3,106.3,297.2,107,297.6z"/>
	<path class="st2" d="M135.8,314.5c-0.2,1.7-0.4,3.5-0.6,5.2c-0.1,0.7,1.1,0.7,1.1,0c0.2-1.7,0.4-3.5,0.6-5.2
		C137,313.8,135.9,313.8,135.8,314.5z"/>
	<path class="st2" d="M158.6,207.3c14.8-6.5,29.4-13.8,43.5-21.7c0.6-0.4,0.1-1.3-0.6-1c-14.1,7.9-28.6,15.2-43.5,21.7
		C157.3,206.6,157.9,207.6,158.6,207.3z"/>
	<path class="st2" d="M157.7,206.7v9.5c0,0.3,0.3,0.6,0.6,0.6s0.6-0.3,0.6-0.6v-9.5c0-0.3-0.3-0.6-0.6-0.6
		C157.9,206.2,157.7,206.4,157.7,206.7z"/>
	<path class="st2" d="M158.7,216.2c10.3-4.6,20.4-9.6,30.3-15.2c0.6-0.3,0.1-1.3-0.6-1c-9.9,5.5-20,10.6-30.3,15.2
		C157.5,215.5,158.1,216.5,158.7,216.2L158.7,216.2z"/>
	<path class="st2" d="M158.3,258.6v83c0,0.3,0.3,0.6,0.6,0.6s0.6-0.3,0.6-0.6v-83c0-0.3-0.3-0.6-0.6-0.6
		C158.5,258,158.3,258.3,158.3,258.6z"/>
	<path class="st2" d="M161.5,303.6v45.1c0,0.3,0.3,0.6,0.6,0.6s0.6-0.3,0.6-0.6v-45.1c0-0.3-0.3-0.6-0.6-0.6
		C161.7,303.1,161.5,303.3,161.5,303.6z"/>
	<path class="st2" d="M100.7,162.5v58.4c0,0.3,0.3,0.5,0.7,0.5c0.3,0,0.5-0.2,0.5-0.5v-58.4c0-0.3-0.3-0.5-0.7-0.5
		C101,162.1,100.8,162.3,100.7,162.5z"/>
	<path class="st2" d="M104,204.8v67.5c0,0.3,0.3,0.6,0.6,0.6c0.3,0,0.6-0.3,0.6-0.6v-67.5c0-0.3-0.3-0.6-0.6-0.6
		C104.3,204.2,104,204.4,104,204.8z"/>
	<path class="st3" d="M98.5,153.9v173.5l56.3,35.5V202.1C136,186,117.3,169.9,98.5,153.9z"/>
	<path class="st4" d="M100.1,174.3c5.7,27.5,11.3,50.4,15.7,67.4c6.9,26.5,10.4,36.8,15,47.3c6.4,14.5,14.3,28.2,23.7,41
		c0.2-26.5,0.5-53.1,0.6-79.6c1.9,37.1,18.6,60.4,32,60.1c10.8-0.3,21.3-15.9,27.1-34.9V321c-19.7,13.7-39.4,27.5-59.1,41.2
		c-18.7-11.7-37.3-23.4-55.9-35.2C99.5,276.2,99.8,225.2,100.1,174.3z"/>
</g>
<g id="holograme">
	<path class="st5" d="M222.1,156.3c-17.6,10-35.2,19.9-52.8,29.9l-31.4-42.5c20.1-7.9,40.3-15.8,60.4-23.7
		C206.3,132.1,214.2,144.2,222.1,156.3z"/>
	<g class="st6">
		<path class="st7" d="M144.5,146.9c1.9,1.3,3.9,2.6,5.9,3.9c0.3,0.2,0.6,0.1,0.8-0.2c0,0,0-0.1,0.1-0.1c0.8-3.8,2.2-7.6,4.1-11
			c0.3-0.6-0.6-1.2-1-0.6c-1.9,3.6-3.3,7.4-4.2,11.3l0.8-0.3c-1.9-1.3-3.9-2.6-5.9-3.9C144.4,145.5,143.9,146.5,144.5,146.9
			L144.5,146.9z"/>
	</g>
	<path class="st7" d="M160.2,138.8c0.6-1,1.5-1.8,2.6-2.2c0.4-0.1,0-0.6-0.3-0.5c-1.2,0.5-2.1,1.4-2.8,2.4
		C159.5,138.9,160,139.1,160.2,138.8z"/>
	<path class="st7" d="M160.2,141.2c0.8-2.4,2.9-4.1,5.4-4.4c0.4,0,0.4-0.6,0-0.6c-2.8,0.2-5.1,2.1-5.9,4.8
		C159.6,141.4,160.1,141.6,160.2,141.2L160.2,141.2z"/>
	<path class="st7" d="M160.9,143.2c0.8-3.4,3.2-5.8,6.8-4.6c0.4,0.1,0.5-0.4,0.2-0.5c-3.9-1.3-6.6,1.3-7.5,5
		C160.2,143.4,160.7,143.5,160.9,143.2z"/>
	<path class="st7" d="M162,145c0.1-1.9,0.4-4.1,2.2-5.1c1.7-0.9,3.8-0.4,5,1.1c0.3,0.3,0.6-0.1,0.4-0.4c-1.3-1.5-3.4-2.1-5.3-1.4
		c-2.3,1-2.8,3.6-2.9,5.8c0,0.1,0.1,0.3,0.2,0.3C161.8,145.3,161.9,145.2,162,145L162,145L162,145z"/>
	<path class="st7" d="M163.7,147.2c0.4-2.2-1.4-4.2,0.5-6c1.4-1.3,3.2-0.6,4.4,0.6c1,1.2,1.5,2.6,1.6,4.1c0,0.3,0.6,0.4,0.6,0
		c-0.3-2.5-1.9-6.5-5.2-6.1c-1.2,0.2-2.2,1.1-2.7,2.3c-0.7,1.7,0.5,3.2,0.2,5C163.1,147.5,163.7,147.6,163.7,147.2L163.7,147.2z"/>
	<path class="st7" d="M165,148.1c1.2-1.9-1.3-3.8-0.3-5.6c1-2,3.1-0.6,3.7,0.7c0.7,1.5,0.8,3.2,0.3,4.8c-0.1,0.4,0.5,0.5,0.5,0.2
		c0.6-2.2,0.3-7.1-2.9-7.3c-1.1,0-2,0.6-2.4,1.6c-0.6,1.8,1.6,3.5,0.5,5.2c-0.1,0.1-0.1,0.3,0,0.4
		C164.7,148.3,164.8,148.3,165,148.1C165,148.2,165,148.1,165,148.1L165,148.1z"/>
	<path class="st7" d="M166.3,148.5c0.6-1.3,0.5-2.9-0.3-4.1c-0.1-0.2-0.3-0.5-0.4-0.8c0.8-0.6,1.3-0.4,1.5,0.4
		c0.2,0.4,0.3,0.8,0.3,1.2c0.2,1.2,0,2.3-0.4,3.4c-0.2,0.3,0.4,0.5,0.5,0.1c0.5-1.3,0.7-2.7,0.3-4.1c-0.2-0.9-0.7-2.3-1.8-2.4
		c-0.6,0-1.1,0.4-1.1,1c0,0.1,0,0.2,0,0.2c0.1,0.6,0.4,1.2,0.7,1.7c0.5,1,0.5,2.2,0,3.2C165.7,148.7,166.2,148.8,166.3,148.5
		L166.3,148.5z"/>
	<path class="st7" d="M192.1,169.1c0.1-0.7,0.1-1.4-0.5-1.9s-1.8,0-2.5,0c-1.2-0.2-2.4-0.5-3.6-0.9c-2.4-0.7-4.6-1.9-6.4-3.7
		c-0.9-1-1.6-2.2-1.8-3.5c-0.1-2.9,1.5-0.6,2.6-0.4c0.6,0.2,1.1,0.1,1.1-0.6c0-0.5-0.4-0.7-0.6-1c-0.8-0.8-1.6-1.6-2.3-2.6
		c-1.5-1.9-2.6-4-3.3-6.3c-0.3-0.9-1.1-4.3,0.6-4.1c0.8,0.1,2.2,1.9,2.7,2.6l0.4-0.4c-1.1-1.4-2.9-3.5-2.8-5.4
		c0.2-3.7,4.4-0.2,5.2,1.2l0.4-0.3c-0.7-0.7-1.1-1.6-1.3-2.5c-0.1-2.3,1.2-1.4,2.1-0.8c1.2,0.9,2.2,2.1,3,3.3
		c0.1,0.1,0.3,0.2,0.4,0.1c0.1-0.1,0.2-0.3,0.1-0.4c-0.3-0.5-0.5-1-0.6-1.6c-0.3-0.7,0-1.1,1-1.2c1.4-0.7,1.3-0.5,2.2,0.5
		c1,1.1,1.9,2.4,2.7,3.7c1.4,2.1,2.9,4,4.5,6c1,1.3,1.8,2.7,2.2,4.3c0.3,1.6,0.5,3.1,0.6,4.7c0.1,1.8,1.2,3.5,2.8,4.3
		c0.4,0.1,0.6-0.3,0.3-0.5c-3.6-1.7-2.3-7.3-3.8-10.5c-0.7-1.4-1.6-2.8-2.7-3.9c-1.3-1.6-2.5-3.3-3.6-5s-3.1-5.4-5.4-5.5
		c-2.6-0.1-1.3,3.6-0.7,4.9c0.1-0.1,0.3-0.2,0.5-0.3c-0.9-1.3-3.4-5.1-5.6-4.4c-1.9,0.6,0.1,4.2,0.9,5.1c0.2,0.3,0.6-0.1,0.5-0.3
		c-0.7-1.2-1.7-2.1-2.9-2.7c-0.8-0.3-2.4-1-3.1-0.2s-0.3,2.4,0,3.3c0.6,1.7,1.6,3.2,2.8,4.5c0.2,0.3,0.6-0.1,0.4-0.4
		c-0.6-0.8-2.6-3.4-3.9-3c-1.1,0.4-0.8,2.7-0.7,3.4c0.4,2.4,1.3,4.6,2.7,6.6c0.6,0.9,1.2,1.8,1.9,2.6c0.3,0.4,1.1,0.9,1.3,1.4
		c0.7,0.5,0.6,0.6-0.5,0.4c-0.3-0.2-0.6-0.3-0.9-0.5c-0.9-0.5-1.6-0.5-1.8,0.7c-0.2,1.6,0.9,3.6,1.9,4.8c1.4,1.6,3.2,2.8,5.3,3.6
		c1.2,0.5,2.4,0.9,3.7,1.2c0.9,0.2,4.3,0.1,4.1,1.5C191.6,169.4,192.2,169.5,192.1,169.1L192.1,169.1z"/>
	<path class="st7" d="M177.7,146c1.6,1.9,2.9,4.2,4.3,6.3c0.2,0.3,0.7,0,0.5-0.3c-1.4-2.1-2.8-4.4-4.4-6.4
		C177.8,145.3,177.4,145.7,177.7,146z"/>
	<path class="st7" d="M180,140.8c1.6,2.1,3,4.3,4.4,6.6c0.1,0.1,0.3,0.2,0.4,0.1c0.1-0.1,0.2-0.3,0.1-0.4c-1.4-2.3-2.8-4.4-4.4-6.6
		C180.3,140.2,179.8,140.5,180,140.8z"/>
	<path class="st7" d="M137.8,143.7c10.3,14.2,20.8,28.3,31.5,42.1c0.2,0.3,0.6-0.1,0.4-0.4c-10.7-13.8-21.2-27.8-31.4-42
		C138.1,143.2,137.6,143.5,137.8,143.7L137.8,143.7z"/>
</g>
<g id="guy">
	<g id="leg_back">
		<path class="st2" d="M283.6,341.4c0.6,7.2,1.2,14.4,1.8,21.6c-14.4,6.4-21.3,10.4-20.8,12.2c0.7,2.1,12.1,0.9,34.4-3.7
			c-0.5-12.2-1-24.4-1.4-36.6C292.9,337.1,288.3,339.2,283.6,341.4z"/>
		<path class="st1" d="M297.6,186.8c2.2,1.4,2.5,4.7,3.3,11.1c0.4,3.1,0.6,6.9-0.4,18c-0.1,1.2-0.4,5-1.4,13.1
			c-1.4,11.9-1.8,13.3-2.1,18.4c-0.4,5.7-0.5,11.3-0.4,17c0.1,8.5,0.2,20.1,1.6,36.4c1,12,2.7,27,5.7,44.1c-2.5,1.3-5.2,2.4-8,3.1
			c-4.1,1-8.3,1.5-12.5,1.4c-2.9,0-5.7-0.2-8.6-0.6c-1.1-5.8-2.5-14.4-3.7-25c-0.6-5.5-1-11.6-1.8-23.5c-1.1-16.7-1.6-25-1.8-32
			c-0.1-3.1-0.1-5.7,0.4-27.1c0.7-32.1,1-36.1,4.3-41.2C278.9,189.5,292.5,183.4,297.6,186.8z"/>
		<path class="st2" d="M300.4,187.9c0.7,10.4,0.5,20.8-0.6,31.1c-1,10.1-2.8,20-3.4,30.1c-1.3,20.7,0,41.5,2.3,62
			c1.3,11.5,2.9,23,4.5,34.4c0.1,0.7,1.2,0.4,1.1-0.3c-2.9-20.6-5.7-41.3-6.8-62.1c-0.6-10.2-0.6-20.4-0.1-30.6
			c0.5-10.1,2-20.1,3.2-30.2c1.4-11.4,1.7-22.9,1-34.4c0-0.3-0.3-0.6-0.6-0.6S300.4,187.5,300.4,187.9L300.4,187.9L300.4,187.9z"/>
		<path class="st2" d="M267.4,237.6c-0.9,29,0.2,58,3.4,86.8c0.9,8,1.9,16,3.2,23.9c0.1,0.7,1.2,0.4,1.1-0.3
			c-4.3-28.5-6.6-57.3-6.8-86.1c-0.1-8.1,0-16.2,0.3-24.4c0-0.3-0.3-0.6-0.6-0.6C267.6,237,267.4,237.2,267.4,237.6L267.4,237.6z"/>
		<path class="st2" d="M274.3,349.2c9.9,2,20.2,0.7,29.3-3.7c0.6-0.3,0.1-1.3-0.6-1c-8.8,4.3-18.8,5.6-28.4,3.6
			C273.9,347.9,273.6,349,274.3,349.2z"/>
		<path class="st8" d="M271.3,209.3c-1,7.2-2,15.4-2.6,24.5c-0.4,5-0.9,13.5-1,24.1c-0.1,8.9,0.3,16.4,1,31.1
			c0.8,16.6,1.2,25.1,2.3,34.4c1.3,10.7,2.8,19.4,4,25.1c5.9,1.2,12.1,1,17.9-0.7c-3.2-12.1-6.2-24.8-8.9-38
			C277.1,276.7,272.9,243.1,271.3,209.3z"/>
		<path class="st8" d="M268.3,246.7c1.6,13.7,3.1,25.4,4.3,34.7c3.1,24.5,4.1,30.6,6.3,38.4c2.8,10.1,6.7,19.8,11.6,29.1
			c-3.5,0.9-7.1,1-10.6,0.4c-1.8-0.3-3.6-0.9-5.3-1.6c-1.6-9.3-2.9-19-4-29.1C268.1,294.7,267.3,270.7,268.3,246.7z"/>
	</g>
	<g id="leg_front">
		<path class="st2" d="M240.2,345.5c-0.5,7.6-1.1,15.2-1.6,22.8c-17.9,4.4-26.8,7.6-26.5,9.6c0.3,2.3,13.5,2.9,39.7,1.6
			c0.8-11,1.6-22,2.4-33C249.6,346.1,244.9,345.8,240.2,345.5z"/>
		<path class="st1" d="M256,188.3c-1.5,1.6-2.7,3.5-3.7,5.4c-0.8,1.5-1.4,3.1-1.7,4.8c-0.4,2.9-1,6.8-1.7,11.6
			c-1.5,10.3-2.5,18.4-3.1,22.8c-1.9,15.1-3,24.8-5.1,42.9c-3.2,26.7-4.1,32.4-6.4,54.1c-0.9,8-1.6,14.7-2.1,19
			c0.9,1.5,2.1,2.7,3.5,3.8c1.1,0.8,2.4,1.5,3.6,2c2.2,1,4.5,1.9,5.4,2.3c5.9,1.9,16.6-1,17.2-1.1c0-4.1,0.1-9.8,0.4-16.4
			c0.1-2.7,0.5-9.9,2-23.7c1.3-12.4,2.4-22.2,4.7-35.4c1.7-9.6,3.3-17,4.8-23.4c2.3-10.1,4.5-18.6,6.3-25.3L288,216
			c0.8-1.1,7.7-11.4,3.8-20.8C285.8,180.9,261,183,256,188.3z"/>
		<path class="st2" d="M254.7,184.1c-7.1,19.6-8.6,40.8-11.1,61.3c-2.6,22-5.2,44.1-7.8,66.2c-1.4,12.4-2.9,24.7-4.3,37
			c-0.1,0.7,1.1,0.7,1.1,0c2.6-21.9,5.1-43.8,7.7-65.8c2.5-21.5,4.7-43.1,7.7-64.6c1.6-11.5,3.7-22.9,7.7-33.8
			C256.1,183.6,255,183.3,254.7,184.1L254.7,184.1z"/>
		<path class="st2" d="M287.7,215.6c-6,9.5-10.8,19.7-14.1,30.5c-0.2,0.7,0.9,1,1.1,0.3c3.3-10.6,8-20.8,14-30.2
			c0.2-0.3,0.1-0.6-0.2-0.8S287.8,215.4,287.7,215.6L287.7,215.6L287.7,215.6z"/>
		<path class="st2" d="M280.2,229.5c-9.3,31.9-15.1,64.7-17.5,97.8c-0.7,9.5-1.1,19-1.2,28.5c0,0.3,0.3,0.5,0.7,0.5
			c0.3,0,0.5-0.2,0.5-0.5c0.4-33.2,4.3-66.3,11.6-98.8c2.1-9.2,4.4-18.2,7.1-27.2c0.1-0.3-0.1-0.6-0.4-0.7
			C280.6,229,280.3,229.1,280.2,229.5L280.2,229.5L280.2,229.5z"/>
		<path class="st2" d="M231.7,349.2c7.5,8.9,20,11.6,30.5,6.8c0.7-0.3,0.1-1.3-0.6-1c-10.1,4.5-22,1.8-29.1-6.7
			C232,347.8,231.2,348.6,231.7,349.2L231.7,349.2z"/>
		<path class="st3" d="M263.7,191.5c4.5,4.2-2.6,17.9-6.9,28.4c-6.3,15.5-7.6,41.1-10.3,92.3c-0.6,10.8-1.2,26-1.3,44.4
			c-1.6-0.2-3.1-0.7-4.6-1.3c-3.3-1.5-6.2-3.9-8.3-6.9c1.1-7.6,2.6-19.1,4.3-33.1c3.9-32.2,4.7-45.4,7.6-68.5
			c1.6-13.1,4.2-31.8,8.3-54.6L263.7,191.5z"/>
		<path class="st3" d="M245.1,241.8c2,28.6-0.1,46.8-2.6,58.6c-2.2,10.1-1.7,20.6-3,30.8c-0.6,5-1.5,11.3,2,17.2
			c2.1,3.5,5.2,6.2,8.9,7.9c-3.4,0.7-7,0.3-10.3-1c-3.2-1.3-5.9-3.5-7.9-6.3c1.8-15.9,3.7-31.8,5.6-47.6
			C240.2,281.4,242.7,261.6,245.1,241.8z"/>
	</g>
	<g id="hand_back">
		<path class="st1" d="M288.8,100.7c-0.8,0.5-0.5,4.9,0.3,13.7c0.1,0.7,0.1,1.6,0.2,2.7c0.3,2.6,0.6,5.1,1,7.8
			c1.8,12.1,4.4,24,7.7,35.8c2.7,9,5.9,17.9,9.6,26.6c1.1,2,2.7,3.6,4.6,4.6c2.6,1.3,5,0.9,8.5,0.3c4.6-0.8,9-2.7,12.7-5.6
			c2.3-1.8,5.3-4.1,5-6.8c-0.1-1.2-0.8-2.2-1.8-2.8c-1.2-0.3-2.5,0.2-3.2,1.2c1.5-2,2.8-4.2,3.9-6.5c2-4,2-5.3,1.5-6.3
			c-0.3-0.7-0.9-1.3-1.5-1.7c-0.3-0.1-0.8-0.4-2.5,0c-2,0.4-2.3,0.9-3.6,0.9c-0.9-0.1-1.7-0.2-2.5-0.5c-1.2-0.1-2.9,0.4-5.3,3.1
			c-0.5-0.4-1.1-0.6-1.7-0.6c-1.2,0-2.2,1.2-4.6,5.4c-0.8,1.3-1.7,3-2.8,5.1c-0.5-2.4-1.3-6-2.3-10.5c-3.1-15.7-2.7-18.8-5-30.2
			c-3.3-16.3-6.8-23.2-9.9-27.8S290.3,99.8,288.8,100.7z"/>
		<path class="st2" d="M289,101.5c1.7-0.8,3.8,2.3,4.7,3.4c1.1,1.4,2.2,2.9,3.2,4.4c1.8,2.8,3.3,5.8,4.5,8.8
			c2.7,6.9,4.6,14,5.8,21.3c1.3,7.6,2.4,15.1,3.6,22.7c1,6.6,1.7,13.5,5.4,19.3c0.4,0.6,1.4,0,1-0.6c-3.3-5-4-11-4.9-16.8
			c-1-6.5-2-13-3-19.4c-1.9-11.8-4.2-23.9-10.3-34.3c-1.4-2.4-3.1-4.8-4.9-6.9c-1.4-1.6-3.2-3.9-5.5-2.8
			C287.8,100.8,288.3,101.8,289,101.5L289,101.5z"/>
		<path class="st2" d="M288.7,117.6c1.3,11.7,3.5,23.4,6.5,34.8c2.9,11.1,6.3,22.6,11.2,33.1c2.1,4.3,6,9.1,11.4,7.7
			c0.3-0.1,0.4-0.5,0.3-0.8c-0.1-0.2-0.4-0.4-0.6-0.4c-7.6,2-10.9-8.9-12.9-14c-2.4-6.4-4.6-12.9-6.5-19.4
			c-3.9-13.4-6.6-27.1-8.2-41C289.8,116.8,288.7,116.8,288.7,117.6L288.7,117.6z"/>
		<path class="st2" d="M315,177.9c1-2,1.9-4.1,2.9-6.1s2.3-5,5.1-4.8c0.7,0.1,0.7-1.1,0-1.1c-2.2-0.2-3.7,1.2-4.8,2.9
			c-1.6,2.6-2.8,5.7-4.2,8.5C313.7,178,314.6,178.6,315,177.9z"/>
		<path class="st2" d="M320.7,173.1c1.6-2.8,4.8-10.4,9-8c0.6,0.4,1.2-0.6,0.6-1c-5.2-2.9-8.6,5.1-10.6,8.4c-0.1,0.3,0,0.6,0.3,0.8
			C320.2,173.4,320.5,173.3,320.7,173.1L320.7,173.1z"/>
		<path class="st2" d="M324,174.5c1.4-1.9,2.8-3.9,4.2-5.8c1.5-2.1,3.5-4.7,6.4-4.2c0.7,0.1,1-1,0.3-1.1c-2.4-0.4-4.3,0.8-5.9,2.5
			c-2.1,2.6-4.1,5.3-5.9,8.1C322.5,174.5,323.5,175,324,174.5L324,174.5z"/>
		<path class="st2" d="M327.3,175.3c1.6-1.9,3.2-3.9,4.9-5.9c1-1.1,4.8-7.1,6.4-3.6c0.4,0.9-0.3,2.7-0.6,3.6c-0.5,1.1-1,2.2-1.6,3.3
			c-1.2,2.4-2.7,4.6-4.3,6.8c-0.5,0.6,0.4,1.4,0.8,0.8c2.1-2.7,3.9-5.6,5.4-8.7c1-1.9,2.4-5.4,1-7.4s-4,0-5.2,1.3
			c-2.6,2.9-5,6-7.5,9C326,175,326.8,175.8,327.3,175.3L327.3,175.3z"/>
		<path class="st2" d="M334.3,164.4c0.6,0.1,1.1,0.2,1.6,0.4c0.3,0.1,0.6-0.1,0.7-0.3l0,0c0.1-0.3-0.1-0.6-0.4-0.7
			c-0.6-0.2-1.3-0.4-2-0.5c-0.3,0-0.6,0.3-0.6,0.6C333.7,164.1,334,164.4,334.3,164.4z"/>
		<path class="st2" d="M334.8,178c0.9-1.1,2.6-0.4,2.9,0.9c0.1,0.6,0.1,1.2,0,1.7c-0.3,1.3-1,2.4-1.9,3.3c-1.6,1.7-3.4,3.1-5.4,4.3
			c-4,2.2-8.4,3.5-13,3.8c-0.7,0-0.7,1.2,0,1.1c6.9-0.5,13.6-2.9,18.6-7.7c1.8-1.8,3.7-4.3,2.7-7c-0.7-2.1-3.3-3-4.8-1.1
			C333.4,177.8,334.3,178.6,334.8,178L334.8,178z"/>
		<path class="st9" d="M289.3,101.3c0.8,3,2.1,7.7,3.5,13.4c3.6,14.8,6,27.3,10.4,45.7c4.5,18.5,6.1,22.7,10.3,24.3
			c4.6,1.8,13.6,0.9,19.3-3.8c1.8-1.5,3.6-3.6,4.5-3.1s0.7,3.7-0.5,6.1c-2.3,4.6-7.7,6.1-12.9,7.6c-4.2,1.2-6.4,1.8-9,1
			c-3.9-1.2-6.2-4.5-7.3-6.1c-1.4-2-1.6-3.2-3.5-8.4c-1.9-5.3-2.1-5.1-3.5-9c-2.2-6.2-4.1-12.4-5.6-18.8c-2.2-8.7-4.2-16.8-5.2-27.6
			C289.1,115.6,289,108.4,289.3,101.3z"/>
		<path class="st3" d="M306.8,182.4c3.8,3.9,8.8,6.2,14.2,6.4c6,0.1,11.8-2.3,16-6.6c-1.5,2.6-3.7,4.8-6.3,6.4
			c-1.8,1.1-3.8,1.9-5.9,2.4c-5.2,1.5-8.6,2.5-11.8,1C308.2,189.9,307,183.4,306.8,182.4z"/>
	</g>
	<g id="torso">
		<path class="st7" d="M286,97.5c-4.1-0.5-7.9,2.3-10,3.8c-5.8,4.2-8.1,10.2-9.1,12.8c-6.3,15.7-8.1,34.8-8.9,42
			c-1.5,12.9-4,25.6-7.6,38.1c8.1,6.6,18.3,10.1,28.7,9.8c9.2-0.4,18-3.6,25.2-9.3c0.8-15.3,1-28.2,0.9-37.8
			c-0.2-17.6-0.8-25.7-3.5-35C299.6,114.6,295,98.6,286,97.5z"/>
		<path class="st9" d="M282.8,98.7c-3.8,3.7,5.3,18.3,6.8,21.7c6.9,15.6,10,40.9-6.4,83.3c2.5-0.5,5-1.1,7.4-2
			c4.7-1.6,9.1-3.9,13.1-6.8c0.3-2.8,0.6-6.5,0.9-10.9c0.4-7.1,0.5-12.9,0.4-17.7c-0.1-14.9-0.1-22.3-1.3-32.2
			c-1-8.4-3.1-16.7-6.4-24.5c-2.6-6.1-5.3-10.4-9.6-11.4C287.2,97.9,284.3,97.2,282.8,98.7z"/>
		<path class="st10" d="M304.2,142.5c-0.8-0.1-1.8,6.9-3.5,16c-2.8,14.8-6.7,29.3-11.6,43.6c2.2-0.8,4.5-1.8,6.8-2.9
			c2.9-1.3,5.6-2.6,8.1-3.9C305.7,151.6,305.1,142.6,304.2,142.5z"/>
	</g>
	<g id="hand_front">
		<path class="st1" d="M277.3,103.1c-1-0.4-2-0.5-3-0.3c-1.1,1.4-2.9,3.6-5.1,6.2c-9.6,11.9-10.4,14.7-17.1,22.3
			c-6.4,7.3-10.8,10.8-14.1,13c-2.3,1.6-4.7,3-7.3,4.1c-4.8,2.1-9.9,3.4-15.2,3.9c-1.6-0.7-3-1.7-4.3-2.9c-1.6-1.6-3-3.4-4-5.4
			c-3.8-6.4-4.8-8.2-6.2-8.2c-0.5,0-1.3,0.3-2.3,1.8c-0.6-0.4-1.2-0.9-1.8-1.4c-1.8-1.6-2.3-2.6-3.8-3.2c-0.7-0.4-1.5-0.5-2.2-0.2
			c-0.5,0.4-0.9,1-0.9,1.6c-1.1-1.3-2.7-2.1-4.4-2.2c-0.6,0-1.5-0.1-1.9,0.5c-0.6,0.8,0,2.6,1.6,4.5c-0.4-0.1-2.2-0.7-3,0.1
			s0,2.8,0.6,4.1c1.1,2.6,2.6,3.9,5.7,7.3c1.3,1.4,2.3,2.6,2.9,3.3c-1-0.1-1.9-0.3-2.8-0.7c-1.7-0.7-2.3-1.5-3-1.3s-1.3,1.7-1.1,2.8
			c0.3,1.1,1.1,2,2.1,2.4c3.6,2,7.4,3.5,11.3,4.4c2.6,0.7,5.2,1.3,7.8,1.7c3.1,0.4,6.3,0.5,9.4,0.3c7.4-0.3,14.7-1.5,21.8-3.3
			c4.1-1,8.2-2.3,12.1-4c8.2-3.5,15.5-8.9,21.3-15.7c4.4-5.2,6.3-9.5,10-18.1c0.9-1.9,1.4-3.9,1.5-6
			C282.2,110.5,281.1,104.6,277.3,103.1z"/>
		<path class="st2" d="M277,102.3c-2.6-1-4.6,1.5-6.1,3.3c-2.1,2.6-4.2,5.3-6.2,8c-4.4,5.9-8.6,12-13.5,17.6
			c-9.2,10.7-21.2,20.1-35.9,20.4c-0.3,0-0.5,0.3-0.5,0.7c0,0.3,0.2,0.5,0.5,0.5c13.3-0.3,24.7-7.9,33.5-17.3
			c4.5-4.9,8.7-10.2,12.6-15.6c2.1-2.9,4.2-5.7,6.3-8.5c1.3-1.6,2.5-3.3,3.9-4.9c1.2-1.4,2.8-3.8,5-3
			C277.4,103.6,277.7,102.5,277,102.3L277,102.3z"/>
		<path class="st2" d="M281.4,113.6c-5,34.6-44.9,50.4-76.1,46.9c-5.2-0.5-10.2-1.8-15-3.9c-1.2-0.5-2.3-1.2-3.4-1.9
			c-0.5-0.3-0.9-0.6-1.3-1c-0.6-0.3-0.9-1.1-0.6-1.7c0.1-0.2,0.2-0.3,0.3-0.4c0.1-1,0.6-1.3,1.5-0.9c1.9,0.4,3.1,2,5.1,2.1
			c0.3,0,0.5-0.3,0.5-0.7c0-0.3-0.2-0.5-0.5-0.5c-2.1,0-3.4-2-5.4-2.1c-1.4-0.2-2.6,0.7-2.8,2.1v0.1c-0.4,3.5,4.9,5.4,7.4,6.5
			c9.4,3.9,19.8,4.4,29.8,3.6c18.4-1.6,37.1-8.2,49.5-22.3c6.4-7.1,10.7-16,12.2-25.5C282.6,113.2,281.5,112.9,281.4,113.6
			L281.4,113.6z"/>
		<path class="st2" d="M192.2,151.8c-0.9-1.7-2.4-2.7-3.7-4c-1.9-2.1-3.5-4.4-4.8-6.9c-0.4-0.6-0.7-1.3-0.9-2c-0.5-1-0.2-1.3,0.8-1
			c0.5-0.3,1.2-0.1,1.5,0.4c1,0.7,1.9,1.6,2.6,2.5c1.9,1.9,3.6,4,5,6.3c0.4,0.6,1.4,0,1-0.6c-1.1-1.8-10-13.9-12-9.6
			c-1.2,2.5,1.8,6,3,7.9c0.8,1.4,1.8,2.7,2.9,3.8c1.3,1.2,2.7,2.2,3.5,3.8C191.6,153,192.6,152.4,192.2,151.8L192.2,151.8z"/>
		<path class="st2" d="M186.7,137.7c-0.5-0.5-4.2-5-1.8-5.3c0.5-0.1,1.9,1.1,2.4,1.4c0.8,0.6,1.5,1.2,2.2,1.8
			c2.4,2.4,4.6,5.1,6.4,7.9c0.4,0.6,1.4,0,1-0.6c-2.9-4.1-6.3-9.3-11.1-11.4c-1.2-0.5-2.8-0.6-2.9,1c-0.2,2.1,1.7,4.6,3.1,5.9
			C186.5,139,187.3,138.2,186.7,137.7L186.7,137.7z"/>
		<path class="st2" d="M191.3,135.8c-0.3-0.5-0.5-1-0.6-1.6c0.4-0.3,0.8-0.7,1.3-1.1c0.3,0.2,0.6,0.3,0.8,0.4
			c1.1,0.7,2.1,1.6,2.9,2.6c1.8,2,3.3,4.2,4.9,6.3c0.5,0.6,1.4,0,1-0.6c-2.4-3.2-5-7.8-8.8-9.5c-0.8-0.4-2-0.7-2.8,0
			c-1.1,1-0.3,2.8,0.1,3.9C190.5,136.8,191.6,136.5,191.3,135.8L191.3,135.8z"/>
		<path class="st2" d="M199.5,138.3c-0.3-0.9-0.6-1.2,0.6-1.3s1.1,0.1,1.8,0.8c0.8,0.9,1.5,1.9,2.3,2.8c1.2,1.7,2.4,3.4,3.6,5.1
			c1.9,2.6,4.5,6.3,8,6.8c0.7,0.1,1-1,0.3-1.1c-3.2-0.5-5.6-3.9-7.3-6.3c-1.6-2.2-3.1-4.5-4.7-6.6c-0.9-1.2-2.4-3.6-4.2-3.6
			s-1.8,2.3-1.4,3.6C198.6,139.3,199.7,138.9,199.5,138.3L199.5,138.3z"/>
		<path class="st9" d="M281.3,107.3c-0.9-0.3-2.4,3.6-5.3,8.7c-3.9,6.9-8.7,13.2-14.4,18.7c-11.9,11.8-17.8,17.7-28.2,20.8
			c-3.7,1.1-20.8,5.7-36.6-4.2c-5.8-3.7-10.6-8.7-14-14.6c-0.5,0.5-0.8,1.1-0.9,1.7c-0.2,1.1,0.6,1.9,1.4,3.1
			c0.7,0.9,1.2,1.9,1.6,2.9c0.3,0.4,0.5,0.9,0.8,1.3c1.3,1.8,5.9,5.9,5.6,6.4c-0.1,0.1-1-0.3-2.8-1.1s-2.1-1-2.6-0.9
			c-1.1,0.3-2,1.3-2,2.5c0,1,0.9,1.7,1.7,2.3c0.6,0.5,1.3,0.8,2,1.1c3.4,1.1,4.2,1.9,7.1,2.8c15,4.1,30.9,3.7,45.7-1.3
			c8.6-2.7,16.5-7.1,23.4-12.9c4.6-4,11.7-10.1,15.5-20.4C282.2,116.3,282.5,107.6,281.3,107.3z"/>
		<path class="st3" d="M192,157c7.2,1.6,14.6,2.3,22,2.2c16-0.4,31.7-4.7,45.7-12.6c-7.1,5.9-15.4,10.3-24.3,12.9
			C215.2,165.1,198.1,159.4,192,157z"/>
	</g>
	<g id="head">
		<path class="st1" d="M254.4,50.5c0,0.1-1.4,2.3-4,6.9c-3.1,5.2-4.3,7.4-5.6,10.5c-0.7,1.7-1.3,3.4-1.8,5.1l5,2.1
			c0.3,2.9,1.2,5.7,2.4,8.4c1.4,2.9,3.4,7.1,8,9.2c1.8,0.8,3.7,1.2,5.6,1.2c2.6,0,5.1-0.7,7.2-2.1c0.3,1.8,0.8,3.6,1.6,5.3
			c0.6,1.5,1.4,2.9,2.3,4.2c3.6-1.4,7.2-2.7,10.7-4.2c-1.4-2.1-2.5-4.5-3.1-7s-0.8-5-0.6-7.5c0.3-4.6,1.6-7,3-11.4
			c2.2-6.8,3.5-10.8,2.9-15c-0.8-5.5-4.9-11.8-11.3-14.1C267.7,38.8,258.3,45.3,254.4,50.5z"/>
		<path class="st11" d="M248.1,54.9c-2.4-0.9-2.9-5.6-2.4-8.7c0.4-2.7,1.7-5.2,3.5-7.1c3.8-4.2,7.8-4.1,13.6-6.6
			c4.7-2.1,9-5,12.7-8.7c-0.7,2.2-1.4,4.3-2.2,6.5c2.3,0.2,4.7-0.3,6.7-1.4c2.4-1.4,4.3-3.5,5.3-6.1c0.6,1,3.1,5.1,1.8,9.8
			c-0.3,1.2-0.9,2.2-1.6,3.2c2.7-0.7,5.1-2,7.1-3.9c2.6-2.6,2.9-4.9,4-4.8c2.1,0.2,2.8,8.6,3.2,13.2c0.3,3,0.7,5.2-0.1,7.7
			c-0.7,2.4-2.1,4.2-2,4.3s4.1-6.2,5.2-5.7c0.6,0.3-0.5,2.7-0.9,7.4c-0.5,5.6,0.6,6.7-0.4,10.7c-0.6,2-1.4,4-2.4,5.8
			c-1.3,2.7-3.1,5.2-5.3,7.4c-2.5,2.3-5.5,5.1-9.3,4.5c-4.9-0.7-7.2-6.6-7.4-7c0.4,0,4.2-0.2,6.1-3.1c2.4-3.7,0-9.2-2.7-10.1
			c-2-0.7-3.5,1.3-5.4,0.4c-1.5-0.8-1.7-2.6-2.3-4.4c-0.8-2.3-2.5-5.4-6.9-8.5c-3.7-0.2-7.5,0.5-10.9,2.1
			C251.4,53.6,249.9,55.6,248.1,54.9z"/>
		<path class="st2" d="M247.7,61.5c-2,3-3.6,6.3-4.7,9.8c-0.3,0.8-0.7,1.6-0.1,2.3c0.4,0.5,1.4,0.7,2,0.9c0.9,0.3,1.9,0.7,2.9,1.1
			c0.7,0.3,1-0.8,0.3-1.1s-1.3-0.5-1.9-0.7c-0.7-0.2-1.3-0.4-1.9-0.7c-0.8-0.8,0.3-2.8,0.7-3.6c1-2.6,2.3-5,3.8-7.3
			C249.1,61.4,248.1,60.8,247.7,61.5L247.7,61.5z"/>
		<path class="st2" d="M247.5,75.1c2.1,7.3,4.7,15.5,12.2,19c0.6,0.3,1.3-0.7,0.6-1c-7.2-3.4-9.6-11.2-11.7-18.3
			c-0.1-0.3-0.5-0.4-0.8-0.3C247.6,74.6,247.4,74.8,247.5,75.1L247.5,75.1z"/>
		<path class="st2" d="M259.9,94.1c6.7,1.5,14.1-2.1,18.6-6.9c0.5-0.5-0.3-1.3-0.8-0.8c-4.2,4.5-11.3,8-17.5,6.6
			c-0.3-0.1-0.6,0.1-0.7,0.4S259.5,94,259.9,94.1L259.9,94.1z"/>
		<path class="st2" d="M270.8,92.1c0.4,3.3,1.7,6.4,3.8,9c0.5,0.6,1.3-0.2,0.8-0.8c-1.8-2.4-3-5.2-3.4-8.2
			C271.9,91.3,270.7,91.3,270.8,92.1L270.8,92.1z"/>
		<path class="st2" d="M281.7,87.2c0.2,3.7,1.6,7.3,4,10.1c0.5,0.6,1.3-0.3,0.8-0.8c-2.2-2.6-3.5-5.9-3.7-9.3
			C282.8,86.4,281.6,86.4,281.7,87.2L281.7,87.2z"/>
		<path class="st2" d="M276.1,64.3c1-1.6,3.2-2,4.7-0.9l0.1,0.1c1.4,1.1,2.3,2.7,2.3,4.5c0.2,2.7-1.6,8.2-5.4,6.6
			c-0.7-0.3-1.3,0.7-0.6,1c5,2.1,7.6-4.4,7-8.3c-0.2-2.3-1.7-4.4-3.9-5.3c-2-0.7-4.2,0-5.3,1.8C274.7,64.4,275.6,65,276.1,64.3
			L276.1,64.3z"/>
		<path class="st2" d="M271.8,93.6c2.2-1.4,4.1-3.1,5.8-5.2c0.5-0.6-0.4-1.4-0.8-0.8c-1.6,1.9-3.4,3.6-5.5,5
			C270.7,93,271.3,94,271.8,93.6L271.8,93.6z"/>
		<path class="st2" d="M251,82.6c2.6,0.2,5.2-0.7,7.1-2.6c1.2-1.3,1.6-3.5-0.8-3.4c-0.6,0-0.8,1-0.1,1.1c0.9,0.2,1.6,0.6,2.3,1.2
			c0.6,0.5,1.4-0.3,0.8-0.8c-0.8-0.7-1.8-1.2-2.8-1.4c0,0.4-0.1,0.8-0.1,1.1c1.3,0-0.4,1.8-0.6,2c-0.6,0.5-1.3,0.9-2,1.2
			c-1.2,0.5-2.5,0.7-3.8,0.6C250.2,81.5,250.2,82.7,251,82.6L251,82.6z"/>
		<path class="st2" d="M256,65.4c-0.7-1.1-0.9-2.4-0.6-3.7l-0.8,0.3c1,0.8,0.8,2.3,0.6,3.4c0.3,0,0.7-0.1,1-0.2
			c-0.5-0.6-0.7-1.4-0.7-2.1c0-0.3-0.3-0.6-0.6-0.6s-0.6,0.3-0.6,0.6c0,1,0.3,1.9,0.8,2.7c0.3,0.3,1,0.4,1-0.2
			c0.3-1.7,0.3-3.5-1.2-4.7c-0.3-0.2-0.6-0.1-0.8,0.2c0,0.1-0.1,0.1-0.1,0.2c-0.4,1.5-0.1,3.2,0.7,4.5C255.3,66.6,256.3,66,256,65.4
			L256,65.4z"/>
		<path class="st2" d="M253.7,57.3c1.9-2.2,4.6-0.5,5.6,1.6c0.3,0.7,1.3,0.1,1-0.6c-1.3-2.8-5-4.5-7.4-1.8
			C252.4,57.1,253.2,57.9,253.7,57.3L253.7,57.3z"/>
		<path class="st0" d="M272.1,56.7c0.1,0.9,0.3,2.3,0.6,3.8c0.8,4.5,1.6,7.1,1.8,8.3c1.1,6-0.8,12.1-5,16.5c-5.2,5.2-12.4,5-14.1,5
			c1,1.3,2.4,2.3,3.9,3c5.6,2.4,11.2-1.1,11.8-1.5c-0.1,2.5,0.5,3.3,1,3.6c1.6,0.7,5.3-2.7,6.9-6.3c1.2-3,1.3-6.3,0.4-9.3
			c-2.1-2.9-2.3-4-2-4.3c0.5-0.5,1.7,0.4,3.1-0.1s2.1-2.4,2.5-3.5c0.5-1.5,1.8-5.5-0.6-7.9c-1.6-1.5-4.1-1.8-6.5-0.9
			c-0.6-0.1-1.2-0.4-1.6-0.8c-0.6-0.7-0.6-1.5-1-2.9C273,58.4,272.6,57.5,272.1,56.7z"/>
		<path class="st4" d="M277.4,82.4c-0.3,2.7-0.9,5.4-1.8,7.9c1.3-0.4,2.7-0.8,4-1.2c1.1,3,2.3,6.1,3.4,9.1c0.8-0.4,1.6-0.8,2.5-1.3
			c-1.1-2.5-2-5.1-2.7-7.8c-0.6-2.3-0.9-4.7-1.1-7.1c-0.8-0.7-1.5-1.6-2.1-2.5c-1-1.4-1.7-2.9-2.3-4.5
			C277.6,77.5,277.6,80,277.4,82.4z"/>
		<path class="st12" d="M299,34.6c-0.5,0-0.2,5.3-2.4,11.7c-1.4,4.4-3.8,8.4-7.2,11.6c-2.5,2.2-5.4,3.9-8.6,5
			c0.9,0.5,1.6,1.2,2.2,2.1c1.7,2.7,0.6,5.7,0.3,6.6c-0.3,1.5-1.3,2.8-2.6,3.7c-1.1,0.5-2.4,0.6-3.5,0.3c0.1,0.3,2.5,6.7,7.5,7.2
			c1.8,0.1,3.6-0.4,5.1-1.4c3.4-1.8,5.1-4.4,7.2-7.6c2.8-4.3,4.7-7.4,5-11.7c0.2-3.4-0.8-4.3-0.1-7.5c0.5-1.9,0.8-3.9,0.7-6
			c0-0.6-0.1-1.1-0.1-1.5l-4.7,5.4c0.8-1.5,1.3-3.1,1.7-4.7c0.4-2.3,0.5-4.6,0.3-6.9C299.7,39.2,299.5,34.6,299,34.6z"/>
	</g>
</g>
<ellipse class="st13" cx="30.3" cy="31.8" rx="2.8" ry="2.8"/>
<circle class="st13" cx="423.8" cy="328.8" r="4.2"/>
<circle class="st13" cx="90.4" cy="42.3" r="1.8"/>
<circle class="st13" cx="76.7" cy="234.3" r="3.7"/>
<circle class="st7" cx="25.5" cy="23.6" r="3.1"/>
<circle class="st7" cx="39.5" cy="26.9" r="1.1"/>
<ellipse transform="matrix(0.1602 -0.9871 0.9871 0.1602 5.9952 592.4106)" class="st7" cx="351.2" cy="292.7" rx="2.8" ry="2.8"/>
<circle class="st7" cx="320.6" cy="236.9" r="2.6"/>
<g>
	<g>
		<path class="st7" d="M348.4,69.4c0,1,0.6,1.8,1.6,2.1c1.6,0.5,3-0.6,4.5-0.9c2.5-0.5,4.5,0.8,5.8,2.8c0.7,1,1.4,2,2.7,2.1
			c1.7,0.1,3.2-1.2,4.6-1.9c1.2-0.6,2.7-1.2,4.1-0.8c1.1,0.3,1.8,1.2,2.6,2.1c2.1,2.5,5.2,3.6,8.4,2.8c0.7-0.2,0.4-1.2-0.3-1.1
			c-1.9,0.5-3.8,0.3-5.5-0.8c-1.4-0.8-2-2.2-3.2-3.2c-2.3-1.8-5.1-0.7-7.4,0.5c-1.1,0.7-1.9,1.3-3.2,1c-1.3-0.2-1.5-0.9-2.2-1.8
			c-0.7-1-1.6-1.8-2.7-2.2c-1-0.4-2.2-0.6-3.2-0.5c-1.1,0.1-5.3,2.3-5.4,0C349.5,68.7,348.4,68.7,348.4,69.4L348.4,69.4z"/>
	</g>
</g>
<g>
	<g>
		<path class="st7" d="M364.5,81.5c2.8-1.8,6.5-1.9,9.3,0c0.9,0.6,1.7,1.8,2.9,1.9c1.4,0.2,2.3-1,3.4-1.7c1.2-0.7,2.2-1,3.4-0.3
			c0.7,0.4,1.2,1,1.8,1.5c0.9,0.7,1.9,1.1,3.1,1.3c2.2,0.4,4.5-0.3,6.1-1.9c0.5-0.5-0.3-1.2-0.8-0.8c-1.2,1.1-2.8,1.7-4.5,1.6
			c-1.9-0.1-3-1-4.4-2.2c-1.8-1.6-3.9-1.2-5.8,0.1c-1.1,0.7-1.5,1.5-3.4,0.5c-0.5-0.3-0.9-0.8-1.4-1.1c-1.1-0.7-2.3-1.2-3.5-1.4
			c-2.4-0.4-4.9,0.1-6.9,1.4C363.4,80.9,364,81.8,364.5,81.5L364.5,81.5z"/>
	</g>
</g>
<g>
	<g>
		<path class="st7" d="M77.8,116.5c-0.4-1.4,0.4-2.6,1.8-2.8c0.6-0.1,1.3,0.1,1.9,0.3c0.9,0.1,1.8,0.3,2.7,0
			c1.4-0.6,1.5-2.2,1.8-3.5c0.1-0.4,0.2-1.1,0.5-1.4s1.7-0.3,2.2-0.5c0.7-0.3,1.4-0.7,1.9-1.3c1.5-1.6,3.1-6.5,6.1-5.1
			c0.6,0.3,1.2-0.7,0.5-0.9c-2.3-1.1-4.4,0.7-5.6,2.6c-0.9,1.4-1.7,3.3-3.4,3.8c-1.1,0.3-2.1,0-2.8,1.1c-0.5,0.8-0.5,1.9-0.8,2.8
			c-0.7,2.4-3.1,1.1-4.9,1.1c-2.2,0-3.7,2-3.1,4.2C77,117.5,78,117.2,77.8,116.5L77.8,116.5z"/>
	</g>
</g>
<g>
	<g>
		<path class="st7" d="M90.4,115.9c0-2,1.3-3.8,3.2-4.3c1.1-0.3,2.3,0.1,3.2-0.7c0.9-0.9,1.3-2.4,2.2-3.4c1.3-1.4,3-2.2,4.8-2.5
			c0.7-0.1,0.4-1.2-0.3-1.1c-1.7,0.3-3.2,0.9-4.5,2c-1.6,1.4-2.3,3.9-4.4,4.3c-1.5,0.3-2.7,0.5-3.8,1.7c-1,1.1-1.5,2.4-1.5,3.9
			C89.3,116.6,90.4,116.6,90.4,115.9L90.4,115.9z"/>
	</g>
</g>
<g>
	<g>
		<path class="st13" d="M30.7,137.8c-0.4-1.3,0-2.6,1.3-3.2c1.1-0.5,2.4-0.2,3,0.8c1.4,2.1-1,4.5-3.1,3.2c-0.6-0.4-1.2,0.6-0.5,0.9
			c1.4,0.8,3.1,0.6,4.3-0.5c1.2-1.2,1.2-3.1,0.2-4.4c-1-1.3-2.6-1.7-4.1-1.1c-1.9,0.8-2.7,2.7-2.1,4.6
			C29.9,138.8,31,138.5,30.7,137.8L30.7,137.8z"/>
	</g>
</g>
<g>
	<g>
		<path class="st13" d="M341.8,29.3c-1-2.2,2.5-2,3.4-1.6s1.7,1,2.6,1.5c0.4,0.2,0.8,0,0.8-0.5c0-3.5,3.8-5.5,6.6-3.2
			c0.5,0.4,1.3-0.3,0.8-0.8c-3.5-2.8-8.5-0.5-8.5,4c0.3-0.1,0.5-0.3,0.8-0.5c-1.8-0.9-3.9-2.7-6-1.8c-1.4,0.6-2.2,2-1.5,3.4
			C341.2,30.5,342.1,29.9,341.8,29.3L341.8,29.3z"/>
	</g>
</g>
<g>
	<g>
		<path class="st13" d="M23.8,308.2c2.6-1.8,6-1.3,6.3-5.2c0.1-1.5,0.1-2.8,1.7-3.4c0.8-0.3,1.6-0.5,2.4-0.9
			c1.8-0.9,3.4-2.2,4.7-3.7c0.4-0.5-0.3-1.3-0.8-0.8c-1.5,1.8-3.4,3.2-5.6,4c-1.2,0.4-2.6,0.7-3.1,2c-0.8,1.8,0.2,3.8-1.6,5.1
			c-1.4,0.9-3.2,1-4.5,1.9C22.7,307.7,23.3,308.6,23.8,308.2L23.8,308.2z"/>
	</g>
</g>
<g>
	<g>
		<path class="st13" d="M27.1,300c-0.2-1.2,0.2-2.6,1.1-3.4s2-0.9,3.1-1.1c1.3-0.3,2.3-0.8,2.8-2c0.4-0.9,0.6-1.9,1.2-2.8
			c0.6-0.9,1.4-1.6,2.3-2.3c1.6-1.1,3.4-1.9,5.1-2.7c0.7-0.3,0.1-1.2-0.5-0.9c-2,0.8-3.9,1.7-5.6,3.1c-1.8,1.4-2.4,2.8-3.3,4.7
			c-0.8,1.8-1.9,1.7-3.5,2c-0.9,0.2-1.7,0.5-2.4,1.2c-1.3,1.2-1.7,2.8-1.4,4.5C26.1,301,27.2,300.7,27.1,300L27.1,300z"/>
	</g>
</g>
<g>
	<g>
		<path class="st13" d="M157.4,71.1c-2.6-2.1-1.2-6.8,2.4-6.2c1.6,0.3,3,1.5,3,3.2c0,1.9-1.6,3.5-3.5,3.6c-0.7,0-0.7,1.1,0,1.1
			c2.3-0.1,4.2-1.9,4.6-4.2c0.3-2.2-1.2-4.1-3.3-4.7c-4.7-1.4-7.7,5-3.9,8C157.2,72.3,157.9,71.6,157.4,71.1L157.4,71.1z"/>
	</g>
</g>
<g>
	<g>
		<path class="st13" d="M425.8,135.5c-1.9-0.2-2.5-2.7-1.9-4.2c0.7-1.9,2.9-3.1,4.9-2.8s3.6,2.2,3.5,4.3c-0.1,2.2-2.5,3.6-4.6,3.1
			c-0.7-0.2-1,0.9-0.3,1.1c2.5,0.6,5.3-0.9,5.9-3.6c0.6-2.8-1.6-5.6-4.3-6c-2.7-0.4-5.6,1.5-6.2,4.2c-0.5,2.3,0.7,4.8,3.1,5.1
			C426.5,136.7,426.5,135.6,425.8,135.5L425.8,135.5z"/>
	</g>
</g>
<g>
	<g>
		<path class="st13" d="M407,218c-0.6-2.1,2-4.5,4-3.1c1.4,1.1,1.4,3.6-0.1,4.5c-0.6,0.4,0,1.3,0.5,0.9c2.3-1.4,2.3-5.3-0.1-6.6
			c-2.8-1.6-6.1,1.6-5.3,4.5C406.1,219,407.1,218.7,407,218L407,218z"/>
	</g>
</g>
</svg>
