<?xml version="1.0" encoding="utf-8"?>
<!-- Generator: Adobe Illustrator 24.1.2, SVG Export Plug-In . SVG Version: 6.00 Build 0)  -->
<svg version="1.1" id="Слой_1" xmlns="http://www.w3.org/2000/svg" xmlns:xlink="http://www.w3.org/1999/xlink" x="0px" y="0px"
	 viewBox="0 0 330 330" style="enable-background:new 0 0 330 330;" xml:space="preserve">
<style type="text/css">
	.st0{opacity:0.1;fill:url(#SVGID_1_);enable-background:new    ;}
	.st1{opacity:0.3;}
	.st2{fill:#91B3FA;}
	.st3{fill:#BDD0FB;}
	.st4{fill:url(#SVGID_2_);}
	.st5{opacity:0.2;fill:url(#SVGID_3_);enable-background:new    ;}
	.st6{fill:url(#SVGID_4_);}
	.st7{fill:url(#SVGID_5_);}
	.st8{opacity:0.3;fill:url(#SVGID_6_);enable-background:new    ;}
	.st9{fill:url(#SVGID_7_);}
	.st10{fill:url(#SVGID_8_);}
	.st11{fill:url(#SVGID_9_);}
	.st12{fill:#97A6B7;}
	.st13{fill:#EAEDF3;}
	.st14{fill:#FFFFFF;}
	.st15{fill:url(#SVGID_10_);}
	.st16{fill:url(#SVGID_11_);}
	.st17{fill:url(#SVGID_12_);}
	.st18{fill:url(#SVGID_13_);}
	.st19{fill:url(#SVGID_14_);}
	.st20{fill:url(#SVGID_15_);}
	.st21{fill:url(#SVGID_16_);}
	.st22{fill:url(#SVGID_17_);}
	.st23{opacity:0.63;fill:url(#SVGID_18_);enable-background:new    ;}
	.st24{opacity:0.63;fill:url(#SVGID_19_);enable-background:new    ;}
	.st25{opacity:0.63;fill:url(#SVGID_20_);enable-background:new    ;}
	.st26{opacity:0.63;fill:url(#SVGID_21_);enable-background:new    ;}
	.st27{opacity:0.63;enable-background:new    ;}
	.st28{fill:url(#SVGID_22_);}
	.st29{fill:url(#SVGID_23_);}
	.st30{fill:url(#SVGID_24_);}
	.st31{fill:url(#SVGID_25_);}
	.st32{fill:url(#SVGID_26_);}
	.st33{fill:url(#SVGID_27_);}
	.st34{opacity:0.1;fill:#97A6B7;enable-background:new    ;}
	.st35{fill:url(#SVGID_28_);}
	.st36{fill:url(#SVGID_29_);}
	.st37{fill:#7D97F4;}
	.st38{fill:url(#SVGID_30_);}
	.st39{fill:url(#SVGID_31_);}
	.st40{fill:url(#SVGID_32_);}
	.st41{fill:url(#SVGID_33_);}
	.st42{fill:url(#SVGID_34_);}
	.st43{fill:url(#SVGID_35_);}
	.st44{fill:url(#SVGID_36_);}
	.st45{fill:url(#SVGID_37_);}
	.st46{fill:url(#SVGID_38_);}
	.st47{fill:url(#SVGID_39_);}
	.st48{fill:url(#SVGID_40_);}
	.st49{fill:url(#SVGID_41_);}
	.st50{fill:url(#SVGID_42_);}
	.st51{fill:url(#SVGID_43_);}
	.st52{fill:url(#SVGID_44_);}
</style>
<linearGradient id="SVGID_1_" gradientUnits="userSpaceOnUse" x1="610.5892" y1="320.8084" x2="376.8577" y2="68.5268" gradientTransform="matrix(0.9873 0.1588 -0.1588 0.9873 -241.6815 -21.7983)">
	<stop  offset="0" style="stop-color:#20C3D0"/>
	<stop  offset="0.3016" style="stop-color:#1EC0D0"/>
	<stop  offset="0.5347" style="stop-color:#19B6CF"/>
	<stop  offset="0.7449" style="stop-color:#11A6CD"/>
	<stop  offset="0.9405" style="stop-color:#058FCA"/>
	<stop  offset="1" style="stop-color:#0086C9"/>
</linearGradient>
<path class="st0" d="M300.9,244.7c-43.6,69-132.5,87.4-197.2,71.4C86,311.7,50.5,303,26.6,271.8C-19.1,212.1,6.4,106.6,68.2,52.1
	c8-7,62.8-53.9,134.5-41.6c52.5,9,84.6,44.6,88.5,49.1c4.9,5.6,15.6,18.7,24.1,38.2C335.2,143.4,328.2,201.6,300.9,244.7z"/>
<g>
	<g>
		<g>
			<g class="st1">
				<path class="st2" d="M61.5,77.9c-0.7,0-1.2-0.5-1.2-1.2c-0.1-1.4-0.1-2.9,0-4.3c0.1-0.7,0.7-1.2,1.3-1.2l0,0
					c0.7,0.1,1.2,0.7,1.2,1.3c-0.1,1.3-0.1,2.7,0,4C62.9,77.2,62.3,77.8,61.5,77.9C61.7,77.9,61.6,77.9,61.5,77.9z M62.4,67
					c-0.1,0-0.1,0-0.2,0c-0.7-0.1-1.1-0.8-1-1.4c0.3-1.4,0.6-2.9,0.9-4.2c0.2-0.6,0.8-1,1.5-0.8c0.6,0.2,1,0.8,0.8,1.5
					c-0.4,1.3-0.7,2.6-0.9,3.9C63.5,66.6,62.9,67.1,62.4,67z M65.5,56.7c-0.2,0-0.3,0-0.4-0.1c-0.7-0.3-0.9-1-0.7-1.7
					c0.6-1.3,1.2-2.6,1.8-3.9c0.3-0.6,1.1-0.8,1.7-0.5s0.8,1.1,0.5,1.7c-0.7,1.2-1.3,2.4-1.8,3.6C66.5,56.3,66,56.7,65.5,56.7z
					 M70.8,47.2c-0.3,0-0.5-0.1-0.7-0.3c-0.5-0.4-0.7-1.2-0.3-1.8c0.8-1.2,1.8-2.3,2.7-3.4c0.4-0.5,1.3-0.5,1.8-0.1s0.5,1.3,0.1,1.8
					c-0.8,1-1.8,2.1-2.5,3.2C71.7,47,71.3,47.2,70.8,47.2z M78.2,39.1c-0.3,0-0.6-0.2-0.8-0.4c-0.5-0.5-0.4-1.3,0.1-1.8
					c1.1-0.9,2.2-1.8,3.4-2.7c0.6-0.4,1.3-0.3,1.8,0.3c0.4,0.6,0.3,1.3-0.3,1.8c-1.1,0.8-2.2,1.7-3.2,2.5
					C78.9,39,78.6,39.1,78.2,39.1z M87.1,32.9c-0.4,0-0.8-0.3-1-0.7c-0.3-0.6-0.1-1.3,0.5-1.7c1.3-0.7,2.6-1.3,3.9-1.8
					c0.7-0.3,1.4,0,1.7,0.7s0,1.4-0.7,1.7c-1.2,0.5-2.4,1.1-3.6,1.8C87.6,32.9,87.5,33,87.1,32.9z M133.2,33c-0.2,0-0.3-0.1-0.5-0.2
					c-1.3-0.7-2.4-1.3-3.7-1.8c-0.7-0.3-0.9-1-0.7-1.7c0.3-0.7,1-0.9,1.7-0.7c1.3,0.6,2.6,1.2,3.9,1.8c0.6,0.3,0.8,1.1,0.5,1.7
					C134.1,32.6,133.7,32.9,133.2,33z M97.4,28.8c-0.5,0-0.9-0.4-1.1-0.9c-0.3-0.7,0.2-1.3,0.8-1.5c1.3-0.3,2.7-0.7,4.1-0.9
					c0.7-0.1,1.3,0.3,1.4,1s-0.3,1.3-1,1.4c-1.3,0.3-2.7,0.6-3.9,0.9C97.6,28.8,97.5,28.8,97.4,28.8z M123.1,28.8
					c-0.1,0-0.2,0-0.3,0c-1.3-0.4-2.6-0.7-3.9-0.9c-0.7-0.1-1.1-0.8-1-1.4c0.1-0.7,0.8-1.2,1.4-1c1.4,0.3,2.9,0.6,4.2,0.9
					c0.6,0.2,1,0.8,0.8,1.5C124.2,28.5,123.6,28.8,123.1,28.8z M108.1,27.2c-0.7,0-1.2-0.5-1.2-1.2c-0.1-0.8,0.5-1.3,1.2-1.3
					c1.4-0.1,2.9-0.1,4.3,0l0,0c0.7,0,1.2,0.6,1.2,1.3c-0.1,0.7-0.7,1.2-1.3,1.2C110.9,27.1,109.6,27.1,108.1,27.2
					C108.2,27.2,108.1,27.2,108.1,27.2z"/>
				<path class="st2" d="M141.6,37.2c0.5-0.6,0.3-1.3-0.2-1.8c-0.5-0.4-1-0.8-1.6-1.3c-0.6-0.4-1.3-0.3-1.8,0.3s-0.3,1.3,0.3,1.8
					c0.5,0.3,1,0.8,1.5,1.2c0.2,0.2,0.4,0.3,0.7,0.3C140.9,37.7,141.3,37.5,141.6,37.2z"/>
			</g>
			<g class="st1">
				<path class="st2" d="M159,71.2c0.7-0.1,1.2-0.7,1.1-1.3c-0.1-0.7-0.2-1.3-0.3-2s-0.8-1.2-1.4-1.1c-0.7,0.1-1.2,0.8-1.1,1.4
					c0.1,0.7,0.2,1.3,0.3,1.9s0.6,1.1,1.2,1.1C158.8,71.2,158.9,71.2,159,71.2z"/>
				<path class="st2" d="M107.2,124.4c-0.6-0.1-1.2-0.1-1.8-0.2c-0.7-0.1-1.2-0.7-1.1-1.3c0.1-0.7,0.7-1.2,1.3-1.1
					c1.3,0.2,2.6,0.3,3.9,0.3c0.8,0,1.3,0.6,1.3,1.3c0,0.8-0.6,1.3-1.3,1.3C108.9,124.5,108.1,124.5,107.2,124.4z M99,123.3
					c-0.1,0-0.2,0-0.3,0c-1.3-0.3-2.7-0.8-4-1.2c-0.7-0.3-1.1-0.9-0.8-1.6c0.3-0.7,0.9-1.1,1.6-0.8c1.3,0.4,2.6,0.8,3.9,1.1
					c0.7,0.2,1.1,0.8,0.9,1.5C100.2,122.9,99.6,123.3,99,123.3z M116.2,124.2c-0.6,0-1.1-0.5-1.2-1.1c-0.1-0.8,0.4-1.3,1.1-1.4
					c1.3-0.2,2.7-0.4,3.9-0.7c0.7-0.1,1.3,0.3,1.5,1c0.1,0.7-0.3,1.3-1,1.5c-1.3,0.3-2.8,0.5-4.1,0.7
					C116.4,124.2,116.3,124.2,116.2,124.2z M88.9,119.6c-0.2,0-0.3,0-0.5-0.1c-1.3-0.6-2.5-1.3-3.7-2c-0.6-0.3-0.8-1.1-0.4-1.7
					s1.1-0.8,1.7-0.4c1.2,0.7,2.4,1.3,3.5,1.9c0.7,0.3,0.9,1.1,0.6,1.7C89.8,119.4,89.3,119.7,88.9,119.6z M126.6,121.8
					c-0.5-0.1-0.9-0.3-1.1-0.8c-0.3-0.7,0.1-1.3,0.8-1.6c1.3-0.4,2.5-0.9,3.7-1.5c0.7-0.3,1.4,0,1.7,0.6c0.3,0.7,0,1.4-0.6,1.7
					c-1.3,0.6-2.5,1.1-3.9,1.6C127,121.8,126.9,121.8,126.6,121.8z M136.3,117.1c-0.4,0-0.8-0.3-1-0.6c-0.3-0.6-0.2-1.4,0.4-1.8
					c1.1-0.7,2.2-1.4,3.3-2.3c0.6-0.4,1.3-0.3,1.8,0.3s0.3,1.3-0.3,1.8c-1.1,0.8-2.3,1.6-3.4,2.4C136.9,117,136.5,117.1,136.3,117.1
					z M144.8,110.3c-0.3,0-0.6-0.1-0.8-0.3c-0.5-0.5-0.5-1.3,0-1.8c0.9-0.9,1.8-1.9,2.7-2.9c0.4-0.6,1.3-0.6,1.8-0.2
					c0.6,0.4,0.6,1.3,0.2,1.8c-0.9,1.1-1.8,2.1-2.9,3.1C145.4,110.2,145,110.3,144.8,110.3z M151.5,101.9c-0.2,0-0.4-0.1-0.6-0.2
					c-0.6-0.4-0.8-1.2-0.4-1.8c0.8-1.1,1.4-2.3,2-3.4c0.3-0.6,1.1-0.8,1.7-0.5c0.6,0.3,0.8,1.1,0.5,1.7c-0.7,1.2-1.3,2.4-2.1,3.6
					C152.3,101.8,151.8,102,151.5,101.9z M156.1,92.4c-0.1,0-0.3-0.1-0.3-0.1c-0.7-0.3-1-0.9-0.8-1.6c0.4-1.3,0.8-2.5,1.2-3.8
					c0.2-0.7,0.8-1.1,1.5-0.9s1.1,0.8,0.9,1.5c-0.3,1.3-0.8,2.7-1.3,4C157.2,92,156.7,92.4,156.1,92.4z M158.5,81.9L158.5,81.9
					c-0.8-0.1-1.3-0.8-1.2-1.4c0.1-1,0.2-1.9,0.3-2.9c0.1-0.4,0.1-0.8,0.1-1.1c0.1-0.7,0.7-1.2,1.3-1.2c0.7,0,1.2,0.6,1.2,1.3
					c0,0.3-0.1,0.8-0.1,1.1c0,1.1-0.1,2.1-0.3,3.1C159.8,81.4,159.3,81.9,158.5,81.9z"/>
				<path class="st2" d="M80.8,113.4c0.4-0.5,0.3-1.3-0.2-1.8c-0.5-0.4-1-0.8-1.5-1.3s-1.3-0.4-1.8,0.1s-0.4,1.3,0.1,1.8
					s1.1,0.9,1.6,1.3c0.2,0.2,0.4,0.3,0.7,0.3C80.2,113.9,80.6,113.8,80.8,113.4z"/>
			</g>
			<g>
				<path class="st2" d="M82.3,99.5c0.2,0.3,0.4,0.3,0.7,0.3l6.8-2c2.4,2.2,5.3,3.9,8.5,5.3l1.2,7c0.1,0.3,0.3,0.5,0.5,0.5l8.4,1.4
					c0.3,0,0.5-0.1,0.6-0.3l3.4-6.2c3.4-0.3,6.6-1,9.7-2.3l5.8,4.1c0.2,0.2,0.5,0.2,0.7,0l7-5c0.3-0.2,0.3-0.4,0.3-0.7l-2-6.8
					c2.2-2.4,3.9-5.3,5.3-8.5l7-1.2c0.3-0.1,0.5-0.3,0.5-0.5l1.4-8.4c0-0.3-0.1-0.5-0.3-0.6l-6.2-3.4c-0.3-3.4-1-6.6-2.3-9.7
					l4.1-5.8c0.2-0.2,0.2-0.5,0-0.7l-5-7c-0.2-0.3-0.4-0.3-0.7-0.3l-6.8,2c-2.4-2.2-5.3-3.9-8.5-5.3l-1.2-7
					c-0.1-0.3-0.3-0.5-0.5-0.5l-8.4-1.4c-0.3,0-0.5,0.1-0.6,0.3l-3.4,6.2c-3.4,0.3-6.6,1-9.7,2.3l-5.8-4.1c-0.2-0.2-0.5-0.2-0.7,0
					l-7,5c-0.3,0.2-0.3,0.4-0.3,0.7l2,6.8c-2.2,2.4-3.9,5.3-5.3,8.5l-7,1.2c-0.3,0.1-0.5,0.3-0.5,0.5l-1.4,8.4
					c0,0.3,0.1,0.5,0.3,0.6l6.2,3.4c0.3,3.4,1,6.6,2.3,9.7l-4.1,5.8c-0.2,0.2-0.2,0.5,0,0.7L82.3,99.5z"/>
				<g>
					<path class="st3" d="M109.8,82.7c-4.1-0.3-7.6-3.5-8-7.8c-0.4-4.7,3.1-8.8,7.8-9.2c2.3-0.2,4.5,0.5,6.2,2
						c1.8,1.5,2.9,3.6,3,5.9c0.4,4.7-3.1,8.8-7.8,9.2C110.7,82.8,110.2,82.8,109.8,82.7z M110.7,67.6c-0.3,0-0.7,0-1,0
						c-3.6,0.3-6.4,3.5-6,7.1s3.5,6.4,7.1,6c3.6-0.3,6.4-3.5,6-7.1c-0.1-1.8-0.9-3.3-2.3-4.5C113.5,68.2,112.3,67.7,110.7,67.6z"/>
				</g>
				<path class="st3" d="M122.6,91.5c4.6-3.3,7.6-8.1,8.6-13.7c0.1-0.8,0.2-1.4,0.3-2.2c0.3-4.9-1-9.6-3.9-13.6
					c-3.3-4.6-8.1-7.6-13.7-8.6c-11.5-1.8-22.3,5.9-24.3,17.4c-0.1,0.7-0.2,1.4-0.3,2.1c-0.2,3.1,0.3,6.2,1.4,9.1
					c0.1,0.3,0.4,0.3,0.7,0.3c0.2-0.1,0.3-0.3,0.3-0.4s0-0.2,0-0.3c-1.1-2.8-1.5-5.7-1.3-8.7c0.1-0.7,0.2-1.3,0.3-2
					c1.8-10.9,12.2-18.4,23.1-16.5c5.3,0.9,9.9,3.8,13,8.1c2.7,3.8,3.9,8.3,3.7,12.9c-0.1,0.7-0.2,1.3-0.3,2
					c-0.7,3.9-2.4,7.3-4.9,10.1c-4.4,4.9-11.2,7.6-18.2,6.4c-1.4-0.3-2.8-0.7-4.1-1.2c-0.3-0.2-0.6,0-0.7,0.3c0,0.1,0,0.1,0,0.2
					c0,0.3,0.2,0.4,0.3,0.5c0.1,0,0.2,0.1,0.3,0.1c0,0.1,0.1,0.1,0.1,0.1c0.1,0,0.1,0,0.1,0c1.1,0.4,2.2,0.7,3.3,0.9
					c0.3,0,0.4,0.1,0.7,0.1l0,0c0.8,0.1,1.4,0.2,2.2,0.3C114.1,95.5,118.8,94.1,122.6,91.5z"/>
			</g>
		</g>
		<g>
			<g class="st1">
				<path class="st2" d="M17.2,108.1c0.4-0.1,0.7-0.5,0.6-0.9c-0.1-0.6-0.3-1.3-0.3-1.8c-0.1-0.4-0.5-0.8-0.9-0.7
					c-0.4,0.1-0.8,0.5-0.7,0.9c0.1,0.7,0.2,1.3,0.3,1.9c0.1,0.3,0.3,0.6,0.7,0.6C16.9,108.1,17,108.1,17.2,108.1z"/>
				<path class="st2" d="M16.1,102.2c-0.4,0-0.8-0.3-0.8-0.9c0-1.1,0-2.3,0.1-3.4c0.1-0.2,0.1-0.4,0.1-0.7c0-0.4,0.4-0.7,0.8-0.7
					c0.4,0,0.7,0.5,0.7,0.9c-0.1,0.3-0.1,0.4-0.1,0.7c0,1.1,0,2.2,0,3.3C16.9,101.8,16.6,102.2,16.1,102.2L16.1,102.2z M16.7,94.2
					L16.7,94.2c-0.5-0.1-0.8-0.5-0.7-0.9c0.3-1.3,0.7-2.7,1.1-3.9c0.2-0.4,0.6-0.7,1-0.5s0.7,0.6,0.5,1c-0.4,1.3-0.8,2.5-1,3.8
					C17.5,94,17.2,94.3,16.7,94.2z M19.3,86.6c-0.1,0-0.2,0-0.3-0.1c-0.3-0.2-0.5-0.6-0.3-1c0.6-1.3,1.3-2.4,2-3.6
					c0.3-0.4,0.8-0.5,1.1-0.3c0.4,0.3,0.5,0.8,0.3,1.1c-0.7,1.1-1.3,2.3-1.9,3.4C19.9,86.5,19.7,86.6,19.3,86.6z M23.7,79.8
					c-0.2,0-0.3-0.1-0.4-0.2c-0.3-0.3-0.3-0.8-0.1-1.1c0.9-1,1.8-2,2.9-2.9c0.3-0.3,0.8-0.3,1.1,0.1c0.3,0.3,0.3,0.8-0.1,1.1
					c-0.9,0.9-1.8,1.8-2.7,2.9C24.2,79.8,24,79.9,23.7,79.8z M29.8,74.5c-0.3,0-0.4-0.2-0.6-0.3c-0.3-0.3-0.2-0.8,0.2-1.1
					c1.1-0.8,2.3-1.5,3.4-2.2c0.3-0.2,0.8,0,1,0.3s0,0.8-0.3,1c-1.2,0.7-2.3,1.3-3.4,2.1C30,74.5,29.8,74.5,29.8,74.5z M36.6,70.6
					c-0.3,0-0.6-0.3-0.7-0.5c-0.2-0.4,0-0.8,0.4-1c1.3-0.5,2.6-0.9,3.9-1.3c0.4-0.1,0.8,0.2,0.9,0.6c0.1,0.4-0.2,0.8-0.6,0.9
					c-1.3,0.3-2.5,0.7-3.7,1.2C36.9,70.6,36.8,70.6,36.6,70.6z M44.5,68.6c-0.4,0-0.7-0.3-0.8-0.7c-0.1-0.4,0.3-0.8,0.7-0.8
					c1.3-0.2,2.8-0.3,4.1-0.3c0.4,0,0.8,0.3,0.8,0.8c0,0.4-0.3,0.8-0.8,0.8C47.1,68.3,45.8,68.4,44.5,68.6L44.5,68.6z M56.5,69.2
					c-0.1,0-0.1,0-0.2,0c-1.1-0.3-2.3-0.4-3.4-0.6c-0.2-0.1-0.3-0.1-0.5-0.1c-0.4,0-0.8-0.4-0.7-0.8c0-0.4,0.4-0.8,0.8-0.7
					c0.2,0,0.3,0.1,0.5,0.1c1.2,0.2,2.4,0.4,3.5,0.7c0.4,0.1,0.7,0.5,0.6,0.9C57.1,69,56.8,69.3,56.5,69.2z"/>
			</g>
			<g class="st1">
				<path class="st2" d="M47.1,133.5c-0.4-0.1-0.8-0.4-0.8-0.8c0.1-0.4,0.4-0.8,0.8-0.8c1.3,0.1,2.6,0.1,3.9,0
					c0.4,0,0.8,0.3,0.8,0.8s-0.3,0.8-0.8,0.8C49.8,133.6,48.4,133.6,47.1,133.5L47.1,133.5z M43.1,132.9L43.1,132.9
					c-1.4-0.3-2.8-0.5-4-0.9c-0.4-0.1-0.6-0.5-0.5-0.9s0.5-0.6,0.9-0.5c1.3,0.4,2.5,0.7,3.8,0.9c0.5,0.1,0.8,0.5,0.7,0.9
					C43.9,132.8,43.5,133.1,43.1,132.9z M55,132.9c-0.3,0-0.6-0.3-0.7-0.6c-0.1-0.4,0.2-0.8,0.6-0.9c1.3-0.3,2.5-0.6,3.7-1
					c0.4-0.1,0.8,0.1,1,0.5c0.1,0.4-0.1,0.8-0.5,1c-1.3,0.4-2.6,0.8-3.9,1C55,132.9,55,132.9,55,132.9z M35.5,130.8
					c-0.1,0-0.2-0.1-0.3-0.1c-1.3-0.5-2.4-1.2-3.6-1.8c-0.3-0.3-0.5-0.8-0.3-1.1c0.3-0.3,0.8-0.5,1.1-0.3c1.1,0.7,2.3,1.3,3.4,1.8
					c0.4,0.2,0.6,0.6,0.4,1C36.1,130.7,35.9,130.8,35.5,130.8z M62.4,130.4c-0.3,0-0.6-0.2-0.7-0.4c-0.3-0.3-0.1-0.8,0.3-1
					c1.1-0.6,2.3-1.2,3.4-1.8c0.4-0.3,0.8-0.1,1.1,0.3c0.3,0.4,0.1,0.8-0.3,1.1c-1.1,0.8-2.3,1.3-3.5,1.9
					C62.7,130.5,62.5,130.5,62.4,130.4z M69.2,126.3c-0.3,0-0.4-0.1-0.6-0.3c-0.3-0.3-0.3-0.8,0.1-1.1c1-0.8,1.9-1.7,2.9-2.6
					c0.3-0.3,0.8-0.3,1.1,0c0.3,0.3,0.3,0.8,0,1.1c-1,0.9-2,1.8-3,2.7C69.5,126.3,69.3,126.3,69.2,126.3z M74.6,120.6
					c-0.2,0-0.3-0.1-0.4-0.2c-0.3-0.3-0.4-0.8-0.2-1.1c0.8-1,1.5-2.1,2.2-3.2c0.3-0.3,0.8-0.5,1.1-0.3c0.3,0.3,0.5,0.8,0.3,1.1
					c-0.7,1.2-1.4,2.3-2.3,3.4C75.1,120.6,74.9,120.7,74.6,120.6z"/>
				<path class="st2" d="M29.4,126.4c0.3-0.3,0.2-0.8-0.2-1.1c-0.5-0.3-0.9-0.8-1.4-1.2c-0.3-0.3-0.8-0.3-1.1,0.1
					c-0.3,0.3-0.3,0.8,0.1,1.1c0.5,0.4,1,0.8,1.5,1.3c0.1,0.1,0.3,0.2,0.4,0.2C29,126.8,29.3,126.6,29.4,126.4z"/>
			</g>
			<g>
				<path class="st2" d="M30,116.8c0.1,0.2,0.3,0.3,0.4,0.2l4.5-1.3c1.7,1.4,3.6,2.7,5.7,3.5l0.8,4.7c0.1,0.2,0.2,0.3,0.3,0.3
					l5.6,0.9c0.2,0.1,0.3,0,0.4-0.2l2.3-4.2c2.3-0.2,4.5-0.7,6.6-1.5l3.9,2.8c0.1,0.1,0.3,0.1,0.4,0l4.6-3.4
					c0.2-0.1,0.3-0.3,0.2-0.4l-1.3-4.5c1.4-1.7,2.7-3.6,3.5-5.7l4.7-0.8c0.2-0.1,0.3-0.2,0.3-0.3l0.9-5.6c0.1-0.2,0-0.3-0.2-0.4
					l-4.2-2.3C69.3,96.3,68.8,94,68,92l2.8-3.9c0.1-0.1,0.1-0.3,0-0.4l-3.4-4.6c-0.1-0.2-0.3-0.3-0.4-0.2l-4.5,1.3
					c-1.7-1.4-3.6-2.7-5.7-3.5L56,76.1c-0.1-0.2-0.2-0.3-0.3-0.3l-5.7-1c-0.2-0.1-0.3,0-0.4,0.2l-2.3,4.2c-2.3,0.2-4.5,0.7-6.6,1.5
					l-3.9-2.8c-0.1-0.1-0.3-0.1-0.4,0l-4.6,3.4c-0.2,0.1-0.3,0.3-0.2,0.4l1.3,4.5c-1.4,1.7-2.7,3.6-3.5,5.7l-4.7,0.8
					c-0.2,0-0.3,0.2-0.3,0.3l-0.9,5.6c-0.1,0.2,0,0.3,0.2,0.4l4.2,2.3c0.2,2.3,0.7,4.5,1.5,6.6l-2.8,3.9c-0.1,0.1-0.1,0.3,0,0.4
					L30,116.8z"/>
				<g>
					<path class="st3" d="M48.2,105.6c-1.2-0.1-2.4-0.5-3.4-1.3c-1.2-1-1.8-2.4-2-3.9c-0.3-3.2,2.2-6,5.4-6.3s6,2.2,6.3,5.4
						c0.2,1.6-0.3,3.1-1.3,4.3c-1,1.2-2.4,1.8-3.9,2C48.9,105.7,48.7,105.8,48.2,105.6z M49.1,95.6c-0.3,0-0.4,0-0.7,0
						c-2.4,0.2-4.1,2.3-3.9,4.6c0.1,1.2,0.7,2.2,1.5,2.9s1.9,1.1,3.1,1l0,0c1.2-0.1,2.2-0.7,2.9-1.5c0.8-0.8,1.1-1.9,1-3.1
						C52.9,97.4,51.1,95.7,49.1,95.6z"/>
				</g>
				<path class="st3" d="M63.2,102.2c0.1-0.5,0.2-1,0.2-1.5c0.3-3.3-0.8-6.6-2.7-9.3c-2.3-3.2-5.6-5.2-9.5-5.9
					c-3.8-0.7-7.6,0.3-10.8,2.5c-3.2,2.3-5.2,5.6-5.9,9.5c-0.1,0.4-0.2,0.9-0.2,1.4c-0.1,2.1,0.3,4.2,1,6.2c0.2,0.4,0.6,0.6,1,0.4
					c0.3-0.1,0.5-0.4,0.5-0.7c0-0.1,0-0.3-0.1-0.3c-0.7-1.8-0.9-3.6-0.8-5.5c0.1-0.5,0.1-0.9,0.2-1.3c0.6-3.4,2.4-6.5,5.3-8.5
					c2.8-2,6.2-2.9,9.7-2.3c3.4,0.6,6.5,2.4,8.5,5.3c1.8,2.5,2.6,5.5,2.4,8.4c-0.1,0.4-0.1,0.9-0.2,1.3c-0.6,3.4-2.4,6.5-5.3,8.5
					c0,0.1-0.1,0.1-0.1,0.1l0,0c-1,0.7-2,1.2-3.1,1.6c-2,0.7-4.2,0.9-6.4,0.6c-0.1,0-0.1,0-0.2,0l0,0c-0.9-0.2-1.8-0.4-2.7-0.8
					c-0.4-0.2-0.8,0-1,0.4c-0.1,0.1-0.1,0.2-0.1,0.3c0,0.3,0.2,0.6,0.5,0.8c0,0.1,0.1,0.1,0.1,0.1c0.9,0.3,1.8,0.6,2.9,0.8
					c0.5,0.1,1,0.2,1.5,0.2C55.3,114.8,62,109.7,63.2,102.2z"/>
			</g>
		</g>
	</g>
	<g>
		<g>
			<g>
				
					<linearGradient id="SVGID_2_" gradientUnits="userSpaceOnUse" x1="174.1398" y1="29.5312" x2="208.379" y2="29.5312" gradientTransform="matrix(1 0 0 -1 0 332)">
					<stop  offset="0" style="stop-color:#09005D"/>
					<stop  offset="1" style="stop-color:#1A0F91"/>
				</linearGradient>
				<path class="st4" d="M188.2,292.9l-14.1,6.7l19.8,11.4c1.8,1,3.9,1.3,5.9,0.8l8.5-2.2L188.2,292.9z"/>
				
					<linearGradient id="SVGID_3_" gradientUnits="userSpaceOnUse" x1="174.1398" y1="29.5312" x2="208.379" y2="29.5312" gradientTransform="matrix(1 0 0 -1 0 332)">
					<stop  offset="0" style="stop-color:#09005D"/>
					<stop  offset="1" style="stop-color:#1A0F91"/>
				</linearGradient>
				<path class="st5" d="M188.2,292.9l-14.1,6.7l19.8,11.4c1.8,1,3.9,1.3,5.9,0.8l8.5-2.2L188.2,292.9z"/>
			</g>
			
				<linearGradient id="SVGID_4_" gradientUnits="userSpaceOnUse" x1="191.2" y1="47.95" x2="285.6" y2="47.95" gradientTransform="matrix(1 0 0 -1 0 332)">
				<stop  offset="0" style="stop-color:#09005D"/>
				<stop  offset="1" style="stop-color:#1A0F91"/>
			</linearGradient>
			<path class="st6" d="M191.2,295.8l17.2,13.9c0,0,64.1-20.8,77.2-45.4l-6.7-5.9L191.2,295.8z"/>
		</g>
		<path class="st2" d="M199.7,295.8l-24,8c-0.7,0.2-1.5,0.4-2.2,0.6c-4.7,0.9-9.5,0.1-13.6-2.5L46.9,231l4.9-19.4l9.2-36.7l3.4,2.9
			L199.7,295.8z"/>
		<g>
			
				<linearGradient id="SVGID_5_" gradientUnits="userSpaceOnUse" x1="168.1" y1="148.1539" x2="257.2" y2="148.1539" gradientTransform="matrix(1 0 0 -1 0 332)">
				<stop  offset="0" style="stop-color:#09005D"/>
				<stop  offset="1" style="stop-color:#1A0F91"/>
			</linearGradient>
			<path class="st7" d="M257.2,217.1v8l-2-1.6l-87.1-67.8l0.9-9.3c0.1-1.2,0.7-2.2,1.6-2.9c0.3-0.2,0.6-0.4,1-0.6
				c1.4-0.6,3.1-0.3,4.3,0.7l77.3,64.9C255.7,210.6,257.2,213.8,257.2,217.1z"/>
			
				<linearGradient id="SVGID_6_" gradientUnits="userSpaceOnUse" x1="168.1" y1="148.5093" x2="255.2" y2="148.5093" gradientTransform="matrix(1 0 0 -1 0 332)">
				<stop  offset="0" style="stop-color:#09005D"/>
				<stop  offset="1" style="stop-color:#1A0F91"/>
			</linearGradient>
			<path class="st8" d="M255.2,218v5.5l-87.1-67.8l0.9-9.3c0.1-1.2,0.7-2.2,1.6-2.9c1.1-0.1,2.3,0.2,3.1,1l77.4,64.9
				C253.7,211.4,255.2,214.6,255.2,218z"/>
		</g>
		
			<linearGradient id="SVGID_7_" gradientUnits="userSpaceOnUse" x1="15.2" y1="193.5313" x2="157.5938" y2="193.5313" gradientTransform="matrix(1 0 0 -1 0 332)">
			<stop  offset="0" style="stop-color:#09005D"/>
			<stop  offset="1" style="stop-color:#1A0F91"/>
		</linearGradient>
		<path class="st9" d="M145.5,179.7c-10.5,5.2-24.7-0.9-36.2-14.1L70,185.9l-2.1-1.7l-1.6-1.3l-51.1-40.4c0,0,85.9-48.9,87.5-49.6
			c1-0.5,2-0.9,3.1-1.2l1.7-0.4c9.6-1.6,21.1,4.2,30.8,15c4.3,4.8,8.3,10.7,11.6,17.3c2,4.1,3.6,8.1,4.8,12.2
			c0.3,0.9,0.6,1.9,0.8,2.8l0.7,2.9C159.9,159,156.2,174.4,145.5,179.7z"/>
		<path class="st3" d="M285.6,243.9l-131-108.1l-88.3,49c0,0,69.8,55.5,133.3,111c45.4,1,76.6-31.5,86.7-43.8
			C288.4,249.6,288,245.9,285.6,243.9z"/>
		
			<linearGradient id="SVGID_8_" gradientUnits="userSpaceOnUse" x1="3.0617" y1="146.0123" x2="70.0543" y2="146.0123" gradientTransform="matrix(1 0 0 -1 0 332)">
			<stop  offset="0" style="stop-color:#1A0F91"/>
			<stop  offset="1" style="stop-color:#09005D"/>
		</linearGradient>
		<path class="st10" d="M65.2,222.9c-1.9,2.8-4.3,5-7.2,6.5c-3.4,1.7-7.1,2.2-11.1,1.6c-12.6-1.7-27.1-14.1-36.1-32.3
			c-11.8-24-9.9-49.1,4.3-56.1c0.6-0.3,1.2-0.5,1.8-0.8c14.1-5.1,34,8.5,45.4,31.5c0.7,1.5,1.4,3,2.1,4.6
			C71.8,195.4,71.8,212.9,65.2,222.9z"/>
		<g>
			
				<linearGradient id="SVGID_9_" gradientUnits="userSpaceOnUse" x1="231.8599" y1="97.0848" x2="268.6878" y2="97.0848" gradientTransform="matrix(1 0 0 -1 0 332)">
				<stop  offset="0" style="stop-color:#E1473D"/>
				<stop  offset="1" style="stop-color:#E9605A"/>
			</linearGradient>
			<path class="st11" d="M267.5,239c1.6,1.3,1.6,3.1-0.1,4.1l-7.8,4.6c-1.7,1-4.3,0.8-5.9-0.5L233,230.7c-1.6-1.3-1.5-3.1,0.2-4
				l7.8-4.6c1.7-1,4.3-0.7,5.9,0.5L267.5,239z"/>
			<path class="st12" d="M129.6,221.1c-2.2,1.3-5.7,1-7.6-0.6l-33.9-27.8c-1.9-1.6-1.7-3.9,0.6-5.1l63.1-35.5c2.2-1.2,5.5-1,7.5,0.5
				l34.2,26.9c2,1.6,1.8,3.9-0.4,5.1L129.6,221.1z"/>
			<path class="st13" d="M192.2,184l-63.4,36.3c-1.7,1-4.3,0.8-5.7-0.4l-33.9-27.8c-1.4-1.2-1.2-2.9,0.4-3.8l3-1.7l60.1-33.8
				c1.6-0.9,4.1-0.7,5.6,0.4l28.8,22.7l5.4,4.3C193.9,181.4,193.8,183.1,192.2,184z"/>
			<path class="st14" d="M192.2,184l-63.4,36.3c-1.7,1-4.3,0.8-5.7-0.4l-33.9-27.8c-1.4-1.2-1.2-2.9,0.4-3.8l3-1.7
				c3.7,2,8.5,3,11.7,2.2c11.1-2.9,21.1-16.3,33.1-7.3c7,5.3,13.2,15.5,23.3,12c8.9-3.1,13.2-12.4,21.2-16.6c1.7-0.9,3.4-1.1,5.2-1
				l5.4,4.3C193.9,181.4,193.8,183.1,192.2,184z"/>
			<g>
				
					<linearGradient id="SVGID_10_" gradientUnits="userSpaceOnUse" x1="133.0638" y1="104.4" x2="155.38" y2="104.4" gradientTransform="matrix(1 0 0 -1 0 332)">
					<stop  offset="0" style="stop-color:#4F52FF"/>
					<stop  offset="1" style="stop-color:#4042E2"/>
				</linearGradient>
				<path class="st15" d="M154.4,226.1c1.4,1.1,1.3,2.8-0.3,3.7l-8.3,4.8c-1.6,0.9-4,0.7-5.4-0.4L134,229c-1.4-1.1-1.2-2.8,0.4-3.7
					l8.3-4.7c1.6-0.9,4-0.7,5.4,0.4L154.4,226.1z"/>
				
					<linearGradient id="SVGID_11_" gradientUnits="userSpaceOnUse" x1="151.8667" y1="115.3" x2="174.1267" y2="115.3" gradientTransform="matrix(1 0 0 -1 0 332)">
					<stop  offset="0" style="stop-color:#4F52FF"/>
					<stop  offset="1" style="stop-color:#4042E2"/>
				</linearGradient>
				<path class="st16" d="M173.2,215.3c1.4,1.1,1.3,2.8-0.3,3.7l-8.2,4.7c-1.6,0.9-4,0.7-5.4-0.4l-6.4-5.2c-1.4-1.1-1.3-2.8,0.3-3.7
					l8.2-4.7c1.6-0.9,4-0.7,5.4,0.4L173.2,215.3z"/>
				
					<linearGradient id="SVGID_12_" gradientUnits="userSpaceOnUse" x1="170.5565" y1="126" x2="192.7682" y2="126" gradientTransform="matrix(1 0 0 -1 0 332)">
					<stop  offset="0" style="stop-color:#4F52FF"/>
					<stop  offset="1" style="stop-color:#4042E2"/>
				</linearGradient>
				<path class="st17" d="M191.8,204.6c1.4,1.1,1.3,2.8-0.3,3.7l-8.2,4.7c-1.6,0.9-4,0.7-5.4-0.4l-6.4-5.2c-1.4-1.1-1.3-2.8,0.3-3.7
					l8.2-4.7c1.6-0.9,4-0.7,5.4,0.4L191.8,204.6z"/>
				
					<linearGradient id="SVGID_13_" gradientUnits="userSpaceOnUse" x1="189.1147" y1="136.7" x2="211.2657" y2="136.7" gradientTransform="matrix(1 0 0 -1 0 332)">
					<stop  offset="0" style="stop-color:#4F52FF"/>
					<stop  offset="1" style="stop-color:#4042E2"/>
				</linearGradient>
				<path class="st18" d="M210.3,193.9c1.4,1.1,1.3,2.7-0.2,3.6l-8.1,4.7c-1.6,0.9-4,0.7-5.4-0.4l-6.4-5.1c-1.4-1.1-1.3-2.7,0.3-3.6
					l8.1-4.7c1.5-0.9,3.9-0.7,5.3,0.4L210.3,193.9z"/>
			</g>
			<g>
				
					<linearGradient id="SVGID_14_" gradientUnits="userSpaceOnUse" x1="146.9911" y1="93.034" x2="169.4445" y2="93.034" gradientTransform="matrix(1 0 0 -1 0 332)">
					<stop  offset="0" style="stop-color:#4F52FF"/>
					<stop  offset="1" style="stop-color:#4042E2"/>
				</linearGradient>
				<path class="st19" d="M168.5,237.5l-6.5-5.3c-1.4-1.1-3.8-1.3-5.4-0.4l-8.3,4.8c-1.6,0.9-1.7,2.6-0.3,3.8l6.5,5.3
					c1.4,1.2,3.9,1.3,5.4,0.4l8.3-4.8C169.7,240.4,169.9,238.7,168.5,237.5z"/>
				
					<linearGradient id="SVGID_15_" gradientUnits="userSpaceOnUse" x1="165.8526" y1="103.9" x2="188.2438" y2="103.9" gradientTransform="matrix(1 0 0 -1 0 332)">
					<stop  offset="0" style="stop-color:#4F52FF"/>
					<stop  offset="1" style="stop-color:#4042E2"/>
				</linearGradient>
				<path class="st20" d="M187.3,226.6l-6.5-5.2c-1.4-1.1-3.8-1.3-5.4-0.4l-8.2,4.8c-1.6,0.9-1.7,2.6-0.3,3.7l6.5,5.3
					c1.4,1.1,3.9,1.3,5.4,0.4l8.2-4.8C188.6,229.5,188.7,227.8,187.3,226.6z"/>
				
					<linearGradient id="SVGID_16_" gradientUnits="userSpaceOnUse" x1="184.5805" y1="114.8" x2="206.9099" y2="114.8" gradientTransform="matrix(1 0 0 -1 0 332)">
					<stop  offset="0" style="stop-color:#4F52FF"/>
					<stop  offset="1" style="stop-color:#4042E2"/>
				</linearGradient>
				<path class="st21" d="M205.9,215.8l-6.5-5.2c-1.4-1.1-3.8-1.3-5.4-0.4l-8.2,4.7c-1.6,0.9-1.7,2.6-0.3,3.7l6.5,5.2
					c1.4,1.1,3.8,1.3,5.4,0.4l8.2-4.8C207.2,218.6,207.3,216.9,205.9,215.8z"/>
				
					<linearGradient id="SVGID_17_" gradientUnits="userSpaceOnUse" x1="203.176" y1="125.4" x2="225.444" y2="125.4" gradientTransform="matrix(1 0 0 -1 0 332)">
					<stop  offset="0" style="stop-color:#4F52FF"/>
					<stop  offset="1" style="stop-color:#4042E2"/>
				</linearGradient>
				<path class="st22" d="M224.4,205.1l-6.5-5.1c-1.4-1.1-3.8-1.3-5.4-0.4l-8.1,4.7c-1.6,0.9-1.7,2.5-0.3,3.7l6.5,5.2
					c1.4,1.1,3.8,1.3,5.4,0.4l8.1-4.7C225.8,207.8,225.9,206.2,224.4,205.1z"/>
			</g>
			
				<linearGradient id="SVGID_18_" gradientUnits="userSpaceOnUse" x1="161.0705" y1="81.4" x2="183.6305" y2="81.4" gradientTransform="matrix(1 0 0 -1 0 332)">
				<stop  offset="0" style="stop-color:#4F52FF"/>
				<stop  offset="1" style="stop-color:#4042E2"/>
			</linearGradient>
			<path class="st23" d="M182.6,249.1c1.4,1.2,1.3,2.9-0.3,3.8l-8.3,4.9c-1.6,0.9-4,0.7-5.5-0.4L162,252c-1.4-1.2-1.3-2.9,0.3-3.8
				l8.3-4.8c1.6-0.9,4-0.7,5.4,0.4L182.6,249.1z"/>
			
				<linearGradient id="SVGID_19_" gradientUnits="userSpaceOnUse" x1="179.971" y1="92.45" x2="202.4815" y2="92.45" gradientTransform="matrix(1 0 0 -1 0 332)">
				<stop  offset="0" style="stop-color:#4F52FF"/>
				<stop  offset="1" style="stop-color:#4042E2"/>
			</linearGradient>
			<path class="st24" d="M201.5,238.1c1.4,1.2,1.3,2.8-0.3,3.8l-8.3,4.8c-1.6,0.9-4,0.7-5.5-0.4l-6.5-5.3c-1.4-1.2-1.3-2.8,0.3-3.8
				l8.2-4.8c1.6-0.9,4-0.7,5.4,0.4L201.5,238.1z"/>
			
				<linearGradient id="SVGID_20_" gradientUnits="userSpaceOnUse" x1="198.7368" y1="103.4" x2="221.185" y2="103.4" gradientTransform="matrix(1 0 0 -1 0 332)">
				<stop  offset="0" style="stop-color:#4F52FF"/>
				<stop  offset="1" style="stop-color:#4042E2"/>
			</linearGradient>
			<path class="st25" d="M220.2,227.2c1.4,1.1,1.3,2.8-0.2,3.7l-8.2,4.8c-1.6,0.9-4,0.7-5.4-0.4l-6.6-5.3c-1.4-1.1-1.3-2.8,0.3-3.7
				l8.2-4.8c1.6-0.9,4-0.7,5.4,0.4L220.2,227.2z"/>
			
				<linearGradient id="SVGID_21_" gradientUnits="userSpaceOnUse" x1="217.3693" y1="114.2" x2="239.7557" y2="114.2" gradientTransform="matrix(1 0 0 -1 0 332)">
				<stop  offset="0" style="stop-color:#4F52FF"/>
				<stop  offset="1" style="stop-color:#4042E2"/>
			</linearGradient>
			<path class="st26" d="M238.7,216.3c1.4,1.1,1.4,2.8-0.2,3.7l-8.1,4.8c-1.6,0.9-4,0.7-5.4-0.4l-6.6-5.2c-1.4-1.1-1.3-2.8,0.2-3.7
				l8.1-4.7c1.6-0.9,4-0.7,5.4,0.4L238.7,216.3z"/>
			<g class="st27">
				
					<linearGradient id="SVGID_22_" gradientUnits="userSpaceOnUse" x1="175.2843" y1="69.85" x2="197.979" y2="69.85" gradientTransform="matrix(1 0 0 -1 0 332)">
					<stop  offset="0" style="stop-color:#4F52FF"/>
					<stop  offset="1" style="stop-color:#4042E2"/>
				</linearGradient>
				<path class="st28" d="M197,260.7c1.4,1.2,1.3,2.9-0.3,3.8l-8.3,4.9c-1.6,0.9-4.1,0.7-5.5-0.4l-6.6-5.4c-1.4-1.2-1.3-2.9,0.3-3.8
					l8.3-4.9c1.6-0.9,4-0.7,5.5,0.4L197,260.7z"/>
				
					<linearGradient id="SVGID_23_" gradientUnits="userSpaceOnUse" x1="194.22" y1="80.9" x2="216.8513" y2="80.9" gradientTransform="matrix(1 0 0 -1 0 332)">
					<stop  offset="0" style="stop-color:#4F52FF"/>
					<stop  offset="1" style="stop-color:#4042E2"/>
				</linearGradient>
				<path class="st29" d="M215.8,249.6c1.4,1.2,1.3,2.9-0.2,3.8l-8.3,4.9c-1.6,0.9-4,0.7-5.5-0.4l-6.6-5.4c-1.4-1.2-1.3-2.9,0.3-3.8
					l8.3-4.8c1.6-0.9,4-0.7,5.5,0.4L215.8,249.6z"/>
				
					<linearGradient id="SVGID_24_" gradientUnits="userSpaceOnUse" x1="213.0271" y1="91.95" x2="235.5827" y2="91.95" gradientTransform="matrix(1 0 0 -1 0 332)">
					<stop  offset="0" style="stop-color:#4F52FF"/>
					<stop  offset="1" style="stop-color:#4042E2"/>
				</linearGradient>
				<path class="st30" d="M234.6,238.6c1.5,1.2,1.4,2.8-0.2,3.8l-8.2,4.8c-1.6,0.9-4,0.7-5.5-0.4l-6.6-5.3c-1.4-1.2-1.3-2.8,0.2-3.8
					l8.2-4.8c1.6-0.9,4-0.7,5.5,0.4L234.6,238.6z"/>
			</g>
			<g class="st27">
				
					<linearGradient id="SVGID_25_" gradientUnits="userSpaceOnUse" x1="189.4017" y1="58.1841" x2="212.2172" y2="58.1841" gradientTransform="matrix(1 0 0 -1 0 332)">
					<stop  offset="0" style="stop-color:#4F52FF"/>
					<stop  offset="1" style="stop-color:#4042E2"/>
				</linearGradient>
				<path class="st31" d="M211.2,272.3c1.5,1.2,1.3,2.9-0.2,3.9l-8.4,4.9c-1.6,0.9-4.1,0.8-5.5-0.4l-6.6-5.4
					c-1.4-1.2-1.3-2.9,0.3-3.9l8.3-4.9c1.6-0.9,4.1-0.7,5.5,0.4L211.2,272.3z"/>
				
					<linearGradient id="SVGID_26_" gradientUnits="userSpaceOnUse" x1="208.38" y1="69.45" x2="231.1316" y2="69.45" gradientTransform="matrix(1 0 0 -1 0 332)">
					<stop  offset="0" style="stop-color:#4F52FF"/>
					<stop  offset="1" style="stop-color:#4042E2"/>
				</linearGradient>
				<path class="st32" d="M230.1,261.1c1.5,1.2,1.4,2.9-0.2,3.8l-8.3,4.9c-1.6,0.9-4.1,0.7-5.5-0.4l-6.7-5.4
					c-1.5-1.2-1.3-2.9,0.3-3.8l8.3-4.9c1.6-0.9,4-0.7,5.5,0.4L230.1,261.1z"/>
				
					<linearGradient id="SVGID_27_" gradientUnits="userSpaceOnUse" x1="227.2348" y1="80.5" x2="249.9229" y2="80.5" gradientTransform="matrix(1 0 0 -1 0 332)">
					<stop  offset="0" style="stop-color:#4F52FF"/>
					<stop  offset="1" style="stop-color:#4042E2"/>
				</linearGradient>
				<path class="st33" d="M248.9,250c1.5,1.2,1.4,2.9-0.2,3.8l-8.2,4.9c-1.6,0.9-4,0.7-5.5-0.4l-6.7-5.4c-1.5-1.2-1.4-2.9,0.2-3.8
					l8.2-4.8c1.6-0.9,4-0.7,5.5,0.4L248.9,250z"/>
			</g>
		</g>
		<path class="st2" d="M154.6,135.7l-86.7,48.5l-1,0.6c-0.2-0.6-0.4-1.2-0.6-1.9c-1.1-3.2-2.4-6.5-4-9.7
			c-3.1-6.3-6.8-11.9-10.9-16.6L60,151c0,0,8.4,8.4,10.7,15.4l66.8-36.7l-10.9-16.5l11.8-6.8c4.3,4.8,8.3,10.7,11.6,17.3
			C151.8,127.6,153.4,131.7,154.6,135.7z"/>
		<path class="st12" d="M126.5,113.1c0,0,5.8,15.3,4,20.4c7-3.8,7.4-3.6,7.4-3.6L126.5,113.1z"/>
		<path class="st34" d="M173.4,304.4c-4.7,0.9-9.5,0.1-13.6-2.5L46.9,231c-12.6-1.7-27.1-14.1-36.1-32.3c-11.8-24-9.9-49.1,4.3-56.1
			c0.6-0.3,1.2-0.5,1.8-0.8c5.6,5.1,10.4,12.6,8.7,23.2c-3.6,22.7-4.5,34.9,12.6,41c4.4,1.6,9.3,3.4,13.6,5.6
			c0.6,0.3,1.2,0.6,1.7,0.9c4.7,2.6,8.6,5.6,10.5,9c0,0,0.4,0.5,1.2,1.3c5.2,5.7,26.6,28.4,45.7,33.3
			C129.8,261,164.9,286.6,173.4,304.4z"/>
	</g>
	<g>
		<g>
			<g>
				
					<linearGradient id="SVGID_28_" gradientUnits="userSpaceOnUse" x1="215.903" y1="148.7096" x2="239.3918" y2="86.4644" gradientTransform="matrix(1 0 0 -1 0 332)">
					<stop  offset="0" style="stop-color:#FEBBBA"/>
					<stop  offset="1" style="stop-color:#FF928E"/>
				</linearGradient>
				<path class="st35" d="M209.8,194.1l4.6,4.6c6.6-0.6,11.6-2.7,15.5-5.3c-2.3-5.8-4.7-9.2-6.6-11.3
					C217.3,190.7,209.8,194.1,209.8,194.1z"/>
				<path class="st14" d="M242,177l-10.9-17c-0.7,9.6-4,16.8-7.7,22.1c1.9,2,4.2,5.5,6.6,11.3C239.6,186.9,242,177,242,177z"/>
			</g>
			
				<linearGradient id="SVGID_29_" gradientUnits="userSpaceOnUse" x1="3592.7244" y1="-1149.8" x2="3607.8894" y2="-1069.7626" gradientTransform="matrix(-1 0 0 -1 4065.4424 332)">
				<stop  offset="0" style="stop-color:#09005D"/>
				<stop  offset="1" style="stop-color:#1A0F91"/>
			</linearGradient>
			<path class="st36" d="M253.5,311.6c-5.4,0.2-10.7,0.1-14.2-0.1c3.2-2.3,10.6-7.2,16.7-9.2l4.2-0.3c0,0,1.4,2.2,1.9,7.2
				C261.5,310.1,259.5,311.3,253.5,311.6z"/>
			<path class="st37" d="M239.3,311.6C239.3,311.6,239.3,311.5,239.3,311.6c3.6,0.1,8.8,0.3,14.2,0.1c5.9-0.3,8-1.5,8.7-2.4
				c0,0.2,0,0.5,0.1,0.7c0.1,1.1-0.7,2.1-1.8,2.1c-4.4,0.3-15.5,1.1-20.8,0.8C239,312.9,238.7,312,239.3,311.6z"/>
			
				<linearGradient id="SVGID_30_" gradientUnits="userSpaceOnUse" x1="305.6613" y1="67.5514" x2="298.9209" y2="27.671" gradientTransform="matrix(1 0 0 -1 0 332)">
				<stop  offset="0" style="stop-color:#09005D"/>
				<stop  offset="1" style="stop-color:#1A0F91"/>
			</linearGradient>
			<path class="st38" d="M292.4,310.2c0.4-2.5,1-6.2,1.5-7.2c0.8-1.5,3.4,0,3.4,0s1.9,0.9,2.7,2.3c0.5,0.9,2.1,3.5,3.1,5.3
				c0.1,0.2,0.2,0.4,0.2,0.6l-10.6,0.4C292.4,311.2,292.3,310.7,292.4,310.2z"/>
			<path class="st37" d="M303.3,311.2c0,0.6-0.5,1.2-1.2,1.2l-7.5,0.2c-0.8,0-1.5-0.4-1.9-1L303.3,311.2z"/>
			
				<linearGradient id="SVGID_31_" gradientUnits="userSpaceOnUse" x1="3766.7881" y1="32.5319" x2="3773.873" y2="32.5319" gradientTransform="matrix(-1 0 0 -1 4065.4424 332)">
				<stop  offset="0" style="stop-color:#FEBBBA"/>
				<stop  offset="1" style="stop-color:#FF928E"/>
			</linearGradient>
			<path class="st39" d="M291.6,294.5c0.1,0.3,1.5,6.9,2.1,9.9c0.2,0.8,0.9,1.4,1.7,1.3c0.4,0,1-0.1,1.5-0.1c1-0.1,1.7-0.9,1.7-1.9
				c0.1-2.6,0.1-7.5-0.8-9.3C296.5,291.7,291.6,294.5,291.6,294.5z"/>
			
				<linearGradient id="SVGID_32_" gradientUnits="userSpaceOnUse" x1="3804.3213" y1="33.05" x2="3810.2212" y2="33.05" gradientTransform="matrix(-1 0 0 -1 4065.4424 332)">
				<stop  offset="0" style="stop-color:#FEBBBA"/>
				<stop  offset="1" style="stop-color:#FF928E"/>
			</linearGradient>
			<path class="st40" d="M261.1,296.4c-0.6,0,0.2,3-0.7,6c-0.2,0.7-0.7,1.2-1.4,1.2c-0.5,0-1,0-1.5,0c-0.8-0.1-1.5-0.7-1.6-1.5
				l-0.7-7.8L261.1,296.4z"/>
			
				<linearGradient id="SVGID_33_" gradientUnits="userSpaceOnUse" x1="312.0003" y1="166.87" x2="290.9378" y2="119.6899" gradientTransform="matrix(1 0 0 -1 0 332)">
				<stop  offset="0" style="stop-color:#1A0F91"/>
				<stop  offset="1" style="stop-color:#09005D"/>
			</linearGradient>
			<path class="st41" d="M244.7,213.7c0.3,1.3,9.5,55.2,10.1,83.2c0,0.5,0.4,0.9,0.8,0.9c1.2,0.2,3.5,0.4,5.7,0
				c0.3-0.1,0.5-0.3,0.6-0.6c0.3-5.2,2.9-49.2-0.3-69.9c0,0,26.3,55.4,30.3,70.6c0.1,0.4,0.4,0.6,0.8,0.6c1.1-0.1,3.5-0.3,5.3-0.9
				c0.7-0.2,1-0.9,0.9-1.6c-2.2-9.1-17.8-72.1-28.4-85.9L244.7,213.7z"/>
			<path class="st14" d="M229.7,146.2c6.8-1.8,19.2-4.5,29.1-3.9c2.3,0.1,4.1,1.9,4.2,4.2c1.5,26.4,3.5,49.9,7.4,63.5
				c-8.7,3.4-17.3,5-25.7,3.8c-6.4-13.6-11.9-29.3-16.7-47.1c0,0-2.8-14.2-0.1-19C228.4,146.9,228.9,146.4,229.7,146.2z"/>
			
				<linearGradient id="SVGID_34_" gradientUnits="userSpaceOnUse" x1="241.9076" y1="209.9178" x2="241.9076" y2="170.3054" gradientTransform="matrix(1 0 0 -1 0 332)">
				<stop  offset="0" style="stop-color:#FF928E"/>
				<stop  offset="1" style="stop-color:#FEBBBA"/>
			</linearGradient>
			<path class="st42" d="M245.9,127.7c0,0,1.7,10.2,2.2,14.9c0.1,0.8-0.3,1.5-1,1.8c-1.9,1-5.8,2.5-10.2,1.1
				c-0.7-0.2-1.2-0.9-1.2-1.7l0.3-13.6L245.9,127.7z"/>
			<g>
				
					<linearGradient id="SVGID_35_" gradientUnits="userSpaceOnUse" x1="3281.6599" y1="-563.4396" x2="3301.8625" y2="-534.9188" gradientTransform="matrix(-1 0 0 -1 4065.4424 332)">
					<stop  offset="0" style="stop-color:#FF928E"/>
					<stop  offset="1" style="stop-color:#FEBBBA"/>
				</linearGradient>
				<path class="st43" d="M234.8,116.4c0,0-3.3,7.6-3.5,11.5c-0.2,4-1.1,6.5,3.5,7.3s8.5-1.5,10.5-5.4c0,0,3.3-6.1,2.5-8.6
					C247.1,118.8,234.8,116.4,234.8,116.4z"/>
				
					<linearGradient id="SVGID_36_" gradientUnits="userSpaceOnUse" x1="3818.1118" y1="220.2921" x2="3835.1519" y2="198.3532" gradientTransform="matrix(-1 0 0 -1 4065.4424 332)">
					<stop  offset="0" style="stop-color:#09005D"/>
					<stop  offset="1" style="stop-color:#1A0F91"/>
				</linearGradient>
				<path class="st44" d="M243.8,127h-0.6c0,0,2.4-4.9,0.3-5.8c-2.1-0.9-10.4-2.6-12.2-5.5c-1.7-2.8-0.2-6.5,2.1-7.6
					c0.1-0.1,0.3,0,0.4,0.1l0.2,0.4c0.1,0.2,0.5,0.2,0.6-0.1l0,0c0.1-0.3,0.4-0.3,0.6-0.1c0.5,0.9,2,2.3,6,3.1
					c5.7,1,9.4,3.3,9.5,7.2c0,0.2,0.3,0.4,0.5,0.3c0.4-0.3,1.1-0.4,2,0.4c1.6,1.3,0.9,4.7-2.5,7.5c-0.2,0.1-0.2,0.4,0,0.5
					c0.6,0.4,1.5,1.4-0.8,2.6c-2.4,1.3-3.9,1.2-4.4,1c-0.1,0-0.2-0.2-0.2-0.3l0.2-3.5c0-0.2-0.1-0.3-0.3-0.3h-1.4V127z"/>
				
					<linearGradient id="SVGID_37_" gradientUnits="userSpaceOnUse" x1="3277.5615" y1="-560.535" x2="3297.7637" y2="-532.0143" gradientTransform="matrix(-1 0 0 -1 4065.4424 332)">
					<stop  offset="0" style="stop-color:#FF928E"/>
					<stop  offset="1" style="stop-color:#FEBBBA"/>
				</linearGradient>
				<path class="st45" d="M243.6,127.7c0,0,1.3-4.8,3.4-3.5c2.2,1.4-1.1,5.4-2.9,5.6L243.6,127.7z"/>
			</g>
			<g>
				
					<linearGradient id="SVGID_38_" gradientUnits="userSpaceOnUse" x1="176.4" y1="126.389" x2="330.0022" y2="126.389" gradientTransform="matrix(1 0 0 -1 0 332)">
					<stop  offset="0" style="stop-color:#DAE3FE"/>
					<stop  offset="1" style="stop-color:#E9EFFD"/>
				</linearGradient>
				<path class="st46" d="M313,206.1l-133.2-27.6l-3.4,13.3l130.4,39c0.3,0.1,0.6,0.2,0.9,0.2l4.4,1.1c7.6,1.9,14.9-0.7,16.2-5.8
					l1.5-6.1c1.3-5.1-3.8-10.9-11.5-12.8l-4.4-1.1C313.6,206.2,313.3,206.2,313,206.1z M320.8,221.2c-0.9,3.4-6.2,5-12,3.6
					c-5.7-1.5-9.7-5.4-8.8-8.8c0.9-3.4,6.2-5,12-3.6S321.7,217.8,320.8,221.2z"/>
				
					<linearGradient id="SVGID_39_" gradientUnits="userSpaceOnUse" x1="123.7953" y1="152.7213" x2="187.6365" y2="152.7213" gradientTransform="matrix(1 0 0 -1 0 332)">
					<stop  offset="0" style="stop-color:#DAE3FE"/>
					<stop  offset="1" style="stop-color:#E9EFFD"/>
				</linearGradient>
				<path class="st47" d="M136.4,160.4l25.8,6.5c1.8,0.5,3.4,1.8,4.1,3.5l3.9,8.9c1.1,2.5,0.4,5.5-1.8,7.2l-7.6,6
					c-1.5,1.2-3.4,1.6-5.3,1.1l-25.8-6.5c-3.9-1-7.2,3.1-5.4,6.6c4.4,8.5,12.5,15.3,22.7,17.9c18.6,4.7,35-6.6,39.5-24.4
					s-4.6-35.5-23.1-40.2c-10.3-2.6-20.6-0.5-28.5,4.9C131.6,154.3,132.5,159.4,136.4,160.4z"/>
				
					<linearGradient id="SVGID_40_" gradientUnits="userSpaceOnUse" x1="-245.5859" y1="1833.5609" x2="-204.5873" y2="1916.1527" gradientTransform="matrix(0.2451 -0.9695 -0.9695 -0.2451 2456.814 790.9883)">
					<stop  offset="0" style="stop-color:#09005D"/>
					<stop  offset="1" style="stop-color:#1A0F91"/>
				</linearGradient>
				<path class="st48" d="M135.8,162.8l25.8,6.5c1.8,0.5,3.4,1.8,4.1,3.5l3.9,8.9c1.1,2.5,0.4,5.5-1.8,7.2l-7.6,6
					c-1.5,1.2-3.4,1.6-5.3,1.1l-25.8-6.5c-3.9-1-7.2,3.1-5.4,6.6c4.4,8.5,12.5,15.3,22.7,17.9c18.6,4.7,35-6.6,39.5-24.4
					s-4.6-35.5-23.1-40.2c-10.3-2.6-20.6-0.5-28.5,4.9C130.9,156.7,131.9,161.8,135.8,162.8z"/>
				
					<linearGradient id="SVGID_41_" gradientUnits="userSpaceOnUse" x1="-162.7052" y1="1714.8486" x2="-121.7065" y2="1797.4403" gradientTransform="matrix(0.2451 -0.9695 -1.2017 -0.3038 2768.4612 869.8295)">
					<stop  offset="0" style="stop-color:#09005D"/>
					<stop  offset="1" style="stop-color:#1A0F91"/>
				</linearGradient>
				<path class="st49" d="M312.5,208l-133.2-27.6l-3.4,13.3l130.4,39c0.3,0.1,0.6,0.2,0.9,0.2l4.4,1.1c7.6,1.9,14.9-0.7,16.2-5.8
					l1.5-6.1c1.3-5.1-3.8-10.9-11.5-12.8l-4.4-1.1C313.1,208.2,312.8,208.1,312.5,208z M320.3,223.2c-0.9,3.4-6.2,5-12,3.6
					c-5.7-1.5-9.7-5.4-8.8-8.8c0.9-3.4,6.2-5,12-3.6C317.2,215.8,321.2,219.7,320.3,223.2z"/>
			</g>
			<g>
				
					<linearGradient id="SVGID_42_" gradientUnits="userSpaceOnUse" x1="283.2063" y1="146.1132" x2="309.6313" y2="107.9439" gradientTransform="matrix(1 0 0 -1 0 332)">
					<stop  offset="0" style="stop-color:#FEBBBA"/>
					<stop  offset="1" style="stop-color:#FF928E"/>
				</linearGradient>
				<path class="st50" d="M280.5,181.4c3.3,9.4,1.5,19.4,1.5,19.4l4.4,1.2c0,0,5.7-6.8,4.4-21.8
					C286.7,179.6,282.9,180.5,280.5,181.4z"/>
				<path class="st14" d="M290.8,180.2c-0.1-1.7-0.4-3.5-0.7-5.4c-3-16.6-24.2-29.3-29.2-32.1c-0.5-0.3-1,0.1-1,0.6l0.7,22.5
					c11.8,1.6,17.4,8.4,20,15.5C282.9,180.5,286.7,179.6,290.8,180.2z"/>
			</g>
			
				<linearGradient id="SVGID_43_" gradientUnits="userSpaceOnUse" x1="199.4527" y1="142.502" x2="222.9414" y2="80.2569" gradientTransform="matrix(1 0 0 -1 0 332)">
				<stop  offset="0" style="stop-color:#FEBBBA"/>
				<stop  offset="1" style="stop-color:#FF928E"/>
			</linearGradient>
			<path class="st51" d="M200.5,202.3c-0.8-0.2-1.5-0.8-1.8-1.6c-0.7-1.5-1.4-3.9,0.2-4.7c2.4-1.1,6.8,3.4,6.8,3.4l2.2,3.5l2,1
				C208,204.4,204.6,203.6,200.5,202.3z"/>
			
				<linearGradient id="SVGID_44_" gradientUnits="userSpaceOnUse" x1="273.1984" y1="139.2805" x2="299.9287" y2="100.6702" gradientTransform="matrix(1 0 0 -1 0 332)">
				<stop  offset="0" style="stop-color:#FEBBBA"/>
				<stop  offset="1" style="stop-color:#FF928E"/>
			</linearGradient>
			<path class="st52" d="M282.3,198.6h-5.4c0,0,4.4,2.6,4.6,5.4c0.1,2.8-1.8,8.6-2.6,10.1c-1,1.7,12.3-2.6,7.6-15.6h-4.2V198.6z"/>
		</g>
	</g>
</g>
</svg>
