<?xml version="1.0" encoding="utf-8"?>
<!-- Generator: Adobe Illustrator 24.1.2, SVG Export Plug-In . SVG Version: 6.00 Build 0)  -->
<svg version="1.1" id="Слой_1" xmlns="http://www.w3.org/2000/svg" xmlns:xlink="http://www.w3.org/1999/xlink" x="0px" y="0px"
	 viewBox="0 0 450 375.2" style="enable-background:new 0 0 450 375.2;" xml:space="preserve">
<style type="text/css">
	.st0{fill:#EC615B;}
	.st1{fill:#5222D0;}
	.st2{fill:#FFFFFF;}
	.st3{opacity:0.11;fill:#606060;enable-background:new    ;}
	.st4{fill:#161616;}
	.st5{opacity:0.1;fill:#606060;enable-background:new    ;}
	.st6{fill:#461EB8;}
	.st7{opacity:9.000000e-02;fill:#606060;enable-background:new    ;}
	.st8{opacity:0.12;fill:#606060;enable-background:new    ;}
	.st9{opacity:7.000000e-02;fill:#606060;enable-background:new    ;}
	.st10{fill:#1A1B22;}
	.st11{opacity:0.13;fill:#606060;enable-background:new    ;}
	.st12{opacity:8.000000e-02;fill:#606060;enable-background:new    ;}
	.st13{opacity:0.14;fill:#606060;enable-background:new    ;}
</style>
<g id="details">
	
		<ellipse transform="matrix(3.936923e-03 -1 1 3.936923e-03 -341.6297 356.7026)" class="st0" cx="8.2" cy="349.8" rx="4.4" ry="4.4"/>
	<circle class="st0" cx="20.2" cy="358.1" r="3.9"/>
	<circle class="st1" cx="442.8" cy="203.3" r="3.4"/>
	<circle class="st1" cx="431.7" cy="188.3" r="2.8"/>
	<circle class="st1" cx="22.2" cy="344.2" r="2"/>
	<circle class="st1" cx="69" cy="159.9" r="7.4"/>
	<circle class="st0" cx="74.8" cy="151.9" r="6.9"/>
	<circle class="st0" cx="443.8" cy="185.9" r="2.4"/>
	<circle class="st0" cx="431.6" cy="10.6" r="4.8"/>
	<path class="st0" d="M223.4,44.6c-0.7-0.5-0.8-1.3-0.4-2c0.4-0.6,1-1,1.7-1.2c0.9-0.2,1.8-0.3,2.8-0.3c1.2-0.1,2.3-0.5,3.2-1.3
		c1.1-1,0.9-2.4,0.8-3.8c-0.3-2.3,1.2-4.4,3.5-4.7c0.1,0,0.1,0,0.2,0c2-0.2,4.9,0.1,5-2.7c0.1-1.7-1.4-3.9,0.4-5
		c1.3-0.9,3.6-0.2,4.9,0.2c0.6,0.2,0.9-0.8,0.3-1c-2.3-0.8-6.6-1.4-7.2,1.9c-0.1,0.8,0,1.7,0.3,2.5c0.2,0.9,0.5,1.9-0.4,2.7
		c-0.6,0.3-1.2,0.4-1.9,0.4c-1.7,0.1-3.1,0.1-4.4,1.3c-1.2,1.1-1.9,2.7-1.8,4.3c0.1,1.8,0.2,3.5-1.8,4.1c-1,0.2-2,0.4-3.1,0.4
		c-1.4,0.2-2.9,0.7-3.6,2.1c-0.6,1.1-0.2,2.5,0.9,3.2C223.5,45.8,224,44.9,223.4,44.6L223.4,44.6z"/>
	<path class="st0" d="M237.1,37.6c-1-0.6-0.7-2,0-2.7c0.8-0.9,2.4-0.9,3.5-1c1.2-0.1,2.3-0.4,3.4-0.9c0.8-0.5,1.4-1.2,1.6-2.1
		c0.3-1.4-1-3.3-0.2-4.5s2.9-0.7,4-0.7c0.9,0,1.8-0.3,2.6-0.8c0.9-0.8,1.4-1.9,1.4-3.1c0.1-0.8,0.1-1.5,0.2-2.3c0.1-1,1.8-3.9,3-1.9
		c0.3,0.6,1.3,0.1,0.9-0.5c-0.6-1-1.8-1.4-2.9-0.9c-1.4,0.5-1.9,1.9-2.1,3.3s0,2.7-0.6,3.9s-2.1,1.3-3.3,1.3s-2.8-0.2-3.8,0.8
		c-1.1,1.2-0.5,2.7-0.3,4.1c0.6,3.6-3.8,3.1-6,3.7c-1.3,0.2-2.5,1.2-2.9,2.5c-0.4,1.1,0,2.4,1,3C237.1,39,237.7,38,237.1,37.6
		L237.1,37.6z"/>
	<path class="st1" d="M202.4,301.4c-1-1.4-0.7-3.4,0.6-4.5c1.4-1.1,3.4-0.9,4.5,0.5c0.1,0.2,0.2,0.3,0.3,0.5c1.1,1.6,0.8,3.8-0.7,5
		c-1.3,1.1-3.2,1-4.4-0.2c-0.5-0.5-0.8-1.2-0.8-2c0-0.3-0.2-0.5-0.5-0.5c-0.3,0-0.5,0.2-0.5,0.5c0,2.3,1.9,4.1,4.2,4.1
		c0.5,0,0.9-0.1,1.4-0.2c2.5-0.9,3.8-3.7,2.9-6.2c-0.1-0.2-0.2-0.5-0.3-0.7c-1.2-2.3-4.1-3.5-6.4-1.9c-2,1.4-2.5,4.2-1.1,6.3
		c0,0,0,0.1,0.1,0.1C202,302.7,202.8,302,202.4,301.4L202.4,301.4z"/>
	<path class="st1" d="M209.7,306.6c-1.4-0.8-2.5-2-3-3.5c-0.6-2.4,1.6-4.4,3.9-3.1c1.4,0.8,2.8,2.5,2.5,4.3
		c-0.2,1.5-2.6,2.9-3.7,1.3c-0.4-0.5-1.3,0-0.9,0.5c1.1,1.4,3.1,1.6,4.5,0.4c0.2-0.2,0.3-0.3,0.5-0.5c1.8-2.1,0.2-5.1-1.7-6.6
		c-2.1-1.6-4.9-1.3-5.9,1.4s1,5.3,3.3,6.8c0.3,0.2,0.6,0.1,0.8-0.2C210.1,307.1,210,306.8,209.7,306.6L209.7,306.6L209.7,306.6z"/>
	<path class="st1" d="M68.1,289.8c-1.1-0.7-1.4-2.1-0.7-3.1c0.1-0.1,0.2-0.2,0.2-0.3c0.9-1,2.1-0.8,3.3-0.3c1,0.6,2.1,0.9,3.3,0.8
		c3.7-0.7,0.3-6,3.3-7.2c1.3-0.5,1.5,0.3,2.3,1c0.3,0.4,0.8,0.6,1.3,0.6c0.9,0,1.6-0.5,2.1-1.2c0.8-1.3,0.4-3,0.8-4.4
		c0.2-1,0.8-2,1.7-2.5c1.1-0.5,2.9,0,2.9,1.5c0,0.3,0.3,0.5,0.6,0.5c0.2,0,0.4-0.2,0.5-0.5c0-3.2-4.1-3.4-5.7-1.3
		c-0.5,0.6-0.8,1.3-1,2.1c-0.3,1,0,2.6-0.4,3.5c-1.3,2.8-2.1,0.8-2.7,0.1c-0.3-0.3-0.6-0.5-0.9-0.6c-0.6-0.2-1.3-0.1-1.8,0.1
		c-1.7,0.8-2,2.6-2.1,4.4c0,1,0.4,2.7-1.3,2.9c-0.7,0-1.4-0.2-2-0.6c-0.7-0.4-1.5-0.7-2.3-0.8c-3.4-0.2-4.7,4.1-2.2,6.1
		C67.9,291,68.7,290.3,68.1,289.8L68.1,289.8z"/>
	<path class="st1" d="M80.9,273.7c-0.7-1.3-0.4-3,0.7-4c1.1-1,2.3-0.6,3.6-1c1.7-0.5,1.8-1.9,2-3.5c0.4-4.8,8-2.2,8.6-7.1
		c0.1-0.7-1-0.7-1.1,0c-0.3,2.8-4.8,2.5-6.7,3.7c-0.7,0.4-1.3,1-1.6,1.8c-0.4,1-0.1,2-0.4,2.9c-0.6,1.8-2.6,1.1-3.9,1.6
		c-0.6,0.3-1.2,0.7-1.6,1.3c-1.1,1.4-1.3,3.3-0.5,4.8C80.3,274.8,81.2,274.3,80.9,273.7L80.9,273.7z"/>
	<path class="st0" d="M43,18c-1-2.8-1.3-6.5,1.6-8.3s5.5,0.9,5.8,3.7c0.2,2.6-1.3,5-3.8,5.9c-2.4,0.6-4.9-0.8-5.5-3.2
		c0-0.1,0-0.2-0.1-0.3c-0.1-0.7-1.2-0.4-1,0.3c0.6,3,3.6,5,6.6,4.3c0.1,0,0.3-0.1,0.4-0.1c3.1-1.1,4.9-4.1,4.5-7.4
		C51,9.8,48,7.1,44.7,8.5c-3.9,1.7-4,6.4-2.7,9.8c0.1,0.3,0.4,0.4,0.7,0.2C43,18.5,43.1,18.3,43,18L43,18z"/>
	<path class="st0" d="M47.1,11.9c-4.3-0.8-2.3-7.9,1-8.7c2.8-0.7,3.7,2.5,3.3,4.6c-0.2,0.9-0.5,1.7-0.9,2.4c-0.5,1-2.4,2.9-3.3,0.9
		c-0.3-0.7-1.2-0.1-1,0.5c0.4,1,1.5,1.6,2.6,1.3c1.3-0.3,2.2-1.5,2.8-2.7c1.3-2.7,1.7-6.6-1.5-8.1c-5.4-2.5-9.9,9.5-3.4,10.7
		C47.4,13.1,47.8,12.1,47.1,11.9L47.1,11.9z"/>
	<path class="st1" d="M373,274.2c-1.5-2.9,2.8-4.8,4.1-1.8c0.1,0.2,0.4,0.3,0.6,0.3c1.6-0.6,2.2-1.9,3-3.3c0.6-1,1.2-2.4,2.6-2.5
		c1.5,0,2.7,1.1,2.8,2.6c0,0.1,0,0.2,0,0.3c-0.1,0.7,1,0.7,1.1,0c0.2-2.1-1.4-3.9-3.4-4c-0.3,0-0.6,0-0.9,0c-3,0.6-2.8,4.8-5.4,5.8
		c0.2,0.1,0.4,0.2,0.6,0.3c-1.9-4.3-8.1-1.3-6,2.9C372.4,275.3,373.3,274.8,373,274.2L373,274.2z"/>
	<path class="st1" d="M366.5,54c-1.4,1.5-1.8,3.8-1.1,5.7c0.4,0.9,1,1.6,1.7,2.2c1.2,0.9,3.5,1.8,3,3.5c-0.4,1.8-2.5,3.2-0.3,4.6
		c0.9,0.4,1.9,0.8,2.9,0.9c1.5,0.4,2.3,1.9,1.9,3.3c-0.1,0.4-0.3,0.8-0.7,1.2c-0.5,0.5,0.3,1.3,0.8,0.8c1.5-1.5,1.5-3.9,0-5.3
		c-0.5-0.5-1.1-0.8-1.7-1c-0.5-0.2-1.1-0.3-1.7-0.4c-1.3-0.4-1.3-1.4-0.8-2.5c0.4-0.9,1-1.4,0.8-2.5c-0.2-0.8-0.7-1.5-1.4-2
		c-1.1-0.9-2.5-1.5-3.3-2.7c-0.9-1.7-0.7-3.7,0.5-5.2C367.7,54.2,367,53.4,366.5,54L366.5,54z"/>
	<path class="st1" d="M378.4,66.4c-1,0.3-1.7,1.3-1.5,2.4c0.1,1.5,1.5,2.3,2.6,3c0.8,0.3,1.3,1,1.4,1.9c0.1,0.6,0.1,1.2,0,1.8
		c0,0.5,0.1,0.9,0.4,1.3c0.4,0.5,0.9,0.8,1.5,1.1c1.3,0.8,1.8,2.4,1.2,3.8c-0.3,0.7,0.8,0.9,1,0.3c0.4-1.1,0.4-2.3-0.1-3.3
		c-0.6-1.2-2.9-2-2.9-3.3c0-0.6,0.4-1,0.3-1.6c-0.1-0.5-0.3-0.9-0.5-1.3c-0.5-0.6-1.1-1.2-1.8-1.6c-0.8-0.5-3.5-2.8-1.3-3.3
		c0.3,0,0.5-0.3,0.5-0.5c0-0.3-0.3-0.5-0.5-0.5C378.6,66.4,378.5,66.4,378.4,66.4L378.4,66.4z"/>
	<path class="st0" d="M376.9,162l10-8c-0.3-0.1-0.6-0.3-1-0.4c-0.3,2.4-0.9,4.7-2,6.8c-0.1,0.3,0,0.6,0.2,0.8c0.2,0.1,0.4,0.1,0.5,0
		c4-2.5,8.1-4.8,12.3-6.8l-0.8-0.8c-1.5,2.1-2.5,4.6-3,7.1c-0.1,0.3,0.1,0.6,0.4,0.7c0.1,0,0.3,0,0.4,0l10.7-6.3
		c-0.3-0.2-0.5-0.4-0.8-0.6c-0.4,2.1-0.8,4.2-1.3,6.4c-0.1,0.7,0.9,1,1.1,0.3c0.4-2.1,0.8-4.2,1.3-6.4c0.1-0.3-0.1-0.6-0.4-0.7
		c-0.1,0-0.3,0-0.4,0l-10.7,6.3c0.3,0.2,0.5,0.4,0.8,0.6c0.5-2.5,1.5-4.8,2.9-6.9c0.3-0.5-0.3-0.9-0.8-0.8c-4.2,2-8.4,4.3-12.3,6.8
		l0.8,0.8c1.2-2.3,1.9-4.8,2.2-7.4c0.1-0.5-0.6-0.6-0.9-0.4l-10,8C375.7,161.7,376.4,162.5,376.9,162L376.9,162z"/>
	<path class="st0" d="M390.8,169c2.5-1.6,4.9-3.1,7.3-4.7c-0.3-0.1-0.5-0.3-0.8-0.5c-0.2,1.7-0.6,3.4-1.3,5
		c-0.2,0.5,0.4,0.8,0.8,0.6c4-2.2,8-4.6,11.8-7.3c-0.3-0.2-0.5-0.4-0.8-0.6c-0.7,1.7-1.5,3.5-2.2,5.2c-0.3,0.6,0.8,0.9,1.1,0.3
		c0.7-1.7,1.5-3.5,2.2-5.2c0.2-0.4-0.4-0.9-0.8-0.6c-3.8,2.6-7.7,5-11.8,7.3c0.3,0.2,0.5,0.4,0.8,0.6c0.6-1.7,1.1-3.5,1.3-5.3
		c0-0.3-0.3-0.6-0.6-0.5c-0.1,0-0.2,0-0.2,0.1l-7.3,4.6C389.6,168.4,390.2,169.3,390.8,169L390.8,169z"/>
	<circle class="st1" cx="420.6" cy="336.5" r="6.1"/>
</g>
<g id="girl">
	<g id="leg_right">
		<path d="M299.7,344.7c0.4,2.4,0.8,4.9,1.2,7.3c-3.5,3.9-7.4,7.3-11.7,10.3c-3.4,2.3-8.1,5.1-12.3,10.9c-0.5,0.8-0.9,1.4-1.2,1.8
			l12.1-3.5c9-2.6,18-5.2,27-7.9c-1.5-9.1-2.9-18.2-4.4-27.3L299.7,344.7z"/>
		<path class="st2" d="M278.2,224.8c0.1,2.3,0.2,5.6,0.5,9.6c0.4,6.1,1.5,19.9,7.1,49.1c4,20.6,8.1,38.1,12.3,55.5
			c0.6,2.6,1.1,4.7,1.5,6.1l11.8-2.2c-0.5-3.9-1.3-9.8-2.2-16.9c-3.5-27.6-5.7-45.2-6.6-66c-0.4-8.7-0.7-20.9-0.3-35.8
			C294.2,224.3,286.2,224.5,278.2,224.8z"/>
		<path class="st3" d="M291.4,228.6c0.4,2.6,0.9,6.6,1.6,11.3c2.5,17.9,4.5,31.1,4.9,34c1.7,11.5,4.5,31.6,9.2,69.7
			c1.4-0.1,2.9-0.3,4.3-0.4c-0.6-4-1.5-10.1-2.5-17.6c-2.4-17.8-5.5-41.5-6.6-71.1c-0.2-5.9-0.4-14.4-0.4-24.8
			C298.3,229.4,294.8,229,291.4,228.6z"/>
		<path class="st4" d="M277.6,225.4c2.5,33.4,9.1,66.3,16.6,98.9c2.1,9.3,4.4,18.6,6.6,28c0.1,0.7,1.2,0.4,1-0.3
			c-7.7-32.4-15.5-64.8-20.1-97.8c-1.3-9.6-2.4-19.1-3.1-28.7C278.6,224.7,277.5,224.7,277.6,225.4L277.6,225.4z"/>
		<path class="st4" d="M301.3,230.7c0,34.8,2.7,69.4,8.1,103.8c1.6,9.8,3.3,19.5,5.3,29.3c0.1,0.7,1.2,0.4,1-0.3
			c-7-34.1-11.2-68.6-12.7-103.4c-0.4-9.8-0.6-19.6-0.6-29.4C302.4,230,301.3,230,301.3,230.7L301.3,230.7z"/>
		<path class="st4" d="M301,351.7c-4.7,4-9.4,8-14.1,11.9c-4,3.4-8.5,6.6-11.3,11.1c-0.2,0.3-0.1,0.6,0.2,0.7
			c0.1,0.1,0.3,0.1,0.4,0.1l39.3-11.4c0.3-0.1,0.5-0.4,0.4-0.7c-0.1-0.3-0.4-0.5-0.7-0.4c-13.1,3.8-26.2,7.6-39.3,11.4
			c0.2,0.3,0.4,0.5,0.6,0.8c2.8-4.6,7.5-8,11.6-11.4c4.5-3.8,9-7.6,13.6-11.4C302.3,352.1,301.5,351.3,301,351.7L301,351.7z"/>
	</g>
	<g id="leg_left">
		<path d="M339,338.8c1.6,5.1,3.2,10.2,4.9,15.3c-3.8,2.6-7.1,5-9.8,7c-6,4.3-8.3,6.1-11,8.8c-1.9,1.8-3.3,3.4-4.2,4.5
			c3.6-0.6,11.8-1.9,20.2-3.7c6.9-1.5,5.7-1.6,8.6-2c2.4-0.2,4.8-0.9,7-1.9c0.9-0.4,1.7-0.9,2.5-1.4c-0.1-1.4-0.3-2.8-0.5-4.2
			c-0.9-7-2.4-14-4.5-20.8C347.8,339.8,343.4,339.3,339,338.8z"/>
		<path class="st2" d="M310.1,228.5c0.7,5.4,1.9,12.7,3.5,21.2c1.2,6.5,4.1,20.5,9.3,38.7c4.1,14.3,5.4,16.2,13.1,41
			c2.5,8.2,4.5,14.9,5.8,19.2c3.8-1,7.5-2.1,11.3-3.2c-0.8-4.1-1.9-10.1-3.2-17.5c-4.5-25.3-8.6-48.4-11.6-75.9
			c-1.1-9.6-2.3-23-3.2-39.3C326.7,218,318.4,223.2,310.1,228.5z"/>
		<path class="st4" d="M309.8,230.1c4.4,33,14.3,64.9,24.5,96.5c3,9.1,6,18.3,8.9,27.4c0.2,0.7,1.3,0.4,1-0.3
			c-10.3-31.8-21.4-63.5-28.6-96.3c-2-9.1-3.7-18.4-4.9-27.7C310.6,229.1,309.6,229.4,309.8,230.1L309.8,230.1z"/>
		<path class="st4" d="M334.7,218.7c2.8,38.1,7.8,76.1,15.2,113.6c2.1,10.6,4.4,21.2,6.8,31.8c0.1,0.7,1.2,0.4,1.1-0.3
			c-8.6-37.1-15-74.8-19.1-112.7c-1.2-10.8-2.1-21.6-2.9-32.4C335.8,218,334.7,218,334.7,218.7L334.7,218.7z"/>
		<path class="st4" d="M343.3,354.2c-8.9,5.9-17.9,11.8-25.2,19.8c-0.2,0.2-0.2,0.6,0,0.8c0.1,0.1,0.3,0.2,0.5,0.1
			c8.6-1.7,17.1-3.4,25.7-5.1c2.1-0.4,4.2-0.8,6.3-1.3c1.7-0.2,3.4-0.6,5-1.2c1.9-0.9,3.1-3.2,1.5-5c-0.5-0.5-1.2,0.3-0.8,0.8
			c2.9,3.4-6.3,4.5-7.8,4.8l-10.2,2.1l-20,4c0.2,0.3,0.4,0.6,0.5,0.9c7.2-7.9,16.1-13.8,24.9-19.6
			C344.4,354.7,343.9,353.8,343.3,354.2L343.3,354.2z"/>
		<path class="st5" d="M328,233.6c0.5,3.2,1.8,11.9,2.2,15.2c7.1,48.8,9,62.9,14,82.9c1,3.9,2.4,9.2,4.2,15.5c1.6-0.5,3.3-1,4.9-1.5
			c-0.7-3.5-1.6-8.9-2.7-15.2c-5-28.2-7.5-42.2-8.8-51c-1.9-12.4-4.2-29.9-5.6-51.5C333.4,229.9,330.7,231.7,328,233.6z"/>
	</g>
	<g id="skirt">
		<path class="st6" d="M282.2,163.2c-2.1,6.3-3.8,12.7-5.1,19.2c-3.2,16.2-4,32.8-2.3,49.3c4.1,1.8,8.3,3.3,12.7,4.5
			c6,1.6,16.6,4.3,29.8,2.1c7.6-1.3,14.9-4,21.6-7.9c-0.3-10.9-1.4-21.9-3.4-32.6c-2.1-11.6-5.3-23.1-9.3-34.2
			C311.5,163.4,296.8,163.3,282.2,163.2z"/>
		<path class="st3" d="M316.8,164.3c1.2,3.2,2.3,6.5,3.3,10c6.7,24.1,4.9,46.4,1.3,63.2c3.6-0.9,7.2-2.2,10.6-3.8
			c2.2-1,4.4-2.2,6.5-3.5c0.1-5.1-0.1-10.6-0.5-16.3c-1.5-17.3-5.6-34.4-12.2-50.5C322.8,163.8,319.8,164.1,316.8,164.3z"/>
	</g>
	<g id="arm_right">
		<path class="st2" d="M289.3,85.3c-1.3,0.9-2.5,1.9-3.6,3c-2.9,2.8-5.4,6-7.3,9.5c-1.9,3.6-2.6,6.7-3.7,11.7
			c-1.3,5.7-1.1,7.6-3.1,10.3c-1.5,1.9-3.4,3.4-5.6,4.3c-2.6,1.2-5.4,1.8-8.3,1.7c-3.2,0-6.4-0.7-9.4-2l-1.2,1.5
			c-1.2-0.6-2.9-1.4-5.1-2.3c-4.4-1.8-6.6-2.6-9.2-2.3c-0.6,0.1-5.2,0.6-6.3,3.6c-0.4,1-0.3,2.6,0.5,3.3s2.8,0.4,4.4,0
			c1.3-0.3,2-0.7,2.8-0.3c0.6,0.3,1,0.8,1.2,1.4c1.1,2.3,0.4,4.1,0.8,7.9c0.2,2.1,0.3,3.2,1.1,3.7c0.3,0.2,1.2,0.8,5.2-0.3
			c2-0.6,4-1.3,5.9-2.3c-0.1,1-0.3,2-0.5,3c3.4,0.8,6.9,1.4,10.5,1.7c6.4,0.6,10.8,0.9,16-0.9c4.4-1.6,8.3-4.3,11.4-7.8
			c2.5-3,4.5-6.4,5.6-10.1C296.3,108.8,290.2,88.4,289.3,85.3z"/>
		<path class="st5" d="M291,90.4c-0.3,2.5-0.8,6.1-1.6,10.4c-1.7,9.3-2.5,13.9-4.8,18.7c-1.4,2.7-4.3,8.7-10.5,12.6
			c-10.6,6.8-23.3,2.8-25.6,2c-3.7,1.9-7.5,3.7-11.2,5.6c1.2,0.2,2.4,0.3,3.6,0.1c2.5-0.2,4.8-1.1,6.9-2.5v3.4
			c3.4,0.8,6.9,1.3,10.4,1.6c6.2,0.4,10.8,0.7,16-1.2c6.2-2.4,11.3-6.9,14.5-12.6c2.5-4.6,3-8.5,3.6-14
			C293.2,106.5,292.7,98.3,291,90.4z"/>
		<path class="st4" d="M289,84.7c-5.7,4.1-10.1,9.7-12.6,16.2c-2.8,7.4-2.8,15.8-7,22.7c-0.2,0.3-0.1,0.6,0.2,0.7
			c0.3,0.2,0.6,0.1,0.7-0.2c3.8-6.4,4.2-13.8,6.3-20.8c2.2-7.2,6.8-13.4,12.9-17.8C290.1,85.2,289.5,84.3,289,84.7L289,84.7z"/>
		<path class="st4" d="M247.8,123.9c0.3,5.3,0.1,10.5-0.4,15.8c-0.1,0.7,1,0.7,1.1,0c0.6-5.2,0.8-10.5,0.4-15.8
			c0-0.3-0.2-0.6-0.5-0.6c-0.3,0-0.6,0.2-0.6,0.5C247.8,123.8,247.8,123.9,247.8,123.9z"/>
		<path class="st4" d="M247.8,124.4c5.2,1.7,11.1,2.8,16.4,1c4.1-1.2,7.4-4.3,9-8.3c0.3-0.7-0.8-1-1.1-0.3c-1.6,4-5.1,6.9-9.3,7.8
			c-4.9,1.3-10.1,0.2-14.8-1.3c-0.3-0.1-0.6,0.1-0.7,0.4S247.5,124.3,247.8,124.4L247.8,124.4z"/>
		<path class="st4" d="M247.7,140.9c8.4,2.2,18.4,3.5,26.9,1c7.7-2.3,12.6-8.9,16.3-15.6c0.3-0.6-0.6-1.2-1-0.5
			c-3.7,6.7-8.5,13.2-16.2,15.3c-8.2,2.2-17.6,0.9-25.7-1.2C247.3,139.6,247,140.7,247.7,140.9L247.7,140.9z"/>
		<path class="st4" d="M247.6,124.5c-2.2,0-4.4-1.5-6.4-2.4c-1.5-0.7-3.1-1.3-4.8-1.7c-2.9-0.7-6-0.4-8.4,1.5
			c-1.5,1.2-3.3,4-1.8,5.8c0.8,0.8,1.8,1.2,2.9,1.2c1.3,0,4.9-2.1,5.6-0.5c0.3,0.6,1.3,0.4,1.1-0.3c-0.6-1.7-2.3-1.7-3.8-1.1
			s-5.3,2-5.1-1.4c0.1-1.5,1.8-2.9,2.9-3.5c3.2-1.8,7.1-0.6,10.3,0.8c2.4,1,4.9,2.9,7.6,2.8c0.3,0,0.5-0.3,0.5-0.6
			C248.1,124.7,247.9,124.5,247.6,124.5L247.6,124.5z"/>
		<path class="st4" d="M237.5,140.6c3.5,0.8,7.2-0.1,10.1-2.3c0.6-0.4,0-1.3-0.5-0.9c-2.6,2-6,2.8-9.3,2.1
			C237.1,139.4,236.8,140.4,237.5,140.6L237.5,140.6z"/>
	</g>
	<g id="torso">
		<path class="st2" d="M303.1,78.2h-5.6v3.4c-1.9,0.3-3.7,0.9-5.4,1.7c-1.4,0.7-2.7,1.6-3.9,2.6c-1.3,6.8-2.6,12.3-3.6,16.1
			c-1.5,5.6-2.3,7.9-2.4,12.2c-0.1,3.2,0.3,3.6,0.4,9.9c0,2.7,0.1,6.1-0.2,10.1c-0.2,2.9-0.5,5.1-1.5,11c-1.7,10.6-2,11.2-2.4,14.2
			c-0.8,6-1,12.1-0.5,18.2c1.3,0.9,2.7,1.7,4.1,2.4c3.4,1.8,5.1,2.2,7.9,3.6c2.2,1.1,4.2,2.4,6.2,3.9c0.8-5.6,1.5-11.3,2.3-16.8
			c1,6,2,12,3,18c2.4,0.2,4.7,0.2,7.1,0c3.9-0.3,11.3-1,18-5.8c2.1-1.5,4-3.3,5.4-5.4c1.3-2,2.2-4.3,2.6-6.8
			c-0.6-3.3-1.3-7.9-1.9-13.5c-0.8-7.9-1.2-15.8-1.1-23.8c-0.1-8.6,0-19.8,0.5-33.1l3.5-11.6c-6.2-4.1-13.1-7-20.4-8.6
			c0.1-1.4,0.1-2.8,0.2-4.1c-2.3,1.7-5.2,2.7-8.1,2.8C305.9,78.8,304.5,78.6,303.1,78.2z"/>
		<path class="st7" d="M331.8,106.1c-0.8,2.7-2.1,7-3.4,12.4c-4.8,19.9-4,28.8-7.1,41.2c-2.7,10.4-7.2,20.2-13.3,29
			c3.8-0.4,7.6-1.3,11.3-2.6c4.4-1.7,8.8-3.3,12-7.7c1.7-2.4,2.9-5.1,3.4-8.1c-1.1-6.2-2-12.9-2.6-19.9
			C330.7,135.7,330.6,120.9,331.8,106.1z"/>
		<path class="st8" d="M306.7,79.9c-0.4,0.1,0.1,1.6-0.5,3.7c-0.3,1-0.8,2-1.5,2.8c2.1,0.9,4.3,0.8,5-0.2
			C311.2,84.4,307.5,79.6,306.7,79.9z"/>
		<path class="st8" d="M297.3,170c-0.7,2.2-1.4,4.6-2.1,7.1c-0.7,2.8-1.3,5.7-1.7,8.6c1,0.5,2,1.1,3,1.7
			C296.9,181.6,297.1,175.8,297.3,170z"/>
		<path class="st4" d="M302.7,77.8c-1.8,0-3.5,0.1-5.3,0.3c-0.3,0-0.6,0.2-0.5,0.5c0.2,1.6,0.4,3.3,0.5,4.9c0.1,0.7,1.2,0.7,1.1,0
			c-0.2-1.6-0.4-3.3-0.5-4.9l-0.5,0.6c1.8-0.2,3.5-0.4,5.3-0.3c0.3,0,0.6-0.2,0.6-0.5c0-0.3-0.2-0.6-0.5-0.6
			C302.8,77.8,302.8,77.8,302.7,77.8L302.7,77.8z"/>
		<path class="st4" d="M297.5,79.3c1.4,1.2,2.2,2.8,2.5,4.6c0.1,0.7,1.2,0.4,1.1-0.3c-0.3-1.9-1.3-3.7-2.8-5
			C297.7,78.1,297,78.8,297.5,79.3L297.5,79.3z"/>
		<path class="st4" d="M288.6,86.3c2.7-2.1,5.8-3.6,9.1-4.5c0.3-0.2,0.3-0.5,0.2-0.7c-0.1-0.2-0.3-0.3-0.5-0.3
			c-3.4,0.9-6.6,2.5-9.4,4.6C287.4,85.8,288,86.7,288.6,86.3L288.6,86.3z"/>
		<path class="st4" d="M317.3,80.4c6.4,1.8,12.5,4.7,17.8,8.8c0.5,0.4,1.1-0.5,0.5-0.9c-5.4-4.1-11.5-7.1-18-8.9
			c-0.3,0-0.5,0.2-0.5,0.5C317.1,80.1,317.2,80.3,317.3,80.4L317.3,80.4z"/>
		<path class="st4" d="M285.7,98.4c-7.3,15.6-2,33-2.8,49.4c0,0.7,1,0.7,1.1,0c0.8-16.2-4.5-33.5,2.6-48.8
			C286.9,98.4,286,97.8,285.7,98.4L285.7,98.4z"/>
		<path class="st4" d="M282.1,129.8c0.3,8.2-2,16.1-3.4,24.1c-1.2,7.8-1.7,15.7-1.3,23.6c0,0.7,1.1,0.7,1.1,0
			c-0.4-8.3,0.1-16.5,1.5-24.7c1.4-7.7,3.5-15.2,3.2-23.1C283.2,129.1,282.1,129.1,282.1,129.8L282.1,129.8z"/>
		<path class="st4" d="M277.7,178c2.8,1.8,5.7,3.4,8.7,4.6c3.4,1.3,6.5,3.1,9.4,5.3c0.5,0.4,1.1-0.5,0.5-0.9c-2.6-2-5.4-3.7-8.4-4.9
			c-3.4-1.3-6.7-3-9.8-5C277.7,176.7,277.1,177.6,277.7,178L277.7,178z"/>
		<path class="st4" d="M297,187.5c0.6-6.1,1.1-12.1,1.7-18.1c0.1-0.7-1-0.7-1.1,0c-0.6,6.1-1.1,12.1-1.7,18.1
			C295.8,188.2,296.9,188.2,297,187.5z"/>
		<path class="st4" d="M297.7,169.6c0.6,6.5,1.6,12.9,3,19.3c0.1,0.7,1.2,0.4,1-0.3c-1.4-6.3-2.3-12.6-2.9-19
			C298.7,168.9,297.7,168.9,297.7,169.6L297.7,169.6z"/>
		<path class="st4" d="M301.5,189.5c6.5,0.3,13-0.9,19-3.3c4.8-2,10.4-4.8,12.3-9.9c0.3-0.7-0.8-0.9-1-0.3c-2,5.3-8.4,8.1-13.3,9.9
			c-5.4,1.9-11.2,2.8-16.9,2.6C300.8,188.5,300.8,189.5,301.5,189.5L301.5,189.5z"/>
		<path class="st4" d="M331.4,105.7c-1.4,21.8-0.6,43.6,2.2,65.2c0.1,0.7,1.2,0.7,1.1,0c-2.9-21.6-3.6-43.5-2.2-65.2
			C332.5,105,331.4,105,331.4,105.7z"/>
		<path class="st4" d="M333.7,170.1c-0.4,2.9-1.5,5.8-3.1,8.3c-0.4,0.6,0.6,1.1,0.9,0.6c1.7-2.6,2.8-5.5,3.2-8.5
			C334.9,169.7,333.8,169.4,333.7,170.1L333.7,170.1z"/>
		<path class="st4" d="M300.4,85.4c0.9,1.1,2.2,1.7,3.6,1.7c0.3,0,0.5-0.2,0.5-0.6c0-0.3-0.2-0.5-0.5-0.5c-1.1,0-2.2-0.5-2.9-1.4
			C300.6,84,299.9,84.8,300.4,85.4L300.4,85.4z"/>
		<path class="st4" d="M303.6,88.9c-7,23.8-1.2,48.8-4.8,73c-0.1,0.7,0.9,1,1,0.3c3.6-24.2-2.2-49.2,4.8-73
			C304.9,88.5,303.8,88.3,303.6,88.9L303.6,88.9z"/>
		<path class="st4" d="M300.9,92.2L300.9,92.2L300.9,92.2L300.9,92.2L300.9,92.2C300.9,92.2,300.9,92.2,300.9,92.2
			C300.8,92.1,300.9,92.2,300.9,92.2L300.9,92.2C300.9,92.2,300.9,92.2,300.9,92.2C300.9,92.1,300.9,92.2,300.9,92.2L300.9,92.2
			L300.9,92.2L300.9,92.2l-0.1-0.1L300.9,92.2L300.9,92.2L300.9,92.2c-0.1-0.1,0-0.2,0-0.2l0,0c0,0,0.1,0,0.1,0l0,0c-0.1,0,0,0,0,0
			s0,0-0.1,0s0.1,0,0,0s0,0.1,0,0s0,0,0,0l0,0c0,0.1,0,0.1,0,0s0,0.1,0,0c0.2-0.3,0.1-0.6-0.2-0.8c-0.3-0.1-0.6-0.1-0.8,0.2
			c-0.3,0.5-0.1,1.1,0.4,1.4c0.1,0.1,0.3,0.1,0.4,0.1c0.3,0,0.7-0.1,0.8-0.4c0.2-0.3,0.2-0.7,0-1c-0.3-0.5-0.9-0.6-1.4-0.3
			c-0.1,0.1-0.2,0.2-0.3,0.3c-0.3,0.5-0.1,1.2,0.4,1.5c0.1,0,0.2,0.1,0.3,0.1c0.3,0.1,0.6-0.1,0.6-0.4c0-0.3-0.2-0.6-0.4-0.7
			L300.9,92.2z"/>
		<path class="st4" d="M299.4,104.1c0-0.2,0-0.4,0-0.7c-0.1,0.2-0.3,0.3-0.4,0.5c0.1,0,0.1,0,0,0l0,0c-0.1,0,0.1,0,0,0s0,0,0,0l0,0
			l0,0c0,0,0,0,0-0.1s0,0.1,0,0l-0.1,0.1c0,0,0.1,0,0,0C299.1,103.9,299.2,104,299.4,104.1c-0.1,0-0.1-0.1-0.1-0.1v-0.1
			c0.1-0.3-0.1-0.6-0.4-0.7c-0.3-0.1-0.6,0.1-0.7,0.4c-0.1,0.5,0,1,0.3,1.3c0.4,0.4,1.1,0,1.4-0.4c0.3-0.5,0.1-1.2-0.4-1.5
			c-0.3-0.1-0.6-0.2-0.9-0.1c-0.2,0.1-0.4,0.3-0.4,0.5s0,0.4,0,0.7c0,0.3,0.2,0.5,0.5,0.6C299.1,104.5,299.3,104.3,299.4,104.1
			L299.4,104.1z"/>
		<path class="st4" d="M298.6,114.5C298.6,114.4,298.6,114.5,298.6,114.5L298.6,114.5L298.6,114.5L298.6,114.5L298.6,114.5
			L298.6,114.5c-0.1-0.1-0.3-0.1-0.4-0.1s0,0.1,0,0l0,0v0.1c0,0.1,0,0,0,0s0.1,0,0,0c0.1,0,0,0,0,0s0.2,0,0,0l0.5,0.5
			c0-0.2,0-0.4,0-0.7c0-0.3-0.2-0.5-0.5-0.6c-0.3,0-0.5,0.3-0.5,0.6c0,0.2,0,0.4,0,0.7c0,0.3,0.2,0.5,0.5,0.5c0.7,0,1.2-0.6,1.2-1.3
			c0-0.2-0.1-0.4-0.2-0.5c-0.1-0.2-0.4-0.4-0.6-0.4c-0.3,0-0.5,0.2-0.6,0.4c-0.3,0.4-0.4,0.9-0.1,1.4c0.1,0.3,0.4,0.4,0.7,0.3
			s0.4-0.4,0.3-0.7C298.8,114.7,298.8,114.6,298.6,114.5L298.6,114.5z"/>
		<path class="st4" d="M298.4,124.1c0,0.1,0.1,0.1,0.1,0.2l0,0c0-0.1,0,0.1,0,0s0,0.1,0,0s0.1-0.1,0,0c0.1,0-0.1,0,0,0h-0.1
			c0.1,0-0.1-0.1,0,0l-0.2-0.2c0.1,0.2,0.1,0.4,0,0.5l0.4-0.4l0,0l0,0l0,0l0,0c0.1-0.3-0.1-0.6-0.3-0.6c0,0,0,0,0,0
			c-0.3-0.1-0.6,0.1-0.6,0.4c-0.2,0.5,0.1,1.1,0.7,1.2c0,0,0.1,0,0.1,0c0.2,0.1,0.3,0.1,0.5,0c0.2-0.1,0.4-0.3,0.4-0.5
			c0.1-0.3,0.1-0.7,0-1c-0.1-0.3-0.4-0.6-0.7-0.6c-0.3,0-0.6,0.1-0.8,0.3c-0.4,0.3-0.5,0.9-0.2,1.3c0,0,0,0,0.1,0.1
			c0.2,0.2,0.5,0.2,0.8,0C298.6,124.6,298.6,124.3,298.4,124.1C298.5,124,298.4,124,298.4,124.1L298.4,124.1z"/>
		<path class="st4" d="M298.5,132.6C298.5,132.6,298.5,132.5,298.5,132.6L298.5,132.6C298.5,132.6,298.5,132.5,298.5,132.6l-0.5,0.2
			l0,0c-0.1,0-0.1,0,0,0s0,0,0,0c0.1,0.1,0-0.1,0,0s0,0.1,0,0s0,0.1,0,0l0,0c0,0-0.1,0.1,0,0s0,0,0-0.1l0,0c0.1,0,0.2,0,0.3-0.1
			c-0.1,0,0.1,0,0.1,0l0,0l0,0c0,0.1,0,0.1,0,0.2c0.1-0.3,0.1-0.6-0.2-0.8c-0.3-0.2-0.6-0.1-0.8,0.2c-0.2,0.4-0.1,0.9,0.3,1.2
			c0.2,0.1,0.5,0.2,0.8,0.1c0.2-0.1,0.4-0.3,0.4-0.5c0.3-0.6,0-1.3-0.6-1.5c-0.1-0.1-0.3-0.1-0.4-0.1c-0.2,0-0.4,0.1-0.5,0.3
			c-0.3,0.4-0.2,1,0.2,1.3c0.6,0.6,1.4-0.2,0.8-0.7L298.5,132.6z"/>
		<path class="st4" d="M298.3,141.3c0,0,0.1,0,0.1,0.1l0,0c0,0,0,0.1,0,0l0,0l0,0c0,0.1,0,0.1-0.1,0.1s-0.4,0.1-0.5,0.1
			c0.1,0-0.1,0,0,0c-0.1,0-0.1-0.1,0,0l0,0c0,0,0,0,0,0.1s0,0,0-0.1s0,0,0,0.1l0,0l0,0l0,0c0,0,0.1-0.1,0,0s0,0,0,0l0,0
			c0.2,0.1,0.4,0.2,0.6,0.3l0,0v0.1c0-0.1,0-0.1,0,0s0,0-0.1,0.1c0.3-0.1,0.3-0.5,0.2-0.7c0,0,0,0,0,0c-0.2-0.3-0.5-0.3-0.7-0.2
			c0,0,0,0,0,0c-0.4,0.3-0.6,0.9-0.3,1.3c0.1,0.2,0.4,0.3,0.6,0.3c0.4-0.1,0.7-0.5,0.7-1c0-0.5-0.3-0.9-0.8-1c-0.2,0-0.4,0-0.5,0.1
			c-0.4,0.4-0.4,1,0,1.4c0.1,0.1,0.2,0.2,0.4,0.2c0.3,0.1,0.6-0.1,0.6-0.3c0,0,0,0,0,0c0.1-0.2,0.1-0.5-0.1-0.7c0,0-0.1,0-0.1-0.1
			L298.3,141.3z"/>
		<path class="st4" d="M297.6,151.7c0,0.1,0,0.1,0,0.2l0,0l0,0c0,0-0.1,0,0,0s-0.3-0.1-0.2,0c-0.1-0.1-0.2-0.2-0.3-0.3
			c0,0,0,0.1,0,0.1l0,0v0.1c0-0.1,0,0,0,0s0-0.1,0,0s-0.1,0.1,0,0.1s-0.1,0-0.1,0.1c0.3,0.1,0.5,0.1,0.8,0.2c0-0.1-0.1-0.1-0.1-0.2
			c0-0.1,0-0.1,0,0s0,0.2-0.1,0.2s-0.4-0.1-0.5-0.3c0.1,0.3,0.3,0.4,0.6,0.4c0,0,0,0,0,0c0.3-0.1,0.4-0.3,0.4-0.6c0,0,0,0,0-0.1
			c-0.1-0.4-0.6-0.6-1-0.5c-0.1,0-0.2,0.1-0.2,0.1c-0.5,0.4-0.3,0.9,0,1.4c0.1,0.3,0.5,0.4,0.7,0.2c0,0,0,0,0,0
			c0.3-0.2,0.5-0.5,0.6-0.8c0.1-0.4,0.1-0.8-0.2-1.1c-0.4-0.3-1-0.2-1.3,0.2c-0.2,0.2-0.2,0.5-0.1,0.8c0.1,0.3,0.4,0.5,0.7,0.4
			c0.3-0.1,0.4-0.4,0.4-0.7L297.6,151.7z"/>
		<path class="st4" d="M296.9,163c0.1-0.2,0.2-0.4,0.3-0.6l-0.3,0.3c-0.1,0-0.1,0-0.2,0l0,0c0-0.1,0-0.2,0-0.3
			c0-0.1,0.1-0.1,0.1-0.1l0,0c0,0,0.1,0,0.1,0c-0.3-0.1-0.6,0-0.7,0.3c-0.1,0.2,0,0.5,0.2,0.7c0.7,0.4,1.6-0.3,1.3-1.1
			c-0.1-0.3-0.5-0.6-0.8-0.6c-0.3,0-0.5,0.1-0.6,0.4c-0.1,0.1-0.1,0.3-0.2,0.5c-0.1,0.3-0.1,0.6,0.2,0.8
			C296.5,163.3,296.8,163.2,296.9,163L296.9,163z"/>
		<path class="st4" d="M311.5,76.6l-3.7,1.2c-0.6,0.2-1.5,0.3-1.9,0.9s0,1,0.1,1.5c0.3,1.4,0,2.9-0.8,4.1c-0.4,0.6,0.5,1.1,1,0.6
			c0.9-1.3,1.3-2.9,1-4.4c0-0.1-0.3-0.9-0.2-1c0.2-0.4,1.3-0.6,1.7-0.7c1-0.4,2.1-0.7,3.1-1.1C312.4,77.4,312.1,76.4,311.5,76.6
			L311.5,76.6z"/>
		<path class="st4" d="M306.5,79.6c1.1,1.2,1.8,2.6,2.1,4.2c0.1,0.7,1.2,0.4,1-0.3c-0.3-1.7-1.2-3.4-2.4-4.6
			C306.7,78.2,306,79,306.5,79.6L306.5,79.6z"/>
		<path class="st4" d="M310.9,78.1c1.5-0.7,3-1.2,4.6-1.4c-0.2-0.2-0.5-0.4-0.7-0.5c0.1,1.4-0.1,2.9-0.7,4.2
			c-0.3,0.6,0.6,1.2,0.9,0.5c0.7-1.5,1-3.1,0.8-4.7c0-0.3-0.3-0.5-0.6-0.5c0,0-0.1,0-0.1,0c-1.7,0.3-3.3,0.8-4.9,1.6
			C309.7,77.5,310.2,78.4,310.9,78.1z"/>
		<path class="st4" d="M315.5,80.1c0.7,0.2,1.5,0.3,2.3,0.2c0.3,0,0.5-0.3,0.5-0.6c0-0.2-0.2-0.4-0.5-0.5c-0.7,0-1.3,0-2-0.2
			c-0.3,0-0.5,0.3-0.5,0.6C315.2,79.8,315.3,80,315.5,80.1L315.5,80.1z"/>
	</g>
	<g id="arm_left">
		<path class="st2" d="M335.6,88.7c1.5,0,2.3,3,4.1,7.5c4,9.7,5.9,14.5,6.8,17.6c2,7.4,3,15,3,22.6c-1.5,3.3-3.3,6.4-5.4,9.4
			c-3.7,5.5-8.6,10.2-14.2,13.7c-3.4,2.1-7,3.6-10.9,4.7c-0.3-1.8-0.5-3.6-0.8-5.4c-0.8,0.4-2,1-3.4,1.9c-2.3,1.3-2.8,1.8-3.7,2.3
			c-2,0.8-4.1,0.9-6.2,0.4c-1.5-4.3-2.7-7.9-3.7-10.7c-0.3-0.9-1-2.6-0.2-4.1c0.4-0.7,1-1.2,1.7-1.5c-0.5-0.9-0.8-1.8-0.9-2.8
			c-0.1-0.8-0.2-1.4,0.2-1.9c0.6-0.5,1.3-0.7,2.1-0.5c-0.3-1.7-0.5-3.5-0.8-5.2c-0.7-5-1.2-9.8-1.5-14.4c1.6-0.9,3.1-1.9,4.7-2.8
			c7.7-4.6,15.4-9,23-13.1c0.1-1.2,0.2-2.5,0.4-3.7c0.2-1.6,0.5-3.2,1-4.7C330.9,96.9,333.1,88.7,335.6,88.7z"/>
		<path class="st9" d="M335,88.3c1.8,4.3,3.3,8.8,4.5,13.3c2.3,8.7,4.6,17,3.2,27.3c-0.7,5.3-1.6,11.7-6.4,17.8
			c-4.5,5.5-10.7,9.2-17.6,10.7c-1.8-0.9-3.7-1.3-5.6-1.3c-3.6,0.1-7,1.6-9.5,4.1c0.4,1,0.9,2,1.3,3c1.8,0.3,3.6,0.1,5.2-0.6
			c2.1-0.8,3-2,6-3.2c0.8-0.3,1.6-0.6,2.4-0.8c0.1,1.5,0.1,3,0.2,4.5c3-0.4,6-1.2,8.8-2.4c8.1-3.7,12.8-10.3,17.6-17.2
			c2.1-2.9,3.5-5.5,4.5-7.1c-0.1-4-0.4-8-1-12c-0.8-6.1-2.3-12-4.3-17.8C342,100.2,338.9,94,335,88.3z"/>
		<path class="st5" d="M326.6,107.8c0.4,3,0.5,6.1,0.4,9.2c-0.5,9.7-3.4,19.2-8.4,27.6c2.2-1.3,4.2-2.9,6.2-4.5
			c3.3-2.8,6.3-6,8.8-9.6c0.2-3.1,0.2-6.1-0.2-9.2c-0.4-3.5-1.1-7.1-2.1-10.5c-0.5-2.2-1.1-4-1.5-5.2
			C328.7,106.3,327.6,107.1,326.6,107.8z"/>
		<path class="st5" d="M348.1,121.7c-0.7,0-0.6,6.3-3.6,15c-1.2,4-3,7.9-5.2,11.4c-3.5,5.3-8.3,9.7-13.9,12.7
			c3.3-1.2,6.5-2.9,9.4-4.9c6.7-4.8,11.8-11.4,14.8-19.1C349.1,124.3,348.6,121.7,348.1,121.7z"/>
		<path class="st4" d="M331,109.2c1.3,7.1,2.5,14.3,1.7,21.5c-0.1,0.7,1,0.7,1.1,0c0.8-7.3-0.4-14.6-1.7-21.8
			C331.9,108.2,330.9,108.5,331,109.2z"/>
		<path class="st4" d="M332.9,130.2c-2.4,3.6-5.3,6.9-8.6,9.7c-1.7,1.4-3.5,2.7-5.3,3.8c-1.3,0.8-3,1.3-3.6,2.8
			c-0.2,0.7,0.8,0.9,1,0.3c0.3-1,1.7-1.4,2.5-1.9s1.8-1.1,2.7-1.8c1.6-1.1,3-2.3,4.5-3.5c2.9-2.7,5.5-5.7,7.7-9
			c0.2-0.3,0.1-0.6-0.2-0.7C333.4,129.9,333.1,129.9,332.9,130.2L332.9,130.2z"/>
		<path class="st4" d="M315.4,147.1c1.5,5.3,2.4,10.8,2.8,16.3c0,0.7,1.1,0.7,1.1,0c-0.3-5.6-1.3-11.2-2.8-16.6
			c-0.1-0.3-0.4-0.4-0.7-0.3C315.5,146.6,315.3,146.8,315.4,147.1L315.4,147.1z"/>
		<path class="st4" d="M334.8,88.6c9.3,14.2,14.1,30.7,14,47.6c0,0.3,0.3,0.5,0.6,0.5c0.2,0,0.4-0.2,0.5-0.5
			c0.1-17.1-4.8-33.9-14.1-48.2C335.3,87.4,334.4,88,334.8,88.6L334.8,88.6z"/>
		<path class="st4" d="M318.8,164.2c15-2.6,24.6-15.3,31.5-27.8c0.3-0.6-0.6-1.2-0.9-0.5c-6.7,12.3-16.2,24.8-30.8,27.3
			C317.8,163.3,318.1,164.3,318.8,164.2L318.8,164.2z"/>
		<path class="st4" d="M315.1,146.7c-2.1-1.2-4.2-2.6-6.4-3.7c-1.6-0.9-3.8-1.9-5.7-1.8c-3.2,0.3-2.2,4.5-0.6,6
			c0.5,0.5,1.3-0.3,0.8-0.8c-1-1-2.2-3.9,0.1-4.2c1.3-0.2,3.2,0.8,4.4,1.3c2.4,1.2,4.7,2.6,7,4c0.3,0.2,0.6,0.1,0.8-0.2
			S315.4,146.8,315.1,146.7L315.1,146.7z"/>
		<path class="st4" d="M302.7,146.4c-2.3,0.8-2.7,3.1-2.2,5.3c0.4,1.9,1.1,3.7,1.6,5.5c0.5,1.8,1,3.6,1.6,5.3c1,2.3,4,1.4,5.9,1
			c1.4-0.2,2.7-0.8,3.9-1.6c1.3-1.1,2.1-2.2,3.9-2.6c0.7-0.1,0.4-1.2-0.3-1.1c-1.5,0.4-2.9,1.3-3.9,2.5c-0.9,0.8-2,1.3-3.2,1.6
			c-1,0.3-2.9,0.9-3.9,0.6c-1.7-0.6-1.9-2.4-2.4-3.9c-0.3-1.1-0.6-2.1-0.9-3.1c-0.6-2.1-3.1-7.3,0.1-8.4
			C303.6,147.3,303.3,146.2,302.7,146.4L302.7,146.4z"/>
		<path class="st4" d="M314.6,147c1.2,3.9,2,7.9,2.6,12c0.1,0.7,1.2,0.4,1-0.3c-0.6-4.1-1.4-8.1-2.6-12.1c-0.1-0.3-0.4-0.4-0.7-0.4
			C314.6,146.4,314.5,146.7,314.6,147L314.6,147z"/>
		<path class="st4" d="M304.7,141.3c-1-4.3-1.6-8.6-2-13c-0.1-1-0.1-2.1-0.2-3.2c0-0.9-0.4-2.3,0.2-3.1c0.9-0.8,1.8-1.4,2.9-1.9
			c0.9-0.6,1.8-1.1,2.6-1.7c7.1-4.4,14.5-8.4,21.9-12.3l-0.8-0.3c1.4,5.1,2.6,10.2,3.5,15.4c0.1,0.7,1.2,0.4,1-0.3
			c-0.9-5.2-2.1-10.3-3.5-15.4c-0.1-0.3-0.4-0.5-0.7-0.4c0,0-0.1,0-0.1,0.1c-8.1,4.3-16.2,8.7-23.9,13.6c-1,0.6-1.9,1.2-2.9,1.9
			c-0.4,0.3-1.2,0.6-1.4,1.1c-0.3,0.7,0,2.2,0.1,2.9c0,1,0.1,2.1,0.2,3.2c0.4,4.6,1.1,9.2,2.1,13.7c0,0.3,0.3,0.5,0.5,0.5
			s0.5-0.3,0.5-0.5C304.7,141.4,304.7,141.4,304.7,141.3L304.7,141.3z"/>
		<g>
			<path d="M309.6,127.3c-0.5-0.1-1.1,0-1.6-0.1c-0.4-0.1-0.6-0.3-0.7-0.6c-0.1-0.3,0-0.7,0.3-0.8c0.3-0.2,0.7-0.1,1,0.2
				c0.5,0.5,1.2-0.2,0.7-0.7c-0.6-0.7-1.8-0.7-2.5-0.2c-0.7,0.6-0.8,1.7-0.3,2.4c0.3,0.5,0.8,0.7,1.4,0.7c0.5,0.1,1,0,1.4,0.1
				c0.8,0.2,1,1.1,0.4,1.7c-0.3,0.3-0.8,0.5-1.2,0.4c-0.4,0-0.8-0.2-0.9-0.6c-0.2-0.7-1.2-0.4-1,0.3c0.3,1,1.4,1.5,2.4,1.4
				c0.9-0.1,1.9-0.9,2-1.8C311.3,128.6,310.7,127.6,309.6,127.3z"/>
			<path d="M313.5,121.3c-0.5,0.3-1.1,0.6-1.6,0.9c-0.1,0-0.3,0.1-0.4,0.2c-0.5,0.3-1,0.6-1.6,0.8c-0.2,0.1-0.3,0.5-0.2,0.7
				c0.1,0.3,0.5,0.3,0.7,0.2c0.4-0.2,0.8-0.4,1.1-0.6c0.4,1.7,0.8,3.4,1.3,5.1c0.2,0.7,1.2,0.4,1-0.3c-0.4-1.8-0.9-3.5-1.3-5.3
				c0.5-0.3,1-0.5,1.5-0.8c0.2-0.1,0.3-0.5,0.2-0.7C314.1,121.3,313.8,121.2,313.5,121.3z"/>
			<path d="M316.9,119.4c-0.3-0.3-0.9-0.1-0.9,0.4c0.2,2.2,0.3,4.5,0.5,6.7c0,0.7,1.1,0.7,1.1,0c0-0.6-0.1-1.3-0.1-1.9
				c0,0,0,0,0.1,0c0.5-0.4,1-0.8,1.5-1.2c0,0,0,0,0,0c0.3,0.4,0.6,0.9,0.9,1.3c0.4,0.6,1.3,0,0.9-0.5
				C319.7,122.4,318.4,120.8,316.9,119.4z M318.2,122.6c-0.3,0.2-0.6,0.5-0.9,0.7c-0.1-0.7-0.1-1.5-0.2-2.2c0.4,0.4,0.8,0.9,1.2,1.4
				C318.3,122.5,318.2,122.6,318.2,122.6z"/>
			<path d="M321.6,117.8c0.4-0.2,0.8-0.4,1.1-0.7c0.2-0.2,0.3-0.5,0.2-0.7c-0.1-0.2-0.5-0.4-0.7-0.2c-1,0.7-2.1,1.3-3.3,1.8
				c-0.3,0.1-0.3,0.5-0.2,0.7c0.2,0.3,0.4,0.3,0.7,0.2c0.4-0.2,0.8-0.4,1.2-0.6c0.6,1.6,1.3,3.2,1.9,4.8c0.1,0.3,0.4,0.4,0.6,0.4
				c0.3-0.1,0.5-0.4,0.4-0.6C322.9,121.1,322.3,119.5,321.6,117.8z"/>
			<path d="M330,118.6c-0.1-0.2-0.5-0.3-0.7-0.2c-0.7,0.4-1.3,0.8-2,1.3c-0.3-0.6-0.5-1.1-0.8-1.7c0.5-0.3,0.9-0.7,1.4-1
				c0.1-0.1,0.2-0.2,0.2-0.3c0-0.1,0-0.3-0.1-0.4c-0.1-0.1-0.2-0.2-0.3-0.2c-0.1,0-0.3,0-0.4,0.1c-0.4,0.3-0.9,0.6-1.3,1
				c-0.2-0.5-0.5-1-0.7-1.6c0.5-0.3,1.1-0.7,1.7-1c0.2-0.1,0.3-0.5,0.2-0.7c-0.2-0.2-0.5-0.3-0.7-0.2c-0.6,0.4-1.2,0.7-1.8,1.1
				c-0.1,0-0.2,0-0.3,0.1c-0.3,0.2-0.3,0.5-0.2,0.7c0.8,1.8,1.6,3.6,2.4,5.4c0.1,0.3,0.5,0.3,0.7,0.2c0.1-0.1,0.2-0.2,0.2-0.3
				c0,0,0,0,0,0c0.7-0.5,1.4-0.9,2.2-1.4C330.1,119.1,330.2,118.8,330,118.6z"/>
		</g>
	</g>
	<g id="head">
		<path class="st2" d="M291,31.5c-3,1.8-4.9,3-6.4,5.5c-1.5,2.6-2.1,5.5-1.8,8.5c-1.3,3.6-2.6,7.1-3.9,10.7h4.4
			c0,2.1,0.4,4.3,1.1,6.3c1.3,3.7,3.8,6.8,7.2,8.6c3,1.5,6.4,2,9.7,1.4c0.4,2.1,0.7,4.2,1.1,6.3c2.3-0.1,4.5-0.6,6.6-1.6
			c7.7-3.4,10.5-11.3,11.3-13.7c1.9-5.7,1.9-11.8,0-17.4c-1.3-4-3.5-7.7-6.3-10.8c-3.6-4.2-6.6-7.8-11.3-8.3
			C299.2,26.6,296.3,28.3,291,31.5z"/>
		<path class="st10" d="M282.6,45.5c1.5-3.2,2.7-5.6,2.9-5.9c2.1-4,11.2-10.5,12.1-11.1c1.1-1.7,2-3.6,1.3-4.7
			c-1.4-2.1-8.5-0.7-13.4,2.9c-0.6,0.4-8.5,6.6-6.8,14.2c0.5,2.2,1.7,4.2,3.4,5.8C282.2,46.4,282.4,46,282.6,45.5z"/>
		<path class="st10" d="M293.1,26.5c-1.2,2.5-0.5,5.1,0.2,7.8c0.1,0.5,2.3,8,9.4,11.9c2.1,1.1,4.9,2.7,7.6,1.6
			c1.4-0.5,1.8-1.5,3-1.4c1.9,0.2,3.6,2.6,4,4.9c0,0.3,0.4,3.6-1.7,5c-1,0.6-2.2,0.8-3.3,0.5c-1-0.2-1.2-0.7-2-0.7
			c-0.4,0-1.4,0.2-3.4,2.4c-3.5,3.7-4.4,9.1-4.7,11.2c0.6-1,1.2-2.1,1.8-3.1c-0.7,2.5-0.9,5-0.5,7.6c0.2,1.2,0.9,6.9,5.4,10.6
			c6.1,5.1,16.3,4.5,21.8-0.8c3.7-3.6,4.3-8.3,4.5-10.2c0.9-6.8-2.6-7.4-5-20.3c-0.8-4.4-1.8-8.8-3-13.1c-0.5-1.8-1.2-3.5-2-5.2
			c-2.3-4.8-4.5-9.1-9.2-11.9C308,18.9,296,20.5,293.1,26.5z"/>
		<path class="st10" d="M287.2,68.3c-0.9,2-1.3,4.1-1.4,6.3c-0.1,2.6-0.3,5.7,1.7,8c2.3,2.7,7.2,4.2,11,1.7c2.7-1.9,4.1-5.2,3.6-8.4
			c-0.2-1.1-0.4-2.1-0.6-3.1c-2.1,0.2-4.1,0.1-6.1-0.3C292.4,71.7,289.6,70.3,287.2,68.3z"/>
		<path class="st10" d="M297.5,42.1c1.5,2.5,2.8,5,4,7.6c2,4.3,3,6.6,2.9,9s-0.7,2.7-2,7.9c-0.6,2.4-1,4.4-1.2,5.8
			c0.7-0.8,1.4-1.5,2.1-2.3c-0.3,2.1-0.2,4.3,0.4,6.4c0.1,0.5,2.2,7.7,9.1,10.7c6.3,2.8,14.1,1.2,14.6-1c0.2-1.2-1.6-1.8-3.9-4
			c-5.8-5.6-9.4-16-6.4-23.3c1.8-4.4,4.7-4.5,5.3-8.7c0.8-5-2.7-9.4-4-11c-7.5-9.4-21.3-8.9-23.7-8.8c-0.7,0.7-1.4,1.4-2.1,2
			c0.5,1.6,1,3.1,1.7,4.5C295.3,38.8,296.3,40.5,297.5,42.1z"/>
		<path class="st11" d="M279.2,56c1.4-0.4,2.9-0.7,4.4-0.8c1.7-0.1,2.2,0,2.4,0.3s-0.1,0.9-0.7,1.8c-0.3,0.6-0.7,1.1-1.1,1.6
			c-0.2-0.7-0.4-1.4-0.5-2.1C282.1,56.5,280.6,56.3,279.2,56z"/>
		<path class="st4" d="M282.8,45.1c-1.4,3.8-2.8,7.5-4.3,11.3c-0.1,0.3,0.1,0.6,0.4,0.7c0,0,0.1,0,0.1,0c1.5-0.2,2.9-0.3,4.4-0.3
			c0.3,0,0.5-0.2,0.5-0.5s-0.2-0.5-0.5-0.5c-1.5,0-3,0.1-4.4,0.3c0.2,0.2,0.4,0.5,0.5,0.7c1.5-3.7,2.9-7.5,4.3-11.3
			C284.1,44.7,283,44.5,282.8,45.1L282.8,45.1z"/>
		<path class="st4" d="M283.2,56.5c0.3,4.8,1.9,10.3,5.6,13.5c3.5,2.9,8.2,3.6,12.6,3.3c0.7,0,0.7-1.1,0-1.1
			c-4.1,0.3-8.6-0.2-11.8-2.9c-3.6-3-5-8.3-5.3-12.8C284.3,55.8,283.2,55.8,283.2,56.5L283.2,56.5z"/>
		<path class="st4" d="M300.9,73.2c0.8,1.7,1.2,3.5,1.1,5.3c0,0.7,1,0.7,1.1,0c0.1-2-0.3-4.1-1.2-5.9
			C301.6,72,300.6,72.5,300.9,73.2L300.9,73.2z"/>
		<path class="st4" d="M310.7,48.1c2.4-3.5,6.1,1.5,6,4c0,3.2-3.3,5.4-6.1,3.6c-0.6-0.4-1.1,0.5-0.5,0.9c3.9,2.7,8.2-1.2,7.6-5.4
			c-0.5-3.5-5.2-7.6-8-3.6C309.3,48.2,310.3,48.7,310.7,48.1L310.7,48.1z"/>
		<path class="st4" d="M289.4,43.5c0,0.7,0,1.4,0.1,2.1c0,0.6,0.2,1.2,0.4,1.8c0.4,0.7,1.4,0.4,1.2-0.4c-0.1-0.3-0.4-0.4-0.7-0.4
			c-0.3,0.1-0.4,0.4-0.4,0.6v0.1c0-0.2,0.1-0.4,0.1-0.5s0.1,0,0.1-0.1l0.5,0.2c-0.2-0.5-0.3-1-0.3-1.5c-0.1-0.6-0.1-1.3-0.1-1.9
			c0-0.3-0.3-0.6-0.6-0.6C289.6,43,289.4,43.2,289.4,43.5L289.4,43.5z"/>
		<path class="st4" d="M289.6,43.9c0.5,1.1,0.6,2.2,0.5,3.4c0,0.7,1.1,0.7,1.1,0c0.1-1.3-0.1-2.7-0.7-3.9
			C290.3,42.7,289.4,43.3,289.6,43.9z"/>
		<path class="st4" d="M288,40.5c1.6-2.5,4.5-0.7,5.4,1.3c0.3,0.6,1.2,0.1,0.9-0.5c-1.3-2.8-5.3-4.5-7.3-1.3
			c-0.2,0.3-0.1,0.6,0.2,0.7C287.5,40.8,287.8,40.7,288,40.5L288,40.5z"/>
		<path class="st4" d="M284.8,61.7c2.2,0.7,4.6-0.2,5.7-2.2c0.1-0.3,0-0.6-0.3-0.7c-0.2-0.1-0.5,0-0.7,0.2c-0.9,1.6-2.8,2.3-4.5,1.7
			c-0.3-0.1-0.6,0.1-0.7,0.4C284.3,61.4,284.5,61.6,284.8,61.7z"/>
		<path class="st4" d="M288.9,59.3c0.7-0.1,1.3,0.5,1.4,1.2c0,0,0,0,0,0c0,0.7,1.1,0.7,1.1,0c-0.1-1.3-1.2-2.3-2.5-2.3
			C288.2,58.2,288.2,59.4,288.9,59.3z"/>
		<path class="st4" d="M291.5,51.1c0.3,0,0.5-0.3,0.5-0.6c0-0.2-0.2-0.4-0.5-0.5c-0.3,0-0.6,0.2-0.6,0.5s0.2,0.6,0.5,0.6
			C291.4,51.1,291.5,51.1,291.5,51.1z"/>
		<path class="st4" d="M294.4,49c0.3,0,0.5-0.3,0.5-0.6c0-0.2-0.2-0.4-0.5-0.5c-0.3,0-0.5,0.3-0.5,0.6C293.9,48.8,294.1,49,294.4,49
			z"/>
		<path class="st4" d="M293.4,50.7v0.1c0,0.3,0.2,0.5,0.5,0.5c0.3,0,0.5-0.3,0.5-0.5v-0.1c0-0.3-0.3-0.5-0.5-0.5
			C293.6,50.2,293.4,50.4,293.4,50.7C293.4,50.7,293.4,50.7,293.4,50.7z"/>
	</g>
</g>
<g id="guy">
	<g id="leg_right-2">
		<path d="M162.9,335.4c-0.3,9-0.7,18.1-1,27.1c28.2,4.8,42.8,5.7,43.6,2.8c0.7-2.6-8.9-8.1-28.9-16.5c2.3-18.3,2-28-1-28.9
			C173.1,319.2,168.9,324.4,162.9,335.4z"/>
		<path class="st2" d="M191.7,178.2v13.4c0,22.2,0.3,31.9,0.3,40.2c0,22.8-1.4,45.7-4.1,68.3c-1.4,12.4-2.9,22.7-4.1,29.9
			c-1.8,1.9-4.1,3.4-6.5,4.3c-1.1,0.4-2.3,0.8-3.5,1c-6.5,1.1-13.1-0.2-18.7-3.6c1.8-10.1,3.9-23.3,5.9-38.8
			c1.6-12.7,4.1-36,5.1-65.6c0.5-14.9,0.7-33,0-53.6C174.6,175.2,183.2,176.7,191.7,178.2z"/>
		<path class="st7" d="M167,209.4c1.8-4.5,4.1-9.6,5.5-9.3c2,0.5,0.8,12.3,0,21.3c-1.8,20.3-2.1,40.8-3.4,61.1
			c-0.8,12.7-1.8,30.6-2.1,52.5l-12-3.1c4.1-23.1,7.4-48.2,9.6-75.2C165.9,240.3,166.7,224.5,167,209.4z"/>
		<path class="st4" d="M190.9,182.3c1.6,38.4,0.5,76.8-3.4,115c-1.1,10.8-2.5,21.7-4,32.5c-0.1,0.7,0.9,1,1.1,0.3
			c5.5-38.1,8.3-76.5,8.2-114.9c0-11-0.2-21.9-0.7-32.9C192,181.6,190.9,181.5,190.9,182.3L190.9,182.3z"/>
		<path class="st4" d="M166.6,209.7c-1.2,31.7-3.8,63.4-7.8,94.9c-1.2,9.2-2.5,18.4-3.9,27.5c-0.1,0.7,0.9,1,1.1,0.3
			c4.9-31.7,8.4-63.5,10.4-95.5c0.6-9,1-18.1,1.4-27.2C167.8,209.1,166.7,209.1,166.6,209.7L166.6,209.7z"/>
		<path class="st4" d="M155.4,333c4.9,2.3,10.4,3.3,15.8,2.9c4.5-0.4,9.9-1.5,12.7-5.4c0.4-0.6-0.5-1.1-0.9-0.5
			c-2.8,3.8-8.6,4.7-13,4.9c-4.8,0.2-9.6-0.8-14-2.8C155.3,331.8,154.8,332.7,155.4,333L155.4,333z"/>
	</g>
	<g id="leg_left-2">
		<path d="M122.4,325.8c-3.4,11-6.9,22-10.3,33c27.1,8,41.2,10.7,42.2,8.2c0.8-2.1-7.4-7.8-24.7-17.2c8.9-11.8,11.2-22.4,7.6-25.7
			S124.1,325,122.4,325.8z"/>
		<path class="st2" d="M141.3,179.9c-0.2,0.8-0.5,3.5-1,8.9c-0.9,8.4-1.3,14.7-1.4,15.1c-1.8,23.9-5.1,44.6-5.1,44.6
			c-3,18-7.1,35.8-12.4,53.2c-2.6,9.1-5,16.6-6.9,22c2.3,2.9,5.1,5.5,8.2,7.5c3.3,2.1,7.1,4.7,12.4,4.5c1.6-0.1,3.3-0.4,4.8-1
			c1.6-4.5,4.3-12.4,7.2-22.3c5.5-18.3,10-39,18.9-79.7c0.4-1.8,5.5-25.2,5.8-26.8c3.2-3.8,6.4-7.6,9.6-11.3
			c5.4-12.6,5.2-25.5-1-30.9C170,154.7,144.2,167.5,141.3,179.9z"/>
		<path class="st3" d="M140.9,187.1c0.4,3.2,1,7.9,1.4,13.7c1.7,26.9-2.5,45.9-6.5,67.3c-2.8,14.7-6.5,36.5-9.9,64.2
			c-3.8-2.9-7.6-5.7-11.3-8.6c1.9-5.7,4.7-14.1,7.6-24.4c9.3-33.3,12.9-60.4,15.5-80C138.5,211.3,139.8,200.3,140.9,187.1z"/>
		<path class="st4" d="M139.7,182.3c-1.2,37.4-6.8,74.5-16.4,110.6c-2.7,10.2-5.8,20.3-9.2,30.3c-0.2,0.6,0.8,0.9,1,0.3
			c12-35.5,19.9-72.3,23.6-109.6c1-10.5,1.7-21,2.1-31.6C140.8,181.6,139.7,181.6,139.7,182.3L139.7,182.3z"/>
		<path class="st4" d="M179.6,195.7l-8.2,10.2c-0.4,0.6,0.3,1.3,0.8,0.8l8.2-10.2C180.8,195.9,180.1,195.1,179.6,195.7L179.6,195.7z
			"/>
		<path class="st4" d="M171.6,205.4c-6.6,34-13.7,67.9-23.3,101.2c-2.7,9.4-5.7,18.8-8.8,28.1c-0.2,0.6,0.8,0.9,1.1,0.3
			c11.1-32.8,19.3-66.5,26.3-100.4c2-9.6,3.9-19.3,5.8-28.9C172.7,205,171.7,204.7,171.6,205.4L171.6,205.4z"/>
		<path class="st4" d="M114.3,324c1.6,2,3.5,3.8,5.6,5.3c1.9,1.5,3.9,3,6,4.2c4.2,2.4,9.5,4.1,14.2,2.3c0.7-0.3,0.4-1.3-0.3-1
			c-4.6,1.9-9.8,0-13.9-2.5c-2-1.2-3.9-2.6-5.7-4.1c-1.9-1.3-3.5-2.9-5-4.7C114.9,322.9,113.9,323.5,114.3,324L114.3,324z"/>
	</g>
	<g id="arm_right-2">
		<path class="st2" d="M183.3,66.6c1.9-0.4,4.3,2.7,5.7,4.4c1.7,2.1,2.9,4.5,3.6,7.1c1.6,5.7,2.4,11.6,2.3,17.6
			c0.5,3.2,1.6,6.3,3.1,9.2c2.6,4.5,6.4,8.3,10.9,10.9c3.5,2,7.3,3.3,11.3,3.8l-1.6,1.6c1.2,0.1,2.4,0.4,3.6,0.7
			c1.9,0.6,2.8,0.9,3.2,1c0.5,0.2,1,0.4,1.4,0.7c-0.4,0.5-0.7,1.2-0.7,1.9c0,1.1,0.6,2.1,1.5,2.7c0.9,0.5,2.1,0.3,4.6-0.3l1.2-0.3
			c0.8-0.1,1.7,0,2.5,0.4c1.5,0.7,2.1,2.1,2.9,3.9c0.9,1.6,1.2,3.5,1,5.3c-0.1,1.1-0.6,2.1-1.3,2.9c-0.7,0.5-1.4,1-2.1,1.3
			c-0.9,0.5-1.9,1-2.9,1.4c-1.3,0.5-2,0.7-2.7,0.4c-0.8-0.2-1.3-0.9-1.4-1.7c0-0.9,1.1-1,1.2-1.7c0-0.9-1.5-1.1-3.3-2.7
			c-1.2-1.2-1-1.5-2.3-2.6c-0.8-0.7-1.6-1.2-2.6-1.6c-0.6-0.3-0.9-0.3-1.9-0.7c-1.2-0.6-1.5-0.8-1.7-1.1c-0.4-0.6-0.1-0.8-0.5-1.2
			s-1.1-0.3-2-0.3c-1,0-2-0.3-2.9-0.7c-0.5,3.3-0.9,6.7-1.4,10.1c-2.6-0.6-5.1-1.6-7.4-2.9c-4-2.3-8.1-5.9-13.6-16.3
			c-4.1-7.7-9.2-17.5-10.5-31.7C179.5,79.4,180,67.3,183.3,66.6z"/>
		<path class="st7" d="M183.7,66.9c0.1,2.3,0.3,5.2,0.7,8.6c0.2,1.6,0.6,4.5,1.6,8.9c1.4,5.9,3.1,11.8,5.1,17.5
			c4.5,12.7,6.8,19.2,11.4,23.4c2.8,2.5,5.9,4.4,9.4,5.8c0,2.5,0.1,5,0.1,7.5c-1.5,0.1-3-0.1-4.4-0.6c-2.2-0.7-4.1-2-5.6-3.7
			c-4.8-4.9-7.2-7.3-9.5-11.1C183,107.6,181.7,90,181.7,90C181.2,82.2,181.8,74.4,183.7,66.9z"/>
		<path class="st12" d="M219.1,121.4c0.2,0.2-0.7,1.2-1.3,2.8c-0.6,1.8-0.7,3.7-0.3,5.6c-1.4-0.3-2.8-0.6-4.1-0.8
			c0.4-1.8,1.2-3.5,2.4-5C217.1,122.4,218.9,121.2,219.1,121.4z"/>
		<path class="st7" d="M231.1,136.5c1.4-0.9,1.6-1.1,2.2-1.5c1.9-1,4-1.4,6.1-1c0.3,1.6,0,3.3-0.7,4.8c-0.8,1.2-1.8,2.2-2.9,3.1
			c-0.9,0.7-2.1,1.2-3.3,1.3c-1,0-2.5-0.1-2.8-0.8s1-1.2,0.8-2c-0.1-1-2-1.1-2-1.9C228.5,138,229.3,137.7,231.1,136.5z"/>
		<path class="st4" d="M182,66.6c2.6,1.3,5.1,3,7.2,5.1c2.4,2.5,3.2,5.7,3.7,9c1.1,7.2,1.7,14.5,1.7,21.8c0,0.3,0.3,0.5,0.6,0.5
			c0.2,0,0.4-0.2,0.5-0.5c0-7.8-0.7-15.6-2-23.2c-0.4-3-1.7-5.8-3.6-8.1c-2.1-2.3-4.9-3.9-7.6-5.4C181.9,65.3,181.3,66.3,182,66.6
			L182,66.6z"/>
		<path class="st4" d="M194.4,89c-0.9,13.8,7.9,26.3,21.2,30.2c0.3,0.1,0.6-0.1,0.7-0.4s-0.1-0.6-0.4-0.7l0,0
			c-12.8-3.7-21.3-15.8-20.4-29.1C195.6,88.3,194.5,88.3,194.4,89z"/>
		<path class="st4" d="M215.2,119.2c1.6,0.1,3.2,0.5,4.8,1.2c0-0.3-0.1-0.7-0.1-1c-6.8,3.8-8.7,11.1-8,18.4c0.1,0.7,1.2,0.7,1.1,0
			c-0.6-7,1.1-13.8,7.5-17.5c0.3-0.1,0.4-0.5,0.2-0.7c-0.1-0.1-0.2-0.2-0.4-0.3c-1.6-0.7-3.3-1.1-5.1-1.2
			C214.6,118,214.6,119,215.2,119.2L215.2,119.2z"/>
		<path class="st4" d="M190.9,121.6c2.3,4.3,5.3,8.2,8.9,11.5c3.4,3.1,7.6,6.2,12.5,6.1c0.7,0,0.7-1.1,0-1.1
			c-4.9,0.2-9.2-3.4-12.6-6.5c-3.2-3-5.9-6.6-7.9-10.5C191.5,120.4,190.6,120.9,190.9,121.6L190.9,121.6z"/>
		<path class="st4" d="M218.9,121.3l8.2,2.3c0.3,0,0.5-0.2,0.5-0.5c0-0.2-0.1-0.4-0.3-0.5c-2.8-0.8-5.5-1.5-8.2-2.3
			c-0.3-0.1-0.6,0.1-0.7,0.4C218.4,121,218.6,121.3,218.9,121.3L218.9,121.3z"/>
		<path class="st4" d="M233.5,127.8c2.3,0.3,4.2,2.1,4.8,4.4c0.3,1.1,0.5,2.2,0.5,3.3c0,0.4,0,4.8-1.1,4.1c-0.6-0.4-1.1,0.5-0.5,0.9
			c3.3,2.3,2.8-5.6,2.6-6.8c-0.4-3.4-2.5-6.7-6.2-7C232.8,126.7,232.8,127.7,233.5,127.8z"/>
		<path class="st4" d="M236.3,134.9c0.4,2.3,0.8,4.9-1.3,6.5c-0.5,0.4,0.2,1.2,0.8,0.8c2.4-1.9,2-4.9,1.6-7.6
			C237.3,133.9,236.2,134.2,236.3,134.9L236.3,134.9z"/>
		<path class="st4" d="M233.6,136.6c0.4,1.9,0.8,4.4-1.1,5.7c-0.6,0.4,0,1.3,0.6,1c2.4-1.5,2.1-4.5,1.6-6.9
			C234.5,135.7,233.5,136,233.6,136.6L233.6,136.6z"/>
		<path class="st4" d="M231.2,137c0.6,2,0.4,4.1-0.5,5.9c-0.3,0.6,0.6,1.2,0.9,0.5c1.1-2.1,1.4-4.5,0.6-6.8
			c-0.2-0.2-0.5-0.3-0.8-0.1C231.4,136.7,231.3,136.8,231.2,137L231.2,137z"/>
		<path class="st4" d="M213.2,129.7c1.5,0.4,3.1,0.7,4.6,1.1c0.7,0.1,1-0.9,0.3-1l-4.6-1.1c-0.3,0-0.5,0.3-0.5,0.6
			C213,129.4,213.1,129.6,213.2,129.7z"/>
		<path class="st4" d="M212.6,139c2-2.5,3.4-5.4,4.1-8.5c0.1-0.7-0.9-1-1.1-0.3c-0.6,2.9-1.9,5.7-3.8,8.1
			C211.4,138.7,212.2,139.5,212.6,139z"/>
		<path class="st4" d="M212.5,129.7c0.2,2.2,0.1,4.5-0.3,6.7c-0.1,0.3,0.1,0.6,0.4,0.7c0.3,0.1,0.6-0.1,0.6-0.4
			c0.7-2.3,1.4-4.5,2.3-6.8c0.2-0.6-0.6-0.8-0.9-0.6c-0.2,0-0.4,0-0.6,0c0,0.3-0.1,0.6-0.1,1c0.3-0.1,1.1,0,1.2,0.4
			c0.1,0.2-0.5,1-0.6,1.2c-0.4,0.7-0.8,1.4-1.1,2.1s0.5,1.1,0.9,0.5c1.1-1.4,1.6-3.2,1.5-4.9c0-0.3-0.3-0.5-0.6-0.5
			c-0.2,0-0.3,0.1-0.4,0.2c-1.1,1.7-1.8,3.5-2.1,5.5c0.4,0,0.7,0.1,1.1,0.1c0-1.4,0.3-2.9,0.8-4.2c-0.4,0-0.7-0.1-1.1-0.1
			c-0.2,1.2-0.4,2.5-0.7,3.7c-0.1,0.3,0.1,0.6,0.4,0.7s0.6-0.1,0.7-0.4c0.3-1.3,0.6-2.7,0.7-4c0.1-0.6-0.9-0.6-1.1-0.1
			c-0.6,1.4-0.9,2.9-0.9,4.5c0,0.6,1,0.8,1.1,0.1c0.3-1.9,0.9-3.6,2-5.2c-0.3-0.1-0.7-0.2-1-0.3c0.1,1.6-0.4,3.1-1.3,4.4l0.9,0.5
			c0.5-0.9,1-1.9,1.5-2.9c0.3-0.4,0.5-1,0.5-1.5c-0.3-1.3-1.7-1.2-2.6-0.9c-0.3,0.1-0.5,0.4-0.4,0.6c0,0.2,0.1,0.3,0.3,0.4
			c0.6,0.5,1.5,0.4,2-0.1c-0.3-0.2-0.6-0.4-0.9-0.6c-0.8,2.2-1.6,4.5-2.3,6.8l1.1,0.3c0.4-2.3,0.5-4.7,0.3-7
			C213.6,129,212.5,129,212.5,129.7L212.5,129.7z"/>
	</g>
	<g id="torso-2">
		<path class="st0" d="M144.1,68.8c3.1,12.5,5.1,25.3,6.2,38.2c2,24.7,0.3,49.6-5.1,73.8c15.5,7.1,33.6,5.8,47.8-3.5
			c-1-15.7-2.7-32.4-5.2-49.9c-3.3-23.4-7.6-45-12.4-64.6c-5.6-3.2-12.3-4.1-18.6-2.5C151.8,61.7,147.3,64.7,144.1,68.8z"/>
		<path class="st2" d="M154,57.2c-0.8,0-1.5,0.2-2.3,0.4c-1.9,0.6-3.5,1.8-4.8,3.3c-2.3,2.4-4.8,4.7-7.4,6.8
			c-1.4,10-2,20.1-1.9,30.1c0,2.8,0.2,7.7,0.2,15.3c0,4.9,0,10.3-0.2,15.1c-0.4,9.2-1.6,16.1-4.1,29.5c-1.1,6-2.7,14.1-4.9,23.7
			c3.2,1.8,6.5,3.3,9.9,4.5c4.9,1.7,9.3,3.2,14.9,2.5c1.5-0.2,2.9-0.5,4.3-1c0.7-3.7,1.6-9.3,2.5-16.1c2.7-21.8,2.1-38.9,1.6-52
			c-0.3-6.8-0.6-16.1-2.1-28.4C158.4,79.6,156.5,68.4,154,57.2z"/>
		<path class="st2" d="M164.7,59.5c1.7,1.1,3.3,2.5,4.5,4.1c3.6,4.7,3.7,10.2,3.7,12.4c0.3,11.5,3.2,22.8,4.1,34.2
			c0.6,7.2,0.3,2.5,2.3,24.4c1.8,18.9,2.1,23.3,2.3,26c0.5,6.7,1,15,1.4,24.8c2.1,0.2,4.1,0.2,6.2,0c3-0.3,5.9-0.5,9.1-2.3
			c1.7-1,3.2-2.2,4.5-3.7c-0.3-4.3-0.8-11-1.6-19.2c-1-9-2.9-23.9-11.8-65.6c-1.5-7-3.6-16.7-6.2-28.3c-4.1-2.4-7.3-4.5-9.5-6
			c-2.5-1.7-4.7-3.4-6.8-2.7C166,58,165.2,58.6,164.7,59.5z"/>
		<path class="st12" d="M137.7,95.6c0.4,2.5,1,6.4,1.6,11.4c2.8,22.6,1.5,34.6,2.9,60.8c0.3,4.6,0.7,11.4,1.5,19.8
			c-1.9-0.6-3.9-1.4-6-2.3c-3.2-1.4-6.3-2.9-9.3-4.5c1.1-3.9,2.4-9.2,3.7-15.5c2.5-11.8,4.2-23.8,5.1-35.9
			C138.1,118.2,138.2,106.9,137.7,95.6z"/>
		<path class="st5" d="M165.3,60.1c-1.7,0.7,3.8,14.3,6.6,34.5c0.9,7,1.5,14.1,1.6,21.2c1.1,25.2,0.8,51.4,0.4,68.7l8.7-2.1
			c-0.1-3-0.2-7.4-0.4-12.8c-1.2-29-4-51.6-6.2-69.7c-1-8.1-2.4-18.9-4.3-31.5C167.4,61.1,165.9,59.9,165.3,60.1z"/>
		<path class="st13" d="M178.9,68.2c0.2,1.6,0.5,3.8,0.8,6.6c0.9,8.3,1.4,14.7,1.6,20c0.4,7.2,0.6,12.8,0.6,14.3v0.3
			c0.4,16.2,2.6,76,1.8,76c-0.4,0-1.9-15.8-5.7-68c0.1-3.8,0.1-7.6,0.2-11.4c-0.1-14.4-0.1-24.5,0.3-27.7c0.3-1.5,0.1-3-0.4-4.4
			c-0.6-1.5-1.3-1.4-2-3c-0.5-1.5-0.8-3-0.6-4.6c0.1-0.8,0.2-1.7,0.2-2.5c-0.1-1.2-0.7-2.4-1.4-3.3c1.4,0.9,2.8,1.7,4.2,2.6
			C178.6,64.8,178.8,66.5,178.9,68.2z"/>
		<path class="st4" d="M154.8,58.5c-0.7-3-5-0.6-6.3,0.5c-3.4,2.7-6.6,5.7-9.8,8.6c-0.5,0.5,0.3,1.2,0.8,0.8c2-1.9,4.1-3.8,6.2-5.6
			c0.8-0.7,7.4-6.7,8-4C153.9,59.5,154.9,59.2,154.8,58.5L154.8,58.5z"/>
		<path class="st4" d="M137,96.7c0.8,14.6,0.4,29.2-1.1,43.8c-0.1,0.7,1,0.7,1.1,0c1.5-14.5,1.8-29.2,1.1-43.8
			C138.1,96,137,96,137,96.7z"/>
		<path class="st4" d="M153.3,56.8c-3.4,1.1-5.5,4.4-5.1,7.9c0.3,2.1,1.7,3.5,2.8,5.3c1.6,2.5,0,5.9-0.1,8.8
			c-0.2,5.9,1.6,11.7,3.2,17.3c1.7,5.8,3.4,11.6,4.9,17.4c1.8,6.8,2.7,13.9,2.7,20.9c0,0.3,0.2,0.5,0.5,0.5c0.3,0,0.5-0.2,0.5-0.5
			c0.2-14.3-4.6-27.9-8.4-41.6c-1.1-3.6-1.8-7.3-2.2-11c-0.2-2-0.1-4,0.2-6c0.2-1.4,0.8-2.8,0.6-4.3c-0.5-2.7-3.2-4.3-3.6-7
			c-0.3-3,1.5-5.7,4.3-6.7C154.3,57.6,154,56.6,153.3,56.8L153.3,56.8z"/>
		<path class="st4" d="M153.4,58.2c6.6,32.4,9.5,65.6,7.4,98.5c-0.6,9.5-1.6,18.9-3.1,28.3c-0.1,0.7,0.9,1,1.1,0.3
			c4.9-33.1,5-66.6,0.4-99.7c-1.2-9.3-2.8-18.5-4.7-27.7C154.3,57.2,153.3,57.5,153.4,58.2L153.4,58.2z"/>
		<path class="st4" d="M165.9,58.3c1.5-1.2,4.5,0.4,5.8,1.3c1.7,1.2,3,2.8,3.8,4.7c0.3,0.7,1.3,0.4,1.1-0.3c-1-2.4-2.7-4.4-4.9-5.8
			c-1.8-1.1-4.6-2.2-6.4-0.8C164.5,58,165.3,58.7,165.9,58.3z"/>
		<path class="st4" d="M164.7,60.6c7.4,3.9,7.5,14,8.5,21.2c1.1,8.3,2.1,16.6,3.1,24.9c1.8,16.6,3.4,33.3,4.7,50
			c0.7,9.5,1.3,19,1.9,28.6c0,0.7,1.1,0.7,1.1,0c-1.9-34.9-5.1-69.8-9.7-104.5c-1-7.4-1.3-17.2-8.9-21.1
			C164.6,59.4,164.1,60.3,164.7,60.6L164.7,60.6z"/>
		<path class="st4" d="M175.4,63.9c0.4,2-0.7,4-0.3,6c0.4,1.8,2.1,3.1,2.7,4.9c0.8,2.1,0.6,4.5,0.5,6.6c0,2.5-0.1,5-0.1,7.6
			c-0.2,9.7-0.5,19.4-1.1,29.2c0,0.7,1.1,0.7,1.1,0c0.6-10,0.9-19.9,1.1-29.9c0-2.4,0.1-4.8,0.1-7.2c0.1-2,0-4-0.4-6
			c-0.5-1.8-1.8-2.9-2.6-4.6c-1-2.1,0.4-4.6-0.1-6.8C176.3,63,175.2,63.3,175.4,63.9L175.4,63.9z"/>
		<path class="st4" d="M173.9,61.4c3.2,1.5,6.2,3.5,8.8,5.8c0.5,0.5,1.3-0.3,0.8-0.8c-2.7-2.5-5.7-4.5-9-6
			C173.8,60.2,173.3,61.1,173.9,61.4L173.9,61.4z"/>
		<path class="st4" d="M190.8,103.2c5.6,25.1,9.4,50.6,11.5,76.3c0.1,0.7,1.2,0.7,1.1,0c-2.1-25.8-5.9-51.4-11.5-76.6
			c-0.1-0.3-0.4-0.4-0.7-0.4C190.9,102.7,190.7,102.9,190.8,103.2L190.8,103.2z"/>
		<path class="st4" d="M183.3,185.8c3.9,1.1,7.8,0.3,11.6-0.9c3-1,6.5-2,8.4-4.7c0.4-0.6-0.6-1.1-0.9-0.6c-1.8,2.5-5.6,3.5-8.4,4.4
			c-3.4,1.1-6.9,1.7-10.4,0.7c-0.3-0.1-0.6,0.1-0.7,0.4S183,185.7,183.3,185.8z"/>
		<path class="st4" d="M136.2,136.6c-2.1,14.6-4.8,29.2-8.2,43.6c-0.2,0.7,0.9,1,1.1,0.3c3.4-14.4,6.1-28.9,8.2-43.6
			C137.4,136.2,136.3,135.9,136.2,136.6z"/>
		<path class="st4" d="M128.3,181.5c3,1.6,6.1,3.1,9.3,4.4c3.1,1.4,6.4,2.5,9.7,3.1c2.9,0.4,5.9,0.3,8.7-0.3
			c2.5-0.5,2.1-2.9,3.3-4.7c0.4-0.6-0.6-1.1-0.9-0.6c-0.4,0.8-0.7,1.6-0.9,2.4c-0.6,1.9-2,1.8-3.7,2c-3,0.4-6,0.2-8.9-0.6
			c-5.6-1.7-11-4-16.1-6.9C128.2,180.2,127.7,181.1,128.3,181.5L128.3,181.5z"/>
	</g>
	<g id="arm_left-2">
		<path class="st2" d="M141.8,66.2c-3.1,2.1-6,4.4-8.8,6.9c-2.3,2.2-4.5,4.5-6.5,6.9c-6.3,7.3-9.6,11-13.1,16.8
			c-4.1,6.6-6.1,9.9-6.9,14.9c-0.6,4.8-0.2,9.7,1.1,14.4c0.9,3.5,2.2,6.9,3.8,10.2c1.7,3.6,4.5,7.7,10,15.9
			c4.8,7.1,6.8,9.6,10.4,11.8c1.7,1,3.4,1.8,5.3,2.4c0.8-2.1,1.6-4.1,2.4-6.2c0.8,0.8,1.5,1.7,2.2,2.5c1.4,1.9,1.8,2.8,2.4,2.7
			c0.9,0,1.4-2.1,2-4.4c2.7-10.6,2.7-12.2,1.8-12.7c-0.6-0.4-1.1,0.2-2.7,0c-1.5-0.2-3-0.8-4.2-1.8c0.8-2.4,0.4-3.9,0-4.7
			c-0.9-1.7-2.4-1.7-4.5-3.8c-0.5-0.5-0.7-0.8-2.9-4.2c-2.4-3.6-3.5-5.4-3.8-6c-1.2-2.3-2.1-4.8-2.7-7.3c0.8-2.9,1.9-5.7,3.3-8.4
			c3.4-6.8,8.4-12.7,14.4-17.3C146.6,85.2,145.7,75.2,141.8,66.2z"/>
		<path class="st12" d="M140.3,67.4c-1.2,1.4-3,3.4-5.1,6c-7.4,9.2-12.8,15.8-16.2,24.4c-2.4,6.4-3.6,13.2-3.4,20
			c0.3,17.3,8.7,29.4,12,34c3.1,4.4,6.8,8.4,10.9,11.8c-0.5,0.8-1,1.7-1.4,2.5c-2.2-1.2-4.4-2.5-6.4-4c-8.8-6.6-13-14.7-16.9-22.4
			c-4.3-8.5-6.5-12.7-7.1-18.4c-0.9-7.8,0.6-17.3,5.3-23.1c0.4-0.5,0.7-0.8,1.8-2.2c4.5-5.5,7.4-9.7,8-10.6
			C124,82.4,128.9,77,140.3,67.4z"/>
		<path class="st4" d="M139.6,66.5c-6.4,5.7-12.3,11.8-17.8,18.4c-5.1,6.1-10.3,12.6-13.6,20c-3.3,7.5-3.1,15-0.5,22.7
			c2.6,7.5,6.2,14.6,10.7,21.2c2.4,3.7,5.1,7.1,8.1,10.4c2.7,3,5.6,6,9.5,7.4c0.7,0.2,1-0.8,0.3-1.1c-3.7-1.3-6.5-4.2-9.1-7.1
			c-2.6-2.9-5-6-7.2-9.2c-4.3-6.2-7.9-12.9-10.6-20c-1.6-3.8-2.5-7.9-2.8-12c-0.1-4,0.8-8,2.5-11.7c3-7,8-13.1,12.8-19
			c5.6-6.8,11.8-13.3,18.4-19.2c0.5-0.5-0.3-1.2-0.8-0.8L139.6,66.5z"/>
		<path class="st4" d="M143,95.9c-8.3,6.1-14.1,14.8-16.6,24.8c0,0.3,0.2,0.5,0.5,0.5c0.2,0,0.4-0.1,0.5-0.3
			c2.4-9.7,8.1-18.2,16.1-24.1C144.1,96.4,143.5,95.5,143,95.9L143,95.9z"/>
		<path class="st4" d="M125.4,118.1c2.3,9.6,7.6,18.1,15.2,24.4c0.5,0.4,1.3-0.3,0.8-0.8c-7.5-6.2-12.7-14.6-15-24
			C126.2,117.1,125.1,117.4,125.4,118.1L125.4,118.1z"/>
		<path class="st4" d="M140.5,141.8c0.2,4.1,0,8.3-0.7,12.3c-0.3,1.9-0.6,3.8-1.1,5.7c-0.2,0.9-0.4,1.7-0.7,2.6
			c-0.1,0.5-0.7,3.2-1.3,3.3c0.2,0.1,0.4,0.2,0.6,0.3l-0.1-0.2c-0.4-0.6-1.3,0-0.9,0.6c0,0.1,0.1,0.1,0.1,0.2
			c0.1,0.2,0.4,0.3,0.6,0.3c1.4-0.2,1.6-2.4,1.9-3.4c0.7-2.4,1.3-4.8,1.7-7.3c0.8-4.7,1.1-9.5,0.9-14.3
			C141.6,141.1,140.5,141.1,140.5,141.8z"/>
		<path class="st4" d="M140.8,146.7c1.7,1.4,3.8,2.1,5.9,2.1c0.3,0,0.5-0.3,0.5-0.6c0-0.2-0.2-0.4-0.5-0.5c-1.9,0-3.7-0.6-5.1-1.8
			C141.1,145.5,140.3,146.2,140.8,146.7z"/>
		<path class="st4" d="M139.3,161.3c1.2,0.1,1.8,1.5,2.4,2.4c0.5,0.9,1.3,1.6,2.3,2c0.7,0.2,0.9-0.8,0.3-1.1
			c-1.2-0.4-1.8-1.7-2.5-2.7c-0.5-0.9-1.5-1.5-2.5-1.7C138.6,160.2,138.6,161.2,139.3,161.3L139.3,161.3z"/>
		<path class="st4" d="M146.1,143.9c1.8,4.1,1.1,8.6,0.3,12.9s-1.7,8-4.3,11.5c-0.4,0.6,0.6,1.1,1,0.6c2.8-3.9,3.7-8.4,4.6-13
			c0.8-4.2,1.1-8.4-0.6-12.5C146.8,142.7,145.9,143.3,146.1,143.9L146.1,143.9z"/>
	</g>
	<g id="head-2">
		<path class="st2" d="M150.8,28.4c-1.2-0.3-2.4-0.3-3.6,0.1c-0.4,0.1-3,1.1-3.4,3.7c-0.2,2,0.8,3.9,2.6,4.8
			c0.5,0.3,1.1,0.4,1.7,0.5c0.3,1.2,0.6,2.5,0.8,3.7c0.4,2.7,0,2.8,0.3,4.3c0.6,2.3,2,4.4,3.9,5.8c1.2,0.9,1.7,0.8,2.1,1.5
			c0.8,1.2,0.5,2.8,0,5.2c-0.2,1-0.5,2-0.8,2.9c1,1.3,2.4,2.2,4,2.6c1.6,0.4,3.2,0.4,4.8-0.1c0.6-2.5,1.2-5,1.9-7.5
			c1.9-0.4,3.7-1.1,5.4-2c1.3-0.7,2.5-1.6,3.5-2.6c1.7-1.9,3-4.2,3.6-6.6c2.3-7.8,1.3-13.4,2.3-19.6c0.1-0.5,0.3-2.1,0.5-4.2
			c0.1-1.7,0.2-3.1,0.2-3.9c-4.1-3.3-9.4-4.6-14.6-3.8c-7.3,1.3-11.1,6.8-12.1,8.3C152.4,23.6,151.4,26,150.8,28.4z"/>
		<path class="st10" d="M150.1,37.6c0,1.3,0,2.6-0.1,4c-0.2,1.7-0.5,3.4-0.9,5c-0.8,1-1.9,1.8-3.1,2.3c-2.2,0.8-4.7,0.5-6.7-0.7
			c-0.2-2.2-0.5-4.3-0.9-6.5c-1.2-6-2.8-9.3-3.3-11.4c-1.1-3.9-0.3-10.1,7.9-19.9c-2.4-0.1-2.9-0.4-3-0.8c-0.3-1.1,4.2-3.3,7.7-4.6
			c4.8-1.7,8.6-1.8,8.5-2.4s-4.3-0.6-4.3-1.1s4.8-2,9.9-1.6c4.8,0.4,9.4,2.3,13.3,5.2c1.9,1.5,5.3,4.2,6.8,8.7
			c0.5,1.4,1.6,4.8-0.1,7c-0.4,0.5-0.9,0.8-1.4,1c0.1-1.1-0.1-2.3-0.6-3.3c-1-1.4-2.4-2.4-4.1-2.8c-5.4-1.7-11.2-1.1-16.1,1.6
			c-0.2,0.1,0,0-4.1,3.8c-2.8,2.6-4.1,3.7-4.1,5.4c0,0.9,0.4,1.5,0,1.9c-0.5,0.5-1.7-0.4-3.1-0.3c-2.2,0.3-4,2.1-4.3,4.3
			c-0.2,2.6,2.4,4.3,2.7,4.4C147.6,37.5,148.9,37.8,150.1,37.6z"/>
		<path class="st8" d="M162.2,16c-1.2,2-2.2,4.1-3.1,6.2c-1.4,3.6-3.8,9.4-3.5,16.7c0.3,5.8,2.1,11.5,5.3,16.4
			c-0.8,2.9-1.7,5.7-2.5,8.6c-2.1-0.4-3-1.2-3.3-2c-0.6-1.1,0-2.2,0.1-4.6c0.1-1.4,0.1-2.9-0.1-4.3c-1.8-1.5-3.3-3.3-4.7-5.2
			c-0.5-0.7-1-1.4-1.4-2.1c-0.2,0.7-0.6,1.3-1.1,1.8c-1,0.9-2.2,1.4-3.5,1.5c-1.7,0.3-3.5,0-5.1-0.7c-0.1-1.7-0.4-3.5-0.7-5.4
			c-0.5-2.8-1.2-5.5-2.1-8.2c0.6,2.3,3.1,3.7,5.4,3.1c1.1-0.3,2.1-1.1,2.7-2.1c-1.4-2-1-4.8,0.8-6.4c1.6-1.2,3.7-1.4,5.4-0.4
			c0-1,0.2-2,0.4-2.9C153.1,19.4,160.6,16.5,162.2,16z"/>
		<path class="st4" d="M179.4,21.7c0.1,5.3-0.1,10.7-0.7,16c-0.6,4.9-2,9.8-5.5,13.5c-3.5,3.6-8.7,5-13.5,3.5
			c-4.5-1.4-8.1-4.7-10.1-9c-0.3-0.6-1.2-0.1-0.9,0.5c4.2,8.6,15.4,13.7,23.7,7.2c4-3.2,6-8,7-12.9c1-6.2,1.4-12.5,1.1-18.7
			c0-0.3-0.2-0.6-0.5-0.6s-0.6,0.2-0.6,0.5C179.5,21.6,179.5,21.7,179.4,21.7L179.4,21.7z"/>
		<path class="st4" d="M170.8,23.4c0.3,2.7,0.8,5.3,1.3,8c0.3,1.3,1,3,0.8,4.3c-0.2,1.6-2,2.6-3.5,3.1c-0.6,0.3-0.4,1.3,0.3,1
			c1.8-0.7,4.6-2.2,4.4-4.5c-0.2-1.8-0.9-3.6-1.2-5.3c-0.4-2.2-0.8-4.4-1.1-6.7C171.8,22.7,170.7,22.7,170.8,23.4L170.8,23.4z"/>
		<path class="st4" d="M165.9,26.2c-0.1,1.2-0.4,2.4-0.8,3.5c-0.3,0.7,0.8,1,1,0.3c0.5-1.2,0.7-2.5,0.9-3.8
			C167,25.5,165.9,25.5,165.9,26.2L165.9,26.2z"/>
		<path class="st4" d="M165.7,25.9c-0.5,1.3-0.7,2.8-0.7,4.2c0,0.3,0.3,0.5,0.6,0.5c0.2,0,0.4-0.2,0.5-0.5c0-1.3,0.2-2.6,0.7-3.9
			C167,25.5,165.9,25.3,165.7,25.9z"/>
		<path class="st4" d="M162.5,22.9c1.5-1.5,4-1.5,5.5,0c0.5,0.5,1.3-0.3,0.8-0.8c-2-1.9-5.1-1.9-7.1,0
			C161.2,22.6,162,23.4,162.5,22.9z"/>
		<path class="st4" d="M174.2,22.8c1.2-0.8,2.8-0.5,3.6,0.6c0.1,0.1,0.1,0.2,0.2,0.3c0.3,0.6,1.3,0.1,0.9-0.5c-1-1.8-3.2-2.4-5-1.5
			c-0.2,0.1-0.3,0.2-0.5,0.3C172.9,22.4,173.7,23.2,174.2,22.8L174.2,22.8z"/>
		<path class="st4" d="M171.8,43.5c-2.2,1.4-5.1,0.7-6.5-1.5c-0.2-0.2-0.3-0.5-0.4-0.8c-0.3-0.7-1.3-0.4-1.1,0.3
			c1.1,3,4.5,4.5,7.5,3.4c0.4-0.1,0.7-0.3,1-0.5C173,44,172.3,43.1,171.8,43.5z"/>
		<path class="st4" d="M151.3,28.8c-2.5-3.3-7.4,0.1-8.1,3.3c-0.6,2.6,1.1,5.2,3.7,5.8c1.1,0.2,2.3,0.1,3.3-0.4
			c0.6-0.3,0.1-1.3-0.5-1c-3.1,1.6-6.3-1.5-5.3-4.7c0.6-2.3,4.2-4.7,6.1-2.3C150.9,30,151.7,29.3,151.3,28.8L151.3,28.8z"/>
		<path class="st4" d="M176.6,27.1c-0.1,1.2-0.4,2.4-0.8,3.5c-0.3,0.6,0.8,1,1.1,0.3c0.5-1.2,0.8-2.5,0.9-3.8
			C177.8,26.4,176.7,26.4,176.6,27.1z"/>
		<path class="st4" d="M176.3,26.8c-0.5,1.3-0.7,2.8-0.7,4.2c0,0.3,0.2,0.5,0.5,0.5c0.3,0,0.5-0.2,0.5-0.5c0-1.3,0.2-2.6,0.7-3.9
			C177.6,26.4,176.6,26.1,176.3,26.8L176.3,26.8z"/>
		<path class="st4" d="M165.6,55.4c-0.9,1.9-1.6,4-1.9,6.1c-0.1,0.7,1,1,1.1,0.3c0.3-2,0.9-4,1.8-5.8
			C166.8,55.3,165.9,54.8,165.6,55.4z"/>
		<path class="st4" d="M155.1,53.8c0,1.5-0.1,3-0.4,4.4c-0.3,0.8-0.5,1.7-0.5,2.7c0.3,1.4,2,2.6,3.2,3.1c2.3,1,7,0.9,7.3-2.4
			c0.1-0.7-1-0.7-1.1,0c-0.1,1.5-2.4,1.8-3.6,1.8c-1.4,0-2.8-0.6-3.8-1.5c-1.4-1.3-0.6-2.8-0.3-4.4c0.2-1.2,0.3-2.5,0.3-3.7
			C156.2,53,155.1,53,155.1,53.8L155.1,53.8z"/>
		<path class="st4" d="M157.9,55.1c2.1,1.3,4.4,2.3,6.9,2.9c0.3,0.1,0.6-0.1,0.7-0.4c0.1-0.3-0.1-0.6-0.4-0.7
			c-2.3-0.6-4.6-1.6-6.6-2.8C157.9,53.8,157.3,54.7,157.9,55.1L157.9,55.1z"/>
		<path class="st4" d="M162.6,56.7c0.8,0.3,1.7,0.5,2.5,0.6c0.7,0.1,1-1,0.3-1.1c-0.9-0.1-1.7-0.3-2.5-0.6c-0.3-0.1-0.6,0.1-0.7,0.4
			C162.2,56.3,162.3,56.6,162.6,56.7z"/>
	</g>
	<g id="girl_hand">
		<path class="st2" d="M217.4,131.6c-0.8,0.4-0.8,1.6-0.8,3.2c0,1.4-0.1,2.8,0.8,3.4c0.6,0.3,1.2,0.3,1.8,0c0.1,0.7,0.5,1.4,1.1,1.8
			c0.8,0.5,1.7,0.6,2.5,0.2c0.4,0.7,1,1.3,1.7,1.7c1,0.6,2.3,0.8,3.5,0.4c1.1-0.4,2.3-1.4,2.1-2.2s-2-0.4-3.1-1.7s-0.3-2.8-1.3-3.6
			c-0.7-0.4-1.6-0.4-2.3-0.1c0.1-1.1-0.6-2.1-1.7-2.3c-0.6-0.1-1.1,0.1-1.5,0.6C219.3,131.8,218.2,131.2,217.4,131.6z"/>
		<path class="st4" d="M218.1,137.4c-1.3,0.4-1.2-4.5-0.7-5.1l1.8-0.1c0.2,0.3,0.3,0.7,0.3,1c0,0.4,0,0.8,0,1.2c0,0.6,0,1.1-0.1,1.6
			c0,0.2,0,0.4,0,0.6c0,0.5-0.3,0.9-0.7,1c-0.1-0.3-0.4-0.4-0.7-0.4c-0.3,0.1-0.4,0.4-0.4,0.6c0.1,0.7,0.7,1.1,1.4,1.1
			c0.7-0.2,1.3-0.8,1.3-1.6c0.3-1.4,0.3-2.9,0.2-4.3c0-1-0.6-1.9-1.4-2.5c-2.3-1.1-2.9,1.5-3,3.1c-0.2,1.4-0.1,5.4,2.3,4.6
			C219.1,138.3,218.8,137.3,218.1,137.4L218.1,137.4z"/>
		<path class="st4" d="M220.9,139.7c-0.4-1.4-0.7-2.9-0.7-4.4c-0.1-0.6,0-1.2,0.2-1.7c1.2-0.8,2-0.6,2.2,0.6
			c0.1,0.4,0.2,0.9,0.2,1.3c0.1,0.7,1.2,0.7,1.1,0c0-1.2-0.4-2.4-1.3-3.3c-0.7-0.6-1.8-0.6-2.5-0.1c-2,1.6-0.8,5.9-0.3,7.8
			C220,140.7,221.1,140.4,220.9,139.7L220.9,139.7z"/>
		<path class="st4" d="M219.6,140.1c0.9,0.9,2.3,1.2,3.5,0.8c0.3-0.1,0.4-0.3,0.4-0.6c0,0,0,0,0-0.1c-0.2-0.8-0.3-1.6-0.3-2.4
			c0-0.6,0.2-2.1,0.6-2.5c1.2-1,2.5,2.6,2.9,3.3s1.3,0.1,0.9-0.6c-0.6-1.2-2-5.1-4.1-4s-1.7,4.8-1.2,6.5c0.1-0.2,0.3-0.4,0.4-0.7
			c-0.8,0.3-1.8,0.1-2.4-0.5c-0.2-0.2-0.5-0.2-0.7,0C219.4,139.6,219.4,139.9,219.6,140.1L219.6,140.1z"/>
		<path class="st4" d="M226.6,142.2c-0.6-0.1-1.1-0.4-1.6-0.7c-0.9-0.8-0.2-1.9,0.8-2.2c1.4-0.4,2.8,0,3.8,0.9
			c0.5,0.5,1.3-0.3,0.8-0.8c-1.6-1.5-4.6-2.1-6.4-0.4c-1.9,2,0.5,3.7,2.3,4.2C226.9,143.4,227.2,142.4,226.6,142.2L226.6,142.2z"/>
		<path class="st4" d="M225.4,142.5c1.6,1.4,3.9,0.5,5-1c1.6-2.2-1.7-3.6-3.3-4.2c-0.6-0.3-1.2,0.6-0.5,0.9s3.6,1.4,3.1,2.5
			s-2.5,1.9-3.4,1c-0.2-0.2-0.5-0.2-0.8,0S225.2,142.2,225.4,142.5L225.4,142.5z"/>
	</g>
</g>
</svg>
