<?xml version="1.0" encoding="utf-8"?>
<!-- Generator: Adobe Illustrator 24.1.2, SVG Export Plug-In . SVG Version: 6.00 Build 0)  -->
<svg version="1.1" id="Слой_1" xmlns="http://www.w3.org/2000/svg" xmlns:xlink="http://www.w3.org/1999/xlink" x="0px" y="0px"
	 viewBox="0 0 330 330" style="enable-background:new 0 0 330 330;" xml:space="preserve">
<style type="text/css">
	.st0{opacity:0.1;fill:url(#SVGID_1_);enable-background:new    ;}
	.st1{fill:url(#SVGID_2_);}
	.st2{fill:#7D97F4;}
	.st3{fill:url(#SVGID_3_);}
	.st4{fill:#91B3FA;}
	.st5{opacity:0.53;fill:url(#SVGID_4_);enable-background:new    ;}
	.st6{fill:url(#SVGID_5_);}
	.st7{fill:url(#SVGID_6_);}
	.st8{fill:url(#SVGID_7_);}
	.st9{fill:url(#SVGID_8_);}
	.st10{fill:url(#SVGID_9_);}
	.st11{opacity:0.78;fill:#FFFFFF;enable-background:new    ;}
	.st12{fill:url(#SVGID_10_);}
	.st13{fill:url(#SVGID_11_);}
	.st14{fill:url(#SVGID_12_);}
	.st15{fill:#FFFFFF;}
	.st16{fill:url(#SVGID_13_);}
	.st17{fill:url(#SVGID_14_);}
	.st18{fill:url(#SVGID_15_);}
	.st19{fill:url(#SVGID_16_);}
	.st20{fill:url(#SVGID_17_);}
	.st21{fill:url(#SVGID_18_);}
	.st22{fill:url(#SVGID_19_);}
	.st23{fill:url(#SVGID_20_);}
	.st24{fill:url(#SVGID_21_);}
	.st25{fill:url(#SVGID_22_);}
	.st26{fill:url(#SVGID_23_);}
	.st27{fill:url(#SVGID_24_);}
	.st28{fill:url(#SVGID_25_);}
	.st29{fill:url(#SVGID_26_);}
	.st30{fill:url(#SVGID_27_);}
	.st31{fill:url(#SVGID_28_);}
	.st32{fill:url(#SVGID_29_);}
	.st33{fill:url(#SVGID_30_);}
	.st34{fill:url(#SVGID_31_);}
	.st35{fill:url(#SVGID_32_);}
	.st36{fill:url(#SVGID_33_);}
	.st37{fill:url(#SVGID_34_);}
	.st38{fill:url(#SVGID_35_);}
	.st39{fill:url(#SVGID_36_);}
	.st40{fill:url(#SVGID_37_);}
	.st41{fill:url(#SVGID_38_);}
	.st42{fill:url(#SVGID_39_);}
	.st43{fill:url(#SVGID_40_);}
	.st44{fill:url(#SVGID_41_);}
	.st45{fill:url(#SVGID_42_);}
	.st46{fill:url(#SVGID_43_);}
	.st47{fill:url(#SVGID_44_);}
	.st48{fill:url(#SVGID_45_);}
	.st49{fill:url(#SVGID_46_);}
	.st50{fill:url(#SVGID_47_);}
	.st51{fill:url(#SVGID_48_);}
	.st52{fill:url(#SVGID_49_);}
	.st53{fill:url(#SVGID_50_);}
	.st54{fill:url(#SVGID_51_);}
	.st55{fill:url(#SVGID_52_);}
	.st56{fill:url(#SVGID_53_);}
	.st57{fill:url(#SVGID_54_);}
	.st58{fill:url(#SVGID_55_);}
	.st59{fill:url(#SVGID_56_);}
	.st60{fill:url(#SVGID_57_);}
	.st61{fill:url(#SVGID_58_);}
	.st62{fill:url(#SVGID_59_);}
	.st63{fill:url(#SVGID_60_);}
	.st64{fill:url(#SVGID_61_);}
	.st65{fill:url(#SVGID_62_);}
	.st66{fill:url(#SVGID_63_);}
	.st67{fill:url(#SVGID_64_);}
	.st68{fill:url(#SVGID_65_);}
	.st69{fill:url(#SVGID_66_);}
	.st70{fill:url(#SVGID_67_);}
	.st71{fill:url(#SVGID_68_);}
	.st72{opacity:0.5;}
	.st73{fill:url(#SVGID_69_);}
	.st74{fill:url(#SVGID_70_);}
	.st75{fill:url(#SVGID_71_);}
	.st76{fill:url(#SVGID_72_);}
	.st77{fill:url(#SVGID_73_);}
	.st78{fill:url(#SVGID_74_);}
	.st79{fill:url(#SVGID_75_);}
</style>
<g>
	<g>
		
			<linearGradient id="SVGID_1_" gradientUnits="userSpaceOnUse" x1="349.6186" y1="1111.4413" x2="127.4043" y2="874.8906" gradientTransform="matrix(1 0 0 1 0 -747.2)">
			<stop  offset="0" style="stop-color:#20C3D0"/>
			<stop  offset="0.3016" style="stop-color:#1EC0D0"/>
			<stop  offset="0.5347" style="stop-color:#19B6CF"/>
			<stop  offset="0.7449" style="stop-color:#11A6CD"/>
			<stop  offset="0.9405" style="stop-color:#058FCA"/>
			<stop  offset="1" style="stop-color:#0086C9"/>
		</linearGradient>
		<path class="st0" d="M282.9,269.3c-8.2,8.5-15.5,13.4-21.2,17.2c-54.8,36.6-117.5,26-136.8,22.4c-31.2-5.8-57.6-9.9-80.3-30.4
			C-6.9,232.1-4.4,135,35,74.9c4.7-7.1,44-65.4,106.7-73.6c1.5-0.2,2.6-0.4,3.7-0.4c9.7-1.1,69.9-6.4,119,34.7
			c7.1,5.9,18.4,16.5,28.8,32.7C331.6,127.4,331.6,219.1,282.9,269.3z"/>
		<g>
			
				<linearGradient id="SVGID_2_" gradientUnits="userSpaceOnUse" x1="232.8" y1="950.3254" x2="304.1401" y2="950.3254" gradientTransform="matrix(1 0 0 1 0 -747.2)">
				<stop  offset="0" style="stop-color:#4F52FF"/>
				<stop  offset="1" style="stop-color:#4042E2"/>
			</linearGradient>
			<path class="st1" d="M253.2,114.3l28-6.5c0,0,18.7-1.7,21.2,14.9s1.8,115,1,135.3c-0.3,6.7-0.3,12.9,0.4,18.3
				c1.1,11.2-7.6,21-18.9,21.3l-52.1,0.9L253.2,114.3z"/>
			<path class="st2" d="M196.3,115.6c0,0,50.9,2.8,84.8-7.9c0,0-22.5-1.5-22.5,50.5c0,39.8,5.9,115.6,0.7,130.1
				c-5.1,14.4-24.4,33.8-52,17.1C179.7,288.8,196.3,115.6,196.3,115.6z"/>
			
				<linearGradient id="SVGID_3_" gradientUnits="userSpaceOnUse" x1="242.6596" y1="841.5048" x2="140.9899" y2="630.1689" gradientTransform="matrix(1 0 0 1 0 -747.2)">
				<stop  offset="0" style="stop-color:#4042E2"/>
				<stop  offset="1" style="stop-color:#4F52FF"/>
			</linearGradient>
			<path class="st3" d="M182.8,37.6c0,0,56.1,6.1,63.4-3.4c0,0-5.7-17.1-22.9-16C206.3,19.4,182.8,37.6,182.8,37.6z"/>
			<path class="st4" d="M0.1,56.9C5,112,15.3,228.5,19.8,285.1c1,12.6,11.1,22.6,23.7,23.5c45.1,2.9,146.5,8.5,185.4,3.3l0,0
				c-8.9-4.4-14.6-13.5-14.5-23.5l2-254.5c0.1-9,9-15.4,17.5-12.3c5.3,2,9.4,6.2,12.1,12.6c-3.7-10.7-9.4-18.5-22.9-16
				c0,0-131,1.3-194.5,5.2C11.6,24.6-1.4,39.7,0.1,56.9z"/>
			
				<linearGradient id="SVGID_4_" gradientUnits="userSpaceOnUse" x1="190.5259" y1="825.1959" x2="-80.4392" y2="1171.948" gradientTransform="matrix(1 0 0 1 0 -747.2)">
				<stop  offset="0" style="stop-color:#FFFFFF"/>
				<stop  offset="1" style="stop-color:#FFFFFF"/>
			</linearGradient>
			<path class="st5" d="M32.5,30.8l176-6.8c-7.2,53.8-4.2,163.1-1.4,271c0.2,6.4,3.9,12.2,9.7,14.9l0,0c0,0-117.4,1.3-167.8-2.2
				c-11.9-0.9-21.5-9.8-23.3-21.6c-6.9-46.2-23.5-165.6-20-228.8C6.4,42.8,18,31.4,32.5,30.8z"/>
			<g>
				
					<linearGradient id="SVGID_5_" gradientUnits="userSpaceOnUse" x1="30.1642" y1="870.0382" x2="58.3" y2="870.0382" gradientTransform="matrix(1 0 0 1 0 -747.2)">
					<stop  offset="0" style="stop-color:#DAE3FE"/>
					<stop  offset="1" style="stop-color:#E9EFFD"/>
				</linearGradient>
				<path class="st6" d="M30.2,114.1l2,19.7c0.4,3.6,3.4,6.4,7,6.5l11.5,0.4c4.1,0.2,7.6-3.2,7.6-7.3v-21.2c0-4.2-3.6-7.6-7.9-7.2
					l-13.6,1.1C32.8,106.5,29.8,110.1,30.2,114.1z"/>
				
					<linearGradient id="SVGID_6_" gradientUnits="userSpaceOnUse" x1="66.5673" y1="857.8503" x2="185.8" y2="857.8503" gradientTransform="matrix(1 0 0 1 0 -747.2)">
					<stop  offset="0" style="stop-color:#DAE3FE"/>
					<stop  offset="1" style="stop-color:#E9EFFD"/>
				</linearGradient>
				<path class="st7" d="M70.6,108.1c19.1-0.6,92.4-3,111-3.6c2.3-0.1,4.2,1.8,4.2,4.1l0,0c0,2.2-1.8,4.1-4,4.1l-110.9,4.1
					c-2.1,0.1-4-1.5-4.2-3.6l-0.1-0.5C66.3,110.3,68.1,108.1,70.6,108.1z"/>
				
					<linearGradient id="SVGID_7_" gradientUnits="userSpaceOnUse" x1="68.7374" y1="877.05" x2="148.8" y2="877.05" gradientTransform="matrix(1 0 0 1 0 -747.2)">
					<stop  offset="0" style="stop-color:#DAE3FE"/>
					<stop  offset="1" style="stop-color:#E9EFFD"/>
				</linearGradient>
				<path class="st8" d="M69.4,134.1L69.4,134.1c0.4,0.5,0.9,0.9,1.6,0.9l76.1-1.7c1,0,1.7-0.8,1.7-1.8v-5c0-1-0.8-1.8-1.9-1.8
					l-74,2.7C69.7,127.6,67.6,131.2,69.4,134.1z"/>
			</g>
			<g>
				
					<linearGradient id="SVGID_8_" gradientUnits="userSpaceOnUse" x1="30.1642" y1="924.8382" x2="58.3" y2="924.8382" gradientTransform="matrix(1 0 0 1 0 -747.2)">
					<stop  offset="0" style="stop-color:#DAE3FE"/>
					<stop  offset="1" style="stop-color:#E9EFFD"/>
				</linearGradient>
				<path class="st9" d="M30.2,168.9l2,19.7c0.4,3.6,3.4,6.4,7,6.5l11.5,0.4c4.1,0.2,7.6-3.2,7.6-7.3V167c0-4.2-3.6-7.6-7.9-7.2
					l-13.6,1.1C32.8,161.2,29.8,164.8,30.2,168.9z"/>
				
					<linearGradient id="SVGID_9_" gradientUnits="userSpaceOnUse" x1="66.5673" y1="912.5504" x2="185.8" y2="912.5504" gradientTransform="matrix(1 0 0 1 0 -747.2)">
					<stop  offset="0" style="stop-color:#DAE3FE"/>
					<stop  offset="1" style="stop-color:#E9EFFD"/>
				</linearGradient>
				<path class="st10" d="M70.6,162.8c19.1-0.6,92.4-3,111-3.6c2.3-0.1,4.2,1.8,4.2,4.1l0,0c0,2.2-1.8,4.1-4,4.1l-110.9,4.1
					c-2.1,0.1-4-1.5-4.2-3.6l-0.1-0.5C66.3,165,68.1,162.9,70.6,162.8z"/>
				<path class="st11" d="M69.4,188.7L69.4,188.7c0.4,0.5,0.9,0.9,1.6,0.9l76.1-1.7c1,0,1.7-0.8,1.7-1.8v-5c0-1-0.8-1.8-1.9-1.8
					l-74,2.7C69.7,182.3,67.6,185.9,69.4,188.7z"/>
			</g>
			<g>
				
					<linearGradient id="SVGID_10_" gradientUnits="userSpaceOnUse" x1="30.1642" y1="979.4882" x2="58.3" y2="979.4882" gradientTransform="matrix(1 0 0 1 0 -747.2)">
					<stop  offset="0" style="stop-color:#DAE3FE"/>
					<stop  offset="1" style="stop-color:#E9EFFD"/>
				</linearGradient>
				<path class="st12" d="M30.2,223.6l2,19.7c0.4,3.6,3.4,6.4,7,6.5l11.5,0.4c4.1,0.2,7.6-3.2,7.6-7.3v-21.3c0-4.2-3.6-7.6-7.9-7.2
					l-13.6,1.1C32.8,215.8,29.8,219.4,30.2,223.6z"/>
				
					<linearGradient id="SVGID_11_" gradientUnits="userSpaceOnUse" x1="66.5673" y1="967.2504" x2="185.8" y2="967.2504" gradientTransform="matrix(1 0 0 1 0 -747.2)">
					<stop  offset="0" style="stop-color:#DAE3FE"/>
					<stop  offset="1" style="stop-color:#E9EFFD"/>
				</linearGradient>
				<path class="st13" d="M70.6,217.5c19.1-0.6,92.4-3,111-3.6c2.3-0.1,4.2,1.8,4.2,4.1l0,0c0,2.2-1.8,4.1-4,4.1l-110.9,4.1
					c-2.1,0.1-4-1.5-4.2-3.6l-0.1-0.5C66.3,219.7,68.1,217.6,70.6,217.5z"/>
				
					<linearGradient id="SVGID_12_" gradientUnits="userSpaceOnUse" x1="68.7374" y1="986.45" x2="148.8" y2="986.45" gradientTransform="matrix(1 0 0 1 0 -747.2)">
					<stop  offset="0" style="stop-color:#DAE3FE"/>
					<stop  offset="1" style="stop-color:#E9EFFD"/>
				</linearGradient>
				<path class="st14" d="M69.4,243.5L69.4,243.5c0.4,0.5,0.9,0.9,1.6,0.9l76.1-1.7c1,0,1.7-0.8,1.7-1.8v-5c0-1-0.8-1.8-1.9-1.8
					l-74,2.7C69.7,237,67.6,240.6,69.4,243.5z"/>
			</g>
			<path class="st15" d="M251.4,206.7c-0.4,0-0.9-0.4-0.9-0.8c-0.2-6-0.4-12.7-0.8-19.7c-0.4-9.5-0.8-19.3-1.1-28.9
				c-0.6-25.1,3.5-34.6,7.1-38.3c1.9-1.9,3.5-2,3.7-2c0.4,0,0.9,0.4,0.9,0.9c0,0.4-0.4,0.9-0.9,0.9c-0.2,0-10.1,1.1-9.2,38.6
				c0.3,9.4,0.6,19.3,1.1,28.8c0.3,7.1,0.6,13.7,0.8,19.8C252.2,206.3,251.9,206.7,251.4,206.7L251.4,206.7z"/>
			
				<linearGradient id="SVGID_13_" gradientUnits="userSpaceOnUse" x1="154.1513" y1="971.2981" x2="116.698" y2="1067.1893" gradientTransform="matrix(1 0 0 1 0 -747.2)">
				<stop  offset="0" style="stop-color:#09005D"/>
				<stop  offset="1" style="stop-color:#1A0F91"/>
			</linearGradient>
			<path class="st16" d="M118.3,302.6c-0.9,0-1.8-0.4-2.6-1.2c-3.4-3.1-4.2-7.9-4.5-12.4c-1.6,1.8-3.2,3.4-4.8,5.1l-0.9-0.8
				c1.9-1.9,3.7-4,5.6-6c-0.2-6.2,0.2-12.4,0.9-18.6c0.4-3.8,1.1-7.8,2.7-11.5c0.5-1.1,1.4-2.8,2.9-3.9c1.6-1.1,3.6-1.2,4.9-0.3
				c1.5,1.1,1.9,3,2.1,4.3c1.1,8.1-2.1,15.5-4.9,20.4c-2.1,3.5-4.7,6.8-7.3,10c0.2,4.7,0.8,9.7,4.1,12.8c0.7,0.6,1.3,1,1.9,1
				c1,0,1.7-1,2.4-1.9c2.8-4.1,5-8.5,6.6-13.2c0.2-1.4,0.6-2.8,1.1-4.1l1.1,0.4c-0.4,1.3-0.7,2.6-1.1,4c-0.2,1.3-0.1,2.6,0.2,4
				c0.2,0.7,0.7,3,2.5,3.4c1.2,0.3,2.6-0.7,4.1-2.9l6-9.1l-0.8,3.3c-0.3,1.1-0.7,3.9,0.9,4.6c0.9,0.4,1.9-0.2,3-0.8s2.3-1.2,3.5-1.1
				l0.6,0.1l-0.1,0.6c-0.1,0.4-0.5,3.4,1.1,3.8c0.7,0.2,1.3-0.4,2.3-1.2c0.7-0.7,1.5-1.3,2.5-1.6l0.3,1.1c-0.7,0.2-1.3,0.7-1.9,1.3
				c-0.9,0.9-1.9,1.8-3.4,1.5c-1.9-0.4-2.3-2.5-2-4.4c-0.7,0.1-1.4,0.5-2.2,1c-1.2,0.7-2.6,1.5-4.1,0.9c-1.2-0.5-1.9-1.7-1.9-3.4
				l-2.7,4.2c-1.1,1.7-2.9,3.9-5.3,3.4c-1.7-0.4-2.9-1.9-3.4-4.2c-0.1-0.4-0.1-0.6-0.2-1c-1.5,3.6-3.4,7.1-5.6,10.3
				c-0.7,1.1-1.8,2.3-3.3,2.4C118.4,302.6,118.4,302.6,118.3,302.6z M120.4,253.5c-0.8,0-1.6,0.3-2.1,0.7c-1.2,0.9-2,2.4-2.5,3.4
				c-1.6,3.5-2.2,7.4-2.6,11.1c-0.6,5.6-1,11.5-0.9,17.1c2.4-2.7,4.5-5.6,6.4-8.7c2.7-4.7,5.8-11.8,4.8-19.6
				c-0.3-1.9-0.7-2.9-1.6-3.5C121.5,253.6,121,253.5,120.4,253.5z"/>
			
				<linearGradient id="SVGID_14_" gradientUnits="userSpaceOnUse" x1="29.4845" y1="818.2502" x2="188.9017" y2="818.2502" gradientTransform="matrix(1 0 0 1 0 -747.2)">
				<stop  offset="0" style="stop-color:#DAE3FE"/>
				<stop  offset="1" style="stop-color:#E9EFFD"/>
			</linearGradient>
			<path class="st17" d="M179.7,83.3L39.5,87.4c-5,0.2-9.3-3.8-9.5-8.8l-0.5-10.5c-0.3-5.2,3.8-9.5,9-9.7l140.9-3.7
				c5.3-0.2,9.6,4.1,9.5,9.4l-0.2,10.1C188.6,79.1,184.6,83.1,179.7,83.3z"/>
			<g>
				<g>
					
						<linearGradient id="SVGID_15_" gradientUnits="userSpaceOnUse" x1="69.6059" y1="819.0577" x2="79.213" y2="819.0577" gradientTransform="matrix(1 0 0 1 0 -747.2)">
						<stop  offset="0" style="stop-color:#09005D"/>
						<stop  offset="1" style="stop-color:#1A0F91"/>
					</linearGradient>
					<path class="st18" d="M78.8,67.4c-0.3-1.4-1.2-2.7-2.5-3.5s-2.8-0.9-4.1-0.4c-0.7,0.3-1.3,0.7-1.9,1.2
						c-0.5,0.5-0.9,1.1-1.1,1.9c-0.4,1.4,0,3,1,4.1c0.5,0.6,1.3,1.1,2.1,1.3c0.8,0.3,1.7,0.4,2.6,0.4c-0.1,0-0.2,0-0.3,0
						c0.6,0.1,1.2,0.2,1.8,0.4c-0.1,0-0.2-0.1-0.2-0.1c0.3,0.1,0.4,0.2,0.6,0.4c0,0,0.1,0,0.1,0.1c0.1,0.1-0.1-0.1-0.1-0.1
						s0.1,0.1,0.2,0.1c0.1,0.1,0.2,0.2,0.3,0.3c0.1,0.1,0.2,0.2,0.3,0.3c0,0-0.2-0.2-0.1-0.1c0,0,0,0.1,0.1,0.1
						c0,0.1,0.1,0.1,0.1,0.2c0.2,0.2,0.3,0.4,0.4,0.6c0-0.1-0.1-0.2-0.1-0.2c0.2,0.4,0.3,0.7,0.3,1.1c0-0.1,0-0.2,0-0.3
						c0.1,0.4,0.1,0.7,0,1.1c0-0.1,0-0.2,0-0.3c0,0.3-0.1,0.6-0.3,0.9c0-0.1,0.1-0.2,0.1-0.2c-0.1,0.3-0.2,0.4-0.4,0.6
						c0,0.1-0.1,0.1-0.1,0.2c-0.1,0.1,0.1-0.2,0.1-0.1l-0.1,0.1c-0.1,0.1-0.2,0.2-0.3,0.3c-0.1,0.1-0.2,0.2-0.3,0.3
						c-0.1,0.1,0,0,0.1-0.1c0,0-0.1,0-0.1,0.1c-0.1,0-0.1,0.1-0.2,0.1c-0.2,0.2-0.4,0.3-0.7,0.4c0.1,0,0.2-0.1,0.2-0.1
						c-0.4,0.2-0.6,0.3-1,0.3c0.1,0,0.2,0,0.3,0c-0.4,0-0.6,0-1,0c0.1,0,0.2,0,0.3,0c-0.4-0.1-0.6-0.1-0.9-0.3
						c0.1,0,0.2,0.1,0.2,0.1c-0.3-0.1-0.4-0.2-0.6-0.4c-0.1,0-0.1-0.1-0.2-0.1c-0.1-0.1,0.2,0.2,0.1,0.1c0,0,0,0-0.1-0.1
						s-0.2-0.2-0.3-0.3c-0.1-0.1-0.2-0.2-0.3-0.3c0,0-0.1-0.1,0,0s0,0,0,0c0-0.1-0.1-0.1-0.1-0.2c-0.2-0.2-0.3-0.4-0.4-0.7
						c0,0.1,0.1,0.2,0.1,0.2c-0.1-0.3-0.2-0.6-0.3-0.9c0,0.1,0,0.2,0,0.3c0-0.2,0-0.3,0-0.4c0-0.4-0.4-0.9-0.9-0.9s-0.9,0.4-0.9,0.9
						c0,1.6,0.9,3,2.2,3.9c1.2,0.9,2.9,1.1,4.3,0.4c1.4-0.6,2.6-1.8,3-3.4c0.4-1.5-0.1-3.1-1.1-4.3c-0.5-0.7-1.3-1.1-2.1-1.4
						c-0.9-0.3-1.8-0.4-2.6-0.4c0.1,0,0.2,0,0.3,0c-0.6-0.1-1.2-0.2-1.8-0.4c0.1,0,0.2,0.1,0.2,0.1c-0.3-0.1-0.4-0.2-0.6-0.4
						c-0.1,0-0.2-0.2,0,0L72,69.8c-0.1-0.1-0.2-0.2-0.3-0.2c-0.1-0.1-0.2-0.2-0.2-0.3c0.2,0.3,0,0-0.1-0.1c-0.1-0.2-0.2-0.4-0.3-0.5
						c0,0.1,0.1,0.2,0.1,0.2c-0.2-0.4-0.3-0.6-0.3-1c0,0.1,0,0.2,0,0.3c0-0.4,0-0.6,0-1c0,0.1,0,0.2,0,0.3c0-0.3,0.1-0.6,0.3-0.9
						c0,0.1-0.1,0.2-0.1,0.2c0.1-0.2,0.2-0.4,0.4-0.6c0,0,0-0.1,0.1-0.1c0.1-0.1,0,0-0.1,0.1l0.1-0.1c0.1-0.1,0.2-0.2,0.3-0.3
						c0.1-0.1,0.2-0.2,0.3-0.2c0.1-0.1-0.2,0.1-0.1,0.1c0,0,0.1,0,0.1-0.1c0.1,0,0.1-0.1,0.2-0.1c0.2-0.1,0.4-0.3,0.6-0.4
						c-0.1,0-0.2,0.1-0.2,0.1c0.4-0.2,0.7-0.3,1.1-0.3c-0.1,0-0.2,0-0.3,0c0.4,0,0.7,0,1,0c-0.1,0-0.2,0-0.3,0
						c0.4,0.1,0.7,0.2,1,0.3c-0.1,0-0.2-0.1-0.2-0.1c0.3,0.1,0.5,0.3,0.7,0.4c0.1,0,0.1,0.1,0.2,0.1c0,0-0.2-0.2-0.1-0.1l0.1,0.1
						c0.1,0.1,0.2,0.2,0.3,0.3c0.1,0.1,0.2,0.2,0.3,0.3c0,0,0,0.1,0.1,0.1C76.5,66,76.6,66,76.6,66c0,0.1,0.1,0.1,0.1,0.2
						c0.2,0.3,0.3,0.4,0.4,0.7c0-0.1-0.1-0.2-0.1-0.2c0.1,0.3,0.2,0.6,0.3,0.9c0,0.2,0.3,0.4,0.4,0.5s0.4,0.2,0.7,0.1
						C78.6,68.3,78.9,67.9,78.8,67.4L78.8,67.4z"/>
				</g>
				<g>
					
						<linearGradient id="SVGID_16_" gradientUnits="userSpaceOnUse" x1="86.394" y1="810.85" x2="96.5398" y2="810.85" gradientTransform="matrix(1 0 0 1 0 -747.2)">
						<stop  offset="0" style="stop-color:#09005D"/>
						<stop  offset="1" style="stop-color:#1A0F91"/>
					</linearGradient>
					<path class="st19" d="M86.4,64.7c2.6-0.1,5.3-0.1,7.9-0.2c0.7,0,1.5,0,2.2-0.1c0.4,0,0.9-0.4,0.9-0.9c0-0.4-0.4-0.9-0.9-0.9
						c-2.6,0.1-5.3,0.1-7.9,0.2c-0.7,0-1.5,0-2.2,0.1c-0.4,0-0.9,0.4-0.9,0.9C85.6,64.4,85.9,64.7,86.4,64.7L86.4,64.7z"/>
					
						<linearGradient id="SVGID_17_" gradientUnits="userSpaceOnUse" x1="90.903" y1="818.9" x2="92.1692" y2="818.9" gradientTransform="matrix(1 0 0 1 0 -747.2)">
						<stop  offset="0" style="stop-color:#09005D"/>
						<stop  offset="1" style="stop-color:#1A0F91"/>
					</linearGradient>
					<path class="st20" d="M90.3,64.2c0.2,3.9,0.4,7.8,0.5,11.7c0.1,1.1,0.1,2.2,0.2,3.3c0,0.4,0.4,0.9,0.9,0.9
						c0.4,0,0.9-0.4,0.9-0.9c-0.2-3.9-0.4-7.8-0.5-11.7c-0.1-1.1-0.1-2.2-0.2-3.3c0-0.4-0.4-0.9-0.9-0.9
						C90.8,63.3,90.2,63.7,90.3,64.2L90.3,64.2z"/>
				</g>
				<g>
					
						<linearGradient id="SVGID_18_" gradientUnits="userSpaceOnUse" x1="122.2808" y1="810.35" x2="132.4265" y2="810.35" gradientTransform="matrix(1 0 0 1 0 -747.2)">
						<stop  offset="0" style="stop-color:#09005D"/>
						<stop  offset="1" style="stop-color:#1A0F91"/>
					</linearGradient>
					<path class="st21" d="M122.3,64.2c2.6-0.1,5.3-0.1,7.9-0.2c0.7,0,1.5,0,2.2-0.1c0.4,0,0.9-0.4,0.9-0.9c0-0.4-0.4-0.9-0.9-0.9
						c-2.6,0.1-5.3,0.1-7.9,0.2c-0.7,0-1.5,0-2.2,0.1c-0.4,0-0.9,0.4-0.9,0.9C121.4,63.7,121.7,64.2,122.3,64.2L122.3,64.2z"/>
					
						<linearGradient id="SVGID_19_" gradientUnits="userSpaceOnUse" x1="126.7897" y1="818.3" x2="128.056" y2="818.3" gradientTransform="matrix(1 0 0 1 0 -747.2)">
						<stop  offset="0" style="stop-color:#09005D"/>
						<stop  offset="1" style="stop-color:#1A0F91"/>
					</linearGradient>
					<path class="st22" d="M126.2,63.7c0.2,3.8,0.4,7.7,0.5,11.5c0.1,1.1,0.1,2.1,0.2,3.3c0,0.4,0.4,0.9,0.9,0.9
						c0.4,0,0.9-0.4,0.9-0.9c-0.2-3.8-0.4-7.7-0.5-11.5c-0.1-1.1-0.1-2.1-0.2-3.3c0-0.4-0.4-0.9-0.9-0.9S126.2,63.1,126.2,63.7
						L126.2,63.7z"/>
				</g>
				<g>
					
						<linearGradient id="SVGID_20_" gradientUnits="userSpaceOnUse" x1="103.7295" y1="818.1891" x2="115.0718" y2="818.1891" gradientTransform="matrix(1 0 0 1 0 -747.2)">
						<stop  offset="0" style="stop-color:#09005D"/>
						<stop  offset="1" style="stop-color:#1A0F91"/>
					</linearGradient>
					<path class="st23" d="M104.9,79c0.5-2,1-4,1.5-6s1-4.1,1.5-6c0.3-1.1,0.5-2.3,0.8-3.4c-0.5,0.1-1.1,0.2-1.7,0.2
						c0.9,1.9,1.9,3.9,2.7,5.8c0.9,1.9,1.9,3.9,2.7,5.8c0.5,1.1,1.1,2.2,1.5,3.3c0.1,0.2,0.4,0.4,0.5,0.4c0.2,0.1,0.5,0,0.7-0.1
						c0.4-0.3,0.5-0.8,0.4-1.2c-0.9-1.9-1.9-3.9-2.7-5.8c-0.9-1.9-1.9-3.9-2.7-5.8c-0.5-1.1-1.1-2.2-1.5-3.3
						c-0.1-0.1-0.2-0.3-0.4-0.4c-0.2-0.1-0.4-0.2-0.5-0.1c-0.4,0.1-0.6,0.3-0.7,0.6c-0.5,2-1,4-1.5,6s-1,4.1-1.5,6
						c-0.3,1.1-0.5,2.3-0.8,3.4c-0.1,0.4,0.2,1,0.6,1.1C104.3,79.8,104.8,79.5,104.9,79L104.9,79z"/>
					
						<linearGradient id="SVGID_21_" gradientUnits="userSpaceOnUse" x1="105.7441" y1="819.6829" x2="111.3248" y2="819.6829" gradientTransform="matrix(1 0 0 1 0 -747.2)">
						<stop  offset="0" style="stop-color:#09005D"/>
						<stop  offset="1" style="stop-color:#1A0F91"/>
					</linearGradient>
					<path class="st24" d="M106,73.7c1.9-0.3,3.7-0.5,5.5-0.8c0.2,0,0.4-0.3,0.5-0.4s0.2-0.4,0.1-0.7c-0.1-0.2-0.2-0.4-0.4-0.5
						c-0.3-0.1-0.4-0.1-0.7-0.1c-1.9,0.3-3.7,0.5-5.5,0.8c-0.2,0-0.4,0.3-0.5,0.4c-0.1,0.2-0.2,0.4-0.1,0.7c0.1,0.2,0.2,0.4,0.4,0.5
						C105.6,73.8,105.8,73.8,106,73.7L106,73.7z"/>
				</g>
				<g>
					
						<linearGradient id="SVGID_22_" gradientUnits="userSpaceOnUse" x1="139.6091" y1="817.7" x2="141.7402" y2="817.7" gradientTransform="matrix(1 0 0 1 0 -747.2)">
						<stop  offset="0" style="stop-color:#09005D"/>
						<stop  offset="1" style="stop-color:#1A0F91"/>
					</linearGradient>
					<path class="st25" d="M139,63c0.4,3.9,0.8,7.8,1.2,11.7c0.1,1.1,0.3,2.2,0.4,3.3c0,0.3,0.1,0.4,0.3,0.6s0.4,0.3,0.6,0.3
						c0.4,0,1-0.4,0.9-0.9c-0.4-3.9-0.8-7.8-1.2-11.7c-0.1-1.1-0.3-2.2-0.4-3.3c0-0.3-0.1-0.4-0.3-0.6c-0.2-0.2-0.4-0.3-0.6-0.3
						C139.5,62.1,139,62.5,139,63L139,63z"/>
					
						<linearGradient id="SVGID_23_" gradientUnits="userSpaceOnUse" x1="139.9439" y1="809.9064" x2="146.8702" y2="809.9064" gradientTransform="matrix(1 0 0 1 0 -747.2)">
						<stop  offset="0" style="stop-color:#09005D"/>
						<stop  offset="1" style="stop-color:#1A0F91"/>
					</linearGradient>
					<path class="st26" d="M139.9,63.8c2.3-0.1,4.6-0.3,6.9-0.4c0.4,0,0.9-0.4,0.9-0.9c0-0.4-0.4-0.9-0.9-0.9
						c-2.3,0.1-4.6,0.3-6.9,0.4c-0.4,0-0.9,0.4-0.9,0.9S139.5,63.9,139.9,63.8L139.9,63.8z"/>
					
						<linearGradient id="SVGID_24_" gradientUnits="userSpaceOnUse" x1="140.7825" y1="817.3" x2="146.7585" y2="817.3" gradientTransform="matrix(1 0 0 1 0 -747.2)">
						<stop  offset="0" style="stop-color:#09005D"/>
						<stop  offset="1" style="stop-color:#1A0F91"/>
					</linearGradient>
					<path class="st27" d="M140.8,71.2c1.9-0.1,4-0.2,5.9-0.4c0.4,0,0.9-0.4,0.9-0.9c0-0.4-0.4-0.9-0.9-0.9c-1.9,0.1-4,0.2-5.9,0.4
						c-0.4,0-0.9,0.4-0.9,0.9C139.9,70.7,140.3,71.2,140.8,71.2L140.8,71.2z"/>
					
						<linearGradient id="SVGID_25_" gradientUnits="userSpaceOnUse" x1="141.4635" y1="824.9" x2="148.3898" y2="824.9" gradientTransform="matrix(1 0 0 1 0 -747.2)">
						<stop  offset="0" style="stop-color:#09005D"/>
						<stop  offset="1" style="stop-color:#1A0F91"/>
					</linearGradient>
					<path class="st28" d="M141.5,78.8c2.3-0.1,4.6-0.3,6.9-0.4c0.4,0,0.9-0.4,0.9-0.9c0-0.4-0.4-0.9-0.9-0.9
						c-2.3,0.1-4.6,0.3-6.9,0.4c-0.4,0-0.9,0.4-0.9,0.9S141,78.8,141.5,78.8L141.5,78.8z"/>
				</g>
			</g>
		</g>
		<g>
			
				<linearGradient id="SVGID_26_" gradientUnits="userSpaceOnUse" x1="-6860.0439" y1="-12968.1172" x2="-6853.2446" y2="-12968.1172" gradientTransform="matrix(-0.9813 0.1926 -0.1926 -0.9813 -9093.9609 -11210.7764)">
				<stop  offset="0" style="stop-color:#FEBBBA"/>
				<stop  offset="1" style="stop-color:#FF928E"/>
			</linearGradient>
			<path class="st29" d="M135.5,193.8c0,0-4.7-3.1-5.3-2.4c-0.3,0.3-0.8,1.1-1.2,2c-0.4,0.6-0.3,1.5,0.3,2l1.2,1.2
				c1.1,1.1,3.1,1.1,4.1-0.2C135,196,135.4,195.1,135.5,193.8z"/>
			<g>
				<g>
					
						<linearGradient id="SVGID_27_" gradientUnits="userSpaceOnUse" x1="-1160.2349" y1="934.3151" x2="-1129.2749" y2="934.3151" gradientTransform="matrix(1 0 0 1 1290.1023 -747.2)">
						<stop  offset="0" style="stop-color:#FEBBBA"/>
						<stop  offset="1" style="stop-color:#FF928E"/>
					</linearGradient>
					<path class="st30" d="M140.3,188c0,0-1.6-4.2-3.4-3.8c-1.9,0.4-3.9,1.9-3.9,1.9l-3,4.1c0,0,8.5,3.4,11.4,1.4
						c0,0,8.7,1.5,19.5-0.3c-1.6-3.4-2.6-6.7-3.1-9.3C152.2,185.1,146.3,187.5,140.3,188z"/>
					
						<linearGradient id="SVGID_28_" gradientUnits="userSpaceOnUse" x1="221.7632" y1="830.3671" x2="202.9036" y2="867.5551" gradientTransform="matrix(1 0 0 1 0 -747.2)">
						<stop  offset="0" style="stop-color:#09005D"/>
						<stop  offset="1" style="stop-color:#1A0F91"/>
					</linearGradient>
					<path class="st31" d="M186,157.4c0,0-12.4,15.5-28.2,24.5c0.5,2.6,1.5,5.9,3.1,9.3c8.2-1.3,17.8-4.6,25.9-11.7L186,157.4z"/>
				</g>
				
					<linearGradient id="SVGID_29_" gradientUnits="userSpaceOnUse" x1="251.8708" y1="845.6362" x2="233.0114" y2="882.8239" gradientTransform="matrix(1 0 0 1 0 -747.2)">
					<stop  offset="0" style="stop-color:#09005D"/>
					<stop  offset="1" style="stop-color:#1A0F91"/>
				</linearGradient>
				<path class="st32" d="M201.5,226.4c-2.4-11.5-4.9-18.1-12.9-39.9c-2.6-6.9-4.9-13.8-3.7-21l1.2-8.1c0,0,15.7-5.3,33.2-0.3
					c0,0,23.8,10.3,7.6,61.3C219.5,226.7,211,229.1,201.5,226.4z"/>
				
					<linearGradient id="SVGID_30_" gradientUnits="userSpaceOnUse" x1="-1090.9645" y1="903.2997" x2="-1095.9291" y2="888.4059" gradientTransform="matrix(1 0 0 1 1290.1023 -747.2)">
					<stop  offset="0" style="stop-color:#FEBBBA"/>
					<stop  offset="1" style="stop-color:#FF928E"/>
				</linearGradient>
				<path class="st33" d="M188.7,147.1l4.1,9.8c0.3,0.6,0.8,1.1,1.5,1.1c2.4,0.4,8,1.1,11.7-1.4c0.4-0.3,0.5-0.9,0.3-1.3l-7.5-10.9
					L188.7,147.1z"/>
				<g>
					
						<linearGradient id="SVGID_31_" gradientUnits="userSpaceOnUse" x1="187.5382" y1="885.0338" x2="205.382" y2="892.7919" gradientTransform="matrix(1 0 0 1 0 -747.2)">
						<stop  offset="0" style="stop-color:#FEBBBA"/>
						<stop  offset="1" style="stop-color:#FF928E"/>
					</linearGradient>
					<path class="st34" d="M192.9,132.1c-0.2,0.2-7.2,14-7.2,14l8,3.9l8.7-12.2C202.3,137.8,195.8,129.4,192.9,132.1z"/>
					
						<linearGradient id="SVGID_32_" gradientUnits="userSpaceOnUse" x1="241.604" y1="3823.1675" x2="262.9196" y2="3823.1675" gradientTransform="matrix(-0.6854 -0.7281 -0.7281 0.6854 3149.7224 -2296.0044)">
						<stop  offset="0" style="stop-color:#09005D"/>
						<stop  offset="1" style="stop-color:#1A0F91"/>
					</linearGradient>
					<path class="st35" d="M198.7,139.3l-4,6.6c-0.1,0.1-0.2,0.2-0.2,0.3c-0.4,0.4-2.1,1.8-3.4,0c-1.1-1.5-2.1-2.8-3.2-3.4
						c-0.6-0.4-1.4-0.1-1.8,0.5c-0.6,1.3-1.9,4-2.7,6.4c-0.2,0.6,0.1,1.3,0.7,1.6c1.6,0.6,4.9,1.9,7.7,2.2c0.4,0.1,1-0.2,1.2-0.5
						c1.2-1.7,4.7-6.4,5.8-7.5s3.1-0.7,4.1-0.4c0.4,0.1,0.7,0.1,1.1-0.2c0.9-0.5,2.6-1.9,1.1-4.2c-0.4-0.6-0.2-1.3,0.4-1.8
						c1.1-0.7,2.1-1.9,1.1-4c-1.1-2.1-3-2.3-4.3-2.1c-0.6,0.1-1.1-0.3-1.4-0.8c-0.1-0.3-0.3-0.4-0.6-0.5c-0.7-0.2-1.1-0.8-1-1.4
						c0.3-1.1,0.1-2.7-1.9-3.7c-3.4-1.9-6.4,1.2-7.2,3.8s3.1,4.4,5.6,4.8c1.8,0.3,2.7,2.2,3.2,3.2
						C198.9,138.5,198.9,138.9,198.7,139.3z"/>
					
						<linearGradient id="SVGID_33_" gradientUnits="userSpaceOnUse" x1="186.4229" y1="887.599" x2="204.2666" y2="895.3572" gradientTransform="matrix(1 0 0 1 0 -747.2)">
						<stop  offset="0" style="stop-color:#FEBBBA"/>
						<stop  offset="1" style="stop-color:#FF928E"/>
					</linearGradient>
					<path class="st36" d="M197.3,147.6c0,0,1.7-4.1,3.7-3.9c1.9,0.2,3.5,2.1,1.1,4.3C199,150.8,197.3,147.6,197.3,147.6z"/>
				</g>
				<g>
					
						<linearGradient id="SVGID_34_" gradientUnits="userSpaceOnUse" x1="-1903.6702" y1="1076.0369" x2="-1881.5012" y2="1076.0369" gradientTransform="matrix(-1 0 0 1 -1682.2415 -747.2)">
						<stop  offset="0" style="stop-color:#4042E2"/>
						<stop  offset="1" style="stop-color:#4F52FF"/>
					</linearGradient>
					<path class="st37" d="M199.9,327.7c3.8,0.4,10.4,0.9,15.6,1.1c3.1,0.2,4.9-0.2,6-0.6c0,0.1,0,0.3,0,0.4c0,0.5-0.4,1-1.1,1.1
						c-9.8,0.5-17.7,0.2-20.4,0c-0.6,0-0.9-0.6-0.6-1.1C199.5,328.1,199.7,327.8,199.9,327.7z"/>
					
						<linearGradient id="SVGID_35_" gradientUnits="userSpaceOnUse" x1="274.9466" y1="1055.1172" x2="194.6494" y2="1078.0038" gradientTransform="matrix(1 0 0 1 0 -747.2)">
						<stop  offset="0" style="stop-color:#09005D"/>
						<stop  offset="1" style="stop-color:#1A0F91"/>
					</linearGradient>
					<path class="st38" d="M215.5,328.7c-5.2-0.3-11.8-0.8-15.6-1.1c3.7-4.6,15.6-7.7,15.6-7.7h3.4c2.3,3.4,2.6,6.4,2.6,8.2
						C220.4,328.5,218.6,328.8,215.5,328.7z"/>
					
						<linearGradient id="SVGID_36_" gradientUnits="userSpaceOnUse" x1="-1901.6228" y1="1065.4799" x2="-1895.3762" y2="1065.4799" gradientTransform="matrix(-1 0 0 1 -1682.2415 -747.2)">
						<stop  offset="0" style="stop-color:#FEBBBA"/>
						<stop  offset="1" style="stop-color:#FF928E"/>
					</linearGradient>
					<path class="st39" d="M219.4,314.5l-0.4,6.2c0,0.7-0.5,1.2-1.2,1.3c-0.7,0.1-1.6,0.1-2.5-0.2c-0.6-0.2-1.1-0.7-1.1-1.3l-1.1-6
						H219.4z"/>
				</g>
				<g>
					<g>
						
							<linearGradient id="SVGID_37_" gradientUnits="userSpaceOnUse" x1="-1947.8798" y1="1075.3669" x2="-1939.3816" y2="1075.3669" gradientTransform="matrix(-1 0 0 1 -1682.2415 -747.2)">
							<stop  offset="0" style="stop-color:#4042E2"/>
							<stop  offset="1" style="stop-color:#4F52FF"/>
						</linearGradient>
						<path class="st40" d="M262.9,328.6c1.7-0.3,2.4-1.1,2.7-2l0,0c0.3,1-0.4,1.9-1.4,2.5c-1.3,0.6-2.8,0.7-4,0.6s-2.4-0.5-3-1.4
							l0,0C258.4,329,260.2,329.1,262.9,328.6z"/>
						
							<linearGradient id="SVGID_38_" gradientUnits="userSpaceOnUse" x1="230.2004" y1="1050.4795" x2="280.2405" y2="1083.064" gradientTransform="matrix(1 0 0 1 0 -747.2)">
							<stop  offset="0" style="stop-color:#09005D"/>
							<stop  offset="1" style="stop-color:#1A0F91"/>
						</linearGradient>
						<path class="st41" d="M255.1,314.4h2.7c4.2-0.1,6.9,8.8,7.7,12.2c-0.4,0.9-1.1,1.8-2.7,2c-2.7,0.4-4.5,0.4-5.7-0.3
							c-2.3-3-3.4-7.3-4-9.9C252.6,315.6,255.1,314.4,255.1,314.4z"/>
					</g>
					
						<linearGradient id="SVGID_39_" gradientUnits="userSpaceOnUse" x1="-1941.3345" y1="1060.3065" x2="-1933.8691" y2="1060.3065" gradientTransform="matrix(-1 0 0 1 -1682.2415 -747.2)">
						<stop  offset="0" style="stop-color:#FEBBBA"/>
						<stop  offset="1" style="stop-color:#FF928E"/>
					</linearGradient>
					<path class="st42" d="M257.5,308.7l1.5,6.1c0.2,0.7-0.2,1.5-0.9,1.9c-0.9,0.4-2,0.9-3.2,0.8c-0.5-0.1-1-0.4-1.1-0.9l-2.3-6.4
						L257.5,308.7z"/>
				</g>
				
					<linearGradient id="SVGID_40_" gradientUnits="userSpaceOnUse" x1="-4275.4497" y1="1071.1886" x2="-4161.5371" y2="913.699" gradientTransform="matrix(-1 0 0 1 -4015.2415 -747.2)">
					<stop  offset="0" style="stop-color:#09005D"/>
					<stop  offset="1" style="stop-color:#1A0F91"/>
				</linearGradient>
				<path class="st43" d="M259.4,310.4c-1.9,1.7-8.1,1.9-8.1,1.9c-22.3-53.7-31.7-68.4-31.7-68.4c3.3,20.2,0.7,72.2,0.7,72.2
					c-3.7,1.6-8.5,0-8.5,0c-0.3-33.2-4.9-68.8-10.9-91.5c15.1-0.4,23.3-3.6,26-5.7C239.3,239.2,259.4,310.4,259.4,310.4z"/>
				<g>
					
						<linearGradient id="SVGID_41_" gradientUnits="userSpaceOnUse" x1="-2191.7432" y1="1818.9041" x2="-2192.436" y2="1754.9392" gradientTransform="matrix(0.9919 -0.127 0.127 0.9919 2175.6912 -1778.9888)">
						<stop  offset="0" style="stop-color:#FF928E"/>
						<stop  offset="1" style="stop-color:#FE7062"/>
					</linearGradient>
					<path class="st44" d="M197,239.6l2.7,17.3c0.4,3,3.3,5.1,6.4,4.8l41.6-5c2-0.3,3.6-1.9,3.6-4c0.1-4.5-0.1-12.4-1.9-19.7
						L197,239.6z"/>
					<path class="st15" d="M207.5,260.5c-0.1,0-0.1-0.1-0.2-0.1c0-0.1,0.1-0.2,0.1-0.2l1.1-0.2c0.1,0,0.2,0.1,0.2,0.1
						c0,0.1-0.1,0.2-0.1,0.2L207.5,260.5L207.5,260.5z M205,260.4L205,260.4c-0.4-0.1-0.7-0.2-1.1-0.4c-0.1,0-0.1-0.1-0.1-0.2
						s0.1-0.1,0.2-0.1c0.4,0.2,0.6,0.3,1,0.4C205.1,260.1,205.1,260.2,205,260.4C205.1,260.4,205.1,260.4,205,260.4z M211.2,260
						c-0.1,0-0.1-0.1-0.2-0.1c0-0.1,0.1-0.2,0.1-0.2l1.1-0.1c0.1,0,0.2,0,0.2,0.1s-0.1,0.2-0.1,0.2L211.2,260L211.2,260z
						 M214.8,259.6c-0.1,0-0.1-0.1-0.2-0.1c0-0.1,0.1-0.2,0.1-0.2l1.1-0.2c0.1,0,0.2,0.1,0.2,0.1c0,0.1-0.1,0.2-0.1,0.2L214.8,259.6
						L214.8,259.6z M218.4,259.2c-0.1,0-0.1-0.1-0.2-0.1c0-0.1,0.1-0.2,0.1-0.2l1.1-0.1c0.1,0,0.2,0.1,0.2,0.1
						c0,0.1-0.1,0.2-0.1,0.2L218.4,259.2L218.4,259.2z M222,258.7c-0.1,0-0.1-0.1-0.2-0.1c0-0.1,0.1-0.2,0.1-0.2l1.1-0.2
						c0.1,0,0.2,0,0.2,0.1s-0.1,0.2-0.1,0.2L222,258.7L222,258.7z M202,258.5C202,258.5,201.9,258.5,202,258.5
						c-0.4-0.4-0.5-0.7-0.7-1.1c0-0.1,0-0.2,0.1-0.2s0.2,0,0.2,0.1c0.2,0.4,0.4,0.6,0.5,0.9C202.2,258.3,202.2,258.4,202,258.5
						C202.1,258.5,202,258.5,202,258.5z M225.6,258.3c-0.1,0-0.1-0.1-0.2-0.1c0-0.1,0.1-0.2,0.1-0.2l1.1-0.2c0.1,0,0.2,0.1,0.2,0.1
						c0,0.1-0.1,0.2-0.1,0.2L225.6,258.3L225.6,258.3z M229.3,257.8c-0.1,0-0.1-0.1-0.2-0.1c0-0.1,0.1-0.2,0.1-0.2l1.1-0.1
						c0.1,0,0.2,0.1,0.2,0.1c0,0.1-0.1,0.2-0.1,0.2L229.3,257.8L229.3,257.8z M232.9,257.4c-0.1,0-0.1-0.1-0.2-0.1
						c0-0.1,0.1-0.2,0.1-0.2l1.1-0.2c0.1,0,0.2,0,0.2,0.1s-0.1,0.2-0.1,0.2L232.9,257.4L232.9,257.4z M236.5,257
						c-0.1,0-0.1-0.1-0.2-0.1c0-0.1,0.1-0.2,0.1-0.2l1.1-0.2c0.1,0,0.2,0.1,0.2,0.1c0,0.1-0.1,0.2-0.1,0.2L236.5,257L236.5,257z
						 M240.1,256.5c-0.1,0-0.1-0.1-0.2-0.1c0-0.1,0.1-0.2,0.1-0.2l1.1-0.1c0.1,0,0.2,0.1,0.2,0.1c0,0.1-0.1,0.2-0.1,0.2L240.1,256.5
						L240.1,256.5z M243.7,256.1c-0.1,0-0.1-0.1-0.2-0.1c0-0.1,0.1-0.2,0.1-0.2l1.1-0.2c0.1,0,0.2,0.1,0.2,0.1
						c0,0.1-0.1,0.2-0.1,0.2L243.7,256.1L243.7,256.1z M247.4,255.5C247.3,255.5,247.3,255.5,247.4,255.5c-0.1-0.2-0.1-0.3,0-0.3
						c0.4-0.1,0.6-0.3,1-0.4c0.1,0,0.2,0,0.2,0c0,0.1,0,0.2,0,0.2C248.1,255.2,247.8,255.4,247.4,255.5L247.4,255.5z M200.7,255.1
						c-0.1,0-0.1-0.1-0.2-0.1l-0.2-1.1c0-0.1,0-0.2,0.1-0.2s0.2,0,0.2,0.1l0.2,1.1C200.9,255,200.9,255,200.7,255.1
						C200.8,255.1,200.7,255.1,200.7,255.1z M249.8,253L249.8,253c-0.1,0-0.2-0.1-0.1-0.2c0.1-0.4,0.2-0.7,0.2-1.1
						c0-0.1,0.1-0.2,0.2-0.2l0,0c0.1,0,0.2,0.1,0.2,0.2c0,0.4-0.1,0.8-0.2,1.1C249.9,253,249.9,253,249.8,253z M200.2,251.5
						c-0.1,0-0.1-0.1-0.2-0.1l-0.2-1.1c0-0.1,0-0.2,0.1-0.2s0.2,0,0.2,0.1l0.2,1.1C200.4,251.4,200.3,251.5,200.2,251.5L200.2,251.5
						z M250,249.4c-0.1,0-0.2-0.1-0.2-0.2c0-0.4,0-0.7,0-1.1c0-0.1,0.1-0.2,0.2-0.2s0.2,0.1,0.2,0.2c0,0.4,0,0.7,0,1.1
						C250.2,249.3,250.1,249.4,250,249.4L250,249.4z M199.6,247.9c-0.1,0-0.1-0.1-0.2-0.1l-0.2-1.1c0-0.1,0-0.2,0.1-0.2
						s0.2,0,0.2,0.1l0.2,1.1C199.8,247.8,199.7,247.9,199.6,247.9L199.6,247.9z M249.9,245.8c-0.1,0-0.2-0.1-0.2-0.1
						c0-0.4,0-0.7-0.1-1.1c0-0.1,0.1-0.2,0.1-0.2c0.1,0,0.2,0.1,0.2,0.1c0,0.4,0.1,0.7,0.1,1.1C250,245.7,250,245.8,249.9,245.8
						L249.9,245.8z M199.1,244.2c-0.1,0-0.1-0.1-0.2-0.1l-0.2-1.1c0-0.1,0-0.2,0.1-0.2s0.2,0,0.2,0.1l0.2,1.1
						C199.2,244.2,199.2,244.2,199.1,244.2L199.1,244.2z M249.6,242.1c-0.1,0-0.1-0.1-0.2-0.1c0-0.4-0.1-0.7-0.1-1.1
						c0-0.1,0.1-0.2,0.1-0.2c0.1,0,0.2,0.1,0.2,0.1c0,0.4,0.1,0.7,0.1,1.1C249.7,242,249.7,242,249.6,242.1L249.6,242.1z
						 M198.5,240.6c-0.1,0-0.1-0.1-0.2-0.1l-0.2-1.2l1-0.1c0.1,0,0.2,0,0.2,0.1s0,0.2-0.1,0.2l-0.7,0.1l0.2,1
						C198.6,240.5,198.5,240.6,198.5,240.6L198.5,240.6z M201.7,239.1c-0.1,0-0.1-0.1-0.2-0.1c0-0.1,0-0.2,0.1-0.2l1.1-0.2
						c0.1,0,0.2,0,0.2,0.1s0,0.2-0.1,0.2L201.7,239.1L201.7,239.1z M205.3,238.7c-0.1,0-0.1-0.1-0.2-0.1c0-0.1,0-0.2,0.1-0.2
						l1.1-0.2c0.1,0,0.2,0,0.2,0.1s0,0.2-0.1,0.2L205.3,238.7L205.3,238.7z M249.2,238.4c-0.1,0-0.1-0.1-0.2-0.1
						c-0.1-0.4-0.1-0.7-0.2-1.1c0-0.1,0-0.2,0.1-0.2s0.2,0,0.2,0.1c0.1,0.4,0.1,0.7,0.2,1.1C249.3,238.4,249.3,238.4,249.2,238.4
						L249.2,238.4z M209,238.2c-0.1,0-0.1-0.1-0.2-0.1c0-0.1,0-0.2,0.1-0.2l1.1-0.2c0.1,0,0.2,0,0.2,0.1s0,0.2-0.1,0.2L209,238.2
						L209,238.2z M212.6,237.7c-0.1,0-0.1-0.1-0.2-0.1c0-0.1,0-0.2,0.1-0.2l1.1-0.2c0.1,0,0.2,0,0.2,0.1s0,0.2-0.1,0.2L212.6,237.7
						L212.6,237.7z M216.2,237.3c-0.1,0-0.1-0.1-0.2-0.1c0-0.1,0-0.2,0.1-0.2l1.1-0.2c0.1,0,0.2,0,0.2,0.1s0,0.2-0.1,0.2
						L216.2,237.3L216.2,237.3z M219.8,236.8c-0.1,0-0.1-0.1-0.2-0.1c0-0.1,0-0.2,0.1-0.2l1.1-0.2c0.1,0,0.2,0,0.2,0.1
						s0,0.2-0.1,0.2L219.8,236.8L219.8,236.8z M223.4,236.4c-0.1,0-0.1-0.1-0.2-0.1c0-0.1,0-0.2,0.1-0.2l1.1-0.2
						c0.1,0,0.2,0,0.2,0.1s0,0.2-0.1,0.2L223.4,236.4L223.4,236.4z M227.1,235.9c-0.1,0-0.1-0.1-0.2-0.1c0-0.1,0-0.2,0.1-0.2
						l1.1-0.2c0.1,0,0.2,0,0.2,0.1s0,0.2-0.1,0.2L227.1,235.9L227.1,235.9z M230.7,235.4c-0.1,0-0.1-0.1-0.2-0.1
						c0-0.1,0-0.2,0.1-0.2l1.1-0.2c0.1,0,0.2,0,0.2,0.1s0,0.2-0.1,0.2L230.7,235.4L230.7,235.4z M234.3,235c-0.1,0-0.1-0.1-0.2-0.1
						c0-0.1,0-0.2,0.1-0.2l1.1-0.2c0.1,0,0.2,0,0.2,0.1s0,0.2-0.1,0.2L234.3,235L234.3,235z M248.5,234.9c-0.1,0-0.1,0-0.2-0.1
						c-0.1-0.4-0.2-0.7-0.3-1.1c0-0.1,0-0.2,0.1-0.2s0.2,0,0.2,0.1c0.1,0.4,0.2,0.7,0.3,1.1C248.7,234.8,248.6,234.9,248.5,234.9
						C248.6,234.9,248.5,234.9,248.5,234.9z M237.9,234.5c-0.1,0-0.1-0.1-0.2-0.1c0-0.1,0-0.2,0.1-0.2l1.1-0.2c0.1,0,0.2,0,0.2,0.1
						s0,0.2-0.1,0.2L237.9,234.5L237.9,234.5z M241.5,234c-0.1,0-0.1-0.1-0.2-0.1c0-0.1,0-0.2,0.1-0.2l1.1-0.2c0.1,0,0.2,0,0.2,0.1
						s0,0.2-0.1,0.2L241.5,234L241.5,234z M245.1,233.6c-0.1,0-0.1-0.1-0.2-0.1c0-0.1,0-0.2,0.1-0.2l1.1-0.2c0.1,0,0.2,0.1,0.2,0.1
						c0,0.1,0,0.2-0.1,0.2L245.1,233.6L245.1,233.6z"/>
					
						<linearGradient id="SVGID_42_" gradientUnits="userSpaceOnUse" x1="-2203.011" y1="1741.7618" x2="-2203.3188" y2="1734.2957" gradientTransform="matrix(0.9919 -0.127 0.127 0.9919 2175.6912 -1778.9888)">
						<stop  offset="0" style="stop-color:#E1473D"/>
						<stop  offset="1" style="stop-color:#E9605A"/>
					</linearGradient>
					<path class="st45" d="M207.6,225.4l-0.1-1.3c0.1-0.4,0.4-0.6,0.7-0.7c1.2-0.4,4.4-1.1,6.1-0.2l0.4,1.5L207.6,225.4z"/>
					
						<linearGradient id="SVGID_43_" gradientUnits="userSpaceOnUse" x1="-2203.4336" y1="1730.5564" x2="-2201.8943" y2="1751.9521" gradientTransform="matrix(0.9919 -0.127 0.127 0.9919 2175.6912 -1778.9888)">
						<stop  offset="0" style="stop-color:#E1473D"/>
						<stop  offset="1" style="stop-color:#E9605A"/>
					</linearGradient>
					<path class="st46" d="M211.4,223.7c-0.3,0.1-0.6,0.2-0.9,0.1c-0.4,0-0.7-0.4-0.7-0.7l-0.5-4.1l2.1-0.3l0.5,4.1
						C212,223.2,211.8,223.5,211.4,223.7z"/>
					
						<linearGradient id="SVGID_44_" gradientUnits="userSpaceOnUse" x1="-2182.1858" y1="1740.9044" x2="-2182.4937" y2="1733.4384" gradientTransform="matrix(0.9919 -0.127 0.127 0.9919 2175.6912 -1778.9888)">
						<stop  offset="0" style="stop-color:#E1473D"/>
						<stop  offset="1" style="stop-color:#E9605A"/>
					</linearGradient>
					<path class="st47" d="M228.3,222.8l-0.1-1.3c0.1-0.4,0.4-0.6,0.7-0.7c1.2-0.4,4.4-1.1,6.1-0.2l0.4,1.5L228.3,222.8z"/>
					
						<linearGradient id="SVGID_45_" gradientUnits="userSpaceOnUse" x1="-2182.5542" y1="1729.056" x2="-2181.0149" y2="1750.4514" gradientTransform="matrix(0.9919 -0.127 0.127 0.9919 2175.6912 -1778.9888)">
						<stop  offset="0" style="stop-color:#E1473D"/>
						<stop  offset="1" style="stop-color:#E9605A"/>
					</linearGradient>
					<path class="st48" d="M232.2,221c-0.3,0.1-0.6,0.2-0.9,0.1c-0.4,0-0.7-0.4-0.7-0.7l-0.6-4.7l2.1-0.3l0.6,4.6
						C232.7,220.5,232.5,220.9,232.2,221z"/>
					
						<linearGradient id="SVGID_46_" gradientUnits="userSpaceOnUse" x1="-2191.0847" y1="1718.6532" x2="-2193.1624" y2="1733.8893" gradientTransform="matrix(0.9919 -0.127 0.127 0.9919 2175.6912 -1778.9888)">
						<stop  offset="0" style="stop-color:#E1473D"/>
						<stop  offset="1" style="stop-color:#E9605A"/>
					</linearGradient>
					<path class="st49" d="M209.2,219.9l22.9-3.7c0.5-0.1,0.9-0.5,1-1.1c0-0.7,0-1.9-0.3-2.9c-0.4-1.2-1.6-2-2.8-1.9
						c-4.3,0.4-15.2,1.9-20.9,5c-0.6,0.4-1,1-1.1,1.6s-0.1,1.5,0.3,2.3C208.3,219.7,208.8,220,209.2,219.9z"/>
					
						<linearGradient id="SVGID_47_" gradientUnits="userSpaceOnUse" x1="211.6555" y1="961.9115" x2="204.6164" y2="921.9347" gradientTransform="matrix(1 0 0 1 0 -747.2)">
						<stop  offset="0" style="stop-color:#FEBBBA"/>
						<stop  offset="1" style="stop-color:#FF928E"/>
					</linearGradient>
					<path class="st50" d="M208.7,219c-0.2,0-0.4-0.1-0.4-0.3c0,0-0.2-1-0.1-1.9c0.1-0.7,0.6-1.4,1.3-1.7c1.2-0.5,3.6-1.5,5.6-1.9
						c0.2,0,0.4,0.1,0.4,0.3s-0.1,0.4-0.3,0.4c-2,0.4-4.5,1.3-5.5,1.8c-0.4,0.2-0.8,0.6-0.9,1.1c-0.1,0.8,0.1,1.6,0.1,1.6
						C209,218.7,209,219,208.7,219L208.7,219z"/>
					
						<linearGradient id="SVGID_48_" gradientUnits="userSpaceOnUse" x1="-2190.3147" y1="1730.5343" x2="-2197.9336" y2="1801.6416" gradientTransform="matrix(0.9919 -0.127 0.127 0.9919 2175.6912 -1778.9888)">
						<stop  offset="0" style="stop-color:#FF928E"/>
						<stop  offset="1" style="stop-color:#FE7062"/>
					</linearGradient>
					<path class="st51" d="M196.9,226.2c7.4-1.1,39.5-5.5,48.9-5.6c0.8,0,1.5,0.5,1.9,1.2c0.9,2.4,2.7,8,3.4,13.8
						c0.1,0.8-0.4,1.5-1.1,1.8l-20.7,6.7l-7.6,1l-23.2-1.6c-0.8-0.1-1.5-0.6-1.7-1.5c-0.5-2.8-1.6-9.6-1.4-14
						C195.2,227.2,195.9,226.4,196.9,226.2z"/>
					<path class="st15" d="M221.4,243.5l-1.1-0.1c-0.1,0-0.1-0.1-0.1-0.2s0.1-0.1,0.2-0.1l1.1,0.1l0.6-0.1c0.1,0,0.2,0,0.2,0.1
						s0,0.2-0.1,0.2L221.4,243.5z M217.8,243.3C217.8,243.3,217.7,243.3,217.8,243.3l-1.1-0.1c-0.1,0-0.1-0.1-0.1-0.2
						s0.1-0.1,0.2-0.1l1.1,0.1c0.1,0,0.1,0.1,0.1,0.2C217.9,243.3,217.8,243.3,217.8,243.3z M224.5,243.1c-0.1,0-0.1-0.1-0.2-0.1
						c0-0.1,0-0.2,0.1-0.2l1.1-0.2c0.1,0,0.2,0,0.2,0.1s0,0.2-0.1,0.2L224.5,243.1C224.6,243.1,224.5,243.1,224.5,243.1z M214.1,243
						L214.1,243l-1.1-0.1c-0.1,0-0.1-0.1-0.1-0.2s0.1-0.1,0.2-0.1l1.1,0.1c0.1,0,0.1,0.1,0.1,0.2C214.3,243,214.2,243,214.1,243z
						 M210.5,242.7L210.5,242.7l-1.1-0.1c-0.1,0-0.1-0.1-0.1-0.2s0.1-0.1,0.2-0.1l1.1,0.1c0.1,0,0.1,0.1,0.1,0.2
						S210.5,242.7,210.5,242.7z M228.1,242.7c-0.1,0-0.1-0.1-0.2-0.1c0-0.1,0-0.2,0.1-0.2l0.4-0.1l0.6-0.2c0.1,0,0.2,0,0.2,0.1
						s0,0.2-0.1,0.2l-0.6,0.2L228.1,242.7C228.2,242.7,228.2,242.7,228.1,242.7z M206.8,242.6L206.8,242.6l-1.1-0.1
						c-0.1,0-0.1-0.1-0.1-0.2s0.1-0.1,0.2-0.1l1.1,0.1c0.1,0,0.1,0.1,0.1,0.2C206.9,242.5,206.9,242.6,206.8,242.6z M203.2,242.3
						C203.2,242.3,203.1,242.3,203.2,242.3l-1.1-0.1c-0.1,0-0.1-0.1-0.1-0.2s0.1-0.1,0.2-0.1l1.1,0.1c0.1,0,0.1,0.1,0.1,0.2
						C203.3,242.2,203.2,242.3,203.2,242.3z M199.5,242L199.5,242l-1.1-0.1c-0.1,0-0.1-0.1-0.1-0.2s0.1-0.1,0.2-0.1l1.1,0.1
						c0.1,0,0.1,0.1,0.1,0.2C199.7,242,199.6,242,199.5,242z M231.6,241.6L231.6,241.6c-0.1-0.2-0.1-0.3,0-0.3l1.1-0.4
						c0.1,0,0.2,0,0.2,0.1s0,0.2-0.1,0.2L231.6,241.6L231.6,241.6z M235.1,240.5C235,240.5,235,240.5,235.1,240.5
						c-0.1-0.2-0.1-0.3,0-0.3l1.1-0.4c0.1,0,0.2,0,0.2,0.1s0,0.2-0.1,0.2L235.1,240.5C235.2,240.5,235.1,240.5,235.1,240.5z
						 M197.9,239.5c-0.1,0-0.1-0.1-0.2-0.1c-0.1-0.4-0.1-0.7-0.2-1.1c0-0.1,0-0.2,0.1-0.2s0.2,0,0.2,0.1c0.1,0.4,0.1,0.7,0.2,1.1
						C198.1,239.4,198.1,239.5,197.9,239.5C198,239.5,198,239.5,197.9,239.5z M238.6,239.4C238.5,239.4,238.5,239.4,238.6,239.4
						c-0.1-0.2-0.1-0.3,0-0.3l1.1-0.4c0.1,0,0.2,0,0.2,0.1s0,0.2-0.1,0.2L238.6,239.4L238.6,239.4z M242.1,238.2
						C242,238.2,242,238.2,242.1,238.2c-0.1-0.2-0.1-0.3,0-0.3l1.1-0.4c0.1,0,0.2,0,0.2,0.1s0,0.2-0.1,0.2L242.1,238.2L242.1,238.2z
						 M245.5,237.1C245.4,237.1,245.4,237.1,245.5,237.1c-0.1-0.2-0.1-0.3,0-0.3l1.1-0.4c0.1,0,0.2,0,0.2,0.1s0,0.2-0.1,0.2
						L245.5,237.1C245.6,237.1,245.5,237.1,245.5,237.1z M249,236C248.9,236,248.9,236,249,236c-0.1-0.2-0.1-0.2-0.1-0.3
						c0-0.4-0.1-0.6-0.1-1c0-0.1,0-0.2,0.1-0.2s0.2,0,0.2,0.1c0.1,0.4,0.1,0.7,0.1,1.1v0.1L249,236L249,236z M197.5,235.9
						c-0.1,0-0.1-0.1-0.2-0.1c0-0.4-0.1-0.7-0.1-1.1c0-0.1,0.1-0.2,0.1-0.2c0.1,0,0.2,0.1,0.2,0.1c0,0.4,0.1,0.7,0.1,1.1
						C197.6,235.8,197.6,235.9,197.5,235.9L197.5,235.9z M248.5,232.4c-0.1,0-0.1-0.1-0.2-0.1c-0.1-0.4-0.2-0.7-0.2-1.1
						c0-0.1,0-0.2,0.1-0.2s0.2,0,0.2,0.1c0.1,0.4,0.2,0.7,0.2,1.1C248.7,232.3,248.6,232.4,248.5,232.4L248.5,232.4z M197.1,232.2
						c-0.1,0-0.1-0.1-0.2-0.1c0-0.4-0.1-0.7-0.1-1.1c0-0.1,0.1-0.2,0.1-0.2c0.1,0,0.2,0.1,0.2,0.1c0,0.4,0,0.7,0.1,1.1
						C197.2,232.2,197.2,232.2,197.1,232.2L197.1,232.2z M247.7,228.9c-0.1,0-0.1,0-0.2-0.1c-0.1-0.4-0.2-0.7-0.3-1.1
						c0-0.1,0-0.2,0.1-0.2s0.2,0,0.2,0.1c0.1,0.4,0.2,0.7,0.3,1.1C247.9,228.8,247.8,228.8,247.7,228.9L247.7,228.9z M197,228.6
						L197,228.6c-0.1,0-0.2-0.1-0.2-0.2v-0.3c0-0.1,0.1-0.3,0.3-0.3l0.7-0.1c0.1,0,0.2,0,0.2,0.1s0,0.2-0.1,0.2l-0.7,0.1v0.3
						C197.1,228.5,197.1,228.6,197,228.6z M200.3,227.8c-0.1,0-0.1-0.1-0.2-0.1c0-0.1,0-0.2,0.1-0.2l1.1-0.2c0.1,0,0.2,0,0.2,0.1
						s0,0.2-0.1,0.2L200.3,227.8C200.4,227.8,200.3,227.8,200.3,227.8z M203.9,227.3c-0.1,0-0.1-0.1-0.2-0.1c0-0.1,0-0.2,0.1-0.2
						l1.1-0.2c0.1,0,0.2,0,0.2,0.1s0,0.2-0.1,0.2L203.9,227.3L203.9,227.3z M207.5,226.9c-0.1,0-0.1-0.1-0.2-0.1
						c0-0.1,0-0.2,0.1-0.2l1.1-0.2c0.1,0,0.2,0,0.2,0.1s0,0.2-0.1,0.2L207.5,226.9L207.5,226.9z M211.2,226.3
						c-0.1,0-0.1-0.1-0.2-0.1c0-0.1,0-0.2,0.1-0.2l1.1-0.2c0.1,0,0.2,0,0.2,0.1s0,0.2-0.1,0.2L211.2,226.3L211.2,226.3z
						 M214.8,225.9c-0.1,0-0.1-0.1-0.2-0.1c0-0.1,0-0.2,0.1-0.2l1.1-0.2c0.1,0,0.2,0,0.2,0.1s0,0.2-0.1,0.2L214.8,225.9L214.8,225.9
						z M218.5,225.4v-0.3l1.1-0.2c0.1,0,0.2,0,0.2,0.1s0,0.2-0.1,0.2L218.5,225.4z M246.7,225.4
						C246.6,225.4,246.6,225.4,246.7,225.4c-0.2-0.4-0.4-0.8-0.4-1.1c0-0.1,0-0.2,0.1-0.2s0.2,0,0.2,0.1c0.1,0.4,0.2,0.7,0.4,1.1
						C246.8,225.3,246.8,225.4,246.7,225.4L246.7,225.4z M218.4,225.3L218.4,225.3L218.4,225.3z M222,224.9c-0.1,0-0.1-0.1-0.2-0.1
						c0-0.1,0-0.2,0.1-0.2l1.1-0.1c0.1,0,0.2,0.1,0.2,0.1c0,0.1-0.1,0.2-0.1,0.2L222,224.9C222.1,224.9,222,224.9,222,224.9z
						 M225.6,224.6c-0.1,0-0.1-0.1-0.2-0.1c0-0.1,0.1-0.2,0.1-0.2l1.1-0.1c0.1,0,0.2,0.1,0.2,0.1c0,0.1-0.1,0.2-0.1,0.2L225.6,224.6
						C225.7,224.5,225.7,224.6,225.6,224.6z M229.3,224.1c-0.1,0-0.1-0.1-0.2-0.1c0-0.1,0.1-0.2,0.1-0.2l1.1-0.1
						c0.1,0,0.2,0.1,0.2,0.1c0,0.1-0.1,0.2-0.1,0.2L229.3,224.1L229.3,224.1z M233,223.7c-0.1,0-0.1-0.1-0.2-0.1
						c0-0.1,0.1-0.2,0.1-0.2l1.1-0.1c0.1,0,0.2,0.1,0.2,0.1c0,0.1-0.1,0.2-0.1,0.2L233,223.7L233,223.7z M236.6,223.3
						c-0.1,0-0.1-0.1-0.2-0.1c0-0.1,0.1-0.2,0.1-0.2c0.4,0,0.7-0.1,1.1-0.1c0.1,0,0.2,0.1,0.2,0.1c0,0.1-0.1,0.2-0.1,0.2
						C237.3,223.2,236.9,223.3,236.6,223.3L236.6,223.3z M240.2,223c-0.1,0-0.1-0.1-0.2-0.1c0-0.1,0.1-0.2,0.1-0.2
						c0.4,0,0.7-0.1,1.1-0.1c0.1,0,0.2,0.1,0.2,0.1c0,0.1-0.1,0.2-0.1,0.2C240.9,223,240.6,223,240.2,223L240.2,223z M243.8,222.8
						c-0.1,0-0.2-0.1-0.2-0.1c0-0.1,0.1-0.2,0.1-0.2c0.4,0,0.8,0,1.1,0l0,0c0.1,0,0.2,0.1,0.2,0.2c0,0.1-0.1,0.2-0.2,0.2
						C244.6,222.7,244.3,222.8,243.8,222.8L243.8,222.8z"/>
					
						<linearGradient id="SVGID_49_" gradientUnits="userSpaceOnUse" x1="-2190.0322" y1="1739.2798" x2="-2193.0337" y2="1763.0597" gradientTransform="matrix(0.9919 -0.127 0.127 0.9919 2175.6912 -1778.9888)">
						<stop  offset="0" style="stop-color:#E1473D"/>
						<stop  offset="1" style="stop-color:#E9605A"/>
					</linearGradient>
					<path class="st52" d="M228.7,247.6l-6.6,0.9c-0.9,0.1-1.7-0.4-1.9-1.3l-1.6-6.3c-0.3-1,0.4-2,1.4-2.1l7.9-1.1
						c1-0.1,1.9,0.6,1.9,1.7l0.3,6.4C230.2,246.7,229.6,247.4,228.7,247.6z"/>
					
						<linearGradient id="SVGID_50_" gradientUnits="userSpaceOnUse" x1="-2196.4167" y1="1757.915" x2="-2187.6892" y2="1757.915" gradientTransform="matrix(0.9919 -0.127 0.127 0.9919 2175.6912 -1778.9888)">
						<stop  offset="0" style="stop-color:#FF928E"/>
						<stop  offset="1" style="stop-color:#FE7062"/>
					</linearGradient>
					<path class="st53" d="M227.8,246.5l-5,0.6c-0.6,0.1-1.2-0.4-1.4-1l-1.2-4.8c-0.2-0.8,0.4-1.5,1.1-1.6l6.1-0.8
						c0.8-0.1,1.4,0.4,1.5,1.2l0.2,4.9C228.9,245.8,228.4,246.4,227.8,246.5z"/>
				</g>
				
					<linearGradient id="SVGID_51_" gradientUnits="userSpaceOnUse" x1="229.7015" y1="946.5386" x2="212.7969" y2="979.0477" gradientTransform="matrix(1 0 0 1 0 -747.2)">
					<stop  offset="0" style="stop-color:#FEBBBA"/>
					<stop  offset="1" style="stop-color:#FF928E"/>
				</linearGradient>
				<path class="st54" d="M223.8,195.8c1.6,6.4,1.6,12.8,1.3,15.1c-0.1,0.9-0.8,1.5-1.7,1.6c-1,0.1-2.3,0.2-3.5,0.3
					c-1.3,0.1-2.8-0.8-3.8-1.4c-0.5-0.4-1.1,0.2-0.9,0.7c0.4,1,1.3,1.7,2.1,2.3c0.5,0.4,2.1,1.1,2,1.8c0,0.3-0.2,0.4-0.4,0.6
					c-0.9,1.1-2.3,1.7-3.7,2.1c-0.2,0.1-0.4,0.1-0.4,0.3c0,0.9,2.7,1.9,3.4,2.1c1.1,0.4,2.2,0.5,3.3,0.4c2.7-0.3,5.3-2.2,6.8-4.5
					c4-6.1,6-13.5,6.8-19.2C231.6,194.2,226,195.1,223.8,195.8z"/>
				<g>
					
						<linearGradient id="SVGID_52_" gradientUnits="userSpaceOnUse" x1="263.7842" y1="851.6782" x2="244.9246" y2="888.8658" gradientTransform="matrix(1 0 0 1 0 -747.2)">
						<stop  offset="0" style="stop-color:#09005D"/>
						<stop  offset="1" style="stop-color:#1A0F91"/>
					</linearGradient>
					<path class="st55" d="M235.3,198.4c2.9-22.2-14.2-39.3-14.2-39.3L210.9,171c7.8,9.6,11.4,18.4,13.1,25.4
						C226.3,195.8,231.6,194.7,235.3,198.4z"/>
					
						<linearGradient id="SVGID_53_" gradientUnits="userSpaceOnUse" x1="269.8802" y1="870.7133" x2="162.8058" y2="991.815" gradientTransform="matrix(1 0 0 1 0 -747.2)">
						<stop  offset="0" style="stop-color:#4042E2"/>
						<stop  offset="1" style="stop-color:#4F52FF"/>
					</linearGradient>
					<path class="st56" d="M223.8,196.3c-0.3,0-0.5-0.2-0.6-0.4c-2-8.6-6.4-17-13-25.2c-0.2-0.3-0.2-0.7,0.1-0.9s0.7-0.2,0.9,0.1
						c6.6,8.3,11.1,16.9,13.2,25.7c0.1,0.4-0.1,0.7-0.4,0.8C223.9,196.3,223.8,196.3,223.8,196.3z"/>
				</g>
			</g>
			<g>
				<g>
					
						<linearGradient id="SVGID_54_" gradientUnits="userSpaceOnUse" x1="-1218.8792" y1="1070.0144" x2="-1204.3314" y2="1070.0144" gradientTransform="matrix(1 0 0 1 1290.1023 -747.2)">
						<stop  offset="0" style="stop-color:#09005D"/>
						<stop  offset="1" style="stop-color:#1A0F91"/>
					</linearGradient>
					<path class="st57" d="M85.7,328c0-0.1,0-0.2,0-0.4c-1.7-6.5-9.8-10.5-9.8-10.5l-3.3,0.3c-1.9,5.7-1.6,9.3-1.3,10.8v0.1
						C74.1,328.6,79.6,328.7,85.7,328z"/>
					
						<linearGradient id="SVGID_55_" gradientUnits="userSpaceOnUse" x1="-1182.4237" y1="1052.9446" x2="-1235.3485" y2="1094.5012" gradientTransform="matrix(1 0 0 1 1290.1023 -747.2)">
						<stop  offset="0" style="stop-color:#4042E2"/>
						<stop  offset="1" style="stop-color:#4F52FF"/>
					</linearGradient>
					<path class="st58" d="M71.4,328.4c0.2,0.5,0.5,1,1.1,1.1c3.8,0.8,9.8,0.2,12.4-0.2c0.5-0.1,1-0.6,1-1.1
						C79.6,328.7,74.1,328.6,71.4,328.4z"/>
					
						<linearGradient id="SVGID_56_" gradientUnits="userSpaceOnUse" x1="-1214.9122" y1="1053.4899" x2="-1217.691" y2="1077.7418" gradientTransform="matrix(1 0 0 1 1290.1023 -747.2)">
						<stop  offset="0" style="stop-color:#FF928E"/>
						<stop  offset="1" style="stop-color:#FEBBBA"/>
					</linearGradient>
					<path class="st59" d="M71.4,312.7l1.3,6.5c0.1,0.4,0.4,0.9,0.9,0.9c0.5,0.1,1.3,0.1,2.1,0c0.7-0.1,1.2-0.8,1.1-1.6l-1-5.8H71.4
						z"/>
					
						<linearGradient id="SVGID_57_" gradientUnits="userSpaceOnUse" x1="-1173.028" y1="1064.8932" x2="-1225.9529" y2="1106.4501" gradientTransform="matrix(1 0 0 1 1290.1023 -747.2)">
						<stop  offset="0" style="stop-color:#4042E2"/>
						<stop  offset="1" style="stop-color:#4F52FF"/>
					</linearGradient>
					<path class="st60" d="M99.8,328.3c-3.5-0.1-5.4-0.5-6.4-0.9c0,0.4,0,0.7,0,1.1s0.3,0.7,0.7,0.7l19.5-0.1c0.6,0,1-0.7,0.7-1.3
						C111.8,327.9,105.2,328.5,99.8,328.3z"/>
					
						<linearGradient id="SVGID_58_" gradientUnits="userSpaceOnUse" x1="-1196.7268" y1="1070.3912" x2="-1175.7856" y2="1070.3912" gradientTransform="matrix(1 0 0 1 1290.1023 -747.2)">
						<stop  offset="0" style="stop-color:#09005D"/>
						<stop  offset="1" style="stop-color:#1A0F91"/>
					</linearGradient>
					<path class="st61" d="M114.3,327.7c0-0.1,0-0.1-0.1-0.2c-1.8-2.4-6.1-7.2-14.8-9.3l-4.1-0.1c0,0-1.9,3.3-1.9,9.2
						c1,0.4,2.8,0.8,6.4,0.9C105.2,328.5,111.8,327.9,114.3,327.7z"/>
					
						<linearGradient id="SVGID_59_" gradientUnits="userSpaceOnUse" x1="-1067.4717" y1="1131.157" x2="-1070.2506" y2="1155.4093" gradientTransform="matrix(0.998 -6.290000e-02 6.290000e-02 0.998 1091.6523 -887.1813)">
						<stop  offset="0" style="stop-color:#FF928E"/>
						<stop  offset="1" style="stop-color:#FEBBBA"/>
					</linearGradient>
					<path class="st62" d="M94.3,312c0.1,0.3,1,4.9,1.2,6.8c0.1,0.4,0.4,0.7,0.8,0.8c0.7,0,1.9,0.1,2.8-0.3c0.5-0.2,0.9-0.7,0.9-1.3
						l-0.4-7.4L94.3,312z"/>
					
						<linearGradient id="SVGID_60_" gradientUnits="userSpaceOnUse" x1="74.4663" y1="1081.2268" x2="95.0395" y2="930.6674" gradientTransform="matrix(1 0 0 1 0 -747.2)">
						<stop  offset="0" style="stop-color:#09005D"/>
						<stop  offset="1" style="stop-color:#1A0F91"/>
					</linearGradient>
					<path class="st63" d="M91.1,225.7c0,0,5.7,39.4,9.9,86.2c0.1,0.9-0.6,1.6-1.5,1.9c-1.2,0.3-3.1,0.6-4.7,0.5
						c-0.8,0-1.5-0.6-1.7-1.4c-1.4-8.3-11.5-52.6-14.1-62.4c0,0-3,41.5-2,62.9c0,0.5-0.4,1-0.9,1.1c-0.8,0.1-2.1,0.2-3.7,0
						c-0.6-0.1-1.1-0.5-1.2-1.1c-1-7-6.8-48.6-6.5-78.6c0-1.7,1.9-15.6,1.9-15.6L91.1,225.7z"/>
				</g>
				<path class="st15" d="M65.8,228c-0.6-0.2-1-0.7-1.1-1.3c-0.8-7.4-4.4-53.2,18.9-72.1c0,0,1.3-3.5,12.4,5.1
					c10.9,8.6,5.1,17.6,2.5,30c-3.2,15-8.7,27.4-6.3,36.5c0.2,0.6-0.2,1.3-0.8,1.5C82.7,230.9,74.3,231,65.8,228z"/>
				
					<linearGradient id="SVGID_61_" gradientUnits="userSpaceOnUse" x1="83.7534" y1="915.6174" x2="98.7158" y2="881.952" gradientTransform="matrix(1 0 0 1 0 -747.2)">
					<stop  offset="0" style="stop-color:#FEBBBA"/>
					<stop  offset="1" style="stop-color:#FF928E"/>
				</linearGradient>
				<path class="st64" d="M92.7,140.8c0,0.6-9.3,13.9-9.3,13.9s1.7,3.3,9.6,6l6.9-14.1L92.7,140.8z"/>
				<g>
					
						<linearGradient id="SVGID_62_" gradientUnits="userSpaceOnUse" x1="100.9293" y1="887.5183" x2="82.6586" y2="901.4982" gradientTransform="matrix(1 0 0 1 0 -747.2)">
						<stop  offset="0" style="stop-color:#FEBBBA"/>
						<stop  offset="1" style="stop-color:#FF928E"/>
					</linearGradient>
					<path class="st65" d="M100.3,133.8c0,0,3.2,7.3,3.4,11.2c0.3,3.9,1.1,6.4-3.4,7.1c-4.4,0.8-8.2-1.4-10.2-5.3
						c0,0-3.2-5.9-2.5-8.3C88.3,136.1,100.3,133.8,100.3,133.8z"/>
					
						<linearGradient id="SVGID_63_" gradientUnits="userSpaceOnUse" x1="80.8616" y1="868.4433" x2="96.8185" y2="887.1326" gradientTransform="matrix(1 0 0 1 0 -747.2)">
						<stop  offset="0" style="stop-color:#09005D"/>
						<stop  offset="1" style="stop-color:#1A0F91"/>
					</linearGradient>
					<path class="st66" d="M90.9,143.9l0.3-0.1c0.4-0.2,0.4-0.5,0.4-0.9c-0.6-1.2-1.9-4.1-0.3-4.9c2.1-0.9,10.5-2.6,12.3-5.6
						c1.8-2.8,0.2-6.5-2.1-7.6c-0.2-0.1-0.4,0-0.4,0.2l-0.2,0.4c-0.1,0.3-0.5,0.2-0.6-0.1l0,0c-0.1-0.3-0.4-0.4-0.5-0.1
						c-0.5,0.9-2,2.3-6.1,3.1c-5.7,1.1-9.4,3.4-9.5,7.3c0,0.3-0.3,0.4-0.4,0.3c-0.4-0.3-1.1-0.4-2,0.4c-1.6,1.3-0.9,4.8,2.5,7.5
						c0.2,0.2,0.2,0.4,0,0.5c-0.6,0.4-1.6,1.3,0.9,2.6s4.3,1.2,5,1.1c0.2,0,0.3-0.2,0.3-0.4l-0.8-3.4c0-0.2,0.1-0.4,0.3-0.4
						L90.9,143.9L90.9,143.9z"/>
					
						<linearGradient id="SVGID_64_" gradientUnits="userSpaceOnUse" x1="98.5997" y1="884.0153" x2="79.336" y2="898.7548" gradientTransform="matrix(1 0 0 1 0 -747.2)">
						<stop  offset="0" style="stop-color:#FEBBBA"/>
						<stop  offset="1" style="stop-color:#FF928E"/>
					</linearGradient>
					<path class="st67" d="M91.2,144.7c0,0-1.3-4.9-3.5-3.5s1.1,5.6,2.9,5.7L91.2,144.7z"/>
				</g>
				<g>
					<path class="st15" d="M99.4,163.6l0.6,17.2c1.9,0.6,3.5,1.1,5.2,1.5c1.1-3.4,3.3-7.4,5.2-10.4
						C103.7,169.5,99.4,163.6,99.4,163.6z"/>
					
						<linearGradient id="SVGID_65_" gradientUnits="userSpaceOnUse" x1="146.0206" y1="909.092" x2="105.4213" y2="929.2878" gradientTransform="matrix(1 0 0 1 0 -747.2)">
						<stop  offset="0" style="stop-color:#FEBBBA"/>
						<stop  offset="1" style="stop-color:#FF928E"/>
					</linearGradient>
					<path class="st68" d="M133.6,163.3c-9.4,10.2-16.9,10.8-23.1,8.6c-1.9,3-4.1,7.1-5.2,10.4c25.1,5.6,31-17.6,31-17.6
						L133.6,163.3z"/>
					
						<linearGradient id="SVGID_66_" gradientUnits="userSpaceOnUse" x1="145.4459" y1="904.0298" x2="131.5588" y2="918.5341" gradientTransform="matrix(1 0 0 1 0 -747.2)">
						<stop  offset="0" style="stop-color:#FEBBBA"/>
						<stop  offset="1" style="stop-color:#FF928E"/>
					</linearGradient>
					<path class="st69" d="M135.5,162.3c0,0,1.1-1.1,3.1-0.8c2,0.4,3.8,1.1,5,0s1.7,0.4,1.7,0.4l-3.7,2.8L135.5,162.3z"/>
					
						<linearGradient id="SVGID_67_" gradientUnits="userSpaceOnUse" x1="146.2105" y1="908.8464" x2="105.6114" y2="929.0422" gradientTransform="matrix(1 0 0 1 0 -747.2)">
						<stop  offset="0" style="stop-color:#FEBBBA"/>
						<stop  offset="1" style="stop-color:#FF928E"/>
					</linearGradient>
					<path class="st70" d="M133.3,164.2c0,0,0.7-3.1,3-2.6c2.2,0.4,7.3,3.2,8.7,2.6c1.3-0.5,3-1.8,3.8-1.3l-1.5,1.9
						c0,0,3.9-2.2,4.6-0.9l-6.4,3.6C145.3,167.5,135.9,166.7,133.3,164.2z"/>
				</g>
				
					<linearGradient id="SVGID_68_" gradientUnits="userSpaceOnUse" x1="163.1656" y1="943.0828" x2="45.343" y2="921.7772" gradientTransform="matrix(1 0 0 1 0 -747.2)">
					<stop  offset="0" style="stop-color:#FEBBBA"/>
					<stop  offset="1" style="stop-color:#FF928E"/>
				</linearGradient>
				<path class="st71" d="M89,186.2c0,0,17.7,14.7,36.7,8.3c1.1-0.4,2.5-0.4,3.6,0.3l5.5,2.9c2.3,1.2,5.1,0.4,6.4-1.9
					c0.8-1.2,1.4-2.7,1.5-4.1l-10.7-4.3l0.8-1.3c0,0-5.2-0.4-6.6,3.3c0,0-10,4.1-26.7-14.4C99.5,175,91.8,181.5,89,186.2z"/>
			</g>
		</g>
	</g>
	<g>
		<g id="outline" class="st72">
			
				<linearGradient id="SVGID_69_" gradientUnits="userSpaceOnUse" x1="163.149" y1="1016.25" x2="187.4236" y2="1016.25" gradientTransform="matrix(1 0 0 1 0 -747.2)">
				<stop  offset="0" style="stop-color:#09005D"/>
				<stop  offset="1" style="stop-color:#1A0F91"/>
			</linearGradient>
			<path class="st73" d="M186.7,263l0.7-1.8c0.1-0.2,0-0.4-0.3-0.5l0,0c-0.2-0.1-0.3,0-0.4,0.1l-6.4,5.3c-0.4,0.3-0.5,0.8-0.4,1.2
				c0,0.2,0.1,0.3,0.1,0.4c0.1,0.3,0,0.4-0.3,0.6l0,0c-0.2,0.2-0.5,0.2-0.7-0.1l-1-1.4l-0.3-1.1c-0.1-0.4,0-0.8,0.3-1.1
				c0.2-0.3,0.4-0.5,0.8-0.6c0.3-0.1,0.6-0.1,0.8,0.1l1.1,0.5c0.2,0.1,0.4,0,0.5-0.2l0,0c0-0.1,0-0.2,0-0.3l-0.3-1.1
				c-0.1-0.4-0.3-0.6-0.5-0.9l0.4-1.6c0.1-0.4-0.2-0.8-0.5-1l-0.5-0.2l0,0h-0.1v-0.5c0-0.3-0.2-0.4-0.4-0.4s-0.4,0.2-0.4,0.4v0.5
				h-0.1l0,0l-0.5,0.2c-0.4,0.1-0.6,0.5-0.5,1l0.3,1.3c-0.2,0.1-0.4,0.1-0.6,0.2l-0.5-0.8l0.5-1.5c0.2-0.6-0.1-1.2-0.7-1.5l-1.1-0.4
				v-0.5c0-0.3-0.3-0.4-0.4-0.4c-0.2,0-0.4,0.2-0.4,0.4v0.5l-1.1,0.4c-0.6,0.3-0.9,0.9-0.7,1.5l0.5,1.5l-0.5,0.8
				c-0.2-0.1-0.4-0.2-0.6-0.2l0.3-1.3c0.1-0.4-0.2-0.8-0.5-1l-0.5-0.2l0,0h-0.1v-0.5c0-0.3-0.1-0.4-0.4-0.4c-0.3,0-0.4,0.1-0.4,0.4
				v0.1v0.5h-0.1l0,0l-0.5,0.2c-0.4,0.1-0.6,0.5-0.5,1l0.4,1.6c-0.3,0.3-0.4,0.5-0.5,0.9l-0.3,1.1c-0.1,0.2,0.1,0.4,0.3,0.5
				c0.1,0,0.2,0,0.3,0l1.1-0.5c0.3-0.1,0.5-0.2,0.8-0.1c0.4,0.1,0.6,0.4,0.8,0.6c0.3,0.4,0.3,0.7,0.3,1.1l-0.3,1.1l-1,1.4
				c-0.2,0.2-0.5,0.2-0.7,0.1l0,0c-0.2-0.2-0.3-0.4-0.3-0.6s0.1-0.3,0.1-0.4c0.1-0.4-0.1-1-0.4-1.2l-6.4-5.4c-0.2-0.2-0.4-0.1-0.5,0
				s-0.1,0.3-0.1,0.4l0.7,1.8c0.4,1,1,1.9,1.9,2.6l0.2,0.2l-1.9-0.3c-0.2,0-0.4,0.1-0.4,0.4l0,0c0,0.1,0,0.2,0.1,0.3
				c0.5,0.9,1.4,1.5,2.4,1.9l0.3,0.1l-1.9,0.3c-0.2,0-0.4,0.2-0.4,0.4l0,0c0,0.1,0.1,0.3,0.2,0.3l0.7,0.4c0.9,0.5,1.8,0.9,2.7,1.1
				c-0.6,0.4-1.1,1-1.6,1.6c-0.1,0.2-0.1,0.4,0.1,0.5l0,0c0.1,0.1,0.2,0.1,0.3,0.1h0.2c0.8,0,1.6-0.2,2.3-0.5v0.9
				c0,0.3,0.2,0.4,0.4,0.4l0,0c0.1,0,0.2,0,0.3-0.1l1-1l0.5,0.5c0.2,0.2,0.4,0.2,0.6,0l0.1-0.1l0.4-0.5c0.1-0.2,0.3-0.4,0.5-0.4v0.1
				c0,0.4-0.1,0.6-0.4,0.9l-0.3,0.3c-0.6,0.6-1,1.5-1,2.4c0,0.2,0.2,0.4,0.4,0.4l-0.3,0.4l-0.5,0.1l-1.1-1.1
				c0.4-0.5,0.2-1.3-0.4-1.7c-0.5-0.4-1.3-0.2-1.7,0.4s-0.2,1.3,0.4,1.7c0.2,0.1,0.4,0.2,0.5,0.2h0.2c0.1,0,0.3,0,0.4-0.1l0.8,0.9
				l0,0c-0.3,0-0.4,0.3-0.4,0.4c0,0.3,0.3,0.4,0.4,0.4h0.1l0.4-0.1l0.4,0.4c0.2,0.2,0.4,0.2,0.6,0c0.1-0.2,0.2-0.4,0-0.5l-0.1-0.1
				l0.3-0.1c0.1,0,0.2-0.1,0.3-0.2l0.5-1h0.4c0.2,0,0.3-0.1,0.4-0.3c0.2-0.4,0.4-0.6,0.7-0.9l0.1,0.2l-1,1.7
				c-0.4,0.7-0.6,1.6-0.6,2.5c0,0.3,0.1,0.4,0.4,0.4c0.3,0,0.4-0.1,0.4-0.4V279c0-0.7,0.2-1.4,0.5-2l0.5-1v0.1
				c-0.4,1.1-0.5,2.3-0.3,3.4c0.1,0.2,0.3,0.4,0.5,0.3s0.4-0.3,0.3-0.4l0,0l0,0c-0.3-1-0.2-2,0.2-2.9l0,0l0.2,0.4v3.9
				c0,0.3,0.2,0.4,0.4,0.4s0.4-0.2,0.4-0.4v-3.9l0.2-0.4l0,0c0.4,1,0.4,1.9,0.2,2.9c0,0.3,0.1,0.4,0.4,0.4c0.2,0,0.4-0.1,0.4-0.3
				l0,0c0.3-1.1,0.2-2.3-0.3-3.4l-0.1-0.1l0.5,1c0.4,0.6,0.5,1.3,0.5,2c0,0.3,0.1,0.4,0.4,0.4s0.4-0.1,0.4-0.4l0,0
				c0-0.9-0.3-1.7-0.6-2.5l-1-1.7l0.1-0.2c0.3,0.2,0.5,0.5,0.7,0.9c0.1,0.2,0.2,0.3,0.4,0.3h0.4l0.5,1c0.1,0.1,0.2,0.2,0.3,0.2
				l1.1,0.3c0.4,0.8,1.3,1.2,2.1,0.9c0.8-0.4,1.2-1.3,0.9-2.1c-0.2-0.4-0.6-0.8-1.1-0.9v-0.4c0-0.3-0.1-0.4-0.4-0.4
				c-0.3,0-0.4,0.1-0.4,0.4v0.1v0.4c-0.6,0.2-1.1,0.7-1.2,1.3l-0.5-0.2l-0.3-0.4c0.2,0,0.4-0.2,0.4-0.4c0-0.9-0.4-1.8-1-2.4
				l-0.3-0.3c-0.3-0.3-0.4-0.5-0.4-0.9v-0.1c0.2,0.1,0.4,0.3,0.5,0.4l0.4,0.5c0.1,0.2,0.4,0.3,0.5,0.1l0,0l0.1-0.1l0.5-0.5l1,1
				c0.2,0.2,0.4,0.2,0.5,0l0,0c0.1-0.1,0.1-0.2,0.1-0.3v-0.9c0.7,0.4,1.5,0.5,2.3,0.5h0.2c0.3,0,0.4-0.2,0.4-0.4
				c0-0.1,0-0.2-0.1-0.3c-0.4-0.6-1-1.1-1.6-1.6c1-0.2,1.9-0.5,2.7-1.1l0.7-0.4c0.2-0.1,0.2-0.4,0.1-0.5c-0.1-0.1-0.2-0.2-0.3-0.2
				l-1.9-0.3l0.3-0.1c1-0.4,1.8-1.1,2.4-1.9c0.1-0.2,0.1-0.4-0.1-0.5c-0.1-0.1-0.2-0.1-0.3-0.1l-1.9,0.2l0.2-0.2
				C185.7,264.8,186.4,263.9,186.7,263z M168.4,275.1c-0.2,0-0.4-0.3-0.4-0.4l0,0c0-0.3,0.3-0.4,0.4-0.4s0.4,0.2,0.4,0.4
				c0,0.1-0.1,0.3-0.2,0.4l0,0C168.5,275.1,168.4,275.1,168.4,275.1z M181.8,277.6c-0.3,0-0.5-0.2-0.7-0.4h1.4
				C182.3,277.4,182,277.6,181.8,277.6L181.8,277.6z M182.5,276.4h-0.3v-0.3C182.3,276.1,182.4,276.2,182.5,276.4z M181.3,276v0.4
				H181C181.2,276.3,181.2,276.2,181.3,276L181.3,276z M173.3,267.5h4.1v4.6c0,0.2-0.1,0.4-0.3,0.4l-1.8,0.6l-1.8-0.6
				c-0.2-0.1-0.3-0.2-0.3-0.4v-4.6H173.3z M180.1,263.3c-0.4-0.2-1-0.3-1.4-0.1c-1.1,0.4-1.8,1.5-1.6,2.6l0.2,0.8h-1.5l0.2-1.4
				c0.2-1.5,1.5-2.6,3-2.6h0.4c0.4,0,0.8,0.3,0.9,0.7l0.1,0.2L180.1,263.3z M178.6,260.5l0.5-0.2c0.2,0,0.3,0,0.4,0l0.5,0.2
				l-0.3,1.4c-0.1,0-0.3,0-0.4,0h-0.5L178.6,260.5z M174.2,259.1l1.1-0.4l1.1,0.4c0.2,0.1,0.3,0.3,0.3,0.5l-0.4,1.4h-1.9l-0.4-1.4
				C173.8,259.4,173.9,259.2,174.2,259.1C174.1,259.1,174.1,259.1,174.2,259.1L174.2,259.1z M174.3,261.8h2l0.4,0.7
				c-0.7,0.5-1.1,1.2-1.4,2c-0.3-0.8-0.8-1.5-1.5-2L174.3,261.8z M171.1,260.3c0.2,0,0.3,0,0.4,0l0.5,0.2l-0.3,1.3h-0.6
				c-0.1,0-0.3,0-0.4,0l-0.3-1.4L171.1,260.3z M172,263.3c-0.4-0.2-1-0.1-1.4,0.1l-0.3,0.2v-0.2c0.1-0.4,0.4-0.7,0.9-0.7h0.4
				c1.5,0,2.8,1.1,3,2.6l0.2,1.4h-1.5l0.2-0.8c0.1-0.6,0-1.2-0.4-1.8C172.9,263.8,172.5,263.4,172,263.3L172,263.3z M171.3,272.1
				L171.3,272.1l-0.5-0.4c-0.2-0.2-0.4-0.2-0.5,0l-0.5,0.5v-0.6c0-0.3-0.2-0.4-0.4-0.4l0,0c-0.1,0-0.2,0-0.3,0.1
				c-0.5,0.4-1.1,0.6-1.7,0.7c0.4-0.4,0.9-0.8,1.4-1.1l0.3-0.2c0.2-0.1,0.3-0.4,0.2-0.5l0,0c-0.1-0.1-0.2-0.2-0.3-0.2l-0.9-0.2
				c-0.8-0.2-1.6-0.4-2.4-0.8l2.5-0.3c0.3,0,0.4-0.3,0.4-0.4s-0.1-0.3-0.3-0.4l-1.9-0.7c-0.5-0.2-1-0.4-1.3-0.8l2.2,0.3
				c0.2,0,0.4-0.1,0.4-0.4l0,0c0-0.2,0-0.3-0.2-0.4l-1.2-1.1c-0.7-0.6-1.2-1.4-1.6-2.3l-0.2-0.4l5.3,4.4c0.1,0.1,0.2,0.3,0.2,0.4
				s-0.1,0.3-0.1,0.4c-0.2,0.5,0.1,1.1,0.5,1.5l0,0c0.5,0.4,1.2,0.3,1.8-0.2v-0.1l0.3-0.4v0.9l-0.3,0.2c-0.5,0.4-1.3,0.4-1.9,0.1
				c-0.2-0.1-0.4-0.1-0.5,0.1s-0.1,0.4,0.1,0.5l0,0c0.8,0.5,1.9,0.5,2.6,0.1v0.9C172,271.3,171.5,271.5,171.3,272.1L171.3,272.1z
				 M178.2,273.8c0.4,0.4,0.6,0.9,0.7,1.4h-0.5c-0.3-0.5-0.7-0.9-1.2-1.1c-0.2-0.1-0.4,0-0.5,0.2l-1.3,1.9l-1.3-1.9
				c-0.1-0.2-0.4-0.3-0.5-0.2c-0.5,0.3-1,0.7-1.2,1.1h-0.5c0.1-0.5,0.4-1,0.7-1.4l0.3-0.3c0.1-0.1,0.2-0.3,0.3-0.4
				c0.1,0.1,0.2,0.1,0.4,0.2l1.9,0.6c0.1,0,0.2,0,0.3,0l1.9-0.6c0.1,0,0.3-0.1,0.4-0.2c0.1,0.1,0.2,0.3,0.3,0.4L178.2,273.8z
				 M184.3,265l-1.2,1.1c-0.2,0.2-0.2,0.4-0.1,0.5c0.1,0.1,0.3,0.2,0.4,0.2l2.2-0.3c-0.4,0.4-0.9,0.6-1.3,0.8l-1.9,0.7
				c-0.2,0.1-0.4,0.4-0.3,0.5c0.1,0.2,0.2,0.3,0.4,0.3l2.5,0.3c-0.7,0.4-1.5,0.6-2.4,0.8l-0.9,0.2c-0.2,0-0.4,0.3-0.4,0.4
				s0.1,0.3,0.2,0.3l0.4,0.2c0.5,0.3,1.1,0.6,1.4,1.1c-0.6-0.1-1.2-0.4-1.7-0.7c-0.2-0.1-0.4-0.1-0.5,0.1l0,0c0,0.1-0.1,0.2-0.1,0.3
				v0.6l-0.5-0.5c-0.2-0.2-0.4-0.2-0.5,0l0,0l-0.4,0.4l-0.1-0.1c-0.3-0.4-0.7-0.7-1.1-0.8v-0.9c0.8,0.5,1.9,0.4,2.6-0.1
				c0.2-0.1,0.3-0.4,0.2-0.5s-0.4-0.3-0.5-0.2c0,0-0.1,0-0.1,0.1l0,0c-0.6,0.4-1.3,0.4-1.9-0.1l-0.3-0.2v-1l0.3,0.4v0.1
				c0.4,0.4,1.1,0.5,1.8,0.2l0,0c0.5-0.4,0.7-0.9,0.5-1.5c0-0.2-0.1-0.3-0.1-0.4s0-0.3,0.1-0.4l5.3-4.4l-0.2,0.4
				C185.7,263.5,185.1,264.3,184.3,265L184.3,265z"/>
		</g>
		<g class="st72">
			<g>
				
					<linearGradient id="SVGID_70_" gradientUnits="userSpaceOnUse" x1="188.8541" y1="1004.9955" x2="190.7419" y2="1004.9955" gradientTransform="matrix(1 0 0 1 0 -747.2)">
					<stop  offset="0" style="stop-color:#09005D"/>
					<stop  offset="1" style="stop-color:#1A0F91"/>
				</linearGradient>
				<path class="st74" d="M190.3,258.9c-0.2,0-0.3-0.1-0.4-0.2c-0.4-0.4-0.6-0.9-1.1-1.3c-0.2-0.2-0.1-0.4,0.1-0.6
					c0.2-0.2,0.4-0.1,0.6,0.1c0.4,0.4,0.7,0.9,1.1,1.4c0.2,0.2,0.1,0.4-0.1,0.6C190.5,258.9,190.4,258.9,190.3,258.9z"/>
				
					<linearGradient id="SVGID_71_" gradientUnits="userSpaceOnUse" x1="178.8052" y1="1022.4367" x2="193.9594" y2="1022.4367" gradientTransform="matrix(1 0 0 1 0 -747.2)">
					<stop  offset="0" style="stop-color:#09005D"/>
					<stop  offset="1" style="stop-color:#1A0F91"/>
				</linearGradient>
				<path class="st75" d="M179.3,287.4c-0.2,0-0.4-0.1-0.4-0.4c-0.1-0.3,0.1-0.4,0.4-0.5c0.8-0.2,1.6-0.4,2.4-0.7
					c0.3-0.1,0.5-0.2,0.8-0.4c0.2-0.1,0.4,0,0.5,0.3c0.1,0.2,0,0.4-0.3,0.5s-0.5,0.3-0.9,0.4C181,287,180.2,287.1,179.3,287.4
					L179.3,287.4z M187.2,283.4c-0.1,0-0.3,0-0.4-0.2c-0.2-0.2-0.1-0.4,0.1-0.6c0.9-0.7,1.7-1.5,2.3-2.4c0.2-0.2,0.4-0.2,0.6-0.1
					c0.2,0.2,0.2,0.4,0.1,0.6c-0.7,0.9-1.6,1.8-2.5,2.6C187.4,283.4,187.3,283.4,187.2,283.4z M192.5,276.1c-0.1,0-0.1,0-0.2,0
					c-0.2-0.1-0.4-0.4-0.3-0.5c0.4-1.1,0.7-2.1,0.9-3.3c0-0.3,0.3-0.4,0.5-0.4c0.3,0,0.4,0.3,0.4,0.5c-0.2,1.1-0.5,2.3-1,3.4
					C192.7,276,192.6,276.1,192.5,276.1z M193.6,267.3c-0.3,0-0.4-0.2-0.4-0.4c-0.2-1.1-0.4-2.2-0.7-3.3c-0.1-0.3,0.1-0.4,0.3-0.5
					c0.3-0.1,0.4,0.1,0.5,0.3c0.4,1.1,0.6,2.3,0.8,3.4C194,267,193.9,267.2,193.6,267.3L193.6,267.3z"/>
				
					<linearGradient id="SVGID_72_" gradientUnits="userSpaceOnUse" x1="171.5478" y1="1034.3223" x2="174.0732" y2="1034.3223" gradientTransform="matrix(1 0 0 1 0 -747.2)">
					<stop  offset="0" style="stop-color:#09005D"/>
					<stop  offset="1" style="stop-color:#1A0F91"/>
				</linearGradient>
				<path class="st76" d="M173.6,287.7C173.6,287.8,173.6,287.7,173.6,287.7c-0.6-0.1-1.2-0.2-1.8-0.3c-0.3,0-0.4-0.3-0.4-0.5
					c0-0.3,0.3-0.4,0.5-0.4c0.5,0.1,1.1,0.2,1.7,0.3c0.3,0,0.4,0.3,0.4,0.4C174.1,287.6,173.9,287.7,173.6,287.7z"/>
			</g>
			<g>
				
					<linearGradient id="SVGID_73_" gradientUnits="userSpaceOnUse" x1="159.1096" y1="1026.2701" x2="160.8794" y2="1026.2701" gradientTransform="matrix(1 0 0 1 0 -747.2)">
					<stop  offset="0" style="stop-color:#09005D"/>
					<stop  offset="1" style="stop-color:#1A0F91"/>
				</linearGradient>
				<path class="st77" d="M160.5,280.2c-0.2,0-0.3-0.1-0.4-0.2c-0.4-0.4-0.6-1-1-1.4c-0.1-0.2-0.1-0.4,0.2-0.6
					c0.2-0.1,0.4-0.1,0.6,0.2c0.3,0.4,0.6,1,0.9,1.4c0.2,0.2,0.1,0.4-0.1,0.6C160.7,280.1,160.6,280.2,160.5,280.2z"/>
				
					<linearGradient id="SVGID_74_" gradientUnits="userSpaceOnUse" x1="156.6145" y1="1009.287" x2="172.8145" y2="1009.287" gradientTransform="matrix(1 0 0 1 0 -747.2)">
					<stop  offset="0" style="stop-color:#09005D"/>
					<stop  offset="1" style="stop-color:#1A0F91"/>
				</linearGradient>
				<path class="st78" d="M157.5,273.6c-0.2,0-0.4-0.1-0.4-0.4c-0.3-1-0.4-1.9-0.4-3c0-0.2,0-0.3,0-0.4c0-0.3,0.2-0.4,0.4-0.4
					s0.4,0.2,0.4,0.4c0,0.2,0,0.3,0,0.4c0.1,1,0.2,1.9,0.4,2.8C157.9,273.4,157.9,273.6,157.5,273.6
					C157.6,273.6,157.6,273.6,157.5,273.6z M157.7,264.8c-0.1,0-0.1,0-0.2,0c-0.3-0.1-0.4-0.3-0.3-0.5c0.3-1.1,0.7-2.2,1.1-3.3
					c0.1-0.2,0.4-0.3,0.5-0.2c0.2,0.1,0.3,0.4,0.2,0.5c-0.4,1-0.9,2-1.1,3.1C157.9,264.7,157.9,264.8,157.7,264.8z M161.8,257.1
					c-0.1,0-0.3,0-0.4-0.1c-0.2-0.2-0.2-0.4,0-0.6c0.8-0.9,1.7-1.7,2.6-2.3c0.2-0.2,0.4-0.1,0.6,0.1s0.1,0.4-0.1,0.6
					c-0.9,0.7-1.7,1.4-2.5,2.2C162.1,257,161.9,257.1,161.8,257.1z M169.1,252.3c-0.2,0-0.4-0.1-0.4-0.3c-0.1-0.2,0-0.4,0.3-0.5
					c1.1-0.4,2.2-0.7,3.4-0.9c0.3-0.1,0.4,0.1,0.5,0.4c0,0.3-0.1,0.4-0.4,0.5c-1.1,0.2-2.1,0.4-3.2,0.8
					C169.2,252.2,169.1,252.2,169.1,252.3z"/>
				
					<linearGradient id="SVGID_75_" gradientUnits="userSpaceOnUse" x1="177.4595" y1="998.35" x2="179.9722" y2="998.35" gradientTransform="matrix(1 0 0 1 0 -747.2)">
					<stop  offset="0" style="stop-color:#09005D"/>
					<stop  offset="1" style="stop-color:#1A0F91"/>
				</linearGradient>
				<path class="st79" d="M179.6,251.7L179.6,251.7c-0.6-0.1-1.1-0.3-1.7-0.3c-0.3,0-0.4-0.3-0.4-0.4c0-0.3,0.3-0.4,0.4-0.4
					c0.5,0.1,1.1,0.2,1.7,0.4c0.3,0.1,0.4,0.3,0.4,0.5C179.9,251.5,179.7,251.7,179.6,251.7z"/>
			</g>
		</g>
	</g>
</g>
</svg>
