<svg id="Слой_1" data-name="Слой 1" xmlns="http://www.w3.org/2000/svg" viewBox="0 0 450 375.21"><defs><style>.cls-1{fill:#ec615b;}.cls-2{fill:#5222d0;}.cls-3{fill:#fff;}.cls-10,.cls-12,.cls-13,.cls-14,.cls-4,.cls-6,.cls-8,.cls-9{fill:#606060;isolation:isolate;}.cls-4{opacity:0.11;}.cls-5{fill:#161616;}.cls-6{opacity:0.1;}.cls-7{fill:#461eb8;}.cls-8{opacity:0.09;}.cls-9{opacity:0.12;}.cls-10{opacity:0.07;}.cls-11{fill:#1a1b22;}.cls-12{opacity:0.13;}.cls-13{opacity:0.08;}.cls-14{opacity:0.14;}</style></defs><g id="details"><circle class="cls-1" cx="8.24" cy="349.84" r="4.39"/><circle class="cls-1" cx="20.22" cy="358.15" r="3.92"/><circle class="cls-2" cx="442.77" cy="203.28" r="3.38"/><circle class="cls-2" cx="431.74" cy="188.26" r="2.79"/><circle class="cls-2" cx="22.22" cy="344.17" r="2"/><circle class="cls-2" cx="68.97" cy="159.95" r="7.37"/><circle class="cls-1" cx="74.85" cy="151.93" r="6.9"/><circle class="cls-1" cx="443.79" cy="185.9" r="2.36"/><circle class="cls-1" cx="431.61" cy="10.62" r="4.75"/><path class="cls-1" d="M223.41,44.56a1.44,1.44,0,0,1-.37-2,2.57,2.57,0,0,1,1.67-1.16,23.86,23.86,0,0,1,2.76-.33,5.16,5.16,0,0,0,3.2-1.31c1.05-1,.87-2.43.76-3.77a4.13,4.13,0,0,1,3.63-4.72c2-.22,4.94.11,5-2.72.08-1.67-1.38-3.85.44-5.05,1.34-.87,3.59-.21,4.94.22.65.22.94-.83.29-1.05-2.29-.76-6.57-1.38-7.19,1.85A6.31,6.31,0,0,0,238.8,27c.18.94.54,1.92-.44,2.72a3.27,3.27,0,0,1-1.89.36c-1.67.11-3.08.11-4.39,1.27a5.26,5.26,0,0,0-1.78,4.32c.08,1.78.22,3.45-1.81,4.07a18.18,18.18,0,0,1-3.05.4c-1.45.18-2.94.65-3.56,2.1a2.44,2.44,0,0,0,.91,3.2c.69.36,1.23-.58.62-.91Z"/><path class="cls-1" d="M237.13,37.59c-1-.58-.66-2,0-2.69.84-.87,2.4-.9,3.49-1a8.21,8.21,0,0,0,3.37-.94,3.45,3.45,0,0,0,1.6-2.11c.29-1.38-1-3.34-.22-4.53s2.87-.66,4-.69a4.16,4.16,0,0,0,2.58-.8,4.32,4.32,0,0,0,1.38-3.09c.11-.76.07-1.52.18-2.28.15-1,1.81-3.92,3-1.86.32.62,1.27.08.94-.54a2.25,2.25,0,0,0-2.9-.94c-1.42.5-1.93,1.92-2.11,3.3s0,2.69-.58,3.85-2.07,1.3-3.34,1.27-2.79-.22-3.77.8c-1.13,1.19-.48,2.72-.26,4.13.55,3.6-3.77,3.09-6,3.67a3.75,3.75,0,0,0-2.91,2.47,2.46,2.46,0,0,0,1,3c.54.37,1.09-.58.51-.94Z"/><path class="cls-2" d="M202.36,301.43a3.33,3.33,0,0,1,.58-4.47,3.2,3.2,0,0,1,4.82,1,3.72,3.72,0,0,1-.69,5,3.11,3.11,0,0,1-5.19-2.21.54.54,0,0,0-1.08,0,4.15,4.15,0,0,0,5.55,3.88,4.85,4.85,0,0,0,2.58-6.9c-1.24-2.25-4.11-3.52-6.36-1.88a4.49,4.49,0,0,0-1,6.35c.44.54,1.2-.25.77-.76Z"/><path class="cls-2" d="M209.72,306.65a6.23,6.23,0,0,1-3-3.55c-.55-2.36,1.63-4.36,3.85-3.09,1.41.84,2.75,2.51,2.5,4.25-.22,1.52-2.58,2.94-3.74,1.34-.4-.54-1.34,0-.94.55a3.2,3.2,0,0,0,5-.08c1.81-2.1.21-5.15-1.67-6.57-2.14-1.63-4.87-1.34-5.92,1.35s1,5.33,3.3,6.75a.56.56,0,0,0,.58-1Z"/><path class="cls-2" d="M68.09,289.82a2.27,2.27,0,0,1-.43-3.45c.94-1,2.14-.84,3.3-.29a5.51,5.51,0,0,0,3.27.83c3.7-.69.32-6,3.33-7.18,1.27-.47,1.49.25,2.29,1a2,2,0,0,0,1.31.62,2.4,2.4,0,0,0,2.07-1.2c.8-1.3.43-3,.8-4.43a3.91,3.91,0,0,1,1.66-2.54c1.13-.54,2.87,0,2.87,1.46a.55.55,0,0,0,1.09,0c0-3.16-4.1-3.42-5.73-1.31a6.29,6.29,0,0,0-1,2.1c-.26,1,0,2.58-.4,3.49-1.31,2.76-2.07.76-2.73.14a2.48,2.48,0,0,0-.9-.58,2.32,2.32,0,0,0-1.82.15c-1.74.8-2,2.65-2.07,4.35,0,1,.37,2.69-1.3,2.94a4.12,4.12,0,0,1-2-.61,6.08,6.08,0,0,0-2.25-.77c-3.44-.21-4.71,4.07-2.17,6.1.61.4,1.38-.36.83-.83Z"/><path class="cls-2" d="M80.87,273.67a3.38,3.38,0,0,1,.65-4c1.09-1,2.29-.65,3.56-1,1.74-.5,1.85-1.92,2-3.52.36-4.79,8-2.21,8.6-7.11.07-.69-1-.69-1.09,0-.33,2.83-4.83,2.54-6.71,3.66a3.47,3.47,0,0,0-1.6,1.78c-.36.95-.07,2-.36,2.94-.55,1.78-2.58,1.09-3.89,1.64a4.12,4.12,0,0,0-1.59,1.27,4.42,4.42,0,0,0-.48,4.82c.33.66,1.27.11,1-.5Z"/><path class="cls-1" d="M43.05,18c-1-2.8-1.34-6.54,1.6-8.31s5.48.9,5.77,3.66a5.77,5.77,0,0,1-3.81,5.92A4.53,4.53,0,0,1,41,15.81c-.11-.69-1.16-.4-1,.29a5.59,5.59,0,0,0,7,4.25A6.76,6.76,0,0,0,51.47,13C51,9.79,48,7.1,44.72,8.52c-3.92,1.67-3.95,6.39-2.68,9.83a.53.53,0,0,0,1-.32Z"/><path class="cls-1" d="M47.08,11.93c-4.35-.8-2.29-7.88,1-8.71,2.75-.73,3.73,2.54,3.26,4.64a8.48,8.48,0,0,1-.91,2.44c-.54,1-2.39,2.94-3.26.87-.29-.66-1.2-.08-.95.54a2.32,2.32,0,0,0,2.62,1.34c1.34-.25,2.18-1.52,2.76-2.68,1.27-2.65,1.67-6.57-1.49-8.06C44.72-.23,40.22,11.82,46.75,13c.69.11,1-.91.33-1.05Z"/><path class="cls-2" d="M373,274.19c-1.49-2.94,2.83-4.75,4.1-1.78a.52.52,0,0,0,.62.26c1.59-.62,2.21-1.93,3-3.34.58-1.05,1.23-2.36,2.61-2.47a2.69,2.69,0,0,1,2.76,2.94c-.07.69,1,.69,1.09,0a3.74,3.74,0,0,0-4.32-4c-3,.62-2.79,4.79-5.41,5.81.22.07.4.18.62.26-1.85-4.32-8.09-1.31-6,2.9.29.54,1.24,0,.91-.62Z"/><path class="cls-2" d="M366.49,54a5.52,5.52,0,0,0-1.09,5.73,5.18,5.18,0,0,0,1.74,2.21c1.16.91,3.49,1.78,3.05,3.53s-2.47,3.19-.32,4.64a10.79,10.79,0,0,0,2.86.94A2.73,2.73,0,0,1,374,75.56c-.47.51.29,1.27.76.76A3.78,3.78,0,0,0,373,70c-.55-.18-1.13-.25-1.67-.43-1.27-.4-1.31-1.38-.77-2.51.4-.87,1-1.45.77-2.47a3.69,3.69,0,0,0-1.42-2c-1.09-.87-2.5-1.45-3.27-2.68a4.47,4.47,0,0,1,.55-5.16c.54-.54-.22-1.3-.69-.79Z"/><path class="cls-2" d="M378.43,66.38a2.1,2.1,0,0,0-1.52,2.36c.14,1.49,1.48,2.25,2.61,3a2.51,2.51,0,0,1,1.42,1.86,4.38,4.38,0,0,1,0,1.77,2,2,0,0,0,.39,1.27,5.75,5.75,0,0,0,1.49,1.13,3,3,0,0,1,1.2,3.77c-.25.66.8.95,1.05.29a4.11,4.11,0,0,0-.14-3.33c-.58-1.17-2.87-2-2.91-3.27,0-.55.37-1,.29-1.6a2.87,2.87,0,0,0-.54-1.3A6.75,6.75,0,0,0,380,70.73c-.8-.5-3.45-2.75-1.34-3.33a.52.52,0,1,0-.22-1Z"/><path class="cls-1" d="M376.91,162l9.95-8c-.33-.14-.62-.25-.95-.4a20.28,20.28,0,0,1-2,6.83.56.56,0,0,0,.76.76A114.11,114.11,0,0,1,397,154.44l-.77-.76a18.48,18.48,0,0,0-3,7.15.56.56,0,0,0,.8.62l10.74-6.32c-.25-.21-.54-.4-.8-.61-.43,2.14-.83,4.24-1.27,6.38-.14.69.91,1,1.06.29.43-2.14.83-4.24,1.27-6.38a.56.56,0,0,0-.8-.62l-10.74,6.31c.25.22.54.4.79.62a18,18,0,0,1,2.91-6.89c.32-.48-.29-.95-.76-.77a114.11,114.11,0,0,0-12.31,6.79l.76.76a22.09,22.09,0,0,0,2.18-7.4c.07-.51-.62-.65-.94-.4l-9.95,8c-.51.51.26,1.27.8.84Z"/><path class="cls-1" d="M390.78,169q3.69-2.34,7.33-4.68c-.29-.15-.55-.33-.84-.47a21.22,21.22,0,0,1-1.27,5c-.18.47.4.83.8.62a130.17,130.17,0,0,0,11.76-7.26c-.25-.22-.54-.4-.8-.62-.72,1.74-1.45,3.49-2.18,5.19-.25.65.8.94,1.06.29.72-1.74,1.45-3.48,2.17-5.19.19-.43-.43-.87-.79-.62a137.17,137.17,0,0,1-11.76,7.26c.25.22.54.4.79.62a23.29,23.29,0,0,0,1.31-5.26.56.56,0,0,0-.83-.47L390.19,168c-.54.4,0,1.3.59.94Z"/><circle class="cls-2" cx="420.64" cy="336.46" r="6.13"/></g><g id="girl"><g id="leg_right" data-name="leg right"><path d="M299.74,344.69c.4,2.43.8,4.87,1.2,7.26a66.62,66.62,0,0,1-11.69,10.31c-3.38,2.32-8.13,5.12-12.27,10.92-.54.77-.94,1.38-1.2,1.82l12.13-3.48q13.5-3.93,27-7.88c-1.45-9.11-2.94-18.19-4.39-27.3Z"/><path class="cls-3" d="M278.22,224.81c.07,2.28.21,5.59.5,9.58.4,6.06,1.49,19.92,7.12,49.07,4,20.65,8.13,38.08,12.27,55.46.61,2.58,1.12,4.68,1.48,6.14l11.76-2.22c-.54-3.92-1.3-9.8-2.21-16.91-3.49-27.62-5.66-45.19-6.64-66-.4-8.67-.69-20.94-.26-35.82Q290.21,224.41,278.22,224.81Z"/><path class="cls-4" d="M291.35,228.58c.37,2.61.91,6.57,1.57,11.33,2.5,17.93,4.46,31.14,4.86,34,1.7,11.47,4.46,31.65,9.18,69.69,1.42-.15,2.87-.26,4.28-.4-.61-4-1.52-10.09-2.54-17.57-2.39-17.78-5.55-41.45-6.64-71.07-.22-5.91-.43-14.44-.4-24.79C298.25,229.38,294.8,229,291.35,228.58Z"/><path class="cls-5" d="M277.56,225.39c2.51,33.39,9.11,66.27,16.63,98.87,2.14,9.33,4.35,18.62,6.6,27.95.15.69,1.2.39,1-.29-7.73-32.38-15.49-64.83-20.07-97.82-1.34-9.55-2.36-19.09-3.08-28.71-.08-.69-1.16-.69-1.13,0Z"/><path class="cls-5" d="M301.26,230.69a659.22,659.22,0,0,0,8.13,103.77c1.56,9.8,3.34,19.52,5.34,29.25.14.69,1.2.4,1-.29A659.29,659.29,0,0,1,303,260.05c-.44-9.8-.62-19.56-.62-29.36,0-.69-1.13-.69-1.13,0Z"/><path class="cls-5" d="M301,351.73c-4.72,4-9.4,7.95-14.12,11.91-4,3.37-8.46,6.6-11.25,11.14a.54.54,0,0,0,.62.8l39.3-11.4a.54.54,0,0,0-.29-1.05q-19.65,5.72-39.31,11.4c.22.25.4.54.62.8,2.83-4.65,7.51-7.95,11.62-11.4,4.53-3.81,9-7.62,13.57-11.43.55-.44-.25-1.2-.76-.77Z"/></g><g id="leg_left" data-name="leg left"><path d="M339,338.78c1.63,5.11,3.23,10.2,4.86,15.31-3.77,2.65-7.07,5-9.83,7-6,4.32-8.28,6.14-11,8.75-1.85,1.82-3.27,3.41-4.21,4.54,3.63-.58,11.79-1.92,20.18-3.74,6.93-1.52,5.66-1.56,8.6-2a22.32,22.32,0,0,0,7-1.89,18.16,18.16,0,0,0,2.51-1.42c-.15-1.37-.29-2.79-.48-4.21a125.41,125.41,0,0,0-4.53-20.79C347.76,339.79,343.4,339.28,339,338.78Z"/><path class="cls-3" d="M310.08,228.47c.73,5.37,1.85,12.67,3.49,21.24,1.23,6.46,4.06,20.47,9.29,38.69,4.1,14.3,5.41,16.22,13.1,41,2.54,8.17,4.54,14.85,5.81,19.2,3.77-1.05,7.55-2.14,11.32-3.19-.76-4.07-1.88-10.13-3.19-17.46-4.5-25.3-8.64-48.38-11.61-75.9-1.06-9.61-2.33-23-3.2-39.27Q322.57,220.58,310.08,228.47Z"/><path class="cls-5" d="M309.76,230.07c4.42,33,14.33,64.9,24.53,96.47q4.47,13.72,8.93,27.44c.22.66,1.27.37,1-.29-10.34-31.79-21.37-63.55-28.56-96.25-2-9.15-3.67-18.37-4.94-27.66-.07-.69-1.09-.4-1,.29Z"/><path class="cls-5" d="M334.69,218.71A942.82,942.82,0,0,0,349.9,332.28c2.11,10.63,4.36,21.23,6.82,31.79.15.69,1.2.4,1.06-.29a940.35,940.35,0,0,1-19.1-112.66c-1.16-10.78-2.1-21.56-2.9-32.38,0-.76-1.12-.76-1.09,0Z"/><path class="cls-5" d="M343.26,354.2c-8.93,5.85-17.93,11.8-25.16,19.75a.55.55,0,0,0,.55.9c8.56-1.7,17.13-3.44,25.66-5.15,2.11-.44,4.21-.83,6.32-1.27a22.42,22.42,0,0,0,5-1.23c1.93-.91,3.13-3.23,1.53-5-.47-.55-1.23.25-.76.76,2.94,3.37-6.32,4.5-7.81,4.79l-10.2,2.07-20,4c.18.29.36.62.54.91,7.19-7.88,16.08-13.8,24.94-19.6.54-.4,0-1.35-.58-.95Z"/><path class="cls-6" d="M328,233.63c.48,3.19,1.75,11.94,2.22,15.2,7.08,48.79,9,62.94,14,82.94,1,3.92,2.36,9.22,4.18,15.46,1.63-.51,3.26-1,4.9-1.49-.66-3.55-1.57-8.85-2.69-15.2-5-28.17-7.48-42.22-8.82-51-1.92-12.37-4.21-29.87-5.63-51.54C333.42,229.85,330.7,231.74,328,233.63Z"/></g><g id="skirt"><path class="cls-7" d="M282.21,163.18a157.24,157.24,0,0,0-5.08,19.23,164.48,164.48,0,0,0-2.29,49.26,84.94,84.94,0,0,0,12.67,4.46c6,1.56,16.62,4.25,29.76,2.07a63,63,0,0,0,21.56-7.88,214.25,214.25,0,0,0-3.41-32.63,212.12,212.12,0,0,0-9.33-34.22Q304.15,163.35,282.21,163.18Z"/><path class="cls-4" d="M316.76,164.34c1.2,3.19,2.29,6.53,3.27,10,6.68,24.14,4.9,46.39,1.34,63.23a60.82,60.82,0,0,0,10.6-3.81,64.15,64.15,0,0,0,6.5-3.52c.07-5.12-.08-10.57-.55-16.26a171,171,0,0,0-12.19-50.46C322.75,163.79,319.77,164.08,316.76,164.34Z"/></g><g id="arm_right" data-name="arm right"><path class="cls-3" d="M289.25,85.28a36.54,36.54,0,0,0-3.59,3,37.6,37.6,0,0,0-7.34,9.51c-1.88,3.63-2.61,6.71-3.73,11.69-1.31,5.66-1.09,7.62-3.13,10.27a14.62,14.62,0,0,1-5.62,4.35,17.88,17.88,0,0,1-8.28,1.71,21.87,21.87,0,0,1-9.36-2L247,125.32c-1.16-.58-2.94-1.45-5.15-2.32-4.36-1.75-6.57-2.62-9.18-2.33-.55.07-5.19.62-6.25,3.6-.36,1-.32,2.57.48,3.26s2.75.37,4.35,0c1.34-.29,2-.65,2.8-.32a2.51,2.51,0,0,1,1.23,1.41c1.13,2.32.4,4.14.76,7.95.18,2.07.33,3.16,1.09,3.74.26.22,1.16.8,5.16-.33a30.79,30.79,0,0,0,5.91-2.32c-.14,1-.32,2-.47,3a66.26,66.26,0,0,0,10.45,1.7c6.43.55,10.82.91,16.05-.94a27.37,27.37,0,0,0,11.36-7.81,28.72,28.72,0,0,0,5.62-10.12C296.29,108.77,290.19,88.4,289.25,85.28Z"/><path class="cls-6" d="M291,90.4c-.29,2.47-.79,6.1-1.56,10.45-1.67,9.3-2.46,13.94-4.82,18.7-1.35,2.68-4.29,8.67-10.46,12.63-10.63,6.82-23.26,2.79-25.55,2-3.74,1.89-7.48,3.74-11.21,5.63a12.37,12.37,0,0,0,3.59.14,14.31,14.31,0,0,0,6.86-2.5v3.41a64.23,64.23,0,0,0,10.45,1.56c6.21.4,10.78.69,16-1.23a28.43,28.43,0,0,0,14.49-12.64c2.54-4.57,3-8.52,3.59-14A76.36,76.36,0,0,0,291,90.4Z"/><path class="cls-5" d="M289,84.67a35.88,35.88,0,0,0-12.6,16.22c-2.83,7.44-2.79,15.79-7,22.72a.54.54,0,0,0,.94.55c3.81-6.36,4.17-13.83,6.31-20.76A34.62,34.62,0,0,1,289.5,85.61c.58-.4,0-1.34-.54-.94Z"/><path class="cls-5" d="M247.76,123.94a95.22,95.22,0,0,1-.43,15.75c-.08.69,1,.69,1.09,0a88.16,88.16,0,0,0,.43-15.75.55.55,0,1,0-1.09,0Z"/><path class="cls-5" d="M247.84,124.45c5.22,1.67,11.07,2.83,16.44,1a14,14,0,0,0,9-8.31c.25-.66-.8-1-1.06-.29a13.13,13.13,0,0,1-9.29,7.84c-4.94,1.27-10.09.18-14.81-1.35a.55.55,0,0,0-.32,1.06Z"/><path class="cls-5" d="M247.73,140.85c8.38,2.22,18.36,3.52,26.86,1,7.69-2.29,12.59-8.86,16.26-15.61.32-.62-.62-1.16-1-.54-3.66,6.71-8.49,13.21-16.22,15.28-8.17,2.18-17.61.94-25.66-1.16-.66-.22-1,.83-.29,1Z"/><path class="cls-5" d="M247.62,124.48c-2.22,0-4.43-1.48-6.43-2.39a24.5,24.5,0,0,0-4.75-1.71c-2.91-.65-6-.43-8.42,1.49-1.49,1.2-3.34,4-1.78,5.77a4.21,4.21,0,0,0,2.94,1.2c1.34,0,4.9-2.14,5.55-.47.26.65,1.31.36,1.05-.29-.65-1.71-2.32-1.71-3.84-1.13s-5.3,2-5.12-1.41c.07-1.46,1.78-2.87,2.94-3.52,3.23-1.75,7.15-.62,10.27.76,2.36,1,4.94,2.86,7.59,2.83a.57.57,0,0,0,0-1.13Z"/><path class="cls-5" d="M237.53,140.6a12.5,12.5,0,0,0,10.12-2.25c.55-.4,0-1.34-.54-.95a11.5,11.5,0,0,1-9.29,2.15c-.69-.15-1,.9-.29,1Z"/></g><g id="torso"><path class="cls-3" d="M303.15,78.21h-5.63v3.37a19.81,19.81,0,0,0-5.44,1.67,18.25,18.25,0,0,0-3.92,2.61c-1.27,6.83-2.58,12.31-3.56,16.12-1.45,5.55-2.25,7.88-2.43,12.16-.14,3.23.26,3.63.36,9.91,0,2.72.11,6.1-.18,10.12-.21,2.91-.51,5.05-1.49,11-1.74,10.6-2,11.21-2.43,14.23a83.91,83.91,0,0,0-.54,18.18,40.36,40.36,0,0,0,4.14,2.43c3.37,1.78,5.08,2.18,7.87,3.56a36.8,36.8,0,0,1,6.17,3.92c.76-5.63,1.49-11.25,2.25-16.84,1,6,2,12,3,18a44.74,44.74,0,0,0,7.11,0c3.88-.29,11.25-1,18-5.8a21.52,21.52,0,0,0,5.44-5.45,17.29,17.29,0,0,0,2.61-6.75c-.58-3.3-1.27-7.91-1.88-13.5a226.4,226.4,0,0,1-1.13-23.77c-.07-8.61,0-19.82.55-33.14l3.55-11.62a62.64,62.64,0,0,0-20.4-8.6c.08-1.38.11-2.76.19-4.14a14.26,14.26,0,0,1-8.06,2.8A11.73,11.73,0,0,1,303.15,78.21Z"/><path class="cls-8" d="M331.82,106.12c-.83,2.68-2.06,7-3.37,12.37-4.79,19.86-4,28.79-7.12,41.2a91,91,0,0,1-13.28,29,43.65,43.65,0,0,0,11.25-2.62c4.39-1.67,8.79-3.34,12-7.69a18.67,18.67,0,0,0,3.38-8.06c-1.09-6.24-2-12.85-2.62-19.85A250.07,250.07,0,0,1,331.82,106.12Z"/><path class="cls-9" d="M306.71,79.88c-.4.14.11,1.56-.55,3.73a9.2,9.2,0,0,1-1.49,2.8c2.15.87,4.25.8,5.05-.18C311.24,84.38,307.54,79.58,306.71,79.88Z"/><path class="cls-9" d="M297.34,170c-.72,2.18-1.41,4.58-2.07,7.12a83.37,83.37,0,0,0-1.67,8.6c1,.54,2,1.12,3,1.67C296.87,181.58,297.13,175.77,297.34,170Z"/><path class="cls-5" d="M302.71,77.77a42.69,42.69,0,0,0-5.29.33c-.26,0-.59.21-.55.54.18,1.63.36,3.27.55,4.94.07.69,1.16.69,1.08,0-.18-1.64-.36-3.27-.54-4.94l-.54.55a35.88,35.88,0,0,1,5.29-.33.55.55,0,1,0,0-1.09Z"/><path class="cls-5" d="M297.49,79.26a7.48,7.48,0,0,1,2.5,4.57c.11.69,1.16.4,1.06-.29a8.55,8.55,0,0,0-2.8-5c-.51-.48-1.27.29-.76.76Z"/><path class="cls-5" d="M288.56,86.3a27,27,0,0,1,9.15-4.5.54.54,0,0,0-.29-1A28.27,28.27,0,0,0,288,85.36c-.58.43,0,1.38.55.94Z"/><path class="cls-5" d="M317.31,80.42a52,52,0,0,1,17.78,8.78c.55.44,1.09-.5.55-.94a53.37,53.37,0,0,0-18-8.89.54.54,0,0,0-.29,1Z"/><path class="cls-5" d="M285.69,98.42c-7.26,15.61-2,33-2.79,49.4,0,.69,1.05.69,1.09,0,.79-16.19-4.5-33.46,2.65-48.85.29-.62-.66-1.16-.95-.55Z"/><path class="cls-5" d="M282.1,129.78c.33,8.21-2,16.12-3.41,24.14a116.72,116.72,0,0,0-1.31,23.63c0,.69,1.13.69,1.09,0A114.44,114.44,0,0,1,280,152.87c1.41-7.66,3.52-15.21,3.19-23.05,0-.73-1.09-.73-1,0Z"/><path class="cls-5" d="M277.71,178a53.83,53.83,0,0,0,8.74,4.65,38.77,38.77,0,0,1,9.4,5.26c.55.43,1.09-.51.55-.94a34.17,34.17,0,0,0-8.42-4.87,54.51,54.51,0,0,1-9.76-5c-.55-.43-1.09.51-.51.91Z"/><path class="cls-5" d="M297,187.46c.58-6.06,1.13-12.13,1.71-18.15.07-.69-1-.69-1.09,0-.58,6.06-1.13,12.12-1.71,18.15-.07.69,1,.69,1.09,0Z"/><path class="cls-5" d="M297.71,169.56a157.73,157.73,0,0,0,3,19.31c.15.69,1.2.4,1.05-.29a156.9,156.9,0,0,1-2.94-19c-.07-.69-1.16-.72-1.08,0Z"/><path class="cls-5" d="M301.52,189.53a46,46,0,0,0,19-3.31c4.83-2,10.38-4.75,12.3-9.94.26-.66-.79-.95-1.05-.29-2,5.3-8.38,8.09-13.32,9.87a45.6,45.6,0,0,1-16.91,2.61c-.69,0-.69,1.06,0,1.06Z"/><path class="cls-5" d="M331.39,105.72a337.64,337.64,0,0,0,2.21,65.22c.11.69,1.2.69,1.09,0a331.6,331.6,0,0,1-2.21-65.22c0-.69-1.05-.69-1.09,0Z"/><path class="cls-5" d="M333.71,170.11a20.61,20.61,0,0,1-3.08,8.27c-.37.58.58,1.13.94.55a21.15,21.15,0,0,0,3.19-8.53c.11-.69-.94-1-1.05-.29Z"/><path class="cls-5" d="M300.36,85.36A4.94,4.94,0,0,0,304,87.1.55.55,0,0,0,304,86a3.88,3.88,0,0,1-2.9-1.42c-.47-.54-1.24.22-.76.77Z"/><path class="cls-5" d="M303.59,88.91c-7,23.78-1.2,48.79-4.76,73-.11.69.94,1,1.05.3,3.56-24.21-2.21-49.22,4.76-73,.22-.69-.84-.94-1.05-.29Z"/><path class="cls-5" d="M300.86,92.22h0s0,0,0,0,0,0,0,0,0-.07,0-.07.08.07,0,0,0,0,0,0,0,0,0,0,0,.07,0,0,0,0,0,0,0,0,0,0,0,0,0,0,0,0,0,0h-.14l.07.07h0v-.07a.2.2,0,0,1,.07-.11h0s.07,0,.15,0h0c-.07,0,0,0,0,0s0,0-.07,0,.07,0,0,0,0,.07,0,0,0,0,0,0v0c0,.07,0,.11,0,0s0,.07,0,0a.57.57,0,0,0-.18-.76.6.6,0,0,0-.76.18,1,1,0,0,0,.83,1.49.9.9,0,0,0,.84-.44,1,1,0,0,0,0-1,1,1,0,0,0-1.67,0,1.07,1.07,0,0,0,.66,1.56.55.55,0,0,0,.65-.36.62.62,0,0,0-.44-.65Z"/><path class="cls-5" d="M299.38,104.05c0-.22,0-.44,0-.65a5.47,5.47,0,0,1-.4.5c.07,0,.07,0,0,0h0c-.11,0,.08,0,0,0s0,0,0,0h0v0s0,0,0-.08,0,.08,0,0l-.07.08s.11,0,0,0c.15,0,.25.11.4.14a.34.34,0,0,1,0-.1v-.11a.54.54,0,0,0-1.05-.29,1.31,1.31,0,0,0,.33,1.3c.4.4,1.12,0,1.38-.36a1.1,1.1,0,0,0-1.27-1.6c-.22.08-.44.29-.4.51s0,.44,0,.65a.56.56,0,0,0,.55.55.66.66,0,0,0,.51-.58Z"/><path class="cls-5" d="M298.65,114.54c-.07-.11,0,0,0-.07v0h0a0,0,0,0,1,0,0s0,0,0,0l0,0c-.15,0-.29,0-.44-.07s0,.07,0,0h0v.11c0,.11,0,0,0,0s.07,0,0,0c.07,0,0,0,0,0s.18,0,0,0l.55.54c0-.22,0-.44,0-.65a.56.56,0,0,0-.54-.55.57.57,0,0,0-.55.55c0,.21,0,.43,0,.65a.55.55,0,0,0,.54.54,1.24,1.24,0,0,0,1-1.85.83.83,0,0,0-.62-.43.93.93,0,0,0-.65.36,1.19,1.19,0,0,0-.14,1.38.53.53,0,1,0,.94-.47Z"/><path class="cls-5" d="M298.43,124.08a.37.37,0,0,1,.07.19v0c0-.11,0,.11,0,0s0,.07,0,0,.11-.07,0,0c.08,0-.07,0,0,0h-.14c.11,0-.07-.07,0,0l-.18-.18a.72.72,0,0,1,0,.54l.36-.36h0s0,0,0,0,0,0,0,0h0a.51.51,0,0,0-.37-.65.55.55,0,0,0-.65.36,1,1,0,0,0,.76,1.27.69.69,0,0,0,.47,0,.53.53,0,0,0,.4-.51,1.72,1.72,0,0,0,0-1,.82.82,0,0,0-.69-.62,1,1,0,0,0-.76.26.94.94,0,0,0-.11,1.38.57.57,0,0,0,.76,0,.49.49,0,0,0,.07-.77Z"/><path class="cls-5" d="M298.47,132.61s0-.07,0,0l0-.07c0,.07,0-.07,0,0l-.47.25h0c-.08,0-.08,0,0,0s0,0,0,0c.08.1,0-.11,0,0s0,.15,0,0,0,.14,0,0v0s-.07.11,0,0,0,0,0-.08h0c.11,0,.18,0,.29-.07-.11,0,.07,0,.07,0l0,0,0,0a.15.15,0,0,1,0,.18.59.59,0,0,0-.18-.76.56.56,0,0,0-.76.18.91.91,0,0,0,.29,1.2,1,1,0,0,0,.76.14.77.77,0,0,0,.43-.47,1.17,1.17,0,0,0-1-1.63.57.57,0,0,0-.47.25,1.09,1.09,0,0,0,.21,1.34c.58.58,1.35-.21.84-.69Z"/><path class="cls-5" d="M298.25,141.29a.23.23,0,0,1,.11.07,0,0,0,0,0,0,0s0,.08,0,0h0v0c0,.08,0,.11-.07.15s-.36.11-.54.15c.11,0-.08,0,0,0-.08,0-.08-.08,0,0l0,0s0,0,0,.07,0,0,0-.07,0,0,0,.07v0h0s0,0,0,0,.07-.07,0,0,0,0,0,0,0,0,0,0c.22.07.4.18.62.25h0v.07c0-.07,0-.07,0,0s0,0-.08.07a.53.53,0,0,0,.18-.76.54.54,0,0,0-.76-.18,1,1,0,0,0-.32,1.34.57.57,0,0,0,.61.26,1,1,0,0,0,.69-1,1,1,0,0,0-.76-1,.6.6,0,0,0-.54.14,1,1,0,0,0,.43,1.64.51.51,0,0,0,.65-.37.48.48,0,0,0-.25-.72Z"/><path class="cls-5" d="M297.63,151.74a.38.38,0,0,1,0,.18l0,0h0s-.11,0,0,0-.29-.08-.18,0c-.07-.11-.18-.22-.25-.33,0,0,0,.07,0,.11h0v.11c0-.08,0,0,0,0s0-.07,0,0-.07.07,0,.07-.07,0-.11.07a5.41,5.41,0,0,0,.77.19.56.56,0,0,1-.11-.19c0-.07,0-.07,0,0s0,.19-.11.22-.43-.07-.51-.25a.51.51,0,0,0,.66.36.5.5,0,0,0,.36-.65.77.77,0,0,0-1.2-.36c-.47.36-.32.94,0,1.37a.54.54,0,0,0,.76.19,1.44,1.44,0,0,0,.65-.84,1.06,1.06,0,0,0-.22-1.09.92.92,0,0,0-1.41,1,.58.58,0,0,0,1.12-.29Z"/><path class="cls-5" d="M296.94,163a4.55,4.55,0,0,1,.26-.55l-.33.26c-.07,0-.11,0-.18,0h0a.3.3,0,0,1,0-.25c0-.08.08-.11.15-.11h0a.14.14,0,0,1,.11,0,.56.56,0,0,0-.58.95c.69.36,1.6-.29,1.27-1.05a1,1,0,0,0-.83-.59.58.58,0,0,0-.58.37,1.64,1.64,0,0,0-.18.47.61.61,0,0,0,.18.76.64.64,0,0,0,.72-.25Z"/><path class="cls-5" d="M311.46,76.61l-3.66,1.2c-.58.18-1.53.32-1.85.9s0,1,.07,1.46a5.44,5.44,0,0,1-.84,4.13c-.4.58.55,1.13.95.55a6.34,6.34,0,0,0,1.05-4.43c0-.07-.29-.91-.22-1,.18-.4,1.31-.61,1.67-.72,1.05-.37,2.07-.69,3.12-1.06.66-.21.37-1.27-.29-1Z"/><path class="cls-5" d="M306.45,79.55a8.35,8.35,0,0,1,2.11,4.17c.14.69,1.2.4,1.05-.29a9.09,9.09,0,0,0-2.39-4.64c-.48-.55-1.24.25-.77.76Z"/><path class="cls-5" d="M310.85,78.13a18.78,18.78,0,0,1,4.6-1.45c-.21-.18-.47-.36-.68-.51a8,8,0,0,1-.69,4.18c-.29.61.65,1.19.94.54a8.39,8.39,0,0,0,.83-4.72.55.55,0,0,0-.69-.51,19.31,19.31,0,0,0-4.86,1.57c-.65.25-.11,1.19.55.9Z"/><path class="cls-5" d="M315.45,80.13a8.52,8.52,0,0,0,2.29.22.55.55,0,0,0,0-1.09,9.33,9.33,0,0,1-2-.18.55.55,0,0,0-.3,1Z"/></g><g id="arm_left" data-name="arm left"><path class="cls-3" d="M335.56,88.7c1.49,0,2.29,3,4.14,7.47,4,9.69,5.92,14.52,6.75,17.61a88.66,88.66,0,0,1,3,22.64,55.9,55.9,0,0,1-5.44,9.37,47.29,47.29,0,0,1-14.23,13.68,43.16,43.16,0,0,1-10.85,4.69c-.25-1.82-.51-3.63-.76-5.45-.8.4-2,1-3.38,1.89-2.25,1.34-2.76,1.81-3.74,2.25a9.79,9.79,0,0,1-6.17.36c-1.49-4.32-2.72-7.87-3.74-10.67-.32-.94-1-2.65-.18-4.14a3.76,3.76,0,0,1,1.67-1.49,9.1,9.1,0,0,1-.94-2.79c-.11-.84-.18-1.42.18-1.89a2.34,2.34,0,0,1,2.07-.54c-.26-1.71-.51-3.49-.76-5.23-.66-5-1.16-9.76-1.49-14.41,1.56-.94,3.12-1.89,4.68-2.79q11.6-6.92,23.05-13.11a36.34,36.34,0,0,1,.36-3.73,34,34,0,0,1,.95-4.69C330.88,96.93,333.09,88.7,335.56,88.7Z"/><path class="cls-10" d="M335,88.33a105.27,105.27,0,0,1,4.5,13.29c2.29,8.67,4.57,17,3.19,27.33-.72,5.33-1.56,11.69-6.35,17.78a30.83,30.83,0,0,1-17.6,10.67,12.68,12.68,0,0,0-5.63-1.3,13.74,13.74,0,0,0-9.54,4.14c.43,1,.87,2,1.3,3a10.6,10.6,0,0,0,5.23-.55c2.07-.8,3-2,6-3.19a17.69,17.69,0,0,1,2.43-.76c.07,1.49.11,3,.18,4.5a31.15,31.15,0,0,0,8.82-2.43c8.13-3.67,12.78-10.31,17.61-17.24,2.06-2.94,3.55-5.49,4.5-7.12a92,92,0,0,0-.95-12,88.83,88.83,0,0,0-4.32-17.78A83.74,83.74,0,0,0,335,88.33Z"/><path class="cls-6" d="M326.56,107.79a56,56,0,0,1,.36,9.18,58.93,58.93,0,0,1-8.42,27.55,52.6,52.6,0,0,0,6.17-4.5,53.28,53.28,0,0,0,8.82-9.55,50.65,50.65,0,0,0-.18-9.18,64.61,64.61,0,0,0-2.07-10.49c-.54-2.18-1.09-4-1.48-5.23C328.7,106.3,327.65,107.06,326.56,107.79Z"/><path class="cls-6" d="M348.12,121.65c-.69,0-.62,6.25-3.56,15a49.11,49.11,0,0,1-5.22,11.44,40,40,0,0,1-13.87,12.74,41.44,41.44,0,0,0,9.37-4.87,42.86,42.86,0,0,0,14.81-19.09C349.14,124.34,348.56,121.65,348.12,121.65Z"/><path class="cls-5" d="M331,109.2c1.27,7.12,2.46,14.27,1.67,21.53-.08.69,1,.69,1.08,0,.84-7.34-.39-14.59-1.7-21.82-.11-.69-1.16-.4-1.05.29Z"/><path class="cls-5" d="M332.91,130.22a45.75,45.75,0,0,1-8.6,9.73,44.24,44.24,0,0,1-5.33,3.84c-1.27.8-3.05,1.31-3.56,2.83-.22.66.83.95,1.05.29.29-1,1.74-1.41,2.54-1.88s1.82-1.13,2.69-1.75a44.5,44.5,0,0,0,4.46-3.52,46.5,46.5,0,0,0,7.66-9,.54.54,0,0,0-.91-.58Z"/><path class="cls-5" d="M315.38,147.06a75.69,75.69,0,0,1,2.76,16.33c0,.69,1.13.69,1.09,0a78,78,0,0,0-2.8-16.62.55.55,0,0,0-1.05.29Z"/><path class="cls-5" d="M334.8,88.59a86,86,0,0,1,14,47.65.55.55,0,0,0,1.09,0A86.94,86.94,0,0,0,335.74,88c-.39-.58-1.34,0-.94.55Z"/><path class="cls-5" d="M318.83,164.23c14.95-2.62,24.65-15.28,31.47-27.81.33-.61-.62-1.16-.94-.54-6.72,12.3-16.16,24.75-30.82,27.3-.69.1-.4,1.16.29,1Z"/><path class="cls-5" d="M315.13,146.73c-2.11-1.23-4.21-2.57-6.39-3.7-1.63-.87-3.77-1.92-5.7-1.78-3.19.26-2.21,4.54-.62,6,.51.47,1.28-.29.77-.76-1-1-2.22-3.85.07-4.18,1.34-.18,3.19.8,4.35,1.34,2.4,1.17,4.69,2.65,7,4a.55.55,0,0,0,.55-1Z"/><path class="cls-5" d="M302.68,146.41c-2.29.79-2.69,3.12-2.22,5.26.4,1.85,1.09,3.67,1.64,5.52a53.8,53.8,0,0,0,1.63,5.33c1,2.25,4,1.42,5.92,1a9.86,9.86,0,0,0,3.92-1.6c1.34-1.08,2.07-2.21,3.92-2.64.69-.15.4-1.2-.29-1.06a7.5,7.5,0,0,0-3.92,2.51,7.27,7.27,0,0,1-3.23,1.59c-.95.26-2.94.91-3.89.62-1.7-.58-1.92-2.43-2.36-3.92-.32-1.05-.61-2.07-.94-3.12-.65-2.14-3.12-7.3.15-8.38.61-.26.32-1.31-.33-1.09Z"/><path class="cls-5" d="M314.58,147a83.61,83.61,0,0,1,2.58,12c.11.69,1.16.4,1-.29a92.28,92.28,0,0,0-2.57-12.05.55.55,0,0,0-1.06.29Z"/><path class="cls-5" d="M304.67,141.29a93.66,93.66,0,0,1-2-13c-.07-1-.14-2.11-.22-3.16,0-.87-.36-2.32.19-3.08a11.64,11.64,0,0,1,2.86-1.89c.87-.55,1.75-1.13,2.62-1.67,7.11-4.43,14.52-8.39,21.88-12.34l-.8-.33a157.34,157.34,0,0,1,3.49,15.43c.11.69,1.16.4,1-.29-.91-5.19-2.07-10.35-3.48-15.43a.55.55,0,0,0-.8-.33c-8.1,4.32-16.19,8.68-23.92,13.61-1,.62-1.92,1.24-2.87,1.89-.43.29-1.16.58-1.38,1.09-.32.69,0,2.18.08,2.94,0,1,.1,2.11.21,3.16a96.59,96.59,0,0,0,2.11,13.65.52.52,0,1,0,1-.22Z"/></g><g id="head"><path class="cls-3" d="M291,31.53c-3,1.78-4.93,3-6.42,5.48a13.79,13.79,0,0,0-1.75,8.46q-1.95,5.33-3.92,10.67h4.4a17.83,17.83,0,0,0,1.09,6.28,15.68,15.68,0,0,0,7.22,8.64,15.38,15.38,0,0,0,9.73,1.41c.36,2.11.72,4.17,1.08,6.28A18.19,18.19,0,0,0,309,77.19c7.73-3.45,10.49-11.33,11.29-13.65a27.45,27.45,0,0,0,0-17.42A29.91,29.91,0,0,0,314,35.3c-3.59-4.24-6.64-7.84-11.29-8.31C299.16,26.63,296.33,28.33,291,31.53Z"/><path class="cls-11" d="M282.61,45.5c1.48-3.19,2.72-5.59,2.86-5.88,2.15-4,11.22-10.49,12.09-11.1,1.09-1.67,2-3.6,1.27-4.69-1.38-2.06-8.53-.72-13.36,2.87-.61.44-8.53,6.57-6.82,14.19a11.69,11.69,0,0,0,3.41,5.77C282.21,46.37,282.39,46,282.61,45.5Z"/><path class="cls-11" d="M293.1,26.48c-1.2,2.47-.51,5.09.21,7.81.15.51,2.25,8,9.4,11.87,2.07,1.09,4.94,2.65,7.59,1.59,1.38-.54,1.82-1.48,3-1.38,1.92.15,3.63,2.58,4,4.9,0,.26.44,3.63-1.7,5a4.76,4.76,0,0,1-3.34.51c-1.05-.22-1.24-.69-2-.73-.36,0-1.38.19-3.41,2.36-3.48,3.71-4.43,9.08-4.68,11.22.61-1,1.2-2.07,1.81-3.09a18.54,18.54,0,0,0-.54,7.59c.18,1.2.94,6.86,5.37,10.64,6.06,5.11,16.3,4.53,21.81-.8,3.74-3.6,4.32-8.35,4.54-10.2.87-6.83-2.65-7.44-5-20.26a133.45,133.45,0,0,0-3-13.06,29.17,29.17,0,0,0-2-5.19c-2.29-4.76-4.46-9.15-9.18-11.87C308.05,18.9,296,20.49,293.1,26.48Z"/><path class="cls-11" d="M287.22,68.26a17.66,17.66,0,0,0-1.42,6.28c-.11,2.61-.25,5.66,1.74,8,2.29,2.72,7.23,4.18,11,1.74a8.51,8.51,0,0,0,3.59-8.45c-.21-1.06-.43-2.11-.61-3.13a18.4,18.4,0,0,1-6.14-.32A19.71,19.71,0,0,1,287.22,68.26Z"/><path class="cls-11" d="M297.49,42.13a81.25,81.25,0,0,1,4,7.62c2,4.35,3,6.61,2.94,9s-.73,2.69-2,7.92c-.58,2.43-1,4.43-1.2,5.77.73-.76,1.42-1.53,2.14-2.29a16.64,16.64,0,0,0,.4,6.43c.15.54,2.22,7.65,9.11,10.7,6.25,2.76,14.12,1.16,14.6-1,.21-1.16-1.64-1.85-3.89-4-5.84-5.55-9.4-16-6.42-23.26,1.81-4.4,4.72-4.5,5.33-8.72.76-5-2.72-9.36-4-11-7.51-9.43-21.34-8.93-23.7-8.82-.72.66-1.41,1.35-2.14,2a32.35,32.35,0,0,0,1.74,4.54A31.31,31.31,0,0,0,297.49,42.13Z"/><path class="cls-12" d="M279.2,56a25,25,0,0,1,4.35-.8c1.71-.14,2.21,0,2.36.33s-.11.87-.69,1.78a9.52,9.52,0,0,1-1.12,1.56c-.19-.73-.37-1.42-.55-2.14C282.1,56.5,280.65,56.25,279.2,56Z"/><path class="cls-5" d="M282.75,45.1c-1.41,3.78-2.83,7.52-4.32,11.26a.54.54,0,0,0,.51.68c1.49-.18,2.94-.25,4.43-.29a.54.54,0,0,0,0-1.08,34.22,34.22,0,0,0-4.43.29,8.17,8.17,0,0,1,.51.69c1.45-3.74,2.9-7.48,4.32-11.26.29-.65-.76-.94-1-.29Z"/><path class="cls-5" d="M283.19,56.46c.29,4.76,1.89,10.35,5.62,13.54,3.45,2.94,8.24,3.56,12.6,3.27.69,0,.69-1.13,0-1.09-4.07.25-8.6-.22-11.83-2.94-3.56-3-5.05-8.31-5.3-12.78,0-.69-1.13-.69-1.09,0Z"/><path class="cls-5" d="M300.94,73.16A10.94,10.94,0,0,1,302,78.5c0,.69,1.05.69,1.08,0a11.72,11.72,0,0,0-1.23-5.88c-.29-.66-1.23-.08-.94.54Z"/><path class="cls-5" d="M310.7,48.12c2.43-3.45,6.06,1.45,6,4,0,3.16-3.27,5.44-6.07,3.56-.58-.4-1.12.54-.54.94,3.85,2.65,8.24-1.2,7.62-5.41-.51-3.52-5.19-7.58-8-3.63-.4.58.54,1.13.94.55Z"/><path class="cls-5" d="M289.36,43.51a9.87,9.87,0,0,0,.11,2.1,5.11,5.11,0,0,0,.43,1.82c.4.65,1.42.4,1.24-.4a.55.55,0,0,0-1.06.29v.07c0-.18.11-.36.15-.54s.07,0,.11-.08l.54.15a4.25,4.25,0,0,1-.32-1.53,10.76,10.76,0,0,1-.08-1.88.56.56,0,0,0-1.12,0Z"/><path class="cls-5" d="M289.65,43.91a7,7,0,0,1,.54,3.37c0,.69,1.06.69,1.09,0a8,8,0,0,0-.69-3.92c-.25-.65-1.2-.11-.94.55Z"/><path class="cls-5" d="M288,40.46c1.59-2.54,4.5-.66,5.44,1.34.29.62,1.23.07.94-.54-1.3-2.8-5.33-4.54-7.29-1.35a.53.53,0,1,0,.91.55Z"/><path class="cls-5" d="M284.75,61.73a4.82,4.82,0,0,0,5.7-2.22.55.55,0,0,0-.95-.54,3.69,3.69,0,0,1-4.46,1.7.55.55,0,0,0-.29,1.06Z"/><path class="cls-5" d="M288.89,59.33a1.3,1.3,0,0,1,1.41,1.2c0,.69,1.13.69,1.09,0a2.42,2.42,0,0,0-2.5-2.29c-.69,0-.69,1.13,0,1.09Z"/><path class="cls-5" d="M291.5,51.13a.55.55,0,0,0,0-1.09.55.55,0,1,0,0,1.09Z"/><path class="cls-5" d="M294.37,49a.55.55,0,0,0,0-1.09.55.55,0,0,0,0,1.09Z"/><path class="cls-5" d="M293.39,50.73v.14a.56.56,0,0,0,.54.55.57.57,0,0,0,.55-.55v-.14a.57.57,0,0,0-.55-.55.53.53,0,0,0-.54.55Z"/></g></g><g id="guy"><g id="leg_right-2" data-name="leg right"><path d="M162.9,335.4c-.32,9-.69,18.08-1,27.11q42.35,7.19,43.59,2.76,1.08-3.86-28.86-16.48,3.44-27.5-1-28.85C173.14,319.21,168.93,324.37,162.9,335.4Z"/><path class="cls-3" d="M191.72,178.17v13.39c0,22.18.29,31.94.33,40.18a564.42,564.42,0,0,1-4.14,68.34c-1.42,12.42-2.94,22.69-4.14,29.88a18.37,18.37,0,0,1-6.53,4.32,21.92,21.92,0,0,1-3.52,1A27.32,27.32,0,0,1,155,331.7c1.78-10.06,3.92-23.27,5.85-38.8,1.56-12.74,4.1-36,5.15-65.59.51-14.95.73-33,0-53.57C174.55,175.19,183.16,176.68,191.72,178.17Z"/><path class="cls-8" d="M167,209.42c1.82-4.54,4.14-9.59,5.48-9.26,2,.47.8,12.34,0,21.31-1.81,20.32-2.06,40.76-3.44,61.12-.84,12.67-1.78,30.63-2.07,52.52L155,332c4.07-23.12,7.44-48.23,9.62-75.2C165.91,240.34,166.68,224.52,167,209.42Z"/><path class="cls-5" d="M190.89,182.27a795.91,795.91,0,0,1-3.45,115q-1.69,16.27-4,32.52c-.11.69.94,1,1.05.29a794.65,794.65,0,0,0,8.2-114.91q0-16.44-.72-32.89c0-.72-1.09-.76-1.05,0Z"/><path class="cls-5" d="M166.64,209.74q-1.8,47.59-7.84,94.88c-1.16,9.18-2.47,18.37-3.88,27.51-.11.69.94,1,1.05.29q7.35-47.48,10.42-95.49c.58-9,1-18.11,1.38-27.19,0-.69-1.09-.69-1.13,0Z"/><path class="cls-5" d="M155.39,333a32,32,0,0,0,15.82,2.87c4.54-.36,9.88-1.45,12.67-5.37.4-.58-.54-1.12-.94-.54-2.76,3.84-8.57,4.71-13,4.9a31.29,31.29,0,0,1-14-2.8c-.61-.29-1.16.65-.54.94Z"/></g><g id="leg_left-2" data-name="leg left"><path d="M122.4,325.78c-3.45,11-6.86,22-10.31,33q40.72,12,42.25,8.24,1.24-3.11-24.72-17.17c8.85-11.76,11.18-22.36,7.55-25.73S124.14,325,122.4,325.78Z"/><path class="cls-3" d="M141.27,179.87c-.18.8-.47,3.52-1,8.93-.87,8.42-1.34,14.66-1.38,15.1-1.81,23.88-5.15,44.64-5.15,44.64a424.06,424.06,0,0,1-12.38,53.21c-2.61,9.08-5,16.63-6.86,22a35.51,35.51,0,0,0,8.24,7.55c3.27,2.14,7.15,4.72,12.38,4.47a16.18,16.18,0,0,0,4.79-1c1.56-4.54,4.25-12.41,7.22-22.32,5.48-18.26,10-39,18.88-79.67.4-1.82,5.48-25.23,5.84-26.79,3.19-3.77,6.43-7.55,9.62-11.32,5.41-12.63,5.23-25.48-1-30.89C170,154.68,144.21,167.49,141.27,179.87Z"/><path class="cls-4" d="M140.91,187.09c.43,3.16,1,7.92,1.38,13.72,1.74,26.9-2.54,45.92-6.54,67.3-2.76,14.73-6.49,36.51-9.94,64.21-3.78-2.87-7.55-5.74-11.33-8.57,1.93-5.7,4.69-14.08,7.55-24.39,9.29-33.25,12.92-60.43,15.46-80C138.51,211.3,139.82,200.31,140.91,187.09Z"/><path class="cls-5" d="M139.71,182.3a489.5,489.5,0,0,1-16.44,110.63q-4.09,15.3-9.22,30.31c-.22.65.83.94,1,.29a493.16,493.16,0,0,0,23.63-109.61c1-10.53,1.7-21,2.07-31.62,0-.72-1.05-.72-1.09,0Z"/><path class="cls-5" d="M179.63,195.7l-8.16,10.23c-.44.55.32,1.31.76.76l8.17-10.23c.43-.55-.33-1.31-.77-.76Z"/><path class="cls-5" d="M171.58,205.39c-6.61,34-13.69,67.87-23.31,101.15q-4.08,14.16-8.82,28.1c-.21.65.84.94,1.06.29,11.14-32.78,19.27-66.46,26.31-100.36,2-9.62,3.92-19.27,5.77-28.89.15-.66-.9-1-1-.29Z"/><path class="cls-5" d="M114.3,324a29,29,0,0,0,5.59,5.3,50.68,50.68,0,0,0,6,4.21c4.18,2.43,9.51,4.13,14.23,2.28.66-.25.36-1.3-.29-1.05-4.64,1.85-9.83,0-13.9-2.47a48.32,48.32,0,0,1-5.7-4.1,26.24,26.24,0,0,1-5-4.68c-.36-.58-1.31,0-.91.51Z"/></g><g id="arm_right-2" data-name="arm right"><path class="cls-3" d="M183.34,66.55c1.85-.39,4.32,2.73,5.66,4.4a19.84,19.84,0,0,1,3.56,7.11,60,60,0,0,1,2.28,17.57,28.41,28.41,0,0,0,3.12,9.22,29.55,29.55,0,0,0,10.89,10.89,30.54,30.54,0,0,0,11.29,3.77l-1.63,1.63a18.05,18.05,0,0,1,3.59.73c1.85.58,2.83.87,3.16,1a12,12,0,0,1,1.45.69,3,3,0,0,0-.69,1.92,3.13,3.13,0,0,0,1.49,2.69c.87.5,2.14.25,4.61-.26l1.16-.25a4.51,4.51,0,0,1,2.47.36c1.49.69,2.07,2.11,2.87,3.88a8.93,8.93,0,0,1,1,5.3,5,5,0,0,1-1.3,2.87,9.6,9.6,0,0,1-2.15,1.31,31.32,31.32,0,0,1-2.86,1.45c-1.31.47-2,.73-2.73.43a2.11,2.11,0,0,1-1.45-1.7c0-.87,1.13-1,1.16-1.71,0-.87-1.52-1.05-3.3-2.72-1.23-1.16-1-1.52-2.29-2.58a8.81,8.81,0,0,0-2.57-1.56c-.58-.25-.95-.29-1.85-.72-1.2-.55-1.49-.84-1.67-1.09-.37-.55-.15-.84-.48-1.2s-1.12-.29-2-.29a6.63,6.63,0,0,1-2.9-.73c-.47,3.34-.94,6.68-1.45,10.06a28.58,28.58,0,0,1-7.44-2.87c-4-2.25-8.13-5.92-13.61-16.33-4.07-7.7-9.22-17.53-10.46-31.69C179.49,79.37,180,67.28,183.34,66.55Z"/><path class="cls-8" d="M183.7,66.88c.07,2.25.29,5.16.73,8.57.21,1.63.65,4.53,1.63,8.93a161.2,161.2,0,0,0,5.12,17.49c4.5,12.7,6.78,19.2,11.39,23.38a31,31,0,0,0,9.4,5.8c0,2.51.08,5,.11,7.52a11.79,11.79,0,0,1-4.42-.55,13,13,0,0,1-5.59-3.7c-4.8-4.86-7.19-7.3-9.51-11.11C183,107.64,181.67,90,181.67,90A75.58,75.58,0,0,1,183.7,66.88Z"/><path class="cls-13" d="M219.12,121.43c.22.19-.68,1.2-1.27,2.76a10.15,10.15,0,0,0-.32,5.59c-1.38-.29-2.76-.58-4.14-.83a11.86,11.86,0,0,1,2.43-5C217.13,122.41,218.87,121.18,219.12,121.43Z"/><path class="cls-8" d="M231.07,136.53c1.45-.9,1.59-1.12,2.21-1.48a9.45,9.45,0,0,1,6.13-1,7.44,7.44,0,0,1-.72,4.76,11.4,11.4,0,0,1-2.94,3.08,6.22,6.22,0,0,1-3.27,1.27c-1,0-2.54-.14-2.76-.83s1-1.16.84-2c-.15-1-2-1.12-2-1.89C228.53,138,229.29,137.66,231.07,136.53Z"/><path class="cls-5" d="M182,66.59a29.12,29.12,0,0,1,7.18,5.08c2.36,2.51,3.2,5.7,3.71,9a157,157,0,0,1,1.74,21.78.55.55,0,0,0,1.09,0,142.35,142.35,0,0,0-2-23.23,15.82,15.82,0,0,0-3.6-8.09c-2.1-2.33-4.9-3.92-7.58-5.45-.66-.36-1.2.58-.58.91Z"/><path class="cls-5" d="M194.41,89a29.35,29.35,0,0,0,21.16,30.16.54.54,0,0,0,.29-1.05A28.27,28.27,0,0,1,195.5,89c.07-.69-1-.69-1.09,0Z"/><path class="cls-5" d="M215.24,119.15a15.44,15.44,0,0,1,4.76,1.16c0-.33-.08-.65-.15-1-6.75,3.85-8.67,11.07-8,18.4.07.69,1.16.69,1.09,0-.62-7,1.05-13.79,7.48-17.46a.54.54,0,0,0-.15-1,16.11,16.11,0,0,0-5.05-1.23c-.65-.07-.65,1,0,1.09Z"/><path class="cls-5" d="M190.89,121.58a41.5,41.5,0,0,0,8.93,11.47c3.44,3.08,7.62,6.24,12.48,6.06.69,0,.69-1.12,0-1.09-4.86.18-9.22-3.37-12.56-6.53A40.64,40.64,0,0,1,191.83,121c-.33-.62-1.27-.08-.94.54Z"/><path class="cls-5" d="M218.87,121.33l8.24,2.28a.54.54,0,0,0,.29-1c-2.76-.76-5.52-1.52-8.24-2.29a.55.55,0,0,0-.29,1.06Z"/><path class="cls-5" d="M233.53,127.82a5.77,5.77,0,0,1,4.76,4.36,12.47,12.47,0,0,1,.47,3.26c0,.37,0,4.83-1.09,4.07-.58-.4-1.12.54-.54.94,3.26,2.29,2.76-5.59,2.61-6.75-.43-3.41-2.54-6.68-6.21-7-.72,0-.69,1,0,1.12Z"/><path class="cls-5" d="M236.33,134.9c.4,2.29.76,4.9-1.31,6.46-.54.44.22,1.2.76.76,2.36-1.85,2-4.9,1.6-7.55-.11-.65-1.16-.36-1,.33Z"/><path class="cls-5" d="M233.61,136.57c.4,1.92.83,4.43-1.13,5.66-.58.37,0,1.31.55,1,2.43-1.53,2.14-4.47,1.63-6.9-.15-.65-1.2-.36-1,.29Z"/><path class="cls-5" d="M231.21,137a7.62,7.62,0,0,1-.54,5.92c-.33.62.61,1.16.94.54a8.72,8.72,0,0,0,.65-6.75.55.55,0,0,0-1,.29Z"/><path class="cls-5" d="M213.21,129.67c1.52.37,3.08.73,4.61,1.09.69.15,1-.9.29-1l-4.61-1.09a.55.55,0,0,0-.29,1Z"/><path class="cls-5" d="M212.59,139a20.5,20.5,0,0,0,4.1-8.53c.15-.69-.9-1-1.05-.29a19.67,19.67,0,0,1-3.81,8.06c-.44.5.33,1.3.76.76Z"/><path class="cls-5" d="M212.52,129.71a24.12,24.12,0,0,1-.26,6.68.55.55,0,0,0,1.06.29c.69-2.25,1.45-4.5,2.25-6.75.22-.55-.55-.84-.91-.55-.22,0-.44,0-.65,0,0,.32-.08.65-.15,1,.33-.08,1.09,0,1.2.4.07.21-.54,1-.62,1.19-.36.73-.76,1.42-1.12,2.15s.54,1.08.94.54a7.52,7.52,0,0,0,1.49-4.94.56.56,0,0,0-1-.29,13.44,13.44,0,0,0-2.07,5.48c.37,0,.73.11,1.06.15a10.32,10.32,0,0,1,.83-4.17c-.36,0-.72-.11-1.05-.15a32.5,32.5,0,0,1-.69,3.67.54.54,0,0,0,1.05.29,36.67,36.67,0,0,0,.73-4c.07-.65-.87-.65-1.05-.15a11.14,11.14,0,0,0-.88,4.47c0,.58,1,.76,1.06.14a12.14,12.14,0,0,1,2-5.19c-.33-.1-.69-.18-1-.29a6.84,6.84,0,0,1-1.34,4.4l.94.54c.51-.94,1-1.89,1.49-2.87a2.38,2.38,0,0,0,.47-1.52c-.25-1.27-1.67-1.2-2.65-.95a.54.54,0,0,0-.14,1,1.46,1.46,0,0,0,2-.14c-.29-.18-.61-.36-.9-.55-.8,2.22-1.57,4.47-2.26,6.76l1.06.29a24,24,0,0,0,.29-7c-.07-.62-1.16-.62-1.09.07Z"/></g><g id="torso-2" data-name="torso"><path class="cls-1" d="M144.06,68.8A243.51,243.51,0,0,1,150.23,107a246.3,246.3,0,0,1-5.15,73.83,49.52,49.52,0,0,0,47.84-3.52c-1-15.68-2.69-32.38-5.16-49.91-3.3-23.37-7.62-45-12.37-64.57a25,25,0,0,0-18.55-2.47A24.67,24.67,0,0,0,144.06,68.8Z"/><path class="cls-3" d="M154,57.23a9.4,9.4,0,0,0-2.28.4,10.56,10.56,0,0,0-4.76,3.3,75.12,75.12,0,0,1-7.44,6.82,204.6,204.6,0,0,0-1.85,30.13c0,2.79.22,7.66.22,15.28,0,4.9,0,10.31-.22,15.06-.4,9.22-1.63,16.12-4.14,29.51-1.12,6-2.72,14.12-4.93,23.74a64.32,64.32,0,0,0,9.9,4.54c4.87,1.7,9.3,3.23,14.85,2.46a23.37,23.37,0,0,0,4.32-1c.69-3.71,1.63-9.26,2.47-16.08,2.68-21.78,2.14-38.95,1.63-52-.25-6.82-.62-16.11-2.07-28.45A306.87,306.87,0,0,0,154,57.23Z"/><path class="cls-3" d="M164.68,59.51a18.15,18.15,0,0,1,4.54,4.14c3.59,4.72,3.66,10.16,3.7,12.38.29,11.5,3.16,22.79,4.14,34.23.61,7.15.29,2.54,2.28,24.35,1.75,18.87,2.07,23.27,2.29,26,.51,6.68,1,15,1.45,24.75a34.27,34.27,0,0,0,6.17,0c3-.25,5.92-.51,9.08-2.28a17.24,17.24,0,0,0,4.53-3.71c-.25-4.28-.76-11-1.63-19.16-1-9-2.9-23.92-11.76-65.59-1.49-7-3.56-16.66-6.17-28.27-4.14-2.4-7.29-4.47-9.47-6-2.51-1.74-4.68-3.38-6.83-2.69A4.13,4.13,0,0,0,164.68,59.51Z"/><path class="cls-13" d="M137.68,95.59c.4,2.47,1,6.43,1.63,11.36,2.79,22.58,1.49,34.63,2.9,60.83.26,4.58.69,11.44,1.46,19.82-1.93-.65-3.92-1.41-6-2.28a100,100,0,0,1-9.3-4.54c1.06-3.89,2.4-9.18,3.71-15.46a276.07,276.07,0,0,0,5.15-35.9A266.39,266.39,0,0,0,137.68,95.59Z"/><path class="cls-6" d="M165.3,60.13c-1.74.73,3.77,14.34,6.6,34.45a202.09,202.09,0,0,1,1.64,21.23c1.05,25.22.8,51.39.4,68.67l8.67-2.07c-.07-3-.18-7.44-.4-12.77-1.2-29-4-51.58-6.17-69.73-1-8.13-2.43-18.87-4.32-31.54C167.44,61.11,165.91,59.88,165.3,60.13Z"/><path class="cls-14" d="M178.91,68.15c.22,1.6.51,3.85.83,6.61.95,8.35,1.35,14.73,1.64,20,.4,7.22.58,12.81.61,14.33v.29c.44,16.23,2.62,76,1.75,76-.44,0-1.93-15.75-5.67-68,.08-3.77.15-7.55.22-11.36-.14-14.44-.11-24.54.33-27.66a7.61,7.61,0,0,0-.44-4.39c-.65-1.49-1.3-1.41-2-3a10.54,10.54,0,0,1-.62-4.61,20.45,20.45,0,0,0,.22-2.5,6.4,6.4,0,0,0-1.45-3.34c1.37.87,2.79,1.74,4.17,2.61C178.65,64.85,178.8,66.52,178.91,68.15Z"/><path class="cls-5" d="M154.77,58.53c-.72-3-5-.58-6.28.47-3.37,2.73-6.6,5.7-9.76,8.64-.51.48.25,1.24.76.77,2-1.93,4.1-3.78,6.24-5.63.84-.73,7.37-6.72,8-4,.14.69,1.16.4,1-.29Z"/><path class="cls-5" d="M137,96.72a284.37,284.37,0,0,1-1.06,43.77c-.07.69,1,.69,1.09,0a289.5,289.5,0,0,0,1.06-43.77c0-.69-1.13-.69-1.09,0Z"/><path class="cls-5" d="M153.32,56.79a7.5,7.5,0,0,0-5.12,7.95c.26,2.14,1.71,3.48,2.76,5.26,1.56,2.54,0,5.92-.07,8.75-.18,5.92,1.56,11.69,3.16,17.31,1.67,5.81,3.44,11.55,4.86,17.43a83.63,83.63,0,0,1,2.69,20.94.54.54,0,0,0,1.08,0c.19-14.34-4.61-27.95-8.42-41.6a57.25,57.25,0,0,1-2.21-11,24.73,24.73,0,0,1,.18-6c.22-1.41.8-2.83.55-4.28-.48-2.72-3.23-4.28-3.56-7a6.35,6.35,0,0,1,4.32-6.68c.76-.25.47-1.31-.22-1.09Z"/><path class="cls-5" d="M153.43,58.21c6.64,32.37,9.47,65.55,7.37,98.54-.62,9.47-1.6,18.91-3.05,28.31-.11.69.94,1,1.05.29a353,353,0,0,0,.4-99.74c-1.23-9.29-2.83-18.55-4.72-27.73-.14-.65-1.2-.36-1,.33Z"/><path class="cls-5" d="M165.88,58.32c1.49-1.17,4.46.43,5.77,1.34a10.37,10.37,0,0,1,3.77,4.72c.26.65,1.31.36,1.06-.29a12,12,0,0,0-4.94-5.77c-1.81-1.06-4.57-2.22-6.42-.77-.58.44.21,1.2.76.77Z"/><path class="cls-5" d="M164.68,60.6c7.41,3.89,7.51,14,8.46,21.24q1.63,12.41,3.05,24.89,2.77,24.95,4.68,50,1.08,14.26,1.85,28.6c0,.69,1.13.69,1.09,0q-2.84-52.42-9.69-104.5c-1-7.4-1.31-17.17-8.86-21.09-.65-.36-1.2.59-.58.91Z"/><path class="cls-5" d="M175.35,63.9c.4,2-.72,4-.25,6,.43,1.85,2.07,3.12,2.72,4.9.76,2.1.58,4.46.54,6.64,0,2.54-.07,5-.1,7.59q-.28,14.58-1.06,29.18c0,.69,1.06.69,1.09,0,.55-10,.91-19.93,1.09-29.91,0-2.4.07-4.79.11-7.22a20.72,20.72,0,0,0-.44-6c-.5-1.78-1.77-2.94-2.57-4.57-1-2.14.36-4.58-.08-6.83-.14-.69-1.19-.39-1.05.29Z"/><path class="cls-5" d="M173.9,61.4a34.12,34.12,0,0,1,8.78,5.84c.51.48,1.27-.29.77-.76a34.72,34.72,0,0,0-9-6c-.65-.29-1.19.65-.54.94Z"/><path class="cls-5" d="M190.81,103.21a563.53,563.53,0,0,1,11.47,76.3c.08.69,1.16.69,1.09,0a562.12,562.12,0,0,0-11.5-76.59.55.55,0,0,0-1.06.29Z"/><path class="cls-5" d="M183.26,185.75c3.89,1.09,7.81.33,11.55-.94,3-1,6.49-2,8.42-4.68.4-.59-.55-1.13-.95-.55-1.81,2.54-5.55,3.49-8.38,4.39-3.38,1.09-6.86,1.67-10.35.73a.54.54,0,0,0-.29,1.05Z"/><path class="cls-5" d="M136.22,136.61c-2.06,14.62-4.79,29.18-8.16,43.55-.15.69.91,1,1.05.29,3.38-14.37,6.1-28.93,8.17-43.55.11-.69-.95-1-1.06-.29Z"/><path class="cls-5" d="M128.31,181.47a101.92,101.92,0,0,0,9.33,4.43,42.14,42.14,0,0,0,9.73,3.12,25.19,25.19,0,0,0,8.74-.26c2.51-.54,2.11-2.9,3.27-4.71.36-.59-.58-1.13-.94-.55a9.22,9.22,0,0,0-.91,2.43c-.62,1.93-2,1.82-3.67,2a24.2,24.2,0,0,1-8.85-.55,80.4,80.4,0,0,1-16.12-6.86c-.65-.32-1.2.62-.58.95Z"/></g><g id="arm_left-2" data-name="arm left"><path class="cls-3" d="M141.78,66.16A70.91,70.91,0,0,0,133,73.09,74.65,74.65,0,0,0,126.46,80c-6.31,7.3-9.55,11-13.1,16.77-4.1,6.57-6.14,9.87-6.93,14.92a36,36,0,0,0,1.08,14.37,52.92,52.92,0,0,0,3.82,10.2c1.66,3.56,4.46,7.69,10,15.86,4.83,7.12,6.75,9.62,10.38,11.83a23.54,23.54,0,0,0,5.3,2.36c.8-2.07,1.56-4.13,2.36-6.2a30,30,0,0,1,2.18,2.54c1.45,1.88,1.81,2.76,2.36,2.72.87,0,1.41-2.14,2-4.36,2.72-10.59,2.68-12.19,1.81-12.74-.62-.4-1.09.19-2.72,0a8,8,0,0,1-4.18-1.81c.8-2.4.44-3.85,0-4.72-.87-1.71-2.36-1.67-4.53-3.81-.47-.47-.69-.76-2.91-4.17-2.36-3.63-3.52-5.45-3.81-6a32.48,32.48,0,0,1-2.72-7.3,49.16,49.16,0,0,1,3.27-8.38A51.08,51.08,0,0,1,144.5,94.76a46.3,46.3,0,0,0-2.72-28.6Z"/><path class="cls-13" d="M140.33,67.43c-1.24,1.37-3,3.44-5.09,6C127.8,82.63,122.4,89.28,119,97.84a53.84,53.84,0,0,0-3.45,20c.26,17.31,8.71,29.43,12,34a65.77,65.77,0,0,0,10.92,11.84c-.47.83-1,1.7-1.45,2.54a50.62,50.62,0,0,1-6.39-4c-8.78-6.57-13-14.66-16.95-22.39-4.32-8.46-6.46-12.7-7.11-18.4-.87-7.84.58-17.32,5.3-23.12.36-.48.69-.8,1.81-2.18,4.5-5.48,7.41-9.69,8-10.56C124,82.42,128.89,77,140.33,67.43Z"/><path class="cls-5" d="M139.6,66.52a174.29,174.29,0,0,0-17.75,18.4c-5.08,6.13-10.34,12.63-13.57,20-3.31,7.48-3.13,15-.51,22.69a91.46,91.46,0,0,0,10.67,21.2,92.65,92.65,0,0,0,8.06,10.41c2.72,3,5.62,6,9.54,7.41.66.21,1-.84.29-1.06-3.74-1.34-6.49-4.21-9.07-7.11a98.14,98.14,0,0,1-7.19-9.18,94.72,94.72,0,0,1-10.56-20,38.49,38.49,0,0,1-2.76-12,27.25,27.25,0,0,1,2.47-11.72c3-7,8-13.14,12.78-19a172.56,172.56,0,0,1,18.4-19.16c.51-.47-.29-1.23-.8-.76Z"/><path class="cls-5" d="M143,95.92a43.91,43.91,0,0,0-16.62,24.75.54.54,0,0,0,1,.29,42.63,42.63,0,0,1,16.12-24.1c.58-.43,0-1.38-.55-.94Z"/><path class="cls-5" d="M125.37,118.13a45.73,45.73,0,0,0,15.21,24.43c.54.43,1.31-.33.76-.76a44.81,44.81,0,0,1-15-24c-.15-.69-1.2-.4-1,.29Z"/><path class="cls-5" d="M140.51,141.83a63.53,63.53,0,0,1-.66,12.34c-.29,1.89-.65,3.78-1.12,5.67-.22.87-.44,1.74-.69,2.61-.15.51-.69,3.23-1.31,3.34.22.07.4.18.62.25l-.11-.18c-.36-.58-1.31,0-.94.55,0,.07.07.1.11.18a.58.58,0,0,0,.61.25c1.35-.22,1.56-2.39,1.89-3.45a61.74,61.74,0,0,0,1.71-7.26,67.76,67.76,0,0,0,.94-14.3c0-.69-1.09-.72-1.05,0Z"/><path class="cls-5" d="M140.83,146.66a9.45,9.45,0,0,0,5.92,2.14.55.55,0,0,0,0-1.09,8.24,8.24,0,0,1-5.15-1.81c-.55-.44-1.31.32-.77.76Z"/><path class="cls-5" d="M139.31,161.32c1.16.15,1.78,1.53,2.4,2.4a4.58,4.58,0,0,0,2.28,2c.66.21.95-.84.29-1.06-1.2-.4-1.78-1.74-2.47-2.72a3.55,3.55,0,0,0-2.5-1.7c-.69-.08-.69,1,0,1.08Z"/><path class="cls-5" d="M146.06,143.94c1.78,4.14,1.13,8.64.29,12.88s-1.74,8-4.25,11.47c-.39.58.55,1.13,1,.55,2.76-3.89,3.74-8.35,4.57-13,.76-4.21,1.09-8.45-.65-12.48-.22-.62-1.16-.08-.91.58Z"/></g><g id="head-2" data-name="head"><path class="cls-3" d="M150.78,28.44a6.1,6.1,0,0,0-3.56.15c-.36.14-3,1.12-3.37,3.7a4.82,4.82,0,0,0,2.61,4.79,4.47,4.47,0,0,0,1.71.47,27,27,0,0,1,.76,3.71c.36,2.68,0,2.79.29,4.32a11.17,11.17,0,0,0,3.85,5.84c1.23.91,1.67.76,2.14,1.52.8,1.24.47,2.83,0,5.23a28.15,28.15,0,0,1-.76,2.94,7.79,7.79,0,0,0,4,2.61,8.3,8.3,0,0,0,4.79-.14c.62-2.51,1.23-5,1.85-7.55a19,19,0,0,0,5.41-2A15.51,15.51,0,0,0,174,51.42a14.67,14.67,0,0,0,3.56-6.64c2.29-7.77,1.31-13.36,2.32-19.6.08-.47.33-2.07.51-4.21.15-1.71.18-3.09.18-3.85A18.86,18.86,0,0,0,166,13.27c-7.26,1.31-11.11,6.83-12.13,8.28A21.13,21.13,0,0,0,150.78,28.44Z"/><path class="cls-11" d="M150.13,37.63a30.59,30.59,0,0,1-.15,3.95,31.61,31.61,0,0,1-.91,5A7.57,7.57,0,0,1,146,48.84a8.15,8.15,0,0,1-6.72-.65,60.58,60.58,0,0,0-.94-6.46c-1.2-6-2.76-9.29-3.3-11.36-1.06-3.92-.33-10.09,7.91-19.89-2.36-.08-2.9-.44-3-.8-.29-1.13,4.17-3.34,7.73-4.57,4.75-1.67,8.56-1.82,8.53-2.36s-4.25-.58-4.29-1.09,4.76-2,9.95-1.6a25.58,25.58,0,0,1,13.28,5.23c1.93,1.48,5.3,4.17,6.79,8.67.47,1.42,1.6,4.83-.14,7A4,4,0,0,1,180.36,22a5.8,5.8,0,0,0-.62-3.3,6.81,6.81,0,0,0-4.1-2.83,20.54,20.54,0,0,0-16.11,1.59c-.22.15,0,0-4.1,3.78-2.84,2.61-4.11,3.74-4.11,5.37,0,.87.4,1.52,0,1.89-.54.54-1.67-.44-3.15-.33a5,5,0,0,0-4.29,4.28c-.18,2.62,2.43,4.25,2.69,4.43A5.78,5.78,0,0,0,150.13,37.63Z"/><path class="cls-9" d="M162.18,16a43.41,43.41,0,0,0-3.05,6.24c-1.45,3.63-3.78,9.37-3.49,16.66a33.91,33.91,0,0,0,5.27,16.41c-.84,2.86-1.67,5.73-2.51,8.6-2.14-.44-3-1.24-3.34-2-.58-1.13,0-2.22.15-4.57a19.27,19.27,0,0,0-.15-4.32,30.67,30.67,0,0,1-4.72-5.16c-.5-.72-1-1.41-1.38-2.07a4.45,4.45,0,0,1-1.12,1.82,5.69,5.69,0,0,1-3.49,1.52,9.27,9.27,0,0,1-5.15-.69c-.14-1.67-.36-3.48-.69-5.41a61.08,61.08,0,0,0-2.07-8.2,4.41,4.41,0,0,0,8.1,1,4.9,4.9,0,0,1,.83-6.39,4.82,4.82,0,0,1,5.41-.4,13.18,13.18,0,0,1,.4-2.9C153.07,19.37,160.62,16.5,162.18,16Z"/><path class="cls-5" d="M179.45,21.69a115.65,115.65,0,0,1-.69,16c-.61,4.86-2,9.84-5.48,13.46a13.32,13.32,0,0,1-13.5,3.53,16.64,16.64,0,0,1-10.05-9c-.29-.61-1.24-.07-.95.55,4.21,8.64,15.39,13.68,23.67,7.15,4-3.16,6-8,7-12.92a92.51,92.51,0,0,0,1.12-18.73.55.55,0,1,0-1.09,0Z"/><path class="cls-5" d="M170.81,23.4c.33,2.68.77,5.33,1.31,8,.29,1.27,1,3,.84,4.32-.19,1.6-2,2.58-3.49,3.09-.65.25-.36,1.3.29,1.05,1.82-.65,4.61-2.18,4.39-4.46-.18-1.78-.87-3.6-1.19-5.34-.44-2.21-.8-4.43-1.06-6.68-.07-.65-1.16-.65-1.09,0Z"/><path class="cls-5" d="M165.91,26.23a12.28,12.28,0,0,1-.83,3.48c-.25.66.8.95,1,.29a14.76,14.76,0,0,0,.87-3.77c.08-.69-1-.69-1.09,0Z"/><path class="cls-5" d="M165.66,25.9a11.76,11.76,0,0,0-.73,4.18.55.55,0,0,0,1.09,0,11,11,0,0,1,.69-3.89c.26-.69-.8-.94-1.05-.29Z"/><path class="cls-5" d="M162.47,22.89a4,4,0,0,1,5.51,0c.51.48,1.27-.29.77-.76a5.17,5.17,0,0,0-7.08,0c-.47.47.29,1.23.8.76Z"/><path class="cls-5" d="M174.23,22.75a2.58,2.58,0,0,1,3.77.94c.33.62,1.27.07.94-.55A3.68,3.68,0,0,0,173.46,22c-.58.4.22,1.16.77.77Z"/><path class="cls-5" d="M171.79,43.47a4.74,4.74,0,0,1-6.93-2.29c-.25-.65-1.3-.36-1.05.29a5.83,5.83,0,0,0,8.53,2.91c.62-.33,0-1.27-.55-.91Z"/><path class="cls-5" d="M151.29,28.77c-2.54-3.3-7.41.07-8.06,3.27a4.89,4.89,0,0,0,7,5.41c.62-.33.07-1.28-.54-1-3.12,1.63-6.25-1.45-5.3-4.68.65-2.29,4.21-4.72,6.1-2.29.43.55,1.19-.22.76-.76Z"/><path class="cls-5" d="M176.59,27.14a12.73,12.73,0,0,1-.84,3.48c-.25.65.8.95,1.05.29a14.44,14.44,0,0,0,.87-3.77c.08-.69-1-.69-1.08,0Z"/><path class="cls-5" d="M176.33,26.77a11.75,11.75,0,0,0-.72,4.18.54.54,0,0,0,1.08,0,11,11,0,0,1,.69-3.89c.22-.65-.83-.94-1-.29Z"/><path class="cls-5" d="M165.59,55.38a23.67,23.67,0,0,0-1.93,6.06c-.1.69,1,1,1.06.29a21.33,21.33,0,0,1,1.81-5.81c.29-.62-.65-1.16-.94-.54Z"/><path class="cls-5" d="M155.13,53.78a20,20,0,0,1-.43,4.43,6.76,6.76,0,0,0-.51,2.65c.29,1.41,2,2.57,3.23,3.08,2.29,1,7,.87,7.3-2.36.07-.69-1-.69-1.09,0-.15,1.45-2.43,1.85-3.56,1.82a5.94,5.94,0,0,1-3.81-1.49c-1.42-1.31-.58-2.83-.29-4.43a21.13,21.13,0,0,0,.29-3.74c-.07-.69-1.16-.69-1.13,0Z"/><path class="cls-5" d="M157.93,55.08A26.23,26.23,0,0,0,164.79,58a.54.54,0,0,0,.29-1.05,25.24,25.24,0,0,1-6.61-2.8c-.58-.36-1.12.58-.54.94Z"/><path class="cls-5" d="M162.61,56.65a12.46,12.46,0,0,0,2.54.58c.69.11,1-.95.29-1.06a14.83,14.83,0,0,1-2.54-.58.55.55,0,0,0-.29,1.06Z"/></g><g id="girl_hand" data-name="girl hand"><path class="cls-3" d="M217.42,131.56c-.8.36-.8,1.6-.84,3.16,0,1.41-.07,2.83.84,3.37a2.18,2.18,0,0,0,1.81,0,2.71,2.71,0,0,0,1.06,1.82,2.79,2.79,0,0,0,2.54.22,4.53,4.53,0,0,0,1.7,1.7,4.25,4.25,0,0,0,3.49.44c1.09-.4,2.28-1.45,2.1-2.22s-2-.39-3.05-1.7-.25-2.83-1.27-3.59a2.68,2.68,0,0,0-2.32-.11,2.23,2.23,0,0,0-1.71-2.33,1.81,1.81,0,0,0-1.48.55C219.34,131.78,218.18,131.23,217.42,131.56Z"/><path class="cls-5" d="M218.11,137.44c-1.34.44-1.24-4.5-.73-5.08l1.82-.11a2,2,0,0,1,.25,1,6.32,6.32,0,0,1,0,1.23c0,.55,0,1.09-.07,1.63,0,.19,0,.37,0,.55a1,1,0,0,1-.72,1,.55.55,0,0,0-1.06.29A1.28,1.28,0,0,0,219,139a1.72,1.72,0,0,0,1.34-1.57,15.32,15.32,0,0,0,.18-4.28,3,3,0,0,0-1.42-2.47c-2.25-1.12-2.86,1.49-3,3.13-.19,1.37-.08,5.44,2.32,4.64.65-.14.36-1.2-.29-1Z"/><path class="cls-5" d="M220.87,139.73a14.66,14.66,0,0,1-.69-4.36,3.55,3.55,0,0,1,.18-1.74c1.23-.83,2-.62,2.21.62a7.26,7.26,0,0,1,.18,1.3c.08.69,1.17.69,1.09,0a4.46,4.46,0,0,0-1.3-3.3,2,2,0,0,0-2.51-.07c-2,1.6-.83,5.88-.25,7.84.25.69,1.3.4,1.09-.29Z"/><path class="cls-5" d="M219.63,140.09a3.62,3.62,0,0,0,3.49.8.5.5,0,0,0,.36-.65,7.25,7.25,0,0,1-.29-2.36c0-.55.18-2.14.65-2.54,1.24-1,2.54,2.61,2.91,3.3s1.27.07.94-.55c-.62-1.19-2-5.08-4.06-4s-1.67,4.75-1.24,6.46c.11-.22.26-.44.36-.66a2.46,2.46,0,0,1-2.43-.51.5.5,0,1,0-.69.73Z"/><path class="cls-5" d="M226.57,142.2a4.33,4.33,0,0,1-1.6-.73c-.91-.8-.22-1.89.8-2.21a3.94,3.94,0,0,1,3.84.94c.51.47,1.27-.29.77-.76-1.64-1.53-4.65-2.14-6.36-.37-1.88,2,.48,3.67,2.26,4.21.65.15.94-.9.29-1.08Z"/><path class="cls-5" d="M225.4,142.49c1.6,1.45,3.85.54,5-1,1.6-2.18-1.7-3.56-3.3-4.21-.65-.25-1.2.65-.54.94s3.55,1.35,3.08,2.51-2.47,1.92-3.45,1a.54.54,0,1,0-.8.73Z"/></g></g></svg>