<?xml version="1.0" encoding="utf-8"?>
<!-- Generator: Adobe Illustrator 24.1.2, SVG Export Plug-In . SVG Version: 6.00 Build 0)  -->
<svg version="1.1" id="Слой_1" xmlns="http://www.w3.org/2000/svg" xmlns:xlink="http://www.w3.org/1999/xlink" x="0px" y="0px"
	 viewBox="0 0 330 330" style="enable-background:new 0 0 330 330;" xml:space="preserve">
<style type="text/css">
	.st0{opacity:0.1;fill:url(#SVGID_1_);enable-background:new    ;}
	.st1{opacity:0.3;}
	.st2{fill:#91B3FA;}
	.st3{fill:#BDD0FB;}
	.st4{fill:url(#SVGID_2_);}
	.st5{fill:url(#SVGID_3_);}
	.st6{opacity:0.32;fill:#91B3FA;enable-background:new    ;}
	.st7{fill:url(#SVGID_4_);}
	.st8{fill:#FFFFFF;}
	.st9{fill:url(#SVGID_5_);}
	.st10{fill:url(#SVGID_6_);}
	.st11{fill:#7D97F4;}
	.st12{fill:url(#SVGID_7_);}
	.st13{fill:url(#SVGID_8_);}
	.st14{fill:url(#SVGID_9_);}
	.st15{fill:url(#SVGID_10_);}
	.st16{fill:url(#SVGID_11_);}
	.st17{fill:url(#SVGID_12_);}
	.st18{fill:url(#SVGID_13_);}
	.st19{fill:url(#SVGID_14_);}
	.st20{fill:url(#SVGID_15_);}
	.st21{fill:url(#SVGID_16_);}
	.st22{fill:url(#SVGID_17_);}
	.st23{fill:url(#SVGID_18_);}
	.st24{fill:url(#SVGID_19_);}
	.st25{fill:url(#SVGID_20_);}
	.st26{fill:url(#SVGID_21_);}
	.st27{fill:url(#SVGID_22_);}
	.st28{fill:url(#SVGID_23_);}
	.st29{fill:url(#SVGID_24_);}
	.st30{fill:url(#SVGID_25_);}
	.st31{fill:url(#SVGID_26_);}
	.st32{fill:url(#SVGID_27_);}
	.st33{fill:url(#SVGID_28_);}
	.st34{fill:url(#SVGID_29_);}
</style>
<g>
	
		<linearGradient id="SVGID_1_" gradientUnits="userSpaceOnUse" x1="368.1094" y1="-85.5298" x2="81.5723" y2="270.3313" gradientTransform="matrix(1 0 0 -1 0 332)">
		<stop  offset="0" style="stop-color:#20C3D0"/>
		<stop  offset="0.3016" style="stop-color:#1EC0D0"/>
		<stop  offset="0.5347" style="stop-color:#19B6CF"/>
		<stop  offset="0.7449" style="stop-color:#11A6CD"/>
		<stop  offset="0.9405" style="stop-color:#058FCA"/>
		<stop  offset="1" style="stop-color:#0086C9"/>
	</linearGradient>
	<path class="st0" d="M291.3,275.8c-6.7,6.9-13,11.3-18,14.8c-58.8,41-128.4,29.1-143.2,26.2c-21.8-4.3-64.1-12.7-94.6-47.6
		c-46.2-52.8-39-136-3.2-190.9c6.6-10,41.2-65.8,111.5-74.7C186.4-1.9,236.1,9,272,38.2C347.4,99.7,342.1,223.8,291.3,275.8z"/>
	<g>
		<g>
			<g class="st1">
				<path class="st2" d="M248.1,79.5c-0.8,0-1.5-0.7-1.4-1.5c0.1-1.6,0.1-3.2,0-4.8c0-0.8,0.6-1.5,1.4-1.6l0,0
					c0.8,0,1.5,0.6,1.6,1.4c0.1,1.7,0.1,3.4,0,5.1c0,0.8-0.6,1.4-1.4,1.4C248.2,79.5,248.1,79.5,248.1,79.5z M245.8,65.3
					c-0.3-1.6-0.6-3.2-1.1-4.7c-0.2-0.8,0.3-1.6,1-1.8c0.8-0.2,1.6,0.3,1.8,1c0.4,1.6,0.8,3.3,1.1,5c0.1,0.8-0.4,1.6-1.2,1.7
					c-0.1,0-0.1,0-0.2,0C246.6,66.6,245.9,66.1,245.8,65.3z M242.1,53.2c-0.6-1.5-1.3-2.9-2.1-4.3c-0.4-0.7-0.1-1.6,0.6-2
					c0.7-0.4,1.6-0.1,2,0.6c0.8,1.5,1.5,3,2.2,4.6c0.3,0.8,0,1.6-0.8,2c-0.2,0.1-0.3,0.1-0.5,0.1C243,54.2,242.4,53.8,242.1,53.2z
					 M235.9,42.3c-0.9-1.3-2-2.6-3-3.8c-0.5-0.6-0.5-1.6,0.1-2.1s1.6-0.5,2.1,0.1c1.1,1.3,2.2,2.6,3.2,4c0.5,0.7,0.3,1.6-0.3,2.1
					c-0.2,0.2-0.5,0.3-0.8,0.3C236.7,42.9,236.2,42.7,235.9,42.3z M227.3,32.9c-1.2-1-2.5-2.1-3.8-3c-0.7-0.5-0.8-1.4-0.3-2.1
					s1.4-0.8,2.1-0.3c1.4,1,2.7,2.1,4,3.2c0.6,0.5,0.7,1.5,0.1,2.1c-0.3,0.3-0.6,0.5-1,0.5C228,33.3,227.6,33.2,227.3,32.9z
					 M216.9,25.8c-1.4-0.8-2.9-1.5-4.3-2.1c-0.8-0.3-1.1-1.2-0.8-2s1.2-1.1,2-0.8c1.5,0.7,3.1,1.4,4.6,2.2c0.7,0.4,1,1.3,0.6,2
					c-0.3,0.5-0.7,0.8-1.2,0.8C217.4,26,217.2,25.9,216.9,25.8z M161.6,25.1c-0.4-0.7-0.1-1.6,0.6-2c1.5-0.8,3-1.5,4.6-2.2
					c0.8-0.3,1.6,0,2,0.8c0.3,0.8,0,1.6-0.8,2c-1.5,0.6-2.9,1.3-4.4,2.1c-0.2,0.1-0.4,0.2-0.6,0.2C162.4,25.9,161.9,25.6,161.6,25.1
					z M205.2,21.1c-1.5-0.4-3.1-0.8-4.7-1.1c-0.8-0.1-1.3-0.9-1.2-1.7c0.1-0.8,0.9-1.3,1.7-1.2c1.7,0.3,3.3,0.7,4.9,1.1
					c0.8,0.2,1.3,1,1,1.8c-0.2,0.6-0.7,1.1-1.3,1.1C205.5,21.1,205.3,21.1,205.2,21.1z M173.5,20c-0.2-0.8,0.3-1.6,1-1.8
					c1.6-0.4,3.3-0.8,5-1.1c0.8-0.2,1.6,0.4,1.7,1.2c0.1,0.8-0.4,1.6-1.2,1.7c-1.6,0.3-3.2,0.6-4.7,1.1c-0.1,0-0.2,0-0.3,0
					C174.4,21.1,173.7,20.7,173.5,20z M192.7,19.1c-1.6-0.1-3.2-0.1-4.8,0c-0.8,0-1.5-0.6-1.6-1.4c0-0.8,0.6-1.5,1.4-1.5l0,0
					c1.7-0.1,3.4-0.1,5.1,0c0.8,0,1.5,0.7,1.4,1.6c0,0.8-0.6,1.4-1.4,1.4C192.8,19.1,192.7,19.1,192.7,19.1z"/>
				<path class="st2" d="M154.3,31.6c0.3,0,0.6-0.1,0.8-0.3c0.6-0.5,1.2-1,1.8-1.4c0.7-0.5,0.8-1.4,0.3-2.1s-1.4-0.8-2.1-0.3
					c-0.7,0.5-1.3,1-1.9,1.5c-0.6,0.5-0.8,1.4-0.2,2.1C153.3,31.4,153.8,31.6,154.3,31.6z"/>
			</g>
			<g class="st1">
				<path class="st2" d="M132.5,71.5c0.7,0,1.3-0.6,1.4-1.3c0.1-0.8,0.2-1.5,0.3-2.3s-0.5-1.6-1.3-1.7s-1.6,0.5-1.7,1.3
					c-0.1,0.8-0.2,1.6-0.3,2.4s0.5,1.5,1.3,1.6C132.4,71.5,132.5,71.5,132.5,71.5z"/>
				<path class="st2" d="M191,135.1c-0.8,0-1.5-0.6-1.5-1.5c0-0.8,0.6-1.5,1.5-1.5c1.6,0,3.2-0.1,4.7-0.3c0.8-0.1,1.5,0.5,1.6,1.3
					s-0.5,1.5-1.3,1.6c-0.7,0.1-1.4,0.1-2.1,0.2C192.9,135,191.9,135,191,135.1z M202.2,132.3c-0.2-0.8,0.3-1.6,1.1-1.8
					c1.5-0.4,3.1-0.8,4.6-1.3c0.8-0.3,1.6,0.2,1.9,1c0.3,0.8-0.2,1.6-1,1.9c-1.6,0.5-3.2,1-4.8,1.4c-0.1,0-0.2,0-0.3,0
					C203,133.5,202.3,133.1,202.2,132.3z M182.9,134.6c-1.6-0.2-3.3-0.5-4.9-0.8c-0.8-0.2-1.3-1-1.2-1.8c0.2-0.8,1-1.3,1.8-1.2
					c1.5,0.3,3.1,0.6,4.7,0.8c0.8,0.1,1.4,0.8,1.3,1.7c-0.1,0.7-0.7,1.3-1.4,1.3C183.1,134.6,183,134.6,182.9,134.6z M214.3,128.4
					c-0.4-0.7-0.1-1.6,0.7-2c1.4-0.7,2.8-1.5,4.2-2.3c0.7-0.4,1.6-0.2,2,0.5s0.2,1.6-0.5,2c-1.4,0.9-2.9,1.7-4.4,2.4
					c-0.2,0.1-0.4,0.1-0.6,0.1C215.2,129.2,214.6,128.9,214.3,128.4z M170.1,131.6c-1.6-0.6-3.1-1.2-4.6-1.9c-0.7-0.3-1.1-1.2-0.7-2
					c0.3-0.7,1.2-1.1,2-0.7c1.4,0.7,2.9,1.3,4.4,1.8c0.8,0.3,1.2,1.1,0.9,1.9c-0.2,0.6-0.7,0.9-1.3,1
					C170.5,131.7,170.3,131.7,170.1,131.6z M158.4,125.8c-1.4-0.9-2.8-1.8-4.1-2.8c-0.7-0.5-0.8-1.4-0.3-2.1s1.4-0.8,2.1-0.3
					c1.3,1,2.6,1.9,3.9,2.7c0.7,0.4,0.9,1.4,0.5,2.1c-0.3,0.4-0.7,0.7-1.2,0.7C159,126.1,158.6,126,158.4,125.8z M148.1,117.7
					c-1.2-1.2-2.3-2.4-3.4-3.7c-0.5-0.6-0.5-1.6,0.2-2.1c0.6-0.5,1.6-0.5,2.1,0.2c1,1.2,2.1,2.4,3.2,3.5c0.6,0.6,0.6,1.5,0,2.1
					c-0.3,0.3-0.6,0.4-1,0.4C148.9,118.1,148.5,118,148.1,117.7z M139.9,107.4c-0.9-1.4-1.7-2.9-2.5-4.3c-0.4-0.7-0.1-1.6,0.6-2
					c0.7-0.4,1.6-0.1,2,0.6c0.7,1.4,1.5,2.8,2.4,4.1c0.4,0.7,0.2,1.6-0.5,2.1c-0.2,0.1-0.5,0.2-0.7,0.2
					C140.8,108.2,140.2,107.9,139.9,107.4z M134.2,95.7c-0.6-1.6-1.1-3.2-1.5-4.8c-0.2-0.8,0.3-1.6,1.1-1.8c0.8-0.2,1.6,0.3,1.8,1.1
					c0.4,1.5,0.9,3,1.4,4.5c0.3,0.8-0.1,1.6-0.9,1.9c-0.1,0-0.3,0.1-0.4,0.1C135,96.7,134.4,96.3,134.2,95.7z M131.2,82.9
					c-0.2-1.2-0.3-2.4-0.3-3.7c0-0.4-0.1-0.9-0.1-1.3c0-0.8,0.6-1.5,1.4-1.5c0.8,0,1.5,0.6,1.6,1.4c0,0.4,0,0.8,0.1,1.3
					c0.1,1.2,0.2,2.3,0.3,3.5c0.1,0.8-0.5,1.6-1.3,1.7h-0.1C131.9,84.3,131.3,83.7,131.2,82.9z"/>
				<path class="st2" d="M226.6,122.3c0.3,0,0.6-0.1,0.8-0.3c0.6-0.5,1.3-1,1.9-1.6c0.6-0.5,0.7-1.5,0.1-2.1
					c-0.5-0.6-1.5-0.7-2.1-0.1c-0.6,0.5-1.2,1-1.8,1.5s-0.7,1.5-0.2,2.1C225.6,122.2,226.1,122.4,226.6,122.3z"/>
			</g>
			<g>
				<path class="st2" d="M229.4,96.9c0.2-0.2,0.2-0.6,0-0.8l-4.9-6.9c1.5-3.7,2.4-7.6,2.7-11.6l7.4-4c0.3-0.1,0.4-0.4,0.4-0.7
					l-1.7-10c0-0.3-0.3-0.5-0.6-0.6l-8.3-1.4c-1.6-3.8-3.7-7.2-6.3-10.1l2.4-8.1c0.1-0.3,0-0.6-0.3-0.8l-8.3-5.9
					c-0.2-0.2-0.6-0.2-0.8,0l-6.9,4.9c-3.7-1.5-7.6-2.4-11.6-2.7l-4-7.4c-0.1-0.3-0.4-0.4-0.7-0.4l-10,1.7c-0.3,0-0.5,0.3-0.6,0.6
					l-1.4,8.3c-3.8,1.6-7.2,3.7-10.1,6.3l-8.1-2.4c-0.3-0.1-0.6,0-0.8,0.3l-5.9,8.3c-0.2,0.2-0.2,0.6,0,0.8l4.9,6.9
					c-1.5,3.7-2.4,7.6-2.7,11.6l-7.4,4c-0.3,0.1-0.4,0.4-0.4,0.7l1.7,10c0,0.3,0.3,0.5,0.6,0.6l8.3,1.4c1.6,3.8,3.7,7.2,6.3,10.1
					l-2.4,8.1c-0.1,0.3,0,0.6,0.3,0.8l8.3,5.9c0.2,0.2,0.6,0.2,0.8,0l6.9-4.9c3.7,1.5,7.6,2.4,11.6,2.7l4,7.4
					c0.1,0.3,0.4,0.4,0.7,0.4l10-1.7c0.3,0,0.5-0.3,0.6-0.6l1.4-8.3c3.8-1.6,7.2-3.7,10.1-6.3l8.1,2.4c0.3,0.1,0.6,0,0.8-0.3
					L229.4,96.9z"/>
				<g>
					<path class="st3" d="M189.3,85.3c-5.6-0.5-9.8-5.4-9.3-11c0.2-2.7,1.5-5.2,3.6-7s4.7-2.6,7.4-2.4c5.6,0.5,9.8,5.4,9.3,11
						c-0.4,5.1-4.6,9-9.5,9.3C190.3,85.3,189.8,85.3,189.3,85.3z M185.1,69.1c-1.6,1.4-2.6,3.2-2.7,5.3c-0.4,4.3,2.9,8.1,7.2,8.5
						s8.1-2.9,8.5-7.2c0.4-4.3-2.9-8.1-7.2-8.5c-0.4,0-0.8,0-1.2,0C187.9,67.4,186.4,68,185.1,69.1z"/>
				</g>
				<path class="st3" d="M191.5,100c0.9-0.1,1.7-0.2,2.6-0.3l0,0c0.3,0,0.5-0.1,0.8-0.1c1.3-0.3,2.6-0.6,3.9-1.1c0,0,0,0,0.1,0
					c0,0,0.1,0,0.1-0.1c0.1,0,0.2-0.1,0.3-0.1c0.2-0.1,0.4-0.3,0.4-0.6c0-0.1,0-0.1,0-0.2c-0.1-0.3-0.5-0.5-0.8-0.3
					c-1.6,0.6-3.2,1.1-4.9,1.4c-8.4,1.4-16.5-1.8-21.7-7.6c-2.9-3.3-5-7.4-5.8-12c-0.1-0.8-0.2-1.6-0.3-2.4
					c-0.3-5.5,1.2-10.9,4.4-15.4c3.7-5.2,9.2-8.6,15.5-9.7c13-2.2,25.4,6.7,27.5,19.7c0.1,0.8,0.2,1.6,0.3,2.4
					c0.2,3.5-0.3,7-1.6,10.3c0,0.1,0,0.2,0,0.3c0,0.2,0.2,0.4,0.4,0.5c0.3,0.1,0.7,0,0.8-0.3c1.4-3.4,1.9-7.1,1.7-10.8
					c-0.1-0.8-0.2-1.7-0.3-2.5c-2.3-13.7-15.2-22.9-28.9-20.7c-6.6,1.1-12.4,4.7-16.3,10.2c-3.4,4.8-5,10.4-4.6,16.2
					c0.1,0.9,0.2,1.7,0.3,2.6c1.1,6.6,4.7,12.4,10.2,16.3C180.1,98.8,185.7,100.4,191.5,100z"/>
			</g>
		</g>
		<g>
			<g class="st1">
				<path class="st2" d="M301.5,115.5c0.4,0,0.7-0.3,0.8-0.7c0.2-0.8,0.3-1.5,0.4-2.3c0.1-0.5-0.3-1-0.8-1.1s-1,0.3-1.1,0.8
					c-0.1,0.7-0.3,1.5-0.4,2.2c-0.1,0.5,0.2,1,0.7,1.1C301.3,115.5,301.4,115.5,301.5,115.5z"/>
				<path class="st2" d="M302.3,108.4c-0.5,0-0.9-0.4-0.9-1c0-1.3,0-2.6,0-3.9c0-0.3,0-0.5-0.1-0.8c0-0.5,0.3-1,0.8-1s1,0.3,1,0.8
					c0,0.3,0,0.6,0.1,0.8c0.1,1.3,0.1,2.7,0.1,4C303.2,108,302.8,108.4,302.3,108.4C302.4,108.4,302.3,108.4,302.3,108.4z
					 M300.6,98.2c-0.3-1.5-0.7-3-1.2-4.5c-0.2-0.5,0.1-1,0.6-1.2s1,0.1,1.2,0.6c0.5,1.5,1,3.1,1.3,4.7c0.1,0.5-0.2,1-0.7,1.1h-0.1
					C301.1,99,300.7,98.6,300.6,98.2z M297.6,89.4c-0.7-1.4-1.5-2.8-2.3-4.1c-0.3-0.4-0.2-1,0.3-1.3c0.4-0.3,1-0.2,1.3,0.3
					c0.9,1.4,1.7,2.8,2.4,4.3c0.2,0.5,0,1-0.4,1.2c-0.1,0.1-0.2,0.1-0.3,0.1C298.1,89.9,297.8,89.7,297.6,89.4z M292.5,81.6
					c-1-1.2-2.1-2.3-3.2-3.4c-0.4-0.3-0.4-0.9-0.1-1.3s0.9-0.4,1.3-0.1c1.2,1.1,2.3,2.3,3.4,3.5c0.3,0.4,0.3,1-0.1,1.3
					c-0.2,0.1-0.3,0.2-0.5,0.2C293,81.9,292.7,81.8,292.5,81.6z M285.7,75.2c-1.3-0.9-2.6-1.7-4-2.5c-0.4-0.2-0.6-0.8-0.4-1.2
					c0.2-0.4,0.8-0.6,1.2-0.4c1.4,0.8,2.8,1.7,4.1,2.6c0.4,0.3,0.5,0.9,0.2,1.3c-0.2,0.2-0.4,0.4-0.7,0.4
					C286,75.4,285.8,75.4,285.7,75.2z M277.5,70.7c-1.4-0.6-2.9-1.1-4.4-1.4c-0.5-0.1-0.8-0.6-0.7-1.1c0.1-0.5,0.6-0.8,1.1-0.7
					c1.6,0.4,3.1,0.9,4.7,1.5c0.5,0.2,0.7,0.7,0.5,1.2c-0.1,0.3-0.5,0.6-0.8,0.6C277.7,70.8,277.6,70.8,277.5,70.7z M268.5,68.4
					c-1.5-0.2-3.1-0.3-4.7-0.3c-0.5,0-0.9-0.4-0.9-0.9s0.4-0.9,0.9-0.9c1.6,0,3.3,0.1,4.9,0.3c0.5,0.1,0.9,0.5,0.8,1
					C269.4,68,269.1,68.4,268.5,68.4C268.6,68.4,268.5,68.4,268.5,68.4z M253.4,68.5c-0.1-0.5,0.2-1,0.7-1.1
					c1.4-0.3,2.8-0.6,4.2-0.8c0.2,0,0.4-0.1,0.6-0.1c0.5-0.1,1,0.3,1,0.8c0.1,0.5-0.3,1-0.8,1c-0.2,0-0.4,0-0.6,0.1
					c-1.3,0.2-2.7,0.4-4,0.7c-0.1,0-0.1,0-0.2,0C253.9,69.2,253.5,68.9,253.4,68.5z"/>
			</g>
			<g class="st1">
				<path class="st2" d="M265.5,145.7c-1.6,0.1-3.2,0.1-4.8,0c-0.5,0-0.9-0.5-0.9-1s0.5-0.9,1-0.9c1.5,0.1,3.1,0.1,4.6,0
					c0.5,0,0.9,0.4,1,0.9C266.4,145.2,266,145.6,265.5,145.7L265.5,145.7z M269.2,144.4c-0.1-0.5,0.2-1,0.8-1.1
					c1.5-0.3,3-0.6,4.5-1.1c0.5-0.1,1,0.1,1.1,0.6s-0.1,1-0.6,1.1c-1.5,0.5-3.1,0.8-4.7,1.1h-0.1
					C269.7,145.2,269.3,144.9,269.2,144.4z M255.9,145c-1.6-0.3-3.1-0.7-4.7-1.2c-0.5-0.2-0.7-0.7-0.6-1.2c0.2-0.5,0.7-0.7,1.2-0.6
					c1.4,0.5,2.9,0.9,4.4,1.2c0.5,0.1,0.8,0.6,0.7,1.1c-0.1,0.4-0.4,0.7-0.8,0.7C256.1,145,256,145,255.9,145z M278.3,141.9
					c-0.2-0.5,0-1,0.5-1.2c1.4-0.6,2.8-1.3,4.1-2.1c0.4-0.3,1-0.1,1.3,0.3c0.3,0.4,0.1,1-0.3,1.3c-1.4,0.8-2.8,1.6-4.3,2.2
					c-0.1,0-0.2,0.1-0.3,0.1C278.8,142.5,278.5,142.3,278.3,141.9z M246.8,142c-1.5-0.7-2.9-1.4-4.2-2.3c-0.4-0.3-0.6-0.8-0.3-1.3
					c0.3-0.4,0.8-0.6,1.3-0.3c1.3,0.8,2.7,1.5,4,2.2c0.5,0.2,0.7,0.8,0.4,1.2c-0.1,0.3-0.5,0.5-0.8,0.5
					C247.1,142.1,246.9,142.1,246.8,142z M238.6,136.9c-1.2-1-2.4-2.1-3.6-3.2c-0.4-0.4-0.3-0.9,0-1.3c0.4-0.4,0.9-0.3,1.3,0
					c1.1,1.1,2.2,2.1,3.4,3.1c0.4,0.3,0.5,0.9,0.1,1.3c-0.2,0.2-0.4,0.3-0.7,0.3C239,137.1,238.8,137.1,238.6,136.9z M231.9,130
					c-1-1.3-1.9-2.6-2.7-4c-0.3-0.4-0.1-1,0.3-1.3c0.4-0.3,1-0.1,1.3,0.3c0.8,1.3,1.6,2.6,2.6,3.8c0.3,0.4,0.2,1-0.2,1.3
					c-0.1,0.1-0.3,0.2-0.5,0.2C232.4,130.4,232.1,130.3,231.9,130z"/>
				<path class="st2" d="M287.3,137.6c0.2,0,0.4-0.1,0.5-0.2c0.6-0.5,1.2-1,1.8-1.5c0.4-0.3,0.4-0.9,0.1-1.3
					c-0.3-0.4-0.9-0.4-1.3-0.1c-0.6,0.5-1.1,1-1.7,1.4c-0.4,0.3-0.5,0.9-0.2,1.3C286.7,137.5,287,137.7,287.3,137.6z"/>
			</g>
			<g>
				<path class="st2" d="M289.8,120.3c0.1-0.2,0.1-0.4,0-0.5l-3.3-4.6c1-2.4,1.6-5.1,1.8-7.8l5-2.7c0.2-0.1,0.3-0.3,0.2-0.5
					l-1.1-6.7c0-0.2-0.2-0.4-0.4-0.4l-5.6-0.9c-1-2.5-2.5-4.8-4.2-6.8l1.6-5.4c0.1-0.2,0-0.4-0.2-0.5l-5.5-4c-0.2-0.1-0.4-0.1-0.5,0
					l-4.6,3.3c-2.4-1-5.1-1.6-7.8-1.8l-2.7-5c-0.1-0.2-0.3-0.3-0.5-0.2l-6.7,1.1c-0.2,0-0.3,0.2-0.4,0.4l-0.9,5.6
					c-2.5,1-4.8,2.5-6.8,4.2l-5.4-1.6c-0.2-0.1-0.4,0-0.5,0.2l-4,5.5c-0.1,0.2-0.1,0.4,0,0.5l3.3,4.6c-1,2.4-1.6,5.1-1.8,7.8l-5,2.7
					c-0.2,0.1-0.3,0.3-0.2,0.5l1.1,6.7c0,0.2,0.2,0.3,0.4,0.4l5.6,0.9c1,2.5,2.5,4.8,4.2,6.8l-1.6,5.4c-0.1,0.2,0,0.4,0.2,0.5l5.5,4
					c0.2,0.1,0.4,0.1,0.5,0l4.6-3.3c2.4,1,5.1,1.6,7.8,1.8l2.7,5c0.1,0.2,0.3,0.3,0.5,0.2l6.7-1.1c0.2,0,0.3-0.2,0.4-0.4l0.9-5.6
					c2.5-1,4.8-2.5,6.8-4.2l5.4,1.6c0.2,0.1,0.4,0,0.5-0.2L289.8,120.3z"/>
				<g>
					<path class="st3" d="M262.9,112.6c-1.9-0.2-3.5-1-4.7-2.4s-1.8-3.2-1.6-5.1c0.3-3.8,3.7-6.7,7.5-6.4c3.8,0.3,6.7,3.7,6.4,7.5
						c-0.2,1.9-1,3.5-2.4,4.7c-1.2,1-2.6,1.5-4,1.6C263.6,112.7,263.3,112.6,262.9,112.6z M258.4,105.3c-0.1,1.4,0.3,2.7,1.2,3.7
						c0.9,1,2.1,1.7,3.5,1.8l0,0c1.4,0.1,2.7-0.3,3.7-1.2c1-0.9,1.7-2.1,1.8-3.5c0.2-2.8-1.9-5.3-4.7-5.5c-0.3,0-0.5,0-0.8,0
						C260.7,100.7,258.6,102.7,258.4,105.3z"/>
				</g>
				<path class="st3" d="M264.5,122.9c0.6,0,1.2-0.1,1.8-0.2c1.2-0.2,2.3-0.5,3.4-0.9c0,0,0.1,0,0.1-0.1c0.4-0.2,0.6-0.5,0.6-0.9
					c0-0.1,0-0.2-0.1-0.3c-0.2-0.5-0.7-0.7-1.2-0.5c-1,0.4-2.1,0.7-3.2,0.9l0,0c-0.1,0-0.1,0-0.2,0c-2.6,0.4-5.2,0.1-7.6-0.7
					c-1.3-0.5-2.5-1.1-3.7-1.9l0,0c0,0-0.1,0-0.1-0.1c-3.4-2.4-5.6-6-6.3-10.1c-0.1-0.5-0.1-1.1-0.2-1.6c-0.2-3.5,0.8-7,2.9-10
					c2.4-3.4,6-5.6,10.1-6.3c4.1-0.7,8.2,0.3,11.5,2.7c3.4,2.4,5.6,6,6.3,10.1c0.1,0.5,0.1,1,0.2,1.6c0.1,2.3-0.2,4.5-1,6.6
					c-0.1,0.1-0.1,0.3-0.1,0.4c0,0.3,0.2,0.7,0.6,0.8c0.5,0.2,1,0,1.2-0.5c0.9-2.4,1.3-4.9,1.2-7.4c0-0.6-0.1-1.2-0.2-1.7
					c-0.8-4.6-3.2-8.6-7-11.3c-3.8-2.7-8.4-3.8-12.9-3c-4.6,0.8-8.6,3.2-11.3,7c-2.3,3.3-3.5,7.2-3.2,11.1c0,0.6,0.1,1.2,0.2,1.8
					C247.7,117.3,255.7,123.4,264.5,122.9z"/>
			</g>
		</g>
	</g>
	<g>
		
			<linearGradient id="SVGID_2_" gradientUnits="userSpaceOnUse" x1="112.3633" y1="85.3464" x2="375.3202" y2="259.403" gradientTransform="matrix(1 0 0 -1 0 332)">
			<stop  offset="0" style="stop-color:#09005D"/>
			<stop  offset="1" style="stop-color:#1A0F91"/>
		</linearGradient>
		<path class="st4" d="M38.3,285.1c0,2.7,2.2,4.9,4.9,4.9h267.2c2.7,0,4.9-2.2,4.9-4.9l2.2-153.6c0-2.7-3.2-8-9.1-7.6l-261.2-6.8
			c-3.4-0.1-6.7,1.2-9.1,3.6s-3.7,5.7-3.7,9.1L38.3,285.1z"/>
		
			<linearGradient id="SVGID_3_" gradientUnits="userSpaceOnUse" x1="39.4" y1="128.0034" x2="310.8" y2="128.0034" gradientTransform="matrix(1 0 0 -1 0 332)">
			<stop  offset="0" style="stop-color:#4F52FF"/>
			<stop  offset="1" style="stop-color:#4042E2"/>
		</linearGradient>
		<path class="st5" d="M43.1,280.3c0,2.6,2.1,4.7,4.7,4.7H304c2.6,0,4.7-2.1,4.7-4.7l2.1-139.4c-0.2-8.4-7.6-11.4-12.1-11.2
			L48.4,123c-2.4-0.1-4.7,0.9-6.4,2.6s-2.6,4-2.6,6.4L43.1,280.3z"/>
		<path class="st6" d="M50.1,277.3c0,2.4,2,4.4,4.4,4.4h243.1c2.4,0,4.4-2,4.4-4.4l2-132.3c-0.2-8-7.2-10.8-11.4-10.7L55.1,128
			c-2.3-0.1-4.5,0.8-6.1,2.4c-1.6,1.6-2.5,3.8-2.4,6.1L50.1,277.3z"/>
		<g>
			<path class="st2" d="M305.9,194.9L305.9,194.9c-0.4,0-0.7-0.2-0.7-0.5l0.2-8.7c0-0.3,0.3-0.5,0.7-0.5l0,0c0.4,0,0.7,0.2,0.7,0.5
				l-0.2,8.7C306.6,194.7,306.3,194.9,305.9,194.9z"/>
			<path class="st2" d="M306.3,173.6L306.3,173.6c-0.4,0-0.7-0.2-0.7-0.5l0.6-33.4c0-2-0.8-3.6-2.3-4.7c-2.9-2.1-7.4-2-7.6-2
				l-80-1.7c-0.4,0-0.7-0.3-0.7-0.5c0-0.3,0.3-0.5,0.7-0.5l80,1.7c0.5,0,5.3-0.1,8.5,2.3c1.8,1.3,2.7,3.2,2.7,5.5L307,173
				C307,173.3,306.7,173.6,306.3,173.6z"/>
		</g>
		
			<linearGradient id="SVGID_4_" gradientUnits="userSpaceOnUse" x1="172.6182" y1="47.3987" x2="124.3679" y2="251.1228" gradientTransform="matrix(1 0 0 -1 0 332)">
			<stop  offset="0" style="stop-color:#09005D"/>
			<stop  offset="1" style="stop-color:#1A0F91"/>
		</linearGradient>
		<path class="st7" d="M30.2,302.8h290.2c3.1,0,5.7-2.5,5.7-5.7v-2.2c0-3.1-2.5-5.7-5.7-5.7H30.2c-3.1,0-5.7,2.5-5.7,5.7v2.2
			C24.6,300.2,27.1,302.8,30.2,302.8z"/>
		<g>
			<path class="st2" d="M128.1,144.2l-69.2-0.5c-0.2,0-0.3-0.1-0.3-0.3v-5.6c0-0.2,0.1-0.3,0.3-0.3l69.2,0.5c0.2,0,0.3,0.1,0.3,0.3
				v5.6C128.4,144.1,128.3,144.2,128.1,144.2z"/>
			<path class="st2" d="M171.8,144.6l-23.9-0.2c-0.2,0-0.3-0.1-0.3-0.3v-5.6c0-0.2,0.1-0.3,0.3-0.3l23.9,0.2c0.2,0,0.3,0.1,0.3,0.3
				v5.6C172.1,144.5,172,144.6,171.8,144.6z"/>
			<path class="st2" d="M222.8,145l-42.9-0.3c-1.5,0-2.7-1.2-2.7-2.7v-0.8c0-1.5,1.2-2.7,2.7-2.7l42.9,0.3c1.5,0,2.7,1.2,2.7,2.7
				v0.8C225.5,143.8,224.3,145,222.8,145z"/>
			<path class="st2" d="M74.5,154.6l-13.3-0.1c-1.5,0-2.7-1.2-2.7-2.7V151c0-1.5,1.2-2.7,2.7-2.7l13.3,0.1c1.5,0,2.7,1.2,2.7,2.7
				v0.8C77.2,153.4,75.9,154.6,74.5,154.6z"/>
			<path class="st2" d="M128.2,155L78,154.7c-0.2,0-0.3-0.1-0.3-0.3v-5.6c0-0.2,0.1-0.3,0.3-0.3l50.2,0.4c0.2,0,0.3,0.1,0.3,0.3v5.6
				C128.5,154.9,128.3,155,128.2,155z"/>
			<path class="st2" d="M169.8,155.4l-19.7-0.1c-1.3,0-2.4-1.1-2.4-2.4v-1.4c0-1.3,1.1-2.4,2.4-2.4l19.7,0.1c1.3,0,2.4,1.1,2.4,2.4
				v1.4C172.2,154.4,171.1,155.5,169.8,155.4z"/>
			<path class="st2" d="M262.3,156.1l-65.4-0.5c-1.5,0-2.7-1.2-2.7-2.7v-0.8c0-1.5,1.2-2.7,2.7-2.7l65.4,0.5c1.5,0,2.7,1.2,2.7,2.7
				v0.8C265,154.9,263.8,156.1,262.3,156.1z"/>
			<path class="st2" d="M76.5,165.5l-17.6-0.1c-0.3,0-0.6-0.3-0.5-0.6v-5c0-0.3,0.3-0.6,0.6-0.5l17.6,0.1c0.3,0,0.6,0.3,0.5,0.6v5
				C77.1,165.2,76.8,165.5,76.5,165.5z"/>
			<path class="st2" d="M128.1,165.8l-50.2-0.4c-0.2,0-0.3-0.1-0.3-0.3v-5.6c0-0.2,0.1-0.3,0.3-0.3l50.2,0.4c0.2,0,0.3,0.1,0.3,0.3
				v5.6C128.4,165.7,128.2,165.8,128.1,165.8z"/>
			<path class="st2" d="M171.8,166.3l-23.9-0.2c-0.2,0-0.3-0.1-0.3-0.3v-5.6c0-0.2,0.1-0.3,0.3-0.3l23.9,0.2c0.2,0,0.3,0.1,0.3,0.3
				v5.6C172.1,166.1,172,166.3,171.8,166.3z"/>
			<path class="st2" d="M292.3,167.1l-86.9-0.6c-1.5,0-2.7-1.2-2.7-2.7V163c0-1.5,1.2-2.7,2.7-2.7l86.9,0.6c1.5,0,2.7,1.2,2.7,2.7
				v0.8C295.1,165.9,293.8,167.1,292.3,167.1z"/>
			<path class="st2" d="M76.6,176.3L59,176.2c-0.3,0-0.6-0.3-0.5-0.6v-5c0-0.3,0.3-0.6,0.6-0.5l17.6,0.1c0.3,0,0.6,0.3,0.5,0.6v5
				C77.1,176,76.9,176.3,76.6,176.3z"/>
			<path class="st2" d="M128.3,176.7l-50.2-0.4c-0.2,0-0.3-0.1-0.3-0.3v-5.6c0-0.2,0.1-0.3,0.3-0.3l50.2,0.4c0.2,0,0.3,0.1,0.3,0.3
				v5.6C128.6,176.5,128.4,176.7,128.3,176.7z"/>
			<path class="st2" d="M169.9,177.1l-19.7-0.1c-1.3,0-2.4-1.1-2.4-2.4v-1.4c0-1.3,1.1-2.4,2.4-2.4l19.7,0.1c1.3,0,2.4,1.1,2.4,2.4
				v1.4C172.2,176,171.2,177.1,169.9,177.1z"/>
			<path class="st2" d="M292.8,177.9l-86.9-0.6c-1.5,0-2.7-1.2-2.7-2.7v-0.8c0-1.5,1.2-2.7,2.7-2.7l86.9,0.6c1.5,0,2.7,1.2,2.7,2.7
				v0.8C295.5,176.7,294.2,177.9,292.8,177.9z"/>
			<path class="st2" d="M76.5,187.5l-17.6-0.1c-0.3,0-0.6-0.3-0.5-0.6v-5c0-0.3,0.3-0.6,0.6-0.5l17.6,0.1c0.3,0,0.6,0.3,0.5,0.6v5
				C77,187.3,76.8,187.5,76.5,187.5z"/>
			<path class="st2" d="M128.1,187.9l-50.2-0.4c-0.2,0-0.3-0.1-0.3-0.3v-5.6c0-0.2,0.1-0.3,0.3-0.3l50.2,0.4c0.2,0,0.3,0.1,0.3,0.3
				v5.6C128.4,187.8,128.3,187.9,128.1,187.9z"/>
			<path class="st2" d="M171.8,188.3l-23.9-0.2c-0.2,0-0.3-0.1-0.3-0.3v-5.6c0-0.2,0.1-0.3,0.3-0.3l23.9,0.2c0.2,0,0.3,0.1,0.3,0.3
				v5.6C172.1,188.2,172,188.3,171.8,188.3z"/>
			<path class="st2" d="M292.5,189.2l-86.9-0.6c-1.5,0-2.7-1.2-2.7-2.7v-0.8c0-1.5,1.2-2.7,2.7-2.7l86.9,0.6c1.5,0,2.7,1.2,2.7,2.7
				v0.8C295.2,188,294,189.2,292.5,189.2z"/>
			<path class="st2" d="M76.5,198.3l-17.6-0.1c-0.3,0-0.6-0.3-0.5-0.6v-5c0-0.3,0.3-0.6,0.6-0.5l17.6,0.1c0.3,0,0.6,0.3,0.5,0.6v5
				C77.1,198.1,76.8,198.3,76.5,198.3z"/>
			<path class="st2" d="M128.3,198.7l-50.2-0.4c-0.2,0-0.3-0.1-0.3-0.3v-5.6c0-0.2,0.1-0.3,0.3-0.3l50.2,0.4c0.2,0,0.3,0.1,0.3,0.3
				v5.6C128.6,198.6,128.4,198.7,128.3,198.7z"/>
			<path class="st2" d="M169.8,199.1l-19.7-0.1c-1.3,0-2.4-1.1-2.4-2.4v-1.4c0-1.3,1.1-2.4,2.4-2.4l19.7,0.1c1.3,0,2.4,1.1,2.4,2.4
				v1.4C172.2,198.1,171.1,199.1,169.8,199.1z"/>
			<path class="st2" d="M230.6,199.6l-51.1-0.4c-1.5,0-2.7-1.2-2.7-2.7v-0.8c0-1.5,1.2-2.7,2.7-2.7l51.1,0.4c1.5,0,2.7,1.2,2.7,2.7
				v0.8C233.3,198.4,232.1,199.6,230.6,199.6z"/>
			<path class="st2" d="M128.2,209.5L58.6,209c-0.2,0-0.3-0.1-0.3-0.3v-5.6c0-0.2,0.1-0.3,0.3-0.3l69.6,0.5c0.2,0,0.3,0.1,0.3,0.3
				v5.6C128.5,209.4,128.4,209.5,128.2,209.5z"/>
			<path class="st2" d="M171.8,210l-23.9-0.2c-0.2,0-0.3-0.1-0.3-0.3v-5.6c0-0.2,0.1-0.3,0.3-0.3l23.9,0.2c0.2,0,0.3,0.1,0.3,0.3
				v5.6C172.1,209.8,172,210,171.8,210z"/>
			<path class="st2" d="M257.2,210.6l-65.1-0.5c-1.5,0-2.7-1.2-2.7-2.7v-0.8c0-1.5,1.2-2.7,2.7-2.7l65.1,0.5c1.5,0,2.7,1.2,2.7,2.7
				v0.8C259.9,209.4,258.7,210.6,257.2,210.6z"/>
			<path class="st2" d="M75.8,220L59,219.8c-0.3,0-0.6-0.3-0.5-0.6v-5c0-0.3,0.3-0.6,0.6-0.5l16.9,0.1c0.3,0,0.6,0.3,0.5,0.6v5
				C76.4,219.7,76.1,220,75.8,220z"/>
			<path class="st2" d="M128.4,220.3L78.2,220c-0.2,0-0.3-0.1-0.3-0.3v-5.6c0-0.2,0.1-0.3,0.3-0.3l50.2,0.4c0.2,0,0.3,0.1,0.3,0.3
				v5.6C128.7,220.2,128.5,220.3,128.4,220.3z"/>
			<path class="st2" d="M169.9,220.8l-19.7-0.1c-1.3,0-2.4-1.1-2.4-2.4v-1.4c0-1.3,1.1-2.4,2.4-2.4l19.7,0.1c1.3,0,2.4,1.1,2.4,2.4
				v1.4C172.2,219.7,171.2,220.8,169.9,220.8z"/>
			<path class="st2" d="M292.9,221.6l-90-0.6c-1.5,0-2.7-1.2-2.7-2.7v-0.8c0-1.5,1.2-2.7,2.7-2.7l90,0.6c1.5,0,2.7,1.2,2.7,2.7v0.8
				C295.6,220.4,294.4,221.6,292.9,221.6z"/>
			<path class="st2" d="M73.8,252.2l-13.3-0.1c-1.5,0-2.7-1.2-2.7-2.7v-0.8c0-1.5,1.2-2.7,2.7-2.7l13.3,0.1c1.5,0,2.7,1.2,2.7,2.7
				v0.8C76.5,251.1,75.2,252.3,73.8,252.2z"/>
			<path class="st2" d="M127.7,252.6l-50.2-0.4c-0.2,0-0.3-0.1-0.3-0.3v-5.6c0-0.2,0.1-0.3,0.3-0.3l50.2,0.4c0.2,0,0.3,0.1,0.3,0.3
				v5.6C128,252.5,127.8,252.6,127.7,252.6z"/>
			<path class="st2" d="M169.2,253.1l-19.7-0.1c-1.3,0-2.4-1.1-2.4-2.4v-1.4c0-1.3,1.1-2.4,2.4-2.4l19.7,0.1c1.3,0,2.4,1.1,2.4,2.4
				v1.4C171.6,252,170.5,253.1,169.2,253.1z"/>
			<path class="st2" d="M230,253.5l-51.1-0.4c-1.5,0-2.7-1.2-2.7-2.7v-0.8c0-1.5,1.2-2.7,2.7-2.7l51.1,0.4c1.5,0,2.7,1.2,2.7,2.7
				v0.8C232.7,252.3,231.5,253.5,230,253.5z"/>
			<path class="st2" d="M127.6,263.4L58,263c-0.2,0-0.3-0.1-0.3-0.3v-5.6c0-0.2,0.1-0.3,0.3-0.3l69.6,0.5c0.2,0,0.3,0.1,0.3,0.3v5.6
				C127.9,263.3,127.8,263.4,127.6,263.4z"/>
			<path class="st2" d="M171.2,263.9l-23.9-0.2c-0.2,0-0.3-0.1-0.3-0.3v-5.6c0-0.2,0.1-0.3,0.3-0.3l23.9,0.2c0.2,0,0.3,0.1,0.3,0.3
				v5.6C171.5,263.8,171.4,263.9,171.2,263.9z"/>
			<path class="st2" d="M256.5,264.5l-65.1-0.5c-1.5,0-2.7-1.2-2.7-2.7v-0.8c0-1.5,1.2-2.7,2.7-2.7l65.1,0.5c1.5,0,2.7,1.2,2.7,2.7
				v0.8C259.3,263.3,258,264.5,256.5,264.5z"/>
			<path class="st2" d="M75.2,273.9l-16.9-0.1c-0.3,0-0.6-0.3-0.5-0.6v-5c0-0.3,0.3-0.6,0.6-0.5l16.9,0.1c0.3,0,0.6,0.3,0.5,0.6v5
				C75.7,273.6,75.5,273.9,75.2,273.9z"/>
			<path class="st2" d="M127.8,274.3l-50.2-0.4c-0.2,0-0.3-0.1-0.3-0.3V268c0-0.2,0.1-0.3,0.3-0.3l50.2,0.4c0.2,0,0.3,0.1,0.3,0.3
				v5.6C128.1,274.1,127.9,274.3,127.8,274.3z"/>
			<path class="st2" d="M169.2,274.7l-19.7-0.1c-1.3,0-2.4-1.1-2.4-2.4v-1.4c0-1.3,1.1-2.4,2.4-2.4l19.7,0.1c1.3,0,2.4,1.1,2.4,2.4
				v1.4C171.6,273.6,170.5,274.7,169.2,274.7z"/>
			<path class="st2" d="M292.2,275.6l-90-0.6c-1.5,0-2.7-1.2-2.7-2.7v-0.8c0-1.5,1.2-2.7,2.7-2.7l90,0.6c1.5,0,2.7,1.2,2.7,2.7v0.8
				C294.9,274.4,293.7,275.6,292.2,275.6z"/>
			<path class="st2" d="M73.4,231l-12.6-0.1c-1.5,0-2.7-1.2-2.7-2.7v-0.8c0-1.5,1.2-2.7,2.7-2.7l12.6,0.1c1.5,0,2.7,1.2,2.7,2.7v0.8
				C76.1,229.8,74.9,231,73.4,231z"/>
			<path class="st2" d="M127.9,231.3L77.7,231c-0.2,0-0.3-0.1-0.3-0.3v-5.6c0-0.2,0.1-0.3,0.3-0.3l50.2,0.4c0.2,0,0.3,0.1,0.3,0.3
				v5.6C128.2,231.2,128.1,231.3,127.9,231.3z"/>
			<path class="st2" d="M171.6,231.8l-23.9-0.2c-0.2,0-0.3-0.1-0.3-0.3v-5.6c0-0.2,0.1-0.3,0.3-0.3l23.9,0.2c0.2,0,0.3,0.1,0.3,0.3
				v5.6C171.9,231.7,171.7,231.8,171.6,231.8z"/>
			<path class="st2" d="M292.1,232.6l-90-0.6c-1.5,0-2.7-1.2-2.7-2.7v-0.8c0-1.5,1.2-2.7,2.7-2.7l90,0.6c1.5,0,2.7,1.2,2.7,2.7v0.8
				C294.8,231.4,293.6,232.6,292.1,232.6z"/>
			<path class="st2" d="M73.4,241.8l-12.6-0.1c-1.5,0-2.7-1.2-2.7-2.7v-0.8c0-1.5,1.2-2.7,2.7-2.7l12.6,0.1c1.5,0,2.7,1.2,2.7,2.7
				v0.8C76.2,240.6,74.9,241.8,73.4,241.8z"/>
			<path class="st2" d="M128.1,242.2l-50.2-0.4c-0.2,0-0.3-0.1-0.3-0.3v-5.6c0-0.2,0.1-0.3,0.3-0.3l50.2,0.4c0.2,0,0.3,0.1,0.3,0.3
				v5.6C128.4,242,128.3,242.2,128.1,242.2z"/>
			<path class="st2" d="M169.6,242.6l-19.7-0.1c-1.3,0-2.4-1.1-2.4-2.4v-1.4c0-1.3,1.1-2.4,2.4-2.4l19.7,0.1c1.3,0,2.4,1.1,2.4,2.4
				v1.4C172,241.5,170.9,242.6,169.6,242.6z"/>
			<path class="st2" d="M292.5,243.5l-90-0.6c-1.5,0-2.7-1.2-2.7-2.7v-0.8c0-1.5,1.2-2.7,2.7-2.7l90,0.6c1.5,0,2.7,1.2,2.7,2.7v0.8
				C295.2,242.3,294,243.5,292.5,243.5z"/>
			<path class="st2" d="M138.3,281.6h-1.6c-0.2,0-0.3-0.1-0.3-0.3l1.1-151c0-0.2,0.1-0.3,0.3-0.3h1.6c0.2,0,0.3,0.1,0.3,0.3
				l-1.1,151C138.6,281.5,138.5,281.6,138.3,281.6z"/>
		</g>
	</g>
	<g>
		<g>
			<path class="st8" d="M105.7,169.4c-19.1,0.6-23.6,5-23.6,5l10.7,13.3c0,0,18.6-2.5,30.8-14.3c-2.8-2.4-4.9-5.2-6.2-7.4
				C114.1,168,110.2,169.3,105.7,169.4z"/>
			
				<linearGradient id="SVGID_5_" gradientUnits="userSpaceOnUse" x1="-1045.6616" y1="23.6289" x2="-1027.038" y2="23.6289" gradientTransform="matrix(0.9937 -0.112 -0.112 -0.9937 1158.006 63.1951)">
				<stop  offset="0" style="stop-color:#FEBBBA"/>
				<stop  offset="1" style="stop-color:#FF928E"/>
			</linearGradient>
			<path class="st9" d="M132.3,138.2c-0.1-0.6-0.9-0.7-1.1-0.1l-1.8,5.4c-0.4,1-0.4,2.2-0.1,3.2l1.2,2.9c0.4,1.4,0.2,3-0.6,4.2
				c-1.9,3-6.1,8.6-12.5,12.2c1.4,2.2,3.4,5,6.2,7.4c4.5-4.3,8.1-9.9,9.6-17.1c1.1-0.5,1.7-1.6,1.5-2.7L132.3,138.2z"/>
		</g>
		<g>
			
				<linearGradient id="SVGID_6_" gradientUnits="userSpaceOnUse" x1="168.7407" y1="389.3794" x2="167.5617" y2="311.5669" gradientTransform="matrix(1 0 0 -1 0 332)">
				<stop  offset="0" style="stop-color:#FF928E"/>
				<stop  offset="1" style="stop-color:#FE7062"/>
			</linearGradient>
			<circle class="st10" cx="165.9" cy="130.1" r="54.2"/>
			<circle class="st8" cx="166.2" cy="130.4" r="48.7"/>
			<g>
				<path class="st2" d="M145.9,100.1l-6.1-3c-0.6-0.3-1.2-0.2-1.7,0.2l-0.7,0.6l-1.1,1l-0.7,0.6c-0.5,0.4-0.6,1.1-0.4,1.6l2.3,6.3
					c0.4,1,1.2,1.7,2.2,1.9l4.1,0.9l26.6,29.6l1.5-1.4l1.1-1l1.4-1.3L148,106.7l-0.4-4.2C147.4,101.5,146.8,100.6,145.9,100.1z"/>
				<path class="st11" d="M145.5,100.5l-5.5-2.7c-0.5-0.2-1.1-0.2-1.5,0.2l-0.6,0.5l-1,0.9l-0.6,0.6c-0.4,0.4-0.5,1-0.3,1.5l2.1,5.7
					c0.3,0.9,1.1,1.5,2,1.7l3.7,0.8l24,26.7l1.4-1.2l1-0.9l1.5-1.4l-24-26.7l-0.5-3.7C147,101.6,146.3,100.9,145.5,100.5z"/>
				<g>
					
						<linearGradient id="SVGID_7_" gradientUnits="userSpaceOnUse" x1="180.6304" y1="206.9093" x2="180.6304" y2="133.1415" gradientTransform="matrix(1 0 0 -1 0 332)">
						<stop  offset="0" style="stop-color:#4F52FF"/>
						<stop  offset="1" style="stop-color:#4042E2"/>
					</linearGradient>
					<path class="st12" d="M192.3,146.3l-18.9-16.9l-9.6,8.6l14.6,20.1c1.4,1.9,3.2,3.4,5.4,4.3l5.8,2.5c1,0.4,2.2,0.3,3-0.4l4-3.6
						c0.7-0.6,1-1.7,0.8-2.7l-1-4.9C195.8,150.6,194.4,148.1,192.3,146.3z"/>
					
						<linearGradient id="SVGID_8_" gradientUnits="userSpaceOnUse" x1="-393.9128" y1="-591.2916" x2="-391.8077" y2="-546.1826" gradientTransform="matrix(0.7431 -0.6692 -0.6692 -0.7431 85.3657 -544.938)">
						<stop  offset="0" style="stop-color:#4F52FF"/>
						<stop  offset="1" style="stop-color:#4042E2"/>
					</linearGradient>
					<path class="st13" d="M174.3,128.3c0.6,0.6,0.5,1.6-0.1,2.2l-9.6,8.6c-0.6,0.6-1.6,0.5-2.2-0.1l-0.1-0.1
						c-0.6-0.6-0.5-1.6,0.1-2.2l9.6-8.6c0.6-0.6,1.6-0.5,2.2,0.1L174.3,128.3z"/>
					<g>
						
							<linearGradient id="SVGID_9_" gradientUnits="userSpaceOnUse" x1="211.8423" y1="279.5817" x2="193.7637" y2="226.918" gradientTransform="matrix(1 0 0 -1 0 332)">
							<stop  offset="0" style="stop-color:#4F52FF"/>
							<stop  offset="1" style="stop-color:#4042E2"/>
						</linearGradient>
						<path class="st14" d="M188.6,158.5c0.5,0.6,0.5,1.4-0.1,1.9l0,0c-0.6,0.5-1.4,0.5-1.9-0.1l-18.1-20c-0.5-0.6-0.5-1.4,0.1-1.9
							l0,0c0.6-0.5,1.4-0.5,1.9,0.1L188.6,158.5z"/>
						
							<linearGradient id="SVGID_10_" gradientUnits="userSpaceOnUse" x1="214.7571" y1="278.581" x2="196.6785" y2="225.9175" gradientTransform="matrix(1 0 0 -1 0 332)">
							<stop  offset="0" style="stop-color:#4F52FF"/>
							<stop  offset="1" style="stop-color:#4042E2"/>
						</linearGradient>
						<path class="st15" d="M193.3,154.3c0.5,0.6,0.5,1.4-0.1,1.9l0,0c-0.6,0.5-1.4,0.5-1.9-0.1l-18.1-20c-0.5-0.6-0.5-1.4,0.1-1.9
							l0,0c0.6-0.5,1.4-0.5,1.9,0.1L193.3,154.3z"/>
					</g>
				</g>
			</g>
			<g>
				
					<linearGradient id="SVGID_11_" gradientUnits="userSpaceOnUse" x1="3722.5305" y1="-428.2952" x2="3758.2078" y2="-383.5587" gradientTransform="matrix(-0.8763 0.4818 -0.4818 -0.8763 3243.4058 -2020.7587)">
					<stop  offset="0" style="stop-color:#09005D"/>
					<stop  offset="1" style="stop-color:#1A0F91"/>
				</linearGradient>
				<path class="st16" d="M133,145.3l-1.3,1.2c-2.2,2-2.9,4.9-1.5,6.4l1.6,1.8c1.4,1.5,4.3,1,6.5-1l1.3-1.2c0.1-0.1,0.2-0.2,0.2-0.2
					l36.4-36.9l-3.6-3.8L133.2,145C133.2,145.1,133.1,145.2,133,145.3z M134.7,147c1.7-1.5,3.7-2,4.6-1c0.9,1,0.3,3-1.3,4.6
					c-1.7,1.5-3.7,2-4.6,1C132.5,150.5,133.1,148.5,134.7,147z"/>
				
					<linearGradient id="SVGID_12_" gradientUnits="userSpaceOnUse" x1="368.0094" y1="-1183.9579" x2="385.121" y2="-1225.2269" gradientTransform="matrix(-0.6818 -0.7315 0.7315 -0.6818 1311.0712 -435.8578)">
					<stop  offset="0" style="stop-color:#09005D"/>
					<stop  offset="1" style="stop-color:#1A0F91"/>
				</linearGradient>
				<path class="st17" d="M183.8,97.4l-7.4,6.9c-0.5,0.5-0.8,1.2-0.7,1.9l0.3,3.7c0.1,1.1,0.9,1.9,1.9,2.1l3.6,0.6
					c0.7,0.1,1.4-0.1,2-0.6l7.4-6.9c1.1-1,3-0.3,3,1.2c0.1,3.7-1.4,7.4-4.3,10.1c-5.3,5-12.9,4.2-17.7-0.9s-5-12.7,0.3-17.7
					c2.9-2.7,6.8-3.9,10.4-3.6C184.3,94.4,184.9,96.3,183.8,97.4z"/>
				
					<linearGradient id="SVGID_13_" gradientUnits="userSpaceOnUse" x1="667.1547" y1="-633.2754" x2="646.9147" y2="-671.9871" gradientTransform="matrix(-0.6818 -0.7315 0.7315 -0.6818 1311.0712 -435.8578)">
					<stop  offset="0" style="stop-color:#09005D"/>
					<stop  offset="1" style="stop-color:#1A0F91"/>
				</linearGradient>
				<path class="st18" d="M184.4,98.1L177,105c-0.5,0.5-0.8,1.2-0.7,1.9l0.3,3.7c0.1,1.1,0.9,1.9,1.9,2.1l3.6,0.6
					c0.7,0.1,1.4-0.1,2-0.6l7.4-6.9c1.1-1,3-0.3,3,1.2c0.1,3.7-1.4,7.4-4.3,10.1c-5.3,5-12.9,4.2-17.7-0.9s-5-12.7,0.3-17.7
					c2.9-2.7,6.8-3.9,10.4-3.6C184.9,95.1,185.6,97,184.4,98.1z"/>
				
					<linearGradient id="SVGID_14_" gradientUnits="userSpaceOnUse" x1="646.0588" y1="-214.8599" x2="625.8188" y2="-253.5716" gradientTransform="matrix(-0.6818 -0.7315 0.9067 -0.8451 1075.8427 -216.5832)">
					<stop  offset="0" style="stop-color:#09005D"/>
					<stop  offset="1" style="stop-color:#1A0F91"/>
				</linearGradient>
				<path class="st19" d="M133.5,145.8l-1.3,1.2c-2.2,2-2.9,4.9-1.5,6.4l1.6,1.8c1.4,1.5,4.3,1,6.5-1l1.3-1.2
					c0.1-0.1,0.2-0.2,0.2-0.2l36.4-36.9l-3.6-3.8l-39.4,33.7C133.7,145.7,133.6,145.8,133.5,145.8z M135.3,147.5
					c1.7-1.5,3.7-2,4.6-1c0.9,1,0.3,3-1.3,4.6c-1.7,1.5-3.7,2-4.6,1C133,151.1,133.6,149.1,135.3,147.5z"/>
			</g>
		</g>
		<g>
			<path class="st8" d="M112.9,177c-7.5-6.4-20.6-8.3-28.1-8.8c-3.3-0.2-6.3,1.9-7.1,5.1c-2.3,9.3-7.9,33.3-9.2,37.5
				c-1.1,3.4-1.4,6.9-2.1,9c-0.4,1.3,0.4,3.2,1.6,3.6c6.5,2.3,12.3,3.9,17,4.7c1,0.2,4.4-0.6,4.3-1.6c-0.1-0.9-0.4-2.2,0-3
				l15.8-30.1c12,10.6,21.4,10.6,28.3,7.2c-1.6-3.6-2.8-7.2-3.6-10.9C119.1,189.2,112.9,177,112.9,177z"/>
			
				<linearGradient id="SVGID_15_" gradientUnits="userSpaceOnUse" x1="-1003.5224" y1="19.5064" x2="-1043.7644" y2="-30.5584" gradientTransform="matrix(0.9937 -0.112 -0.112 -0.9937 1158.006 63.1951)">
				<stop  offset="0" style="stop-color:#FEBBBA"/>
				<stop  offset="1" style="stop-color:#FF928E"/>
			</linearGradient>
			<path class="st20" d="M147.1,185.8l-2.2-2.3c-5.7,4.9-10.8,6.5-15.1,6.3c0.8,3.7,2,7.3,3.6,10.9
				C142.5,196.2,147.1,185.8,147.1,185.8z"/>
			
				<linearGradient id="SVGID_16_" gradientUnits="userSpaceOnUse" x1="-995.8973" y1="13.3782" x2="-1036.1399" y2="-36.6876" gradientTransform="matrix(0.9937 -0.112 -0.112 -0.9937 1158.006 63.1951)">
				<stop  offset="0" style="stop-color:#FEBBBA"/>
				<stop  offset="1" style="stop-color:#FF928E"/>
			</linearGradient>
			<path class="st21" d="M145.8,186l10.8-0.8l9.3-6.7c-1.5-0.7-9.4,2-9.4,2s-8.6-0.3-10.8-0.1c-1.9,0.2-1.3,2.9-1.1,3.8
				c0.1,0.2,0.1,0.3,0.1,0.3L145.8,186z"/>
			
				<linearGradient id="SVGID_17_" gradientUnits="userSpaceOnUse" x1="109.3138" y1="210.8259" x2="92.1189" y2="150.3474" gradientTransform="matrix(1 0 0 -1 0 332)">
				<stop  offset="0" style="stop-color:#FEBBBA"/>
				<stop  offset="1" style="stop-color:#FF928E"/>
			</linearGradient>
			<path class="st22" d="M93.5,153.9l-4.1,14.5c0,0,7,3.8,12.2,2.8l1.4-12.8L93.5,153.9z"/>
			<g>
				
					<linearGradient id="SVGID_18_" gradientUnits="userSpaceOnUse" x1="7783.8853" y1="-449.5802" x2="7762.5415" y2="-465.9113" gradientTransform="matrix(0.989 -0.1476 -0.1476 -0.989 -7659.8374 852.5288)">
					<stop  offset="0" style="stop-color:#FEBBBA"/>
					<stop  offset="1" style="stop-color:#FF928E"/>
				</linearGradient>
				<path class="st23" d="M102.9,140.9c0,0,5,7.9,5.9,12.3c0.9,4.4,2.3,7.2-2.7,8.8c-5,1.7-9.7-0.3-12.7-4.3c0,0-4.7-6.3-4.3-9.2
					C89.4,145.6,102.9,140.9,102.9,140.9z"/>
				
					<linearGradient id="SVGID_19_" gradientUnits="userSpaceOnUse" x1="7768.8833" y1="-436.6355" x2="7788.7627" y2="-462.2301" gradientTransform="matrix(0.989 -0.1476 -0.1476 -0.989 -7659.8374 852.5288)">
					<stop  offset="0" style="stop-color:#09005D"/>
					<stop  offset="1" style="stop-color:#1A0F91"/>
				</linearGradient>
				<path class="st24" d="M94.6,154.3l0.3-0.2c0.3-0.2,0.4-0.7,0.2-1c-0.9-1.3-2.8-4.3-1.1-5.3c2.2-1.3,11.3-4.6,12.8-8.2
					c1.5-3.5-0.9-7.3-3.6-8.1c-0.2-0.1-0.4,0-0.4,0.2l-0.2,0.4c-0.1,0.3-0.5,0.3-0.7,0c-0.1-0.3-0.5-0.3-0.6,0
					c-0.5,1.1-1.9,2.9-6.2,4.4c-6.2,2.1-10,5.3-9.4,9.7c0,0.3-0.2,0.5-0.5,0.4c-0.5-0.2-1.3-0.2-2.2,0.8c-1.5,1.7-0.2,5.4,4,8
					c0.2,0.1,0.2,0.4,0.1,0.6c-0.6,0.6-1.5,1.8,1.4,2.8c3,1.1,5,0.6,5.8,0.4c0.2-0.1,0.3-0.3,0.2-0.5L93,155
					c-0.1-0.2,0.1-0.4,0.3-0.5L94.6,154.3z"/>
				
					<linearGradient id="SVGID_20_" gradientUnits="userSpaceOnUse" x1="7781.2871" y1="-446.1848" x2="7759.9434" y2="-462.5159" gradientTransform="matrix(0.989 -0.1476 -0.1476 -0.989 -7659.8374 852.5288)">
					<stop  offset="0" style="stop-color:#FEBBBA"/>
					<stop  offset="1" style="stop-color:#FF928E"/>
				</linearGradient>
				<path class="st25" d="M94.9,155.1c0,0-2.2-5.2-4.4-3.3c-2.2,1.9,2.2,5.9,4.2,5.8L94.9,155.1z"/>
			</g>
			
				<linearGradient id="SVGID_21_" gradientUnits="userSpaceOnUse" x1="111.4651" y1="21.3778" x2="43.6587" y2="-52.3766" gradientTransform="matrix(1 0 0 -1 0 332)">
				<stop  offset="0" style="stop-color:#09005D"/>
				<stop  offset="1" style="stop-color:#1A0F91"/>
			</linearGradient>
			<path class="st26" d="M90,316.1c0,0-0.7,4-1,7.9c-0.1,1.5,1.1,2.9,2.6,2.9c5.2,0.2,16.5,0.6,20.5,0.5c0.6,0,1-0.6,0.8-1.2
				c-0.2-0.5-0.5-0.9-1-1.1l-18.5-8.5L90,316.1z"/>
			
				<linearGradient id="SVGID_22_" gradientUnits="userSpaceOnUse" x1="89.4335" y1="15.8445" x2="95.4564" y2="15.8445" gradientTransform="matrix(1 0 0 -1 0 332)">
				<stop  offset="0" style="stop-color:#FEBBBA"/>
				<stop  offset="1" style="stop-color:#FF928E"/>
			</linearGradient>
			<path class="st27" d="M89.4,313.8l0.6,4.8c0,0,3.2,1.5,5.5-0.2l-1.3-5.3L89.4,313.8z"/>
			
				<linearGradient id="SVGID_23_" gradientUnits="userSpaceOnUse" x1="116.8891" y1="104.7276" x2="59.1924" y2="26.527" gradientTransform="matrix(1 0 0 -1 0 332)">
				<stop  offset="0" style="stop-color:#09005D"/>
				<stop  offset="1" style="stop-color:#1A0F91"/>
			</linearGradient>
			<path class="st28" d="M89.9,224.4c-0.2,1.2-1.3,62,5.2,89.2c0.1,0.4-0.1,0.9-0.5,1.1c-1,0.4-2.9,1-5.3,1.1
				c-0.7,0-1.4-0.4-1.6-1.1c-1.9-6.3-10.7-37.9-11.9-68.2c-1.3-33.8,0-1.1,0-1.1l0.8-20.9L89.9,224.4z"/>
			
				<linearGradient id="SVGID_24_" gradientUnits="userSpaceOnUse" x1="96.2512" y1="35.3649" x2="28.4447" y2="-38.3897" gradientTransform="matrix(1 0 0 -1 0 332)">
				<stop  offset="0" style="stop-color:#09005D"/>
				<stop  offset="1" style="stop-color:#1A0F91"/>
			</linearGradient>
			<path class="st29" d="M68.7,318.2c0,0-1.1,2-2.2,7.3c-0.2,1,0.5,1.9,1.5,2c1.7,0.2,4.4,0.4,6.5,0.4c1,0,1.8-0.9,1.6-1.8
				c-0.2-1.9-1-5.1-3.2-7.6L68.7,318.2z"/>
			
				<linearGradient id="SVGID_25_" gradientUnits="userSpaceOnUse" x1="67.727" y1="16.1256" x2="72.927" y2="16.1256" gradientTransform="matrix(1 0 0 -1 0 332)">
				<stop  offset="0" style="stop-color:#FEBBBA"/>
				<stop  offset="1" style="stop-color:#FF928E"/>
			</linearGradient>
			<path class="st30" d="M67.7,312.1l1.3,7.2c0,0,1.3,1,3.9,0.3l-0.6-7.7L67.7,312.1z"/>
			
				<linearGradient id="SVGID_26_" gradientUnits="userSpaceOnUse" x1="105.7468" y1="112.9486" x2="48.05" y2="34.7481" gradientTransform="matrix(1 0 0 -1 0 332)">
				<stop  offset="0" style="stop-color:#09005D"/>
				<stop  offset="1" style="stop-color:#1A0F91"/>
			</linearGradient>
			<path class="st31" d="M66.5,219.9c-7.1,21.5-1.2,85.5,1,94.7c0.1,0.6,0.6,1,1.2,1.1c1,0.2,2.6,0.3,4.2-0.2
				c0.5-0.2,0.9-0.6,0.9-1.2c0.3-7.5-0.2-53.3,4.7-71.4c0.3-0.9,0.8-1.7,1.6-2.3l9.6-6.8l0.7-11L66.5,219.9z"/>
			
				<linearGradient id="SVGID_27_" gradientUnits="userSpaceOnUse" x1="85.8762" y1="132.5076" x2="80.9724" y2="86.0657" gradientTransform="matrix(1 0 0 -1 0 332)">
				<stop  offset="0" style="stop-color:#09005D"/>
				<stop  offset="1" style="stop-color:#1A0F91"/>
			</linearGradient>
			<path class="st32" d="M66.4,219.8l2.1-9c5.2,1.5,11,2.5,17.5,3c7-4.4,12.5-10.4,17.3-17.1l0.1,0.8c0,0.2,0,0.4-0.1,0.5
				l-13.5,26.2L66.4,219.8z"/>
			
				<linearGradient id="SVGID_28_" gradientUnits="userSpaceOnUse" x1="90.6591" y1="156.195" x2="84.4882" y2="97.7523" gradientTransform="matrix(1 0 0 -1 0 332)">
				<stop  offset="0" style="stop-color:#09005D"/>
				<stop  offset="1" style="stop-color:#1A0F91"/>
			</linearGradient>
			<path class="st33" d="M108.2,173.9l-37.9,30.5c0.7-2.9,0.5-3.1,1.5-6.2l31.2-26.9C105.6,171.8,107.9,172.3,108.2,173.9z"/>
			
				<linearGradient id="SVGID_29_" gradientUnits="userSpaceOnUse" x1="85.3075" y1="156.3708" x2="77.4331" y2="81.7951" gradientTransform="matrix(1 0 0 -1 0 332)">
				<stop  offset="0" style="stop-color:#09005D"/>
				<stop  offset="1" style="stop-color:#1A0F91"/>
			</linearGradient>
			<path class="st34" d="M81.1,169.1l1,45.4h4l-1.2-46.3C82.3,168,81.5,168.5,81.1,169.1z"/>
		</g>
	</g>
</g>
</svg>
