<svg id="Слой_1" data-name="Слой 1" xmlns="http://www.w3.org/2000/svg" viewBox="0 0 450 326.15"><defs><style>.cls-1{fill:#161616;}.cls-2{fill:#5222d0;}.cls-3{fill:#ec615b;}.cls-11,.cls-4{fill:#fff;}.cls-10,.cls-12,.cls-13,.cls-5,.cls-6,.cls-7,.cls-8,.cls-9{fill:#6d6d6d;}.cls-5{opacity:0.12;}.cls-10,.cls-12,.cls-13,.cls-15,.cls-5,.cls-6,.cls-7,.cls-8,.cls-9{isolation:isolate;}.cls-6{opacity:0.07;}.cls-7{opacity:0.16;}.cls-15,.cls-8{opacity:0.14;}.cls-9{opacity:0.15;}.cls-10{opacity:0.13;}.cls-11{stroke:#000;stroke-miterlimit:10;}.cls-12{opacity:0.1;}.cls-13{opacity:0.11;}.cls-14,.cls-15{fill:#1a1b22;}</style></defs><g id="background"><g id="ground"><path class="cls-1" d="M107.54,215.82H349.22a.55.55,0,0,0,0-1.1H107.54a.55.55,0,0,0,0,1.1Z"/><path class="cls-1" d="M366.78,216.73H449a.55.55,0,0,0,0-1.09H366.78a.55.55,0,1,0,0,1.09Z"/><path class="cls-1" d="M344.11,224.61h44.35a.55.55,0,0,0,0-1.09H344.11a.55.55,0,0,0,0,1.09Z"/><path class="cls-1" d="M20.65,272.21H139.88a.55.55,0,0,0,0-1.1H20.65a.55.55,0,0,0,0,1.1Z"/><path class="cls-1" d="M375.1,256h74.38a.55.55,0,0,0,0-1.1H375.1a.55.55,0,0,0,0,1.1Z"/></g><g id="color"><circle class="cls-2" cx="196.31" cy="35.66" r="2.08"/><circle class="cls-2" cx="346.92" cy="74.97" r="2.77" transform="translate(144.89 366.79) rotate(-67.5)"/><circle class="cls-2" cx="341.23" cy="187.2" r="4.2"/><circle class="cls-2" cx="57" cy="125.18" r="1.79"/><circle class="cls-2" cx="51.85" cy="312.3" r="3.72"/><circle class="cls-3" cx="342.17" cy="66.76" r="3.14"/><circle class="cls-3" cx="356.19" cy="70.08" r="1.06"/><circle class="cls-3" cx="259.6" cy="1.68" r="1.68"/><circle class="cls-3" cx="403.96" cy="323.31" r="2.85" transform="translate(20.12 670.26) rotate(-80.78)"/><circle class="cls-3" cx="256.63" cy="185.6" r="2.59"/><circle class="cls-3" cx="56.24" cy="115.47" r="2.96"/><path class="cls-3" d="M317,121.84a2.16,2.16,0,0,0,1.57,2.08c1.61.55,3-.58,4.53-.88,2.48-.47,4.45.84,5.8,2.78.7,1,1.43,2,2.7,2.08,1.72.14,3.21-1.21,4.64-1.94a6.18,6.18,0,0,1,4.05-.84,5.56,5.56,0,0,1,2.55,2.08,8.12,8.12,0,0,0,8.4,2.78.55.55,0,0,0-.29-1.06,7,7,0,0,1-5.48-.77c-1.35-.84-2-2.22-3.25-3.21-2.26-1.82-5.14-.73-7.37.55-1.13.66-1.9,1.28-3.25,1s-1.49-.87-2.19-1.82a6.21,6.21,0,0,0-2.73-2.23,6.63,6.63,0,0,0-3.25-.51c-1.13.11-5.26,2.26-5.37,0,0-.76-1.09-.76-1.06-.07Z"/><path class="cls-3" d="M333.17,133.92a8.57,8.57,0,0,1,9.34,0c.91.62,1.71,1.75,2.88,1.93,1.43.22,2.34-1,3.43-1.67s2.23-1,3.43-.3a18.69,18.69,0,0,1,1.79,1.5,6.85,6.85,0,0,0,3.07,1.28,7.21,7.21,0,0,0,6.09-1.86c.51-.48-.25-1.24-.76-.77a6.14,6.14,0,0,1-4.46,1.64c-1.89-.07-3-1-4.38-2.19-1.82-1.6-3.86-1.24-5.8.08-1.06.73-1.53,1.53-3.39.51a16.69,16.69,0,0,1-1.35-1.1,9.53,9.53,0,0,0-3.51-1.39,9.74,9.74,0,0,0-6.93,1.39c-.59.37,0,1.32.55.95Z"/><path class="cls-3" d="M48,162.85a2.11,2.11,0,0,1,1.78-2.78,5.9,5.9,0,0,1,1.94.26,4.72,4.72,0,0,0,2.66,0c1.39-.62,1.54-2.15,1.83-3.46a3,3,0,0,1,.51-1.39c.25-.26,1.68-.33,2.22-.51a4.78,4.78,0,0,0,1.87-1.28c1.49-1.61,3.1-6.5,6-5.11.63.29,1.21-.66.55-.95-2.33-1.06-4.38.7-5.62,2.63-.87,1.35-1.68,3.28-3.36,3.76-1.09.29-2.08,0-2.77,1.09a9.8,9.8,0,0,0-.77,2.85c-.69,2.45-3.1,1.13-4.85,1.13a3.21,3.21,0,0,0-3.1,4.16c.18.59,1.24.29,1.06-.36Z"/><path class="cls-3" d="M60.54,162.19a4.46,4.46,0,0,1,3.22-4.34c1.09-.29,2.33.14,3.21-.7s1.27-2.4,2.19-3.39a8.29,8.29,0,0,1,4.78-2.48c.69-.11.4-1.17-.29-1.06a9.2,9.2,0,0,0-4.49,2c-1.61,1.35-2.3,3.94-4.38,4.35A6.29,6.29,0,0,0,61,158.29a5.43,5.43,0,0,0-1.54,3.9c0,.69,1.13.69,1.13,0Z"/><path class="cls-2" d="M212.5,64.07a2.59,2.59,0,0,1,1.31-3.24,2.34,2.34,0,0,1,3,.8,2.29,2.29,0,0,1-3.13,3.21c-.59-.37-1.17.58-.55,1a3.53,3.53,0,0,0,4.3-.51,3.39,3.39,0,0,0,.19-4.42,3.42,3.42,0,0,0-4.13-1.09,3.67,3.67,0,0,0-2.08,4.6c.22.65,1.28.36,1.06-.3Z"/><path class="cls-2" d="M188.57,140.89c-1-2.15,2.48-2,3.43-1.57s1.71,1,2.59,1.46a.57.57,0,0,0,.84-.47,4,4,0,0,1,6.6-3.25c.55.44,1.32-.33.77-.77a5.12,5.12,0,0,0-8.47,4c.29-.15.55-.33.84-.48-1.79-.91-3.87-2.73-6-1.75a2.5,2.5,0,0,0-1.5,3.39c.3.63,1.21.08.92-.58Z"/><path class="cls-2" d="M208.84,312.13c2.59-1.75,6-1.31,6.31-5.18.11-1.46.07-2.81,1.72-3.39.8-.3,1.64-.55,2.4-.92A14.32,14.32,0,0,0,224,299c.43-.55-.33-1.32-.77-.77a13.39,13.39,0,0,1-5.58,4c-1.24.44-2.56.69-3.14,2-.77,1.75.22,3.79-1.61,5.07-1.35.95-3.17,1-4.52,1.93-.62.4-.08,1.35.51.95Z"/><path class="cls-2" d="M212.05,304a3.77,3.77,0,0,1,1.13-3.43,6.29,6.29,0,0,1,3.1-1.14,3.56,3.56,0,0,0,2.85-2,19,19,0,0,1,1.2-2.77,9.91,9.91,0,0,1,2.3-2.27,27.56,27.56,0,0,1,5.11-2.66c.66-.29.07-1.2-.55-.95a23.41,23.41,0,0,0-5.62,3.07c-1.75,1.35-2.4,2.81-3.28,4.74s-1.86,1.68-3.47,2.05a5,5,0,0,0-2.41,1.16,4.84,4.84,0,0,0-1.42,4.49c.15.73,1.2.44,1.06-.25Z"/><path class="cls-2" d="M328.1,20.85c-2.63-2.11-1.2-6.82,2.45-6.2a3.41,3.41,0,0,1,3,3.21A3.78,3.78,0,0,1,330,21.47c-.69,0-.69,1.14,0,1.1a4.91,4.91,0,0,0,4.57-4.16,4.36,4.36,0,0,0-3.33-4.67c-4.74-1.35-7.66,5-3.94,8,.55.37,1.32-.4.77-.84Z"/><path class="cls-2" d="M70.35,24.71c.4-1.57,1.17-2.08,2.33-1.53.51.18,1,.4,1.5.62a8,8,0,0,0,1.61.47,3.09,3.09,0,0,0,2.26-.47c1.93-1.5.44-5.08,3.54-5.26,2.19-.15,4,.8,5.8-1,1-1,1.57-2.08,2.89-2.74a6,6,0,0,1,5-.07c.66.25,1-.81.29-1.06a7,7,0,0,0-7.74,1.61c-.62.65-1.06,1.6-1.89,2.08a5,5,0,0,1-2.92.18,4.82,4.82,0,0,0-3.43.47c-1,.77-1.14,1.94-1.39,3.1-.33,1.46-1.28,2.41-2.88,1.94-.81-.22-1.57-.66-2.38-.91a3,3,0,0,0-3.35.62,1.94,1.94,0,0,0-.22,2.52c.47.58,1.42,0,1-.55Z"/><path class="cls-2" d="M86.81,24.67a4,4,0,0,1,3.76-3.58c1.42,0,2.7.88,4.16.59,1.93-.4,2.63-2.3,3.57-3.76,2.74-4.23,8.8-1.64,12.16-5.07.51-.51-.29-1.28-.77-.77-1.9,1.93-4.78,1.75-7.3,2.19a6.89,6.89,0,0,0-5,3.1c-.81,1.28-1.43,3.18-3.22,3.29-1.42.07-2.7-.81-4.19-.59a5,5,0,0,0-4.16,4.31c-.15.69.91,1,1,.29Z"/><path class="cls-2" d="M394.88,115.23C393,115,392.4,112.57,393,111a4.62,4.62,0,0,1,4.86-2.81,4.15,4.15,0,0,1,3.46,4.27,3.69,3.69,0,0,1-4.56,3.14.55.55,0,0,0-.29,1.06,4.89,4.89,0,0,0,5.88-3.58,5.23,5.23,0,0,0-4.35-6,5.67,5.67,0,0,0-6.2,4.16c-.51,2.26.66,4.81,3.1,5.11.69,0,.69-1.06,0-1.14Z"/><path class="cls-2" d="M405.1,124c-.58-2.08,2-4.52,4-3.1a2.87,2.87,0,0,1-.15,4.53c-.58.36,0,1.31.55,1a4,4,0,0,0-.11-6.61c-2.81-1.57-6.13,1.61-5.33,4.49a.55.55,0,1,0,1.06-.26Z"/></g></g><g id="robot"><g id="head"><path class="cls-4" d="M149.59,76.77A12.11,12.11,0,0,0,147,77.9a47.28,47.28,0,0,0-11.86,8.43C120.35,100,119.19,101.18,117,104a81.61,81.61,0,0,0-5.44,8.14c.84,2.74,1.79,5.55,2.88,8.43a129.59,129.59,0,0,0,17.3,31.21A155.37,155.37,0,0,0,163,128.37c11.28-11,12.37-15.47,12.74-17.37C178.75,94.21,158.71,74.61,149.59,76.77Z"/><path class="cls-4" d="M154.33,143c.44,2.08,2.7,2.19,4.75,4.92a12.67,12.67,0,0,1,2,9.09,14.26,14.26,0,0,0,4.6.48,9.89,9.89,0,0,0,5.26-1.43,7.74,7.74,0,0,0,2.7-3.17,26,26,0,0,0-.33-4.78c-.59-3.54-.84-6.17-2.89-8.43a10.74,10.74,0,0,0-1.42-1.32c-1.93-1.64-3.83-3.28-5.58-3.65C159.44,134,153.57,139.39,154.33,143Z"/><path d="M147.36,77.06c1.94,4.78,3.83,9.63,5.7,14.6,4.12,10.87,7.84,21.53,11.24,31.93-3.36,2.26-6.86,4.82-10.37,7.63a159.4,159.4,0,0,0-21.24,20.4q12.1-2.85,24.16-5.66a8.12,8.12,0,0,1,.69-3.72,9.13,9.13,0,0,1,3.29-3.72c1.31-1,2.3-1.72,3.79-1.79a5.75,5.75,0,0,1,3.62,1.13l21.06-18c.22-.66.47-1.31.69-1.94-.26-2.19-.66-5.14-1.39-8.57a109.88,109.88,0,0,0-5.87-18.94,113.75,113.75,0,0,0-9.35-18.14,67,67,0,0,0-15.87,1.6A60.72,60.72,0,0,0,147.36,77.06Z"/><path class="cls-1" d="M146.6,76.88q9.53,23.15,17.11,47c.22.66,1.28.4,1.06-.29q-7.56-23.86-17.12-47c-.29-.62-1.35-.36-1.05.3Z"/><path class="cls-1" d="M112.07,112.31c8.54-14.38,22.15-24.7,35.29-34.67.55-.44,0-1.38-.55-1-13.28,10.08-27,20.51-35.65,35.08-.4.58.54,1.13.91.54Z"/><path class="cls-1" d="M110.94,111.77a136.19,136.19,0,0,0,20.58,40.29c.4.55,1.35,0,.95-.55a135.27,135.27,0,0,1-20.47-40,.55.55,0,0,0-1.06.3Z"/><path class="cls-1" d="M132.73,152.39a126.87,126.87,0,0,1,31.57-28c.58-.36,0-1.31-.55-1a128.42,128.42,0,0,0-31.83,28.14c-.4.55.37,1.31.81.77Z"/><path class="cls-1" d="M147,77.35a80,80,0,0,1,25.81-4.53.55.55,0,0,0,0-1.09,82.47,82.47,0,0,0-26.1,4.56c-.66.26-.36,1.32.29,1.06Z"/><path class="cls-1" d="M172.91,72.13a119.12,119.12,0,0,1,16.71,46.35c.11.7,1.17.4,1.06-.29a119.83,119.83,0,0,0-16.82-46.61c-.4-.58-1.35,0-1,.55Z"/><path class="cls-1" d="M164.7,124a98.83,98.83,0,0,1,15.4-3c2.44-.3,4.89-.37,7.37-.59,1.32-.14,2.52-.4,3.25-1.57.36-.58-.58-1.16-.95-.54-1,1.64-4.89,1.16-6.57,1.31-2,.18-4,.4-6,.69A110.79,110.79,0,0,0,164.41,123c-.7.14-.41,1.2.29,1Z"/><path class="cls-1" d="M133.53,152.13a87.79,87.79,0,0,0,11.93-2.74c4-1.2,8-2.7,12.12-3.13.69-.08.69-1.17,0-1.1-4.09.44-7.88,1.79-11.79,3a86.1,86.1,0,0,1-12.59,2.92c-.66.11-.36,1.17.33,1.06Z"/><path class="cls-1" d="M158.13,145.38c-1.57-2.92,1.42-5.62,3.72-7s5.11-1.31,7.08.73c3.32,3.39,4.09,9.38,4,13.9a.55.55,0,0,0,1.09,0c.07-5.36-1.13-14.56-7.23-16.46-4.67-1.46-12.37,4.27-9.63,9.38.33.59,1.28,0,.95-.58Z"/><path class="cls-1" d="M156.89,146.18a13.58,13.58,0,0,1,3.39,10c0,.7,1.06.7,1.1,0a14.78,14.78,0,0,0-3.73-10.76c-.47-.55-1.24.22-.76.76Z"/><path class="cls-1" d="M160.17,157c4.05,2.74,13.07.84,14-4.6.11-.69-.95-1-1.06-.29-.84,4.71-8.91,6.28-12.41,3.94-.58-.4-1.13.55-.55.95Z"/><path class="cls-1" d="M189.11,119c-7.22,5.91-14.23,12-21.27,18.17-.55.48.25,1.25.76.77,7-6.13,14.05-12.26,21.28-18.17.55-.44-.26-1.21-.77-.77Z"/><path class="cls-1" d="M158.46,146.4A10.94,10.94,0,0,1,169,139.94c.69,0,.69-1.06,0-1.09a12,12,0,0,0-11.64,7.26c-.26.66.8.95,1.06.29Z"/><path class="cls-1" d="M160.39,149.87A12.18,12.18,0,0,1,171.74,145c.7.07.7-1,0-1.1a13.17,13.17,0,0,0-12.26,5.4c-.44.55.51,1.1.91.55Z"/><path class="cls-1" d="M161.92,153.59c1.21-1.53,3-2.22,4.79-2.92a12.39,12.39,0,0,1,6.35-1.13c.69.11.69-1,0-1.09a14.33,14.33,0,0,0-7.27,1.42,10.47,10.47,0,0,0-4.63,3c-.44.51.33,1.31.76.76Z"/><path class="cls-1" d="M124.59,117.79a3.31,3.31,0,0,1-2.59-3.87c-.08-.4.11-.58.51-.62.33-.29.62-.22.87.18a3.47,3.47,0,0,1,.66,1.1,4.91,4.91,0,0,1,.55,2.48c-.26,1.24-1,.33-1.39-.37a4.65,4.65,0,0,1-.69-2.48c0-.4-.11-.36.22-.25s.51.62.65.91a4.39,4.39,0,0,1,.44,2.48c.33-.15.62-.25,1-.4a3.47,3.47,0,0,1-1.28-2.77c-.29.14-.54.32-.84.47a1.51,1.51,0,0,1,.88,2l.8-.32a2.18,2.18,0,0,1-.76-2.67h-.95a5.5,5.5,0,0,1,.95,4c.32-.14.62-.25,1-.4a4.31,4.31,0,0,1-1-1.28c-.18-.33-.73-1.57-.51-1.89s.29-.11.51.14a2.92,2.92,0,0,1,.4,1,4.58,4.58,0,0,1,.19,2c.22-.18.47-.36.69-.51a1.91,1.91,0,0,1-1-.36c-.58-.41-1.13.54-.55.94a2.83,2.83,0,0,0,1.21.48.55.55,0,0,0,.69-.51,6.47,6.47,0,0,0-.84-3.69c-.36-.62-1.13-1.46-1.93-1s-.59,1.83-.44,2.56a5.63,5.63,0,0,0,1.75,3c.37.37.88.08,1-.4a6.48,6.48,0,0,0-1.13-4.6c-.22-.29-.77-.4-1,0a3.28,3.28,0,0,0,1.17,4.16.55.55,0,0,0,.8-.32,2.51,2.51,0,0,0-1.39-3.29.58.58,0,0,0-.83.48,4.39,4.39,0,0,0,1.6,3.54.56.56,0,0,0,.95-.41,5.3,5.3,0,0,0-1.53-4.27c-.92-.8-1.9-.43-2,.81a6.43,6.43,0,0,0,1.6,4.38c.7.76,2.08,1.49,2.59.11a6.47,6.47,0,0,0-.69-4.64c-.55-1.06-1.86-2.37-3.1-1.57s-.91,2.85-.59,4a3.93,3.93,0,0,0,3.14,2.74c.66.11,1-.95.26-1.06Z"/><path class="cls-1" d="M142.65,105.05a3.32,3.32,0,0,1-2.59-3.87c-.07-.4.11-.58.51-.62.33-.29.62-.22.88.18a4,4,0,0,1,.66,1.1,4.82,4.82,0,0,1,.54,2.48c-.25,1.24-1,.33-1.38-.36a4.63,4.63,0,0,1-.7-2.49c0-.4-.11-.36.22-.25s.51.62.66.91a4.49,4.49,0,0,1,.44,2.48c.33-.14.62-.25,1-.4a3.45,3.45,0,0,1-1.28-2.77c-.29.14-.55.33-.84.47a1.52,1.52,0,0,1,.88,2l.8-.33a2.18,2.18,0,0,1-.77-2.67h-.95a5.5,5.5,0,0,1,.95,4.05c.33-.14.62-.25,1-.4a4.23,4.23,0,0,1-1-1.27c-.18-.33-.73-1.57-.51-1.9s.29-.11.51.14a3.15,3.15,0,0,1,.4,1,4.43,4.43,0,0,1,.18,2c.22-.18.48-.36.7-.51a1.71,1.71,0,0,1-1-.36c-.59-.4-1.13.55-.55,1a2.9,2.9,0,0,0,1.2.47.56.56,0,0,0,.7-.51,6.57,6.57,0,0,0-.84-3.69c-.37-.62-1.13-1.46-1.94-.94s-.58,1.82-.43,2.55a5.57,5.57,0,0,0,1.75,3c.36.36.87.07.95-.41a6.49,6.49,0,0,0-1.13-4.59c-.22-.3-.77-.41-.95,0a3.28,3.28,0,0,0,1.16,4.16.56.56,0,0,0,.81-.33,2.52,2.52,0,0,0-1.39-3.29.6.6,0,0,0-.84.48A4.39,4.39,0,0,0,142,105a.56.56,0,0,0,.95-.4,5.28,5.28,0,0,0-1.54-4.27c-.91-.81-1.89-.44-2,.8a6.47,6.47,0,0,0,1.61,4.38c.69.77,2.08,1.5,2.59.11s0-3.36-.69-4.64c-.55-1-1.87-2.37-3.11-1.57s-.91,2.85-.58,4a3.9,3.9,0,0,0,3.14,2.74c.62.11.95-1,.25-1.06Z"/><path class="cls-1" d="M132.62,121.07q3.72-4.16,7.66-8.1c.51-.51-.29-1.28-.76-.77q-3.95,4-7.67,8.11c-.47.51.29,1.31.77.76Z"/><path class="cls-1" d="M132.43,121.18a74,74,0,0,0,7.34,2.41.55.55,0,0,0,.69-.51,97.08,97.08,0,0,1,.22-10.22c0-.69-1.06-.69-1.09,0a94.07,94.07,0,0,0-.22,10.22c.22-.18.47-.36.69-.51-2.48-.69-4.92-1.5-7.33-2.41-.66-.29-.92.77-.3,1Z"/><path class="cls-1" d="M133.71,120.38c2.23-1.24,3.72-3.65,5.29-5.62.44-.55-.29-1.31-.76-.77-1,1.17-2,2.38-3,3.54-.73.84-1.68,1.5-2.34,2.41-.36.51.44,1.1.88.66,2.08-2.12,4.12-4.27,6.06-6.5l-.77-.76a71.06,71.06,0,0,0-4.52,6c-.33.51.47,1.13.87.65,1.28-1.56,2.59-3.1,3.87-4.67l-.88-.65c-1.27,1.71-2.48,3.46-3.68,5.22-.33.51.47,1.16.87.65,1.21-1.57,2.45-3.1,3.65-4.67l-.87-.66c-1,1.54-2,3.07-3,4.6a.56.56,0,0,0,.88.66,1.77,1.77,0,0,0,.51-.84c.18-.4-.33-.77-.66-.66-.8.19-1.6.37-2.4.51-.44.11-.55.81-.15,1a7.37,7.37,0,0,0,2.66.69.54.54,0,0,0,.15-1.06,14.27,14.27,0,0,0-2.45-.43.54.54,0,0,0-.14,1c.95.26,1.9.52,2.88.73.59.15,1-.69.44-1-.18-.07-.33-.18-.51-.26-.18.33-.37.62-.55,1l1.21.59A.57.57,0,0,0,138,121a6.64,6.64,0,0,1-.84-2.59c-.29.18-.62.36-.91.55.77.73.77,2,1.35,2.84a.55.55,0,0,0,1-.43c-.33-1.1-.62-2.19-.95-3.29-.26.22-.55.4-.81.62.7.4,1.1,2.23,1.43,2.92a.55.55,0,0,0,1.06-.29,9.54,9.54,0,0,1-.15-5.55h-1.06a25.48,25.48,0,0,1,.33,5,.55.55,0,0,0,1.1,0c.1-2.22-.19-5.11.58-7.19-.37,0-.73-.11-1.06-.14,0,3-.8,5.8-.25,8.75a8.17,8.17,0,0,0,.51-.69c-1.54,0-2.78-1.13-4.27-1.46-.59-.11-1,.73-.44,1a26.41,26.41,0,0,0,4.23,1.6c.11-.36.18-.69.29-1.06a25.35,25.35,0,0,1-5.14-1.89v1a7.87,7.87,0,0,0,2-2.3,26.82,26.82,0,0,1,3.24-4.16c.48-.52-.29-1.28-.76-.77-.84.91-1.65,1.9-2.41,2.88s-1.46,2.59-2.63,3.43a.55.55,0,0,0,0,1,29.52,29.52,0,0,0,5.4,2,.55.55,0,0,0,.29-1.06,21.2,21.2,0,0,1-4-1.46l-.44,1c1.6.36,2.84,1.49,4.56,1.49a.55.55,0,0,0,.51-.69c-.51-2.81.26-5.62.29-8.47a.54.54,0,0,0-1.06-.14c-.8,2.22-.47,5.14-.62,7.48h1.1a28.3,28.3,0,0,0-.37-5.29c-.11-.59-.91-.48-1.05,0a10.79,10.79,0,0,0,.14,6.09l1.06-.29c-.47-1.1-.8-3-1.9-3.58a.55.55,0,0,0-.8.62c.33,1.1.62,2.19.95,3.29l1-.44c-.65-1-.62-2.23-1.53-3.07-.44-.4-1,0-.91.55a7.17,7.17,0,0,0,1,2.85l.77-.77c-.4-.18-.8-.4-1.2-.58-.62-.29-1.17.62-.55,1,.18.07.33.18.51.25l.44-1c-.95-.26-1.9-.51-2.89-.73,0,.36-.11.73-.14,1a11.18,11.18,0,0,1,2.15.41c0-.37.11-.73.15-1.06a5.19,5.19,0,0,1-2.08-.55c0,.33-.08.66-.15,1,.8-.19,1.61-.37,2.41-.52l-.66-.65-.22.36.88.66c1-1.53,2-3.07,3-4.6.33-.51-.47-1.17-.87-.66-1.21,1.57-2.45,3.11-3.65,4.68l.87.65c1.21-1.75,2.45-3.5,3.69-5.22.36-.51-.48-1.13-.88-.65-1.27,1.57-2.59,3.1-3.87,4.67l.88.66A66,66,0,0,1,140,114.1c.44-.54-.29-1.31-.76-.76-2,2.22-4,4.38-6.06,6.49l.87.66c.7-.95,1.76-1.72,2.56-2.63l2.66-3.1-.76-.77c-1.5,1.86-3,4.24-5.08,5.44-.84.37-.29,1.31.33.95Z"/><path class="cls-1" d="M142.25,83.52c.62-.62,2.7-3,3.76-2.3.37.25.7,1.24.88,1.64.4.8.73,1.61,1.06,2.45.18.47,1,.29.8-.22A29.12,29.12,0,0,0,147.4,82c-.29-.58-.62-1.53-1.28-1.82-1.39-.59-3.58,1.86-4.41,2.7-.41.4.18,1,.54.62Z"/><path class="cls-1" d="M158.71,122.06a.45.45,0,0,1,.15-.73.79.79,0,0,1,1,.29,1,1,0,0,1,0,1.06c-.32.4-.91-.11-1.2-.33s-.84.4-.4.69c.65.52,1.71.92,2.3.08a1.79,1.79,0,0,0-.26-2.27,1.65,1.65,0,0,0-2.15,0,1.28,1.28,0,0,0,.14,1.93c.44.37.84-.36.44-.69Z"/><path class="cls-1" d="M129.92,145.38a23.21,23.21,0,0,0,1.49,1.82c.26.26.51.52.88.44s.87-.69,1.2-1l1.9-1.79c.51-.48-.25-1.24-.77-.77-.36.33-.73.7-1.09,1s-1.06.77-1.24,1.14,0,.32-.15.18a3,3,0,0,1-.44-.55c-.32-.44-.69-.84-1-1.28s-1.2.22-.76.77Z"/><path class="cls-1" d="M137.22,143.26c.58-.43,1.16-.91,1.71-1.35a.54.54,0,1,0-.77-.76c-.58.43-1.16.91-1.71,1.35a.54.54,0,1,0,.77.76Z"/><path class="cls-1" d="M132.8,152.61c2.26-.48,4.53-1,6.75-1.46.7-.15.4-1.21-.29-1.06-2.26.47-4.53,1-6.75,1.46a.55.55,0,0,0,.29,1.06Z"/><path class="cls-1" d="M122.07,121.8l-.55,1.65c-.11.32.4.47.51.14l.55-1.64a.27.27,0,1,0-.51-.15Z"/><path class="cls-1" d="M123.42,121.8c-.07.4-.18.84-.26,1.24s.48.48.52.15.18-.84.25-1.24-.44-.51-.51-.15Z"/><path class="cls-1" d="M124.73,121.29a7.48,7.48,0,0,1,.08,1.35c0,.37.51.37.54,0a6.77,6.77,0,0,0-.07-1.49c-.07-.33-.58-.19-.55.14Z"/><path class="cls-1" d="M146.08,104.36a12.49,12.49,0,0,0,1.94-.48c.33-.11.18-.62-.15-.51a15.12,15.12,0,0,1-1.93.48c-.33,0-.18.54.14.51Z"/><path class="cls-1" d="M146.6,105.27a10.07,10.07,0,0,0,1.56,0c.33,0,.37-.58,0-.54a7.4,7.4,0,0,1-1.56,0c-.37,0-.37.51,0,.55Z"/><path class="cls-1" d="M146.38,107l1.68.33c.32.07.47-.48.14-.51l-1.68-.33a.26.26,0,1,0-.14.51Z"/><path class="cls-5" d="M132.18,88.92a52.12,52.12,0,0,0-7.48,18c-1.57,7.56-4.2,20.11,3,26.35,7.33,6.39,19.89,1.9,21.2,1.43l-16,17.62a108.35,108.35,0,0,1-21.39-40.58,100.36,100.36,0,0,1,20.66-22.81Z"/><path class="cls-6" d="M110.83,111.55c5.77-6.46,11.53-13,17.26-19.42-.18,1.57-1.93,20.11,11.57,30.8A30.88,30.88,0,0,0,155,129.18c-7.7,7.37-15.44,14.7-23.14,22.08a133.61,133.61,0,0,1-13-20.48A127,127,0,0,1,110.83,111.55Z"/><path class="cls-5" d="M160.17,139.25a19.32,19.32,0,0,1,3.69,4.82,20.12,20.12,0,0,1,2.3,8.76c-1.64.36-3.29.76-5,1.13a37.68,37.68,0,0,0-2.3-6.21c-.47-1.06-1-2-1.53-2.92a5.78,5.78,0,0,1,.62-3.43A5.51,5.51,0,0,1,160.17,139.25Z"/></g><g id="leg_right" data-name="leg right"><path class="cls-4" d="M48.82,176.47a43.83,43.83,0,0,0-3.17,5.26,44.8,44.8,0,0,0-4.31,13.87A54.8,54.8,0,0,0,41,212c.22,1.46.44,2.67.62,3.51,1.35.65,3.54,1.71,6.21,3,12,5.8,15.87,7.37,23.9,11.31,6.9,3.39,5.26,2.85,13.54,7,9,4.49,13.91,7,20.4,9.56A158.33,158.33,0,0,0,125.94,253c9.49,2.48,12.88,2.59,27.41,5.59,7.77,1.6,14.09,3,18,4,.91-3.39,1.82-6.78,2.7-10.22-1.5-.25-3.69-.65-6.39-1.13-12.81-2.15-14.53-2-20.4-3.17-5.15-1-9.71-2.45-18.8-5.26-4.56-1.42-8.87-2.73-14.34-4.78-2.59-.95-6.86-2.59-21.53-9.23-8.65-3.94-13-5.91-19.31-8.94-6.5-3.14-14.49-7.12-23.61-12,0-1.5.07-3.84.14-6.68.26-8.47.51-10.66.33-14.35A50.66,50.66,0,0,0,48.82,176.47Z"/><path class="cls-1" d="M48.13,175.64a57.83,57.83,0,0,0-7.3,40.14c.11.7,1.17.4,1.06-.29a56.59,56.59,0,0,1,7.19-39.31c.36-.58-.59-1.16-.95-.54Z"/><path class="cls-1" d="M48.09,176.77c2.26,4.23,1.39,10,1.39,14.63,0,5.11,0,10.18,0,15.29a.55.55,0,0,0,1.1,0c0-5.58,0-11.13,0-16.71,0-4.49.66-9.64-1.53-13.76-.33-.62-1.28-.07-.95.55Z"/><path class="cls-1" d="M42.36,216.18A7.82,7.82,0,0,1,49.77,208c.69,0,.69-1.13,0-1.09a9,9,0,0,0-8.5,9.3.55.55,0,0,0,1.09,0Z"/><path class="cls-1" d="M41.92,216.91c16.65,6.43,32.16,15.26,48.14,23A229.81,229.81,0,0,0,113.64,250c8.83,3.1,17.88,5,27,6.78l33,6.54c.69.14,1-.92.29-1.06-9.67-1.94-19.38-3.83-29.05-5.77-9.38-1.86-18.8-3.57-27.92-6.53-16.79-5.48-32.37-14-48.07-22a286.59,286.59,0,0,0-26.64-12.16c-.69-.25-1,.81-.33,1.06Z"/><path class="cls-1" d="M49.33,208.34c31.32,16.2,63.29,32.08,97.89,39.92a195.93,195.93,0,0,0,29.12,4.42c.69,0,.69-1.06,0-1.1C141.27,249,108.06,236,76.67,220.85c-9-4.34-17.88-8.9-26.75-13.5-.66-.29-1.21.66-.59,1Z"/><path class="cls-1" d="M55.24,221.73a9.71,9.71,0,0,1,5.26-7.34c.62-.32.07-1.27-.55-.94a10.48,10.48,0,0,0-5.76,8c-.11.69,1,1,1.05.29Z"/><path class="cls-1" d="M69,228.12c1-2.74,2.11-5.81,5.14-6.72a.55.55,0,0,0-.29-1.06c-3.47,1-4.82,4.35-5.91,7.49-.26.65.8.94,1.06.29Z"/><path class="cls-1" d="M90.65,238.77a10,10,0,0,1,4.92-7.44.55.55,0,0,0-.54-1,11,11,0,0,0-5.48,8.36c-.07.73,1,.73,1.1,0Z"/><path class="cls-1" d="M108.13,247.13c1.06-3.5,2.84-6.79,6.31-8.39.62-.29.08-1.24-.55-1-3.68,1.75-5.65,5.29-6.78,9.05a.53.53,0,0,0,1,.29Z"/><path class="cls-1" d="M126.63,253.15a14.43,14.43,0,0,1,1.9-4.63c.47-.73,2.59-3.87,3.69-3.65.69.15,1-.91.29-1.06-1.61-.29-3.21,1.86-4.09,3a15.23,15.23,0,0,0-2.85,6.06c-.14.7.92,1,1.06.29Z"/><path class="cls-1" d="M144,256.8a14.76,14.76,0,0,1,4.64-7.51c.55-.48-.26-1.25-.77-.77a16,16,0,0,0-4.92,8,.55.55,0,0,0,1.05.29Z"/><path class="cls-1" d="M159.41,259.54a14.76,14.76,0,0,1,5-8.21c.55-.44-.26-1.24-.77-.77a15.62,15.62,0,0,0-5.25,8.69c-.15.66.91.95,1.06.29Z"/><path class="cls-7" d="M48,177.5c-.62,4.52-1.09,9.45-1.38,14.7-.3,5.77-.33,11.14-.15,16.1a241.54,241.54,0,0,0,34.63,21.57,246.49,246.49,0,0,0,92.78,25.95v6.53c-1.35-.11-3.36-.29-5.77-.62a146.84,146.84,0,0,1-21.24-4.42c-15.36-3.94-13.9-2.19-25.51-5.47a174.06,174.06,0,0,1-21.24-7.59c-6.35-2.74-5.77-3-22.34-11.24-6.82-3.43-7.3-3.58-19.12-9.42-7.34-3.65-13.29-6.6-17.08-8.5a55.14,55.14,0,0,1-1-6.64,51.22,51.22,0,0,1,3.91-24.16A42.27,42.27,0,0,1,48,177.5Z"/><path class="cls-8" d="M44.48,189.18l1.53,24q15.1,9,30.22,17.92c-6.2-2.55-12.59-5.32-19.12-8.35-5-2.3-9.78-4.64-14.42-7a40.48,40.48,0,0,1-1.2-15A37.52,37.52,0,0,1,44.48,189.18Z"/></g><g id="leg_left" data-name="leg left"><path class="cls-4" d="M8.93,191.4a41.8,41.8,0,0,0-3.17,5.26,44.8,44.8,0,0,0-4.31,13.87A54.8,54.8,0,0,0,1.12,227c.22,1.46.44,2.66.62,3.5l6.21,3c12,5.81,15.87,7.37,23.9,11.32,6.9,3.39,5.26,2.84,13.54,7,9,4.49,13.91,7,20.4,9.57a157.82,157.82,0,0,0,20.26,6.53c9.49,2.48,12.88,2.59,27.41,5.58,7.77,1.61,14.08,3,18,4,.91-3.39,1.82-6.79,2.7-10.22-1.5-.25-3.69-.66-6.39-1.13-12.81-2.15-14.53-2-20.4-3.17-5.15-1-9.71-2.45-18.8-5.26-4.56-1.42-8.87-2.74-14.34-4.78-2.59-1-6.86-2.59-21.53-9.23-8.65-3.95-13-5.92-19.31-8.95-6.5-3.14-14.49-7.11-23.61-12,0-1.49.07-3.83.14-6.68.26-8.46.51-10.65.33-14.34A51.38,51.38,0,0,0,8.93,191.4Z"/><path class="cls-1" d="M8.24,190.56a57.86,57.86,0,0,0-7.3,40.15c.11.69,1.17.4,1.06-.29a56.53,56.53,0,0,1,7.19-39.31c.36-.58-.59-1.13-.95-.55Z"/><path class="cls-1" d="M8.2,191.69c2.26,4.24,1.39,10,1.39,14.64,0,5.11,0,10.18,0,15.29a.55.55,0,0,0,1.1,0c0-5.58,0-11.13,0-16.71,0-4.49.66-9.64-1.53-13.76-.33-.62-1.28-.08-1,.54Z"/><path class="cls-1" d="M2.47,231.11a7.82,7.82,0,0,1,7.41-8.21c.69,0,.69-1.13,0-1.1a9,9,0,0,0-8.5,9.31.55.55,0,0,0,1.09,0Z"/><path class="cls-1" d="M2,231.84c16.65,6.42,32.16,15.26,48.14,23a229.74,229.74,0,0,0,23.58,10.07c8.83,3.1,17.88,5,27,6.79,11,2.19,22,4.34,33,6.53.69.15,1-.91.29-1.05-9.67-1.94-19.38-3.84-29-5.77-9.38-1.86-18.8-3.58-27.92-6.53-16.79-5.48-32.37-14-48.07-22A286.59,286.59,0,0,0,2.36,230.78c-.69-.25-.95.8-.33,1.06Z"/><path class="cls-1" d="M9.44,223.26c31.32,16.21,63.29,32.08,97.89,39.93a195.93,195.93,0,0,0,29.12,4.42c.69,0,.69-1.06,0-1.1-35.07-2.63-68.29-15.55-99.67-30.73-9-4.34-17.89-8.9-26.75-13.5-.66-.29-1.21.66-.59,1Z"/><path class="cls-1" d="M15.35,236.66a9.71,9.71,0,0,1,5.26-7.34c.62-.33.07-1.28-.55-.95a10.5,10.5,0,0,0-5.76,8c-.11.69.94,1,1,.29Z"/><path class="cls-1" d="M29.08,243c1-2.73,2.11-5.8,5.14-6.71a.55.55,0,0,0-.29-1.06c-3.47,1-4.82,4.34-5.91,7.48-.26.66.8.95,1.06.29Z"/><path class="cls-1" d="M50.76,253.7a9.91,9.91,0,0,1,4.92-7.44.55.55,0,0,0-.54-.95,11,11,0,0,0-5.48,8.36c-.07.72,1,.72,1.1,0Z"/><path class="cls-1" d="M68.24,262.06c1.06-3.5,2.84-6.79,6.31-8.39.62-.3.07-1.25-.55-.95-3.68,1.75-5.65,5.29-6.78,9a.53.53,0,1,0,1,.29Z"/><path class="cls-1" d="M86.74,268.12a14.57,14.57,0,0,1,1.9-4.64c.47-.73,2.59-3.87,3.69-3.65.69.15,1-.91.29-1.06-1.61-.29-3.21,1.87-4.09,3a15.23,15.23,0,0,0-2.85,6.06c-.14.65.92.94,1.06.29Z"/><path class="cls-1" d="M104.11,271.73a14.79,14.79,0,0,1,4.64-7.52c.55-.47-.26-1.24-.77-.76a15.92,15.92,0,0,0-4.92,8,.55.55,0,0,0,1,.29Z"/><path class="cls-1" d="M119.52,274.47a14.76,14.76,0,0,1,5-8.21c.55-.44-.26-1.24-.77-.77a15.59,15.59,0,0,0-5.25,8.69c-.15.65.91,1,1.06.29Z"/><path class="cls-7" d="M7.8,192.1A119.41,119.41,0,0,0,5.68,207a113.43,113.43,0,0,0-.14,16.09,240.66,240.66,0,0,0,34.63,21.57,246.49,246.49,0,0,0,92.78,26v6.53c-1.35-.11-3.36-.29-5.77-.62a148.44,148.44,0,0,1-21.24-4.41c-15.37-4-13.91-2.19-25.51-5.48A174.06,174.06,0,0,1,59.19,259c-6.35-2.74-5.77-3-22.34-11.24-2.23-1.13-7.88-3.91-19.12-9.42-3.76-1.82-12.45-6.09-16.1-7.88a54.28,54.28,0,0,1-1.06-6.83,54.82,54.82,0,0,1,3.8-24.3A51.48,51.48,0,0,1,7.8,192.1Z"/><path class="cls-8" d="M3.53,204l1.53,24q15.12,9,30.22,17.91c-6.2-2.55-12.59-5.32-19.12-8.35-5-2.3-9.78-4.64-14.42-7a40.46,40.46,0,0,1-1.2-15A40,40,0,0,1,3.53,204Z"/></g><g id="torso"><path class="cls-4" d="M136.63,159.65q9.92-2.62,20.33-5a594.45,594.45,0,0,1,58.61-10.19,55.81,55.81,0,0,1,2.81,6.72,61.32,61.32,0,0,1,2.38,9.09c4.12,22.52,5,30.95,5,30.95,2.74,27.51,4.6,55.84,5,61.42a28.2,28.2,0,0,1-4.12,5.18,29.57,29.57,0,0,1-4.53,3.69A70.34,70.34,0,0,1,209,268c-4.89,1.94-6.6,2.52-16.86,6.28-7.23,2.67-9.05,3.36-12.56,4.35A97.82,97.82,0,0,1,169,281a87.46,87.46,0,0,1-18,1.31C140.43,280.82,134.55,229.25,136.63,159.65Z"/><path d="M118,173.52c.62,2,1.5,4.82,2.41,8.32,1.68,6.28,3.32,13.8,5.26,27.63.8,5.76.54,4.67,2.62,22.15,2.3,19.31,2.89,23,2.85,30a117.16,117.16,0,0,1-1.53,18.43l21.93,2.63c-.69-12.16-1.42-22-2-28.51-2.44-30-3.9-33-5-52-.26-4.49-.77-8.76-1.76-17.33-.76-6.5-1.35-10.7-3.06-15.81a59.16,59.16,0,0,0-3.94-9C129.81,164.58,123.89,169.07,118,173.52Z"/><path class="cls-1" d="M135.76,160c3.06,7.08,4.34,14.7,5.36,22.33,1.13,8.14,2.12,16.31,3.07,24.49q2.79,24.09,4.74,48.25c.73,9.12,1.39,18.28,1.94,27.41,0,.69,1.13.69,1.09,0q-3-49.5-9.56-98.65c-1.13-8.32-2.37-16.65-5.73-24.38-.22-.66-1.17-.11-.91.55Z"/><path class="cls-1" d="M136.19,160.45a805.79,805.79,0,0,1,80-15.58c.69-.11.4-1.17-.29-1.06a805.79,805.79,0,0,0-80,15.58.55.55,0,0,0,.29,1.06Z"/><path class="cls-1" d="M215.35,145.09c3.07,6.09,4.2,12.88,5.41,19.52,1.24,6.94,2.37,13.87,3.35,20.84q3.07,21.36,4.57,42.89c.54,8.1.95,16.2,1.16,24.3,0,.7,1.14.7,1.1,0a593.56,593.56,0,0,0-8.8-86.2c-1.31-7.45-2.48-15.07-5.87-21.94-.29-.58-1.24,0-.92.59Z"/><path class="cls-1" d="M151.41,283.19c12.27,0,24.27-2.81,35.84-6.64,5.95-2,11.79-4.2,17.59-6.5a103.48,103.48,0,0,0,13.65-6.2A39.54,39.54,0,0,0,231,253.19c.4-.58-.55-1.13-.95-.55-6.1,8.32-15.88,12.59-25.22,16.28-10.77,4.23-21.68,8.32-33,10.84a93.52,93.52,0,0,1-20.4,2.34.55.55,0,0,0,0,1.09Z"/><path class="cls-1" d="M135.25,159.39l-9.53,7.23c-2.7,2-6,3.94-8.25,6.46-.47.51.29,1.31.77.77a25.28,25.28,0,0,1,4.27-3.43l4.34-3.29c3-2.26,6-4.52,8.94-6.79.55-.4,0-1.38-.54-1Z"/><path class="cls-1" d="M117.73,173.88a295.6,295.6,0,0,1,7.77,40.22c1.79,13.43,3.47,27,4.42,40.51a117.94,117.94,0,0,1-.48,24.06c-.11.69.95,1,1.06.29,1.9-13.8.37-27.67-1.13-41.43s-3-27.41-5.44-40.95c-1.39-7.73-3-15.4-5.14-23-.22-.73-1.28-.44-1.06.25Z"/><path class="cls-1" d="M129.33,280a76.62,76.62,0,0,0,11.5,1.78,46.13,46.13,0,0,1,6.24,1.21,9.36,9.36,0,0,0,4.71.36c.69-.14.4-1.2-.29-1.06-2,.44-3.8-.29-5.66-.76a38.37,38.37,0,0,0-5-.84c-3.76-.48-7.56-.69-11.21-1.75a.55.55,0,0,0-.29,1.06Z"/><path class="cls-1" d="M150.32,179.36a490.44,490.44,0,0,1,9.49,77.22c0,.7,1.13.7,1.09,0a489.28,489.28,0,0,0-9.52-77.51c-.15-.7-1.21-.41-1.06.29Z"/><path class="cls-1" d="M151.56,179.5a166.64,166.64,0,0,1,58-11,.55.55,0,0,0,0-1.09,167.19,167.19,0,0,0-58.28,11.06c-.66.25-.37,1.31.29,1.05Z"/><path class="cls-1" d="M209.59,168.3a572.39,572.39,0,0,1,11.35,66.17c.07.69,1.17.69,1.09,0A569.91,569.91,0,0,0,210.65,168c-.15-.7-1.21-.4-1.06.29Z"/><path class="cls-1" d="M160.06,257.42a288,288,0,0,0,34.75-7.7c9.81-2.92,19.41-6.93,27.22-13.72.55-.47-.25-1.24-.76-.77-8,6.94-17.89,10.92-27.92,13.8a293.16,293.16,0,0,1-33.58,7.37c-.69.11-.4,1.17.29,1Z"/><path class="cls-1" d="M160,240.93c3.58-2.85,8.54-2.16,11.83.76s4.56,7.27,4.74,11.54c0,.69,1.13.69,1.1,0-.22-5-1.86-10-6.06-13.11a10.2,10.2,0,0,0-12.41,0c-.55.48.26,1.25.8.81Z"/><path class="cls-1" d="M159.33,234.07c5.11-3.47,11.75-2.34,16.24,1.6,4.78,4.16,6.79,10.37,7.41,16.5.08.69,1.17.69,1.1,0-.7-6.72-3-13.54-8.43-17.85-4.82-3.79-11.65-4.74-16.86-1.2-.59.36,0,1.31.54.95Z"/><path class="cls-1" d="M159.11,227.06c7-2.67,15.08-2.74,20.66,2.81,5.33,5.29,9.27,12.77,9.27,20.4a.55.55,0,0,0,1.1,0c0-8-4.2-16.17-10-21.61s-14.2-5.36-21.31-2.66c-.63.26-.33,1.31.32,1.06Z"/><path class="cls-1" d="M168.2,238.74a33.08,33.08,0,0,0-5.62,5.91,33.71,33.71,0,0,0-2.33,3.65c-.33.62-.59,1-.26,1.64s1.24.08.95-.55c-.15-.32,1.35-2.37,1.53-2.66a32.79,32.79,0,0,1,2.12-2.88A31.26,31.26,0,0,1,169,239.5c.52-.43-.25-1.24-.8-.76Z"/><path class="cls-1" d="M174.26,244.61a19.51,19.51,0,0,0-4.53,4.89c-1.2,1.76-2.51,3.62-2.51,5.81a.55.55,0,0,0,1.09,0c0-1.94,1.31-3.69,2.37-5.26a18.27,18.27,0,0,1,4.16-4.52c.55-.41,0-1.35-.58-.92Z"/><path class="cls-1" d="M183,232.83c3.21.62,6.42,1.35,9.67,1.89,2.92.48,5.18-.29,8-.65a16.4,16.4,0,0,1,14.74,6.05c.44.55,1.21-.21.77-.76a17.51,17.51,0,0,0-13.18-6.5c-2.95-.07-5.73,1.24-8.65,1-3.68-.29-7.44-1.35-11.09-2.08-.7-.14-1,.92-.29,1Z"/><path class="cls-1" d="M189,241.88c2.92-2.52,6.83-3.07,10.55-3.22a10.79,10.79,0,0,1,5.77.92,16.62,16.62,0,0,1,4.09,3.72c.47.51,1.24-.26.76-.77a16.7,16.7,0,0,0-4.78-4.16,11.71,11.71,0,0,0-5.8-.8c-4.05.18-8.14.8-11.32,3.54-.58.47.22,1.24.73.77Z"/><path class="cls-1" d="M173.71,192.68c2.78,1.61,4.16,4.82,5.44,7.63a32.39,32.39,0,0,1,2.92,10.07c.58,5.77-1.35,12-6.46,15.22-.58.36,0,1.31.55,1,5.44-3.4,7.59-10,7-16.17a34.83,34.83,0,0,0-3.07-10.62c-1.35-3-2.85-6.31-5.8-8a.56.56,0,0,0-.59,1Z"/><path class="cls-1" d="M174.15,192c.58-2.66,2.92-5.58,5.8-3.69,1.76,1.17,3,3.29,4.05,5.08a31.34,31.34,0,0,1,3.36,24.52c-1.13,4.09-3.06,8.91-6.42,11.64-.55.44.22,1.21.77.77,3.94-3.21,6.13-9.12,7.15-14a32.34,32.34,0,0,0-.4-15.18c-1.24-4.56-3.51-9.67-7-13s-7.48-.62-8.39,3.54c-.11.69.94,1,1.09.29Z"/><path class="cls-1" d="M176,194.32c-.41,1.61-3,.33-3.69-.07a3.85,3.85,0,0,1-1.61-2.85,6.47,6.47,0,0,1,1.32-5.25c2.41-2.81,7.22-2.34,8,1.64.15.69,1.2.4,1.06-.29-1.13-6-9.13-5.08-11.06-.08-.88,2.27-.8,5.77,1.24,7.45,1.5,1.2,5.15,2.48,5.8-.22.15-.69-.91-1-1.05-.33Z"/><path class="cls-1" d="M191.85,187.53c-3.17-1-4.93-7.19-.87-8.35,1.31-.37,2.51-.33,3.39.91a6.22,6.22,0,0,1,.77,2.11c.32,1.61-.19,7.23-3.18,5-.58-.4-1.13.55-.55.95,2.48,1.83,4.6-1,4.89-3.28.33-2.45-.36-6.79-3.5-7-6.53-.51-6.75,9-1.24,10.69.69.22,1-.84.29-1.06Z"/><path class="cls-1" d="M192.18,184a1.14,1.14,0,0,1-.55-.81c0-.29.26-.54.55-.32a1,1,0,0,1,.33.87c0,.15-.07.18-.18.22s-.11-.07-.08,0c0-.69-1.13-.69-1.09,0a1.22,1.22,0,0,0,1.86.91c.91-.54.69-1.9.15-2.59a1.39,1.39,0,0,0-2.34.11,2,2,0,0,0,.84,2.56c.55.4,1.09-.55.51-.95Z"/><path class="cls-1" d="M191.74,183.48c.22,0,.44.11.66.15a.51.51,0,0,0,.66-.37.52.52,0,0,0-.37-.65c-.22,0-.44-.11-.66-.15a.5.5,0,0,0-.65.37.52.52,0,0,0,.36.65Z"/><path class="cls-1" d="M154.52,177.79c-.55,2.12-.15,7.44,3.32,6.39.65-.22.4-1.28-.3-1.06-2.44.73-2.29-3.76-2-5a.54.54,0,0,0-1-.29Z"/><path class="cls-1" d="M156.63,183.74a1.75,1.75,0,0,0,1.21,1.79,2.24,2.24,0,0,0,2.3-.7,3.17,3.17,0,0,0,1-2.44,1.61,1.61,0,0,0-1.68-1.46c-.69.07-.69,1.17,0,1.09,1.2-.11.29,1.64-.11,2s-1.79.73-1.64-.33c.11-.7-1-.66-1.1,0Z"/><path class="cls-1" d="M158,176.47c-.73,2.16-1,5.66,2,6.14.7.11,1-1,.3-1.06-2.34-.37-1.76-3.21-1.21-4.78a.55.55,0,0,0-1.06-.3Z"/><path class="cls-1" d="M161.16,175.31c-.66,2.33.07,6.49,3.32,6.09.69-.07.69-1.17,0-1.09-2.48.29-2.74-3-2.26-4.75.18-.65-.88-.91-1.06-.25Z"/><path class="cls-1" d="M164,174.65c-.21,2.08,0,4.82,2.63,5.07.7.08.7-1,0-1.09-1.86-.22-1.68-2.67-1.53-4,.07-.69-1-.69-1.1,0Z"/><path class="cls-1" d="M166.23,179.21c1.13,0,.73,1.75.26,2.26-.66.73-2.08.55-2-.62,0-.69-1.06-.69-1.1,0-.11,2.12,2.6,2.78,3.87,1.39,1.13-1.2,1.13-4.16-1.06-4.12-.65,0-.65,1.09,0,1.09Z"/><path class="cls-1" d="M168.53,173.85a4.52,4.52,0,0,0,.44,3.43c.55.91,1.53,1.79,2.66,1.38.66-.25.37-1.31-.29-1-.84.29-1.46-.77-1.68-1.43a3.54,3.54,0,0,1-.07-2,.55.55,0,0,0-1.06-.29Z"/><path class="cls-1" d="M171.19,173.59a3.26,3.26,0,0,0,2.05,4c.65.26.95-.8.29-1.06a2.16,2.16,0,0,1-1.28-2.63.55.55,0,0,0-1.06-.29Z"/><path class="cls-1" d="M173.42,177.1a1.24,1.24,0,0,1,.44,2.33c-.84.55-2.45.11-2.45-1a.55.55,0,0,0-1.09,0c0,2.12,2.88,3.07,4.41,1.75a2.32,2.32,0,0,0-1.31-4.12c-.73-.08-.69,1,0,1.06Z"/><path class="cls-1" d="M160.06,204.29l.66,5.14c.07.69,1.17.69,1.09,0-.21-1.71-.43-3.43-.65-5.14-.11-.7-1.21-.73-1.1,0Z"/><path class="cls-1" d="M160.61,204.61a15.31,15.31,0,0,0,5-.58c.91-.22,1.83-.44,2.74-.69.65-.19,2.41-1,3-.62s1.13-.55.54-.95c-1.2-.77-3,.29-4.19.58-2.27.58-4.75,1.39-7.12,1.13-.69,0-.69,1.06,0,1.13Z"/><path class="cls-1" d="M171.08,202.57c.26,1.35.55,2.7.81,4.05.14.69,1.2.4,1.06-.29-.26-1.35-.55-2.7-.81-4.05-.14-.7-1.16-.4-1.06.29Z"/><path class="cls-1" d="M161.56,210a108.17,108.17,0,0,0,10.66-2.74c.65-.22.4-1.28-.3-1.06A107.26,107.26,0,0,1,161.27,209c-.66.14-.37,1.2.29,1.06Z"/><path class="cls-1" d="M162.29,213.37a30.79,30.79,0,0,0,.4,4.09c.11.69,1.17.4,1.06-.29a27.16,27.16,0,0,1-.37-3.8.55.55,0,1,0-1.09,0Z"/><path class="cls-1" d="M163,213.7c1.2-.87,3.58-.58,5-.91,1.75-.37,3.47-.88,5.18-1.31a.55.55,0,0,0-.29-1.06c-1.93.51-3.87,1.09-5.84,1.42-1.5.26-3.36,0-4.63.88-.55.43,0,1.38.58,1Z"/><path class="cls-1" d="M163.68,218.23c3.68-.81,7.37-1.65,11-2.45.7-.14.41-1.2-.29-1.06q-5.52,1.26-11.06,2.45a.55.55,0,0,0,.3,1.06Z"/><path class="cls-1" d="M173,211c.4,1.35.84,2.74,1.24,4.09.22.66,1.28.4,1.06-.29-.4-1.35-.84-2.74-1.24-4.09-.22-.69-1.28-.4-1.06.29Z"/><path class="cls-1" d="M202.58,227.64A134.31,134.31,0,0,1,217,223.23a.55.55,0,0,0-.29-1.06,131.61,131.61,0,0,0-14.45,4.41c-.66.26-.37,1.32.29,1.06Z"/><path class="cls-1" d="M211.38,227.64a37.17,37.17,0,0,1,4.6-1.27c.69-.15.4-1.21-.3-1.06a34.38,34.38,0,0,0-4.6,1.27c-.65.22-.36,1.28.3,1.06Z"/><path class="cls-3" d="M174.26,191.62c.22.58.69.62,1.64,1.46a11.47,11.47,0,0,1,1.79,2.23,19,19,0,0,1,2.23,4.6c1.27,3.39,1.93,5.07,2.15,5.87.58,2.08,2.77,11.35-2.37,17.3a12.82,12.82,0,0,1-3.65,2.88c1.64,1.14,3.25,2.3,4.89,3.43a13.41,13.41,0,0,0,2.48-2.4,13.88,13.88,0,0,0,1.75-2.81,34.08,34.08,0,0,0,3.18-8.4,30.89,30.89,0,0,0-.33-13.36A39.49,39.49,0,0,0,183,190.89c-.88-1.35-2-3-3.87-3.28a4.77,4.77,0,0,0-3.36.87C174.92,189.25,173.89,190.6,174.26,191.62Z"/><path class="cls-3" d="M168.6,239.8a38.5,38.5,0,0,0-2.95,2.77,27.82,27.82,0,0,0-2.56,3c-.8,1.1-1.49,2.19-2,3-.25.43-.47.76-.62,1,.11,2.19.26,4.41.37,6.6,2.11-.33,4.19-.69,6.31-1a3.91,3.91,0,0,1,.22-1.64,8.67,8.67,0,0,1,1-1.9c.33-.51.66-1.13.92-1.46a33.53,33.53,0,0,1,4.92-5.44,8.36,8.36,0,0,0-1.09-1.71A10.28,10.28,0,0,0,168.6,239.8Z"/><path class="cls-2" d="M158.64,227a28.35,28.35,0,0,1,6.93-1.68,17.76,17.76,0,0,1,5.22-.08,16.76,16.76,0,0,1,6.1,2.23,21,21,0,0,1,3.25,2.41,26.31,26.31,0,0,1,6.09,8.76,24.71,24.71,0,0,1,2.92,11.68c-1.79.47-3.54,1-5.33,1.46a35.56,35.56,0,0,0-1-5.59,23.24,23.24,0,0,0-2.3-6,18.6,18.6,0,0,0-3.28-4.38,15.67,15.67,0,0,0-10.59-4.75,15,15,0,0,0-7.44,1.87C159,231,158.82,229,158.64,227Z"/><path class="cls-2" d="M162.11,175.82c0,.22-.08.51-.11.87a5.3,5.3,0,0,0,.11,1.9,2.28,2.28,0,0,0,1.13,1.57,2.6,2.6,0,0,0,1.09.22c.19,0,.37-.07.48,0a.51.51,0,0,1,.07.54.85.85,0,0,1-.4.44,1.47,1.47,0,0,0,.44.4,1.33,1.33,0,0,0,1.2,0,1.63,1.63,0,0,0,.66-.91,3.61,3.61,0,0,0,.18-1.24,3.85,3.85,0,0,1-.62,0,3.77,3.77,0,0,1-.44-.11A3.42,3.42,0,0,1,165,179a3.59,3.59,0,0,1-1-2.44,4.82,4.82,0,0,1,0-1.24C163.35,175.45,162.73,175.64,162.11,175.82Z"/><path class="cls-5" d="M160.68,154.5c-1.82,7.56-3.61,15.11-5.43,22.67a145.37,145.37,0,0,1,18.43-4.93c3.35-.66,6.57-1.17,9.67-1.57a52.44,52.44,0,0,0-8.94,21.43c-5.15,30.47,20.32,54,23,56.38l15.11-6c.47,7.77,1,15.58,1.42,23.35-7.81,3.36-14.56,5.92-19.67,7.74-11.35,4.05-18.94,6.68-29.34,8.07a101,101,0,0,1-13.18.87,912.28,912.28,0,0,0-9.49-92.22c-1.6-10.44-3.39-20.62-5.25-30.55Z"/><path class="cls-5" d="M203.53,146.33a68,68,0,0,0-8.54,15c-8.36,20.4-4.31,39.16-2.59,46.6,6.53,28.32,26.09,44.89,32.85,50.11a113.68,113.68,0,0,1-13,7.81c-1.49.77-5.91,3-17.63,7.41-8.72,3.32-13.1,5-16.71,5.95a87.9,87.9,0,0,1-26.17,3,732.38,732.38,0,0,0-8.54-85.41c-2-12.77-4.34-25.11-6.86-36.93,11.28-3.18,23.58-6.17,36.75-8.72C183.71,149.1,193.9,147.53,203.53,146.33Z"/></g><g id="hand"><path class="cls-4" d="M126.63,173.19c-1.31.26-2,1.64-3.17,4.05-1.5,3-3.47,5.91-4.75,9.34-.4,1.1-2.55,6.25-6.86,16.57-2.08,5-4.49,9.89-9.34,19.75-4.05,8.25-5.7,11.2-7.78,14.45a62,62,0,0,1-7.4,9.89,38.5,38.5,0,0,1-10.22,8.1,24.52,24.52,0,0,1-10.22,3.36,22.13,22.13,0,0,1-5.11-.18c.36-.95.84-2.26,1.42-3.87,1.1-3.1,1.21-3.72,1.24-4.42s.18-3.9-1.75-4.92a3,3,0,0,0-3,.18c-1.24.84-.08,3-1.24,3.87a2.25,2.25,0,0,1-1.9.29c-1-.29-1.39-1.24-2-2.44-1.06-2-2.3-4.2-4.34-5.15-.33-.15-2-.91-3-.11a2.1,2.1,0,0,0-.66,1.61,2.48,2.48,0,0,0-3-.19,2.6,2.6,0,0,0-.44,2.16,4,4,0,0,0,.55,1.46,2.43,2.43,0,0,0-2.38,1.64,2.56,2.56,0,0,0,.55,2.33c-.11,0-1.82.59-2.08,2a3.17,3.17,0,0,0,1.1,2.51,9.28,9.28,0,0,0,3.9,2.34,44.13,44.13,0,0,1,5.62,3.14c3.91,2.37,3.58,2.77,5.33,3.32,2,.58,3,.25,5.22,1.24a15.86,15.86,0,0,1,2.7,1.61c1.68,1,4.63,1.57,11-.73a53.39,53.39,0,0,0,15.18-8.65C99.37,249.5,104.11,240,108,232.06c2.74-5.62,1.79-4.85,5.81-13.54,3.94-8.5,5.94-11.64,10-20,1.83-3.76,4.53-9.49,7.52-16.71a6.2,6.2,0,0,0,.44-4.35C131,174.83,128.53,172.79,126.63,173.19Z"/><path class="cls-1" d="M128.27,172.5c-2.84-.19-4.63,3-5.91,5.07a70.58,70.58,0,0,0-4.52,9.45c-3.25,7.81-6.65,15.51-10.19,23.18-3.35,7.26-6.75,14.49-10.51,21.53-3.43,6.46-7.41,12.81-12.88,17.74-6.06,5.51-14,9.16-22.3,8.47-.69-.08-.69,1,0,1.09,14.05,1.13,25.33-9.09,32.34-20.22A197.56,197.56,0,0,0,105,218.41c3.54-7.37,6.94-14.78,10.19-22.3,1.75-4.05,3.39-8.18,5.18-12.23a53.93,53.93,0,0,1,2.81-5.58c1.09-1.79,2.7-5,5.11-4.82.73.18.73-.91,0-1Z"/><path class="cls-1" d="M62,258.59a4.92,4.92,0,0,0-.29,7.81c3.14,2.85,7.74,2,11.39.84,8.75-2.7,16.56-8.21,22.77-14.93,6.68-7.26,11-15.94,14.71-25,2-4.81,3.87-9.67,6.13-14.38s4.63-9,7-13.43a123.49,123.49,0,0,0,7-15c1.31-3.57,3.43-9.59-1.5-11.46-.65-.25-.95.81-.29,1.06,5,1.86.88,9.93-.47,13.1-1.65,3.91-3.58,7.71-5.59,11.46-3.9,7.34-7.73,14.6-10.91,22.27s-6.24,15.76-10.88,22.88a57.94,57.94,0,0,1-17.55,17.34,43.87,43.87,0,0,1-12.59,5.51c-2.56.65-5.48,1-7.81-.55s-3.18-4.93-.62-6.61c.58-.36,0-1.31-.55-.91Z"/><path class="cls-1" d="M66.34,258.74a7.54,7.54,0,0,0,2.52,9.38c.58.4,1.13-.55.55-.95a6.38,6.38,0,0,1-2.12-7.88c.29-.62-.66-1.17-1-.55Z"/><path class="cls-1" d="M73.68,257c-.33,3.17,1.53,8.46,5.62,7.59.69-.15.4-1.21-.3-1.06-3.35.69-4.48-4.2-4.23-6.53.07-.7-1-.7-1.09,0Z"/><path class="cls-1" d="M81.7,252.21a7.66,7.66,0,0,0,2,6c.87.95,3,2.66,4.09,1.06.4-.59-.55-1.14-1-.55s-1.9-.84-2.08-1a7.37,7.37,0,0,1-1.24-1.61,6.93,6.93,0,0,1-.77-3.94c.07-.66-1-.66-1.1,0Z"/><path class="cls-1" d="M89.88,243.92a6.48,6.48,0,0,0,6,7.56c.7,0,.7-1.06,0-1.1a5.33,5.33,0,0,1-5-6.17c.11-.69-1-1-1.06-.29Z"/><path class="cls-1" d="M96.56,233.63a6.51,6.51,0,0,0,8.32,4.23c.66-.22.37-1.28-.29-1.06a5.39,5.39,0,0,1-7-3.46.55.55,0,0,0-1.06.29Z"/><path class="cls-1" d="M103.89,219.25a6.09,6.09,0,0,0,7.16,4.41c.69-.14.4-1.2-.29-1A5,5,0,0,1,105,219a.55.55,0,0,0-1.06.29Z"/><path class="cls-1" d="M114.26,197.39a7.9,7.9,0,0,0,7.44,4.6c.7,0,.7-1.14,0-1.1a6.83,6.83,0,0,1-6.49-4c-.29-.66-1.24-.11-.95.55Z"/><path class="cls-1" d="M109.81,207.28a6.76,6.76,0,0,0,6.86,4.63c.69,0,.69-1.13,0-1.09a5.69,5.69,0,0,1-5.8-3.83c-.22-.66-1.28-.37-1.06.29Z"/><path class="cls-1" d="M118.64,185.78a7.55,7.55,0,0,0,4.82,3.69c1.24.4,4,1.46,4.92.11.41-.59-.54-1.13-.95-.55s-3.68-.58-4.23-.8a6.54,6.54,0,0,1-3.61-3c-.33-.62-1.24-.07-1,.55Z"/><path class="cls-1" d="M123.38,177.24a8.16,8.16,0,0,0,6.87,4.16c.69,0,.69-1.06,0-1.09a7,7,0,0,1-5.92-3.65.56.56,0,0,0-1,.58Z"/><path class="cls-1" d="M62.76,258.63c-.58-.95,1.06-3.07,1.43-4a11.83,11.83,0,0,0,.69-2.92,8,8,0,0,0-1.35-5.58,3.43,3.43,0,0,0-4.16-1.28A2.65,2.65,0,0,0,58.16,246c-.54,1.1.19,3.07-1,3.73-.62.33-.08,1.27.54.95,1.17-.62,1.14-1.61,1.28-2.81.22-1.79,1.61-2.78,3.14-1.61a5.07,5.07,0,0,1,1.61,3.28,10.25,10.25,0,0,1-1.28,6.25c-.62,1.16-1.39,2.15-.62,3.43.4.58,1.35,0,1-.55Z"/><path class="cls-1" d="M60.5,264.91A27.7,27.7,0,0,1,53,262.17c-2.3-1.24-4.2-3.25-6.57-4.27s-5.47-1-6.35-4c-.8-2.78,2.3-2,3.72-1.64a11.84,11.84,0,0,1,4.28,2.33c.54.44,1.31-.33.76-.77-2.08-1.75-5.58-3.72-8.43-3s-1.39,4-.11,5.48a6.53,6.53,0,0,0,3.65,2,15.87,15.87,0,0,1,5.58,3,28.25,28.25,0,0,0,10.7,4.67c.69.18,1-.88.29-1Z"/><path class="cls-1" d="M42.11,250.42c-1-.73-1-1.54,0-2.34a2.71,2.71,0,0,1,1.83-.22,6.23,6.23,0,0,1,2,.95c1.28.8,2.48,1.64,3.72,2.48.59.4,1.14-.54.55-.95-2.19-1.46-5.29-4.49-8.21-3.43-1.93.73-2.48,3.43-.51,4.42.62.36,1.2-.58.55-.91Z"/><path class="cls-1" d="M44,246.48a4.23,4.23,0,0,1-.91-1.5c.47-1.17,1.24-1.53,2.22-1.06a7.77,7.77,0,0,1,2.41,1.61c1.2,1.05,2.41,2.11,3.58,3.21.51.47,1.31-.29.76-.77-2.08-1.82-5.07-5.66-8.21-5.29-2.77.33-1.9,3.1-.66,4.6.52.51,1.28-.29.81-.8Z"/><path class="cls-1" d="M47.11,243.56c-1-1.61,1.57-1.35,2.3-1a8,8,0,0,1,1.78,1.35,16.17,16.17,0,0,1,2.7,3.4c.92,1.46,1.68,3.25,3.69,3.1.69,0,.69-1.13,0-1.09-1.86.14-3.32-3.54-4.42-4.86a10.34,10.34,0,0,0-3.79-3.1c-1.83-.69-4.53.66-3.21,2.81a.56.56,0,0,0,1-.58Z"/><path class="cls-9" d="M129.77,174.91c-1-.11-2.26,1.46-5.91,10-2.12,5-3.18,7.44-4.09,10.18-2.48,7.59-6.57,15.29-14.82,30.73-7.41,13.87-11.09,20.8-14.6,24.41-3.24,3.36-14.63,15-25.36,12.41-4.6-1.09-9.2-4.85-10.73-6.09-4-3.29-9.16-8.91-11.64-8.32a2.37,2.37,0,0,0-1.5.91,2.28,2.28,0,0,0,0,1.86,3.46,3.46,0,0,0-1.86,2.23c-.29,1.68,1.24,2.92,1.5,3.14,1.13.94,2,.69,3.86,1.27a17.86,17.86,0,0,1,3.87,2.23c4.6,3,4.89,3.58,6.86,4.45a17.21,17.21,0,0,0,4.82,1.28,16,16,0,0,0,5,2c3,.66,7.3.59,14.82-3.5a59.53,59.53,0,0,0,18.14-15.55c3.28-4.27,6-9.82,11.28-20.73,4.38-9.05,7-15,10.73-23.14,2.66-5.87,6.71-14.6,11.82-25.36C131.3,175.89,130.46,175,129.77,174.91Z"/><path class="cls-10" d="M129.22,184.94c-.54-.29-4.92,6.64-5.4,7.41a136.19,136.19,0,0,0-11.6,23.5c-6.21,15.37-9.53,23.65-16.46,32-4.75,5.73-12.38,14.89-25,16.86a34.85,34.85,0,0,1-19.85-3.11c2.7,1.43,5.4,2.89,8.1,4.31a3.85,3.85,0,0,1,2.15-.25c1.32.21,1.83,1.05,3.11,1.75a7.17,7.17,0,0,0,3.5.8,54.16,54.16,0,0,0,17.66-7.7c9-6,13.76-13.39,31.06-48.18C129.26,186.73,129.48,185.09,129.22,184.94Z"/></g></g><g id="girl"><g id="leg_right-2" data-name="leg right"><path d="M322.84,268.41l13.5-8.87c1.31-2.15,2.63-4.34,3.94-6.5A48.25,48.25,0,0,0,355,259.87c9.71,2.63,17.48,1.31,18,3.43.4,1.93-5.88,4.78-6.68,5.11-3.58,1.61-11.13,4.16-22.37,1.86-6,3.43-12,6.83-18,10.26-1.5-3.69-3-7.41-4.45-11.1Z"/><path class="cls-11" d="M274.92,202.28c-1.17,3.17-2.89,8-4.78,14-5.26,16.83-10.92,35.4-10.95,58.36a143.44,143.44,0,0,0,2,23.58,72.92,72.92,0,0,0,12.92,2c28.43,1.75,50.58-13.72,60.29-21.61-1.86-6.28-3.72-12.52-5.62-18.79-10.37,1.13-20.77,2.22-31.13,3.35,13.36-33.06,12.92-59.34,2-65.62C297.76,196.44,290.72,193.15,274.92,202.28Z"/><path class="cls-10" d="M299.19,197.28c-.11,4.38-.37,8.9-.88,13.61a168.24,168.24,0,0,1-22.15,66.46,128,128,0,0,0,54.27-11.68c-.51-1.86-1.06-3.72-1.57-5.58-10.37,1.06-20.69,2.08-31.06,3.14,1.1-2.7,2.56-6.5,4-11.17a129.87,129.87,0,0,0,5.58-26.68,53.61,53.61,0,0,0-.69-16.75,18,18,0,0,0-3.84-8.21A16.74,16.74,0,0,0,299.19,197.28Z"/><path class="cls-5" d="M306.52,209a136,136,0,0,1-8.72,38.72,138.05,138.05,0,0,1-11.5,23q20.86-3.34,41.68-6.64c-.18-1.21-.36-2.45-.51-3.65L297.65,263c3.29-9,5.52-16.56,7-22a87.75,87.75,0,0,0,2.44-10.65A64.19,64.19,0,0,0,306.52,209Z"/></g><g id="leg_left-2" data-name="leg  left"><path d="M343.2,274.76c4.49-3,9-5.91,13.51-8.87,1.31-2.15,2.62-4.34,3.94-6.49a48.38,48.38,0,0,0,14.71,6.82c9.7,2.63,17.48,1.31,17.95,3.43.4,1.93-5.87,4.78-6.68,5.11-3.57,1.61-11.13,4.16-22.37,1.86-6,3.43-12,6.83-18,10.26-1.49-3.69-2.95-7.41-4.45-11.1Z"/><path class="cls-11" d="M289,197.79A30.31,30.31,0,0,0,285,209a26.66,26.66,0,0,0,.29,8.14c1.39,2,2.81,3.94,4.2,5.88-.11,5.07-.33,12-.84,20.18-.92,14.85-2.23,24.6-1.68,39,.58,15.73,2.63,18.36,3.94,19.63,6.28,6.24,17.81,4,28.06,2a89.16,89.16,0,0,0,30.59-12.33c.4-3.18,1.09-12-4.49-19.93a24.48,24.48,0,0,0-4.78-5q-11.22,5.19-22.45,10.36c.73-11.64,1.24-23.83,1.39-36.46.26-18.07-.18-35.18-1.13-51.31C305.17,187,293.53,190.75,289,197.79Z"/><path class="cls-7" d="M310,189c-.11,4.16-.22,8.32-.36,12.52q-1.48,44.67-5.48,87.08a39.51,39.51,0,0,0,15,.69c15.18-2.22,24.27-12.84,26.79-16a15.38,15.38,0,0,0-2.3-3.54,14.07,14.07,0,0,0-3.54-3c-7.41,3.39-14.82,6.82-22.19,10.22.91-13.18,1.27-24.53,1.42-33.51.18-13-.11-23.06-.36-30.84-.3-9.49-.7-17.59-1.06-23.79a14,14,0,0,0-5.66-.37A17.32,17.32,0,0,0,310,189Z"/><path class="cls-5" d="M318.6,205.6c-1.42,4.23-2.73,8.72-3.87,13.39a185.28,185.28,0,0,0-4.05,64.86,42.75,42.75,0,0,0,15.51-5.48,44,44,0,0,0,12.52-11.09c-6.93,3.25-13.87,6.46-20.8,9.71q1-16.92,1.24-35.44C319.26,229.07,319,217.06,318.6,205.6Z"/></g><g id="hand_right" data-name="hand right"><path class="cls-4" d="M263,133.74c-1.21,0-2.12,1-3.32,2.3a19.62,19.62,0,0,0-4.2,7.92c-.77,2.41-2.48,5.8-5.91,12.55a82,82,0,0,1-6.79,11.39c-2.63,3.65-7,9.63-13.39,13.25a34.62,34.62,0,0,1-6.79,2.88,15.69,15.69,0,0,1-5,1,14.09,14.09,0,0,1-5.18-1c-2.05-.8-2.48-1.57-4.2-1.72-.47,0-2.55-.21-3.17.88s.29,2.34.87,3.32a8.32,8.32,0,0,0,2,2.3c1.46,3.61,2.88,7.23,4.34,10.8a12.85,12.85,0,0,0,3.32-.73,14.43,14.43,0,0,0,6.21-4.45,64.47,64.47,0,0,0,9.82-3.17A59.25,59.25,0,0,0,253.53,176c3.21-3.65.55-1.6,11.39-18.76,2.62-4.16,4.19-6.53,4.45-10.25C269.81,140.71,266.19,133.74,263,133.74Z"/><path class="cls-1" d="M261.12,134.29a12.81,12.81,0,0,0-4.67,6.05c-1.42,3.22-2.63,6.54-4,9.78a86.86,86.86,0,0,1-10.8,18.8,48.08,48.08,0,0,1-14.53,12.7c-3.5,1.9-7.23,3.25-11.24,2.56-3.18-.55-6.35-2.23-9.6-2.27-2.3,0-3,2.45-1.9,4.2,1.46,2.34,4.82,2.74,7.23,3.25.69.14,1-.91.29-1.06a33.47,33.47,0,0,1-3.83-1,6.3,6.3,0,0,1-1.86-.95,1.93,1.93,0,0,1-.59-.51c-.84-.91-.65-1.17.15-2s.77-.92,1.9-.7c.4.08.84.19,1.24.26.73.18,1.42.36,2.15.58,1.5.44,3,.92,4.56,1.21,5.59,1,10.84-1.61,15.37-4.67,9.71-6.57,16.28-16.65,21.2-27.12,1.5-3.18,2.85-6.42,4.16-9.71,1.24-3.14,2.45-6.57,5.41-8.47.54-.4,0-1.31-.59-.94Z"/><path class="cls-1" d="M269.19,147.64q-5.54,10.08-11.06,20.11c-3.1,5.62-6.53,10.62-11.64,14.64a58.62,58.62,0,0,1-16.21,8.79c-2.74,1-5.69,1.57-8.36,2.74a14.3,14.3,0,0,0-3.46,2.59,10.67,10.67,0,0,1-5.7,2.59c-.69.08-.69,1.17,0,1.1a11.27,11.27,0,0,0,6-2.52,16.92,16.92,0,0,1,3.65-2.81,36.28,36.28,0,0,1,3.79-1.21,73.12,73.12,0,0,0,13.33-5.51A49.69,49.69,0,0,0,251,179.76c3.79-3.83,6.35-8.39,8.9-13.07,3.39-6.16,6.79-12.37,10.18-18.54a.5.5,0,1,0-.87-.51Z"/><path class="cls-4" d="M198.64,183.23a2.88,2.88,0,0,0-.33,2.33,3,3,0,0,0,2.56,2,9.39,9.39,0,0,0-.44,2.23c-.11,1.71.4,2.3.76,4.89a23.57,23.57,0,0,0,.55,3.65,5,5,0,0,0,1.21,2.33,3.72,3.72,0,0,0,1.67,1,2.5,2.5,0,0,0,.44,1.57c.81,1,2.78,1.13,4.67,0a14.28,14.28,0,0,1-.32,5.22,12.29,12.29,0,0,1-2.12,4.56,11.07,11.07,0,0,1-3.5,3.18c-2.38,1.35-3.62.69-6.68,1.71a14.78,14.78,0,0,0-4.89,2.63c-3.95,3.65-2.41,11-2.12,12.16a11,11,0,0,0,6.53,1.24,9.86,9.86,0,0,0,2.37-.66,6.86,6.86,0,0,1-2-4.16,7.22,7.22,0,0,1,2.12-5.22c1.83-2.12,4.27-3,6.53-3.76,2.59-.91,3.22-.62,4.42-1.57.84-.65,1.71-1.75,2.63-5.07a26.78,26.78,0,0,0,.91-11.53,30.6,30.6,0,0,0-2.63-8.18,47.87,47.87,0,0,0-3.1-5.88,3.3,3.3,0,0,1-1.64-.4,3.62,3.62,0,0,1-1.65-1.86,4.57,4.57,0,0,1,.59-3.76,4.49,4.49,0,0,0-3-.91,4.41,4.41,0,0,0-2.95,1.57"/><path class="cls-1" d="M190.76,232.46c-.92-1.46-.48-3.58-.3-5.18a14.07,14.07,0,0,1,1.32-4.82c1.68-3.25,4.52-3.9,7.84-4.42a11.81,11.81,0,0,0,10-8.46C211.41,204,209.52,198,207,193c-1.09-2.16-2.55-4.38-4.74-5.55-1.21-.62-3.69-.88-3.32-2.88s4.67-4.89,5.87-2.05c.26.66,1.31.37,1.06-.29-1.64-3.94-7.19-1.13-8,2-.48,1.86.87,2.88,2.41,3.5,2.92,1.2,4.52,3.21,5.91,6,2.77,5.55,4.67,12.49,1.24,18.18a10,10,0,0,1-6.9,4.82c-2.48.47-5.11.51-7.19,2.08a10.25,10.25,0,0,0-3.54,6.09c-.55,2.37-1.28,5.88.07,8a.53.53,0,1,0,.92-.51Z"/><path class="cls-1" d="M207.62,188.34A39.42,39.42,0,0,1,213,202.9a26,26,0,0,1,0,7.88c-.4,2.45-1.13,5.37-3.07,7.08s-4.59,1.64-6.78,2.52a11.3,11.3,0,0,0-4.35,3,8,8,0,0,0-.51,10c.44.55,1.39,0,1-.54-3.61-4.71.33-10.3,5.22-11.79,1.93-.59,4-.81,5.73-2a9,9,0,0,0,3-4.42c3.17-8.9.18-19.08-4.46-26.86-.4-.58-1.35,0-1,.59Z"/><path class="cls-1" d="M200.5,187.61c-1.13,1.6-.47,3.79.77,5.14a3.75,3.75,0,0,0,5.11.48c.54-.44-.22-1.21-.77-.77-2.44,1.9-5.84-1.93-4.16-4.27.4-.62-.55-1.17-.95-.58Z"/><path class="cls-1" d="M200.43,191.44a5.1,5.1,0,0,0,.33,3.54,5.35,5.35,0,0,0,1.64,2.59c1.71,1.17,4.16.36,5.4-1.13.44-.55-.33-1.32-.77-.77-.91,1.1-2.95,2-4.23.84a5.59,5.59,0,0,1-1.31-4.78.55.55,0,0,0-1.06-.29Z"/><path class="cls-1" d="M201.12,196.22c0,1.9.15,4.2,2,5.22s4.12-.15,5.73-1.35c.55-.4,0-1.35-.55-1-1.24.91-3,2.23-4.63,1.35s-1.46-2.85-1.46-4.27a.55.55,0,0,0-1.1,0Z"/><path class="cls-1" d="M203.93,201.62c.15,2.88,3.87,3,5.8,1.86a.55.55,0,0,0-.54-.95c-1.13.66-4.05,1.1-4.16-.91,0-.69-1.13-.69-1.1,0Z"/><path class="cls-12" d="M265,141.11a88.4,88.4,0,0,1-5.11,13.5c-2.63,5.48-7,14.42-16,22.78-5.55,5.18-13.44,12.52-25.11,13.5a31.19,31.19,0,0,1-9.31-.62c.91,2,1.71,4.34.77,5.26-1.68,1.64-7.41-2.56-8.84-.92-.95,1.06.66,3.91,1.24,5,.88,1.57,1.94,3.43,3.73,3.72,1.2.18,2.37-.55,4.63-2a31.71,31.71,0,0,0,3-2.15,13.38,13.38,0,0,0,3.25-1.1,14.1,14.1,0,0,0,4.34-3.24,83,83,0,0,0,9.45-3.11c4.6-1.82,10.29-4.05,15.66-8.35,1.57-1.24,4.6-3.91,9.6-11.17a120.48,120.48,0,0,0,13-24.64C267.87,145.34,266.45,143.23,265,141.11Z"/><path class="cls-13" d="M265.9,153.34c-1.82,2.51-4.71,6.46-8.21,11.31-6,8.28-8,11.1-8.54,11.79-4.12,5.55-13.65,12.74-38,19.23.65,1.28,1.35,2.59,2,3.87a14.46,14.46,0,0,0,4-1.24,15,15,0,0,0,5.26-4.2,52.09,52.09,0,0,0,25.87-13C259,171.47,263.93,159.32,265.9,153.34Z"/><path class="cls-9" d="M208.09,187.61a35.85,35.85,0,0,1,4.2,18.76c-.26,3.79-.48,6.71-2.63,9-3.36,3.54-7.26,1.24-12.26,5.26-1.13.91-4.38,3.54-4.49,7.59a9.31,9.31,0,0,0,2.15,5.88l3.87-.15a8.17,8.17,0,0,1-1.71-6.35,7.59,7.59,0,0,1,2.15-3.87c1.46-1.49,2.52-1.49,6.35-3.25,3-1.38,4.49-2.08,5.44-3.1,1.68-1.86,2.08-4.09,2.48-6.5a24.46,24.46,0,0,0,.15-6.82C213,197,209.7,190.49,208.09,187.61Z"/></g><g id="torso-2" data-name="torso"><path class="cls-2" d="M267.07,121a17.17,17.17,0,0,0-5.77,7.33,20.45,20.45,0,0,0-1.16,7.63c-.08,4.27.65,7.41,1.86,12.56,1,4.23,1.49,6.35,2.44,8.35s1.28,2.12,5.48,9.24a17.62,17.62,0,0,1,2.44,5.18c.44,1.75.22,2.33.59,5.62.29,2.74.54,3.21.87,5.62a53.94,53.94,0,0,1,.44,7.63,66.54,66.54,0,0,1-1.72,14.56c1.28.36,3.14.88,5.48,1.31,11.75,2.16,21.39,0,27.12-1.31a85.12,85.12,0,0,0,14.7-4.89,30.54,30.54,0,0,0,.3-6.79,60.75,60.75,0,0,0-1.57-8.21c-1.1-4.75-1.54-5.88-2.16-9.38-.32-1.75-.51-3-.73-4.45-.87-6.06-1.31-9.09-2-14.27-1.21-8.84-1.79-13.29-2.74-16.72-1.83-6.75-3.36-12.3-8.21-17.3A26.16,26.16,0,0,0,288.46,115C277.07,113,268.46,119.87,267.07,121Z"/><path class="cls-1" d="M259.33,133.88c1,7.63,1.94,15.41,4.78,22.59s7.85,13,10.55,20.19c.26.65,1.32.36,1.06-.29-2.59-6.87-7.37-12.6-10.22-19.35-3.06-7.33-4.09-15.33-5.07-23.14-.07-.69-1.17-.69-1.1,0Z"/><path class="cls-1" d="M270.87,168.63a79.9,79.9,0,0,1,2.73,19.23,77.34,77.34,0,0,1-.4,9.27c-.18,1.79-.4,3.54-.73,5.29a7.12,7.12,0,0,0-.25,1.5c0,.37.51.66.29,1.06a.55.55,0,0,0,.33.8A75.13,75.13,0,0,0,320,200.34c.62-.29.07-1.24-.55-1a74.06,74.06,0,0,1-46.31,5.33c.11.26.22.55.33.81.4-.77.07-1,0-1.76-.22-1.38.44-3.21.62-4.63a73.65,73.65,0,0,0,.62-10.29,81.14,81.14,0,0,0-2.77-20.55c-.15-.66-1.21-.37-1,.33Z"/><path class="cls-1" d="M298.24,119.72c5.4,3.69,8.39,9.71,10.4,15.77a131.13,131.13,0,0,1,4.53,20.4c1.09,7,2,14.09,3.17,21.1.62,3.61,1.42,7.19,2.26,10.73.92,3.86,1.76,7.77.92,11.71-.15.69.91,1,1.05.29,1.21-5.65-.73-11.16-1.89-16.6-1.32-6-2.19-12-3-18-1.65-11.46-3-23.46-7.52-34.23-2-4.82-4.93-9.2-9.31-12.15-.62-.37-1.17.58-.58,1Z"/><path class="cls-1" d="M260.65,135.71c-.73-4.53,2.15-9.16,5-12.37a24.54,24.54,0,0,1,33.62-3.07c.54.44,1.09-.51.54-1A25.89,25.89,0,0,0,274,116a26.23,26.23,0,0,0-10.33,8c-2.59,3.36-4.81,7.63-4.08,12,.07.69,1.13.4,1-.29Z"/><path class="cls-8" d="M283.2,114c1.1,2.73,2.7,6.71,4.56,11.53,6.83,17.66,11.46,28.25,12.74,36s2.7,23.91-5.58,45a100.11,100.11,0,0,0,12.33-2.38A91.21,91.21,0,0,0,320,199.72a41,41,0,0,0,0-7.37,38.67,38.67,0,0,0-2-9.34c-1.35-7.19-2.41-13.58-3.17-18.91-2-13.28-2.08-17.73-4.56-25.47a64.34,64.34,0,0,0-8.54-16.53c-.59-.81-.92-1.25-1.39-1.79C295.39,114.8,288,114,283.2,114Z"/><path class="cls-7" d="M305.87,129.29a90.48,90.48,0,0,0-1,14.92c.26,17.41,5.44,24.35,4.78,36.83-.29,5.54-1.82,13.83-8.17,23.87a53.49,53.49,0,0,0,8.76-1.79,54.28,54.28,0,0,0,9.56-3.8c0-2.12-.18-5.29-.59-9.16-.87-8.21-2.3-12.12-3.79-19.09-2.78-12.92-1.1-14-3.58-24.49A92.3,92.3,0,0,0,305.87,129.29Z"/></g><g id="hand_left" data-name="hand left"><path class="cls-4" d="M301.52,129.25c-2.41-.37-4.45,1.35-5.62,2.3a14.8,14.8,0,0,0-4.34,6.49s-1.17,3.43-10.66,27.71c-3.79,9.63-7.88,15.58-13.25,23.35-1.27,1.86-7,10-14.12,13.25a19.06,19.06,0,0,1-6.64,2.15c-2.89.3-4.24-.32-6.79.59-.55.18-4.12,1.46-4,3.32.07,1.13,1.53,2.23,3.47,2.74-1.94-.44-7.49-1.57-11.54-.15-.76.26-2.81,1-3,2.3-.11.8.51,1.42.15,2s-1.57.36-2,1c-.25.36-.25,1.06.59,2.44a1.85,1.85,0,0,0-.88,1.46,1.64,1.64,0,0,0,.88,1.57,2.17,2.17,0,0,0-2,1c-.4.94.73,2.11,1.46,2.59,1.39,1,3,.69,4.45.43a72.14,72.14,0,0,0,11.53-3.17c3.47-1.2,4.42-1.57,5.62-2.45,1.76-1.31,2.23-2.33,3.76-3.9a21.48,21.48,0,0,1,6.79-4.45c1.39-.7,12.89-6.5,20.62-13.4,3.18-2.84,5-5.18,8.07-9.23,6.31-8.25,9.56-15.22,13.83-24.38,6.9-14.78,3-10.84,7.77-21.21.62-1.35,2.12-4.48,1.32-8.06C306.3,133.23,304.55,129.72,301.52,129.25Z"/><path class="cls-1" d="M301.56,129c-8.21.51-11,9.38-13.21,15.88a252.78,252.78,0,0,1-9.24,23.65,105.15,105.15,0,0,1-13.43,22.15c-5.22,6.43-11.53,12.48-20.11,13.47-2.62.29-9.23,0-10.07,3.47-.91,3.65,4,4.3,6.39,4.27a.55.55,0,0,0,0-1.1,10.1,10.1,0,0,1-3-.18c-.87-.22-2.7-1.17-2.41-2.45.51-2.26,4.75-2.48,6.54-2.66,3.35-.37,6.49-.73,9.59-2.15,6.21-2.85,11-8.14,15-13.47,9-11.64,14.78-25.37,19.71-39.13,1.39-3.9,2.55-7.91,4.2-11.75,1.78-4.23,4.92-8.61,9.92-8.9.77,0,.77-1.13,0-1.1Z"/><path class="cls-1" d="M306.38,136c-.73,9.6-4.64,18.54-8.62,27.19a172.66,172.66,0,0,1-11.05,21.2c-4.35,6.83-9.64,13.18-16.25,17.92s-14.16,7.41-20.58,12.23a39.44,39.44,0,0,0-4.63,4.23c-2,2.08-4.24,2.81-7,3.58l-7.66,2.19a36.45,36.45,0,0,1-4,1.06,5,5,0,0,1-2.22,0,3.14,3.14,0,0,1-1.5-.84c-.88-1.57-.44-2.41,1.28-2.51a.55.55,0,0,0,.29-1.06,2.54,2.54,0,0,0-3,1.57,2.9,2.9,0,0,0,1.57,3.46c1.61.92,3.5.59,5.22.15,2.92-.73,5.76-1.64,8.68-2.48a28.55,28.55,0,0,0,6.65-2.27c2-1.16,3.32-3.1,5-4.59,3.61-3.18,7.88-5.44,12.11-7.67A80.89,80.89,0,0,0,272.76,202a57.88,57.88,0,0,0,9.68-9.67c5.69-7.08,10-15.15,13.86-23.32,5-10.44,10.26-21.28,11.17-33,0-.73-1.06-.69-1.09,0Z"/><path class="cls-1" d="M239,210.67c-3.83,0-7.7-.25-11.49,0-1.72.11-4,1.24-3.14,3.35s4.12,2.3,6.09,2.52c3.25.37,6.46.55,9.46-.84.62-.29.07-1.24-.55-.95a13.24,13.24,0,0,1-7,.88c-1-.07-2-.18-3-.33-.87-.11-2.66-.25-3.32-1-.51-.18-.58-.62-.22-1.2-.22-1,.26-1.46,1.35-1.35a10.11,10.11,0,0,1,1.1,0h3.57c2.38,0,4.75,0,7.12,0a.55.55,0,1,0,.07-1.1Z"/><path class="cls-1" d="M226.49,214.69c-2.23-1.57-6.21,2.11-3.18,4,4,2.45,9.93,1.14,14.16.3.7-.15.4-1.21-.29-1.06a40.72,40.72,0,0,1-7.55.95,15.16,15.16,0,0,1-3.62-.4c-.36-.11-2-.44-2.15-.73.07-.62.14-1.21.22-1.83a1.94,1.94,0,0,1,1.86-.25c.55.4,1.09-.55.55-.95Z"/><path class="cls-1" d="M224.73,218.74a1.61,1.61,0,0,0-2.33.62,2.18,2.18,0,0,0,1.28,2.7c1.6.84,3.94.84,5.69.77a20.82,20.82,0,0,0,6.61-1.35c.65-.26.36-1.32-.3-1.06a20,20,0,0,1-6,1.31,17.67,17.67,0,0,1-2.52,0,16.71,16.71,0,0,1-2-.29l-.48-.11c-.65-.11-.83-.65-.54-1.6.62.33,1.16-.62.54-.95Z"/><path class="cls-9" d="M302.07,130.31c-2.66.8-2.77,7.44-2.88,9.78-.62,12.7-7,23.65-14.13,36.06-4.23,7.33-12,20.36-27.37,29.89a70.09,70.09,0,0,1-16.31,7.44,15.92,15.92,0,0,1-7.81,5.26,15.7,15.7,0,0,1-10-.37,28,28,0,0,1-1.27,3.8A2.84,2.84,0,0,0,222,224a3.12,3.12,0,0,0,1.46,1.83,5.18,5.18,0,0,0,3.8.18c2.73-.73,8.17-2.37,15.22-4.71a22.44,22.44,0,0,0,3.06-2c2.59-2,3-3.14,5.26-5.08a27.55,27.55,0,0,1,5.43-3.43,50,50,0,0,1,6-2.7c8.91-3.47,16.06-11.09,16.86-12,1.83-2,3.32-4.27,6.35-8.87a173.66,173.66,0,0,0,12.16-21.75c.58-1.28,3.06-6.68,5.62-13.94,4.45-12.7,1.56-9.45,3.61-15a4.58,4.58,0,0,0,.18-3.06C306.27,131.37,303.68,129.83,302.07,130.31Z"/><path class="cls-10" d="M304.92,142.61c-.29-.11-1.54,2.73-5.26,10.4-4.27,8.72-11.42,23.46-15.8,30.69-4.6,7.59-13.07,18.43-29.6,28.69a71.61,71.61,0,0,0,25.73-18c5.84-6.46,8.94-12.37,12.88-19.85C301.27,158.45,305.61,142.86,304.92,142.61Z"/></g><g id="head-2" data-name="head"><path class="cls-4" d="M236.49,93.3c-.7,3-.15,5.4.91,10.07,2,8.94,4.56,19.93,13.1,23.4,6.9,2.84,14.34-.62,17.26-2.19.11.36,1.14,3.87,4.16,4.74,2.85.84,5.41-1.28,6.5-2.19.77-.62,3.25-2.88,4.85-10.07A43,43,0,0,0,284,102c-.7-5.26-1.32-9.79-4.27-14.13-4.78-6.93-14.24-11.42-23.76-10.07C247.47,79,238.38,84.91,236.49,93.3Z"/><path d="M268.57,122.61a17.65,17.65,0,0,0,4.38-7.16c.22-.65-.84-1-1.06-.29a15.86,15.86,0,0,1-4.13,6.68c-.47.47.3,1.24.81.77Z"/><path class="cls-14" d="M251.92,82.5a21.84,21.84,0,0,0,7.3,6.71,22.52,22.52,0,0,0,15.51,2.23,4.82,4.82,0,0,1,3.58-.51c2.56.8,4,4.45,2.78,7a5.73,5.73,0,0,1-3.95,2.85c-.36,1.31-.84,3.14-1.24,5.36-1.09,5.95-1.64,8.94-.4,11.79a11.54,11.54,0,0,0,7.56,6.24c6.2,1.61,12.22-2.7,15-7.3a14.28,14.28,0,0,0,1.78-10.44c-1.31-5.29-5.4-5.62-10.43-11.49-7.27-8.43-3.58-13.14-10.44-19.09a25.41,25.41,0,0,0-15.11-5.62,24.3,24.3,0,0,0-9.09,1.5,19.39,19.39,0,0,0-7.63,1c-7.41,2.6-10.87,9.09-12.37,11.94a28,28,0,0,0-3.1,17.55,27.23,27.23,0,0,0,3.1,8.87,22.52,22.52,0,0,0-2.08,10.44c.11,2.66.91,10.4,7.45,15.84,1.09.91,7.11,5.95,15,4.6,4.89-.84,7.81-3.69,11.64-7.45,2.48-2.44,4.42-4.41,4.24-7.11s-2.45-4.71-3.36-5.4c-1.53,1.05-3,2.11-4.56,3.17a17.9,17.9,0,0,1-5.44-1c-5.48-1.86-8.51-5.83-12.08-10.43a55,55,0,0,1-7.78-13.58Q244.83,91.35,251.92,82.5Z"/><path class="cls-1" d="M237,99.94c4.2,10.66,11,21.46,22.49,25.22,1.24.4,2.51.88,3.75.4a10.08,10.08,0,0,0,2.52-1.68,25.85,25.85,0,0,0,5.37-5.58,27.21,27.21,0,0,0,5.11-15c0-.69-1.06-.69-1.1,0a26.3,26.3,0,0,1-4.3,13.62,25.28,25.28,0,0,1-4.78,5.4c-1.28,1.09-2.82,2.48-4.6,2.33a12.09,12.09,0,0,1-3.32-1.09c-10.19-4.16-16.21-14-20.08-23.87-.25-.62-1.31-.37-1.06.29Z"/><path class="cls-1" d="M267.4,122.53c1.86,1.72,2.48,3.87,3.43,6.1.58,1.31,1.39,1.57,2.77,1.42a9.72,9.72,0,0,0,7.67-6c.25-.65-.81-.95-1.06-.29a8.5,8.5,0,0,1-3.25,3.91c-1.24.8-3.32,1.82-4.6.87-1.06-.76-1.27-2.48-1.86-3.65a10.05,10.05,0,0,0-2.33-3.14c-.55-.51-1.32.26-.77.73Z"/><path class="cls-1" d="M275.06,93.48c0-2,2.05-2.66,3.58-1.75a4.57,4.57,0,0,1,1.86,2.88c.44,2,.15,6.32-3,5.4-.7-.21-.95.84-.29,1.06,4.52,1.35,5.18-5.11,3.94-7.95-.73-1.68-2.41-3.18-4.38-2.92A3.18,3.18,0,0,0,274,93.48a.55.55,0,0,0,1.09,0Z"/><path class="cls-1" d="M249.66,96.4c1,2.3,1.32,5,1.83,7.48s1,4.82,1.57,7.23a.55.55,0,0,0,.8.33,26.65,26.65,0,0,0,3.39-2.59c.51-.48-.25-1.24-.76-.77a23.6,23.6,0,0,1-3.18,2.45c.26.11.55.21.8.32-.58-2.62-1.13-5.29-1.71-7.92a36.38,36.38,0,0,0-1.79-7.08c-.29-.65-1.24-.07-1,.55Z"/><path class="cls-1" d="M241.52,99A3.2,3.2,0,0,1,246,97c.62.29,1.21-.66.55-1a4.35,4.35,0,0,0-6.1,2.7.55.55,0,0,0,1.06.29Z"/><path class="cls-1" d="M254.92,93.88a5.16,5.16,0,0,1,7-.87c.59.4,1.14-.55.55-1a6.26,6.26,0,0,0-8.36,1.06c-.4.54.37,1.31.81.76Z"/><path class="cls-1" d="M246.85,104.36a3.09,3.09,0,0,1-.73-.91A2.18,2.18,0,0,1,246,103c0-.18.07-.44-.15-.33s.11.33.22.48a2.16,2.16,0,0,1,.25.44c.08.18.48.87.37,1,.11-.07.22-.18.33-.26s-.19-.29-.19-.32-.14-.26-.21-.37a6.18,6.18,0,0,1-.37-.91.55.55,0,0,0-1.06.29c.22.8.91,2.63,2,2.41,1.28-.26.22-2.26-.18-2.85-.26-.36-.59-.87-1.06-1a.88.88,0,0,0-1,.65c-.37,1,.4,2.27,1.16,2.92.52.48,1.32-.29.77-.76Z"/><path class="cls-1" d="M261.23,101.11a3.09,3.09,0,0,1-.73-.91,2.18,2.18,0,0,1-.14-.48c0-.18.07-.44-.15-.33s.11.33.22.48a2.16,2.16,0,0,1,.25.44c.08.18.48.87.37,1,.11-.07.22-.18.33-.25s-.19-.3-.19-.33-.14-.26-.21-.37a6.18,6.18,0,0,1-.37-.91.55.55,0,0,0-1.06.29c.22.81.91,2.63,2,2.41,1.28-.25.22-2.26-.18-2.85-.26-.36-.59-.87-1.06-1a.88.88,0,0,0-1,.66c-.37,1,.4,2.26,1.16,2.92.55.43,1.32-.33.77-.77Z"/><path class="cls-1" d="M258.13,117.07c1.77.29,3.44-1,4.68-2.17a13.54,13.54,0,0,0,3.4-5.09c.25-.64-.74-1.16-1-.48A12.71,12.71,0,0,1,263,113.2c-1,1.13-2.94,3.09-4.6,2.83a.54.54,0,1,0-.26,1Z"/><path class="cls-15" d="M233.35,115.85a12.78,12.78,0,0,0,2.88,7.92c2.56,3.07,7.85,6.28,11,4.09,2.3-1.64,3-6,1.09-10.25a20.81,20.81,0,0,0,14.49,8.21c1.61-1.13,3.18-2.26,4.78-3.43a9.48,9.48,0,0,1,2,2.59,6.27,6.27,0,0,1,1.09,3.83,6,6,0,0,1-2,3.43c-4.93,4.93-7.41,7.41-8.47,7.92a17.12,17.12,0,0,1-7.52,2c-7.22.22-12.19-4.45-13.28-5.47a21.19,21.19,0,0,1-6.17-11.5A22.77,22.77,0,0,1,233.35,115.85Z"/><path class="cls-13" d="M274.88,96.8c-.36,0-.66,3.69-1.61,8.43A81.25,81.25,0,0,1,269,119.65a30.6,30.6,0,0,0,6.14-14.42C275.68,101.11,275.28,96.84,274.88,96.8Z"/></g></g></svg>