<?xml version="1.0" encoding="utf-8"?>
<!-- Generator: Adobe Illustrator 24.1.2, SVG Export Plug-In . SVG Version: 6.00 Build 0)  -->
<svg version="1.1" id="Слой_1" xmlns="http://www.w3.org/2000/svg" xmlns:xlink="http://www.w3.org/1999/xlink" x="0px" y="0px"
	 viewBox="0 0 330 330" style="enable-background:new 0 0 330 330;" xml:space="preserve">
<style type="text/css">
	.st0{opacity:0.1;fill:url(#SVGID_1_);enable-background:new    ;}
	.st1{opacity:0.3;}
	.st2{fill:#91B3FA;}
	.st3{fill:#BDD0FB;}
	.st4{fill:url(#SVGID_2_);}
	.st5{fill:#7D97F4;}
	.st6{opacity:0.53;fill:#FFFFFF;}
	.st7{fill:#FDFEFF;}
	.st8{fill:url(#SVGID_3_);}
	.st9{fill:url(#SVGID_4_);}
	.st10{fill:url(#SVGID_5_);}
	.st11{fill:url(#SVGID_6_);}
	.st12{fill:url(#SVGID_7_);}
	.st13{fill:url(#SVGID_8_);}
	.st14{fill:url(#SVGID_9_);}
	.st15{fill:url(#SVGID_10_);}
	.st16{fill:url(#SVGID_11_);}
	.st17{fill:url(#SVGID_12_);}
	.st18{fill:url(#SVGID_13_);}
	.st19{fill:url(#SVGID_14_);}
	.st20{fill:url(#SVGID_15_);}
	.st21{fill:url(#SVGID_16_);}
	.st22{fill:url(#SVGID_17_);}
	.st23{fill:url(#SVGID_18_);}
	.st24{fill:url(#SVGID_19_);}
	.st25{fill:url(#SVGID_20_);}
	.st26{fill:url(#SVGID_21_);}
	.st27{fill:url(#SVGID_22_);}
	.st28{fill:url(#SVGID_23_);}
	.st29{fill:url(#SVGID_24_);}
	.st30{fill:url(#SVGID_25_);}
	.st31{fill:url(#SVGID_26_);}
	.st32{fill:url(#SVGID_27_);}
	.st33{fill:url(#SVGID_28_);}
	.st34{fill:url(#SVGID_29_);}
	.st35{fill:url(#SVGID_30_);}
	.st36{fill:url(#SVGID_31_);}
	.st37{fill:url(#SVGID_32_);}
	.st38{fill:url(#SVGID_33_);}
	.st39{fill:url(#SVGID_34_);}
	.st40{fill:url(#SVGID_35_);}
	.st41{fill:url(#SVGID_36_);}
	.st42{fill:url(#SVGID_37_);}
	.st43{fill:url(#SVGID_38_);}
	.st44{fill:url(#SVGID_39_);}
	.st45{fill:url(#SVGID_40_);}
	.st46{fill:url(#SVGID_41_);}
	.st47{fill:url(#SVGID_42_);}
	.st48{fill:url(#SVGID_43_);}
	.st49{fill:url(#SVGID_44_);}
	.st50{fill:url(#SVGID_45_);}
	.st51{fill:url(#SVGID_46_);}
</style>
<g>
	<g>
		<linearGradient id="SVGID_1_" gradientUnits="userSpaceOnUse" x1="369.8325" y1="423.3065" x2="79.2518" y2="62.4235">
			<stop  offset="0" style="stop-color:#20C3D0"/>
			<stop  offset="0.3016" style="stop-color:#1EC0D0"/>
			<stop  offset="0.5347" style="stop-color:#19B6CF"/>
			<stop  offset="0.7449" style="stop-color:#11A6CD"/>
			<stop  offset="0.9405" style="stop-color:#058FCA"/>
			<stop  offset="1" style="stop-color:#0086C9"/>
		</linearGradient>
		<path class="st0" d="M291.7,279.7c-6.8,7-13.2,11.4-18.3,15c-59.5,41.7-130,29.5-145,26.6c-22.1-4.4-64.9-12.8-95.8-48.3
			C-14,219.3-6.7,134.9,29.5,79.1c6.6-10.2,41.7-66.8,112.9-75.9c43.1-5.5,93.3,5.6,129.7,35.3C348.5,100.9,343.1,227,291.7,279.7z"
			/>
		<g>
			<g>
				<g class="st1">
					<path class="st2" d="M257.7,80.9c-0.5,0-1-0.5-1-1c0.1-1.1,0.1-2.2,0-3.3c0-0.5,0.4-1,1-1.1l0,0c0.5,0,1,0.4,1.1,1
						c0.1,1.2,0.1,2.3,0,3.5c0,0.5-0.4,1-1,1C257.8,80.9,257.7,80.9,257.7,80.9z M256.2,71.2c-0.2-1.1-0.4-2.2-0.8-3.2
						c-0.1-0.5,0.2-1.1,0.7-1.2c0.5-0.1,1.1,0.2,1.2,0.7c0.3,1.1,0.5,2.3,0.8,3.4c0.1,0.5-0.3,1.1-0.8,1.2c-0.1,0-0.1,0-0.1,0
						C256.7,72.1,256.2,71.8,256.2,71.2z M253.6,62.9c-0.4-1-0.9-2-1.4-2.9c-0.3-0.5-0.1-1.1,0.4-1.4c0.5-0.3,1.1-0.1,1.4,0.4
						c0.5,1,1,2.1,1.5,3.1c0.2,0.5,0,1.1-0.5,1.4c-0.1,0.1-0.2,0.1-0.3,0.1C254.2,63.6,253.8,63.4,253.6,62.9z M249.4,55.5
						c-0.6-0.9-1.4-1.8-2.1-2.6c-0.3-0.4-0.3-1.1,0.1-1.4c0.4-0.3,1.1-0.3,1.4,0.1c0.8,0.9,1.5,1.8,2.2,2.7c0.3,0.5,0.2,1.1-0.2,1.4
						c-0.1,0.1-0.3,0.2-0.5,0.2C249.9,55.9,249.6,55.8,249.4,55.5z M243.5,49.1c-0.8-0.7-1.7-1.4-2.6-2.1c-0.5-0.3-0.5-1-0.2-1.4
						s1-0.5,1.4-0.2c1,0.7,1.8,1.4,2.7,2.2c0.4,0.3,0.5,1,0.1,1.4c-0.2,0.2-0.4,0.3-0.7,0.3C244,49.3,243.7,49.3,243.5,49.1z
						 M236.4,44.2c-1-0.5-2-1-2.9-1.4c-0.5-0.2-0.8-0.8-0.5-1.4s0.8-0.8,1.4-0.5c1,0.5,2.1,1,3.1,1.5c0.5,0.3,0.7,0.9,0.4,1.4
						c-0.2,0.3-0.5,0.5-0.8,0.5C236.7,44.4,236.6,44.3,236.4,44.2z M198.6,43.7c-0.3-0.5-0.1-1.1,0.4-1.4c1-0.5,2.1-1,3.1-1.5
						c0.5-0.2,1.1,0,1.4,0.5c0.2,0.5,0,1.1-0.5,1.4c-1,0.4-2,0.9-3,1.4c-0.1,0.1-0.3,0.1-0.4,0.1C199.1,44.3,198.8,44.1,198.6,43.7z
						 M228.4,41c-1-0.3-2.1-0.5-3.2-0.8c-0.5-0.1-0.9-0.6-0.8-1.2s0.6-0.9,1.2-0.8c1.2,0.2,2.3,0.5,3.3,0.8c0.5,0.1,0.9,0.7,0.7,1.2
						c-0.1,0.4-0.5,0.8-0.9,0.8C228.6,41,228.5,41,228.4,41z M206.7,40.3c-0.1-0.5,0.2-1.1,0.7-1.2c1.1-0.3,2.3-0.5,3.4-0.8
						c0.5-0.1,1.1,0.3,1.2,0.8c0.1,0.5-0.3,1.1-0.8,1.2c-1.1,0.2-2.2,0.4-3.2,0.8c-0.1,0-0.1,0-0.2,0
						C207.4,41,206.9,40.7,206.7,40.3z M219.9,39.6c-1.1-0.1-2.2-0.1-3.3,0c-0.5,0-1-0.4-1.1-1c0-0.5,0.4-1,1-1l0,0
						c1.2-0.1,2.3-0.1,3.5,0c0.5,0,1,0.5,1,1.1C220.9,39.3,220.5,39.7,219.9,39.6C219.9,39.6,219.9,39.6,219.9,39.6z"/>
					<path class="st2" d="M193.6,48.2c0.2,0,0.4-0.1,0.5-0.2c0.4-0.3,0.8-0.7,1.2-1c0.5-0.3,0.5-1,0.2-1.4s-1-0.5-1.4-0.2
						c-0.5,0.3-0.9,0.7-1.3,1c-0.4,0.3-0.5,1-0.1,1.4C192.9,48,193.3,48.2,193.6,48.2z"/>
				</g>
				<g class="st1">
					<path class="st2" d="M178.7,75.5c0.5,0,0.9-0.4,1-0.9c0.1-0.5,0.1-1,0.2-1.6c0.1-0.5-0.3-1.1-0.9-1.2c-0.5-0.1-1.1,0.3-1.2,0.9
						c-0.1,0.5-0.1,1.1-0.2,1.6c-0.1,0.5,0.3,1,0.9,1.1C178.6,75.5,178.7,75.5,178.7,75.5z"/>
					<path class="st2" d="M218.7,118.9c-0.5,0-1-0.4-1-1c0-0.5,0.4-1,1-1c1.1,0,2.2-0.1,3.2-0.2c0.5-0.1,1,0.3,1.1,0.9
						c0.1,0.5-0.3,1-0.9,1.1c-0.5,0.1-1,0.1-1.4,0.1C220,118.9,219.3,118.9,218.7,118.9z M226.4,117c-0.1-0.5,0.2-1.1,0.8-1.2
						c1-0.3,2.1-0.5,3.1-0.9c0.5-0.2,1.1,0.1,1.3,0.7c0.2,0.5-0.1,1.1-0.7,1.3c-1.1,0.3-2.2,0.7-3.3,1c-0.1,0-0.1,0-0.2,0
						C226.9,117.8,226.4,117.6,226.4,117z M213.2,118.6c-1.1-0.1-2.3-0.3-3.3-0.5c-0.5-0.1-0.9-0.7-0.8-1.2c0.1-0.5,0.7-0.9,1.2-0.8
						c1,0.2,2.1,0.4,3.2,0.5c0.5,0.1,1,0.5,0.9,1.2c-0.1,0.5-0.5,0.9-1,0.9C213.3,118.6,213.2,118.6,213.2,118.6z M234.6,114.4
						c-0.3-0.5-0.1-1.1,0.5-1.4c1-0.5,1.9-1,2.9-1.6c0.5-0.3,1.1-0.1,1.4,0.3c0.3,0.5,0.1,1.1-0.3,1.4c-1,0.6-2,1.2-3,1.6
						c-0.1,0.1-0.3,0.1-0.4,0.1C235.2,114.9,234.8,114.7,234.6,114.4z M204.4,116.5c-1.1-0.4-2.1-0.8-3.1-1.3
						c-0.5-0.2-0.8-0.8-0.5-1.4c0.2-0.5,0.8-0.8,1.4-0.5c1,0.5,2,0.9,3,1.2c0.5,0.2,0.8,0.8,0.6,1.3c-0.1,0.4-0.5,0.6-0.9,0.7
						C204.7,116.6,204.5,116.6,204.4,116.5z M196.4,112.6c-1-0.6-1.9-1.2-2.8-1.9c-0.5-0.3-0.5-1-0.2-1.4s1-0.5,1.4-0.2
						c0.9,0.7,1.8,1.3,2.7,1.8c0.5,0.3,0.6,1,0.3,1.4c-0.2,0.3-0.5,0.5-0.8,0.5C196.8,112.8,196.5,112.7,196.4,112.6z M189.4,107
						c-0.8-0.8-1.6-1.6-2.3-2.5c-0.3-0.4-0.3-1.1,0.1-1.4c0.4-0.3,1.1-0.3,1.4,0.1c0.7,0.8,1.4,1.6,2.2,2.4c0.4,0.4,0.4,1,0,1.4
						c-0.2,0.2-0.4,0.3-0.7,0.3C189.9,107.3,189.6,107.2,189.4,107z M183.8,100c-0.6-1-1.2-2-1.7-2.9c-0.3-0.5-0.1-1.1,0.4-1.4
						c0.5-0.3,1.1-0.1,1.4,0.4c0.5,1,1,1.9,1.6,2.8c0.3,0.5,0.1,1.1-0.3,1.4c-0.1,0.1-0.3,0.1-0.5,0.1
						C184.4,100.5,184,100.3,183.8,100z M179.9,92c-0.4-1.1-0.8-2.2-1-3.3c-0.1-0.5,0.2-1.1,0.8-1.2c0.5-0.1,1.1,0.2,1.2,0.8
						c0.3,1,0.6,2.1,1,3.1c0.2,0.5-0.1,1.1-0.6,1.3c-0.1,0-0.2,0.1-0.3,0.1C180.4,92.7,180,92.4,179.9,92z M177.8,83.3
						c-0.1-0.8-0.2-1.6-0.2-2.5c0-0.3-0.1-0.6-0.1-0.9c0-0.5,0.4-1,1-1c0.5,0,1,0.4,1.1,1c0,0.3,0,0.5,0.1,0.9
						c0.1,0.8,0.1,1.6,0.2,2.4c0.1,0.5-0.3,1.1-0.9,1.2h-0.1C178.3,84.2,177.9,83.8,177.8,83.3z"/>
					<path class="st2" d="M243,110.2c0.2,0,0.4-0.1,0.5-0.2c0.4-0.3,0.9-0.7,1.3-1.1c0.4-0.3,0.5-1,0.1-1.4c-0.3-0.4-1-0.5-1.4-0.1
						c-0.4,0.3-0.8,0.7-1.2,1c-0.4,0.3-0.5,1-0.1,1.4C242.4,110.1,242.7,110.3,243,110.2z"/>
				</g>
				<g>
					<path class="st2" d="M245,92.8c0.1-0.1,0.1-0.4,0-0.5l-3.3-4.7c1-2.5,1.6-5.2,1.8-7.9l5.1-2.7c0.2-0.1,0.3-0.3,0.3-0.5
						l-1.2-6.8c0-0.2-0.2-0.3-0.4-0.4l-5.7-1c-1.1-2.6-2.5-4.9-4.3-6.9l1.6-5.5c0.1-0.2,0-0.4-0.2-0.5l-5.7-4
						c-0.1-0.1-0.4-0.1-0.5,0l-4.7,3.3c-2.5-1-5.2-1.6-7.9-1.8l-2.7-5.1c-0.1-0.2-0.3-0.3-0.5-0.3l-6.8,1.2c-0.2,0-0.3,0.2-0.4,0.4
						l-1,5.7c-2.6,1.1-4.9,2.5-6.9,4.3l-5.5-1.6c-0.2-0.1-0.4,0-0.5,0.2l-4,5.7c-0.1,0.1-0.1,0.4,0,0.5l3.3,4.7
						c-1,2.5-1.6,5.2-1.8,7.9l-5.1,2.7c-0.2,0.1-0.3,0.3-0.3,0.5l1.2,6.8c0,0.2,0.2,0.3,0.4,0.4l5.7,1c1.1,2.6,2.5,4.9,4.3,6.9
						l-1.6,5.5c-0.1,0.2,0,0.4,0.2,0.5l5.7,4c0.1,0.1,0.4,0.1,0.5,0l4.7-3.3c2.5,1,5.2,1.6,7.9,1.8l2.7,5.1c0.1,0.2,0.3,0.3,0.5,0.3
						l6.8-1.2c0.2,0,0.3-0.2,0.4-0.4l1-5.7c2.6-1.1,4.9-2.5,6.9-4.3l5.5,1.6c0.2,0.1,0.4,0,0.5-0.2L245,92.8z"/>
					<g>
						<path class="st3" d="M217.5,84.9c-3.8-0.3-6.7-3.7-6.4-7.5c0.1-1.8,1-3.6,2.5-4.8s3.2-1.8,5.1-1.6c3.8,0.3,6.7,3.7,6.4,7.5
							c-0.3,3.5-3.1,6.2-6.5,6.4C218.2,84.9,217.9,84.9,217.5,84.9z M214.7,73.8c-1.1,1-1.8,2.2-1.8,3.6c-0.3,2.9,2,5.5,4.9,5.8
							s5.5-2,5.8-4.9c0.3-2.9-2-5.5-4.9-5.8c-0.3,0-0.5,0-0.8,0C216.6,72.7,215.6,73.1,214.7,73.8z"/>
					</g>
					<path class="st3" d="M219,94.9c0.6-0.1,1.2-0.1,1.8-0.2l0,0c0.2,0,0.3-0.1,0.5-0.1c0.9-0.2,1.8-0.4,2.7-0.8c0,0,0,0,0.1,0
						c0,0,0.1,0,0.1-0.1c0.1,0,0.1-0.1,0.2-0.1c0.1-0.1,0.3-0.2,0.3-0.4c0-0.1,0-0.1,0-0.1c-0.1-0.2-0.3-0.3-0.5-0.2
						c-1.1,0.4-2.2,0.8-3.3,1c-5.7,1-11.3-1.2-14.8-5.2c-2-2.3-3.4-5.1-4-8.2c-0.1-0.5-0.1-1.1-0.2-1.6c-0.2-3.8,0.8-7.5,3-10.5
						c2.5-3.6,6.3-5.9,10.6-6.6c8.9-1.5,17.4,4.6,18.8,13.5c0.1,0.5,0.1,1.1,0.2,1.6c0.1,2.4-0.2,4.8-1.1,7c0,0.1,0,0.1,0,0.2
						c0,0.1,0.1,0.3,0.3,0.3c0.2,0.1,0.5,0,0.5-0.2c1-2.3,1.3-4.9,1.2-7.4c-0.1-0.5-0.1-1.2-0.2-1.7c-1.6-9.4-10.4-15.7-19.8-14.2
						c-4.5,0.8-8.5,3.2-11.1,7c-2.3,3.3-3.4,7.1-3.1,11.1c0.1,0.6,0.1,1.2,0.2,1.8c0.8,4.5,3.2,8.5,7,11.1
						C211.2,94.1,215.1,95.2,219,94.9z"/>
				</g>
			</g>
			<g>
				<g class="st1">
					<path class="st2" d="M294.2,105.5c0.3,0,0.5-0.2,0.5-0.5c0.1-0.5,0.2-1,0.3-1.6c0.1-0.3-0.2-0.7-0.5-0.8
						c-0.3-0.1-0.7,0.2-0.8,0.5c-0.1,0.5-0.2,1-0.3,1.5c-0.1,0.3,0.1,0.7,0.5,0.8C294.1,105.5,294.2,105.5,294.2,105.5z"/>
					<path class="st2" d="M294.8,100.7c-0.3,0-0.6-0.3-0.6-0.7c0-0.9,0-1.8,0-2.7c0-0.2,0-0.3-0.1-0.5c0-0.3,0.2-0.7,0.5-0.7
						s0.7,0.2,0.7,0.5c0,0.2,0,0.4,0.1,0.5c0.1,0.9,0.1,1.8,0.1,2.7C295.4,100.4,295.1,100.7,294.8,100.7
						C294.9,100.7,294.8,100.7,294.8,100.7z M293.6,93.7c-0.2-1-0.5-2.1-0.8-3.1c-0.1-0.3,0.1-0.7,0.4-0.8c0.3-0.1,0.7,0.1,0.8,0.4
						c0.3,1,0.7,2.1,0.9,3.2c0.1,0.3-0.1,0.7-0.5,0.8h-0.1C294,94.3,293.7,94,293.6,93.7z M291.6,87.7c-0.5-1-1-1.9-1.6-2.8
						c-0.2-0.3-0.1-0.7,0.2-0.9c0.3-0.2,0.7-0.1,0.9,0.2c0.6,1,1.2,1.9,1.6,2.9c0.1,0.3,0,0.7-0.3,0.8c-0.1,0.1-0.1,0.1-0.2,0.1
						C291.9,88,291.7,87.9,291.6,87.7z M288.1,82.4c-0.7-0.8-1.4-1.6-2.2-2.3c-0.3-0.2-0.3-0.6-0.1-0.9c0.2-0.3,0.6-0.3,0.9-0.1
						c0.8,0.8,1.6,1.6,2.3,2.4c0.2,0.3,0.2,0.7-0.1,0.9c-0.1,0.1-0.2,0.1-0.3,0.1C288.4,82.6,288.2,82.5,288.1,82.4z M283.4,78
						c-0.9-0.6-1.8-1.2-2.7-1.7c-0.3-0.1-0.4-0.5-0.3-0.8c0.1-0.3,0.5-0.4,0.8-0.3c1,0.5,1.9,1.2,2.8,1.8c0.3,0.2,0.3,0.6,0.1,0.9
						c-0.1,0.1-0.3,0.3-0.5,0.3C283.6,78.1,283.5,78.1,283.4,78z M277.8,74.9c-1-0.4-2-0.8-3-1c-0.3-0.1-0.5-0.4-0.5-0.8
						c0.1-0.3,0.4-0.5,0.8-0.5c1.1,0.3,2.1,0.6,3.2,1c0.3,0.1,0.5,0.5,0.3,0.8c-0.1,0.2-0.3,0.4-0.5,0.4C278,75,277.9,75,277.8,74.9
						z M271.7,73.3c-1-0.1-2.1-0.2-3.2-0.2c-0.3,0-0.6-0.3-0.6-0.6c0-0.3,0.3-0.6,0.6-0.6c1.1,0,2.3,0.1,3.3,0.2
						c0.3,0.1,0.6,0.3,0.5,0.7C272.3,73.1,272.1,73.3,271.7,73.3C271.8,73.3,271.7,73.3,271.7,73.3z M261.4,73.4
						c-0.1-0.3,0.1-0.7,0.5-0.8c1-0.2,1.9-0.4,2.9-0.5c0.1,0,0.3-0.1,0.4-0.1c0.3-0.1,0.7,0.2,0.7,0.5c0.1,0.3-0.2,0.7-0.5,0.7
						c-0.1,0-0.3,0-0.4,0.1c-0.9,0.1-1.8,0.3-2.7,0.5c-0.1,0-0.1,0-0.1,0C261.7,73.9,261.4,73.7,261.4,73.4z"/>
				</g>
				<g class="st1">
					<path class="st2" d="M269.6,126.2c-1.1,0.1-2.2,0.1-3.3,0c-0.3,0-0.6-0.3-0.6-0.7s0.3-0.6,0.7-0.6c1,0.1,2.1,0.1,3.1,0
						c0.3,0,0.6,0.3,0.7,0.6C270.2,125.8,270,126.1,269.6,126.2L269.6,126.2z M272.2,125.3c-0.1-0.3,0.1-0.7,0.5-0.8
						c1-0.2,2.1-0.4,3.1-0.8c0.3-0.1,0.7,0.1,0.8,0.4c0.1,0.3-0.1,0.7-0.4,0.8c-1,0.3-2.1,0.5-3.2,0.8h-0.1
						C272.5,125.8,272.2,125.6,272.2,125.3z M263.1,125.7c-1.1-0.2-2.1-0.5-3.2-0.8c-0.3-0.1-0.5-0.5-0.4-0.8
						c0.1-0.3,0.5-0.5,0.8-0.4c1,0.3,2,0.6,3,0.8c0.3,0.1,0.5,0.4,0.5,0.8c-0.1,0.3-0.3,0.5-0.5,0.5
						C263.2,125.7,263.1,125.7,263.1,125.7z M278.4,123.6c-0.1-0.3,0-0.7,0.3-0.8c1-0.4,1.9-0.9,2.8-1.4c0.3-0.2,0.7-0.1,0.9,0.2
						c0.2,0.3,0.1,0.7-0.2,0.9c-1,0.5-1.9,1.1-2.9,1.5c-0.1,0-0.1,0.1-0.2,0.1C278.7,124,278.5,123.9,278.4,123.6z M256.8,123.7
						c-1-0.5-2-1-2.9-1.6c-0.3-0.2-0.4-0.5-0.2-0.9c0.2-0.3,0.5-0.4,0.9-0.2c0.9,0.5,1.8,1,2.7,1.5c0.3,0.1,0.5,0.5,0.3,0.8
						c-0.1,0.2-0.3,0.3-0.5,0.3C257.1,123.7,256.9,123.7,256.8,123.7z M251.2,120.2c-0.8-0.7-1.6-1.4-2.5-2.2
						c-0.3-0.3-0.2-0.6,0-0.9c0.3-0.3,0.6-0.2,0.9,0c0.8,0.8,1.5,1.4,2.3,2.1c0.3,0.2,0.3,0.6,0.1,0.9c-0.1,0.1-0.3,0.2-0.5,0.2
						C251.5,120.3,251.4,120.3,251.2,120.2z M246.7,115.5c-0.7-0.9-1.3-1.8-1.8-2.7c-0.2-0.3-0.1-0.7,0.2-0.9
						c0.3-0.2,0.7-0.1,0.9,0.2c0.5,0.9,1.1,1.8,1.8,2.6c0.2,0.3,0.1,0.7-0.1,0.9c-0.1,0.1-0.2,0.1-0.3,0.1
						C247,115.7,246.8,115.7,246.7,115.5z"/>
					<path class="st2" d="M284.5,120.6c0.1,0,0.3-0.1,0.3-0.1c0.4-0.3,0.8-0.7,1.2-1c0.3-0.2,0.3-0.6,0.1-0.9s-0.6-0.3-0.9-0.1
						c-0.4,0.3-0.8,0.7-1.2,1c-0.3,0.2-0.3,0.6-0.1,0.9C284.1,120.6,284.3,120.7,284.5,120.6z"/>
				</g>
				<g>
					<path class="st2" d="M286.2,108.8c0.1-0.1,0.1-0.3,0-0.3l-2.3-3.1c0.7-1.6,1.1-3.5,1.2-5.3l3.4-1.8c0.1-0.1,0.2-0.2,0.1-0.3
						l-0.8-4.6c0-0.1-0.1-0.3-0.3-0.3l-3.8-0.6c-0.7-1.7-1.7-3.3-2.9-4.6l1.1-3.7c0.1-0.1,0-0.3-0.1-0.3l-3.8-2.7
						c-0.1-0.1-0.3-0.1-0.3,0l-3.1,2.3c-1.6-0.7-3.5-1.1-5.3-1.2l-1.8-3.4c-0.1-0.1-0.2-0.2-0.3-0.1l-4.6,0.8
						c-0.1,0-0.2,0.1-0.3,0.3l-0.6,3.8c-1.7,0.7-3.3,1.7-4.6,2.9l-3.7-1.1c-0.1-0.1-0.3,0-0.3,0.1l-2.7,3.8c-0.1,0.1-0.1,0.3,0,0.3
						l2.3,3.1c-0.7,1.6-1.1,3.5-1.2,5.3l-3.4,1.8c-0.1,0.1-0.2,0.2-0.1,0.3l0.8,4.6c0,0.1,0.1,0.2,0.3,0.3l3.8,0.6
						c0.7,1.7,1.7,3.3,2.9,4.6l-1.1,3.7c-0.1,0.1,0,0.3,0.1,0.3l3.8,2.7c0.1,0.1,0.3,0.1,0.3,0l3.1-2.3c1.6,0.7,3.5,1.1,5.3,1.2
						l1.8,3.4c0.1,0.1,0.2,0.2,0.3,0.1l4.6-0.8c0.1,0,0.2-0.1,0.3-0.3l0.6-3.8c1.7-0.7,3.3-1.7,4.6-2.9l3.7,1.1
						c0.1,0.1,0.3,0,0.3-0.1L286.2,108.8z"/>
					<g>
						<path class="st3" d="M267.9,103.6c-1.3-0.1-2.4-0.7-3.2-1.6c-0.8-1-1.2-2.2-1.1-3.5c0.2-2.6,2.5-4.6,5.1-4.4s4.6,2.5,4.4,5.1
							c-0.1,1.3-0.7,2.4-1.6,3.2c-0.8,0.7-1.8,1-2.7,1.1C268.3,103.6,268.1,103.6,267.9,103.6z M264.8,98.6c-0.1,1,0.2,1.8,0.8,2.5
							s1.4,1.2,2.4,1.2l0,0c1,0.1,1.8-0.2,2.5-0.8c0.7-0.6,1.2-1.4,1.2-2.4c0.1-1.9-1.3-3.6-3.2-3.8c-0.2,0-0.3,0-0.5,0
							C266.3,95.4,264.9,96.8,264.8,98.6z"/>
					</g>
					<path class="st3" d="M268.9,110.6c0.4,0,0.8-0.1,1.2-0.1c0.8-0.1,1.6-0.3,2.3-0.6c0,0,0.1,0,0.1-0.1c0.3-0.1,0.4-0.3,0.4-0.6
						c0-0.1,0-0.1-0.1-0.2c-0.1-0.3-0.5-0.5-0.8-0.3c-0.7,0.3-1.4,0.5-2.2,0.6l0,0c-0.1,0-0.1,0-0.1,0c-1.8,0.3-3.6,0.1-5.2-0.5
						c-0.9-0.3-1.7-0.8-2.5-1.3l0,0c0,0-0.1,0-0.1-0.1c-2.3-1.6-3.8-4.1-4.3-6.9c-0.1-0.3-0.1-0.8-0.1-1.1c-0.1-2.4,0.5-4.8,2-6.8
						c1.6-2.3,4.1-3.8,6.9-4.3c2.8-0.5,5.6,0.2,7.9,1.8c2.3,1.6,3.8,4.1,4.3,6.9c0.1,0.3,0.1,0.7,0.1,1.1c0.1,1.6-0.1,3.1-0.7,4.5
						c-0.1,0.1-0.1,0.2-0.1,0.3c0,0.2,0.1,0.5,0.4,0.5c0.3,0.1,0.7,0,0.8-0.3c0.6-1.6,0.9-3.3,0.8-5.1c0-0.4-0.1-0.8-0.1-1.2
						c-0.5-3.1-2.2-5.9-4.8-7.7c-2.6-1.8-5.7-2.6-8.8-2.1c-3.1,0.5-5.9,2.2-7.7,4.8c-1.6,2.3-2.4,4.9-2.2,7.6c0,0.4,0.1,0.8,0.1,1.2
						C257.5,106.8,262.9,110.9,268.9,110.6z"/>
				</g>
			</g>
		</g>
		<g>
			<linearGradient id="SVGID_2_" gradientUnits="userSpaceOnUse" x1="290.3881" y1="102.5785" x2="37.1667" y2="295.3831">
				<stop  offset="0" style="stop-color:#09005D"/>
				<stop  offset="1" style="stop-color:#1A0F91"/>
			</linearGradient>
			<path class="st4" d="M17.6,102.3l286.2-4.8c11.5-0.2,20.8,9.7,20.1,21.5l-9.9,169.4c-0.5,9.3-8,16.5-17.1,16.6l-275.1,2.7
				c-6.8,0.1-12.4-5.4-12.7-12.4L2.7,118.5C2.3,109.7,9.1,102.4,17.6,102.3z"/>
			<path class="st5" d="M22,106.6l278.7-4.6c11.2-0.2,20.2,9.2,19.6,20.4l-9.6,161.2c-0.5,8.8-7.8,15.7-16.6,15.8L26.2,302
				c-6.6,0.1-12.1-5.1-12.3-11.8L7.4,122C7.1,113.7,13.7,106.7,22,106.6z"/>
			<path class="st2" d="M27.6,115.2l266.3-4.3c10.7-0.2,19.3,8.6,18.7,19.1l-9.2,151c-0.5,8.3-7.4,14.7-15.9,14.8l-255.9,2.4
				c-6.3,0.1-11.5-4.8-11.8-11l-6.1-157.6C13.4,121.9,19.7,115.4,27.6,115.2z"/>
			<g>
				<path class="st6" d="M104.1,137.1l-73.7,0.2c-1.4,0-2.5-1.1-2.5-2.5l0-2c0-1.4,1.1-2.5,2.5-2.5l73.7-0.2c1.4,0,2.5,1.1,2.5,2.5
					l0,2C106.5,135.9,105.4,137.1,104.1,137.1z"/>
				<path class="st6" d="M155.5,137.1l-27,0.1c-0.2,0-0.3-0.1-0.3-0.3l0-6.4c0-0.2,0.1-0.3,0.3-0.3l27-0.1c0.2,0,0.3,0.1,0.3,0.3
					l0,6.4C155.8,136.9,155.6,137.1,155.5,137.1z"/>
				<path class="st6" d="M212.6,136.9l-47.8,0.1c-1.9,0-3.4-1.5-3.4-3.4l0-0.2c0-1.9,1.5-3.4,3.4-3.4l47.8-0.1
					c1.9,0,3.4,1.5,3.4,3.4l0,0.2C215.9,135.4,214.4,136.9,212.6,136.9z"/>
				<path class="st6" d="M45.5,149.4l-14.3,0c-1.9,0-3.4-1.5-3.4-3.4l0-0.2c0-1.9,1.5-3.4,3.4-3.4l14.3,0c1.9,0,3.4,1.5,3.4,3.4
					l0,0.2C48.9,147.9,47.4,149.4,45.5,149.4z"/>
				<path class="st6" d="M104.2,149.3L52,149.4c-1.4,0-2.5-1.1-2.5-2.5l0-2c0-1.4,1.1-2.5,2.5-2.5l52.3-0.1c1.4,0,2.5,1.1,2.5,2.5
					l0,2C106.7,148.1,105.6,149.3,104.2,149.3z"/>
				<path class="st6" d="M155.7,149.3l-27,0.1c-0.2,0-0.3-0.1-0.3-0.3l0-6.4c0-0.2,0.1-0.3,0.3-0.3l27-0.1c0.2,0,0.3,0.1,0.3,0.3
					l0,6.4C156,149.1,155.9,149.3,155.7,149.3z"/>
				<path class="st6" d="M260.1,149l-78.9,0.2c-0.2,0-0.4-0.2-0.5-0.4l0-6c0-0.2,0.2-0.4,0.4-0.5l78.9-0.2c0.2,0,0.4,0.2,0.5,0.4
					l0,6C260.6,148.8,260.4,149,260.1,149z"/>
				<path class="st6" d="M45.5,161.6l-14.3,0c-1.9,0-3.4-1.5-3.4-3.4l0-0.2c0-1.9,1.5-3.4,3.4-3.4l14.3,0c1.9,0,3.4,1.5,3.4,3.4
					l0,0.2C48.9,160.1,47.4,161.6,45.5,161.6z"/>
				<path class="st6" d="M106.4,161.4l-56.6,0.1c-0.2,0-0.3-0.1-0.3-0.3l0-6.3c0-0.2,0.1-0.3,0.3-0.3l56.6-0.1
					c0.2,0,0.3,0.1,0.3,0.3l0,6.3C106.7,161.3,106.6,161.4,106.4,161.4z"/>
				<path class="st6" d="M155.7,161.5l-27,0.1c-0.2,0-0.3-0.1-0.3-0.3l0-6.4c0-0.2,0.1-0.3,0.3-0.3l27-0.1c0.2,0,0.3,0.1,0.3,0.3
					l0,6.4C156,161.3,155.9,161.5,155.7,161.5z"/>
				<path class="st6" d="M225.2,161.3l-40.5,0.1c-0.1,0-0.2-0.2-0.2-0.4l0-6c0-0.2,0.1-0.4,0.2-0.4l40.5-0.1c0.1,0,0.2,0.2,0.2,0.4
					l0,6C225.4,161.1,225.3,161.3,225.2,161.3z"/>
				<path class="st6" d="M48.6,173.8l-20.2,0.1c-0.2,0-0.4-0.2-0.5-0.4l0-6c0-0.2,0.2-0.4,0.4-0.5l20.2-0.1c0.2,0,0.4,0.2,0.5,0.4
					l0,6C49.1,173.6,48.9,173.8,48.6,173.8z"/>
				<path class="st6" d="M104.6,173.6l-52.3,0.1c-1.4,0-2.5-1.1-2.5-2.5l0-2c0-1.4,1.1-2.5,2.5-2.5l52.3-0.1c1.4,0,2.5,1.1,2.5,2.5
					l0,2C107,172.5,105.9,173.6,104.6,173.6z"/>
				<path class="st6" d="M156,173.7l-27,0.1c-0.2,0-0.3-0.1-0.3-0.3l0-6.4c0-0.2,0.1-0.3,0.3-0.3l27-0.1c0.2,0,0.3,0.1,0.3,0.3
					l0,6.4C156.3,173.5,156.1,173.7,156,173.7z"/>
				<path class="st6" d="M225.5,173.5l-40.5,0.1c-0.1,0-0.2-0.2-0.2-0.4l0-6c0-0.2,0.1-0.4,0.2-0.4l40.5-0.1c0.1,0,0.2,0.2,0.2,0.4
					l0,6C225.7,173.3,225.6,173.5,225.5,173.5z"/>
				<path class="st6" d="M48.6,186.4l-20.2,0.1c-0.2,0-0.4-0.2-0.5-0.4l0-6c0-0.2,0.2-0.4,0.4-0.5l20.2-0.1c0.2,0,0.4,0.2,0.5,0.4
					l0,6C49.1,186.2,48.9,186.4,48.6,186.4z"/>
				<path class="st6" d="M104.5,186.3l-52.3,0.1c-1.4,0-2.5-1.1-2.5-2.5l0-2c0-1.4,1.1-2.5,2.5-2.5l52.3-0.1c1.4,0,2.5,1.1,2.5,2.5
					l0,2C107,185.2,105.9,186.3,104.5,186.3z"/>
				<path class="st6" d="M155.9,186.3l-27,0.1c-0.2,0-0.3-0.1-0.3-0.3l0-6.4c0-0.2,0.1-0.3,0.3-0.3l27-0.1c0.2,0,0.3,0.1,0.3,0.3
					l0,6.4C156.2,186.2,156.1,186.3,155.9,186.3z"/>
				<path class="st6" d="M225.4,186.1l-40.5,0.1c-0.1,0-0.2-0.2-0.2-0.4l0-6c0-0.2,0.1-0.4,0.2-0.4l40.5-0.1c0.1,0,0.2,0.2,0.2,0.4
					l0,6C225.6,185.9,225.5,186.1,225.4,186.1z"/>
				<path class="st6" d="M48.8,198.6l-20.2,0.1c-0.2,0-0.4-0.2-0.5-0.4l0-6c0-0.2,0.2-0.4,0.4-0.5l20.2-0.1c0.2,0,0.4,0.2,0.5,0.4
					l0,6C49.3,198.4,49.1,198.6,48.8,198.6z"/>
				<path class="st6" d="M104.8,198.5l-52.3,0.1c-1.4,0-2.5-1.1-2.5-2.5l0-2c0-1.4,1.1-2.5,2.5-2.5l52.3-0.1c1.4,0,2.5,1.1,2.5,2.5
					l0,2C107.3,197.4,106.2,198.5,104.8,198.5z"/>
				<path class="st6" d="M156.2,198.5l-27,0.1c-0.2,0-0.3-0.1-0.3-0.3l0-6.4c0-0.2,0.1-0.3,0.3-0.3l27-0.1c0.2,0,0.3,0.1,0.3,0.3
					l0,6.4C156.5,198.4,156.3,198.5,156.2,198.5z"/>
				<path class="st6" d="M224.9,198.3l-62.8,0.2c-0.2,0-0.4-0.2-0.5-0.4l0-6c0-0.2,0.2-0.4,0.4-0.5l62.8-0.2c0.2,0,0.4,0.2,0.5,0.4
					l0,6C225.3,198.1,225.1,198.3,224.9,198.3z"/>
				<path class="st6" d="M104.9,210.7l-74.1,0.2c-1.4,0-2.5-1.1-2.5-2.5l0-2c0-1.4,1.1-2.5,2.5-2.5l74.1-0.2c1.4,0,2.5,1.1,2.5,2.5
					l0,2C107.3,209.6,106.2,210.7,104.9,210.7z"/>
				<path class="st6" d="M156.2,210.7l-27,0.1c-0.2,0-0.3-0.1-0.3-0.3l0-6.4c0-0.2,0.1-0.3,0.3-0.3l27-0.1c0.2,0,0.3,0.1,0.3,0.3
					l0,6.4C156.5,210.6,156.4,210.7,156.2,210.7z"/>
				<path class="st6" d="M255,210.4l-78.6,0.2c-0.2,0-0.4-0.2-0.5-0.4l0-6c0-0.2,0.2-0.4,0.4-0.5l78.6-0.2c0.2,0,0.4,0.2,0.5,0.4
					l0,6C255.5,210.2,255.3,210.4,255,210.4z"/>
				<path class="st6" d="M48.2,223l-19.3,0.1c-0.2,0-0.4-0.2-0.5-0.4l0-6c0-0.2,0.2-0.4,0.4-0.5l19.3-0.1c0.2,0,0.4,0.2,0.5,0.4l0,6
					C48.7,222.8,48.5,223,48.2,223z"/>
				<path class="st6" d="M107.3,222.9L50.7,223c-0.2,0-0.3-0.1-0.3-0.3l0-6.3c0-0.2,0.1-0.3,0.3-0.3l56.6-0.1c0.2,0,0.3,0.1,0.3,0.3
					l0,6.3C107.6,222.7,107.5,222.9,107.3,222.9z"/>
				<path class="st6" d="M156.5,222.9l-27,0.1c-0.2,0-0.3-0.1-0.3-0.3l0-6.4c0-0.2,0.1-0.3,0.3-0.3l27-0.1c0.2,0,0.3,0.1,0.3,0.3
					l0,6.4C156.7,222.8,156.6,222.9,156.5,222.9z"/>
				<path class="st6" d="M295.3,222.5l-106.7,0.3c-0.2,0-0.4-0.2-0.5-0.4l0-6c0-0.2,0.2-0.4,0.4-0.5l106.7-0.3
					c0.2,0,0.4,0.2,0.5,0.4l0,6C295.8,222.3,295.6,222.5,295.3,222.5z"/>
				<path class="st6" d="M48.7,259.4l-20.2,0.1c-0.2,0-0.4-0.2-0.5-0.4l0-6c0-0.2,0.2-0.4,0.4-0.5l20.2-0.1c0.2,0,0.4,0.2,0.5,0.4
					l0,6C49.1,259.2,48.9,259.4,48.7,259.4z"/>
				<path class="st6" d="M106.9,259.3l-56.6,0.1c-0.2,0-0.3-0.1-0.3-0.3l0-6.3c0-0.2,0.1-0.3,0.3-0.3l56.6-0.1
					c0.2,0,0.3,0.1,0.3,0.3l0,6.3C107.2,259.2,107.1,259.3,106.9,259.3z"/>
				<path class="st6" d="M156.1,259.3l-27,0.1c-0.2,0-0.3-0.1-0.3-0.3l0-6.4c0-0.2,0.1-0.3,0.3-0.3l27-0.1c0.2,0,0.3,0.1,0.3,0.3
					l0,6.4C156.4,259.2,156.2,259.3,156.1,259.3z"/>
				<path class="st6" d="M224.8,259.1l-62.8,0.2c-0.2,0-0.4-0.2-0.5-0.4l0-6c0-0.2,0.2-0.4,0.4-0.5l62.8-0.2c0.2,0,0.4,0.2,0.5,0.4
					l0,6C225.2,258.9,225,259.1,224.8,259.1z"/>
				<path class="st6" d="M104.8,271.5l-74.1,0.2c-1.4,0-2.5-1.1-2.5-2.5l0-2c0-1.4,1.1-2.5,2.5-2.5l74.1-0.2c1.4,0,2.5,1.1,2.5,2.5
					l0,2C107.2,270.4,106.1,271.5,104.8,271.5z"/>
				<path class="st6" d="M156.1,271.5l-27,0.1c-0.2,0-0.3-0.1-0.3-0.3l0-6.4c0-0.2,0.1-0.3,0.3-0.3l27-0.1c0.2,0,0.3,0.1,0.3,0.3
					l0,6.4C156.4,271.4,156.2,271.5,156.1,271.5z"/>
				<path class="st6" d="M254.8,271.2l-78.6,0.2c-0.2,0-0.4-0.2-0.5-0.4l0-6c0-0.2,0.2-0.4,0.4-0.5l78.6-0.2c0.2,0,0.4,0.2,0.5,0.4
					l0,6C255.3,271,255.1,271.2,254.8,271.2z"/>
				<path class="st6" d="M48.1,283.8l-19.3,0.1c-0.2,0-0.4-0.2-0.5-0.4l0-6c0-0.2,0.2-0.4,0.4-0.5l19.3-0.1c0.2,0,0.4,0.2,0.5,0.4
					l0,6C48.6,283.6,48.4,283.8,48.1,283.8z"/>
				<path class="st6" d="M107.2,283.7l-56.6,0.1c-0.2,0-0.3-0.1-0.3-0.3l0-6.3c0-0.2,0.1-0.3,0.3-0.3l56.6-0.1
					c0.2,0,0.3,0.1,0.3,0.3l0,6.3C107.5,283.5,107.4,283.7,107.2,283.7z"/>
				<path class="st6" d="M156.3,283.7l-27,0.1c-0.2,0-0.3-0.1-0.3-0.3l0-6.4c0-0.2,0.1-0.3,0.3-0.3l27-0.1c0.2,0,0.3,0.1,0.3,0.3
					l0,6.4C156.6,283.6,156.5,283.7,156.3,283.7z"/>
				<path class="st6" d="M295.2,283.3l-106.7,0.3c-0.2,0-0.4-0.2-0.5-0.4l0-6c0-0.2,0.2-0.4,0.4-0.5l106.7-0.3
					c0.2,0,0.4,0.2,0.5,0.4l0,6C295.6,283.1,295.4,283.3,295.2,283.3z"/>
				<path class="st6" d="M45.1,235.4l-13.5,0c-1.9,0-3.4-1.5-3.4-3.4l0-0.2c0-1.9,1.5-3.4,3.4-3.4l13.5,0c1.9,0,3.4,1.5,3.4,3.4
					l0,0.2C48.5,233.9,47,235.4,45.1,235.4z"/>
				<path class="st6" d="M104.8,235.3l-52.3,0.1c-1.4,0-2.5-1.1-2.5-2.5l0-2c0-1.4,1.1-2.5,2.5-2.5l52.3-0.1c1.4,0,2.5,1.1,2.5,2.5
					l0,2C107.2,234.2,106.1,235.3,104.8,235.3z"/>
				<path class="st6" d="M156.2,235.3l-27,0.1c-0.2,0-0.3-0.1-0.3-0.3l0-6.4c0-0.2,0.1-0.3,0.3-0.3l27-0.1c0.2,0,0.3,0.1,0.3,0.3
					l0,6.4C156.5,235.2,156.3,235.3,156.2,235.3z"/>
				<path class="st6" d="M294.5,234.9l-106.7,0.3c-0.2,0-0.4-0.2-0.5-0.4l0-6c0-0.2,0.2-0.4,0.4-0.5l106.7-0.3
					c0.2,0,0.4,0.2,0.5,0.4l0,6C295,234.7,294.8,234.9,294.5,234.9z"/>
				<path class="st6" d="M45.3,247.6l-13.5,0c-1.9,0-3.4-1.5-3.4-3.4l0-0.2c0-1.9,1.5-3.4,3.4-3.4l13.5,0c1.9,0,3.4,1.5,3.4,3.4
					l0,0.2C48.7,246.1,47.2,247.6,45.3,247.6z"/>
				<path class="st6" d="M105.1,247.5l-52.3,0.1c-1.4,0-2.5-1.1-2.5-2.5l0-2c0-1.4,1.1-2.5,2.5-2.5l52.3-0.1c1.4,0,2.5,1.1,2.5,2.5
					l0,2C107.6,246.4,106.5,247.5,105.1,247.5z"/>
				<path class="st6" d="M156.4,247.5l-27,0.1c-0.2,0-0.3-0.1-0.3-0.3l0-6.4c0-0.2,0.1-0.3,0.3-0.3l27-0.1c0.2,0,0.3,0.1,0.3,0.3
					l0,6.4C156.7,247.4,156.6,247.5,156.4,247.5z"/>
				<path class="st6" d="M295.1,247.1l-106.7,0.3c-0.2,0-0.4-0.2-0.5-0.4l0-6c0-0.2,0.2-0.4,0.4-0.5l106.7-0.3
					c0.2,0,0.4,0.2,0.5,0.4l0,6C295.6,246.9,295.4,247.1,295.1,247.1z"/>
				<path class="st6" d="M119.4,291.9l-2.2,0c-0.1,0-0.2-0.1-0.2-0.2l-0.4-170.6c0-0.1,0.1-0.2,0.2-0.2l2.2,0c0.1,0,0.2,0.1,0.2,0.2
					l0.4,170.6C119.5,291.8,119.5,291.9,119.4,291.9z"/>
			</g>
			<g>
				<path class="st7" d="M257.1,166.7c0-2.5,0-4.9,0-7.4c0-0.5-0.2-1.1-0.6-1.5c-0.3-0.3-1-0.6-1.5-0.6l0,0h-0.1c-0.1,0-0.1,0-0.1,0
					h-0.1c-0.1,0-0.3,0.1-0.4,0.1c-0.3,0.1-0.7,0.3-1,0.5c-2.5,2-4.9,4-7.3,5.9c-0.7,0.5-1.4,1.1-2.1,1.6c-0.2,0.2-0.3,0.4-0.4,0.7
					c-0.1,0.3-0.2,0.5-0.2,0.8c0,0.5,0.2,1.2,0.6,1.5c0.4,0.3,1,0.7,1.5,0.6c0.2,0,0.4-0.1,0.5-0.1c0.3-0.1,0.7-0.3,1-0.5
					c1.9-1.6,3.9-3.1,5.8-4.7c0,2.9,0,5.8,0,8.8c0,4.4,0,8.7,0,13.1c0,2.5,0,4.9,0,7.4c0,0.5,0.2,1.1,0.6,1.5c0.3,0.3,1,0.6,1.5,0.6
					s1.1-0.2,1.5-0.6s0.6-1,0.6-1.5c0-4.4,0-8.8,0-13.1C257.1,175.5,257.1,171.1,257.1,166.7z"/>
				<path class="st7" d="M289.3,188.2c-0.4-0.3-1-0.7-1.5-0.6c-0.5,0-1.2,0.2-1.5,0.6c-0.3,0.4-0.7,0.8-1.1,1c-0.5,0.3-1,0.7-1.6,1
					s-1.3,0.4-2,0.5c-0.8,0.1-1.5,0.1-2.3,0c-0.8-0.1-1.4-0.3-2.1-0.6c-0.8-0.3-1.5-0.8-2.2-1.3c-0.8-0.6-1.5-1.4-2.1-2.1
					c-0.7-1-1.3-2-1.8-3c-0.5-1.4-1-2.9-1.2-4.4c-0.3-2.2-0.2-4.4,0.1-6.7c0.3-1.8,0.7-3.7,1.4-5.4c0.4-0.9,0.9-1.8,1.4-2.5
					c0.5-0.5,1-1.1,1.6-1.6c0.6-0.5,1.3-0.8,2-1.2c0.8-0.3,1.6-0.5,2.3-0.6c0.8-0.1,1.5-0.1,2.3,0c0.5,0.1,1.2,0.3,1.7,0.5
					c0.4,0.2,0.8,0.4,1.2,0.7c0.3,0.2,0.5,0.4,0.7,0.7c0.1,0.2,0.3,0.4,0.4,0.6c0.2,0.5,0.8,0.8,1.3,1c0.5,0.1,1.2,0.1,1.6-0.2
					c0.5-0.3,0.9-0.8,1-1.3c0-0.2,0.1-0.4,0.1-0.5c0-0.4-0.1-0.8-0.3-1.1c-0.6-1.2-1.5-2.1-2.6-2.9c-0.4-0.3-0.8-0.5-1.3-0.8
					c-0.6-0.3-1.2-0.5-1.8-0.7c-0.7-0.1-1.3-0.3-2-0.3c-0.5-0.1-1-0.1-1.6-0.1c-1.2,0.1-2.5,0.3-3.6,0.7c-2.3,0.8-4.4,2.2-6,4.1
					c-0.8,1-1.4,2-2,3.1c-0.5,1.2-1,2.3-1.3,3.6c-0.3,1.1-0.5,2.1-0.6,3.2c-0.2,1.4-0.3,2.7-0.3,4.2c0,1.2,0,2.5,0.2,3.7
					c0.2,1.4,0.4,2.7,0.8,4c0.3,1.2,0.9,2.3,1.4,3.4c0.5,1,1.2,2,2,2.9c0.6,0.8,1.4,1.5,2.2,2.1c0.9,0.8,1.8,1.4,2.9,1.8
					c1,0.5,2.1,0.8,3.3,1c1.2,0.1,2.3,0.3,3.4,0.1c1.2-0.1,2.3-0.3,3.3-0.8c0.6-0.3,1.2-0.5,1.7-0.8c0.5-0.3,1.1-0.8,1.6-1.2
					c0.3-0.3,0.7-0.6,1-1c0.2-0.2,0.3-0.4,0.4-0.7c0.1-0.3,0.2-0.5,0.2-0.8C289.9,189.2,289.7,188.5,289.3,188.2z"/>
			</g>
		</g>
		<g>
			<g>
				<linearGradient id="SVGID_3_" gradientUnits="userSpaceOnUse" x1="116.377" y1="306.8647" x2="115.8084" y2="315.6786">
					<stop  offset="0" style="stop-color:#09005D"/>
					<stop  offset="1" style="stop-color:#1A0F91"/>
				</linearGradient>
				<path class="st8" d="M191.8,322.7H38.6c-1.4,0-2.5,1.1-2.5,2.5c0,1.4,1.1,2.5,2.5,2.5h153.2c1.4,0,2.5-1.1,2.5-2.5
					C194.3,323.8,193.2,322.7,191.8,322.7z"/>
				<linearGradient id="SVGID_4_" gradientUnits="userSpaceOnUse" x1="116.5998" y1="282.5197" x2="114.6096" y2="325.736">
					<stop  offset="0" style="stop-color:#09005D"/>
					<stop  offset="1" style="stop-color:#1A0F91"/>
				</linearGradient>
				<path class="st9" d="M170.1,297.5H60.3c-3.3,0-6,2.7-6,6v19.2h121.8v-19.2C176.1,300.2,173.4,297.5,170.1,297.5z"/>
				<linearGradient id="SVGID_5_" gradientUnits="userSpaceOnUse" x1="116.3425" y1="270.7711" x2="114.6366" y2="306.8794">
					<stop  offset="0" style="stop-color:#09005D"/>
					<stop  offset="1" style="stop-color:#1A0F91"/>
				</linearGradient>
				<path class="st10" d="M162,286.8H68.4c-3.3,0-6,2.7-6,6v4.7H168v-4.7C168,289.5,165.3,286.8,162,286.8z"/>
				<linearGradient id="SVGID_6_" gradientUnits="userSpaceOnUse" x1="117.4367" y1="246.4417" x2="114.9304" y2="280.6947">
					<stop  offset="0" style="stop-color:#09005D"/>
					<stop  offset="1" style="stop-color:#1A0F91"/>
				</linearGradient>
				<path class="st11" d="M143.4,286.8H87v-18.9c0-7,5.7-12.7,12.7-12.7h31c7,0,12.7,5.7,12.7,12.7V286.8z"/>
			</g>
			<g>
				<g>
					
						<linearGradient id="SVGID_7_" gradientUnits="userSpaceOnUse" x1="-2096.7136" y1="-441.8604" x2="-2084.3403" y2="-441.8604" gradientTransform="matrix(0.7357 -0.6774 0.6774 0.7357 1901.9397 -879.0761)">
						<stop  offset="0" style="stop-color:#09005D"/>
						<stop  offset="1" style="stop-color:#1A0F91"/>
					</linearGradient>
					<path class="st12" d="M23.3,164.8c-1.4,1.3-1.5,3.4-0.3,4.8l77.1,90.1c1.3,1.5,3.5,1.6,4.9,0.3l6.6-6l-84.9-92.3L23.3,164.8z"
						/>
					
						<linearGradient id="SVGID_8_" gradientUnits="userSpaceOnUse" x1="-2088.3442" y1="-452.3395" x2="-2058.3357" y2="-452.3395" gradientTransform="matrix(0.7357 -0.6774 0.6774 0.7357 1901.9397 -879.0761)">
						<stop  offset="0" style="stop-color:#09005D"/>
						<stop  offset="1" style="stop-color:#1A0F91"/>
					</linearGradient>
					<path class="st13" d="M33.8,135.9c-2.6-2.7-7-2.9-9.7-0.3l-6.9,6.4c-2.8,2.6-3,6.9-0.5,9.7l92,105l19.3-17.8
						c1.6-1.4,1.6-3.9,0.2-5.4L33.8,135.9z"/>
					
						<linearGradient id="SVGID_9_" gradientUnits="userSpaceOnUse" x1="-2052.0166" y1="-515.4762" x2="-2079.6992" y2="-434.665" gradientTransform="matrix(0.7357 -0.6774 0.6774 0.7357 1901.9397 -879.0761)">
						<stop  offset="0" style="stop-color:#4F52FF"/>
						<stop  offset="1" style="stop-color:#4042E2"/>
					</linearGradient>
					<path class="st14" d="M40.4,157.9l-0.7,0.7c-2.2,2.1-2.4,5.6-0.3,7.8L88,219.1c2.1,2.2,5.6,2.4,7.8,0.3l0.7-0.7
						c2.2-2.1,2.4-5.6,0.3-7.8l-48.6-52.7C46.2,155.9,42.7,155.8,40.4,157.9z"/>
					
						<rect x="66.7" y="147.3" transform="matrix(0.7357 -0.6773 0.6773 0.7357 -109.7585 95.9808)" class="st5" width="2.8" height="82.7"/>
				</g>
				<g>
					
						<linearGradient id="SVGID_10_" gradientUnits="userSpaceOnUse" x1="-2102.1111" y1="-380.3821" x2="-2052.9385" y2="-380.3821" gradientTransform="matrix(0.7357 -0.6774 0.6774 0.7357 1901.9397 -879.0761)">
						<stop  offset="0" style="stop-color:#4F52FF"/>
						<stop  offset="1" style="stop-color:#4042E2"/>
					</linearGradient>
					<circle class="st15" cx="115.8" cy="248.4" r="24.6"/>
					
						<ellipse transform="matrix(0.5889 -0.8082 0.8082 0.5889 -153.1348 195.7429)" class="st5" cx="115.8" cy="248.4" rx="18.8" ry="18.8"/>
				</g>
			</g>
			<g>
				<g>
					
						<linearGradient id="SVGID_11_" gradientUnits="userSpaceOnUse" x1="-3149.8896" y1="-865.1211" x2="-3146.4788" y2="-888.998" gradientTransform="matrix(0.5261 -0.8505 0.8505 0.5261 2472.4126 -2102.1584)">
						<stop  offset="0" style="stop-color:#09005D"/>
						<stop  offset="1" style="stop-color:#1A0F91"/>
					</linearGradient>
					<path class="st16" d="M33.5,148.6l6.1,3.8c1.3,0.8,3.1,0.4,3.9-1l47.2-82.7c0.8-1.3,0.3-3-0.9-3.7l-3.2-2L33.5,148.6z"/>
					
						<linearGradient id="SVGID_12_" gradientUnits="userSpaceOnUse" x1="-3196.9707" y1="-898.8267" x2="-3079.4351" y2="-898.8267" gradientTransform="matrix(0.5261 -0.8505 0.8505 0.5261 2472.4126 -2102.1584)">
						<stop  offset="0" style="stop-color:#09005D"/>
						<stop  offset="1" style="stop-color:#1A0F91"/>
					</linearGradient>
					<path class="st17" d="M84.6,42l6.4,4c2.6,1.6,3.4,5,1.9,7.6l-56.6,96.7l-17.9-11.1c-1.5-0.9-1.9-2.8-0.9-4.2L77,43.7
						C78.6,41.2,82,40.4,84.6,42z"/>
					
						<linearGradient id="SVGID_13_" gradientUnits="userSpaceOnUse" x1="-3135.5247" y1="-922.8182" x2="-3142.5798" y2="-881.4948" gradientTransform="matrix(0.5261 -0.8505 0.8505 0.5261 2472.4126 -2102.1584)">
						<stop  offset="0" style="stop-color:#4F52FF"/>
						<stop  offset="1" style="stop-color:#4042E2"/>
					</linearGradient>
					<path class="st18" d="M67.2,66.4l-31.7,51.2c-1.4,2.3-0.7,5.2,1.6,6.6c2.3,1.4,5.2,0.7,6.6-1.6l31.7-51.2
						c1.4-2.3,0.7-5.2-1.6-6.6C71.6,63.5,68.6,64.2,67.2,66.4z"/>
					
						<rect x="20.6" y="93.5" transform="matrix(0.5261 -0.8504 0.8504 0.5261 -54.1385 92.0075)" class="st5" width="69.9" height="2.2"/>
				</g>
				<g>
					
						<linearGradient id="SVGID_14_" gradientUnits="userSpaceOnUse" x1="-3215.7302" y1="-895.4662" x2="-3176.2432" y2="-895.4662" gradientTransform="matrix(0.5261 -0.8505 0.8505 0.5261 2472.4126 -2102.1584)">
						<stop  offset="0" style="stop-color:#4F52FF"/>
						<stop  offset="1" style="stop-color:#4042E2"/>
					</linearGradient>
					<circle class="st19" cx="29.4" cy="144.9" r="19.7"/>
					
						<ellipse transform="matrix(0.3367 -0.9416 0.9416 0.3367 -116.955 123.8271)" class="st5" cx="29.4" cy="144.9" rx="15.1" ry="15.1"/>
				</g>
			</g>
			<g>
				
					<linearGradient id="SVGID_15_" gradientUnits="userSpaceOnUse" x1="2198.4917" y1="-959.7632" x2="2268.1223" y2="-959.7632" gradientTransform="matrix(0.8544 0.5197 -0.5197 0.8544 -2287.356 -279.8027)">
					<stop  offset="0" style="stop-color:#09005D"/>
					<stop  offset="1" style="stop-color:#1A0F91"/>
				</linearGradient>
				<path class="st20" d="M150.9,76.4l-3.1,5.1c-1.2,2-3.5,3-5.1,2.1L84.9,50.8l8.6-14.1c0.7-1.1,2-1.6,2.8-1.1l54.1,35.3
					C151.9,71.9,152.1,74.3,150.9,76.4z"/>
			</g>
			<g>
				
					<linearGradient id="SVGID_16_" gradientUnits="userSpaceOnUse" x1="2224.9185" y1="-981.6754" x2="2174.3123" y2="-933.6279" gradientTransform="matrix(0.8544 0.5197 -0.5197 0.8544 -2287.356 -279.8027)">
					<stop  offset="0" style="stop-color:#4F52FF"/>
					<stop  offset="1" style="stop-color:#4042E2"/>
				</linearGradient>
				<circle class="st21" cx="92.7" cy="44.5" r="15.5"/>
				
					<ellipse transform="matrix(8.482937e-02 -0.9964 0.9964 8.482937e-02 40.5108 133.0493)" class="st5" cx="92.7" cy="44.5" rx="11.8" ry="11.8"/>
			</g>
			
				<linearGradient id="SVGID_17_" gradientUnits="userSpaceOnUse" x1="2331.8496" y1="-971.4692" x2="2290.0273" y2="-971.9731" gradientTransform="matrix(0.8544 0.5197 -0.5197 0.8544 -2287.356 -279.8027)">
				<stop  offset="0" style="stop-color:#4F52FF"/>
				<stop  offset="1" style="stop-color:#4042E2"/>
			</linearGradient>
			<polygon class="st22" points="160.6,77.8 173.6,68.5 191.5,90.3 188.8,93.5 172.6,76.1 162.6,83.4 			"/>
			<g>
				<linearGradient id="SVGID_18_" gradientUnits="userSpaceOnUse" x1="230.7878" y1="130.6917" x2="192.0913" y2="106.2103">
					<stop  offset="0" style="stop-color:#4F52FF"/>
					<stop  offset="1" style="stop-color:#4042E2"/>
				</linearGradient>
				<path class="st23" d="M156.4,71.6l-2.3-1.4c-1-0.6-2.4-0.3-3,0.7l-8.2,13.7c-0.6,1-0.3,2.4,0.7,3l2.3,1.4c1,0.6,2.4,0.3,3-0.7
					l8.2-13.7C157.7,73.5,157.4,72.2,156.4,71.6z"/>
				
					<linearGradient id="SVGID_19_" gradientUnits="userSpaceOnUse" x1="2336.5403" y1="-945.7278" x2="2294.7183" y2="-946.2317" gradientTransform="matrix(0.8544 0.5197 -0.5197 0.8544 -2287.356 -279.8027)">
					<stop  offset="0" style="stop-color:#4F52FF"/>
					<stop  offset="1" style="stop-color:#4042E2"/>
				</linearGradient>
				<polygon class="st24" points="157.3,93.3 155.3,109.1 183,114.4 184.5,110.5 161.5,104.6 163.1,92.3 				"/>
				
					<linearGradient id="SVGID_20_" gradientUnits="userSpaceOnUse" x1="2278.5815" y1="-959.7614" x2="2290.0171" y2="-959.7614" gradientTransform="matrix(0.8544 0.5197 -0.5197 0.8544 -2287.356 -279.8027)">
					<stop  offset="0" style="stop-color:#09005D"/>
					<stop  offset="1" style="stop-color:#1A0F91"/>
				</linearGradient>
				<path class="st25" d="M153.1,92.8c2.7,2.2,6.4,2.9,9.8,1.7c5.2-1.9,7.8-7.7,5.9-12.9c-1-2.6-2.9-4.6-5.3-5.7L153.1,92.8z"/>
				
					<linearGradient id="SVGID_21_" gradientUnits="userSpaceOnUse" x1="2283.8579" y1="-968.7205" x2="2265.0476" y2="-946.6102" gradientTransform="matrix(0.8544 0.5197 -0.5197 0.8544 -2287.356 -279.8027)">
					<stop  offset="0" style="stop-color:#4F52FF"/>
					<stop  offset="1" style="stop-color:#4042E2"/>
				</linearGradient>
				<path class="st26" d="M147.4,89.3l-1.6,2.7c-0.3,0.5-0.1,1.1,0.4,1.5l5,3c0.5,0.3,1.2,0.2,1.5-0.3l13.1-21.7
					c0.3-0.5,0.1-1.1-0.4-1.5l-5-3c-0.5-0.3-1.2-0.2-1.5,0.3l-1.5,2.5L147.4,89.3z"/>
			</g>
		</g>
	</g>
	<g>
		<g>
			<linearGradient id="SVGID_22_" gradientUnits="userSpaceOnUse" x1="281.8777" y1="255.2247" x2="260.0958" y2="294.5452">
				<stop  offset="0" style="stop-color:#FF928E"/>
				<stop  offset="1" style="stop-color:#FE7062"/>
			</linearGradient>
			<path class="st27" d="M295.6,274.2c0,0-11.7-2-12.4-2h-32.6c-2.2,0-4,1.8-4,4v3.6c0,2.2,1.8,4,4,4h32.6c0.3,0,0.6,0,0.9-0.1
				C287.9,283,291.7,279.9,295.6,274.2z"/>
			<linearGradient id="SVGID_23_" gradientUnits="userSpaceOnUse" x1="231.0588" y1="202.0884" x2="288.1298" y2="241.3028">
				<stop  offset="0" style="stop-color:#E1473D"/>
				<stop  offset="1" style="stop-color:#E9605A"/>
			</linearGradient>
			<path class="st28" d="M295,274.6c37.5-89-31.9-89.1-23.3-4.9L295,274.6z"/>
			<linearGradient id="SVGID_24_" gradientUnits="userSpaceOnUse" x1="278.9763" y1="276.7715" x2="290.1425" y2="209.097">
				<stop  offset="0" style="stop-color:#FF928E"/>
				<stop  offset="1" style="stop-color:#FE7062"/>
			</linearGradient>
			<path class="st29" d="M292.4,273.8c37.5-90.7-33.9-88.3-25.3-2.4L292.4,273.8z"/>
			<g>
				
					<linearGradient id="SVGID_25_" gradientUnits="userSpaceOnUse" x1="10753.4121" y1="316.5401" x2="10760.9004" y2="269.4377" gradientTransform="matrix(1 0 0 1 -10487.1201 0)">
					<stop  offset="0" style="stop-color:#FF928E"/>
					<stop  offset="1" style="stop-color:#FE7062"/>
				</linearGradient>
				<rect x="267.3" y="280.8" class="st30" width="3.5" height="37.5"/>
				
					<linearGradient id="SVGID_26_" gradientUnits="userSpaceOnUse" x1="10756.4111" y1="317.011" x2="10763.9102" y2="269.8452" gradientTransform="matrix(1 0 0 1 -10487.1201 0)">
					<stop  offset="0" style="stop-color:#FF928E"/>
					<stop  offset="1" style="stop-color:#FE7062"/>
				</linearGradient>
				<path class="st31" d="M284.2,319h-30.3v-0.1c0-1.2,1-2.2,2.2-2.2h26C283.2,316.7,284.2,317.7,284.2,319L284.2,319z"/>
			</g>
		</g>
		<g>
			
				<linearGradient id="SVGID_27_" gradientUnits="userSpaceOnUse" x1="-433.6886" y1="305.925" x2="-439.8045" y2="317.9529" gradientTransform="matrix(-1 0 0 1 -191.494 0)">
				<stop  offset="0" style="stop-color:#09005D"/>
				<stop  offset="1" style="stop-color:#1A0F91"/>
			</linearGradient>
			<path class="st32" d="M250.6,313.1c0,0-9.9,7.1-8.2,11.9c0,0,10.8-4.7,12.1-8.3c1.3-3.7-0.2-5.3-0.2-5.3L250.6,313.1z"/>
			
				<linearGradient id="SVGID_28_" gradientUnits="userSpaceOnUse" x1="-445.3184" y1="310.7116" x2="-439.2259" y2="310.7116" gradientTransform="matrix(-1 0 0 1 -191.494 0)">
				<stop  offset="0" style="stop-color:#FEBBBA"/>
				<stop  offset="1" style="stop-color:#FF928E"/>
			</linearGradient>
			<path class="st33" d="M252.1,307.1l1.6,4.7c0.2,0.7,0,1.5-0.6,1.9c-0.3,0.2-0.7,0.4-1.3,0.5c-0.8,0.2-1.7-0.2-2.1-1l-1.9-3.6
				L252.1,307.1z"/>
			
				<linearGradient id="SVGID_29_" gradientUnits="userSpaceOnUse" x1="-453.7494" y1="294.5911" x2="-427.8589" y2="258.3036" gradientTransform="matrix(-1 0 0 1 -191.494 0)">
				<stop  offset="0" style="stop-color:#09005D"/>
				<stop  offset="1" style="stop-color:#1A0F91"/>
			</linearGradient>
			<path class="st34" d="M267.9,265c0,0-20.3,3.5-29,11.6c-8.7,8.1,8,33.7,8,33.7s2.7,0,6.1-2.9c0,0-9.9-19.3-1.4-25
				c9.6-6.3,20.7-7.8,20.7-7.8l-4.1-9.1L267.9,265z"/>
			
				<linearGradient id="SVGID_30_" gradientUnits="userSpaceOnUse" x1="-437.2379" y1="318.0861" x2="-458.4396" y2="345.8114" gradientTransform="matrix(-1 0 0 1 -191.494 0)">
				<stop  offset="0" style="stop-color:#09005D"/>
				<stop  offset="1" style="stop-color:#1A0F91"/>
			</linearGradient>
			<path class="st35" d="M244.2,322.4c2.2-1,8.3-5.3,9.4-5.5c1-0.2,2.8,1,2.8,1s0.4,0.8,0,2.2c-1.4,1.7-4.7,5.1-9,6.3
				c-3.2,0.9-5.4,0.1-6.8-0.9C241.4,324.3,242.7,323.1,244.2,322.4z"/>
			
				<linearGradient id="SVGID_31_" gradientUnits="userSpaceOnUse" x1="-447.8484" y1="324.0908" x2="-431.4658" y2="324.0908" gradientTransform="matrix(-1 0 0 1 -191.494 0)">
				<stop  offset="0" style="stop-color:#4042E2"/>
				<stop  offset="1" style="stop-color:#4F52FF"/>
			</linearGradient>
			<path class="st36" d="M247.4,326.4c4.3-1.2,7.5-4.6,9-6.3c-0.3,0.9-1,2.1-2.6,3.5c-3.9,3.5-11.3,4.7-12.8,4.5
				c-1.3-0.2-1.1-1.4-0.3-2.6C242,326.5,244.2,327.3,247.4,326.4z"/>
			
				<linearGradient id="SVGID_32_" gradientUnits="userSpaceOnUse" x1="-449.724" y1="316.3341" x2="-444.006" y2="316.3341" gradientTransform="matrix(-1 0 0 1 -191.494 0)">
				<stop  offset="0" style="stop-color:#FEBBBA"/>
				<stop  offset="1" style="stop-color:#FF928E"/>
			</linearGradient>
			<path class="st37" d="M258.2,314.9c0,0.6-1.2,2.7-2,3.8c-0.3,0.5-0.9,0.9-1.6,0.9c-0.4,0-0.9,0-1.3-0.2c-0.6-0.2-1-0.9-0.8-1.5
				l1.4-4.8L258.2,314.9z"/>
			
				<linearGradient id="SVGID_33_" gradientUnits="userSpaceOnUse" x1="-463.0813" y1="312.6736" x2="-461.6543" y2="264.1543" gradientTransform="matrix(-1 0 0 1 -191.494 0)">
				<stop  offset="0" style="stop-color:#09005D"/>
				<stop  offset="1" style="stop-color:#1A0F91"/>
			</linearGradient>
			<path class="st38" d="M287.4,258.9c0,0,4.5,12.1,0,15.7c-4.5,3.7-15.3,7.8-17.7,15.1c-2.4,7.3-6.5,21.5-11.9,26.5
				c0,0-3.8-0.4-5.3-1.9c0,0,3.1-21.2,5.2-26.6c1.8-4.7,4.4-11.5,9.4-15.3c1.4-1.1,1.2-2.8,0.5-4.5l-1.2-3L287.4,258.9z"/>
			
				<linearGradient id="SVGID_34_" gradientUnits="userSpaceOnUse" x1="-432.2522" y1="250.3964" x2="-412.3059" y2="250.3964" gradientTransform="matrix(-1 0 0 1 -191.494 0)">
				<stop  offset="0" style="stop-color:#FEBBBA"/>
				<stop  offset="1" style="stop-color:#FF928E"/>
			</linearGradient>
			<path class="st39" d="M225.7,245.8c2.8-2,6,0,6,0c3.8,2.5,6.6,3.5,8.6,3.6c0.5,1.7,0.7,3.9-0.2,6.3c-4.2-0.9-7.2-4-8.6-5.5
				c-0.5-0.6-1.3-0.7-1.9-0.2c-0.6,0.5-1.2,1.1-1.1,1.8c0.2,1.3-1.3,1.7-1.4,1.3c-0.1-0.5,0.5-3.3,0.5-3.3s-3.1,3.1-4.3,4.3
				c-1.2,1.2-2.7,0-2.7,0S222.9,247.8,225.7,245.8z"/>
			<linearGradient id="SVGID_35_" gradientUnits="userSpaceOnUse" x1="308.2092" y1="214.9619" x2="241.3016" y2="263.622">
				<stop  offset="0" style="stop-color:#09005D"/>
				<stop  offset="1" style="stop-color:#1A0F91"/>
			</linearGradient>
			<path class="st40" d="M275.6,218.7c0,0-11-4.4-31.5,12.5c0,0-1.7,3.5,0.2,6.7c0.2,0.4,0.8,1,1.5,1.8c0.3,3.6,0.2,10.1-5.4,9.8
				c0.5,1.7,0.7,3.9-0.2,6.3c2,0.4,4.2,0.4,6.6-0.5c4.5-1.6,7-3.9,8.4-5.9c5,5.3,10,11.2,11.2,15.5c0,0,10.6,3.4,21.6-4.7
				c0,0-0.2-4.9-1.5-11.9c2.1,1.6,4.4,4.3,6.1,8.6c1.6-1,2.9-2.5,3.9-4.7C303.6,237.3,275.6,218.7,275.6,218.7z"/>
			
				<linearGradient id="SVGID_36_" gradientUnits="userSpaceOnUse" x1="-460.3086" y1="250.6365" x2="-510.9759" y2="338.6813" gradientTransform="matrix(-1 0 0 1 -191.494 0)">
				<stop  offset="0" style="stop-color:#FEBBBA"/>
				<stop  offset="1" style="stop-color:#FF928E"/>
			</linearGradient>
			<path class="st41" d="M264.5,246.4c0,0,15.3,6,19.1,1.5c0.3-0.3,0.4-0.7,0.5-1c2.5,1.3,6.1,4,8.4,10.1
				c-8.1,5.2-21.9-2.9-25.6-5.2c-0.6-0.4-1.3-0.5-2.1-0.4c-1.4,0.3-3.9,0.7-5.3,0.5c-2-0.3-4.8,6.6-8,4.5
				C251.6,256.3,254.4,244.3,264.5,246.4z"/>
			
				<linearGradient id="SVGID_37_" gradientUnits="userSpaceOnUse" x1="-451.2839" y1="220.9594" x2="-438.0498" y2="220.9594" gradientTransform="matrix(-1 0 0 1 -191.494 0)">
				<stop  offset="0" style="stop-color:#FEBBBA"/>
				<stop  offset="1" style="stop-color:#FF928E"/>
			</linearGradient>
			<path class="st42" d="M253.9,214.8l5.4,6.6c0.5,0.7,0.7,1.6,0.3,2.3c-0.8,1.5-2.5,3.8-6.5,3.5c-1.2-0.1-2.2-0.8-2.7-1.9l-3.8-7.8
				L253.9,214.8z"/>
			<g>
				
					<linearGradient id="SVGID_38_" gradientUnits="userSpaceOnUse" x1="-135.9732" y1="-1210.6241" x2="-152.5174" y2="-1188.7374" gradientTransform="matrix(-0.9683 -0.2499 -0.2499 0.9683 -188.9989 1344.2936)">
					<stop  offset="0" style="stop-color:#FEBBBA"/>
					<stop  offset="1" style="stop-color:#FF928E"/>
				</linearGradient>
				<path class="st43" d="M242.1,205.1c-0.1,0.2,1.3,14.6,1.3,14.6l8.2-0.9l0.8-13.8C252.3,205,243,201.6,242.1,205.1z"/>
				
					<linearGradient id="SVGID_39_" gradientUnits="userSpaceOnUse" x1="-148.6085" y1="-1205.3445" x2="-128.8463" y2="-1205.3445" gradientTransform="matrix(-0.9683 -0.2499 -0.2499 0.9683 -188.9989 1344.2936)">
					<stop  offset="0" style="stop-color:#09005D"/>
					<stop  offset="1" style="stop-color:#1A0F91"/>
				</linearGradient>
				<path class="st44" d="M250.2,207.8l0.2,7.3c0,0.1,0,0.2,0,0.3c-0.1,0.6-0.8,2.4-2.6,1.7c-1.7-0.7-3.3-1.3-4.4-1.1
					c-0.5,0.1-0.9,0.6-0.8,1.1c0.1,1.3,0.4,4.2,1.1,6.7c0.1,0.5,0.6,0.8,1.2,0.7c1.6-0.3,4.8-0.9,7.4-2.1c0.3-0.2,0.6-0.5,0.6-0.9
					c0.1-1.8,0.5-7.4,0.9-8.9c0.3-1.4,2.2-2.1,3-2.3c0.3-0.1,0.5-0.3,0.6-0.5c0.5-0.9,1.2-2.9-1.3-4c-0.5-0.2-0.8-0.9-0.5-1.4
					c0.5-1,0.9-2.7-1.1-3.8c-2-1.1-3.6-0.2-4.5,0.6c-0.4,0.3-0.9,0.3-1.3,0c-0.2-0.2-0.5-0.3-0.9-0.1c-0.5,0.3-1.2,0-1.4-0.6
					c-0.4-1.1-1.3-2.3-3.3-2.1c-3.6,0.2-4.5,4.1-3.8,6.6c0.7,2.4,4.6,2,6.7,1c1.6-0.7,3.4,0.4,4.1,1
					C250,207.2,250.2,207.5,250.2,207.8z"/>
				
					<linearGradient id="SVGID_40_" gradientUnits="userSpaceOnUse" x1="-160.2038" y1="-1193.2915" x2="-146.9342" y2="-1206.9058" gradientTransform="matrix(-0.9683 -0.2499 -0.2499 0.9683 -188.9989 1344.2936)">
					<stop  offset="0" style="stop-color:#FEBBBA"/>
					<stop  offset="1" style="stop-color:#FF928E"/>
				</linearGradient>
				<path class="st45" d="M253.5,215.4c0,0-1-4.3,0.6-5.1c1.6-0.8,3.8-0.1,3,2.9C256.1,216.7,253.5,215.4,253.5,215.4z"/>
			</g>
		</g>
		<g>
			
				<linearGradient id="SVGID_41_" gradientUnits="userSpaceOnUse" x1="10676.7119" y1="918.6654" x2="10650.7686" y2="925.7759" gradientTransform="matrix(0.9988 -4.940000e-02 4.940000e-02 0.9988 -10447.1309 -140.5468)">
				<stop  offset="0" style="stop-color:#09005D"/>
				<stop  offset="1" style="stop-color:#1A0F91"/>
			</linearGradient>
			<path class="st46" d="M256.7,258.1C256.7,258.1,256.6,258.1,256.7,258.1l-32.3,0c-0.8,0-1.4-0.6-1.4-1.4c0-0.8,0.6-1.5,1.4-1.4
				l32.2,0c0.8,0,1.4,0.6,1.4,1.4C258.1,257.5,257.4,258.1,256.7,258.1z"/>
			
				<linearGradient id="SVGID_42_" gradientUnits="userSpaceOnUse" x1="10714.1572" y1="232.8269" x2="10695.749" y2="252.2832" gradientTransform="matrix(1 0 0 1 -10487.1201 0)">
				<stop  offset="0" style="stop-color:#09005D"/>
				<stop  offset="1" style="stop-color:#1A0F91"/>
			</linearGradient>
			<path class="st47" d="M195.5,228.9h26.8c2,0,3.8,1.1,4.6,2.9l12.4,26.3H206c-1.3,0-2.4-0.8-2.9-2l-9.6-24.3
				C192.9,230.4,194,228.9,195.5,228.9z"/>
			<path class="st5" d="M214.4,242.4c0.6,1.8,0.2,3.6-1,3.9c-1.1,0.4-2.5-0.8-3.1-2.6c-0.6-1.8-0.2-3.6,1-3.9
				C212.4,239.4,213.8,240.6,214.4,242.4z"/>
		</g>
		<g>
			<g>
				<linearGradient id="SVGID_43_" gradientUnits="userSpaceOnUse" x1="198.4619" y1="293.9604" x2="229.5471" y2="293.9604">
					<stop  offset="0" style="stop-color:#4042E2"/>
					<stop  offset="1" style="stop-color:#4F52FF"/>
				</linearGradient>
				<path class="st48" d="M199.8,327.2c-0.2,0-0.4,0-0.5-0.1c-0.7-0.3-1-1.1-0.7-1.7l28.4-63.9c0.3-0.7,1.1-1,1.8-0.7
					c0.7,0.3,1,1.1,0.7,1.7l-28.4,63.9C200.8,326.9,200.3,327.2,199.8,327.2z"/>
				<linearGradient id="SVGID_44_" gradientUnits="userSpaceOnUse" x1="202.0517" y1="293.9603" x2="233.1368" y2="293.9603">
					<stop  offset="0" style="stop-color:#4042E2"/>
					<stop  offset="1" style="stop-color:#4F52FF"/>
				</linearGradient>
				<path class="st49" d="M231.8,327.2c-0.5,0-1-0.3-1.2-0.8l-28.4-63.9c-0.3-0.7,0-1.4,0.7-1.7c0.7-0.3,1.5,0,1.8,0.7l28.4,63.9
					c0.3,0.7,0,1.4-0.7,1.7C232.1,327.2,232,327.2,231.8,327.2z"/>
				<linearGradient id="SVGID_45_" gradientUnits="userSpaceOnUse" x1="286.3047" y1="293.9604" x2="317.3899" y2="293.9604">
					<stop  offset="0" style="stop-color:#4042E2"/>
					<stop  offset="1" style="stop-color:#4F52FF"/>
				</linearGradient>
				<path class="st50" d="M287.7,327.2c-0.2,0-0.4,0-0.5-0.1c-0.7-0.3-1-1.1-0.7-1.7l28.4-63.9c0.3-0.7,1.1-1,1.8-0.7
					c0.7,0.3,1,1.1,0.7,1.7l-28.4,63.9C288.7,326.9,288.2,327.2,287.7,327.2z"/>
				<linearGradient id="SVGID_46_" gradientUnits="userSpaceOnUse" x1="289.8943" y1="293.9603" x2="320.9794" y2="293.9603">
					<stop  offset="0" style="stop-color:#4042E2"/>
					<stop  offset="1" style="stop-color:#4F52FF"/>
				</linearGradient>
				<path class="st51" d="M319.6,327.2c-0.5,0-1-0.3-1.2-0.8L290,262.5c-0.3-0.7,0-1.4,0.7-1.7c0.7-0.3,1.5,0,1.8,0.7l28.4,63.9
					c0.3,0.7,0,1.4-0.7,1.7C320,327.2,319.8,327.2,319.6,327.2z"/>
			</g>
			<path class="st3" d="M323,259.5c0.1-0.4,0-0.9-0.3-1.2c-0.2-0.3-0.6-0.5-1-0.5H192.6c-0.5,0-1,0.3-1.2,0.8
				c-0.3,0.5-0.3,1.1-0.1,1.6l1.4,3.4c0.3,0.8,1,1.3,1.8,1.3h126.4c0.7,0,1.3-0.6,1.5-1.3L323,259.5z"/>
		</g>
	</g>
</g>
</svg>
