<?xml version="1.0" encoding="utf-8"?>
<!-- Generator: Adobe Illustrator 24.1.2, SVG Export Plug-In . SVG Version: 6.00 Build 0)  -->
<svg version="1.1" id="Слой_1" xmlns="http://www.w3.org/2000/svg" xmlns:xlink="http://www.w3.org/1999/xlink" x="0px" y="0px"
	 viewBox="0 0 330 330" style="enable-background:new 0 0 330 330;" xml:space="preserve">
<style type="text/css">
	.st0{opacity:0.1;fill:url(#SVGID_1_);enable-background:new    ;}
	.st1{opacity:0.3;}
	.st2{fill:#91B3FA;}
	.st3{fill:#BDD0FB;}
	.st4{fill:url(#SVGID_2_);}
	.st5{fill:url(#SVGID_3_);}
	.st6{fill:#FDFEFF;}
	.st7{fill:#E1ECFF;}
	.st8{fill:#7D97F4;}
	.st9{fill:url(#SVGID_4_);}
	.st10{fill:url(#SVGID_5_);}
	.st11{fill:url(#SVGID_6_);}
	.st12{fill:url(#SVGID_7_);}
	.st13{fill:url(#SVGID_8_);}
	.st14{fill:url(#SVGID_9_);}
	.st15{fill:url(#SVGID_10_);}
	.st16{fill:url(#SVGID_11_);}
	.st17{fill:url(#SVGID_12_);}
	.st18{fill:url(#SVGID_13_);}
	.st19{fill:url(#SVGID_14_);}
	.st20{fill:url(#SVGID_15_);}
	.st21{fill:url(#SVGID_16_);}
	.st22{fill:url(#SVGID_17_);}
	.st23{fill:url(#SVGID_18_);}
	.st24{fill:url(#SVGID_19_);}
	.st25{fill:url(#SVGID_20_);}
	.st26{fill:url(#SVGID_21_);}
	.st27{fill:url(#SVGID_22_);}
	.st28{fill:url(#SVGID_23_);}
	.st29{fill:url(#SVGID_24_);}
	.st30{fill:url(#SVGID_25_);}
	.st31{fill:url(#SVGID_26_);}
</style>
<linearGradient id="SVGID_1_" gradientUnits="userSpaceOnUse" x1="660.1955" y1="141.4876" x2="426.464" y2="393.7692" gradientTransform="matrix(0.9873 0.1588 0.1588 -0.9873 -363.8781 427.3227)">
	<stop  offset="0" style="stop-color:#20C3D0"/>
	<stop  offset="0.3016" style="stop-color:#1EC0D0"/>
	<stop  offset="0.5347" style="stop-color:#19B6CF"/>
	<stop  offset="0.7449" style="stop-color:#11A6CD"/>
	<stop  offset="0.9405" style="stop-color:#058FCA"/>
	<stop  offset="1" style="stop-color:#0086C9"/>
</linearGradient>
<path class="st0" d="M301.1,245.3c-43.6,69-132.5,87.4-197.2,71.4c-17.7-4.4-53.2-13.1-77.1-44.3C-18.9,212.7,6.6,107.2,68.4,52.7
	c8-7,62.8-53.9,134.5-41.6c52.5,9,84.6,44.6,88.5,49.1c4.9,5.6,15.6,18.7,24.1,38.2C335.4,144,328.4,202.2,301.1,245.3z"/>
<g>
	<g>
		<g class="st1">
			<path class="st2" d="M205.4,71.9c-0.8,0-1.5-0.7-1.4-1.5c0.1-1.6,0.1-3.2,0-4.8c0-0.8,0.6-1.5,1.4-1.6l0,0c0.8,0,1.5,0.6,1.6,1.4
				c0.1,1.7,0.1,3.4,0,5.1c0,0.8-0.6,1.4-1.4,1.4C205.5,71.9,205.4,71.9,205.4,71.9z M203.1,57.7c-0.3-1.6-0.6-3.2-1.1-4.7
				c-0.2-0.8,0.3-1.6,1-1.8c0.8-0.2,1.6,0.3,1.8,1c0.4,1.6,0.8,3.3,1.1,5c0.1,0.8-0.4,1.6-1.2,1.7c-0.1,0-0.1,0-0.2,0
				C203.9,59,203.2,58.5,203.1,57.7z M199.4,45.6c-0.6-1.5-1.3-2.9-2.1-4.3c-0.4-0.7-0.1-1.6,0.6-2c0.7-0.4,1.6-0.1,2,0.6
				c0.8,1.5,1.5,3,2.2,4.6c0.3,0.8,0,1.6-0.8,2c-0.2,0.1-0.3,0.1-0.5,0.1C200.3,46.6,199.7,46.2,199.4,45.6z M193.2,34.7
				c-0.9-1.3-2-2.6-3-3.8c-0.5-0.6-0.5-1.6,0.1-2.1s1.6-0.5,2.1,0.1c1.1,1.3,2.2,2.6,3.2,4c0.5,0.7,0.3,1.6-0.3,2.1
				c-0.2,0.2-0.5,0.3-0.8,0.3C194,35.3,193.5,35.1,193.2,34.7z M184.6,25.3c-1.2-1-2.5-2.1-3.8-3c-0.7-0.5-0.8-1.4-0.3-2.1
				s1.4-0.8,2.1-0.3c1.4,1,2.7,2.1,4,3.2c0.6,0.5,0.7,1.5,0.1,2.1c-0.3,0.3-0.6,0.5-1,0.5C185.3,25.7,184.9,25.6,184.6,25.3z
				 M174.2,18.2c-1.4-0.8-2.9-1.5-4.3-2.1c-0.8-0.3-1.1-1.2-0.8-2s1.2-1.1,2-0.8c1.5,0.7,3.1,1.4,4.6,2.2c0.7,0.4,1,1.3,0.6,2
				c-0.3,0.5-0.7,0.8-1.2,0.8C174.7,18.4,174.5,18.3,174.2,18.2z M118.9,17.5c-0.4-0.7-0.1-1.6,0.6-2c1.5-0.8,3-1.5,4.6-2.2
				c0.8-0.3,1.6,0,2,0.8c0.3,0.8,0,1.6-0.8,2c-1.5,0.6-2.9,1.3-4.4,2.1c-0.2,0.1-0.4,0.2-0.6,0.2C119.7,18.3,119.2,18,118.9,17.5z
				 M162.5,13.5c-1.5-0.4-3.1-0.8-4.7-1.1c-0.8-0.1-1.3-0.9-1.2-1.7c0.1-0.8,0.9-1.3,1.7-1.2c1.7,0.3,3.3,0.7,4.9,1.1
				c0.8,0.2,1.3,1,1,1.8c-0.2,0.6-0.7,1.1-1.3,1.1C162.8,13.5,162.6,13.5,162.5,13.5z M130.8,12.4c-0.2-0.8,0.3-1.6,1-1.8
				c1.6-0.4,3.3-0.8,5-1.1c0.8-0.2,1.6,0.4,1.7,1.2c0.1,0.8-0.4,1.6-1.2,1.7c-1.6,0.3-3.2,0.6-4.7,1.1c-0.1,0-0.2,0-0.3,0
				C131.7,13.5,131,13.1,130.8,12.4z M150,11.5c-1.6-0.1-3.2-0.1-4.8,0c-0.8,0-1.5-0.6-1.6-1.4c0-0.8,0.6-1.5,1.4-1.5l0,0
				c1.7-0.1,3.4-0.1,5.1,0c0.8,0,1.5,0.7,1.4,1.6c0,0.8-0.6,1.4-1.4,1.4C150.1,11.5,150,11.5,150,11.5z"/>
			<path class="st2" d="M111.6,24c0.3,0,0.6-0.1,0.8-0.3c0.6-0.5,1.2-1,1.8-1.4c0.7-0.5,0.8-1.4,0.3-2.1s-1.4-0.8-2.1-0.3
				c-0.7,0.5-1.3,1-1.9,1.5c-0.6,0.5-0.8,1.4-0.2,2.1C110.6,23.8,111.1,24,111.6,24z"/>
		</g>
		<g class="st1">
			<path class="st2" d="M89.8,63.9c0.7,0,1.3-0.6,1.4-1.3c0.1-0.8,0.2-1.5,0.3-2.3s-0.5-1.6-1.3-1.7s-1.6,0.5-1.7,1.3
				c-0.1,0.8-0.2,1.6-0.3,2.4s0.5,1.5,1.3,1.6C89.7,63.9,89.8,63.9,89.8,63.9z"/>
			<path class="st2" d="M148.3,127.5c-0.8,0-1.5-0.6-1.5-1.5c0-0.8,0.6-1.5,1.5-1.5c1.6,0,3.2-0.1,4.7-0.3c0.8-0.1,1.5,0.5,1.6,1.3
				s-0.5,1.5-1.3,1.6c-0.7,0.1-1.4,0.1-2.1,0.2C150.2,127.4,149.2,127.4,148.3,127.5z M159.5,124.7c-0.2-0.8,0.3-1.6,1.1-1.8
				c1.5-0.4,3.1-0.8,4.6-1.3c0.8-0.3,1.6,0.2,1.9,1c0.3,0.8-0.2,1.6-1,1.9c-1.6,0.5-3.2,1-4.8,1.4c-0.1,0-0.2,0-0.3,0
				C160.3,125.9,159.6,125.5,159.5,124.7z M140.2,127c-1.6-0.2-3.3-0.5-4.9-0.8c-0.8-0.2-1.3-1-1.2-1.8c0.2-0.8,1-1.3,1.8-1.2
				c1.5,0.3,3.1,0.6,4.7,0.8c0.8,0.1,1.4,0.8,1.3,1.7c-0.1,0.7-0.7,1.3-1.4,1.3C140.4,127,140.3,127,140.2,127z M171.6,120.8
				c-0.4-0.7-0.1-1.6,0.7-2c1.4-0.7,2.8-1.5,4.2-2.3c0.7-0.4,1.6-0.2,2,0.5s0.2,1.6-0.5,2c-1.4,0.9-2.9,1.7-4.4,2.4
				c-0.2,0.1-0.4,0.1-0.6,0.1C172.5,121.6,171.9,121.3,171.6,120.8z M127.4,124c-1.6-0.6-3.1-1.2-4.6-1.9c-0.7-0.3-1.1-1.2-0.7-2
				c0.3-0.7,1.2-1.1,2-0.7c1.4,0.7,2.9,1.3,4.4,1.8c0.8,0.3,1.2,1.1,0.9,1.9c-0.2,0.6-0.7,0.9-1.3,1
				C127.8,124.1,127.6,124.1,127.4,124z M115.7,118.2c-1.4-0.9-2.8-1.8-4.1-2.8c-0.7-0.5-0.8-1.4-0.3-2.1s1.4-0.8,2.1-0.3
				c1.3,1,2.6,1.9,3.9,2.7c0.7,0.4,0.9,1.4,0.5,2.1c-0.3,0.4-0.7,0.7-1.2,0.7C116.3,118.5,115.9,118.4,115.7,118.2z M105.4,110.1
				c-1.2-1.2-2.3-2.4-3.4-3.7c-0.5-0.6-0.5-1.6,0.2-2.1c0.6-0.5,1.6-0.5,2.1,0.2c1,1.2,2.1,2.4,3.2,3.5c0.6,0.6,0.6,1.5,0,2.1
				c-0.3,0.3-0.6,0.4-1,0.4C106.2,110.5,105.8,110.4,105.4,110.1z M97.2,99.8c-0.9-1.4-1.7-2.9-2.5-4.3c-0.4-0.7-0.1-1.6,0.6-2
				c0.7-0.4,1.6-0.1,2,0.6c0.7,1.4,1.5,2.8,2.4,4.1c0.4,0.7,0.2,1.6-0.5,2.1c-0.2,0.1-0.5,0.2-0.7,0.2
				C98.1,100.6,97.5,100.3,97.2,99.8z M91.5,88.1c-0.6-1.6-1.1-3.2-1.5-4.8c-0.2-0.8,0.3-1.6,1.1-1.8c0.8-0.2,1.6,0.3,1.8,1.1
				c0.4,1.5,0.9,3,1.4,4.5c0.3,0.8-0.1,1.6-0.9,1.9c-0.1,0-0.3,0.1-0.4,0.1C92.3,89.1,91.7,88.7,91.5,88.1z M88.5,75.3
				c-0.2-1.2-0.3-2.4-0.3-3.7c0-0.4-0.1-0.9-0.1-1.3c0-0.8,0.6-1.5,1.4-1.5c0.8,0,1.5,0.6,1.6,1.4c0,0.4,0,0.8,0.1,1.3
				c0.1,1.2,0.2,2.3,0.3,3.5c0.1,0.8-0.5,1.6-1.3,1.7h-0.1C89.2,76.7,88.6,76.1,88.5,75.3z"/>
			<path class="st2" d="M183.9,114.7c0.3,0,0.6-0.1,0.8-0.3c0.6-0.5,1.3-1,1.9-1.6c0.6-0.5,0.7-1.5,0.1-2.1
				c-0.5-0.6-1.5-0.7-2.1-0.1c-0.6,0.5-1.2,1-1.8,1.5s-0.7,1.5-0.2,2.1C182.9,114.6,183.4,114.8,183.9,114.7z"/>
		</g>
		<g>
			<path class="st2" d="M186.7,89.3c0.2-0.2,0.2-0.6,0-0.8l-4.9-6.9c1.5-3.7,2.4-7.6,2.7-11.6l7.4-4c0.3-0.1,0.4-0.4,0.4-0.7
				l-1.7-10c0-0.3-0.3-0.5-0.6-0.6l-8.3-1.4c-1.6-3.8-3.7-7.2-6.3-10.1l2.4-8.1c0.1-0.3,0-0.6-0.3-0.8l-8.3-5.9
				c-0.2-0.2-0.6-0.2-0.8,0l-6.9,4.9c-3.7-1.5-7.6-2.4-11.6-2.7l-4-7.4c-0.1-0.3-0.4-0.4-0.7-0.4l-10,1.7c-0.3,0-0.5,0.3-0.6,0.6
				l-1.4,8.3c-3.8,1.6-7.2,3.7-10.1,6.3l-8.1-2.4c-0.3-0.1-0.6,0-0.8,0.3l-5.9,8.3c-0.2,0.2-0.2,0.6,0,0.8l4.9,6.9
				c-1.5,3.7-2.4,7.6-2.7,11.6l-7.4,4c-0.3,0.1-0.4,0.4-0.4,0.7l1.7,10c0,0.3,0.3,0.5,0.6,0.6l8.3,1.4c1.6,3.8,3.7,7.2,6.3,10.1
				l-2.4,8.1c-0.1,0.3,0,0.6,0.3,0.8l8.3,5.9c0.2,0.2,0.6,0.2,0.8,0l6.9-4.9c3.7,1.5,7.6,2.4,11.6,2.7l4,7.4
				c0.1,0.3,0.4,0.4,0.7,0.4l10-1.7c0.3,0,0.5-0.3,0.6-0.6l1.4-8.3c3.8-1.6,7.2-3.7,10.1-6.3l8.1,2.4c0.3,0.1,0.6,0,0.8-0.3
				L186.7,89.3z"/>
			<g>
				<path class="st3" d="M146.6,77.7c-5.6-0.5-9.8-5.4-9.3-11c0.2-2.7,1.5-5.2,3.6-7s4.7-2.6,7.4-2.4c5.6,0.5,9.8,5.4,9.3,11
					c-0.4,5.1-4.6,9-9.5,9.3C147.6,77.7,147.1,77.7,146.6,77.7z M142.4,61.5c-1.6,1.4-2.6,3.2-2.7,5.3c-0.4,4.3,2.9,8.1,7.2,8.5
					s8.1-2.9,8.5-7.2c0.4-4.3-2.9-8.1-7.2-8.5c-0.4,0-0.8,0-1.2,0C145.2,59.8,143.7,60.4,142.4,61.5z"/>
			</g>
			<path class="st3" d="M148.8,92.4c0.9-0.1,1.7-0.2,2.6-0.3l0,0c0.3,0,0.5-0.1,0.8-0.1c1.3-0.3,2.6-0.6,3.9-1.1c0,0,0,0,0.1,0
				c0,0,0.1,0,0.1-0.1c0.1,0,0.2-0.1,0.3-0.1c0.2-0.1,0.4-0.3,0.4-0.6c0-0.1,0-0.1,0-0.2c-0.1-0.3-0.5-0.5-0.8-0.3
				c-1.6,0.6-3.2,1.1-4.9,1.4c-8.4,1.4-16.5-1.8-21.7-7.6c-2.9-3.3-5-7.4-5.8-12c-0.1-0.8-0.2-1.6-0.3-2.4
				c-0.3-5.5,1.2-10.9,4.4-15.4c3.7-5.2,9.2-8.6,15.5-9.7c13-2.2,25.4,6.7,27.5,19.7c0.1,0.8,0.2,1.6,0.3,2.4
				c0.2,3.5-0.3,7-1.6,10.3c0,0.1,0,0.2,0,0.3c0,0.2,0.2,0.4,0.4,0.5c0.3,0.1,0.7,0,0.8-0.3c1.4-3.4,1.9-7.1,1.7-10.8
				c-0.1-0.8-0.2-1.7-0.3-2.5c-2.3-13.7-15.2-22.9-28.9-20.7c-6.6,1.1-12.4,4.7-16.3,10.2c-3.4,4.8-5,10.4-4.6,16.2
				c0.1,0.9,0.2,1.7,0.3,2.6c1.1,6.6,4.7,12.4,10.2,16.3C137.4,91.2,143,92.8,148.8,92.4z"/>
		</g>
	</g>
	<g>
		<g class="st1">
			<path class="st2" d="M258.8,107.9c0.4,0,0.7-0.3,0.8-0.7c0.2-0.8,0.3-1.5,0.4-2.3c0.1-0.5-0.3-1-0.8-1.1s-1,0.3-1.1,0.8
				c-0.1,0.7-0.3,1.5-0.4,2.2c-0.1,0.5,0.2,1,0.7,1.1C258.6,107.9,258.7,107.9,258.8,107.9z"/>
			<path class="st2" d="M259.6,100.8c-0.5,0-0.9-0.4-0.9-1c0-1.3,0-2.6,0-3.9c0-0.3,0-0.5-0.1-0.8c0-0.5,0.3-1,0.8-1s1,0.3,1,0.8
				c0,0.3,0,0.6,0.1,0.8c0.1,1.3,0.1,2.7,0.1,4C260.5,100.4,260.1,100.8,259.6,100.8C259.7,100.8,259.6,100.8,259.6,100.8z
				 M257.9,90.6c-0.3-1.5-0.7-3-1.2-4.5c-0.2-0.5,0.1-1,0.6-1.2s1,0.1,1.2,0.6c0.5,1.5,1,3.1,1.3,4.7c0.1,0.5-0.2,1-0.7,1.1H259
				C258.4,91.4,258,91,257.9,90.6z M254.9,81.8c-0.7-1.4-1.5-2.8-2.3-4.1c-0.3-0.4-0.2-1,0.3-1.3c0.4-0.3,1-0.2,1.3,0.3
				c0.9,1.4,1.7,2.8,2.4,4.3c0.2,0.5,0,1-0.4,1.2c-0.1,0.1-0.2,0.1-0.3,0.1C255.4,82.3,255.1,82.1,254.9,81.8z M249.8,74
				c-1-1.2-2.1-2.3-3.2-3.4c-0.4-0.3-0.4-0.9-0.1-1.3s0.9-0.4,1.3-0.1c1.2,1.1,2.3,2.3,3.4,3.5c0.3,0.4,0.3,1-0.1,1.3
				c-0.2,0.1-0.3,0.2-0.5,0.2C250.3,74.3,250,74.2,249.8,74z M243,67.6c-1.3-0.9-2.6-1.7-4-2.5c-0.4-0.2-0.6-0.8-0.4-1.2
				c0.2-0.4,0.8-0.6,1.2-0.4c1.4,0.8,2.8,1.7,4.1,2.6c0.4,0.3,0.5,0.9,0.2,1.3c-0.2,0.2-0.4,0.4-0.7,0.4
				C243.3,67.8,243.1,67.8,243,67.6z M234.8,63.1c-1.4-0.6-2.9-1.1-4.4-1.4c-0.5-0.1-0.8-0.6-0.7-1.1c0.1-0.5,0.6-0.8,1.1-0.7
				c1.6,0.4,3.1,0.9,4.7,1.5c0.5,0.2,0.7,0.7,0.5,1.2c-0.1,0.3-0.5,0.6-0.8,0.6C235,63.2,234.9,63.2,234.8,63.1z M225.8,60.8
				c-1.5-0.2-3.1-0.3-4.7-0.3c-0.5,0-0.9-0.4-0.9-0.9s0.4-0.9,0.9-0.9c1.6,0,3.3,0.1,4.9,0.3c0.5,0.1,0.9,0.5,0.8,1
				C226.7,60.4,226.4,60.8,225.8,60.8C225.9,60.8,225.8,60.8,225.8,60.8z M210.7,60.9c-0.1-0.5,0.2-1,0.7-1.1
				c1.4-0.3,2.8-0.6,4.2-0.8c0.2,0,0.4-0.1,0.6-0.1c0.5-0.1,1,0.3,1,0.8c0.1,0.5-0.3,1-0.8,1c-0.2,0-0.4,0-0.6,0.1
				c-1.3,0.2-2.7,0.4-4,0.7c-0.1,0-0.1,0-0.2,0C211.2,61.6,210.8,61.3,210.7,60.9z"/>
		</g>
		<g class="st1">
			<path class="st2" d="M222.8,138.1c-1.6,0.1-3.2,0.1-4.8,0c-0.5,0-0.9-0.5-0.9-1s0.5-0.9,1-0.9c1.5,0.1,3.1,0.1,4.6,0
				c0.5,0,0.9,0.4,1,0.9C223.7,137.6,223.3,138,222.8,138.1L222.8,138.1z M226.5,136.8c-0.1-0.5,0.2-1,0.8-1.1
				c1.5-0.3,3-0.6,4.5-1.1c0.5-0.1,1,0.1,1.1,0.6s-0.1,1-0.6,1.1c-1.5,0.5-3.1,0.8-4.7,1.1h-0.1C227,137.6,226.6,137.3,226.5,136.8z
				 M213.2,137.4c-1.6-0.3-3.1-0.7-4.7-1.2c-0.5-0.2-0.7-0.7-0.6-1.2c0.2-0.5,0.7-0.7,1.2-0.6c1.4,0.5,2.9,0.9,4.4,1.2
				c0.5,0.1,0.8,0.6,0.7,1.1c-0.1,0.4-0.4,0.7-0.8,0.7C213.4,137.4,213.3,137.4,213.2,137.4z M235.6,134.3c-0.2-0.5,0-1,0.5-1.2
				c1.4-0.6,2.8-1.3,4.1-2.1c0.4-0.3,1-0.1,1.3,0.3c0.3,0.4,0.1,1-0.3,1.3c-1.4,0.8-2.8,1.6-4.3,2.2c-0.1,0-0.2,0.1-0.3,0.1
				C236.1,134.9,235.8,134.7,235.6,134.3z M204.1,134.4c-1.5-0.7-2.9-1.4-4.2-2.3c-0.4-0.3-0.6-0.8-0.3-1.3c0.3-0.4,0.8-0.6,1.3-0.3
				c1.3,0.8,2.7,1.5,4,2.2c0.5,0.2,0.7,0.8,0.4,1.2c-0.1,0.3-0.5,0.5-0.8,0.5C204.4,134.5,204.2,134.5,204.1,134.4z M195.9,129.3
				c-1.2-1-2.4-2.1-3.6-3.2c-0.4-0.4-0.3-0.9,0-1.3c0.4-0.4,0.9-0.3,1.3,0c1.1,1.1,2.2,2.1,3.4,3.1c0.4,0.3,0.5,0.9,0.1,1.3
				c-0.2,0.2-0.4,0.3-0.7,0.3C196.3,129.5,196.1,129.5,195.9,129.3z M189.2,122.4c-1-1.3-1.9-2.6-2.7-4c-0.3-0.4-0.1-1,0.3-1.3
				c0.4-0.3,1-0.1,1.3,0.3c0.8,1.3,1.6,2.6,2.6,3.8c0.3,0.4,0.2,1-0.2,1.3c-0.1,0.1-0.3,0.2-0.5,0.2
				C189.7,122.8,189.4,122.7,189.2,122.4z"/>
			<path class="st2" d="M244.6,130c0.2,0,0.4-0.1,0.5-0.2c0.6-0.5,1.2-1,1.8-1.5c0.4-0.3,0.4-0.9,0.1-1.3c-0.3-0.4-0.9-0.4-1.3-0.1
				c-0.6,0.5-1.1,1-1.7,1.4c-0.4,0.3-0.5,0.9-0.2,1.3C244,129.9,244.3,130.1,244.6,130z"/>
		</g>
		<g>
			<path class="st2" d="M247.1,112.7c0.1-0.2,0.1-0.4,0-0.5l-3.3-4.6c1-2.4,1.6-5.1,1.8-7.8l5-2.7c0.2-0.1,0.3-0.3,0.2-0.5l-1.1-6.7
				c0-0.2-0.2-0.4-0.4-0.4l-5.6-0.9c-1-2.5-2.5-4.8-4.2-6.8l1.6-5.4c0.1-0.2,0-0.4-0.2-0.5l-5.5-4c-0.2-0.1-0.4-0.1-0.5,0l-4.6,3.3
				c-2.4-1-5.1-1.6-7.8-1.8l-2.7-5c-0.1-0.2-0.3-0.3-0.5-0.2l-6.7,1.1c-0.2,0-0.3,0.2-0.4,0.4l-0.9,5.6c-2.5,1-4.8,2.5-6.8,4.2
				l-5.4-1.6c-0.2-0.1-0.4,0-0.5,0.2l-4,5.5c-0.1,0.2-0.1,0.4,0,0.5l3.3,4.6c-1,2.4-1.6,5.1-1.8,7.8l-5,2.7
				c-0.2,0.1-0.3,0.3-0.2,0.5l1.1,6.7c0,0.2,0.2,0.3,0.4,0.4l5.6,0.9c1,2.5,2.5,4.8,4.2,6.8l-1.6,5.4c-0.1,0.2,0,0.4,0.2,0.5l5.5,4
				c0.2,0.1,0.4,0.1,0.5,0l4.6-3.3c2.4,1,5.1,1.6,7.8,1.8l2.7,5c0.1,0.2,0.3,0.3,0.5,0.2l6.7-1.1c0.2,0,0.3-0.2,0.4-0.4l0.9-5.6
				c2.5-1,4.8-2.5,6.8-4.2l5.4,1.6c0.2,0.1,0.4,0,0.5-0.2L247.1,112.7z"/>
			<g>
				<path class="st3" d="M220.2,105c-1.9-0.2-3.5-1-4.7-2.4s-1.8-3.2-1.6-5.1c0.3-3.8,3.7-6.7,7.5-6.4c3.8,0.3,6.7,3.7,6.4,7.5
					c-0.2,1.9-1,3.5-2.4,4.7c-1.2,1-2.6,1.5-4,1.6C220.9,105.1,220.6,105,220.2,105z M215.7,97.7c-0.1,1.4,0.3,2.7,1.2,3.7
					c0.9,1,2.1,1.7,3.5,1.8l0,0c1.4,0.1,2.7-0.3,3.7-1.2c1-0.9,1.7-2.1,1.8-3.5c0.2-2.8-1.9-5.3-4.7-5.5c-0.3,0-0.5,0-0.8,0
					C218,93.1,215.9,95.1,215.7,97.7z"/>
			</g>
			<path class="st3" d="M221.8,115.3c0.6,0,1.2-0.1,1.8-0.2c1.2-0.2,2.3-0.5,3.4-0.9c0,0,0.1,0,0.1-0.1c0.4-0.2,0.6-0.5,0.6-0.9
				c0-0.1,0-0.2-0.1-0.3c-0.2-0.5-0.7-0.7-1.2-0.5c-1,0.4-2.1,0.7-3.2,0.9l0,0c-0.1,0-0.1,0-0.2,0c-2.6,0.4-5.2,0.1-7.6-0.7
				c-1.3-0.5-2.5-1.1-3.7-1.9l0,0c0,0-0.1,0-0.1-0.1c-3.4-2.4-5.6-6-6.3-10.1c-0.1-0.5-0.1-1.1-0.2-1.6c-0.2-3.5,0.8-7,2.9-10
				c2.4-3.4,6-5.6,10.1-6.3c4.1-0.7,8.2,0.3,11.5,2.7c3.4,2.4,5.6,6,6.3,10.1c0.1,0.5,0.1,1,0.2,1.6c0.1,2.3-0.2,4.5-1,6.6
				c-0.1,0.1-0.1,0.3-0.1,0.4c0,0.3,0.2,0.7,0.6,0.8c0.5,0.2,1,0,1.2-0.5c0.9-2.4,1.3-4.9,1.2-7.4c0-0.6-0.1-1.2-0.2-1.7
				c-0.8-4.6-3.2-8.6-7-11.3c-3.8-2.7-8.4-3.8-12.9-3c-4.6,0.8-8.6,3.2-11.3,7c-2.3,3.3-3.5,7.2-3.2,11.1c0,0.6,0.1,1.2,0.2,1.8
				C205,109.7,213,115.8,221.8,115.3z"/>
		</g>
	</g>
</g>
<g>
	
		<linearGradient id="SVGID_2_" gradientUnits="userSpaceOnUse" x1="-7181.6401" y1="-664.4399" x2="-7115.5322" y2="-466.115" gradientTransform="matrix(-1 0 0 -1 -6988.2227 -416)">
		<stop  offset="0" style="stop-color:#09005D"/>
		<stop  offset="1" style="stop-color:#1A0F91"/>
	</linearGradient>
	<path class="st4" d="M22.7,255.6c0,2.8,2.3,5.2,5.2,5.2h279.9c2.8,0,5.2-2.3,5.2-5.2l2.3-160.9c0-2.8-3.4-8.4-9.5-8l-273.6-7
		c-3.6-0.1-7,1.3-9.6,3.8c-2.5,2.5-3.9,6-3.8,9.5L22.7,255.6z"/>
	<path class="st2" d="M27.8,250.7c0,2.7,2.2,4.9,4.9,4.9H301c2.7,0,4.9-2.2,4.9-4.9l2.2-146c-0.3-8.8-8-11.9-12.6-11.8l-262.2-7
		c-2.5-0.1-4.9,0.9-6.7,2.7c-1.8,1.8-2.8,4.2-2.7,6.7L27.8,250.7z"/>
	<g>
		<path class="st3" d="M303.5,152.3L303.5,152.3c-0.4,0-0.7-0.3-0.7-0.7l0.7-45.4c0-2.7-0.8-4.8-2.4-6.4c-3-2.9-7.7-2.7-7.9-2.7
			l-83.8-2.2c-0.4,0-0.7-0.3-0.7-0.7c0-0.4,0.3-0.7,0.7-0.7l83.7,2.2c0.5,0,5.6-0.1,8.9,3.1c1.9,1.8,2.9,4.3,2.9,7.4l-0.7,45.4
			C304.2,152,303.9,152.3,303.5,152.3z"/>
	</g>
	
		<linearGradient id="SVGID_3_" gradientUnits="userSpaceOnUse" x1="162.8548" y1="-548.4585" x2="165.2373" y2="-694.5854" gradientTransform="matrix(1 0 0 -1 0 -416)">
		<stop  offset="0" style="stop-color:#09005D"/>
		<stop  offset="1" style="stop-color:#1A0F91"/>
	</linearGradient>
	<path class="st5" d="M5.7,274.2h318.7c3.1,0,5.7-2.5,5.7-5.7v-2.8c0-3.1-2.5-5.7-5.7-5.7H5.7c-3.1,0-5.7,2.5-5.7,5.7v2.8
		C0,271.6,2.5,274.2,5.7,274.2z"/>
</g>
<g>
	<path class="st6" d="M151,151.4c0-3.6,0-7.2,0-10.8c0-0.8-0.3-1.6-0.9-2.2c-0.5-0.5-1.4-0.9-2.2-0.9l0,0h-0.1c-0.1,0-0.1,0-0.2,0
		h-0.1c-0.2,0-0.4,0.1-0.6,0.1c-0.5,0.1-1,0.4-1.4,0.8c-3.6,2.9-7.1,5.8-10.7,8.7c-1,0.8-2,1.6-3,2.4c-0.3,0.3-0.5,0.6-0.6,1
		c-0.2,0.4-0.3,0.8-0.3,1.2c0,0.8,0.3,1.7,0.9,2.2c0.6,0.5,1.4,1,2.2,0.9c0.3,0,0.6-0.1,0.8-0.1c0.5-0.1,1-0.4,1.4-0.8
		c2.8-2.3,5.7-4.6,8.5-6.9c0,4.3,0,8.5,0,12.8c0,6.4,0,12.7,0,19.1c0,3.6,0,7.2,0,10.8c0,0.8,0.3,1.6,0.9,2.2
		c0.5,0.5,1.4,0.9,2.2,0.9s1.6-0.3,2.2-0.9c0.6-0.6,0.9-1.4,0.9-2.2c0-6.4,0-12.8,0-19.2C151,164.2,151,157.8,151,151.4z"/>
	<path class="st6" d="M198.2,182.8c-0.6-0.5-1.4-1-2.2-0.9c-0.8,0-1.7,0.3-2.2,0.9c-0.5,0.6-1,1.1-1.6,1.5c-0.7,0.5-1.5,1-2.4,1.4
		s-1.9,0.6-2.9,0.8c-1.1,0.1-2.2,0.1-3.4,0c-1.1-0.2-2.1-0.5-3.1-0.9c-1.1-0.5-2.2-1.1-3.2-1.9c-1.1-0.9-2.2-2-3.1-3.1
		c-1-1.4-1.9-2.9-2.6-4.4c-0.8-2-1.4-4.2-1.7-6.4c-0.4-3.2-0.3-6.5,0.1-9.8c0.4-2.7,1-5.4,2-7.9c0.6-1.3,1.3-2.6,2.1-3.7
		c0.7-0.8,1.5-1.6,2.3-2.3c0.9-0.7,1.9-1.2,2.9-1.7c1.1-0.4,2.3-0.8,3.4-0.9c1.1-0.1,2.2-0.1,3.3,0c0.8,0.1,1.7,0.4,2.5,0.7
		c0.6,0.3,1.2,0.6,1.8,1c0.4,0.3,0.7,0.6,1,1c0.2,0.3,0.4,0.6,0.6,0.9c0.3,0.7,1.2,1.2,1.9,1.4s1.7,0.1,2.4-0.3
		c0.7-0.4,1.3-1.1,1.4-1.9c0-0.3,0.1-0.6,0.1-0.8c0-0.6-0.1-1.1-0.4-1.6c-0.9-1.7-2.2-3.1-3.8-4.2c-0.6-0.4-1.2-0.8-1.9-1.1
		c-0.9-0.4-1.8-0.8-2.7-1c-1-0.2-1.9-0.4-2.9-0.5c-0.8-0.1-1.5-0.1-2.3-0.1c-1.8,0.1-3.6,0.4-5.3,1c-3.4,1.2-6.5,3.2-8.8,6
		c-1.1,1.4-2.1,2.9-2.9,4.6c-0.8,1.7-1.4,3.4-1.9,5.2c-0.4,1.6-0.7,3.1-0.9,4.7c-0.3,2-0.5,4-0.5,6.1c0,1.8,0,3.6,0.3,5.4
		c0.3,2,0.6,4,1.2,5.9c0.5,1.7,1.3,3.4,2.1,5c0.8,1.5,1.8,2.9,2.9,4.2c0.9,1.1,2,2.2,3.2,3.1c1.3,1.1,2.7,2,4.3,2.7
		c1.5,0.7,3.1,1.2,4.8,1.5c1.7,0.2,3.3,0.4,5,0.2s3.3-0.5,4.8-1.2c0.9-0.4,1.7-0.7,2.5-1.2s1.6-1.1,2.3-1.7c0.5-0.4,1-0.9,1.4-1.4
		c0.3-0.3,0.5-0.6,0.6-1c0.2-0.4,0.3-0.8,0.3-1.2C199.1,184.3,198.8,183.3,198.2,182.8z"/>
</g>
<g>
	<path class="st7" d="M86.1,110.9l-42.9-0.3c-1.5,0-2.7-1.2-2.7-2.7v-0.8c0-1.5,1.2-2.7,2.7-2.7l42.9,0.3c1.5,0,2.7,1.2,2.7,2.7v0.8
		C88.8,109.7,87.6,110.9,86.1,110.9z"/>
	<path class="st7" d="M108.6,122l-65.4-0.5c-1.5,0-2.7-1.2-2.7-2.7V118c0-1.5,1.2-2.7,2.7-2.7l65.4,0.5c1.5,0,2.7,1.2,2.7,2.7v0.8
		C111.3,120.8,110.1,122,108.6,122z"/>
	<path class="st7" d="M130.1,133l-86.9-0.6c-1.5,0-2.7-1.2-2.7-2.7v-0.8c0-1.5,1.2-2.7,2.7-2.7l86.9,0.6c1.5,0,2.7,1.2,2.7,2.7v0.8
		C132.9,131.8,131.6,133,130.1,133z"/>
	<path class="st7" d="M273.6,114.3l-86.9-0.6c-1.5,0-2.7-1.2-2.7-2.7v-0.8c0-1.5,1.2-2.7,2.7-2.7l86.9,0.6c1.5,0,2.7,1.2,2.7,2.7
		v0.8C276.3,113.1,275,114.3,273.6,114.3z"/>
	<path class="st7" d="M273.3,129.6l-86.9-0.6c-1.5,0-2.7-1.2-2.7-2.7v-0.8c0-1.5,1.2-2.7,2.7-2.7l86.9,0.6c1.5,0,2.7,1.2,2.7,2.7
		v0.8C276,128.4,274.8,129.6,273.3,129.6z"/>
	<path class="st7" d="M94.3,165.5l-51.1-0.4c-1.5,0-2.7-1.2-2.7-2.7v-0.8c0-1.5,1.2-2.7,2.7-2.7l51.1,0.4c1.5,0,2.7,1.2,2.7,2.7v0.8
		C97,164.3,95.8,165.5,94.3,165.5z"/>
	<path class="st7" d="M108.5,176.5L43.4,176c-1.5,0-2.7-1.2-2.7-2.7v-0.8c0-1.5,1.2-2.7,2.7-2.7l65.1,0.5c1.5,0,2.7,1.2,2.7,2.7v0.8
		C111.2,175.3,110,176.5,108.5,176.5z"/>
	<path class="st7" d="M113.3,187.5l-70.1-0.6c-1.2,0-2.1-1.2-2.1-2.7v-0.8c0-1.5,0.9-2.7,2.1-2.7l70.1,0.6c1.2,0,2.1,1.2,2.1,2.7
		v0.8C115.4,186.3,114.5,187.5,113.3,187.5z"/>
	<path class="st7" d="M94.9,219.4L43.8,219c-1.5,0-2.7-1.2-2.7-2.7v-0.8c0-1.5,1.2-2.7,2.7-2.7l51.1,0.4c1.5,0,2.7,1.2,2.7,2.7v0.8
		C97.6,218.2,96.4,219.4,94.9,219.4z"/>
	<path class="st7" d="M285.7,162.3l-65.1-0.5c-1.5,0-2.7-1.2-2.7-2.7v-0.8c0-1.5,1.2-2.7,2.7-2.7l65.1,0.5c1.5,0,2.7,1.2,2.7,2.7
		v0.8C288.5,161.1,287.2,162.3,285.7,162.3z"/>
	<path class="st7" d="M287.7,176.2l-71.9-0.6c-1.2,0-2.2-1.2-2.2-2.7v-0.8c0-1.5,1-2.7,2.2-2.7l71.9,0.6c1.2,0,2.2,1.2,2.2,2.7v0.8
		C289.9,175,288.9,176.2,287.7,176.2z"/>
	<path class="st7" d="M133.8,209.4l-90-0.6c-1.5,0-2.7-1.2-2.7-2.7v-0.8c0-1.5,1.2-2.7,2.7-2.7l90,0.6c1.5,0,2.7,1.2,2.7,2.7v0.8
		C136.5,208.2,135.3,209.4,133.8,209.4z"/>
</g>
<g>
	<g>
		<rect x="261.5" y="250.4" class="st8" width="4" height="43.6"/>
		<path class="st8" d="M281.2,294.9h-35.4v-0.7c0-1.1,0.8-2,2-2h31.4c1.1,0,2,0.8,2,2V294.9L281.2,294.9z"/>
		<path class="st8" d="M287.8,248.8c0,2.5-2.1,4.6-4.6,4.6h-38c-2.5,0-4.6-2.1-4.6-4.6v-4.1c0-2.5,2.1-4.6,4.6-4.6h38
			c2.5,0,4.6,2.1,4.6,4.6V248.8z"/>
	</g>
	<g>
		
			<linearGradient id="SVGID_4_" gradientUnits="userSpaceOnUse" x1="-6258.5317" y1="-693.9358" x2="-6265.6489" y2="-707.9333" gradientTransform="matrix(-1 0 0 -1 -6027.3042 -416)">
			<stop  offset="0" style="stop-color:#09005D"/>
			<stop  offset="1" style="stop-color:#1A0F91"/>
		</linearGradient>
		<path class="st9" d="M241,286.2c0,0-11.6,8.3-9.5,13.9c0,0,12.6-5.4,14.1-9.7c1.5-4.2-0.2-6.1-0.2-6.1L241,286.2z"/>
		
			<linearGradient id="SVGID_5_" gradientUnits="userSpaceOnUse" x1="-6272.103" y1="-699.4252" x2="-6265.0127" y2="-699.4252" gradientTransform="matrix(-1 0 0 -1 -6027.3042 -416)">
			<stop  offset="0" style="stop-color:#FEBBBA"/>
			<stop  offset="1" style="stop-color:#FF928E"/>
		</linearGradient>
		<path class="st10" d="M242.8,279.3l1.9,5.4c0.2,0.8,0,1.8-0.7,2.2c-0.4,0.2-0.8,0.5-1.5,0.6c-0.9,0.2-2-0.2-2.5-1.1l-2.2-4.2
			L242.8,279.3z"/>
		
			<linearGradient id="SVGID_6_" gradientUnits="userSpaceOnUse" x1="-6293.4043" y1="-672.75" x2="-6251.6509" y2="-672.75" gradientTransform="matrix(-1 0 0 -1 -6027.3042 -416)">
			<stop  offset="0" style="stop-color:#09005D"/>
			<stop  offset="1" style="stop-color:#1A0F91"/>
		</linearGradient>
		<path class="st11" d="M261.2,230.4c0,0-23.7,4.1-33.8,13.4c-10.1,9.3,9.3,39.3,9.3,39.3s3.2,0,7.1-3.3c0,0-11.6-22.5-1.7-29
			c11.2-7.4,24-9.1,24-9.1l-4.8-10.6L261.2,230.4z"/>
		
			<linearGradient id="SVGID_7_" gradientUnits="userSpaceOnUse" x1="-6262.7676" y1="-708.0173" x2="-6287.4414" y2="-740.2831" gradientTransform="matrix(-1 0 0 -1 -6027.3042 -416)">
			<stop  offset="0" style="stop-color:#09005D"/>
			<stop  offset="1" style="stop-color:#1A0F91"/>
		</linearGradient>
		<path class="st12" d="M233.6,297.1c2.5-1.2,9.7-6.2,11-6.4c1.2-0.2,3.3,1.2,3.3,1.2s0.5,0.9,0,2.5c-1.7,2-5.4,5.9-10.5,7.3
			c-3.7,1.1-6.2,0.1-7.9-1.1C230.3,299.3,231.8,297.8,233.6,297.1z"/>
		
			<linearGradient id="SVGID_8_" gradientUnits="userSpaceOnUse" x1="-6275.0488" y1="-715.0686" x2="-6255.9834" y2="-715.0686" gradientTransform="matrix(-1 0 0 -1 -6027.3042 -416)">
			<stop  offset="0" style="stop-color:#4F52FF"/>
			<stop  offset="1" style="stop-color:#4042E2"/>
		</linearGradient>
		<path class="st13" d="M237.3,301.7c5.1-1.4,8.7-5.3,10.5-7.3c-0.4,1.1-1.2,2.5-3.1,4.1c-4.5,4-13.1,5.5-15,5.2
			c-1.4-0.2-1.3-1.5-0.4-3.1C231,301.8,233.6,302.7,237.3,301.7z"/>
		
			<linearGradient id="SVGID_9_" gradientUnits="userSpaceOnUse" x1="-6277.2305" y1="-706.25" x2="-6270.5757" y2="-706.25" gradientTransform="matrix(-1 0 0 -1 -6027.3042 -416)">
			<stop  offset="0" style="stop-color:#FEBBBA"/>
			<stop  offset="1" style="stop-color:#FF928E"/>
		</linearGradient>
		<path class="st14" d="M250,288.4c0,0.7-1.4,3.1-2.2,4.5c-0.4,0.6-1.1,1.1-1.9,1.1c-0.5,0-1.1,0-1.5-0.2c-0.7-0.2-1.2-1.1-0.9-1.8
			l1.7-5.5L250,288.4z"/>
		
			<linearGradient id="SVGID_10_" gradientUnits="userSpaceOnUse" x1="-6313.5596" y1="-672.7" x2="-6270.604" y2="-672.7" gradientTransform="matrix(-1 0 0 -1 -6027.3042 -416)">
			<stop  offset="0" style="stop-color:#09005D"/>
			<stop  offset="1" style="stop-color:#1A0F91"/>
		</linearGradient>
		<path class="st15" d="M283.9,223.3c0,0,5.3,14,0,18.3c-5.3,4.2-17.8,9.1-20.6,17.6c-2.8,8.5-7.5,25-13.9,30.9c0,0-4.5-0.5-6.1-2.2
			c0,0,3.7-24.6,6-31c2.1-5.5,5.1-13.4,11-17.8c1.7-1.3,1.4-3.3,0.6-5.2l-1.4-3.5L283.9,223.3z"/>
		
			<linearGradient id="SVGID_11_" gradientUnits="userSpaceOnUse" x1="-6255.4116" y1="-622.4073" x2="-6360.6187" y2="-688.7797" gradientTransform="matrix(-1 0 0 -1 -6027.3042 -416)">
			<stop  offset="0" style="stop-color:#1A0F91"/>
			<stop  offset="1" style="stop-color:#09005D"/>
		</linearGradient>
		<path class="st16" d="M229.1,212.2c8.8,0.6,6-13.6,5.9-14.1l13.3,9.4c0,0-0.7,7.5-11.8,11.4c-2.8,0.9-5.4,1.1-7.7,0.6
			C229.8,216.8,229.7,214.2,229.1,212.2z"/>
		
			<linearGradient id="SVGID_12_" gradientUnits="userSpaceOnUse" x1="-6256.8672" y1="-629.2611" x2="-6233.6582" y2="-629.2611" gradientTransform="matrix(-1 0 0 -1 -6027.3042 -416)">
			<stop  offset="0" style="stop-color:#FEBBBA"/>
			<stop  offset="1" style="stop-color:#FF928E"/>
		</linearGradient>
		<path class="st17" d="M212.1,208c3.3-2.2,7,0,7,0c4.4,2.8,7.7,4.1,10,4.2c0.6,2,0.7,4.6-0.2,7.3c-5-1.1-8.5-4.6-9.9-6.5
			c-0.6-0.7-1.5-0.8-2.2-0.2s-1.3,1.3-1.2,2c0.2,1.5-1.5,2-1.7,1.4c-0.1-0.6,0.6-3.9,0.6-3.9s-3.5,3.5-5,5c-1.4,1.4-3.2,0-3.2,0
			S208.8,210.3,212.1,208z"/>
		
			<linearGradient id="SVGID_13_" gradientUnits="userSpaceOnUse" x1="-6267.2314" y1="-603.6716" x2="-6372.4385" y2="-670.0436" gradientTransform="matrix(-1 0 0 -1 -6027.3042 -416)">
			<stop  offset="0" style="stop-color:#1A0F91"/>
			<stop  offset="1" style="stop-color:#09005D"/>
		</linearGradient>
		<path class="st18" d="M270.1,176.4c0,0-12.8-5.2-36.7,14.5c0,0-2,4.1,0.2,7.8c2.1,3.7,22.9,21.6,25.7,31.5c0,0,12.4,4,25.1-5.5
			C284.5,224.7,283.3,197.1,270.1,176.4z"/>
		
			<linearGradient id="SVGID_14_" gradientUnits="userSpaceOnUse" x1="-6279.0454" y1="-595.0206" x2="-6263.6445" y2="-595.0206" gradientTransform="matrix(-1 0 0 -1 -6027.3042 -416)">
			<stop  offset="0" style="stop-color:#FEBBBA"/>
			<stop  offset="1" style="stop-color:#FF928E"/>
		</linearGradient>
		<path class="st19" d="M244.8,171.8l6.2,7.7c0.6,0.7,0.7,1.8,0.4,2.7c-0.8,1.8-2.9,4.4-7.5,4c-1.4-0.1-2.6-0.9-3.2-2.1l-4.4-9.1
			L244.8,171.8z"/>
		
			<linearGradient id="SVGID_15_" gradientUnits="userSpaceOnUse" x1="-6273.6938" y1="-593.4277" x2="-6378.8823" y2="-659.7883" gradientTransform="matrix(-1 0 0 -1 -6027.3042 -416)">
			<stop  offset="0" style="stop-color:#1A0F91"/>
			<stop  offset="1" style="stop-color:#09005D"/>
		</linearGradient>
		<path class="st20" d="M280,209.2c1.5-6-13.6-19.6-13.6-19.6l3.7-13.2c0,0,32.5,21.7,24.3,39c-1.2,2.5-2.7,4.2-4.6,5.4
			C287.2,213.9,283,210.6,280,209.2z"/>
		
			<linearGradient id="SVGID_16_" gradientUnits="userSpaceOnUse" x1="-6289.4673" y1="-629.621" x2="-6348.4316" y2="-732.0839" gradientTransform="matrix(-1 0 0 -1 -6027.3042 -416)">
			<stop  offset="0" style="stop-color:#FEBBBA"/>
			<stop  offset="1" style="stop-color:#FF928E"/>
		</linearGradient>
		<path class="st21" d="M257.3,208.7c0,0,17.9,7,22.2,1.8c0.4-0.4,0.5-0.7,0.6-1.2c2.9,1.4,7.1,4.7,9.7,11.8
			c-9.4,6-25.5-3.3-29.8-6.1c-0.7-0.5-1.5-0.6-2.4-0.5c-1.7,0.4-4.6,0.8-6.1,0.6c-2.2-0.4-5.5,7.7-9.3,5.2
			C242.2,220.2,245.4,206.2,257.3,208.7z"/>
		<g>
			
				<linearGradient id="SVGID_17_" gradientUnits="userSpaceOnUse" x1="-6121.2822" y1="1733.6415" x2="-6140.5356" y2="1708.1705" gradientTransform="matrix(-0.9683 -0.2499 0.2499 -0.9683 -6125.7476 310.6493)">
				<stop  offset="0" style="stop-color:#FEBBBA"/>
				<stop  offset="1" style="stop-color:#FF928E"/>
			</linearGradient>
			<path class="st22" d="M231.1,160.6c-0.1,0.2,1.5,17,1.5,17l9.5-1.1l0.9-16C243,160.5,232.2,156.5,231.1,160.6z"/>
			
				<linearGradient id="SVGID_18_" gradientUnits="userSpaceOnUse" x1="-6136.0161" y1="1727.5543" x2="-6113.0181" y2="1727.5543" gradientTransform="matrix(-0.9683 -0.2499 0.2499 -0.9683 -6125.7476 310.6493)">
				<stop  offset="0" style="stop-color:#09005D"/>
				<stop  offset="1" style="stop-color:#1A0F91"/>
			</linearGradient>
			<path class="st23" d="M240.6,163.8l0.2,8.5c0,0.1,0,0.2,0,0.4c-0.1,0.6-0.9,2.8-3.1,1.9c-2-0.8-3.8-1.5-5.2-1.3
				c-0.6,0.1-1.1,0.7-0.9,1.3c0.1,1.5,0.5,5,1.3,7.9c0.1,0.6,0.7,0.9,1.3,0.8c1.8-0.4,5.7-1.1,8.6-2.5c0.4-0.2,0.7-0.6,0.7-0.9
				c0.1-2.1,0.6-8.6,1.1-10.4c0.4-1.7,2.6-2.5,3.5-2.7c0.4-0.1,0.6-0.2,0.7-0.6c0.6-0.9,1.4-3.3-1.5-4.7c-0.6-0.2-0.8-1.1-0.6-1.7
				c0.6-1.2,0.9-3.1-1.3-4.5c-2.2-1.3-4.2-0.2-5.3,0.7c-0.5,0.4-1.1,0.4-1.5,0c-0.2-0.2-0.6-0.4-1.1-0.1c-0.6,0.4-1.4,0-1.5-0.7
				c-0.5-1.3-1.5-2.6-3.9-2.5c-4.2,0.2-5.2,4.8-4.4,7.7c0.8,2.8,5.4,2.2,7.8,1.2c1.8-0.8,3.9,0.5,4.8,1.2
				C240.3,163.1,240.6,163.4,240.6,163.8z"/>
			
				<linearGradient id="SVGID_19_" gradientUnits="userSpaceOnUse" x1="-6149.4858" y1="1713.4683" x2="-6134.043" y2="1729.312" gradientTransform="matrix(-0.9683 -0.2499 0.2499 -0.9683 -6125.7476 310.6493)">
				<stop  offset="0" style="stop-color:#FEBBBA"/>
				<stop  offset="1" style="stop-color:#FF928E"/>
			</linearGradient>
			<path class="st24" d="M244.4,172.5c0,0-1.2-5,0.7-6c1.9-0.9,4.5-0.1,3.4,3.3C247.5,174.1,244.4,172.5,244.4,172.5z"/>
		</g>
	</g>
	<g>
		
			<linearGradient id="SVGID_20_" gradientUnits="userSpaceOnUse" x1="11683.002" y1="-1466.3538" x2="11652.8096" y2="-1474.6287" gradientTransform="matrix(0.9988 -4.940000e-02 -4.940000e-02 -0.9988 -11486.9189 -675.0648)">
			<stop  offset="0" style="stop-color:#09005D"/>
			<stop  offset="1" style="stop-color:#1A0F91"/>
		</linearGradient>
		<path class="st25" d="M248.1,222.4L248.1,222.4h-37.6c-0.9,0-1.7-0.7-1.7-1.7s0.7-1.7,1.7-1.7H248c0.9,0,1.7,0.7,1.7,1.7
			C249.7,221.5,249,222.2,248.1,222.4z"/>
		
			<linearGradient id="SVGID_21_" gradientUnits="userSpaceOnUse" x1="11772.5684" y1="-608.8604" x2="11751.1455" y2="-631.5027" gradientTransform="matrix(1 0 0 -1 -11558.9307 -416)">
			<stop  offset="0" style="stop-color:#09005D"/>
			<stop  offset="1" style="stop-color:#1A0F91"/>
		</linearGradient>
		<path class="st26" d="M176.9,188.3h31.2c2.4,0,4.4,1.3,5.4,3.4l14.4,30.6h-38.8c-1.5,0-2.8-0.9-3.4-2.2l-11.2-28.3
			C174,190.1,175.1,188.3,176.9,188.3z"/>
		<ellipse transform="matrix(0.9519 -0.3064 0.3064 0.9519 -53.2649 70.0853)" class="st8" cx="196.6" cy="204.7" rx="2.5" ry="4"/>
	</g>
	<g>
		<g>
			
				<linearGradient id="SVGID_22_" gradientUnits="userSpaceOnUse" x1="-6243.8501" y1="-679.8715" x2="-6207.6748" y2="-679.8715" gradientTransform="matrix(-1 0 0 -1 -6027.3042 -416)">
				<stop  offset="0" style="stop-color:#4F52FF"/>
				<stop  offset="1" style="stop-color:#4042E2"/>
			</linearGradient>
			<path class="st27" d="M182,302.6c-0.2,0-0.5,0-0.6-0.1c-0.8-0.4-1.2-1.2-0.8-2l33-74.4c0.4-0.8,1.3-1.2,2.1-0.8s1.2,1.2,0.8,2
				l-33,74.4C183.1,302.3,182.6,302.6,182,302.6z"/>
			
				<linearGradient id="SVGID_23_" gradientUnits="userSpaceOnUse" x1="-6248.061" y1="-679.9216" x2="-6211.8853" y2="-679.9216" gradientTransform="matrix(-1 0 0 -1 -6027.3042 -416)">
				<stop  offset="0" style="stop-color:#4F52FF"/>
				<stop  offset="1" style="stop-color:#4042E2"/>
			</linearGradient>
			<path class="st28" d="M219.1,302.6c-0.6,0-1.2-0.4-1.4-0.9l-33-74.3c-0.4-0.8,0-1.7,0.8-2c0.8-0.4,1.8,0,2.1,0.8l33,74.4
				c0.4,0.8,0,1.7-0.8,2C219.6,302.6,219.3,302.6,219.1,302.6z"/>
			
				<linearGradient id="SVGID_24_" gradientUnits="userSpaceOnUse" x1="-6346.0776" y1="-679.8715" x2="-6309.9023" y2="-679.8715" gradientTransform="matrix(-1 0 0 -1 -6027.3042 -416)">
				<stop  offset="0" style="stop-color:#4F52FF"/>
				<stop  offset="1" style="stop-color:#4042E2"/>
			</linearGradient>
			<path class="st29" d="M284.2,302.6c-0.2,0-0.5,0-0.6-0.1c-0.8-0.4-1.2-1.2-0.8-2l33-74.4c0.4-0.8,1.3-1.2,2.1-0.8
				c0.8,0.4,1.2,1.2,0.8,2l-33,74.4C285.3,302.3,284.8,302.6,284.2,302.6z"/>
			
				<linearGradient id="SVGID_25_" gradientUnits="userSpaceOnUse" x1="-6350.2549" y1="-679.8716" x2="-6314.0796" y2="-679.8716" gradientTransform="matrix(-1 0 0 -1 -6027.3042 -416)">
				<stop  offset="0" style="stop-color:#4F52FF"/>
				<stop  offset="1" style="stop-color:#4042E2"/>
			</linearGradient>
			<path class="st30" d="M321.4,302.6c-0.6,0-1.2-0.4-1.4-0.9l-33-74.4c-0.4-0.8,0-1.7,0.8-2c0.8-0.4,1.8,0,2.1,0.8l33,74.4
				c0.4,0.8,0,1.7-0.8,2C321.8,302.6,321.5,302.6,321.4,302.6z"/>
		</g>
		
			<linearGradient id="SVGID_26_" gradientUnits="userSpaceOnUse" x1="-6352.54" y1="-641.95" x2="-6199.1904" y2="-641.95" gradientTransform="matrix(-1 0 0 -1 -6027.3042 -416)">
			<stop  offset="0" style="stop-color:#4F52FF"/>
			<stop  offset="1" style="stop-color:#4042E2"/>
		</linearGradient>
		<path class="st31" d="M325.2,223.9c0.1-0.5,0-0.9-0.4-1.4c-0.2-0.4-0.7-0.6-1.2-0.6h-150c-0.6,0-1.2,0.4-1.4,0.8
			c-0.4,0.6-0.4,1.3-0.1,1.9l1.7,3.9c0.4,0.9,1.2,1.5,2.1,1.5H323c0.8,0,1.5-0.7,1.7-1.5L325.2,223.9z"/>
	</g>
</g>
</svg>
