<svg id="Слой_1" data-name="Слой 1" xmlns="http://www.w3.org/2000/svg" viewBox="0 0 450 418.15"><defs><style>.cls-1{fill:#ec615b;}.cls-2,.cls-8{fill:#5222d0;}.cls-3{fill:#fff;}.cls-4{fill:#161616;}.cls-10,.cls-11,.cls-12,.cls-13,.cls-5,.cls-6,.cls-9{fill:#4c4c4c;}.cls-5{opacity:0.09;}.cls-10,.cls-11,.cls-12,.cls-13,.cls-5,.cls-6,.cls-8,.cls-9{isolation:isolate;}.cls-6{opacity:0.11;}.cls-7{fill:#e8e8e8;}.cls-8{opacity:0.16;}.cls-9{opacity:0.12;}.cls-10{opacity:0.08;}.cls-11{opacity:0.1;}.cls-12{opacity:0.13;}.cls-13{opacity:0.15;}.cls-14{fill:#fcfcfc;stroke:#000;stroke-miterlimit:10;}.cls-15{fill:#1a1b22;}</style></defs><g id="background"><g id="details"><circle class="cls-1" cx="72.8" cy="28.87" r="6"/><circle class="cls-1" cx="134.41" cy="275.35" r="4.41"/><circle class="cls-1" cx="420.13" cy="51.62" r="6.28"/><circle class="cls-1" cx="227.69" cy="2.61" r="2.63"/><circle class="cls-2" cx="79.5" cy="6.64" r="4.27"/><circle class="cls-2" cx="145.33" cy="268.03" r="2.34"/><circle class="cls-2" cx="232.95" cy="31.87" r="2.77"/><circle class="cls-2" cx="405.27" cy="37.41" r="1.59"/><path class="cls-1" d="M412.35,187.43c1.22-2.43,4.08.71,4.92,1.65a6.15,6.15,0,0,0,3.19,2.2c2.48.47,3.66-1.78,5.62-2.63,2.77-1.26,3.43,3.38,5.44,4.36a3.22,3.22,0,0,0,2.63,0c1.08-.28,1.87-.94,3.05-.61a3.51,3.51,0,0,1,2.58,3c.09.89,1.5.89,1.4,0a4.9,4.9,0,0,0-5.91-4.41c-1.22.33-2.43,1.31-3.56.42a9.11,9.11,0,0,1-1.5-2.25,4.1,4.1,0,0,0-2.63-2.11c-1.4-.23-2.48.56-3.56,1.36s-1.83,1.6-3.28,1.36-2.16-1.36-3.14-2.39c-1.55-1.69-5.07-3.38-6.47-.61-.38.8.84,1.5,1.22.7Z"/><path class="cls-1" d="M423.18,197.37a7.68,7.68,0,0,1,6.05,1.69c1.17,1,1.54,2.21,2.34,3.42,1.64,2.49,3.7.33,5.86.1,3.33-.38,5.06,3.51,8.25,4a3.75,3.75,0,0,0,4.27-2.3c.33-.84-1-1.22-1.36-.37-1.59,4-6.66-1.5-8.58-2.39a5.37,5.37,0,0,0-2.67-.57c-1.22.1-3.43,1.88-4.55.85-.66-.61-.94-2-1.6-2.72a7.51,7.51,0,0,0-2.2-1.88,9.06,9.06,0,0,0-6.23-1.17c-.85.1-.47,1.45.42,1.31Z"/><path class="cls-1" d="M1.62,118.89c-.51-2.86-.6-5.68,2.68-6.8,1.31-.47,2.72-.7,3.79-1.64,2-1.69,1.83-4.36,1.69-6.75-.09-1.74-.51-4.41,2.11-3.71a3.5,3.5,0,0,0,2.58.14,2.25,2.25,0,0,0,1.13-1.54c.42-1.41,0-2.54,1.22-3.71a4,4,0,0,1,3.56-1.08c.89.14.89-1.26,0-1.4a5.3,5.3,0,0,0-4.08,1.07c-1.5,1.18-1.55,2.4-2,4.08-.7,2.39-2.43.43-4.17.75a2.19,2.19,0,0,0-1.78,1.93c-.42,1.87.19,3.89.14,5.76-.14,3.52-2.48,3.85-5.16,4.93-3.65,1.45-3.61,4.92-3,8.3.1.93,1.46.56,1.31-.33Z"/><path class="cls-1" d="M17.28,109.6c-2.81-3.61.43-7.17,4.32-6.84,1.17.09,2.15,0,2.76-1.08.85-1.41.57-3.33,1.22-4.83A9.23,9.23,0,0,1,31.4,91.6c.84-.28.47-1.64-.38-1.36a10.84,10.84,0,0,0-5.76,4.22,9.79,9.79,0,0,0-1.6,3.89c-.09.47-.09,1.36-.23,1.78-.38,1.22-1.55,1.08-2.63,1.13-5,.28-7.74,5.2-4.5,9.37.52.71,1.5-.28,1-1Z"/><path class="cls-2" d="M143.53,48.35c-.79-2.62,1.78-5.34,4.41-3.93a3.2,3.2,0,0,1-1.27,6c-.89.09-.89,1.5,0,1.4,4.22-.42,6.1-5.9,2.3-8.39s-8.06,1.31-6.8,5.35c.28.79,1.64.42,1.36-.43Z"/><path class="cls-2" d="M305.45,258.84c-1.93,2.3.7,4.27,2.72,5.07,1.54.6,2.57,1.4,2.81,3.14a17.81,17.81,0,0,0,.28,2.34,3.84,3.84,0,0,0,.84,1.6c.66.7,3.19,1.35,2.82,2.67a.7.7,0,0,0,1.36.37,2.45,2.45,0,0,0-1-2.81c-.66-.52-1.6-.66-2.16-1.27-.89-.93-.61-2.43-.8-3.56a4.44,4.44,0,0,0-1.36-2.77c-.89-.75-6.05-2-4.5-3.84.61-.66-.37-1.64-1-.94Z"/><path class="cls-2" d="M311.64,254.15a2.28,2.28,0,0,0,.79,2.72c.8.66,2.07.71,2.77,1.46s.66,1.87.84,2.9a3.74,3.74,0,0,0,1.93,3c.89.47,1.87.61,2.71,1.12a6.17,6.17,0,0,1,2.68,4.46c.09.89,1.5.89,1.4,0-.37-3.33-2.29-5.4-5.34-6.57-2.39-.89-1.69-2.9-2.49-4.78a3,3,0,0,0-1.07-1.41c-.8-.56-3.47-1-2.86-2.53.32-.8-1-1.17-1.36-.33Z"/><path class="cls-2" d="M315,57.61c-1.46-1.93,1.45-3.29,2.9-3.47,1.08-.14,2.21,0,3.29-.24a6.73,6.73,0,0,0,3.89-2.15,8.48,8.48,0,0,0,1.5-3.47,4.07,4.07,0,0,1,1.73-2.49c.33-.14,1.13.1,1.55.1a7.76,7.76,0,0,0,2.3-.15c.89-.18.51-1.54-.38-1.35-1.87.37-4.45-.8-5.86.93a4.34,4.34,0,0,0-.66,2.25c-.28,2.16-1.31,4-3.51,4.69-2.44.75-5.3-.23-7.32,1.78a3.16,3.16,0,0,0-.61,4.18c.52.79,1.74.09,1.18-.61Z"/><path class="cls-2" d="M329.23,57a6.72,6.72,0,0,1,3.29-5.72c1.54-.93,3.28-.84,5.06-.84,2.39.05,4.69,0,6.23-2.06.52-.75-.7-1.46-1.21-.71-2.07,2.77-7.27.71-10.23,2.11a8.12,8.12,0,0,0-4.5,7.22.68.68,0,0,0,1.36,0Z"/><path class="cls-2" d="M150.44,130.05c.42-.1.85-.24,1.31-.33.19.42.38.89.57,1.31a6.22,6.22,0,0,1-.24,1.88,10.52,10.52,0,0,0-.19,2,3.31,3.31,0,0,0,1.46,2.67c1.4.75,3-.32,4.45.43,1.92.93,3,3.23,3.8,5.11.38.84,1.59.09,1.22-.71-.89-2-2.06-4.26-4-5.44a5.93,5.93,0,0,0-2.82-.65c-1.12-.1-1.5,1.22-2.62-1.08-.33-.75.09-1.88.19-2.63.23-1.64.32-3.61-1.5-4.31a2.07,2.07,0,0,0-3,1.36c-.14.89,1.22,1.27,1.36.38Z"/><path class="cls-2" d="M160.05,128.31c-1.36.94-.79,2.44.14,3.56a45,45,0,0,1,3.14,3.57,19.69,19.69,0,0,1,2.4,5.11c.28.84,1.64.51,1.36-.38a21.5,21.5,0,0,0-2.54-5.48c-.51-.75-4.36-4.78-3.75-5.21s0-1.68-.75-1.17Z"/></g></g><g id="table_pc_s" data-name="table &amp; pc&apos;s"><g id="table"><path class="cls-3" d="M46.49,232.16V410.75c4.13-.42,8.21-.84,12.34-1.31V230.85C54.75,231.27,50.62,231.69,46.49,232.16Z"/><path class="cls-3" d="M403.06,234.09q-.13,87.69-.32,175.35h12v-177C410.89,233,407,233.57,403.06,234.09Z"/><path d="M107.26,351.3q-.7-37.77-.33-77.27.28-25.38,1-50c-5-.1-9.94-.24-15-.33q-.15,63.51-.33,127C97.51,350.88,102.38,351.11,107.26,351.3Z"/><path d="M355.33,226.63q.15,62,.33,124.06c4.46-.09,8.86-.23,13.32-.33q.5-63,1-126C365.09,225.08,360.21,225.88,355.33,226.63Z"/><path d="M26.38,228.55c-.09,3.47-.23,6.94-.33,10.41q201.63.36,403.32.66c-.33-3.66-.66-7.36-1-11Q363,225.72,294.9,224.71C201.78,223.3,112.18,224.8,26.38,228.55Z"/><path class="cls-3" d="M26.38,228.23q201,.14,402.05.32Q407,208.23,385.57,188q-162.17.13-324.4.33Q43.72,208.25,26.38,228.23Z"/><path class="cls-4" d="M26.43,229.16q17.37-20.74,35.77-40.6c.61-.66-.37-1.64-1-1q-18.44,19.85-35.78,40.61c-.56.65.42,1.69,1,1Z"/><path class="cls-4" d="M25.16,229.16v8.77a.71.71,0,0,0,1.41,0v-8.77a.71.71,0,0,0-1.41,0Z"/><path class="cls-4" d="M27,239.81H428.85a.71.71,0,0,0,0-1.41H27a.71.71,0,0,0,0,1.41Z"/><path class="cls-4" d="M430.12,238.49V228a.71.71,0,0,0-1.41,0v10.5a.7.7,0,1,0,1.41,0Z"/><path class="cls-4" d="M25.86,239.81a.71.71,0,0,0,0-1.41.71.71,0,0,0,0,1.41Z"/><path class="cls-4" d="M26.43,229.3H428.24a.7.7,0,0,0,0-1.4H26.43a.7.7,0,0,0,0,1.4Z"/><path class="cls-4" d="M62.58,189.08h323a.71.71,0,0,0,0-1.41h-323a.71.71,0,0,0,0,1.41Z"/><path class="cls-4" d="M384.92,189.12l42.66,39.57c.66.61,1.65-.37,1-1L385.9,188.14c-.65-.61-1.64.37-1,1Z"/><path class="cls-4" d="M46.17,239.1V410a.7.7,0,0,0,1.4,0V239.1a.7.7,0,0,0-1.4,0Z"/><path class="cls-4" d="M58.4,239.67V409.39a.71.71,0,0,0,1.41,0V239.67a.71.71,0,0,0-1.41,0Z"/><path class="cls-4" d="M46.87,411.36c3.7-.23,7.36-.47,11.06-.65.9,0,.9-1.46,0-1.41-3.7.23-7.36.47-11.06.66-.89.09-.94,1.5,0,1.4Z"/><path class="cls-4" d="M401.89,239.1V410a.71.71,0,0,0,1.41,0V239.1a.71.71,0,0,0-1.41,0Z"/><path class="cls-4" d="M414.13,239.67V409.39a.7.7,0,0,0,1.4,0V239.67a.7.7,0,0,0-1.4,0Z"/><path class="cls-4" d="M403.16,410.42c3.7-.23,7.36-.46,11.06-.65.89,0,.89-1.46,0-1.41-3.7.24-7.36.47-11.06.66-.89,0-.89,1.45,0,1.4Z"/><path class="cls-4" d="M92.4,239.76V350.18a.7.7,0,0,0,1.4,0V239.76a.7.7,0,0,0-1.4,0Z"/><path class="cls-4" d="M106.42,240.42V350.18a.7.7,0,0,0,1.4,0V240.42a.7.7,0,0,0-1.4,0Z"/><path class="cls-4" d="M93.71,351.54h13.41a.71.71,0,0,0,0-1.41H93.71a.71.71,0,0,0,0,1.41Z"/><path class="cls-4" d="M355.33,239.15v111a.71.71,0,0,0,1.41,0v-111a.71.71,0,0,0-1.41,0Z"/><path class="cls-4" d="M368.7,240.42V350.18a.7.7,0,0,0,1.4,0V240.42a.7.7,0,0,0-1.4,0Z"/><path class="cls-4" d="M356.65,351.54H369.4a.71.71,0,0,0,0-1.41H356.65a.71.71,0,0,0,0,1.41Z"/></g><g id="mug"><path class="cls-3" d="M308.73,180.31a5.55,5.55,0,0,0-1.08,3.05,72.57,72.57,0,0,0-.66,13.17c.19,2.81.38,7,.52,12.33a12.71,12.71,0,0,0,5.16,3.38c3.51,1.17,6.84.37,13.31-1.27,2.63-.66,4.69-1.31,6.1-1.78a12,12,0,0,0,1.45-4.64c.19-2.3-.51-3.38.33-4.55s2.06-.94,2.62-2.2a2.18,2.18,0,0,0-.23-2.3c-.89-.61-2.48,1-3.28.33-.24-.19-.24-.38-.33-2.11-.14-2.35-.19-2.63.09-2.86s1-.28,2.54-.24c1.12,0,1.64,0,1.87.19.89.7.52,3-.33,4.64-1.08,2.06-2.72,2.72-2.53,3.14s2.3,0,4-1c1-.61,2.43-1.45,2.76-3.05.57-2.34-1.68-4.4-2-4.73-2.77-2.58-6.8-1.74-7.32-1.6.05-2.25.1-4.5.19-6.75a38,38,0,0,0-14.25-3.37C311,177.82,309.29,179.51,308.73,180.31Z"/><path class="cls-4" d="M306.67,182.42a182.54,182.54,0,0,0-.29,25.83c.05.89,1.46.89,1.41,0a184,184,0,0,1,.28-25.83c.1-.89-1.31-.89-1.4,0Z"/><path class="cls-4" d="M306.48,208.63c6.28,6.94,16.08,4.78,23.72,1.83.85-.33.47-1.69-.37-1.36-7.18,2.76-16.46,5.11-22.37-1.46-.61-.65-1.59.33-1,1Z"/><path class="cls-4" d="M308,182.37c1.82-3.33,8-3.66,11.39-3.56a25.13,25.13,0,0,1,11.44,3.09c.8.42,1.5-.8.7-1.22a26.34,26.34,0,0,0-13.69-3.28c-3.61.14-9.09.75-11.06,4.27-.43.79.79,1.5,1.22.7Z"/><path class="cls-4" d="M331,182v6.33a.72.72,0,0,0,.89.66c2.34-.52,6.05,0,7.41,2.3,2.67,4.4-2.53,5.34-5.21,7.12a2.86,2.86,0,0,0-1.36,2.91c0,3,0,6.56-3.14,8.11-.79.42-.09,1.59.71,1.22,2.76-1.36,3.65-4.22,3.79-7.13.05-1.31-.37-2.81.66-3.89a9.19,9.19,0,0,1,2.2-1.08,8.92,8.92,0,0,0,3.66-2.62c1.78-2.39.8-4.88-1.31-6.61a9.27,9.27,0,0,0-7.78-1.74,8.88,8.88,0,0,0,.89.66V182c-.05-.8-1.46-.8-1.41.09Z"/><path class="cls-4" d="M332.08,190.9a15.67,15.67,0,0,0,.28,5.16c.19.89,1.55.52,1.36-.37a15.15,15.15,0,0,1-.24-4.79c.1-.89-1.31-.89-1.4,0Z"/><path class="cls-4" d="M333.16,192.31a3,3,0,0,1,2.67-.75,1.74,1.74,0,0,1,1.17,2.25c-.61,1.27-2.67,1.27-3.89,1.27a.7.7,0,0,0,0,1.4c2.2.05,5.77-.61,5.39-3.61a3.35,3.35,0,0,0-2.3-2.67,4.41,4.41,0,0,0-4.08,1.13c-.65.56.33,1.54,1,1Z"/><path class="cls-4" d="M312.06,180.17c-.94.75-2.49.37-2.63,2a2.35,2.35,0,0,0,2,2.39c2.44.51,5.44-.1,8-.05,3,.05,6.05.28,9.05.61.37,0,.7-.38.7-.7a2.07,2.07,0,0,0-.42-1.55c-.47-.75-1.69-.05-1.22.7.09.28.14.57.23.85l.71-.71a93.61,93.61,0,0,0-10.83-.61c-.89,0-1.83,0-2.72.05-.66,0-2,.38-2.58.09-.28-.42-.61-.84-.89-1.26a5.5,5.5,0,0,0,.75-.19c.23-.19.65-.37.89-.56.7-.61-.33-1.6-1-1Z"/><path class="cls-5" d="M320.45,178.24c-.19-.65-4.17-.37-7.78.75a28.11,28.11,0,0,0-4.83,2c-.38,5.16-.61,10.5-.75,16.13q-.15,6,0,11.67a17.48,17.48,0,0,0,9.09,3.52,17.07,17.07,0,0,0,7-.94Q322,197.68,320.83,184c-3.76,0-6.71-.37-6.85-1.31C313.7,181.2,320.73,179.14,320.45,178.24Z"/><path class="cls-6" d="M308,184c2,6.24,4,12.57,6.09,18.9,1,3.19,2.11,6.33,3.14,9.47a15.66,15.66,0,0,1-10-4.08,115.19,115.19,0,0,1-.19-13.69C307.28,190.76,307.6,187.2,308,184Z"/></g><g id="compuers"><path class="cls-3" d="M322.79,102.8c-.42,2.16-.93,5.35-1.5,9.24a204.63,204.63,0,0,0-1.64,30.48c.05,5.67.28,13,1,21.71,2.25.79,5.91,2,10.55,3.14,8,2,12.7,2.15,26,3.94,8.2,1.12,6.28,1,13.5,2,10.65,1.41,17.35,2.3,25.84,2.49a147.09,147.09,0,0,0,16-.52,169.65,169.65,0,0,0,3.29-19.08,180.07,180.07,0,0,0,1-22,201.49,201.49,0,0,0-2.3-27.66c-1.78-.42-4.26-1-7.22-1.64a228.07,228.07,0,0,0-32.58-4.27,246,246,0,0,0-35.87.33C332.27,101.4,326.83,102.15,322.79,102.8Z"/><path class="cls-3" d="M15.83,138.49q12.17,31,24.29,62,35.58-21.6,71.17-43.23Q101,132.11,90.8,106.88q-18.08,6.12-38,14.44C39.46,127,27.18,132.72,15.83,138.49Z"/><path class="cls-3" d="M39.7,201.36a315.7,315.7,0,0,0,29.49,15.85c6.75,3.23,13.36,6,19.64,8.58,10.83-7.32,21.66-14.63,32.45-22q16-11,31.88-22-20.25-12-40.56-24Q76.1,179.58,39.7,201.36Z"/><path class="cls-4" d="M52.92,202.39C73.41,190,94.22,178,113.73,164c.75-.52,0-1.74-.7-1.22-19.51,13.92-40.33,26-60.82,38.35-.75.47,0,1.69.71,1.22Z"/><path class="cls-4" d="M60.7,207.22c20.49-12.38,41.31-24.43,60.81-38.35.75-.52,0-1.74-.7-1.22C101.3,181.57,80.49,193.62,60,206c-.75.47,0,1.69.7,1.22Z"/><path class="cls-4" d="M70.22,211.77c20.49-12.38,41.31-24.43,60.81-38.35.75-.52.05-1.74-.7-1.22-19.51,13.92-40.33,26-60.81,38.35a.7.7,0,0,0,.7,1.22Z"/><path class="cls-4" d="M78,216.6c20.49-12.38,41.31-24.43,60.81-38.36.75-.51.05-1.73-.7-1.21C118.61,191,97.79,203,77.3,215.38a.7.7,0,0,0,.7,1.22Z"/><path class="cls-4" d="M59.29,198c5.16,3.29,10.37,6.52,15.52,9.8.75.47,1.46-.75.71-1.22-5.16-3.28-10.36-6.51-15.52-9.8-.75-.46-1.46.75-.71,1.22Z"/><path class="cls-4" d="M67.36,193.3c4.83,3.42,9.66,6.79,14.49,10.22.75.51,1.45-.71.7-1.22-4.83-3.43-9.66-6.8-14.49-10.22-.7-.52-1.4.7-.7,1.22Z"/><path class="cls-4" d="M75.1,188.56c4.64,3.38,9.23,6.84,13.69,10.5.7.56,1.68-.42,1-1-4.55-3.71-9.24-7.27-14-10.69-.75-.61-1.46.61-.7,1.17Z"/><path class="cls-4" d="M83.16,184a141,141,0,0,1,13,10.51c.65.61,1.64-.38,1-1a145.35,145.35,0,0,0-13.27-10.73c-.75-.52-1.45.7-.7,1.21Z"/><path class="cls-4" d="M90.57,179.93a121.61,121.61,0,0,1,11.86,11.16c.61.66,1.59-.33,1-1A125.06,125.06,0,0,0,91.55,179c-.65-.56-1.69.42-1,1Z"/><path class="cls-4" d="M96.43,175.34A95.08,95.08,0,0,1,109,187.29c.61.71,1.59-.32,1-1a95.24,95.24,0,0,0-12.62-12c-.65-.56-1.68.43-1,1Z"/><path class="cls-4" d="M103.74,170.32c4.5,3.61,8.91,7.36,13.08,11.3.66.61,1.64-.37,1-1-4.22-3.94-8.58-7.74-13.08-11.3-.71-.57-1.69.42-1,1Z"/><path class="cls-4" d="M109.93,166.85c2.49,1.41,4.46,3.66,6.52,5.63s4,3.84,6,5.76c.66.61,1.64-.37,1-1-2.2-2.11-4.4-4.27-6.61-6.38a32.74,32.74,0,0,0-6.14-5.25c-.84-.42-1.55.8-.75,1.22Z"/><path class="cls-4" d="M52,202.48a148.54,148.54,0,0,0,17.11,9.57c.8.37,1.55-.84.71-1.22a162.06,162.06,0,0,1-17.12-9.56c-.75-.47-1.45.75-.7,1.21Z"/><path class="cls-4" d="M113.64,164.41l.56.14a.64.64,0,0,0,.84-.46.67.67,0,0,0-.47-.85l-.56-.14a.68.68,0,0,0-.37,1.31Z"/><path class="cls-4" d="M113.49,164.32c5.91,2.63,11,6.66,16.74,9.61.8.42,1.5-.8.71-1.22-5.72-3-10.83-7-16.74-9.61-.8-.37-1.55.84-.71,1.22Z"/><path class="cls-4" d="M68.48,212a72.69,72.69,0,0,1,8.4,4.93c.75.51,1.45-.71.7-1.22a77,77,0,0,0-8.39-4.93c-.8-.42-1.5.8-.71,1.22Z"/><path class="cls-4" d="M75.24,208.06a64.78,64.78,0,0,1,6.18,5.21c.66.61,1.65-.38,1-1a59.21,59.21,0,0,0-6.47-5.43c-.7-.57-1.41.65-.7,1.21Z"/><path class="cls-4" d="M82,203.8a47.31,47.31,0,0,1,6.47,5.76c.61.66,1.59-.32,1-1a48.11,48.11,0,0,0-6.75-6c-.7-.52-1.41.7-.7,1.22Z"/><path class="cls-4" d="M89.07,199.3c2,1.87,3.84,3.84,5.67,5.81.61.66,1.59-.33,1-1-1.83-2-3.71-3.94-5.68-5.82a.7.7,0,0,0-1,1Z"/><path class="cls-4" d="M108.62,186.92c1.87,2.2,3.75,4.45,5.67,6.66.56.7,1.6-.33,1-1-1.88-2.2-3.75-4.45-5.68-6.66-.61-.7-1.59.33-1,1Z"/><path class="cls-4" d="M116.92,182c1.87,2,3.65,4,5.44,6.09.61.71,1.59-.32,1-1-1.78-2.06-3.56-4.13-5.44-6.1-.61-.65-1.59.33-1,1Z"/><path class="cls-4" d="M122.4,178.29c3,1.41,6,2.77,9,4.17.8.38,1.55-.84.7-1.21l-9-4.18c-.8-.37-1.55.85-.71,1.22Z"/><path class="cls-4" d="M130.09,173.56c2.63,1.64,5.3,3.18,8,4.59.8.42,1.5-.8.7-1.22-2.72-1.4-5.39-3-8-4.59-.75-.52-1.46.7-.71,1.22Z"/><path class="cls-3" d="M172.15,78.1c-.56,5.2-1,10.55-1.31,16.12a267.21,267.21,0,0,0,3.93,61.1c9.9,0,17.87-.19,22.89-.33,34.41-.84,49.32-2.86,80-3,7.79,0,14,.09,17.63.18,1.22-4.87,2.3-10,3.14-15.47a173.32,173.32,0,0,0-2.29-63.53,203.44,203.44,0,0,0-27.34-3.28c-7.55-.38-9.66-.1-40,1.31-21.57,1-27.34,1.17-37.37,2.81A166.64,166.64,0,0,0,172.15,78.1Z"/><path class="cls-4" d="M357,171.59a151.77,151.77,0,0,1-.33,19.08c0,.89,1.36.89,1.41,0a151.94,151.94,0,0,0,.33-19.08c-.05-.94-1.46-.94-1.41,0Z"/><path class="cls-4" d="M365.27,173v17.72a.71.71,0,0,0,1.41,0V173a.71.71,0,1,0-1.41,0Z"/><path class="cls-4" d="M356.88,190c-1.5-.09-7.27.94-6.09,3.61.51,1.22,2.57,1.32,3.61,1.5a46,46,0,0,0,7.22.47,65.35,65.35,0,0,0,7-.33c1.08-.14,3.28-.37,3.94-1.45,1.45-2.48-5-3.66-6.24-3.84-.89-.14-1.26,1.22-.37,1.36a17,17,0,0,1,3.05.75c1.36.46,2.67.75,1,1.54-1.87.85-4.92.52-6.94.57a52.42,52.42,0,0,1-7.08-.24c-.89-.09-4.45,0-2.72-1.73.85-.85,2.63-.85,3.71-.8.89.05.89-1.36-.05-1.41Z"/><path class="cls-4" d="M320.83,165.26a181.75,181.75,0,0,0,36.05,6.89c.89.09.89-1.31,0-1.41a177.45,177.45,0,0,1-35.68-6.8c-.84-.28-1.22,1.08-.37,1.32Z"/><path class="cls-4" d="M365.41,173.09a173.33,173.33,0,0,0,47.41,2.2c.89-.09.89-1.5,0-1.41a172.06,172.06,0,0,1-47-2.15c-.89-.14-1.27,1.22-.38,1.36Z"/><path class="cls-4" d="M321.29,164.13c-1.12-20.35-2.15-40.93,2.35-61,.19-.89-1.17-1.26-1.36-.37-4.5,20.16-3.47,40.88-2.39,61.37,0,.89,1.45.89,1.4,0Z"/><path class="cls-4" d="M323,103.6c15-3.19,30.9-2.76,46.18-2.48,15.05.28,30.2,1.64,44.64,6.14.84.28,1.22-1.08.37-1.36-14.58-4.55-29.82-5.91-45-6.19-15.38-.28-31.41-.7-46.56,2.53a.71.71,0,0,0,.38,1.36Z"/><path class="cls-4" d="M413.89,106.93a193.57,193.57,0,0,1-1.73,67.38c-.19.89,1.17,1.26,1.36.37a195.44,195.44,0,0,0,1.73-68.12c-.14-.9-1.5-.52-1.36.37Z"/><path class="cls-4" d="M15.13,139.33q12.24,31.5,24.47,63c.33.84,1.69.47,1.36-.38q-12.24-31.5-24.47-63c-.33-.84-1.69-.46-1.36.38Z"/><path class="cls-4" d="M39.32,202.77q23.91,13,48.86,23.95c.84.38,1.54-.84.7-1.21q-24.9-11-48.86-24a.7.7,0,0,0-.7,1.22Z"/><path class="cls-4" d="M89.11,226.82l64.19-44.21c.75-.52,0-1.74-.7-1.22L88.41,225.6c-.75.52,0,1.73.7,1.22Z"/><path class="cls-4" d="M15.74,139.19A650.41,650.41,0,0,1,91,107.45c.84-.28.47-1.64-.38-1.36A660.62,660.62,0,0,0,15,138c-.84.42-.14,1.59.71,1.22Z"/><path class="cls-4" d="M40.54,201.78Q76.06,180,111.62,158.32c.75-.47,0-1.69-.7-1.22Q75.4,178.84,39.84,200.56c-.75.47-.05,1.69.7,1.22Z"/><path class="cls-4" d="M90.05,107.26q10.33,25,20.63,49.89c.33.84,1.69.46,1.36-.38q-10.33-25-20.63-49.89c-.33-.84-1.69-.46-1.36.38Z"/><path class="cls-4" d="M111.67,158q20.67,11.82,41.3,23.68a.71.71,0,0,0,.71-1.22Q133,168.63,112.37,156.77c-.8-.42-1.5.8-.7,1.22Z"/><path class="cls-4" d="M170.84,78.42c-1.93,25.56.51,51.16,3,76.57.09.89,1.5.89,1.4,0-2.48-25.46-4.92-51-3-76.57.1-.89-1.31-.89-1.4,0Z"/><path class="cls-4" d="M172,79c14.91-5.44,31-5.81,46.65-6.75,16.27-1,32.59-2.25,48.86-1.78A167,167,0,0,1,296,73.59c.89.19,1.26-1.17.37-1.35-16.22-3.33-32.77-3.62-49.23-3s-33.34,1.45-49.84,3a104.65,104.65,0,0,0-25.69,5.3c-.85.37-.47,1.73.37,1.4Z"/><path class="cls-4" d="M296,73a202.58,202.58,0,0,1-1,78.62,6,6,0,0,0,.66-.51q-47,1.54-93.91,3.05l-26.63.84c-.89,0-.89,1.45,0,1.41q47-1.56,93.91-3.05l26.63-.85a.65.65,0,0,0,.66-.51,205.67,205.67,0,0,0,1-79.38c-.14-.89-1.5-.52-1.31.38Z"/><path d="M357.82,171.4c0,2.62-.05,5.3-.1,8-.09,3.75-.18,7.5-.32,11.16A6.29,6.29,0,0,0,354,191c-.14.05-2.77,1.17-2.67,2.16.23,1.69,8.63,1.92,13.22,1.73,2.63-.09,7.45-.28,7.6-1.31.09-.8-2.35-1.83-5.82-2.86-.14-6.19-.28-12.43-.42-18.61C363.21,171.82,360.49,171.59,357.82,171.4Z"/><path class="cls-7" d="M327.15,108.29a280.66,280.66,0,0,0-1.64,46.46c.05.9,1.46.9,1.41,0a290.8,290.8,0,0,1,1.64-46.46c.1-.89-1.31-.89-1.41,0Z"/><path class="cls-7" d="M328.28,108.85c6.47-2.39,13.32-3,20.16-3.09s13.5.19,20.21.61A302.25,302.25,0,0,1,410.19,112c.89.19,1.27-1.17.38-1.36A300.35,300.35,0,0,0,368.65,105c-7-.47-14.07-.7-21-.61-6.66.1-13.37.8-19.65,3.14-.89.28-.51,1.64.33,1.36Z"/><path class="cls-7" d="M410.1,111.43c.7,18.29-1,36.57-2.82,54.76-.09.9,1.32.9,1.41,0,1.83-18.19,3.47-36.47,2.81-54.76,0-.89-1.45-.89-1.4,0Z"/><path class="cls-7" d="M325.75,155.79c5.53,3.28,12.56,4.31,18.75,5.67q10.77,2.39,21.76,3.94,10.33,1.47,20.82,2.15c6.84.47,14.11,1.22,20.86-.14.89-.18.52-1.54-.38-1.36-6.75,1.41-14.11.52-20.95.1-7-.47-14-1.22-20.87-2.21-6.7-1-13.36-2.15-20-3.61-6.33-1.4-13.65-2.43-19.32-5.72a.69.69,0,1,0-.7,1.18Z"/><path class="cls-7" d="M327.44,115.18c27.8-1.69,55.6,1.41,83.08,5.25.89.14,1.26-1.21.37-1.36-27.61-3.89-55.51-7-83.45-5.29-.89,0-.89,1.45,0,1.4Z"/><path class="cls-7" d="M337,110.54a.31.31,0,0,1,0-.61c.43-.19.75.28.71.66-.05.61-.75.19-.66-.14l.14-.14c-.05,0-.09,0-.09,0s.33-.33.33,0a.71.71,0,0,0-1.41,0,1.22,1.22,0,0,0,1.27,1.22,1.18,1.18,0,0,0,1.17-1.41,1.38,1.38,0,0,0-1.55-1.17,1.62,1.62,0,0,0-1.31,1.69c.14,1.73,2.67,2.34,3.33.61a2,2,0,0,0-2.21-2.72,1.69,1.69,0,0,0-1.4,1.59,1.8,1.8,0,0,0,1.26,1.78.69.69,0,0,0,.42-1.31Z"/><path class="cls-7" d="M344.46,109.65c-.24-.05,0-.23.14-.23a.19.19,0,1,1,0,.37h-.05a.21.21,0,0,1-.05-.14v-.14s0,0,0,0,.09,0,0,0c.33-.14,0,.09.05,0v-.1h0a.66.66,0,0,0-.84.47.71.71,0,0,0,.46.85,1.35,1.35,0,0,0,1.6-.71,1.25,1.25,0,0,0-.38-1.64,1.46,1.46,0,0,0-2.34,1.27,1.53,1.53,0,0,0,2.67.89,1.62,1.62,0,0,0-1.22-2.67,1.6,1.6,0,0,0-1.59,1.26,1.48,1.48,0,0,0,1.08,1.74.68.68,0,1,0,.47-1.27Z"/><path class="cls-7" d="M358.47,128.12c-6.33,2.63-12.56,5.4-18.75,8.26-.61.28-.33,1.12.19,1.26a95.41,95.41,0,0,1,15.24,7,.7.7,0,0,0,.7-1.22,95.14,95.14,0,0,0-15.57-7.13c.05.42.1.85.19,1.27,6.1-2.82,12.24-5.54,18.43-8.11.79-.33.42-1.69-.43-1.32Z"/><path class="cls-7" d="M376.15,126c-5.3,6.71-10.55,13.37-15.85,20.07-.56.7.43,1.69,1,1,5.3-6.71,10.55-13.37,15.85-20.07.56-.66-.43-1.69-1-1Z"/><path class="cls-7" d="M383.23,133.8A111.88,111.88,0,0,0,397,141.25V140c-5.07,2.86-10.13,5.72-15.19,8.54-.8.42-.1,1.64.7,1.21,5.06-2.86,10.13-5.72,15.19-8.53a.72.72,0,0,0,0-1.22,111.27,111.27,0,0,1-13.74-7.45c-.75-.52-1.45.7-.7,1.22Z"/><path class="cls-7" d="M384.12,163.8c5.82.14,11.58.29,17.4.38a.71.71,0,0,0,0-1.41c-5.82-.14-11.58-.28-17.4-.37a.7.7,0,0,0,0,1.4Z"/><path class="cls-7" d="M19.72,140.6q10.83,25.8,20.35,52.13c.33.85,1.69.47,1.36-.37Q31.86,166,21.08,140.22c-.37-.84-1.73-.47-1.36.38Z"/><path class="cls-7" d="M20.57,140.22c22.31-9.14,44.63-18.33,66.81-27.8.84-.38.09-1.55-.7-1.22-22.09,9.42-44.26,18.56-66.49,27.66-.84.38-.47,1.74.38,1.36Z"/><path class="cls-7" d="M87.24,112q9.84,21,18.33,42.57c.33.85,1.69.47,1.36-.37q-8.58-21.74-18.47-42.95c-.38-.75-1.6-.05-1.22.75Z"/><path class="cls-7" d="M41.76,193.72q16.45-9.22,32.54-18.9,8-4.78,15.85-9.7A134.49,134.49,0,0,1,106,156.07c.84-.38.09-1.6-.7-1.22a135.42,135.42,0,0,0-15.9,9.05c-5.25,3.28-10.55,6.51-15.85,9.7C62.86,180.07,52,186.36,41.06,192.5a.7.7,0,0,0,.7,1.22Z"/><path class="cls-2" d="M71.84,136.83c-3.09-1.88-6.18,1.36-8,3.66a9.18,9.18,0,0,0-1.4,9.37c1.17,2.86,3.79,5.72,7.12,5.54,3.94-.24,6.29-3.71,8.07-6.8a.71.71,0,0,0-1.22-.71c-1.27,2.21-2.67,4.65-5.16,5.63-3,1.22-5.58-.56-7-3.14a8.14,8.14,0,0,1-.75-6.61c.75-2.11,4.78-7.41,7.59-5.72.8.47,1.55-.75.75-1.22Z"/><path class="cls-7" d="M82.93,164.13c3.51-2.25,7.07-4.55,10.59-6.8.75-.47,0-1.68-.7-1.22l-10.6,6.8c-.75.52,0,1.74.71,1.22Z"/><path class="cls-7" d="M96.52,155.79c.89-.43,1.78-.85,2.72-1.27s.1-1.59-.7-1.22-1.78.85-2.72,1.27-.09,1.59.7,1.22Z"/><path class="cls-7" d="M74.91,120.62h0c0-.09,0-.19.09-.33s0,0,0-.09a1.93,1.93,0,0,1,.33-.19c-.14,0,.28,0,.32,0s.15.14.19.23,0-.09,0,0,0-.09,0,0h0l0,0a.17.17,0,0,0-.1,0c-.09,0,0,0,0,0h0s0,0,0,0,0,0,0,0h0s0-.14,0-.14a.42.42,0,0,0,0,.14c0-.14,0,0,0,0l0,0s.09,0,.09,0,.1,0,.1,0,0,0,0,0,0,.14,0,0v.18a.28.28,0,0,1-.28.19h0c.1,0,0,0,0,0s0,0,0,0a.43.43,0,0,1,0-.24c0-.14,0-.19.14-.28l0,0s0,0,.09,0h.1c-.1,0,0,0,.09,0a.47.47,0,0,1,.19.33.71.71,0,0,0-1.41,0,1.09,1.09,0,0,0,2.16,0,1.15,1.15,0,0,0-2.25-.28,1.28,1.28,0,0,0,.89,1.45,1.24,1.24,0,0,0,1.41-.66A1.36,1.36,0,0,0,75,119.22a1.26,1.26,0,0,0-.42,1.68,1.12,1.12,0,0,0,.84.52.88.88,0,0,0,.85-.85.72.72,0,0,0-.71-.7.86.86,0,0,0-.65.75Z"/><path class="cls-7" d="M81.28,117.81c.38-.1.52.51.14.56,0,0-.18-.05-.14-.05h0c-.09-.09,0,0,0,.05s0-.05,0-.09h0v0a.33.33,0,0,1,.09-.19s.14,0,.19-.09h0s0,0,.09,0h0l0,0h0s0,.24,0,.14l-.47.47a1,1,0,0,1,.33-.09h0s-.1,0-.15-.14,0-.19,0-.14,0-.14,0,0a.44.44,0,0,1,.42-.33.71.71,0,0,0,0,1.41,1.08,1.08,0,0,0,.42-2,1.67,1.67,0,0,0-1.4,0,1,1,0,0,0-.38,1.41,1.18,1.18,0,0,0,2.16-.09A1.31,1.31,0,0,0,81.19,117a1.17,1.17,0,0,0-.89,1.36,1.09,1.09,0,0,0,1.36.8.65.65,0,0,0,.47-.84.71.71,0,0,0-.85-.47Z"/><path class="cls-7" d="M175,80.91q.56,35.24,3.75,70.33c.09.89,1.5.89,1.41,0q-3.16-35.1-3.75-70.33a.7.7,0,0,0-1.41,0Z"/><path class="cls-7" d="M176.65,81.66c9.61-1.69,19.36-2,29.07-2.44,9.42-.37,18.89-.75,28.32-1.08,19-.7,38.07-1.26,57.11-1.78a.71.71,0,0,0,0-1.41c-19.37.52-38.68,1.08-58,1.79-9.61.32-19.18.7-28.79,1.12-9.37.38-18.75.8-28,2.44-.85.14-.47,1.5.37,1.36Z"/><path class="cls-7" d="M290.91,76c2.63,5,2.49,10.83,2.63,16.32q.21,8.58.14,17.16c-.1,11.44-.52,22.83-1.31,34.27-.05.89,1.35.89,1.4,0,.8-12,1.27-24,1.31-36.1.05-5.86,0-11.72-.18-17.63-.14-5.06-.33-10.13-2.77-14.72-.42-.8-1.64-.09-1.22.7Z"/><path class="cls-7" d="M179.79,151.43c37-6.85,74.93-6,112.29-6.57a.7.7,0,0,0,0-1.4c-37.55.6-75.62-.24-112.66,6.61-.89.18-.52,1.54.37,1.36Z"/><path class="cls-7" d="M189.12,84.89a46.9,46.9,0,0,0-5.34,4.22.74.74,0,0,0,.14,1.13c1.69,1,4.17.8,5.48,2.34.57.71,1.55-.28,1-1-1.46-1.78-3.94-1.45-5.77-2.58l.14,1.13a45.39,45.39,0,0,1,5.07-4c.75-.56,0-1.78-.71-1.27Z"/><path class="cls-7" d="M196.86,84.19a55.57,55.57,0,0,0-4.88,9c-.37.84.85,1.54,1.22.7a53.21,53.21,0,0,1,4.88-9c.47-.75-.75-1.45-1.22-.7Z"/><path class="cls-7" d="M199.62,89.68a30.26,30.26,0,0,1,6.52-.14c.89.09.89-1.32,0-1.41a30.2,30.2,0,0,0-6.52.14c-.89.09-.93,1.5,0,1.41Z"/><path class="cls-7" d="M207.74,84.61c1.68,2.35,4.78,2.53,6.7,4.55l.14-1.12A29.21,29.21,0,0,0,209,92.16c-.65.61.33,1.6,1,1a29,29,0,0,1,5.34-3.9.7.7,0,0,0,.15-1.12c-1.83-1.88-5-2.11-6.52-4.27-.52-.65-1.74,0-1.17.75Z"/><path class="cls-7" d="M179.46,101.87l5.77-.42c.89,0,.89-1.46,0-1.41l-5.77.42c-.89.09-.89,1.5,0,1.41Z"/><path class="cls-7" d="M189.73,101.12c13-.75,26-1.55,39-2.3.89,0,.89-1.45,0-1.41-13,.75-26,1.55-39,2.3-.89.05-.94,1.45,0,1.41Z"/><path class="cls-7" d="M180.21,107.49h3.19a.7.7,0,0,0,0-1.4h-3.19a.7.7,0,0,0,0,1.4Z"/><path class="cls-7" d="M187.29,106.93a11.51,11.51,0,0,0,3.75-.37.7.7,0,0,0-.37-1.36,10.35,10.35,0,0,1-3.38.28c-.89,0-.89,1.4,0,1.45Z"/><path class="cls-7" d="M198.83,106A272.14,272.14,0,0,1,236,105c.89.05.89-1.36,0-1.4a272.52,272.52,0,0,0-37.13,1c-.89,0-.89,1.45,0,1.41Z"/><path class="cls-7" d="M182,114.53a30.14,30.14,0,0,1-2.58,2.86.7.7,0,0,0,.33,1.17,18.14,18.14,0,0,0,4.45.66.71.71,0,0,0,0-1.41,13.54,13.54,0,0,1-4.08-.61c.1.37.19.8.33,1.17a25,25,0,0,0,2.58-2.86c.52-.7-.52-1.73-1-1Z"/><path class="cls-7" d="M186.73,117.29a95.88,95.88,0,0,1,19.36-1.69.7.7,0,0,0,0-1.4,93.2,93.2,0,0,0-19.73,1.73c-.85.19-.47,1.5.37,1.36Z"/><path class="cls-7" d="M208,113.78c2.29,1.17,5.06.37,7.26,1.64.05-.42.1-.85.19-1.27a13.07,13.07,0,0,0-3.61,1.83c-.75.52-.05,1.73.71,1.22a13.57,13.57,0,0,1,3.28-1.69.7.7,0,0,0,.18-1.26c-2.25-1.36-5-.47-7.26-1.65-.85-.46-1.55.75-.75,1.18Z"/><path class="cls-7" d="M270.09,80.86A2.45,2.45,0,0,0,268,82.93a5.81,5.81,0,0,0,.24,2.2c.46,2.06.18,3.09-1.69,4.22a.71.71,0,0,0,.37,1.31c2,0,1.27,9,5.44,6,.75-.51.05-1.73-.7-1.22-1.92,1.36-1.78-3.09-1.88-3.56a4.34,4.34,0,0,0-.47-1.41A2.45,2.45,0,0,0,267,89.25c.14.43.24.9.38,1.32A5.4,5.4,0,0,0,270,87.9c.38-1.13-1.22-5.35.57-5.68.84-.14.47-1.5-.43-1.36Z"/><path class="cls-7" d="M279.24,81.42c1.59-.23,2.2.71,1.92,2.91-.14.28-.28.52-.42.8a5.65,5.65,0,0,0-.28,1.31c0,1,.65,1.17,1,1.92s-.05.61-.14,1.5c-.28,1.88,2.3,3.43-.14,5.11-.75.52-.05,1.74.7,1.22a3.68,3.68,0,0,0,1.78-3,5.14,5.14,0,0,0-.37-1.46,5.61,5.61,0,0,1,.23-3.14.79.79,0,0,0-.18-.7,7.49,7.49,0,0,1-.66-.52c-1.13-1.12-.38-1.69.14-3a3.13,3.13,0,0,0,.28-2.16c-.42-1.69-2.2-2.25-3.75-2.2a.7.7,0,0,0-.09,1.4Z"/><path class="cls-7" d="M227.94,88.93c7.41-.61,14.77-1.18,22.18-1.79.89-.09.89-1.5,0-1.4-7.41.61-14.77,1.17-22.18,1.78-.89,0-.89,1.45,0,1.41Z"/><path class="cls-7" d="M259.83,86.68a16.48,16.48,0,0,0,5-.1c.89-.14.52-1.5-.37-1.36a16.78,16.78,0,0,1-4.64,0c-.89-.14-.89,1.27,0,1.41Z"/><path class="cls-7" d="M184.67,127.05c12.42-.8,24.85-1.65,37.27-2.44.89,0,.89-1.46,0-1.41-12.42.8-24.85,1.64-37.27,2.44-.89,0-.89,1.45,0,1.41Z"/><path class="cls-7" d="M230,123.62c4.73-.47,9.42-.89,14.16-1.31.89-.09.89-1.5,0-1.41-4.74.38-9.47.85-14.16,1.32-.89.09-.89,1.5,0,1.4Z"/><path class="cls-7" d="M254.81,121.79c9.24-.93,18.52-1.64,27.76-2.06.89,0,.89-1.45,0-1.41-9.29.47-18.52,1.13-27.76,2.07-.89.09-.89,1.5,0,1.4Z"/><path class="cls-7" d="M190.2,131.69l-5.25,3.7a.69.69,0,0,0,.19,1.27,54.14,54.14,0,0,0,5.53,1.12c.89.14,1.27-1.22.37-1.36a54.69,54.69,0,0,1-5.53-1.12c.05.42.1.84.19,1.26l5.25-3.7c.7-.52,0-1.74-.75-1.17Z"/><path class="cls-7" d="M197.37,130.89a66.77,66.77,0,0,0-5.58,7.41c-.51.75.71,1.45,1.22.7a61.11,61.11,0,0,1,5.35-7.13c.61-.65-.38-1.68-1-1Z"/><path class="cls-7" d="M201.55,132.91a6.67,6.67,0,0,0,1.92.93c.42.14.84.24,1.27.38a3.33,3.33,0,0,1,.7.37c-.05-.32-.19-.42-.42-.28a7,7,0,0,0-2.35,1,16.58,16.58,0,0,0-2.48,1.54c-.71.52,0,1.74.7,1.22a15.57,15.57,0,0,1,3.38-2c.75-.32,2.34-.46,2.58-1.45.18-.84-.76-1.31-1.36-1.59a16.39,16.39,0,0,1-3.29-1.32c-.65-.56-1.36.66-.65,1.18Z"/><path class="cls-7" d="M217.16,134.87c5.77-.46,11.53-1.07,17.3-.75.89,0,.89-1.35,0-1.4-5.81-.33-11.53.28-17.3.75-.94.05-.94,1.45,0,1.4Z"/><path class="cls-7" d="M247,132.77a237,237,0,0,1,32.63-1.51.7.7,0,0,0,0-1.4,243.75,243.75,0,0,0-32.63,1.5c-.89.09-.89,1.5,0,1.41Z"/><path class="cls-8" d="M327.44,107.73c-.24,2.34-.47,4.73-.66,7.08,13.55-.42,28.41-.28,44.35.75,14.12.94,27.29,2.44,39.34,4.31.28-3,.52-5.91.8-8.86-5.44-1.08-12.61-2.34-21-3.52-10.83-1.5-19.09-2.15-23.59-2.48-11.39-.8-17.2-1.17-24.94-.24A100.23,100.23,0,0,0,327.44,107.73Z"/><path class="cls-9" d="M43.4,125.54a78.74,78.74,0,0,0-4.31,17.92c-1.08,9.33-3.85,33.14,8.62,40.41,8.54,5,22.13,1,33.62-8.34,2,1.59,4,3.14,6,4.73l-35,21.24c8.25,4.92,16.51,9.8,24.71,14.72l26.68-15.85c4.5,2.21,9,4.46,13.46,6.66-9.34,6.57-18.62,13.13-27.95,19.74L40.4,202.44Q28,170.3,15.69,138.11C25,134,34.21,129.76,43.4,125.54Z"/><path class="cls-10" d="M383.93,101.4a52.25,52.25,0,0,1,3.33,11.3c.33,2,2.91,17.58-4,31.32-7.36,14.72-24,24.19-42.76,25.27a271.11,271.11,0,0,0,49.79,6.05c7.88.23,15.38.09,22.41-.33A161.37,161.37,0,0,0,417,146.36a165.67,165.67,0,0,0-2.54-40.09C404.28,104.73,394.11,103,383.93,101.4Z"/><path class="cls-5" d="M267.66,70.08a40.55,40.55,0,0,1,4.54,13.5c2.11,14.16-4.22,25.46-8.58,33.06-13.12,22.74-35,33.66-44.77,37.83,20.35-.14,41.26-.75,62.64-2,4.78-.28,9.52-.57,14.25-.89a192.28,192.28,0,0,0,4.41-32,189.71,189.71,0,0,0-3.47-46.93Q282.19,71.32,267.66,70.08Z"/><path class="cls-2" d="M53.51,150.05l3-8.38H55.34l4.44,17a.6.6,0,0,0,1.16-.31l-4.44-17a.61.61,0,0,0-1.16,0l-3,8.38c-.26.73.9,1,1.15.32Z"/></g></g><g id="guy_chair" data-name="guy &amp; chair"><g id="leg_right" data-name="leg right"><path d="M254.53,368.46q.71,4.79,1.26,10c.43,4,.66,7.83.85,11.49a6.79,6.79,0,0,0,2.11,2.39c1.69,1.17,3.51,1.17,5.48,1.12,5.72-.14,8.58-.19,9.85-.42,4.45-.89,8.67-1.69,9.56-4.5a5.54,5.54,0,0,0-.7-4.08c-.7-1.17-1.64-1.69-3.23-2.53A13.77,13.77,0,0,0,269,380.51c-.61-5-1.22-9.94-1.83-14.86Z"/><path class="cls-3" d="M246,275.67c-3.8,4.13-2.62,8.54-4.17,35.12-.61,10.69-.85,10.18-1,16.6a224.6,224.6,0,0,0,.75,29.73c.33,3.7.75,6.79,1,8.95a23.84,23.84,0,0,0,13.31,2.67,26,26,0,0,0,7.93-2.25,35.33,35.33,0,0,0,9.28-5.81q-1.2-44.39-2.39-88.76C254.2,268.78,248.25,273.28,246,275.67Z"/><path class="cls-4" d="M242.81,279.57a532.55,532.55,0,0,0-1,85.66c.05.89,1.46.89,1.41,0a533.77,533.77,0,0,1,1-85.66c.1-.9-1.31-.9-1.4,0Z"/><path class="cls-4" d="M242.53,366.59c10.4,5.39,22.36,2.29,30.71-5.35.65-.61-.33-1.59-1-1-7.88,7.22-19.18,10.22-29,5.15a.69.69,0,1,0-.7,1.18Z"/><path class="cls-4" d="M269.67,273.14l2.25,86.93c.05.89,1.46.89,1.41,0l-2.25-86.93a.71.71,0,0,0-1.41,0Z"/><path class="cls-4" d="M253.92,369.07A118,118,0,0,1,256,386.23c.05.89,1.45.89,1.41,0a116.78,116.78,0,0,0-2.16-17.53c-.19-.9-1.55-.52-1.36.37Z"/><path class="cls-4" d="M266.48,365.55c.29,6.15.85,12.24,1.69,18.34.14.89,1.5.51,1.36-.38a179.92,179.92,0,0,1-1.64-18c-.05-.89-1.45-.89-1.41,0Z"/><path class="cls-4" d="M268.88,380.79a17.19,17.19,0,0,1,13.83,4.27c.65.61,1.68-.38,1-1a18.47,18.47,0,0,0-14.81-4.68c-.9.09-.9,1.5,0,1.4Z"/><path class="cls-4" d="M256,385.72c-.24,2.95-.1,6.51,3.05,7.87a13.3,13.3,0,0,0,4.08.66,54.36,54.36,0,0,0,6.75.19c5.39-.28,15.84-2.44,14.3-10-.19-.89-1.55-.52-1.36.37,1.36,6.66-9.33,8.12-13.79,8.26a46.53,46.53,0,0,1-7.17-.33c-4.22-.52-4.74-3.28-4.45-7a.71.71,0,0,0-1.41,0Z"/><path class="cls-6" d="M243.74,279.28c4.6-1.64,9.19-3.28,13.79-4.87-.8,15.24-1,31.88-.19,49.7.66,15.19,2,29.44,3.61,42.62a18.66,18.66,0,0,1-3.09,1.07A22.2,22.2,0,0,1,242.81,366a462,462,0,0,1-1.46-51.53C241.73,302,242.57,290.3,243.74,279.28Z"/><path class="cls-11" d="M243.37,280.22c.19,8.21.7,18.85,1.83,31.18.89,9.8,1.87,17.11,2.15,19.41,1.36,9.89,3.43,22.74,6.9,37.75-3.94-.9-7.88-1.83-11.77-2.72-.7-15-1-31-.7-47.73C242,304.93,242.53,292.27,243.37,280.22Z"/></g><g id="chair"><path d="M233.38,314.26c.28,1.45.66,3.56,1.13,6.19,2.76,16.69,2.72,28.69,3,38.82.23,8.63.8,21,2.39,36.29-1,.42-2.49,1.13-4.27,2.06-4.4,2.3-10.31,5.4-15.84,11.12a46.26,46.26,0,0,0-6.19,7.92,156.47,156.47,0,0,0,57.2-5.06c-2.53-2.16-5.35-4.32-8.39-6.52A131.47,131.47,0,0,0,246,395.23c-1.13-10.92-2-22.41-2.53-34.36-.8-18.48-.71-35.87,0-52C240,310.7,236.71,312.48,233.38,314.26Z"/><path class="cls-3" d="M198.69,291.47c0-2.15,2.48-4,7.45-7.59,2.35-1.74,8.82-6.1,19.65-8.58,9.51-2.16,16.83-1.55,25.69-.8,12.61,1.08,18.43,3.61,20,4.27a46.69,46.69,0,0,1,10.32,6.33,26.4,26.4,0,0,1-5.72,10.59c-2.3,2.63-8.58,8.63-26,10C225.93,307.65,198.64,299.3,198.69,291.47Z"/><path d="M200.09,288.76a24.27,24.27,0,0,0-1.59,4.45,28.73,28.73,0,0,0,.14,14.58,77.67,77.67,0,0,0,10.6,3.94c13.69,4.08,24.85,3.52,33.89,3,11.91-.66,19.6-1.22,28.51-5.86a50.19,50.19,0,0,0,10.93-7.78c-.14-5.11-.33-10.27-.47-15.38a72.48,72.48,0,0,1-13.32,7C239.71,304.32,210.92,293.54,200.09,288.76Z"/><path class="cls-4" d="M197.89,291.94a43.36,43.36,0,0,0,.05,15.94c.18.9,1.5.52,1.36-.37a41.26,41.26,0,0,1-.05-15.19c.19-.89-1.17-1.27-1.36-.38Z"/><path class="cls-4" d="M198.36,307.88c6.33,4.08,14,5.12,21.28,6.19a105.75,105.75,0,0,0,23.78,1.13c13.64-1.13,30.47-2.44,39.8-13.83.57-.71-.42-1.69-1-1-4.41,5.39-10.74,8.49-17.4,10.22a123.11,123.11,0,0,1-22.31,3.24,108.48,108.48,0,0,1-23.4-1.27c-6.89-1-14.11-2-20.07-5.9-.75-.47-1.45.75-.7,1.21Z"/><path class="cls-4" d="M281.25,285.94a56.93,56.93,0,0,1,.8,14.68c-.05.89,1.36.89,1.41,0a60.18,60.18,0,0,0-.85-15.05c-.14-.89-1.5-.52-1.36.37Z"/><path class="cls-4" d="M199.2,292.08c7.46-12.84,24.15-16.59,37.93-17.39a85.16,85.16,0,0,1,24.34,2.06,80,80,0,0,1,11.25,3.42c3.47,1.36,6.85,3.19,8.58,6.66.42.8,1.64.1,1.22-.7-3.33-6.56-12.47-8.67-19-10.32a87.63,87.63,0,0,0-26.35-2.48c-14.25.84-31.37,4.78-39.1,18.1-.57.7.65,1.4,1.12.65Z"/><path class="cls-4" d="M233.24,314.78q4.44,40,6,80.27c0,.89,1.45.89,1.4,0q-1.47-40.23-5.95-80.27c-.1-.89-1.5-.89-1.41,0Z"/><path class="cls-4" d="M242.15,314.78q.14,40.44,2.72,80.78c0,.89,1.45.89,1.41,0q-2.61-40.37-2.72-80.78c-.05-.89-1.46-.89-1.41,0Z"/><path class="cls-4" d="M239.1,394.62a67.92,67.92,0,0,0-26.35,21.62.72.72,0,0,0,.42,1c9.71,1.59,19.51.8,29.21-.28,9.48-1,19-2.06,28.18-4.78.47-.14.75-.85.33-1.18a119.26,119.26,0,0,0-24.8-16c-.8-.38-1.55.84-.7,1.22A116.9,116.9,0,0,1,269.91,412a9.65,9.65,0,0,1,.32-1.17c-9,2.72-18.47,3.7-27.8,4.73-9.56,1.08-19.27,1.88-28.83.33.14.33.28.7.42,1a66.22,66.22,0,0,1,25.83-21.1c.75-.37.05-1.59-.75-1.22Z"/></g><g id="leg_left" data-name="leg left"><path d="M191,270.42c1.08,4.27,2.21,8.54,3.29,12.8a93.63,93.63,0,0,0-14.49-3.42c-2.63-.38-13.74-2.06-14.49.28-.28.89,1,2.25,1.17,2.39,1.08,1.08,2.39,1.17,3.57,1.46,2.39.51,3.18,1.4,5.67,2.62a86.47,86.47,0,0,0,21,6.47,84,84,0,0,0,12,1.31c-1.92-8.39-3.89-16.78-5.81-25.17C199,269.53,195,270,191,270.42Z"/><path class="cls-3" d="M189.22,153c-2.11.85-3.76,2.53-6.38,7.65a64.78,64.78,0,0,0-5.53,14c-3.94,17.49-5.86,26.25-6.57,33-2.15,21.57,1.41,22.51,1.27,45.15a16.46,16.46,0,0,0,2.11,8.91c3.42,5.58,10,7.18,11.86,7.64,5.39,1.32,10.5.38,14.86-.42,1.22-.23,2.25-.47,3-.65a62.6,62.6,0,0,0,8.67,5.72c4.27,2.29,8,4.31,13.13,4.87a39.32,39.32,0,0,0,7.64,0A50.07,50.07,0,0,0,239,278a33,33,0,0,0,9.75,1.69c2.63,0,11.26.09,18.85-5.54,6.8-5,9.15-11.76,10.83-16.73,1.6-4.79,7.69-22.93-1.5-32.64-8-8.44-23.11-6-35.21-4a78,78,0,0,0-14,3.61c-5.58-14.44-9.71-25.83-12.52-33.71-2.67-7.46-6.56-14.49-8.91-22-2.11-6.75-3.23-12.14-8.06-14.86C197.89,153.58,193.48,151.24,189.22,153Z"/><path class="cls-4" d="M238,279.14c12.43,2.86,26.68,1,35.22-9.42,4.26-5.2,5.62-11.68,6.79-18.15,1.18-6.7,1.83-13.55-.32-20.11-.29-.84-1.65-.47-1.36.38,2.11,6.33,1.5,12.94.32,19.36-1.07,6.19-2.34,12.52-6.42,17.53-8.16,10-21.89,11.77-33.85,9a.71.71,0,0,0-.38,1.36Z"/><path class="cls-4" d="M210,177.54a46.94,46.94,0,0,0-5.44-18.28c-2.34-4.08-6.09-8-11.15-7.74-5.35.23-9.29,4.55-11.49,9-3,5.91-4.88,12.61-6.61,18.94a171.07,171.07,0,0,0-6,39.9,180.44,180.44,0,0,0,.56,21.43c.56,6.42,1,13.41,2.86,19.6,1.55,5.3,8.63,8.44,13.55,9.7a27,27,0,0,0,17.58-1.45c.85-.37.1-1.59-.7-1.22a25.52,25.52,0,0,1-15.85,1.5c-4.64-1-11.72-3.89-13.22-8.86a61.46,61.46,0,0,1-1.5-8.34c-.52-3.33-.89-6.66-1.22-10a171.3,171.3,0,0,1,7.55-69.2c1.78-5.44,3.47-11.86,7.55-16.08,2.29-2.35,5.58-4,8.9-3.38s5.63,3.09,7.32,5.72c3.56,5.44,5.3,12.33,6,18.75,0,.94,1.41,1,1.31,0Z"/><path class="cls-4" d="M185.56,191.51a132,132,0,0,0,5.25,51c2.44,7.88,5.3,16.6,10.27,23.3,4.41,6,11.3,9.89,18.28,12.1,8.07,2.58,16.93,2.72,24.57-1.17.8-.43.1-1.65-.7-1.22-7,3.56-15,3.56-22.37,1.4-7.54-2.2-15.09-6.51-19.5-13.17s-7-14.49-9.28-22a128.48,128.48,0,0,1-4.88-23.49,133.65,133.65,0,0,1-.23-26.68c.09-.94-1.32-.94-1.41-.05Z"/><path class="cls-4" d="M182.51,186.54a87.67,87.67,0,0,0,2.72,18.15.71.71,0,0,0,1.36-.38,81,81,0,0,1-2.67-17.77c0-.89-1.46-.89-1.41,0Z"/><path class="cls-4" d="M209.05,177.64c8.86,21.14,16.69,42.76,23.49,64.7.28.84,1.64.51,1.36-.38q-10.12-32.91-23.49-64.7c-.38-.8-1.74-.42-1.36.38Z"/><path class="cls-4" d="M190.2,271.08c1.22,4.22,2.44,8.44,3.66,12.71a.71.71,0,0,0,1.36-.38c-1.22-4.22-2.44-8.44-3.66-12.71-.28-.84-1.64-.46-1.36.38Z"/><path class="cls-4" d="M194.42,282.94a59.21,59.21,0,0,0-29.49-3.66c-.38.05-.89.43-.66.89,1.22,3,4.64,3.9,7.36,5.07,3.9,1.69,7.79,3.33,11.77,4.73,8,2.86,16.27,4.83,24.76,4.6a.71.71,0,0,0,0-1.41,63.58,63.58,0,0,1-21.94-3.7c-3.43-1.13-6.76-2.44-10.09-3.85-1.78-.75-3.61-1.5-5.39-2.29s-4.31-1.55-5.15-3.57a10.19,10.19,0,0,0-.66.89,58.38,58.38,0,0,1,29.12,3.61c.84.38,1.17-1,.37-1.31Z"/><path class="cls-4" d="M202,268.55c1,8.67,5.11,16.64,5.72,25.36,0,.89,1.45.89,1.4,0-.61-8.72-4.73-16.69-5.72-25.36-.09-.89-1.5-.89-1.4,0Z"/><path class="cls-11" d="M188.23,269c-1.59-4.08-3.8-10.18-5.91-17.68a174.24,174.24,0,0,1-5.39-51.76c.33-7.17,1.13-15.1,6.85-20.86,2.2-2.21,4.69-4.69,6.84-4.18,9,2.11-7.17,49.94,15.47,75.77,11.63,13.27,28.42,15,31.14,15.19,24.1,2.16,40.37-15.14,42.43-17.39a30,30,0,0,1-2,12.28,31.18,31.18,0,0,1-12.75,15.19c-11.68,7.13-23.92,3.8-26,3.19a42.43,42.43,0,0,1-13,0,44.29,44.29,0,0,1-22.78-11,18.49,18.49,0,0,1-7.83,2.21A17.91,17.91,0,0,1,188.23,269Z"/><path class="cls-12" d="M184.29,186.07c.61,0,.85,5.49,3.94,23.54,3.61,21.33,5.44,32,8.11,38,3.38,7.69,12.1,21.47,38.26,31.64A44.28,44.28,0,0,1,203.23,268l-8.81,2a210.24,210.24,0,0,1-5.91-21.33C181.2,215.75,182.93,186.17,184.29,186.07Z"/></g><g id="hand_left" data-name="hand left"><path class="cls-3" d="M122.36,167c-.24,1,1.22,2.3,2.39,2.86a4.79,4.79,0,0,0,4,0,14.93,14.93,0,0,1,8.3,1.87c1.22.71,2.34,2.21,4.5,5.21,4,5.44,4.5,7.27,7.13,9a12.21,12.21,0,0,0,4.73,1.88c1.13,1.26,2.86,3.23,5,5.67,7.55,8.81,8.07,10.41,11.63,13.5,3.84,3.38,8.49,7.5,14,6.89,2.91-.32,5.25-1.92,9-5.67,7.79-7.83,13.18-16.46,18-26.3,5.2-10.6,6.37-15.76,6.89-18.24.28-1.55,3.05-15.52-.94-17.3-1.54-.7-3.56.66-6.61,3.09a99.2,99.2,0,0,0-18,18.71,152.21,152.21,0,0,0-12.1,20.87l-20.11-10.41a9.33,9.33,0,0,1-.94-4c0-2.86,1.45-3.93,2.39-7.12s1.13-7.79-.47-8.54c-1.12-.51-3.28.75-4.27,2.4s-.42,3.18-1.4,3.79c-1.27.8-3.57-.79-3.8-.93-2.53-1.79-2.3-4-4.27-7.6a22.75,22.75,0,0,0-6.61-7.36c-2.34-1.78-5-3.8-7.59-3.1a4,4,0,0,0-2.77,2.16,3.25,3.25,0,0,0-.09,1.88,4.33,4.33,0,0,0-3.75-.47,4.1,4.1,0,0,0-2.63,3.09,3.87,3.87,0,0,0,.09,1.5,4.07,4.07,0,0,0-3.65.61,2.59,2.59,0,0,0-1,1.88c0,.79.56,1.45,1.54,2.25,2.11,1.73,3.71,2.15,5.68,3.23a19.43,19.43,0,0,1,3.79,2.77C127.8,165.07,122.73,165.3,122.36,167Z"/><path class="cls-4" d="M180.82,189.31c8.21-16,17.26-33.1,34.09-41.49.8-.43.09-1.6-.7-1.22-17,8.44-26.26,25.78-34.56,42-.47.84.75,1.55,1.17.75Z"/><path class="cls-4" d="M160.15,179.56c7.22,4.83,16.22,6.84,22.41,13.17a.69.69,0,1,0,1-1c-6.28-6.43-15.38-8.49-22.69-13.41-.75-.52-1.45.7-.7,1.22Z"/><path class="cls-4" d="M154.29,188.84a71.86,71.86,0,0,0,12.61,16c4.41,4.17,10.17,9.52,16.64,9.66,5.91.14,9.94-4.78,13.08-9.15,4.69-6.51,9-13.26,13-20.2s8.48-14.58,8.67-23a.7.7,0,0,0-1.4,0c-.19,9-5.35,17.07-9.85,24.57-4.31,7.27-8.77,15-14.35,21.33-2.58,3-5.91,5.4-10,5-4.55-.46-8.58-3.75-12-6.61a70.86,70.86,0,0,1-15.33-18.28c-.42-.8-1.64-.1-1.17.7Z"/><path class="cls-4" d="M155.55,188c-1.87-.89-4-1.17-5.86-2.2a14.67,14.67,0,0,1-4.41-4.69c-2.15-3.19-4.12-6.52-7.17-9a13.4,13.4,0,0,0-4.83-2.53c-2-.56-3.75-.23-5.77-.14-1.26,0-3.89.09-4-1.83S126,166,127.09,166a14.91,14.91,0,0,1,6.89.94c.85.33,1.22-1,.38-1.36a17.57,17.57,0,0,0-8.11-.94c-1.36.09-3.14.09-3.89,1.45a3.18,3.18,0,0,0,.75,3.61c1.5,1.6,3.75,1.27,5.72,1.08,7-.7,11.2,4.93,14.67,10.22a21.52,21.52,0,0,0,4.22,5.16c2.11,1.69,4.74,1.92,7.08,3.1.85.32,1.6-.89.75-1.27Z"/><path class="cls-4" d="M161.18,178.9c-2.53-3-.19-7.55.7-10.74.66-2.29,1.6-5.48.38-7.78a3.08,3.08,0,0,0-3.75-1.64,4.15,4.15,0,0,0-2,1.73c-.66,1.08-.85,4-2.16,4.37-.89.18-.52,1.54.37,1.35,1.6-.37,1.93-2,2.4-3.32.23-.71.7-2.54,1.59-2.68l2.53,1.41c0,.42.1.8.19,1.22a16.77,16.77,0,0,1-.84,5c-1.13,3.79-3.33,8.58-.38,12.09.52.66,1.5-.37.94-1Z"/><path class="cls-4" d="M123.11,159.72a9.35,9.35,0,0,1-2-1.31,1.07,1.07,0,0,1-.42-1.78c0-1.08.51-1.45,1.64-1.27,2.11-.14,3.94.9,5.77,1.74a37.15,37.15,0,0,1,8.76,5.39c.66.61,1.69-.37,1-1a35.12,35.12,0,0,0-7.6-4.93c-2.58-1.31-5.34-3-8.34-2.62-1.55.19-3.38.75-3.33,2.58,0,2.11,2.2,3.42,3.8,4.36.79.47,1.5-.75.75-1.18Z"/><path class="cls-4" d="M124.94,154.05c-2.49-1.87.75-3.14,1.73-3.33a6.24,6.24,0,0,1,2.77.38,17.53,17.53,0,0,1,4.17,2.3,47.1,47.1,0,0,1,7,5.95.7.7,0,1,0,1-1c-3.52-3.56-8.58-8.62-13.88-9.09-3.33-.28-6.94,3.33-3.47,5.95.71.61,1.41-.61.71-1.17Z"/><path class="cls-4" d="M131,149.83c-1.69-2.11,2.11-2.86,3.24-2.67.46.09.89.23,1.36.37a13.44,13.44,0,0,1,4.07,2.35,32,32,0,0,1,5.72,6.19c.57.7,1.79,0,1.22-.71-2.95-3.89-6.42-8-11.34-9.37-1.64-.47-3.8-.61-5.11.75a2.92,2.92,0,0,0-.14,4.08c.56.7,1.54-.29,1-1Z"/><path class="cls-4" d="M145,155.08c1.73,3,3.28,6.1,5.25,8.91,1.22,1.74,3,3,5.15,2.11.85-.33.47-1.69-.37-1.36-2.86,1.13-4.36-2.81-5.49-4.73s-2.2-3.8-3.33-5.68c-.42-.75-1.64,0-1.21.75Z"/><path class="cls-4" d="M121.93,160.38c2.63,1.74,5.3,3.42,7.93,5.16.75.51,1.45-.7.7-1.22-2.62-1.74-5.3-3.42-7.92-5.16-.75-.47-1.46.75-.71,1.22Z"/><path class="cls-9" d="M120.53,155.74c1.87-.89,4.73,1.59,6.51,3,8.68,7.08,9.1,4.59,14.07,9.7s4.92,8,10,11.07a22.29,22.29,0,0,0,6.19,2.58c.89,1.26,2.2,3.14,3.93,5.29,6.24,7.83,9.48,11.91,14.54,13.79.42.14,8.53,3.05,15.28-.89,5.4-3.14,5.4-8.16,11.68-24.52,7.92-20.63,11.11-23.21,13.17-23a4.12,4.12,0,0,1,2.86,2.11c1.08,1.82.24,3.79-.89,8.34-1.08,4.31-.84,4.5-1.5,7.13-1.83,6.94-5.11,10.78-14.39,26.49a67.48,67.48,0,0,1-7,10c-2.95,3.46-4.83,5.53-7.73,6.51-4.88,1.64-9.66-.89-12-2.11-3.09-1.64-5.3-3.65-8.77-7.73a132.84,132.84,0,0,1-11.67-15.9,11.34,11.34,0,0,1-4.22-.89c-1.45-.66-3.33-1.83-7.88-8.34-3.23-4.65-3.19-5.3-4.83-6.38a16,16,0,0,0-7.41-2.11c-3.79-.38-5.81.42-6.79-.89a2.68,2.68,0,0,1,0-3c1.59-2,7,.47,7.26-.14.14-.42-2-1.55-5.76-3.8-4.46-2.67-5.86-3.7-5.77-4.83A1.78,1.78,0,0,1,120.53,155.74Z"/></g><g id="hand_right" data-name="hand right"><path class="cls-3" d="M274.45,137.88c-2.53.51-3.51,5.25-4.5,9.7a56.61,56.61,0,0,0-1.17,14.21c.33,10.08,2.49,19.69,5.21,25.36,1.45,3,2.34,3.43,4,7.36a7.41,7.41,0,0,0,2.11,3.33,6.48,6.48,0,0,0,5.2.94c2.91-.7,4.46-3.23,5.21-4.5,2.11-3.61,2.15-7.31,1.64-13.74-.75-9.7-1.13-14.53-2.63-19.64A54.2,54.2,0,0,0,282,144.77C279.52,141.11,276.89,137.41,274.45,137.88Z"/><path class="cls-4" d="M274.5,139.14c2.53-.28,4.36,2.81,5.67,4.64,1.18,1.64,2.26,3.38,3.29,5.11a59.55,59.55,0,0,1,4.87,11.35,77.65,77.65,0,0,1,3.38,24.1c0,4.22,0,9.75-3.56,12.75-1.65,1.36-4.13,2.21-6.15,1.22s-3.33-3.84-4.4-5.77a66.45,66.45,0,0,1-8-25.27c-1-9.61-.33-20.16,5-28.46.46-.75-.75-1.45-1.22-.7-5.44,8.53-6.19,19.36-5.16,29.16a66.37,66.37,0,0,0,9.84,28.79c2,3.14,4.83,5,8.59,3.56s5.62-5.39,6.14-9.28c1.31-9.19,0-19.36-2.44-28.27a63.71,63.71,0,0,0-6.24-14.91,55.14,55.14,0,0,0-4.4-6.42c-1.36-1.69-2.86-3.29-5.16-3.05-.94.14-.94,1.55-.05,1.45Z"/><path class="cls-6" d="M276,139.09a68.24,68.24,0,0,0-1.08,20.45c.75,7.26,2.53,12.61,4.83,19.55a151.4,151.4,0,0,0,7.87,19.08,6.53,6.53,0,0,1-4.22,1.08c-3.42-.52-5.44-4.5-6.8-7.6-5-11.06-7.45-16.59-7.87-26.06-.61-13,2.86-27.39,5.91-27.43C275.16,138.16,275.63,138.67,276,139.09Z"/></g><g id="torso"><path class="cls-1" d="M210,147.11c-.23,2-.47,4.88-.7,8.3-.19,2.58-.66,10.13-.47,17.3a128.64,128.64,0,0,0,5.44,32.21c1.73,6.1,3.56,11.11,5,14.68a26.89,26.89,0,0,0,1.17,5.44c3.38,10.12,12.1,15.14,14.21,16.36,10.55,5.91,21,3.75,24.14,3.09s13.09-3,19.65-11.86c2.16-2.86,4.08-6.61,5.91-16.6.84-4.64,2.81-16.83,1.4-37.64-1.45-21.2-4.87-29.17-6.89-33.15a62.53,62.53,0,0,0-5-8.3,55.82,55.82,0,0,0-25.13-4.27c-8.58.56-15.14,3.14-21.57,5.67A106.11,106.11,0,0,0,210,147.11Z"/><path class="cls-4" d="M209.05,148.38a131.91,131.91,0,0,0,10.59,72.86c.38.84,1.6.09,1.22-.7a129.88,129.88,0,0,1-10.45-71.79c.09-.89-1.27-1.26-1.36-.37Z"/><path class="cls-4" d="M217.72,217.77a33.23,33.23,0,0,0,21.34,26,36.44,36.44,0,0,0,35.72-6.56,25.61,25.61,0,0,0,9.05-16.74c.1-.89-1.31-.89-1.4,0-1.55,15.8-19,24.75-33.48,23.86-14.91-.89-27.76-12.09-29.87-27-.14-.85-1.5-.47-1.36.42Z"/><path class="cls-4" d="M209.89,148.38c18.62-11.72,41.92-20,63.35-10.79.84.38,1.54-.84.7-1.21-21.94-9.48-45.67-1.27-64.8,10.78-.7.51,0,1.73.75,1.22Z"/><path class="cls-4" d="M273.24,137.45c5.06,4.65,7,12.43,8.48,19a160,160,0,0,1,3.14,21.75,153.14,153.14,0,0,1-2.11,43.42c-.18.89,1.18,1.26,1.36.37a153.08,153.08,0,0,0,2-45.57,152.51,152.51,0,0,0-3.42-22c-1.55-6.19-3.61-13.41-8.44-17.86-.71-.61-1.69.37-1,1Z"/><path class="cls-4" d="M226,225.65a38.14,38.14,0,0,0,21.1,9.75c.89.09.89-1.31,0-1.41A36.12,36.12,0,0,1,227,224.61c-.66-.56-1.69.43-1,1Z"/><path class="cls-13" d="M247.26,133.23c1.74,2.72,3.52,5.49,5.25,8.21A178.11,178.11,0,0,1,263.34,179c1.36,8,2.68,15.52,2.21,24.9-.43,8.44-2.58,23.72-13.46,41.4a34,34,0,0,0,9.8-1.6c1.64-.51,13.74-4.59,19.6-16.08,2.44-4.78,2.86-9,3.23-14.2,2-27.67.14-45.53-.89-51.67a58.65,58.65,0,0,0-5.39-17.58,51.32,51.32,0,0,0-4.83-7.74,47.29,47.29,0,0,0-14.07-3.66A48,48,0,0,0,247.26,133.23Z"/><path class="cls-6" d="M279.33,148.05c-1.69.09-2.53,10.27-3.09,17.11a210.57,210.57,0,0,0-.14,31c.51,11-2.07,26.82-16,47.69a38.8,38.8,0,0,0,9.1-3.66c3.09-1.74,7.5-4.22,10.69-9.38a24.55,24.55,0,0,0,3.38-9.66,173.79,173.79,0,0,0,2.48-35.87C285.1,167.7,281.68,147.91,279.33,148.05Z"/></g><g id="chair_support" data-name="chair support"><path d="M211.49,183c2.62,38.21.42,76.52-1.78,114.68-.1,1.83,2.71,1.79,2.81,0,2.25-38.16,4.41-76.47,1.78-114.68-.14-1.83-3-1.83-2.81,0Z"/><path d="M290.26,185q-5.2,54-10.37,108c-.18,1.78,2.63,1.78,2.82,0q5.21-54,10.36-108c.19-1.78-2.63-1.78-2.81,0Z"/><path class="cls-14" d="M212.47,181.25a437.49,437.49,0,0,0,45.29-.52c12.33-.75,23.92-2,34.65-3.56-.23,11.91-.51,23.77-.75,35.68a289.32,289.32,0,0,1-41,5.06,286.06,286.06,0,0,1-36.94-.52Q213.11,199.32,212.47,181.25Z"/><path class="cls-14" d="M236.39,218.74c-7.49,0-15.08-.29-22.69-.88l-.42,0L212,180.76l.5,0a437.92,437.92,0,0,0,45.24-.52c11.39-.69,23-1.89,34.62-3.56l.54-.08v.56q-.18,8.92-.37,17.84t-.38,17.84v.37l-.37.08a291.44,291.44,0,0,1-41,5.07Q243.63,218.74,236.39,218.74ZM214.19,217a287.45,287.45,0,0,0,36.47.48,288.92,288.92,0,0,0,40.54-5q.18-8.75.37-17.46c.12-5.76.25-11.52.36-17.29-11.43,1.63-22.91,2.8-34.14,3.49a438.46,438.46,0,0,1-44.83.53Z"/></g><g id="head"><path class="cls-3" d="M205.67,106.18c-.33.94,0,2.77.38,5.11a30.74,30.74,0,0,0,1,4.17,49.16,49.16,0,0,0,2.86,7.32,47.78,47.78,0,0,0,8.63,12.28,48.61,48.61,0,0,0,5.11,4.46c4.08-1.64,8.16-3.33,12.28-5a16.46,16.46,0,0,0,5.21-6.29c2.72-5.86,1.26-12.28-.9-16C232.73,99.05,207.31,101.59,205.67,106.18Z"/><path class="cls-4" d="M204.92,110a57.67,57.67,0,0,0,12.52,25.46c1.74,2.06,3.56,4.08,6.33,4.73.89.19,1.27-1.17.38-1.36-2.91-.65-4.88-3.33-6.71-5.58a54.1,54.1,0,0,1-5-7.31,56.87,56.87,0,0,1-6.19-16.32c-.19-.84-1.54-.47-1.36.38Z"/><path class="cls-4" d="M215.52,121.51c-.19-4.08,4.69-2.81,6.28-.7,1.88,2.44,1.36,7.69-2.76,7-.9-.15-1.27,1.21-.38,1.35,5.3.9,7.08-5.57,4.27-9.23-2.44-3.19-9.1-3.89-8.82,1.55,0,.93,1.46.93,1.41,0Z"/><path class="cls-15" d="M205.16,109c-.61-2.16-1.64-5.63.18-9a10,10,0,0,1,5.49-4.5A10.12,10.12,0,0,1,213.46,88a10.23,10.23,0,0,1,7.17-3.19,18.59,18.59,0,0,1,14-3.75c6,.89,7,4.5,13.74,7.36a29.53,29.53,0,0,0,10.74,2.25l-3.57,4.12a16.36,16.36,0,0,1,3,4.69c.47,1.08,1.32,3.57,1.13,8.3a45.28,45.28,0,0,1-2.25,11.49c-1.69,5.53-2.67,7.17-1.69,9.42,1.08,2.53,3.66,3.24,3.33,4.32s-3.66,1.31-6,1c-3.42-.42-5.57-1.92-5.95-1.41s2.77,2.77,2.25,4.17c-.61,1.83-6.75,1.55-11.16.52A27.31,27.31,0,0,1,231,134.5a28.58,28.58,0,0,1-8.11-6.8,7.35,7.35,0,0,0-.56-7.55c-.14-.18-2.49-3-5.3-2.25a4.83,4.83,0,0,0-2.63,2.25A19.71,19.71,0,0,1,205.16,109Z"/><path class="cls-9" d="M221.8,122.5a4.42,4.42,0,0,1-.37,3.14c-.75,1.08-1.93.89-3,2.44-.37.56-.37.84-.28,1,.24.42,1.22.24,1.69.24,2.44.09,3.89,2.57,5.58,4,1.36,1.22,3.7,2.48,7.92,2.58a43.72,43.72,0,0,1-6.89-4.65,41.46,41.46,0,0,1-3.61-3.37,7.51,7.51,0,0,0,.42-5.67c-.65-1.79-2.15-3-2.34-2.91S221.57,120.53,221.8,122.5Z"/></g></g></svg>