<svg id="Слой_1" data-name="Слой 1" xmlns="http://www.w3.org/2000/svg" viewBox="0 0 510.88 468.23"><defs><style>.cls-1{fill:#e8e8e8;}.cls-12,.cls-2{fill:#ec615b;}.cls-14,.cls-15,.cls-3{fill:#5222d0;}.cls-4{fill:#161616;}.cls-10,.cls-5{fill:#fff;}.cls-11,.cls-6,.cls-7,.cls-8,.cls-9{fill:#666;}.cls-6{opacity:0.13;}.cls-11,.cls-12,.cls-14,.cls-6,.cls-7,.cls-8,.cls-9{isolation:isolate;}.cls-7{opacity:0.11;}.cls-8{opacity:0.1;}.cls-9{opacity:0.15;}.cls-10{stroke:#000;stroke-width:2px;}.cls-10,.cls-15{stroke-miterlimit:10;}.cls-11{opacity:0.16;}.cls-12,.cls-13{opacity:0.3;}.cls-14{opacity:0.38;}.cls-15{stroke:#5222d0;}</style></defs><g id="background_2" data-name="background 2"><path class="cls-1" d="M326.91,738.66h429a.66.66,0,0,0,0-1.32h-429a.66.66,0,0,0,0,1.32Z" transform="translate(-284.87 -306.22)"/><path class="cls-1" d="M422.83,748.12H581.91a.66.66,0,0,0,0-1.32H422.83a.66.66,0,0,0,0,1.32Z" transform="translate(-284.87 -306.22)"/><path class="cls-1" d="M561.48,757.54h153.1a.66.66,0,0,0,0-1.32H561.48a.66.66,0,0,0,0,1.32Z" transform="translate(-284.87 -306.22)"/><path class="cls-1" d="M333.87,750.1h50.18a.66.66,0,0,0,0-1.32H333.87a.66.66,0,1,0,0,1.32Z" transform="translate(-284.87 -306.22)"/><path class="cls-1" d="M368.55,697.9a216.61,216.61,0,0,0,9,38.73c.27.79,1.54.44,1.28-.35a216.46,216.46,0,0,1-9-38.74c-.13-.83-1.41-.48-1.28.36Z" transform="translate(-284.87 -306.22)"/><path class="cls-1" d="M369.08,698.42A78.87,78.87,0,0,0,418,700.19a.66.66,0,0,0-.35-1.28,77.62,77.62,0,0,1-48.25-1.76c-.79-.31-1.14,1-.35,1.27Z" transform="translate(-284.87 -306.22)"/><path class="cls-1" d="M417.19,699.79a307,307,0,0,1-5.37,38.07c-.17.84,1.1,1.19,1.28.36a297.4,297.4,0,0,0,5.41-38.43c.09-.84-1.23-.84-1.32,0Z" transform="translate(-284.87 -306.22)"/><path class="cls-1" d="M383,700.71a26.7,26.7,0,0,1-9.11-15.89c-.13.27-.31.53-.44.8a3.81,3.81,0,0,1,3,.44c.57.35,1.19-.36.92-.93-.74-1.41-1.45-2.77-2.2-4.18-.35-.7-.75-1.37-1.1-2.07-.57-1.23-1.14-4.45,1.24-4a.64.64,0,0,0,.79-.79,174.75,174.75,0,0,1-3.52-23.38,37.48,37.48,0,0,1,.66-10.87,23.93,23.93,0,0,1,1.71-5c.53-1.1.88-2.47,2.64-1.59a7.36,7.36,0,0,1,1.72,1.63c4.62,4.84,7,11.36,8.72,17.7,2,7.26,3.69,14.65,5.15,22.05A121.24,121.24,0,0,1,395.76,702c-.05.84,1.27.84,1.32,0a122.75,122.75,0,0,0-2.42-26.81,236.82,236.82,0,0,0-6-25.18c-2-6.51-4.89-13.38-10.35-17.78-5.1-4.09-6.95,10.52-7.08,13.34-.4,9.59,1.71,19.54,3.61,28.92l.79-.79a2.94,2.94,0,0,0-3.52,3,8.22,8.22,0,0,0,1.32,3.92c.92,1.76,1.8,3.47,2.73,5.24l.92-.93a5.24,5.24,0,0,0-4-.57.65.65,0,0,0-.44.79A28,28,0,0,0,382,701.59c.75.58,1.67-.35,1-.88Z" transform="translate(-284.87 -306.22)"/><path class="cls-1" d="M395,675.36c-.13-4.8,2.11-9.11,4.49-13.16a88.52,88.52,0,0,1,8-11.4c-.35-.09-.74-.18-1.1-.31.22.62.44,1.28.71,1.89a.66.66,0,0,0,1.19.18A155.21,155.21,0,0,1,419.39,638l-1.14-.48a82.12,82.12,0,0,1-1.59,18.84c-1,4.84-2,12.5-7.17,14.7-.66.31-.22,1.14.35,1.23,5,.62-.39,10.3-1.32,12.81-2.07,5.59-3.87,11.31-5.63,17-.27.79,1,1.15,1.27.35,2.12-6.69,4.18-13.47,6.83-20,.74-1.8,1.89-3.61,2.28-5.55.53-2.68-.39-5.59-3.38-5.94.13.4.22.84.35,1.23,5.1-2.2,6.34-9.06,7.44-13.86a82.74,82.74,0,0,0,2-20.82.69.69,0,0,0-1.15-.49,168.44,168.44,0,0,0-11.35,14.79c.39,0,.79.09,1.18.18-.22-.62-.44-1.28-.7-1.89a.66.66,0,0,0-1.1-.31A88.41,88.41,0,0,0,398,662.15c-2.33,4.05-4.4,8.37-4.27,13.17a.64.64,0,1,0,1.28,0Z" transform="translate(-284.87 -306.22)"/><path class="cls-1" d="M369.52,698.25c1.5-.49,3.21.17,4.71.39a47.15,47.15,0,0,0,5,.4.66.66,0,0,0,0-1.32,36.37,36.37,0,0,1-6.25-.62,7.54,7.54,0,0,0-3.83-.13c-.79.27-.49,1.54.35,1.28Z" transform="translate(-284.87 -306.22)"/><path class="cls-1" d="M404.87,700c4.31.09,8.62.26,12.89.53.84,0,.84-1.28,0-1.32-4.31-.27-8.58-.44-12.89-.53-.84-.05-.84,1.28,0,1.32Z" transform="translate(-284.87 -306.22)"/><path class="cls-1" d="M374.8,699.3c1.81.45,3.61.89,5.37,1.28a.67.67,0,0,0,.36-1.28c-1.81-.44-3.61-.88-5.37-1.27-.84-.18-1.19,1.1-.36,1.27Z" transform="translate(-284.87 -306.22)"/><path class="cls-1" d="M404.82,699.17a1.1,1.1,0,0,0-.3,2.07c1,.44,2.94-.09,4-.13,1.54-.09,3.08-.22,4.62-.31.84,0,.84-1.36,0-1.32-1.41.09-2.86.18-4.27.31l-2,.13c-.31.05-.66.05-1,.09-.57-.18-.79,0-.66.48.79-.22.44-1.49-.4-1.32Z" transform="translate(-284.87 -306.22)"/><path class="cls-1" d="M375.68,729.37a28.42,28.42,0,0,0,7.31,8.54c.66.53,1.58-.4.92-.93a27.1,27.1,0,0,1-7.08-8.27c-.4-.79-1.54-.09-1.15.66Z" transform="translate(-284.87 -306.22)"/><path class="cls-1" d="M370.89,710.88a112.37,112.37,0,0,0,23.59,27c.66.53,1.58-.4.92-.93A110.29,110.29,0,0,1,372,710.22c-.4-.75-1.54-.09-1.1.66Z" transform="translate(-284.87 -306.22)"/><path class="cls-1" d="M373.35,699.44c4.23,7.48,8.63,15,14.48,21.3,6.16,6.65,13.6,12.28,20.82,17.65.71.53,1.32-.66.66-1.14-7.17-5.33-14.48-10.87-20.55-17.43-5.77-6.25-10.08-13.69-14.27-21a.66.66,0,0,0-1.14.66Z" transform="translate(-284.87 -306.22)"/><path class="cls-1" d="M386.29,702.43A81.21,81.21,0,0,0,413.58,729a.66.66,0,0,0,.66-1.14,80,80,0,0,1-26.8-26.1c-.49-.66-1.63,0-1.15.7Z" transform="translate(-284.87 -306.22)"/><path class="cls-1" d="M401.26,703.22a64.11,64.11,0,0,0,13.29,14.31c.66.53,1.59-.4.93-.93a62.52,62.52,0,0,1-13.08-14c-.48-.7-1.63,0-1.14.66Z" transform="translate(-284.87 -306.22)"/><path class="cls-1" d="M410.85,702.12a40.1,40.1,0,0,0,5.68,6.43c.62.57,1.59-.35.93-.93a38,38,0,0,1-5.51-6.16c-.44-.66-1.62,0-1.1.66Z" transform="translate(-284.87 -306.22)"/><path class="cls-1" d="M662.29,703.53A248.4,248.4,0,0,0,669,738a.67.67,0,0,0,1.28-.36,247.75,247.75,0,0,1-6.69-34.11c-.14-.84-1.46-.84-1.32,0Z" transform="translate(-284.87 -306.22)"/><path class="cls-1" d="M663,703.84a69.44,69.44,0,0,0,36.28.13.67.67,0,0,0-.36-1.28,67.57,67.57,0,0,1-35.56-.13.67.67,0,0,0-.36,1.28Z" transform="translate(-284.87 -306.22)"/><path class="cls-1" d="M698.64,703.53a133.45,133.45,0,0,1-6.73,34.29c-.26.79,1,1.15,1.28.35A136.93,136.93,0,0,0,700,703.53c0-.84-1.28-.84-1.33,0Z" transform="translate(-284.87 -306.22)"/><path class="cls-1" d="M674,704.72a32.19,32.19,0,0,1-5.19-10,37,37,0,0,1-1.19-5.37c-.22-1.67-1.19-5.15,1.32-5.06a.65.65,0,0,0,.62-.84,19.43,19.43,0,0,1-1-5.28c-.18.22-.31.44-.49.62a3.11,3.11,0,0,0,2-2.73,52.88,52.88,0,0,0,.26-8c.18-6,.31-12,.49-18-.36.17-.67.39-1,.57,3.88,2.64,5.68,8,7.18,12.28a76,76,0,0,1,3.26,13.82c1.36,9.6,1.23,19.33.74,29,0,.84,1.28.84,1.32,0,.49-10.3.62-20.69-1-30.86a72,72,0,0,0-4-14.83c-1.54-3.87-3.26-8.1-6.83-10.52a.67.67,0,0,0-1,.57c-.13,4.58-.22,9.16-.35,13.69-.05,2.29-.13,4.58-.18,6.87,0,1.45.57,6.21-1.27,6.87a.69.69,0,0,0-.49.61,20.52,20.52,0,0,0,1.06,5.64c.22-.27.44-.58.61-.84-1.32,0-2.68.26-2.9,1.67a23.57,23.57,0,0,0,.66,7.22,34.7,34.7,0,0,0,6.16,13.6c.57.66,1.72,0,1.23-.7Z" transform="translate(-284.87 -306.22)"/><path class="cls-1" d="M681.65,674.74c1.15-4,2.47-7.88,3.83-11.75-.3.13-.66.26-1,.4.45.26.89.57,1.37.83a.74.74,0,0,0,.92-.22c3.17-5.28,6.34-10.52,9.51-15.8-.39-.13-.83-.22-1.23-.35A116.38,116.38,0,0,1,686.14,705c-.35.79.8,1.45,1.15.66a118,118,0,0,0,9.11-57.84.67.67,0,0,0-1.23-.35c-3.17,5.28-6.34,10.52-9.51,15.8a6.45,6.45,0,0,1,.92-.22c-.44-.27-.88-.57-1.36-.84a.67.67,0,0,0-1,.4q-2.12,5.8-3.83,11.75c-.26.79,1,1.15,1.23.35Z" transform="translate(-284.87 -306.22)"/><path class="cls-1" d="M663.65,703.88c2.51.09,5,.22,7.48.31.84,0,.84-1.28,0-1.32-2.51-.09-5-.22-7.48-.31-.84,0-.84,1.28,0,1.32Z" transform="translate(-284.87 -306.22)"/><path class="cls-1" d="M669.77,704.15a11.12,11.12,0,0,0,2.6.79c.83.13,1.18-1.15.35-1.28a9.6,9.6,0,0,1-2.29-.66c-.79-.31-1.45.79-.66,1.15Z" transform="translate(-284.87 -306.22)"/><path class="cls-1" d="M688,704.63c3.65-.53,7.26-.88,11-1.1.84,0,.84-1.36,0-1.32-3.79.22-7.57.57-11.31,1.14-.84.14-.49,1.41.35,1.28Z" transform="translate(-284.87 -306.22)"/><path class="cls-1" d="M687.51,705.25c1.93-.31,3.92-.49,5.9-.66.83-.05.83-1.37,0-1.32-2.12.13-4.19.39-6.25.7-.84.13-.49,1.37.35,1.28Z" transform="translate(-284.87 -306.22)"/><path class="cls-1" d="M664.13,710.27c2.91-.09,5.29,1.62,8.1,2,3.13.44,5.07-2.16,8-2.11s5.5,2,8.49,2a9.62,9.62,0,0,0,3.83-.79c1.76-.71,3.39-2.12,5.37-1.32.79.3,1.14-1,.35-1.28-2.73-1.06-4.93,1.19-7.48,1.8-3.61.88-6.47-1.27-9.9-1.67-3.22-.35-5.46,2.51-8.59,2.07-2.82-.44-5.24-2.11-8.19-2a.64.64,0,1,0,0,1.28Z" transform="translate(-284.87 -306.22)"/><path class="cls-1" d="M664.71,717.22a46.46,46.46,0,0,0,33.32.35c.79-.31.44-1.58-.35-1.27a45.57,45.57,0,0,1-32.62-.36c-.79-.3-1.15,1-.35,1.28Z" transform="translate(-284.87 -306.22)"/><path class="cls-1" d="M287.16,528.34v80.38a.66.66,0,0,0,1.32,0V528.34a.66.66,0,1,0-1.32,0Z" transform="translate(-284.87 -306.22)"/><path class="cls-1" d="M288,528.82h54.81a.66.66,0,0,0,0-1.32H288a.66.66,0,0,0,0,1.32Z" transform="translate(-284.87 -306.22)"/><path class="cls-1" d="M343,528.16V608a.66.66,0,0,0,1.32,0V528.16a.66.66,0,1,0-1.32,0Z" transform="translate(-284.87 -306.22)"/><path class="cls-1" d="M288.44,609.55h55a.66.66,0,0,0,0-1.32h-55a.66.66,0,0,0,0,1.32Z" transform="translate(-284.87 -306.22)"/><path class="cls-1" d="M338.71,534.9a1.6,1.6,0,0,1-1.32-1.5,1.21,1.21,0,0,1,1.71-1.06,1.77,1.77,0,0,1,1.06,1.76c0,.66-.88,1.24-1.45.8s-1.63.35-1,.92a2.36,2.36,0,0,0,3.48-.66,3,3,0,0,0-1.41-3.92,2.53,2.53,0,0,0-3.61,1.5,2.8,2.8,0,0,0,2.16,3.43c.83.18,1.18-1.1.35-1.27Z" transform="translate(-284.87 -306.22)"/><path class="cls-1" d="M337,602.64a1.54,1.54,0,0,1-.18-2.2,1.56,1.56,0,0,1,2.38.31c.31.53.75,1.89,0,2.29-.4.22-.93-.13-1.23-.35a7.56,7.56,0,0,0-1.37-.67c-.79-.3-1.14,1-.35,1.28a16,16,0,0,0,2.38,1.1,1.84,1.84,0,0,0,1.84-.75,3.6,3.6,0,0,0-.66-4.22,2.79,2.79,0,1,0-3.74,4.14c.62.61,1.59-.36.93-.93Z" transform="translate(-284.87 -306.22)"/><path class="cls-1" d="M291.52,533.62c11,0,21.92,0,32.84-.09a.66.66,0,0,0,0-1.32c-11,0-21.92,0-32.84.09a.66.66,0,0,0,0,1.32Z" transform="translate(-284.87 -306.22)"/><path class="cls-1" d="M291.52,536.79c4.49.31,9.07,1,13.56.18.83-.18.48-1.41-.35-1.28-4.32.79-8.85.09-13.21-.22-.84,0-.84,1.28,0,1.32Z" transform="translate(-284.87 -306.22)"/><path class="cls-1" d="M292.18,604.09a.92.92,0,0,1-.44-1,.79.79,0,0,1,1-.58,1.17,1.17,0,0,1,1.06,1.06c0,.44-.48,1.14-1,.75-.66-.53-1.58.39-.92.92a2,2,0,0,0,3.12-.88,2.46,2.46,0,0,0-1.63-3.08,2.24,2.24,0,0,0-2.86,1.32,2.14,2.14,0,0,0,1.32,2.69c.79.3,1.15-.93.31-1.24Z" transform="translate(-284.87 -306.22)"/><path class="cls-1" d="M293,547.44h35.31a.66.66,0,0,0,0-1.32H293a.66.66,0,0,0,0,1.32Z" transform="translate(-284.87 -306.22)"/><path class="cls-1" d="M295,551.8h27.78a.66.66,0,0,0,0-1.32H295a.66.66,0,0,0,0,1.32Z" transform="translate(-284.87 -306.22)"/><path class="cls-1" d="M294.56,559.37h26.76a.66.66,0,0,0,0-1.32H294.56a.66.66,0,0,0,0,1.32Z" transform="translate(-284.87 -306.22)"/><path class="cls-1" d="M286.19,491.41v-6a.66.66,0,0,0-1.32,0v6a.66.66,0,0,0,1.32,0Z" transform="translate(-284.87 -306.22)"/><path class="cls-1" d="M286,485.33H429.78a.66.66,0,0,0,0-1.32H286a.66.66,0,0,0,0,1.32Z" transform="translate(-284.87 -306.22)"/><path class="cls-1" d="M285.67,492.2H430.13a.66.66,0,0,0,0-1.32H285.67a.66.66,0,0,0,0,1.32Z" transform="translate(-284.87 -306.22)"/><path class="cls-1" d="M429.65,484.72v6.2a.66.66,0,0,0,1.32,0v-6.2a.66.66,0,0,0-1.32,0Z" transform="translate(-284.87 -306.22)"/><path class="cls-1" d="M356.49,484.32v-9.6a.66.66,0,0,0-1.32,0v9.6a.66.66,0,0,0,1.32,0Z" transform="translate(-284.87 -306.22)"/><path class="cls-1" d="M360.5,473.89v9.59a.66.66,0,0,0,1.32,0v-9.59a.66.66,0,0,0-1.32,0Z" transform="translate(-284.87 -306.22)"/><path class="cls-1" d="M361.2,474.55h30.68a.66.66,0,0,0,0-1.32H361.2a.66.66,0,0,0,0,1.32Z" transform="translate(-284.87 -306.22)"/><path class="cls-1" d="M392.72,473.71V436.12a.66.66,0,0,0-1.32,0v37.59a.66.66,0,0,0,1.32,0Z" transform="translate(-284.87 -306.22)"/><path class="cls-1" d="M392.06,435.37H327.88a.66.66,0,0,0,0,1.32h64.18a.66.66,0,0,0,0-1.32Z" transform="translate(-284.87 -306.22)"/><path class="cls-1" d="M326.91,436.12v34.64a.66.66,0,0,0,1.32,0V436.12a.66.66,0,0,0-1.32,0Z" transform="translate(-284.87 -306.22)"/><path class="cls-1" d="M355.74,473.93H327.79a.66.66,0,0,0,0,1.32h27.95a.66.66,0,0,0,0-1.32Z" transform="translate(-284.87 -306.22)"/><path class="cls-1" d="M326.91,469.57V474a.66.66,0,0,0,1.32,0v-4.41a.66.66,0,0,0-1.32,0Z" transform="translate(-284.87 -306.22)"/><path class="cls-1" d="M330.74,439.07v31.3a.66.66,0,0,0,1.32,0v-31.3a.66.66,0,0,0-1.32,0Z" transform="translate(-284.87 -306.22)"/><path class="cls-1" d="M331.58,471.11h55.86a.66.66,0,0,0,0-1.32H331.58a.66.66,0,0,0,0,1.32Z" transform="translate(-284.87 -306.22)"/><path class="cls-1" d="M388.32,469.79V440.17a.66.66,0,0,0-1.32,0v29.62a.66.66,0,0,0,1.32,0Z" transform="translate(-284.87 -306.22)"/><path class="cls-1" d="M331.71,439.64h56a.66.66,0,0,0,0-1.32h-56a.66.66,0,0,0,0,1.32Z" transform="translate(-284.87 -306.22)"/><path class="cls-1" d="M386.86,439.64V440a.68.68,0,0,0,.66.66.67.67,0,0,0,.66-.66v-.31a.67.67,0,0,0-.66-.66.72.72,0,0,0-.66.66Z" transform="translate(-284.87 -306.22)"/><path d="M651.55,510.25c5.85,1.67,12.19,1.85,18.17,2.51,6.78.74,13.56,1.45,20.34,2.2,13.43,1.45,26.81,2.86,40.23,4.31.84.09.84-1.23,0-1.32l-39.35-4.23c-6.47-.7-13-1.4-19.45-2.06s-13.34-.84-19.59-2.65c-.79-.26-1.15,1-.35,1.24Z" transform="translate(-284.87 -306.22)"/><path d="M745.7,490a211.24,211.24,0,0,1-15.14,28.35c-.44.71.7,1.37,1.14.66a210.11,210.11,0,0,0,15.14-28.35c.36-.74-.79-1.4-1.14-.66Z" transform="translate(-284.87 -306.22)"/><path d="M652.34,509.81c9-6.47,17.69-13.34,26-20.6.66-.58-.31-1.5-.92-.93-8.28,7.18-16.86,14-25.75,20.38-.66.49,0,1.67.66,1.15Z" transform="translate(-284.87 -306.22)"/><path d="M678.18,489c11.18-1.32,22.49-.44,33.71.13l34.25,1.72c.84,0,.84-1.28,0-1.32l-34.25-1.72c-11.22-.57-22.53-1.45-33.71-.13-.84.09-.84,1.41,0,1.32Z" transform="translate(-284.87 -306.22)"/><path class="cls-1" d="M692.53,497.39c-.71,1.19-1.46,2.34-2.16,3.53a.69.69,0,0,0,.57,1,28.08,28.08,0,0,1,4.76.17c.88.09,2.37.71,3.3.4,1.41-.48,2.37-3.08,3-4.23.39-.74-.75-1.4-1.15-.66a14.9,14.9,0,0,1-1.32,2.38c-.92,1.1-1.8,1.1-3.12.88a31.75,31.75,0,0,0-5.42-.26c.18.35.4.66.57,1,.71-1.19,1.46-2.33,2.16-3.52a.67.67,0,0,0-1.14-.71Z" transform="translate(-284.87 -306.22)"/><path class="cls-1" d="M693.41,498.05a11.19,11.19,0,0,1,7.48.4c.79.35,1.45-.79.66-1.14a12.38,12.38,0,0,0-8.54-.53c-.79.22-.44,1.49.4,1.27Z" transform="translate(-284.87 -306.22)"/><path class="cls-1" d="M673.07,499.07a23.66,23.66,0,0,1,6.82.7.67.67,0,0,0,.36-1.28,26.41,26.41,0,0,0-7.18-.74c-.84,0-.84,1.36,0,1.32Z" transform="translate(-284.87 -306.22)"/><path class="cls-1" d="M673.33,498.49c1.41-1.54,2.91-3,4.45-4.4.62-.57-.31-1.49-.92-.92-1.54,1.41-3,2.9-4.45,4.4-.57.62.35,1.58.92.92Z" transform="translate(-284.87 -306.22)"/><path class="cls-1" d="M676.9,494.14c1.94,1,4.45.7,6.6.74.84.05.84-1.27,0-1.32-1.8,0-4.27.27-5.94-.57-.75-.35-1.41.75-.66,1.15Z" transform="translate(-284.87 -306.22)"/><path class="cls-1" d="M682.53,494.05c-1,1.45-2.11,2.95-3.08,4.49-.44.7.71,1.36,1.15.66,1-1.54,2-3,3.08-4.49.48-.71-.66-1.37-1.15-.66Z" transform="translate(-284.87 -306.22)"/><path class="cls-1" d="M736.32,431.76v40.06a.66.66,0,0,0,1.32,0V431.76a.66.66,0,0,0-1.32,0Z" transform="translate(-284.87 -306.22)"/><path class="cls-1" d="M737.29,472.48H795a.66.66,0,0,0,0-1.32H737.29a.66.66,0,1,0,0,1.32Z" transform="translate(-284.87 -306.22)"/><path class="cls-1" d="M795.75,471.73c-.13-13.29-.31-26.59-.44-39.84a.66.66,0,0,0-1.32,0c.13,13.3.31,26.59.44,39.84a.66.66,0,0,0,1.32,0Z" transform="translate(-284.87 -306.22)"/><path class="cls-1" d="M737.16,432.07h56.61a.66.66,0,0,0,0-1.32H737.16a.66.66,0,0,0,0,1.32Z" transform="translate(-284.87 -306.22)"/><path class="cls-1" d="M765.51,430.79a8.35,8.35,0,0,1,.22-3.61c.26-1,1.19-3.38,2.68-2.64.88.44,1.15,2,1.28,2.91a13.27,13.27,0,0,1,0,3.56c-.08.84,1.24.84,1.32,0,.22-2.2.22-8.23-3.38-7.92-3.35.31-3.79,5.64-3.44,8.06.13.83,1.41.48,1.28-.36Z" transform="translate(-284.87 -306.22)"/><path class="cls-1" d="M667.61,358.12v48.55a.66.66,0,0,0,1.32,0V358.12a.66.66,0,0,0-1.32,0Z" transform="translate(-284.87 -306.22)"/><path class="cls-1" d="M668.67,407.33h69.94a.66.66,0,0,0,0-1.32H668.67a.66.66,0,0,0,0,1.32Z" transform="translate(-284.87 -306.22)"/><path class="cls-1" d="M739.36,406.54q-.25-24.17-.53-48.29a.66.66,0,0,0-1.32,0q.27,24.17.53,48.29a.66.66,0,0,0,1.32,0Z" transform="translate(-284.87 -306.22)"/><path class="cls-1" d="M668.54,358.38h68.58a.66.66,0,0,0,0-1.32H668.54a.66.66,0,0,0,0,1.32Z" transform="translate(-284.87 -306.22)"/><path class="cls-1" d="M702.74,357a11,11,0,0,1,.26-4.45c.35-1.27,1.5-4.27,3.48-3.3,2.2,1.1,1.89,6,1.67,7.93-.09.83,1.24.83,1.32,0,.27-2.56.31-9.86-4-9.42-4,.39-4.44,6.73-4,9.59.08.84,1.36.49,1.23-.35Z" transform="translate(-284.87 -306.22)"/><path class="cls-1" d="M671.35,361.82v39.7a.66.66,0,0,0,1.32,0v-39.7a.66.66,0,1,0-1.32,0Z" transform="translate(-284.87 -306.22)"/><path class="cls-1" d="M672,403.06h61.81a.66.66,0,0,0,0-1.32H672a.66.66,0,0,0,0,1.32Z" transform="translate(-284.87 -306.22)"/><path class="cls-1" d="M735.36,401.87v-39a.66.66,0,0,0-1.32,0v39a.66.66,0,0,0,1.32,0Z" transform="translate(-284.87 -306.22)"/><path class="cls-1" d="M672.54,362.3h61.8a.66.66,0,0,0,0-1.32h-61.8a.66.66,0,0,0,0,1.32Z" transform="translate(-284.87 -306.22)"/><path class="cls-1" d="M679.41,588.07h63.78a.66.66,0,0,0,0-1.32H679.41a.66.66,0,0,0,0,1.32Z" transform="translate(-284.87 -306.22)"/><path class="cls-1" d="M709.69,589.26v12.15a.66.66,0,0,0,1.32,0V589.26a.66.66,0,0,0-1.32,0Z" transform="translate(-284.87 -306.22)"/><path class="cls-1" d="M700.05,603.87h31.61a.66.66,0,0,0,0-1.32H700.05a.66.66,0,0,0,0,1.32Z" transform="translate(-284.87 -306.22)"/><path class="cls-1" d="M373.75,558.27V602a.66.66,0,0,0,1.32,0V558.27a.66.66,0,0,0-1.32,0Z" transform="translate(-284.87 -306.22)"/><path class="cls-1" d="M374.41,558.93h64.4a.66.66,0,0,0,0-1.32h-64.4a.66.66,0,1,0,0,1.32Z" transform="translate(-284.87 -306.22)"/><path class="cls-1" d="M374.45,603q32.35-.06,64.71-.08a.67.67,0,0,0,0-1.33q-32.36.07-64.71.09a.66.66,0,0,0,0,1.32Z" transform="translate(-284.87 -306.22)"/><path class="cls-1" d="M438.54,558.45v42.83a.66.66,0,0,0,1.32,0V558.45a.66.66,0,0,0-1.32,0Z" transform="translate(-284.87 -306.22)"/><path class="cls-1" d="M379.29,564.39a1.1,1.1,0,0,1,.44-2.07c1.54,0,.62,2.6-.39,1.94-.71-.49-1.37.66-.66,1.14,2.46,1.67,4.71-3.3,1.8-4.27a2.41,2.41,0,0,0-1.89,4.4.67.67,0,0,0,.7-1.14Z" transform="translate(-284.87 -306.22)"/><path class="cls-1" d="M382.15,569.28h38a.67.67,0,0,0,0-1.33h-38a.67.67,0,0,0,0,1.33Z" transform="translate(-284.87 -306.22)"/><path class="cls-1" d="M382.73,573.94h21.92a.66.66,0,0,0,0-1.32H382.73a.66.66,0,0,0,0,1.32Z" transform="translate(-284.87 -306.22)"/><path class="cls-1" d="M384,601.8v-14a.66.66,0,0,0-1.32,0v14a.66.66,0,0,0,1.32,0Z" transform="translate(-284.87 -306.22)"/><path class="cls-1" d="M383.43,588H415.3a.66.66,0,0,0,0-1.32H383.43a.66.66,0,0,0,0,1.32Z" transform="translate(-284.87 -306.22)"/><path class="cls-1" d="M414.64,587.63v13.91a.66.66,0,0,0,1.32,0V587.63a.66.66,0,1,0-1.32,0Z" transform="translate(-284.87 -306.22)"/><path class="cls-1" d="M390,601.63v-9.2a.67.67,0,0,0-1.33,0v9.2a.67.67,0,0,0,1.33,0Z" transform="translate(-284.87 -306.22)"/><path class="cls-1" d="M395.23,601.63v-9.2a.66.66,0,0,0-1.32,0v9.2a.66.66,0,0,0,1.32,0Z" transform="translate(-284.87 -306.22)"/><path class="cls-1" d="M400.33,601.5V593a.66.66,0,0,0-1.32,0v8.5a.66.66,0,0,0,1.32,0Z" transform="translate(-284.87 -306.22)"/><path class="cls-1" d="M405.62,601.94v-8.76a.66.66,0,0,0-1.32,0v8.76a.66.66,0,0,0,1.32,0Z" transform="translate(-284.87 -306.22)"/><path class="cls-1" d="M411.29,601.19V593a.66.66,0,0,0-1.32,0v8.19a.66.66,0,1,0,1.32,0Z" transform="translate(-284.87 -306.22)"/><path class="cls-1" d="M434.8,562.67a.75.75,0,0,1,0-1.36c.26-.09.7,0,.79.26s-.09.62-.35.57a.67.67,0,0,0-.79.44.64.64,0,0,0,.44.8,1.74,1.74,0,0,0,2-1.68,1.85,1.85,0,0,0-1.89-1.8,2,2,0,0,0-2,1.58,2.07,2.07,0,0,0,1,2.29c.84.4,1.5-.75.75-1.1Z" transform="translate(-284.87 -306.22)"/></g><g id="background"><circle class="cls-2" cx="372.79" cy="237.93" r="5.94"/><circle class="cls-2" cx="384.54" cy="227.71" r="3.13"/><circle class="cls-3" cx="320.76" cy="15.63" r="7.66"/><circle class="cls-3" cx="88.61" cy="210.06" r="4.18"/><circle class="cls-2" cx="94.07" cy="201.3" r="4.49"/><circle class="cls-2" cx="313.41" cy="14.67" r="6.69"/><path class="cls-2" d="M621.61,422.3c.09-.93.53-1.32,1.28-1.28a2.84,2.84,0,0,1,1.23,0,7.38,7.38,0,0,0,1.41,0,3.07,3.07,0,0,0,1.81-.88,4,4,0,0,0,.7-2c.4-2.34,2.07-1.54,3.61-1.15a3.86,3.86,0,0,0,4.27-1.32,13,13,0,0,0,1.45-2.55c.53-1.06,3.08-4.32,4-1.67.27.79,1.54.44,1.28-.36-.7-2.06-3.21-2.29-4.75-1-1.37,1.18-1.72,3-2.78,4.4-1.8,2.42-3.7.39-6,.48a2.28,2.28,0,0,0-2,1.37c-.62,1.27,0,1.84-1.36,2.73s-1.63.35-3,.52c-1.76.27-3.61,2.47-1.71,3.79.61.53,1.27-.62.61-1.1Z" transform="translate(-284.87 -306.22)"/><path class="cls-2" d="M627.47,426c-.71-.92-.44-1.41.75-1.54a2.15,2.15,0,0,1,2.33-.31c.39,0,.83.14,1.23.18a5.12,5.12,0,0,0,2.69-.48.67.67,0,0,0,.22-.93c-1.54-3.12,3.25-3.65,4.88-3.74a12.34,12.34,0,0,0,4-.49,4.31,4.31,0,0,0,3-3.65c.08-.83-1.24-.83-1.33,0-.39,4.27-7.43,2.11-10,3.7a3.7,3.7,0,0,0-1.71,4.89c.08-.31.17-.62.22-.93-2.25,1.06-5.59-1.23-7.49,1a2.3,2.3,0,0,0,.44,3.48c.8.4,1.46-.75.71-1.19Z" transform="translate(-284.87 -306.22)"/><path class="cls-3" d="M466.76,341.66c-1-3.88,3.69-7.09,6.64-3.92s-.61,7.61-4.4,6.34c-.79-.27-1.14,1-.35,1.27,5.11,1.72,9.51-4.49,5.68-8.53s-10.21,0-8.85,5.19a.66.66,0,0,0,1.28-.35Z" transform="translate(-284.87 -306.22)"/><path class="cls-3" d="M467.73,660.92a18.42,18.42,0,0,0,17.07,9c.84,0,.84-1.36,0-1.32a17.16,17.16,0,0,1-15.93-8.32.66.66,0,0,0-1.14.66Z" transform="translate(-284.87 -306.22)"/><path class="cls-3" d="M465,668.49a25.72,25.72,0,0,0,17.39,7.84c.83,0,.83-1.28,0-1.32A24.42,24.42,0,0,1,466,667.52c-.57-.57-1.54.4-.92,1Z" transform="translate(-284.87 -306.22)"/><path class="cls-1" d="M761.68,367.41c-2.91,3.65.09,9.51,4.8,9,2.29-.27,5.15-1.63,6.07,1.49.44,1.46.18,3,.53,4.49.48,2.12,2.2,4.36,4.58,3.57.79-.26.44-1.54-.35-1.28-3.22,1.06-3-4.53-3.31-6.34-.26-1.58-.92-3.08-2.51-3.65-2.28-.84-4.66,1.06-6.91.22a4.37,4.37,0,0,1-1.93-6.56c.48-.61-.44-1.58-1-.92Z" transform="translate(-284.87 -306.22)"/><path class="cls-1" d="M755.56,376.34c-1.1,1.81-.26,3.7,1.28,5,2,1.58,4.22,1.45,6.64,1.67,2.07.18,3.7.75,4.8,2.6.75,1.27,1,2.77,1.81,4,1.1,1.68,3,2.91,5,2.07.8-.31.44-1.58-.35-1.27-2.81,1.18-4-2.47-4.8-4.32a6.34,6.34,0,0,0-3.17-3.65,12.15,12.15,0,0,0-4.57-.79c-2-.14-7.49-1.28-5.51-4.58a.67.67,0,0,0-1.14-.71Z" transform="translate(-284.87 -306.22)"/><path class="cls-1" d="M307.9,628.74c.57-1.49,1.32-1.93,2.2-1.27a2.76,2.76,0,0,1,1,.61c.53.4,1,.84,1.5,1.24a6.36,6.36,0,0,0,2.07,1.1,3.28,3.28,0,0,0,3.21-1c1-1,1.28-2.91,2.42-3.79s1.81.49,2.6,1.24,1.63,1.36,2.47,2,1.36-.66.66-1.15a27.19,27.19,0,0,1-4.32-3.92.7.7,0,0,0-.66-.17,5.15,5.15,0,0,0-2.86,2.81c-.61,1.15-1,2.12-2.33,2.47-1.76.44-2.77-1-4.1-2s-3-1.67-4.44-.53a2.28,2.28,0,0,0-.66,3c.57.75,1.72.09,1.28-.66Z" transform="translate(-284.87 -306.22)"/><path class="cls-1" d="M308.29,634.69a4.75,4.75,0,0,0,5.15,3.83c1.41-.18,2.38-1.15,3.57-1.85a6,6,0,0,1,6.64,0c.71.44,1.37-.7.66-1.14a7.28,7.28,0,0,0-6.73-.75,23.35,23.35,0,0,0-2.82,1.76,3.42,3.42,0,0,1-5.24-2.29c-.13-.79-1.4-.44-1.23.4Z" transform="translate(-284.87 -306.22)"/><path class="cls-4" d="M394.39,321.72a10.46,10.46,0,0,1,8.32,5.76c.4.75,1.54.09,1.14-.66a11.74,11.74,0,0,0-9.46-6.42c-.84-.09-.84,1.23,0,1.32Z" transform="translate(-284.87 -306.22)"/><path class="cls-4" d="M394.74,309A26.77,26.77,0,0,1,408,322.82c.31.79,1.59.44,1.28-.35a28,28,0,0,0-13.87-14.66c-.74-.35-1.41.79-.66,1.14Z" transform="translate(-284.87 -306.22)"/><path class="cls-4" d="M409,307.37a16,16,0,0,1,4.05,11,.66.66,0,0,0,1.32,0,17.57,17.57,0,0,0-4.44-11.93c-.53-.66-1.46.27-.93.93Z" transform="translate(-284.87 -306.22)"/><path class="cls-2" d="M609.9,678c-.57-3.92,3.83-7.57,7.14-4.4,3,2.9-.71,7.61-4.1,5.41-.7-.48-1.36.66-.66,1.15,4.45,2.9,9.6-3,6.08-7.09-4.1-4.75-10.48-.09-9.73,5.33.13.79,1.41.44,1.27-.4Z" transform="translate(-284.87 -306.22)"/><path class="cls-2" d="M615.32,657.27c-.71-2.25,2.2-4,3.65-2a2.12,2.12,0,0,1-2.77,3c-.75-.4-1.41.75-.66,1.14,3.21,1.68,6.73-2.11,4.4-5.06s-7-.31-5.9,3.26c.27.79,1.54.48,1.28-.35Z" transform="translate(-284.87 -306.22)"/></g><g id="bot"><g id="leg_left" data-name="leg left"><path class="cls-4" d="M544.71,674.61c-1.41.09-2.42.79-4.4,2.2a36.15,36.15,0,0,0-7.7,7.44,77.41,77.41,0,0,0,5,14.88,79.92,79.92,0,0,0,23.16,29.49,12.88,12.88,0,0,0,2.77-5.24,13,13,0,0,0-.57-7.44c-1.63-5.23-2.73-10.65-4.14-16-2.95-11.05-1.45-12.29-4.4-17.39C553.47,681,549.51,674.26,544.71,674.61Z" transform="translate(-284.87 -306.22)"/><path class="cls-5" d="M576.41,550a98.78,98.78,0,0,1,5.23,12.67,96.81,96.81,0,0,1,5,27,95.31,95.31,0,0,1-5,32.79c-5.89,17.57-15.31,28.88-21.52,36.1a130.59,130.59,0,0,1-16.29,16,9.62,9.62,0,0,0,1.37,5c2.86,4.49,8.71,4.4,9.11,4.4a130.83,130.83,0,0,0,28.13-27,107.61,107.61,0,0,0,15.14-26.2,105.15,105.15,0,0,0,7.44-35.3c.35-9.46-.71-16.15-2.2-25.62-2.42-15.53-5.51-21.83-7.71-25.62a52.44,52.44,0,0,0-5.5-7.7C585.21,541,580.81,545.46,576.41,550Z" transform="translate(-284.87 -306.22)"/><path class="cls-4" d="M576,551.8A88.76,88.76,0,0,1,585,607.17c-2.87,17.17-10.92,33.11-21.66,46.66a140.07,140.07,0,0,1-20,20.38c-.66.53.31,1.5.93.93,13.47-11.36,25.22-25,33.14-40.76a91.93,91.93,0,0,0,9.29-53.31,89.75,89.75,0,0,0-9.46-29.93.68.68,0,0,0-1.19.66Z" transform="translate(-284.87 -306.22)"/><path class="cls-4" d="M591.9,539.65A108.15,108.15,0,0,1,579.58,659a162.51,162.51,0,0,1-25.76,24.87c-.66.53.27,1.45.93.92,17.08-13.42,32.35-29.89,41.42-49.83a110.19,110.19,0,0,0,8.19-61.89A107.36,107.36,0,0,0,593.05,539c-.4-.75-1.55-.09-1.15.66Z" transform="translate(-284.87 -306.22)"/><path class="cls-4" d="M543,674.57c.75,5.94,5.64,12.37,12.28,9.81.8-.31.44-1.58-.35-1.27-5.81,2.24-10-3.39-10.61-8.54-.09-.84-1.41-.84-1.32,0Z" transform="translate(-284.87 -306.22)"/><path class="cls-4" d="M542.56,674.43a29.27,29.27,0,0,0-10.44,9.2c-.48.71.66,1.37,1.15.66a27.88,27.88,0,0,1,10-8.71c.74-.4.08-1.54-.66-1.15Z" transform="translate(-284.87 -306.22)"/><path class="cls-4" d="M532.26,684.82A78.66,78.66,0,0,0,560,728.75c.66.53,1.59-.39.93-.92a77.57,77.57,0,0,1-27.43-43.36.66.66,0,0,0-1.27.35Z" transform="translate(-284.87 -306.22)"/><path class="cls-4" d="M554.09,684.56c1.94,7.31,3.92,14.57,5.85,21.88,1.81,6.64,5.55,15.67.36,21.7-.58.66.39,1.58.92.92,4.84-5.63,2.64-13.2.92-19.63-2.24-8.41-4.53-16.82-6.77-25.22a.66.66,0,0,0-1.28.35Z" transform="translate(-284.87 -306.22)"/><path class="cls-4" d="M581.47,561a18.35,18.35,0,0,1,16.46-8.94c.84.05.84-1.27,0-1.32a19.7,19.7,0,0,0-17.61,9.6c-.44.7.71,1.36,1.15.66Z" transform="translate(-284.87 -306.22)"/><path class="cls-4" d="M586.4,580a17.47,17.47,0,0,1,11-6.25c.84-.14.48-1.41-.35-1.28a18.41,18.41,0,0,0-11.54,6.6c-.52.66.4,1.59.93.93Z" transform="translate(-284.87 -306.22)"/><path class="cls-4" d="M588.51,566.72a18,18,0,0,1,12.41-4.22c.84,0,.84-1.28,0-1.32a19.54,19.54,0,0,0-13.38,4.62c-.61.53.31,1.45,1,.92Z" transform="translate(-284.87 -306.22)"/><path class="cls-4" d="M586.88,605c1.85-2.33,5.15-2.29,7.88-2.2,3.3.13,7.4,1.27,7.88,5.15.09.83,1.41.83,1.32,0-.48-3.79-3.74-5.81-7.26-6.3s-8.36-.57-10.74,2.47c-.53.61.39,1.58.92.88Z" transform="translate(-284.87 -306.22)"/><path class="cls-4" d="M551.54,667.57c.3,5.1,2.81,11.75,8.67,12.41.83.09.83-1.23,0-1.32-5-.57-7.09-6.78-7.35-11.09-.05-.84-1.37-.84-1.32,0Z" transform="translate(-284.87 -306.22)"/><path class="cls-4" d="M560.34,658.54A15.34,15.34,0,0,0,566.5,668c.71.48,1.37-.66.66-1.15a14.16,14.16,0,0,1-5.54-8.67c-.18-.83-1.46-.48-1.28.35Z" transform="translate(-284.87 -306.22)"/><path class="cls-4" d="M567.82,658.1c2.07,2.65,4.4,5.33,7.84,6,.83.18,1.19-1.1.35-1.28-3.21-.61-5.33-3.21-7.26-5.67-.53-.66-1.46.3-.93,1Z" transform="translate(-284.87 -306.22)"/><path class="cls-4" d="M577.81,632.79a21.32,21.32,0,0,1,15.28,5.59c.62.58,1.58-.35.92-.92a22.41,22.41,0,0,0-16.2-5.94c-.83,0-.83,1.32,0,1.27Z" transform="translate(-284.87 -306.22)"/><path class="cls-4" d="M586.27,620.69a12.48,12.48,0,0,1,9.06,2.64c.66.53,1.59-.4.93-.92a13.89,13.89,0,0,0-10-3c-.84,0-.84,1.36,0,1.32Z" transform="translate(-284.87 -306.22)"/><path class="cls-6" d="M588.86,543.13a161.36,161.36,0,0,1,5.73,23.5c1.62,9.91,3.78,22.72,1.58,38.12-2.16,15.23-7.53,26-11.44,33.68a139.06,139.06,0,0,1-36.23,44.5l-5.42-8.58a73,73,0,0,0,13.34-10.79c4.76-4.88,7.57-9.15,11.75-15.58,5.29-8.1,8.06-12.37,10.79-18.44a86.61,86.61,0,0,0,7.61-32.09c.4-11.1-1.62-19.64-3.83-28.92a157.94,157.94,0,0,0-4.75-16.2C581.69,549.29,585.3,546.21,588.86,543.13Z" transform="translate(-284.87 -306.22)"/><path class="cls-6" d="M585.39,552.06a82.44,82.44,0,0,1,3.17,10.17,86.57,86.57,0,0,1,2.24,22.23c-.26,15.72-.53,30.2-6.34,45.43-9.9,25.84-30.68,40.36-40.67,46.39A277.93,277.93,0,0,0,561.88,655c8.54-11.05,12.77-16.6,16.2-23.51,11.8-23.77,8.67-47.23,7.61-53.7A87.77,87.77,0,0,0,579,555.54C581.16,554.4,583.27,553.21,585.39,552.06Z" transform="translate(-284.87 -306.22)"/></g><g id="lreg_right" data-name="lreg right"><path class="cls-5" d="M516.32,560.74c-1.85,2.11-1.76,4.53-2.46,13.77-1,13.38-1.41,10.61-1.94,19.59a391.66,391.66,0,0,0,.84,54.32,326.66,326.66,0,0,0,10.74,57.09c3.78,13,10.21,30.9,10.47,31.69,1.9,5.29,3.52,9.69,4.67,12.68.26.18,7,4,11.84.84a7,7,0,0,0,3.3-4.4,6.37,6.37,0,0,0-.84-4.41c-1.45-4.4-3.56-11-5.81-19-3.74-13.47-9.2-33.68-11.31-59.82-.79-10-.79-17.13-.83-29.23a381,381,0,0,1,1.67-41.07c.79-7.92,2.15-18.66,4.66-31.43C535.12,559,521.47,554.93,516.32,560.74Z" transform="translate(-284.87 -306.22)"/><path class="cls-4" d="M538.51,750.76a24.57,24.57,0,0,1,1.63,7,24.18,24.18,0,0,1-.14,5.77,41.34,41.34,0,0,0,9.07,3.83c1.41.39,2.91.75,5.5,1.36,3,.71,5.29,1.19,6.17,1.37,9.24,1.93,13.91,2.9,19.36,3.3a80.11,80.11,0,0,0,9.6.13c.79-1.28,2.38-4.23,1.36-7-.79-2.2-2.77-3.26-6.33-5.06-7.44-3.83-11.18-5.72-11.27-5.77-4.58-1.8-11.05-5.1-19.11-11.66a14.3,14.3,0,0,1-5.9,5.63A14.66,14.66,0,0,1,538.51,750.76Z" transform="translate(-284.87 -306.22)"/><path class="cls-4" d="M513.42,571.3A342.36,342.36,0,0,0,524.73,713a347.31,347.31,0,0,0,13.69,37.68c.35.79,1.45.09,1.14-.66A340,340,0,0,1,514.74,571.3c.08-.84-1.24-.79-1.32,0Z" transform="translate(-284.87 -306.22)"/><path class="cls-4" d="M537.45,575.88c-4.67,43.71-4.62,88.43,4.89,131.52A289.64,289.64,0,0,0,552.64,743c.3.79,1.58.44,1.27-.36-15-41.37-19.5-85.79-17.87-129.59.44-12.41,1.41-24.82,2.73-37.19.09-.88-1.23-.88-1.32,0Z" transform="translate(-284.87 -306.22)"/><path class="cls-4" d="M539,750.89A12.73,12.73,0,0,0,554.18,744c.35-.74-.8-1.45-1.15-.66a11.48,11.48,0,0,1-13.64,6.3c-.8-.27-1.15,1-.36,1.27Z" transform="translate(-284.87 -306.22)"/><path class="cls-4" d="M538.15,750.76a37.22,37.22,0,0,1,1.41,11,.66.66,0,0,0,1.32,0,38.26,38.26,0,0,0-1.45-11.4.66.66,0,0,0-1.28.35Z" transform="translate(-284.87 -306.22)"/><path class="cls-4" d="M539.61,763.13c6.16,4.84,14.66,5.68,22.09,7.26,8.94,1.9,18.1,4.49,27.3,3.92.83,0,.83-1.36,0-1.32-8.81.53-17.52-1.89-26.11-3.7-7.39-1.54-16.24-2.24-22.36-7.08-.66-.53-1.58.39-.92.92Z" transform="translate(-284.87 -306.22)"/><path class="cls-4" d="M554.09,744.29c5.81,5.28,12.68,9,19.68,12.5,3.56,1.76,7.13,3.44,10.65,5.24a14.67,14.67,0,0,1,4.93,3.35c2,2.42.88,5.45-.22,8-.31.79.79,1.45,1.14.66,1.37-3.26,2.56-6.91-.13-9.81s-7.44-4.58-11-6.34c-8.45-4.1-17-8.23-24.08-14.57-.61-.58-1.54.35-.92.92Z" transform="translate(-284.87 -306.22)"/><path class="cls-4" d="M511.83,594.94a32.34,32.34,0,0,0,23.95,2.33.66.66,0,0,0-.35-1.28,30.74,30.74,0,0,1-22.94-2.2c-.75-.39-1.41.75-.66,1.15Z" transform="translate(-284.87 -306.22)"/><path class="cls-4" d="M511.3,608.45a27.2,27.2,0,0,0,14.57,2.25c.84-.09.84-1.41,0-1.32A25.73,25.73,0,0,1,512,607.31c-.74-.36-1.4.79-.66,1.14Z" transform="translate(-284.87 -306.22)"/><path class="cls-4" d="M511.57,638.69a16.52,16.52,0,0,0,11.35,2.42c4.05-.44,9-1.36,12.51-3.52.7-.44,0-1.58-.66-1.14-3.26,2-8.06,2.9-11.85,3.34a15.49,15.49,0,0,1-10.69-2.24c-.71-.49-1.37.66-.66,1.14Z" transform="translate(-284.87 -306.22)"/><path class="cls-4" d="M514,657.88a24.91,24.91,0,0,0,22.1-1.76.66.66,0,0,0-.66-1.14,23.78,23.78,0,0,1-21.09,1.63c-.79-.31-1.1,1-.35,1.27Z" transform="translate(-284.87 -306.22)"/><path class="cls-4" d="M520.72,694.2c6.83,2.42,13.47-.66,19.24-4.18.7-.44,0-1.59-.66-1.15-5.5,3.35-11.75,6.34-18.22,4-.8-.26-1.15,1-.36,1.28Z" transform="translate(-284.87 -306.22)"/><path class="cls-4" d="M543.22,711.94a16.06,16.06,0,0,1-8.06,4.84.66.66,0,0,0,.35,1.28,17.23,17.23,0,0,0,8.67-5.15c.53-.66-.39-1.59-1-1Z" transform="translate(-284.87 -306.22)"/><path class="cls-4" d="M532.3,733.68a23.68,23.68,0,0,0,8.06-2.77.66.66,0,0,0-.66-1.14,22.21,22.21,0,0,1-7.71,2.64c-.88.13-.53,1.41.31,1.27Z" transform="translate(-284.87 -306.22)"/><path class="cls-7" d="M530.41,567a157,157,0,0,0-5.06,25.39c-1.77,15.24-.84,26.64.3,39.71,4.05,45,6.17,67.88,11.14,82.62A185.76,185.76,0,0,0,551.1,746.8c-.18.22-4,4.75-8.9,3.83a8.65,8.65,0,0,1-3.83-1.89A318.31,318.31,0,0,1,526,715.68c-3.61-11.53-14.52-48.6-14.92-99.13A366.88,366.88,0,0,1,513.9,568C519.4,567.6,524.9,567.29,530.41,567Z" transform="translate(-284.87 -306.22)"/><path class="cls-7" d="M513.9,578.43c.62,23.86,2.38,43.93,4.14,59.12,3,26.32,5.19,44.46,12.41,67.35a258.46,258.46,0,0,0,18.09,43.22L539,749.71q-4.56-9.71-8.58-20.34C509.41,673.77,508.75,620.34,513.9,578.43Z" transform="translate(-284.87 -306.22)"/></g><g id="hand_left" data-name="hand left"><path class="cls-5" d="M602.38,438.41c-.88.57-2,2.07-1.41,7.31A36.54,36.54,0,0,0,605.15,459c11.66,20.42,8.94,18.09,12.55,22.67,4.31,5.41,10.38,13.07,21.12,17.78,4.63,2,10.88,4.8,17.79,2.95a34.57,34.57,0,0,0,10.47-4.89,38.41,38.41,0,0,1,6.83-4.53,34.7,34.7,0,0,1,4.71-1.94,8.13,8.13,0,0,0,3.47,1.06c2.29.13,3-.84,5.42-1.06a11.46,11.46,0,0,1,5.94,1.23c2.82,1.5,3.35,3.61,4.53,3.3s1.72-3,1.77-4.35a8.14,8.14,0,0,0-1.24-4.36,11.12,11.12,0,0,0-3.83-4,7.77,7.77,0,0,0-1.93-3.47,8.06,8.06,0,0,0-4-2.29,5.3,5.3,0,0,0-1.23-2.6c-2.11-2.38-5.81-1.72-6.82-1.58a10.68,10.68,0,0,0-6.3,3.83,5,5,0,0,0-3.12-.71,5.35,5.35,0,0,0-3.48,2.29,7.35,7.35,0,0,0-1.23,5.59,20.23,20.23,0,0,0-6.48,1.76c-2.68,1.28-3.56,2.51-6.11,3.48a12,12,0,0,1-6.12.88,11.11,11.11,0,0,1-4.89-2.11,54.37,54.37,0,0,1-12.37-12.55c-13.25-19.94-11.93-17.17-13.25-19.72C613,447.39,610,439,605.15,438A4,4,0,0,0,602.38,438.41Z" transform="translate(-284.87 -306.22)"/><path class="cls-4" d="M607.53,438.15A178.69,178.69,0,0,0,629.14,474c7.31,9.42,17,21.34,30.5,18.79.84-.17.49-1.45-.35-1.27-13.78,2.59-23.86-11.23-31-20.83a177.83,177.83,0,0,1-19.58-33.19c-.4-.79-1.55-.13-1.19.67Z" transform="translate(-284.87 -306.22)"/><path class="cls-4" d="M645.6,490a15.28,15.28,0,0,0,5.77.58,15.79,15.79,0,0,0,5.15-2.25,30,30,0,0,1,14.26-3.87.66.66,0,0,0,0-1.32,31.9,31.9,0,0,0-11.58,2.37c-1.8.75-3.43,1.81-5.15,2.69-2.72,1.41-5.19,1.23-8.1.53a.66.66,0,0,0-.35,1.27Z" transform="translate(-284.87 -306.22)"/><path class="cls-4" d="M602.51,454.7c5.9,12.54,12,25.39,21.92,35.3,8.72,8.63,21.66,15.89,34.2,12.24a36.49,36.49,0,0,0,9.51-4.54c3.3-2.16,6.51-5.46,10.7-5.5a.66.66,0,0,0,0-1.32c-5.68.09-10.13,5.28-14.93,7.79a26.07,26.07,0,0,1-20.9,1.72c-12.46-4.14-21.79-14.35-28.53-25.23a205.62,205.62,0,0,1-10.87-21.08c-.31-.84-1.45-.13-1.1.62Z" transform="translate(-284.87 -306.22)"/><path class="cls-4" d="M670.56,484c4,.18,9.73,2.2,8.58,7.31-.17.84,1.11,1.19,1.28.35,1.37-6-5-8.76-9.86-9-.84,0-.84,1.28,0,1.32Z" transform="translate(-284.87 -306.22)"/><path class="cls-4" d="M667.44,483.35a33.57,33.57,0,0,1,1-4.75c.75-2.16,3.83-1.63,5.64-1.32.83.13,1.19-1.15.35-1.28-1.85-.31-4.75-.84-6.29.62s-1.54,4.49-1.94,6.42c-.18.8,1.1,1.15,1.28.31Z" transform="translate(-284.87 -306.22)"/><path class="cls-4" d="M671.79,479.74a80.64,80.64,0,0,0,6.78-4.75c1.63-1.23,3.3-2.11,5.42-1.63a7.58,7.58,0,0,1,4.49,3.48c.48.7,1.63,0,1.14-.66-1.8-2.69-4.66-4.8-8.1-4.18a10.16,10.16,0,0,0-4.44,2.46,69.38,69.38,0,0,1-6,4.14c-.66.44,0,1.58.7,1.14Z" transform="translate(-284.87 -306.22)"/><path class="cls-4" d="M681.3,480.58a27.6,27.6,0,0,0,5.28-1.89,4.35,4.35,0,0,1,3-.4,6.34,6.34,0,0,1,1.63,1.06,23.6,23.6,0,0,1,2.73,2.46c.62.62,1.54-.35.92-.92-1.54-1.54-3.87-4.1-6.25-4.18a5.66,5.66,0,0,0-2.77.88,18.63,18.63,0,0,1-5,1.76c-.8.13-.44,1.4.39,1.23Z" transform="translate(-284.87 -306.22)"/><path class="cls-4" d="M684.38,484.58a43,43,0,0,0,6.3-1c1.58-.35,3.17-.75,4.62.22a9.61,9.61,0,0,1,2.73,3.35c.44.7,1.58,0,1.14-.66-1.23-2-2.73-4.18-5.24-4.62a9.26,9.26,0,0,0-3.65.44,44.27,44.27,0,0,1-5.94,1c-.79.05-.79,1.37,0,1.32Z" transform="translate(-284.87 -306.22)"/><path class="cls-4" d="M680.25,492.6c2.68,1,5-.18,7.61-.8,4-.92,6.82,1.59,9.46,4.18.62.62,1.54-.35.93-.92-2.11-2.07-4.4-4.23-7.44-4.71-3.52-.57-6.78,2.29-10.26,1-.75-.31-1.1,1-.3,1.28Z" transform="translate(-284.87 -306.22)"/><path class="cls-4" d="M690.15,487.45a13.63,13.63,0,0,1,6.6,1.27,3.8,3.8,0,0,1,.75,6.47c-.66.53.26,1.46.92.93a5.06,5.06,0,0,0,1-7c-2-2.64-6.16-3.17-9.24-3.08a.69.69,0,0,0,0,1.37Z" transform="translate(-284.87 -306.22)"/><path class="cls-4" d="M697.81,486.92a7,7,0,0,1,.66,2.59c0,.84,1.36.84,1.32,0a9.56,9.56,0,0,0-.84-3.3c-.35-.7-1.49,0-1.14.71Z" transform="translate(-284.87 -306.22)"/><path class="cls-4" d="M608.5,464.82a10.17,10.17,0,0,1,9-7.66c.83-.09.83-1.41,0-1.32a11.46,11.46,0,0,0-10.26,8.63c-.18.83,1.1,1.19,1.28.35Z" transform="translate(-284.87 -306.22)"/><path class="cls-4" d="M613.6,473.32a8.69,8.69,0,0,1,2.64-6.34.65.65,0,0,0-.92-.93,10.13,10.13,0,0,0-3,7.31c0,.79,1.32.79,1.32,0Z" transform="translate(-284.87 -306.22)"/><path class="cls-4" d="M617.34,479a12.09,12.09,0,0,1,8.1-10.3c.79-.26.44-1.54-.35-1.28A13.52,13.52,0,0,0,616,479c-.09.84,1.24.84,1.32,0Z" transform="translate(-284.87 -306.22)"/><path class="cls-4" d="M624,487.84a10.6,10.6,0,0,1,8.54-9.59c.83-.18.48-1.46-.36-1.28a11.88,11.88,0,0,0-9.5,10.83c0,.88,1.27.88,1.32,0Z" transform="translate(-284.87 -306.22)"/><path class="cls-4" d="M633.59,496.43a12.25,12.25,0,0,1,6.29-9.38c.75-.4.09-1.54-.66-1.15a13.53,13.53,0,0,0-7,10.53c-.09.83,1.23.83,1.32,0Z" transform="translate(-284.87 -306.22)"/><path class="cls-4" d="M644.59,489.65a10.7,10.7,0,0,1,.66,11.62.66.66,0,0,0,1.15.66,12.18,12.18,0,0,0-.67-13c-.48-.66-1.62,0-1.14.71Z" transform="translate(-284.87 -306.22)"/><path class="cls-4" d="M659.82,485.73c.13.66.44.84,1.06,1.06a16.82,16.82,0,0,1,3.52,1.32,8.51,8.51,0,0,1,3.78,7.21.66.66,0,0,0,1.32,0,9.69,9.69,0,0,0-2.28-6.47,10.49,10.49,0,0,0-2.6-2.2c-.44-.26-3.48-1.1-3.52-1.32-.18-.79-1.46-.44-1.28.4Z" transform="translate(-284.87 -306.22)"/><path class="cls-7" d="M605.41,444.66c2.29-.18,3.7,9.11,7.93,19.06,3.56,8.32,11.31,26.45,27,31.47A39.81,39.81,0,0,0,669,492.64c4-2.11,6.16-4.31,11.44-5.41,5.94-1.24,14.92-.84,17.48,4.13a6.83,6.83,0,0,1,.61,4.14c-2.46-3-4.71-3.92-6.34-4.14-2.33-.31-3.61.71-7,1a19.59,19.59,0,0,1-6.34-.61,51.07,51.07,0,0,0-9.86,4.75c-3.75,2.33-4.63,3.56-7.31,4.75-4.62,2-9,1.46-12.72,1a41.63,41.63,0,0,1-18.45-7.61,56.24,56.24,0,0,1-12.06-11.76,102.83,102.83,0,0,1-16.2-29.22C602.82,449.37,603.79,444.79,605.41,444.66Z" transform="translate(-284.87 -306.22)"/></g><g id="torso"><path class="cls-4" d="M502.28,455.49c.53,2.68,1.19,6.38,1.85,10.78a226.43,226.43,0,0,1,2.07,29.58,264,264,0,0,1-3,42c-1.36,9.11-3,16.68-4.35,22.27a62.37,62.37,0,0,0,36,16.77c16.86-26.45,29.62-46,37.41-57.8,17.61-26.8,29.89-44.89,34.86-72.71a117.7,117.7,0,0,0,1.59-12.15,88.94,88.94,0,0,0-25-2.78,102.88,102.88,0,0,0-15.14,1.85,232.46,232.46,0,0,0-35.35,9.16A237.22,237.22,0,0,0,502.28,455.49Z" transform="translate(-284.87 -306.22)"/><path class="cls-5" d="M537.14,459.49c.44,3.79.93,8.85,1.28,14.88.44,7.4.44,13.25.44,17.48-.09,17.69-1.1,35.08-1.28,38.38-.75,12.55-1.76,28.44-3.21,47,8.41-3.39,15.14-6.65,19.81-9.07a261.9,261.9,0,0,0,37.5-23.73c6.65-4.88,12-9.15,15.54-12.06,1-9.33,1.63-17.38,2.16-23.72.66-8.1,1.27-15.8,1.71-26.06.27-6.08.4-9.16.44-13.38A194.61,194.61,0,0,0,610,442.46c-.44-3.43-.93-6.25-1.28-8.19a250.17,250.17,0,0,0-40.32,11.23A246.12,246.12,0,0,0,537.14,459.49Z" transform="translate(-284.87 -306.22)"/><path class="cls-4" d="M502.59,455.71c25.35-12.81,52.42-20.29,80.55-23.82.84-.08.84-1.4,0-1.32A265.36,265.36,0,0,0,540.93,439a234.61,234.61,0,0,0-39,15.53c-.79.4-.13,1.54.66,1.15Z" transform="translate(-284.87 -306.22)"/><path class="cls-4" d="M502.32,456.28c5.95-.31,11.84.62,17.74,1.41,5.64.79,11.27,1.54,17,2.33.84.13,1.19-1.14.35-1.27-5.94-.84-11.84-1.63-17.78-2.47-5.72-.79-11.45-1.63-17.26-1.32-.83,0-.83,1.36,0,1.32Z" transform="translate(-284.87 -306.22)"/><path class="cls-4" d="M582.44,432.16a82.89,82.89,0,0,1,26.5,2.64.66.66,0,0,0,.35-1.28,83.79,83.79,0,0,0-26.85-2.68c-.84.09-.84,1.41,0,1.32Z" transform="translate(-284.87 -306.22)"/><path class="cls-4" d="M538.2,459.54a295.29,295.29,0,0,1,70.65-24.39c.83-.17.48-1.45-.35-1.27a298.44,298.44,0,0,0-71,24.51c-.7.4,0,1.54.71,1.15Z" transform="translate(-284.87 -306.22)"/><path class="cls-4" d="M536,459.41c3.83,30.1,1.94,60.52,0,90.67-.57,8.89-1.14,17.79-2.42,26.59-.13.84,1.15,1.19,1.28.35,2.2-15,2.77-30.37,3.61-45.56s1.41-30.55.92-45.82c-.31-8.76-.92-17.56-2.07-26.23-.13-.84-1.45-.84-1.32,0Z" transform="translate(-284.87 -306.22)"/><path class="cls-4" d="M502.15,455.27a275.41,275.41,0,0,1-3.3,103.62c-.18.83,1.1,1.19,1.27.35a277,277,0,0,0,3.3-104.32c-.13-.84-1.4-.49-1.27.35Z" transform="translate(-284.87 -306.22)"/><path class="cls-4" d="M498.67,559.9a62.58,62.58,0,0,0,35.17,17.69c.84.14,1.19-1.14.35-1.27a61.75,61.75,0,0,1-34.6-17.39c-.61-.53-1.54.4-.92,1Z" transform="translate(-284.87 -306.22)"/><path class="cls-4" d="M607.92,435.06c5.68,32.18,2,64.93-1.71,97.15-.09.84,1.23.84,1.32,0,3.69-32.31,7.39-65.14,1.67-97.5-.13-.83-1.41-.48-1.28.35Z" transform="translate(-284.87 -306.22)"/><path class="cls-4" d="M606.25,532.12a297.61,297.61,0,0,1-72.67,45c-.8.35-.09,1.49.66,1.14a299.27,299.27,0,0,0,72.93-45.12c.67-.57-.26-1.49-.92-1Z" transform="translate(-284.87 -306.22)"/><path class="cls-4" d="M541.76,464.12a1.92,1.92,0,0,1,2.16-3.17,1.93,1.93,0,1,1-2.46,2.95c-.49-.44-1.19.26-.71.7a2.92,2.92,0,1,0,3.92-4.31,3,3,0,0,0-4,.35,3,3,0,0,0,.44,4.18c.53.4,1.23-.31.7-.7Z" transform="translate(-284.87 -306.22)"/><path class="cls-4" d="M542.86,471.25l.66,15.05c.05.62,1,.66,1,0l-.66-15.05c0-.62-1.06-.62-1,0Z" transform="translate(-284.87 -306.22)"/><path class="cls-4" d="M543.39,471.47A306.26,306.26,0,0,1,587,456.41a.5.5,0,0,0-.26-1,315.38,315.38,0,0,0-43.84,15.15c-.62.3-.09,1.14.48.88Z" transform="translate(-284.87 -306.22)"/><path class="cls-4" d="M544.36,486.43a190.54,190.54,0,0,1,36-14.7.5.5,0,0,0-.27-1,191.88,191.88,0,0,0-36.22,14.84c-.58.26-.09,1.1.48.83Z" transform="translate(-284.87 -306.22)"/><path class="cls-4" d="M586.4,456.06c-2.07,5-4.18,10-6.25,15.05-.27.58.7.84,1,.27,2.07-5,4.18-10,6.25-15.06.22-.57-.75-.83-1-.26Z" transform="translate(-284.87 -306.22)"/><path class="cls-4" d="M588.73,455.84c-1.94,4.84-3.92,9.68-6,14.48-.26.57.62,1.1.84.49,2.07-4.89,4.14-9.78,6.08-14.71.3-.57-.66-.83-.93-.26Z" transform="translate(-284.87 -306.22)"/><path class="cls-4" d="M583.54,471.2l12.23-5.28c.58-.26.09-1.1-.48-.84-4.09,1.76-8.14,3.53-12.24,5.29-.57.22-.09,1.1.49.83Z" transform="translate(-284.87 -306.22)"/><path class="cls-4" d="M589.83,456.19a42.1,42.1,0,0,1,7.66-2.33c.62-.13.35-1.1-.26-1a39,39,0,0,0-7.66,2.33c-.57.22-.35,1.19.26,1Z" transform="translate(-284.87 -306.22)"/><path class="cls-4" d="M597.09,453.77c-.88,3.66-1.58,7.35-2.15,11.09-.09.62.88.88,1,.27.57-3.74,1.27-7.44,2.15-11.09.14-.62-.83-.88-1-.27Z" transform="translate(-284.87 -306.22)"/><path class="cls-4" d="M600.66,530.5q-16,9.11-32.13,18.22c-.58.31,0,1.19.48.84q16.05-9.12,32.13-18.23c.58-.31.05-1.14-.48-.83Z" transform="translate(-284.87 -306.22)"/><path class="cls-4" d="M569.63,527.11c.31,3.52-.22,7.17-.49,10.74-.26,3.78-.52,7.57-.83,11.35,0,.62.92.62,1,0,.26-3.78.53-7.57.84-11.35.26-3.53.79-7.18.48-10.74-.09-.62-1.1-.62-1,0Z" transform="translate(-284.87 -306.22)"/><path class="cls-4" d="M570.24,527.11A189.66,189.66,0,0,1,603,512.58a.5.5,0,0,0-.26-1,191.88,191.88,0,0,0-33,14.62c-.53.3,0,1.18.52.88Z" transform="translate(-284.87 -306.22)"/><path class="cls-4" d="M602.77,512.45A140.87,140.87,0,0,1,600,530.63c-.13.61.84.88,1,.26a145,145,0,0,0,2.78-18.44c0-.62-.93-.62-1,0Z" transform="translate(-284.87 -306.22)"/><path class="cls-5" d="M503.64,455.88a134.48,134.48,0,0,1,22.5,3.57.66.66,0,0,0,.35-1.28,134.18,134.18,0,0,0-22.85-3.61c-.83-.08-.83,1.24,0,1.32Z" transform="translate(-284.87 -306.22)"/><path class="cls-8" d="M578.48,442.59c-2.16,3.92-5.51,10.21-9.16,18.05-9.86,21.17-34.38,73.82-18.05,89.75,3,2.91,9.64,6.82,26.15,3.39q-21.33,11.76-42.65,23.55c2.11-19.68,3.12-36.53,3.65-49.74.35-8.8.79-20.29.53-35.61-.22-12.72-.88-23.64-1.59-32.18,4.89-2.64,10.21-5.28,16-7.83A225.8,225.8,0,0,1,578.48,442.59Z" transform="translate(-284.87 -306.22)"/></g><g id="hand_right" data-name="hand right"><path class="cls-5" d="M405.22,350.28c-.79,1.11.22,3,.7,4,.88,1.67,3.13,5.11,9.07,7.66-2.2.48-3.08,1.36-3.48,2.11-.79,1.46.18,2.47.18,5.94,0,2.56-.57,2.95-.35,5.07a11.57,11.57,0,0,0,1.23,4.18,32.67,32.67,0,0,0,.53,3.48,8.53,8.53,0,0,0,.53,1.93c.92,1.68,3.52,2.56,5.76,2.12a6.39,6.39,0,0,0,4.19-3.48,4.87,4.87,0,0,0,3.12,2.42c1.45.26,2.42-.57,5.24-1.23a17.23,17.23,0,0,1,3.3-.53c-.09,1.63-.22,4.05-.35,7-.4,9.73-.62,14.83-.18,21a99.94,99.94,0,0,0,2.29,15,85.94,85.94,0,0,0,6.3,19c2.28,4.79,5.85,12.32,13.42,19.54a51.41,51.41,0,0,0,25,13.78,50.08,50.08,0,0,0,22.84-.53c3.61-1.94,7.22-3.83,10.83-5.77a7.7,7.7,0,0,0,1.41-4.35,8.69,8.69,0,0,0-4.88-7.49,61.62,61.62,0,0,1-9.25,1.59A49.81,49.81,0,0,1,483.09,461c-3.66-1.1-13.34-4.23-20.78-13.25-3.52-4.27-5.06-8.1-7.66-14.66A106.51,106.51,0,0,1,449.06,413c-2.68-13.56-4.05-20.38-2.77-27,.66-3.43,1.89-7.53,1-13.25s-3-8.45-3.65-9.24a20,20,0,0,0-5.24-4.36c-2.24-1.41-1.8-.62-5.59-2.6a4.46,4.46,0,0,0-2.42-.7,4.29,4.29,0,0,0-2.6,1.23c-2.77-.79-5.1-1.54-6.82-2.11a54.69,54.69,0,0,1-6.82-2.42c-2.33-1.32-3.17-2.47-5.42-2.78C408.08,349.49,406,349.18,405.22,350.28Z" transform="translate(-284.87 -306.22)"/><path class="cls-4" d="M446.68,375a101.79,101.79,0,0,0,.05,29,137.08,137.08,0,0,0,6.91,28.78c2.86,7.8,7,15.1,13.47,20.47a45.08,45.08,0,0,0,19.54,9.25,50.33,50.33,0,0,0,24.65-1.06c.8-.26.49-1.54-.35-1.28-13.82,4.14-29.67,2.07-41.38-6.6-6.69-5-11.18-12-14.13-19.67a133.86,133.86,0,0,1-6.73-25.71,104.26,104.26,0,0,1-.75-32.88c.13-.8-1.14-1.15-1.28-.31Z" transform="translate(-284.87 -306.22)"/><path class="cls-4" d="M434.45,384.05c-1.63,21.7-.93,44.46,9.2,64.22,8.49,16.59,23.46,29.93,42.43,32.22,10.3,1.23,20.95-.92,29.49-6.95.71-.49,0-1.63-.66-1.15-15.36,10.87-36.71,8.54-51.45-2.24-15.59-11.45-24-30.11-26.9-48.78-1.94-12.32-1.72-24.91-.79-37.32.09-.84-1.23-.84-1.32,0Z" transform="translate(-284.87 -306.22)"/><path class="cls-4" d="M510.91,461.39a7.45,7.45,0,0,1,3.39,11.27c-.49.7.66,1.36,1.14.66a8.77,8.77,0,0,0-4.18-13.21c-.79-.31-1.15,1-.35,1.28Z" transform="translate(-284.87 -306.22)"/><path class="cls-4" d="M438.32,369c1.54-2.86-2.77-2.55-4.18-3a14.59,14.59,0,0,1-5.24-3.65c-2-2.12-2.16-6.47,2-5.68,8.23,1.63,17,9.15,15.72,18.18-.14.83,1.14,1.19,1.27.35,1.41-10.13-7.92-17.87-17-19.9-3.35-.75-5.5,2.42-4.49,5.51.61,1.84,2.24,3.21,3.74,4.31a16.38,16.38,0,0,0,3,1.89c.49.18,4.23.93,4,1.32-.31.75.84,1.41,1.23.66Z" transform="translate(-284.87 -306.22)"/><path class="cls-4" d="M426.61,355.83a66.45,66.45,0,0,1-15.14-5.5c-2.2-1.15-6.73-3.21-6.82,1.14,0,3.48,3.08,7,5.68,8.94,3.91,2.95,8.8,4,13.51,4.75.84.13,1.19-1.14.35-1.27-6.82-1.06-15.76-3.44-18-11.05a3.71,3.71,0,0,1-.26-1.37c.83-1.41,1.76-1.71,2.9-1,.8.35,1.5.79,2.29,1.19,1.45.7,2.91,1.41,4.4,2a65.68,65.68,0,0,0,10.7,3.44.66.66,0,0,0,.35-1.28Z" transform="translate(-284.87 -306.22)"/><path class="cls-4" d="M413.85,361.42c-2.47.71-3.48,3.74-3.39,6.08a8.8,8.8,0,0,0,4.58,7c2.28,1.41,5.76,2.51,8.18.71a3.66,3.66,0,0,0,.62-5.46c-.57-.62-1.5.31-.93.93a2.35,2.35,0,0,1-.57,3.52,4.8,4.8,0,0,1-3.39.44,10.3,10.3,0,0,1-4.71-2.38,7,7,0,0,1-2.37-4.27c-.27-1.8.26-4.71,2.33-5.33.84-.17.48-1.45-.35-1.23Z" transform="translate(-284.87 -306.22)"/><path class="cls-4" d="M411.25,370.23a9.48,9.48,0,0,0,2.64,10.69,6.66,6.66,0,0,0,5.15,1.54c1.81-.35,2.86-1.63,3.92-3,.48-.7-.66-1.36-1.15-.66-1.14,1.55-2.46,2.73-4.49,2.34a6.33,6.33,0,0,1-4-2.78,8.26,8.26,0,0,1-.75-7.7c.26-.84-1-1.19-1.32-.39Z" transform="translate(-284.87 -306.22)"/><path class="cls-4" d="M411.69,379.16c.13,3.61,1.54,7.79,5.59,8.58,4.31.84,6.65-3.56,7.75-7,.26-.8-1-1.15-1.28-.36-.88,2.73-2.68,6.78-6.29,6-3.35-.7-4.36-4.27-4.45-7.22a.66.66,0,0,0-1.32,0Z" transform="translate(-284.87 -306.22)"/><path class="cls-4" d="M423.18,383.21c.44,1.94,2.42,2.64,4.22,2.91,2.87.44,5-1,7.75-1.32.84-.09.84-1.41,0-1.33a34.06,34.06,0,0,0-3.92,1.06c-1.71.49-6.2.88-6.77-1.67-.18-.84-1.46-.49-1.28.35Z" transform="translate(-284.87 -306.22)"/><path class="cls-4" d="M435.2,384.53a10.12,10.12,0,0,0,12-3.78c.49-.71-.66-1.37-1.14-.66a8.79,8.79,0,0,1-10.52,3.16c-.79-.3-1.1,1-.35,1.28Z" transform="translate(-284.87 -306.22)"/><path class="cls-4" d="M485,462.71c1.72,1.67,1.33,6,1.19,8.23a11.81,11.81,0,0,1-3,7.7c-.58.62.35,1.54.92.93a13.32,13.32,0,0,0,3.39-8.63c.18-2.64.53-7.13-1.54-9.2a.67.67,0,0,0-.93,1Z" transform="translate(-284.87 -306.22)"/><path class="cls-4" d="M498.1,463.54a16.93,16.93,0,0,1,.13,15.89c-.4.75.75,1.41,1.14.66a18.31,18.31,0,0,0-.13-17.21c-.39-.79-1.54-.08-1.14.66Z" transform="translate(-284.87 -306.22)"/><path class="cls-4" d="M435.2,411.25a15.77,15.77,0,0,0,13.11-1.32.66.66,0,0,0-.66-1.15,14.54,14.54,0,0,1-12.1,1.19c-.79-.26-1.15,1-.35,1.28Z" transform="translate(-284.87 -306.22)"/><path class="cls-4" d="M439.25,437A14.62,14.62,0,0,0,454,431.63c.53-.66-.61-1.32-1.14-.66a13.21,13.21,0,0,1-13.25,4.8c-.84-.18-1.19,1.1-.35,1.27Z" transform="translate(-284.87 -306.22)"/><path class="cls-4" d="M463.32,449.68a8.23,8.23,0,0,1-2.37,6.47c-.62.61.35,1.54.92.92a9.5,9.5,0,0,0,2.77-7.44c0-.79-1.36-.79-1.32.05Z" transform="translate(-284.87 -306.22)"/><path class="cls-4" d="M435.94,423.93a8.45,8.45,0,0,0,6,.44.66.66,0,0,0-.35-1.28,7.25,7.25,0,0,1-5-.31c-.74-.35-1.45.8-.66,1.15Z" transform="translate(-284.87 -306.22)"/><path class="cls-4" d="M434.93,393A16.77,16.77,0,0,0,446,391.93c.79-.36.09-1.5-.66-1.15a15.47,15.47,0,0,1-10,.93.66.66,0,0,0-.35,1.27Z" transform="translate(-284.87 -306.22)"/><path class="cls-4" d="M446.9,453.77a12.2,12.2,0,0,0,14.49-7.92c.26-.79-1-1.15-1.28-.35a10.83,10.83,0,0,1-12.85,7,.67.67,0,0,0-.36,1.28Z" transform="translate(-284.87 -306.22)"/><path class="cls-4" d="M473.8,458.22c1.89,5.59-3.87,11.22-8.23,13.6-.75.4-.09,1.54.66,1.14,4.88-2.64,11-8.93,8.85-15-.27-.84-1.54-.48-1.28.31Z" transform="translate(-284.87 -306.22)"/><path class="cls-6" d="M416.22,363.89c1.59,1.63-.3,4.35,1.06,6.11.75.93,2.42,1.63,6.52.84a9,9,0,0,0,.44,3,10.09,10.09,0,0,0,3.34,4.62c2.86,2.12,7.13,2.16,11,.22.18,2.64.49,6.39.84,11,2.07,26.15,2.86,30.86,4,35.35,1.32,5.28,3,11.84,7.35,19.15,2.73,4.53,11.89,19.32,30.73,25.22A54.13,54.13,0,0,0,516,468.25c-.26,1.81-.57,3.66-.84,5.46a46,46,0,0,1-9,4.23,51.55,51.55,0,0,1-18.93,2.11c-18.35-1.67-31.12-15.67-34.29-19.15-11.44-12.59-14.7-26.36-16.2-32.62-2.2-9.37-2.37-18-2.51-24.21a148.82,148.82,0,0,1,.84-19.36,9.3,9.3,0,0,1-5.46.83,9.9,9.9,0,0,1-5.46-2.73,6,6,0,0,1-3.17,3.57,6,6,0,0,1-4.84,0c-2-1-2.51-3.21-3.56-7.57a43.3,43.3,0,0,1-1.06-7.57c-.53-6.65.18-7.44.62-7.79A3.39,3.39,0,0,1,416.22,363.89Z" transform="translate(-284.87 -306.22)"/><path class="cls-9" d="M443.56,445.5c1.32,1.54,3.34,3.78,5.9,6.29,4.49,4.45,14.7,14.61,26.1,19.37,15.89,6.6,32.31,2,39.75-.62-.27.93-.57,1.81-.84,2.73-2.2,1.19-23.06,12-45.2,1.45C450.78,466,444.62,448.67,443.56,445.5Z" transform="translate(-284.87 -306.22)"/></g><g id="head"><path class="cls-5" d="M543.17,419.57a43.47,43.47,0,0,0-.66,6.21,50.47,50.47,0,0,0,.53,9.33,48.62,48.62,0,0,0,1.1,5.41,23.69,23.69,0,0,0,7.57.79,24.38,24.38,0,0,0,9.33-2.42c-.08-1.19-.17-3.08-.39-5.41-.49-5.24-.88-7.09-.93-10.52a51.14,51.14,0,0,1,.27-6.34,20.18,20.18,0,0,0-9.86-.13A18.77,18.77,0,0,0,543.17,419.57Z" transform="translate(-284.87 -306.22)"/><path class="cls-4" d="M542.6,419.09c-1.5,7-.53,14,.57,20.9.13.84,1.41.49,1.28-.35-1.06-6.69-2-13.51-.57-20.2.17-.84-1.1-1.19-1.28-.35Z" transform="translate(-284.87 -306.22)"/><path class="cls-4" d="M543.48,420c2-1.76,4.89-2.38,7.4-2.91a22.31,22.31,0,0,1,8.54-.13c.83.18,1.18-1.1.35-1.27a23.24,23.24,0,0,0-9.25.13c-2.81.57-5.81,1.27-8,3.26-.57.57.35,1.49,1,.92Z" transform="translate(-284.87 -306.22)"/><path class="cls-4" d="M559.28,416.53a92.94,92.94,0,0,0,1.1,22.1c.14.84,1.41.48,1.28-.35a90.63,90.63,0,0,1-1.06-21.75c0-.83-1.27-.83-1.32,0Z" transform="translate(-284.87 -306.22)"/><path class="cls-4" d="M543.44,440.43c2.15,1.72,5.81,1.5,8.45,1.41a19.38,19.38,0,0,0,9.37-2.46.66.66,0,0,0-.66-1.15,17.36,17.36,0,0,1-8,2.29c-2.25.13-6.39.44-8.23-1-.71-.53-1.63.4-1,.92Z" transform="translate(-284.87 -306.22)"/><path class="cls-4" d="M543.22,427.27c1.63-2.29,4.35-3,7-3.61,2.94-.66,6-1.27,8.71.4a.66.66,0,0,0,.66-1.15c-3-1.84-6.43-1.27-9.73-.52-3,.7-5.9,1.63-7.79,4.22-.48.66.66,1.32,1.15.66Z" transform="translate(-284.87 -306.22)"/><path class="cls-4" d="M543.48,434.8a19.35,19.35,0,0,1,16.07-4c.83.17,1.19-1.1.35-1.28a20.75,20.75,0,0,0-17.34,4.32c-.66.52.26,1.45.92.92Z" transform="translate(-284.87 -306.22)"/><path class="cls-4" d="M550.83,436.6a11.38,11.38,0,0,1,4.71-.88c1.15,0,3.7-.13,4.49.8.57.66,1.5-.31.93-.93-1-1.19-3.31-1-4.71-1.14a13.81,13.81,0,0,0-6.08,1.05c-.79.31-.13,1.41.66,1.1Z" transform="translate(-284.87 -306.22)"/><path class="cls-4" d="M501.71,414.68a58.57,58.57,0,0,0,17.12,6.47c8.1,1.68,14.39,1.15,21.48.53a131.4,131.4,0,0,0,24.7-4.84,148.94,148.94,0,0,0,29.71-12.41,110,110,0,0,0,2-15,107.69,107.69,0,0,0-.13-16.2,86.2,86.2,0,0,0-9-8.63,81.4,81.4,0,0,0-9.34-6.73Q540,386.29,501.71,414.68Z" transform="translate(-284.87 -306.22)"/><path class="cls-5" d="M578.12,357.86a80.41,80.41,0,0,1,2,9.2,81.58,81.58,0,0,1,.13,22.8,83.46,83.46,0,0,1-2.55,12.54c-1.59,1-3.79,2.25-6.47,3.66a101.65,101.65,0,0,1-19,7.57,105.74,105.74,0,0,1-23.37,3.52,113.33,113.33,0,0,1-27.56-2.29c.79-13.43,1.63-26.81,2.42-40.23,2.51-1.24,6-2.86,10.26-4.58a171.09,171.09,0,0,1,33.5-9.33A183.69,183.69,0,0,1,578.12,357.86Z" transform="translate(-284.87 -306.22)"/><path class="cls-4" d="M503.34,374.58c-.93,13.38-1.85,26.81-2.73,40.19-.05.84,1.27.84,1.32,0,.92-13.38,1.85-26.81,2.73-40.19,0-.88-1.28-.88-1.32,0Z" transform="translate(-284.87 -306.22)"/><path class="cls-4" d="M504.7,374.76a176.25,176.25,0,0,1,72.67-16.11.66.66,0,0,0,0-1.32A177.36,177.36,0,0,0,504,373.61c-.75.36-.09,1.5.66,1.15Z" transform="translate(-284.87 -306.22)"/><path class="cls-4" d="M501.09,415.17A101,101,0,0,0,578,403.06c.71-.44.05-1.58-.66-1.14a99.93,99.93,0,0,1-75.93,12,.66.66,0,0,0-.35,1.28Z" transform="translate(-284.87 -306.22)"/><path class="cls-4" d="M577.15,358.08a80.17,80.17,0,0,1-.35,44.76c-.26.84,1,1.15,1.28.35a81.12,81.12,0,0,0,.35-45.47.67.67,0,0,0-1.28.36Z" transform="translate(-284.87 -306.22)"/><path class="cls-4" d="M577.9,358.25A74.5,74.5,0,0,1,596,374.63c.53.66,1.46-.27.93-.93a75.78,75.78,0,0,0-18.36-16.55c-.7-.53-1.36.62-.66,1.1Z" transform="translate(-284.87 -306.22)"/><path class="cls-4" d="M595.73,374.23A105.46,105.46,0,0,1,594,404.87c-.17.83,1.1,1.19,1.28.35a105.84,105.84,0,0,0,1.76-31c-.09-.88-1.41-.88-1.32,0Z" transform="translate(-284.87 -306.22)"/><path class="cls-4" d="M501.18,415.56c3.65,1.5,7.31,2.95,11,4.45a32.72,32.72,0,0,0,8.41,1.89,89.63,89.63,0,0,0,20.38.53c11.4-1,22.67-4.23,33.36-8.14a156.65,156.65,0,0,0,21-9.47c.74-.39.08-1.54-.66-1.14a166.68,166.68,0,0,1-33.77,13.51,97.75,97.75,0,0,1-37.72,3.66c-3.08-.36-6.51-.58-9.42-1.68-4.09-1.54-8.14-3.3-12.19-4.93-.75-.26-1.1,1-.31,1.32Z" transform="translate(-284.87 -306.22)"/><path class="cls-4" d="M577.11,404.12a58,58,0,0,0,17.83.66c.83-.09.83-1.41,0-1.32a57,57,0,0,1-17.48-.62c-.83-.13-1.19,1.1-.35,1.28Z" transform="translate(-284.87 -306.22)"/><path class="cls-4" d="M516.81,384.18c-1.15-.53-1-2.16-1-3.17a11,11,0,0,1,0-1.63,4,4,0,0,1,.35-1.72c.31-.7.79-.79,1.37-.35,1,.35.88.62.88,1.59,0,.57-.05,1.1-.09,1.67s0,1.19-.09,1.76c0,.18-.48,3.21-1.32,2-.48-.7-1.63,0-1.14.66,1.27,1.89,3.3.4,3.65-1.32a26.08,26.08,0,0,0,.31-4.93,3.22,3.22,0,0,0-1.06-2.77c-2-1.41-3.92.92-4.14,2.77s-.44,5.68,1.68,6.65c.74.31,1.4-.84.66-1.19Z" transform="translate(-284.87 -306.22)"/><path class="cls-4" d="M516.19,376.78a12.67,12.67,0,0,0,.48,8.15c.27.66,1.32.61,1.28-.18a54.54,54.54,0,0,1,.4-7.57H517a25.33,25.33,0,0,1,.22,3.13,7.14,7.14,0,0,1,0,1.4c0,.31-.44,1.41-.26.36.13-.84-1.19-.84-1.32,0-.18,1.27,1,3.21,2.42,1.89.53-.53.48-1.54.53-2.25a26.26,26.26,0,0,0-.18-4.53.66.66,0,0,0-1.32,0,44.47,44.47,0,0,0-.4,7.57c.44,0,.88-.13,1.28-.18a11.61,11.61,0,0,1-.48-7.43.67.67,0,0,0-1.28-.36Z" transform="translate(-284.87 -306.22)"/><path class="cls-4" d="M515.71,377.88a5.2,5.2,0,0,0-.27,2.73.63.63,0,0,0,.79.44.59.59,0,0,0,.44-.79,4.63,4.63,0,0,1,.27-2c.35-.8-.93-1.15-1.23-.36Z" transform="translate(-284.87 -306.22)"/><path class="cls-4" d="M553.34,377.49c-1.14-.53-1-2.16-1-3.17a8.81,8.81,0,0,1-.05-1.54,2.77,2.77,0,0,1,.09-.88c0-1,.88-1.32,2.42-.88.44.66.05,2.51,0,3.21,0,.48,0,1-.08,1.45,0,.18-.49,3.22-1.33,2-.48-.7-1.62,0-1.14.66,1.28,1.9,3.3.4,3.65-1.32a27.55,27.55,0,0,0,.31-4.71,3.65,3.65,0,0,0-.92-2.9c-1.9-1.63-4,.57-4.27,2.42s-.49,5.85,1.63,6.87c.83.3,1.49-.8.7-1.19Z" transform="translate(-284.87 -306.22)"/><path class="cls-4" d="M552.77,370.14a12.64,12.64,0,0,0,.48,8.14c.27.66,1.32.62,1.28-.18a54.54,54.54,0,0,1,.4-7.57H553.6a23.53,23.53,0,0,1,.22,3.13,7.29,7.29,0,0,1,0,1.41c0,.31-.44,1.41-.26.35.13-.84-1.19-.84-1.32,0-.18,1.28,1,3.21,2.42,1.89.53-.53.48-1.54.53-2.24a26.38,26.38,0,0,0-.18-4.54.66.66,0,0,0-1.32,0,43.47,43.47,0,0,0-.4,7.57c.44,0,.88-.13,1.28-.17a11.57,11.57,0,0,1-.48-7.44.66.66,0,0,0-1.28-.35Z" transform="translate(-284.87 -306.22)"/><path class="cls-4" d="M552.28,371.19a5.3,5.3,0,0,0-.26,2.73.63.63,0,0,0,.79.44.6.6,0,0,0,.44-.79,4.49,4.49,0,0,1,.27-2c.35-.8-.93-1.1-1.24-.36Z" transform="translate(-284.87 -306.22)"/><path class="cls-4" d="M527.46,391.13c3.87.53,9,.05,12.46-2a.66.66,0,0,0-.67-1.14c-3.12,1.8-7.92,2.33-11.44,1.85-.79-.09-1.19,1.19-.35,1.27Z" transform="translate(-284.87 -306.22)"/><path class="cls-4" d="M526.84,391.22c1.19,2.64,4.1,6.34,7.44,5.9s5.28-5.06,6-7.84a.66.66,0,0,0-1.28-.35c-.48,2-1.89,5.68-4,6.56-3.09,1.28-5.9-2.6-7-5-.4-.71-1.54,0-1.19.7Z" transform="translate(-284.87 -306.22)"/><path class="cls-4" d="M527.94,391.75c3.39,1.58,8.45.75,11.31-1.54l-.92-.93a9.09,9.09,0,0,1-5.94,2.12c-1.19,0-2.16-.62-3.13.17a.74.74,0,0,0-.17.66c.22,1.19,1.85,1.76,2.86,1.94,2.11.35,4-.66,5.72-1.89l-.79-1.06c-1.5,1.72-5.33,2.64-7,.57-.48-.61-1.36.18-1,.8.92,1.67,2.33,3.34,4.44,3.21s3.57-2,4.67-3.65c.44-.66-.49-1.24-1.06-.8a7.89,7.89,0,0,1-2.82,1.32c-.7.27-1.23.14-1,1a1.53,1.53,0,0,0,1.58.92c1.89-.09,3.83-2.82,4.67-4.27.35-.61-.53-1.36-1.06-.79-1.67,1.8-2.64,4.71-5.33,5.11-.83.13-.48,1.4.36,1.27,3-.48,4-3.48,5.89-5.46l-1-.79c-.62,1-1.67,2.69-2.86,3.17-.93.35-.8.13-1.5-.62a2.45,2.45,0,0,0-.53-.61,1.22,1.22,0,0,0-1.85.75.65.65,0,0,0,.18.66c1.89,2.07,4.36.66,6.16-.71l-1-.79c-.88,1.32-1.68,2.6-3.35,2.82s-2.68-1-3.43-2.42l-1.06.79c2.07,2.6,6.82,1.67,8.8-.57.49-.53-.17-1.5-.79-1.06-1.41,1.06-3.12,2.07-4.93,1.67a2.8,2.8,0,0,1-1.67-.79.84.84,0,0,0,.7.62,4.49,4.49,0,0,0,1.9.08,10.91,10.91,0,0,0,6.25-2.5c.66-.53-.27-1.46-.93-.93-2.29,1.81-7,2.64-9.73,1.32-.7-.31-1.36.84-.57,1.19Z" transform="translate(-284.87 -306.22)"/><path class="cls-4" d="M532.65,394.92a19,19,0,0,0,2.82-2.47l-1.06-.79a23.32,23.32,0,0,0-1.27,2.29,1.07,1.07,0,0,0,.17,1.19,1.05,1.05,0,0,0,1.19.13,13.5,13.5,0,0,0,2.07-1.45l-.92-.93c-.27.66-1.15,1.94-.4,2.56s1.58-.53,2-1.06-.39-1.58-.92-.92c-.18.17-.53.83-.79.88.22,0,.44.13.66.17-.05,0-.09-.08-.09-.13,0,.18.13.31.18.49a4.5,4.5,0,0,1,.48-1.28c.22-.53-.31-1.32-.92-.93-.27.18-1.72,1.46-1.94,1.37.13.09.26.22.39.31,0-.05,0-.14-.08-.18,0,.18,0,.35.08.53a9,9,0,0,1,1.24-2.38.67.67,0,0,0-1.06-.79,17.41,17.41,0,0,1-2.55,2.24c-.66.49,0,1.63.7,1.15Z" transform="translate(-284.87 -306.22)"/><path class="cls-4" d="M507,376.83q-1.53,17.76-2.16,35.61c-.05.83,1.28.83,1.32,0q.66-17.83,2.16-35.61c.08-.84-1.24-.84-1.32,0Z" transform="translate(-284.87 -306.22)"/><path class="cls-4" d="M574.65,362.87c3.34,12.51,1.23,25.4-1.72,37.73a.66.66,0,0,0,1.28.35c3-12.55,5.15-25.71,1.71-38.43a.66.66,0,0,0-1.27.35Z" transform="translate(-284.87 -306.22)"/><path class="cls-5" d="M579,403l11.67,2.12c.83.13,1.19-1.1.35-1.28l-11.66-2.11c-.84-.13-1.19,1.14-.36,1.27Z" transform="translate(-284.87 -306.22)"/><path class="cls-10" d="M584,375.77a9.28,9.28,0,0,0-1,2.38,10.56,10.56,0,0,0-.22,3.78,35.31,35.31,0,0,1-20,10.39,31.42,31.42,0,0,1-10.56-.22c-.31,1.15-.53,2.6.22,3.22.48.44,1.19.26,2.38.22a18.82,18.82,0,0,1,4,.39c2.73.31,9.95-1,17.79-5.37a49,49,0,0,0,8.18-5.81A5.66,5.66,0,0,0,589,387c3.3,0,4.84-3.65,5-4a6.6,6.6,0,0,0-.79-6.61,6.22,6.22,0,0,0-4.18-2.2A6.71,6.71,0,0,0,584,375.77Z" transform="translate(-284.87 -306.22)"/><path d="M586.4,376.65c-2,3.17-.79,7.79,3.48,7.7a.33.33,0,1,0,0-.66c-3.79.09-4.63-4.05-2.91-6.73.26-.35-.31-.66-.57-.31Z" transform="translate(-284.87 -306.22)"/><path d="M589.39,380.92a1.85,1.85,0,0,1-.7-1.89c.17-.66,1-1.32,1.71-1a1.79,1.79,0,0,1,.66,2.25,1.12,1.12,0,0,1-1.89.3c-.26-.35-.83,0-.57.36a1.81,1.81,0,0,0,2.68.17,2.51,2.51,0,0,0-.08-3.39,1.87,1.87,0,0,0-2.82.44,2.35,2.35,0,0,0,.57,3.17c.31.27.75-.17.44-.44Z" transform="translate(-284.87 -306.22)"/><path d="M561.53,392.54a2.91,2.91,0,0,1,.39,3.08c-.17.4.4.71.58.36a3.61,3.61,0,0,0-.4-3.75c-.26-.35-.84,0-.57.31Z" transform="translate(-284.87 -306.22)"/><path d="M554,392.63a2.59,2.59,0,0,1,.05,2.42c-.18.4.4.71.57.35a3.44,3.44,0,0,0,0-3.08.33.33,0,1,0-.58.31Z" transform="translate(-284.87 -306.22)"/><path d="M556,393.11a1.4,1.4,0,0,1,.09,1.85c-.26.31.22.8.48.49a2.1,2.1,0,0,0-.08-2.78c-.31-.35-.75.14-.49.44Z" transform="translate(-284.87 -306.22)"/><path d="M558.14,393.16a1.41,1.41,0,0,1,0,2.2c-.31.26.13.75.49.48a2.09,2.09,0,0,0-.18-3.25c-.35-.22-.66.35-.35.57Z" transform="translate(-284.87 -306.22)"/><path d="M568.7,363.49c-.92-.35-.61-1.5,0-1.94a1.22,1.22,0,0,1,1.81.36,1.3,1.3,0,0,1-2.16,1.45c-.4-.49-1.1.22-.7.7a2.46,2.46,0,0,0,3.39.22,2.37,2.37,0,0,0,0-3.34,2.3,2.3,0,0,0-3.35.22,2.06,2.06,0,0,0,.75,3.3c.62.17.84-.75.26-1Z" transform="translate(-284.87 -306.22)"/><path class="cls-11" d="M570.46,358a172.44,172.44,0,0,0,1.9,17.7c.66,4.22,1.45,8.27,2.33,12-1,.62-2,1.24-3,1.85a63.35,63.35,0,0,1-14.74,6.08,39.6,39.6,0,0,0,8.58-.66,38.76,38.76,0,0,0,9.64-3.17,89.19,89.19,0,0,1-37.28,24.52l14.35,5c.35,6.52.7,13,1,19.59,2.42-.61,4.84-1.23,7.31-1.89-.35-4.09-.66-8.32-.84-12.72-.08-2.47-.17-4.89-.22-7.31,4.18-1.14,7.62-2.24,10.22-3.12A157.06,157.06,0,0,0,588,408.43c3.17-1.54,5.72-2.95,7.48-4,.48-3,.92-6.21,1.23-9.59a137.54,137.54,0,0,0,.4-21.44,67.26,67.26,0,0,0-8.1-8.32,66.4,66.4,0,0,0-10-7.09Z" transform="translate(-284.87 -306.22)"/></g></g><g id="tabs"><path class="cls-12" d="M407.68,524.73c.36,16.24.66,32.48,1,48.73a406.12,406.12,0,0,0,61.4,12.19,403,403,0,0,0,85.75,1c.66-16.59,1.36-33.14,2-49.74q-30.36-1.18-62.41-3.56Q449.83,529.93,407.68,524.73Z" transform="translate(-284.87 -306.22)"/><g class="cls-13"><path class="cls-2" d="M413.19,532.48a410.69,410.69,0,0,0,75.09,9.2c.84,0,.84-1.28,0-1.32a406.88,406.88,0,0,1-74.74-9.16c-.84-.18-1.19,1.1-.35,1.28Z" transform="translate(-284.87 -306.22)"/></g><g class="cls-13"><path class="cls-2" d="M414.29,541.5a182.35,182.35,0,0,0,34.64,6.78c.84.09.84-1.23,0-1.32a181.86,181.86,0,0,1-34.29-6.74.66.66,0,0,0-.35,1.28Z" transform="translate(-284.87 -306.22)"/></g><g class="cls-13"><path class="cls-2" d="M448.4,576.41c30.9,4.71,62.29,9.37,93.58,5.81.84-.09.84-1.41,0-1.32-31.2,3.56-62.41-1.06-93.23-5.77-.83-.13-1.19,1.14-.35,1.28Z" transform="translate(-284.87 -306.22)"/></g><g class="cls-13"><path class="cls-2" d="M496.51,574.21a175.41,175.41,0,0,0,48,2c.84-.09.84-1.41,0-1.32a175.94,175.94,0,0,1-47.62-2c-.84-.13-1.19,1.1-.36,1.28Z" transform="translate(-284.87 -306.22)"/></g><g class="cls-13"><path class="cls-2" d="M528.25,542.91a47.86,47.86,0,0,1-1.14,17.83.66.66,0,0,0,.61.83l11.31.93c1.63.13,5.29,1.27,6.3-.53.53-.93.4-2.51.48-3.52.09-1.59.14-3.17.22-4.76A40.13,40.13,0,0,1,547.66,543a.66.66,0,0,0-.61-.84,68.93,68.93,0,0,1-17-.79.65.65,0,0,0-.79.79,1.64,1.64,0,0,0,.39,1c.49.71,1.63.05,1.15-.66l-.26-.66-.8.79a69.38,69.38,0,0,0,17.39.84,9.54,9.54,0,0,1-.62-.84c-1.76,5.24-1.58,10.7-1.93,16.11a9.13,9.13,0,0,1-.22,2.25c-.49.66-1.59.4-2.2.35l-4.8-.39-9.55-.8c.22.27.44.58.61.84a47.79,47.79,0,0,0,1.19-18.18c-.09-.75-1.41-.75-1.32.09Z" transform="translate(-284.87 -306.22)"/></g><path class="cls-14" d="M339.81,341.26Q340.4,374,341,406.8q45.42,5.74,90.81,11.45,1.19-39.42,2.42-78.79Q387,340.38,339.81,341.26Z" transform="translate(-284.87 -306.22)"/><path class="cls-3" d="M418.87,411.16a12.06,12.06,0,0,0,1.58-3.12c.09-.71-.57-1.41-.92-2-1.46-2.43-2.91-4.89-4.32-7.31-.7-1.19-1.58-2.42-2.16-3.65-.7-1.5,0-2,.71-3.26a44,44,0,0,0,3-6.3c3-7.92,3.47-17-.09-24.87-5.81-12.81-19.85-15.71-32.58-16-13.16-.3-26.45,4.63-34.29,15.63-9.06,12.72-3.65,30.55,8.63,39,12.81,8.85,30.73,8.45,44.11,1.28.75-.4.09-1.54-.66-1.15a43.28,43.28,0,0,1-35,2.64c-12-4.22-21.17-16.06-20.29-29.14,1-14.7,15.45-24.16,28.79-26.36a56.42,56.42,0,0,1,12.19-.44c5.59.31,11.22,1.1,16.33,3.47a24,24,0,0,1,13.56,17.66c1.71,9.24-1.19,18.75-6.34,26.36a.61.61,0,0,0,0,.66l4.75,8.06c.71,1.23,1.45,2.42,2.16,3.65.44.75,1,1.37.92,2.29,0,.66-.83,1.63-1.14,2.25a.61.61,0,1,0,1.06.61Z" transform="translate(-284.87 -306.22)"/><path class="cls-3" d="M402.14,401.21a59.39,59.39,0,0,0,16,9.51c.79.31,1.15-1,.35-1.27a59.16,59.16,0,0,1-15.45-9.16c-.66-.57-1.58.35-.92.92Z" transform="translate(-284.87 -306.22)"/><ellipse class="cls-15" cx="77.96" cy="68.1" rx="3.17" ry="4.62"/><ellipse class="cls-15" cx="96.09" cy="67.53" rx="3.17" ry="4.62"/><ellipse class="cls-15" cx="113.74" cy="67" rx="3.17" ry="4.62"/></g></svg>