<?xml version="1.0" encoding="utf-8"?>
<!-- Generator: Adobe Illustrator 24.1.2, SVG Export Plug-In . SVG Version: 6.00 Build 0)  -->
<svg version="1.1" id="Слой_1" xmlns="http://www.w3.org/2000/svg" xmlns:xlink="http://www.w3.org/1999/xlink" x="0px" y="0px"
	 viewBox="0 0 26.6 26.6" style="enable-background:new 0 0 26.6 26.6;" xml:space="preserve">
<style type="text/css">
	.st0{fill:#5222D0;}
</style>
<g>
	<path class="st0" d="M13.2,4.4c-3.1,0-5.5,2.4-5.5,5.5s2.4,5.5,5.5,5.5c3,0,5.5-2.4,5.5-5.4C18.6,6.8,16.3,4.4,13.2,4.4z M13.2,6.4
		c1.9,0,3.5,1.6,3.5,3.5c0,1.8-1.6,3.4-3.5,3.5c-1.9,0-3.5-1.6-3.5-3.5C9.8,8,11.4,6.4,13.2,6.4z"/>
	<path class="st0" d="M22.7,3.9c-2.5-2.5-5.9-3.9-9.4-3.9C9.8,0.1,6.4,1.4,4,3.9c-5.2,5.2-5.2,13.6,0,18.8c2.5,2.5,5.8,3.9,9.4,3.9
		s6.9-1.4,9.4-3.9c2.5-2.5,3.8-5.8,3.8-9.4C26.6,9.8,25.2,6.5,22.7,3.9z M7.4,23.4c0.2-2.8,2.4-5.1,5.3-5.1h1.2
		c2.9,0,5.2,2.3,5.3,5.1c-1.8,1.1-3.8,1.6-5.8,1.6C11.2,25,9.2,24.4,7.4,23.4z M20.9,22.1c-0.6-3.4-3.6-5.8-7.1-5.8h-1.2
		c-3.4,0-6.4,2.5-7.1,5.8C0.9,17.9,0.3,10.9,4.3,6c2.2-2.7,5.5-4.2,9-4.2c2.7,0,5.3,0.9,7.3,2.6c4.9,4.1,5.6,11.4,1.6,16.3
		C21.8,21.2,21.4,21.7,20.9,22.1z"/>
</g>
</svg>
