<svg id="Слой_1" data-name="Слой 1" xmlns="http://www.w3.org/2000/svg" viewBox="0 0 26.33 26.33"><defs><style>.cls-1{fill:#4d868e;}</style></defs><path class="cls-1" d="M540.26,531.43a5.26,5.26,0,1,0,5.25,5.26A5.27,5.27,0,0,0,540.26,531.43Zm0,9a3.7,3.7,0,1,1,3.7-3.7A3.7,3.7,0,0,1,540.26,540.39Z" transform="translate(-527.17 -527.17)"/><path class="cls-1" d="M549.64,531a13.16,13.16,0,1,0,3.86,9.31A13.09,13.09,0,0,0,549.64,531ZM534.22,550.5a5.54,5.54,0,0,1,5.53-5.44h1.17a5.54,5.54,0,0,1,5.53,5.44,11.85,11.85,0,0,1-12.23,0Zm13.69-1a7.09,7.09,0,0,0-7-6h-1.17a7.11,7.11,0,0,0-7,6,11.87,11.87,0,1,1,15.16,0Z" transform="translate(-527.17 -527.17)"/></svg>