<svg id="Слой_1" data-name="Слой 1" xmlns="http://www.w3.org/2000/svg" viewBox="0 0 60 60"><defs><style>.cls-1,.cls-2{fill:#20c3d0;}.cls-1{opacity:0.1;}</style></defs><circle class="cls-1" cx="30" cy="30" r="30"/><g id="outline"><path class="cls-2" d="M564.85,562.13l.94-2.52a.56.56,0,0,0-.33-.73.57.57,0,0,0-.56.1l-9.08,7.47a1.72,1.72,0,0,0-.56,1.73c0,.2.11.42.16.63a.79.79,0,0,1-.33.86h0a.78.78,0,0,1-1-.07l-1.35-1.92-.32-1.63a2.11,2.11,0,0,1,.32-1.6,2.14,2.14,0,0,1,1.09-.83,1.53,1.53,0,0,1,1.17.08l1.49.74a.56.56,0,0,0,.76-.25.53.53,0,0,0,0-.39l-.36-1.45a2.36,2.36,0,0,0-.75-1.22l.46-2.26a1.15,1.15,0,0,0-.76-1.3l-.76-.25h0l-.08,0v-.73a.57.57,0,0,0-.56-.57.58.58,0,0,0-.57.57v.73l-.07,0h0l-.75.25a1.14,1.14,0,0,0-.76,1.3l.36,1.82a5.62,5.62,0,0,0-.82.27l-.72-1.07.71-2.13a1.7,1.7,0,0,0-1-2.11l-1.48-.6v-.75a.57.57,0,0,0-1.13,0v.75l-1.49.6a1.68,1.68,0,0,0-1,2.11l.71,2.13-.72,1.07a6.18,6.18,0,0,0-.83-.27l.36-1.82a1.14,1.14,0,0,0-.75-1.3l-.76-.25h0l-.07,0v-.73a.57.57,0,1,0-1.13,0v.73l-.07,0h0l-.76.25a1.13,1.13,0,0,0-.75,1.3l.45,2.26a2.37,2.37,0,0,0-.75,1.21l-.36,1.46a.57.57,0,0,0,.41.69.59.59,0,0,0,.39,0l1.49-.74a1.58,1.58,0,0,1,1.17-.09,2.24,2.24,0,0,1,1.1.84,2.11,2.11,0,0,1,.31,1.6l-.32,1.63-1.35,1.92a.78.78,0,0,1-1,.07h0a.8.8,0,0,1-.33-.86c.06-.21.11-.43.17-.63a1.71,1.71,0,0,0-.57-1.73L532.76,559a.56.56,0,0,0-.89.63l.94,2.52a8.75,8.75,0,0,0,2.58,3.63l.26.22-2.62-.33a.56.56,0,0,0-.63.49.66.66,0,0,0,.09.39,6.88,6.88,0,0,0,3.32,2.63l.4.15-2.74.31a.56.56,0,0,0-.5.62.59.59,0,0,0,.27.43l1,.59a11.71,11.71,0,0,0,3.86,1.48,8.19,8.19,0,0,0-2.2,2.23.56.56,0,0,0,.16.78.57.57,0,0,0,.31.1h.23a7.26,7.26,0,0,0,3.17-.73v1.29a.57.57,0,0,0,.57.57.54.54,0,0,0,.4-.17l1.3-1.3.73.74a.58.58,0,0,0,.81,0l.07-.09.5-.76a1.63,1.63,0,0,1,.72-.58v.09a1.73,1.73,0,0,1-.49,1.2l-.41.4a4.64,4.64,0,0,0-1.36,3.3.57.57,0,0,0,.5.57l-.33.65-.7.17-1.45-1.61a1.71,1.71,0,0,0-.53-2.35,1.7,1.7,0,0,0-1.81,2.88,1.86,1.86,0,0,0,.68.25h.23a1.7,1.7,0,0,0,.54-.09l1.09,1.22-.06,0a.57.57,0,1,0,.28,1.1l.64-.16.5.55a.57.57,0,0,0,.84-.76l-.1-.1.38-.1a.57.57,0,0,0,.37-.29l.69-1.39h.5a.56.56,0,0,0,.51-.31,3.18,3.18,0,0,1,1-1.19l.16.24-1.33,2.34a6.86,6.86,0,0,0-.92,3.45.57.57,0,1,0,1.13,0,5.87,5.87,0,0,1,.77-2.89l.77-1.36-.06.17a7.71,7.71,0,0,0-.33,4.79.57.57,0,0,0,.69.41.56.56,0,0,0,.41-.68h0a6.66,6.66,0,0,1,.28-4.09h0l.29.44v5.5a.57.57,0,1,0,1.14,0v-5.5l.3-.44h0a6.59,6.59,0,0,1,.28,4.09.57.57,0,0,0,1.1.28h0a7.78,7.78,0,0,0-.32-4.79l-.07-.17.77,1.36a5.76,5.76,0,0,1,.77,2.89.57.57,0,1,0,1.13,0,7,7,0,0,0-.91-3.45l-1.34-2.34.16-.24a3.18,3.18,0,0,1,1,1.19.57.57,0,0,0,.51.31h.5l.69,1.39a.57.57,0,0,0,.37.29l1.47.37A2.26,2.26,0,1,0,560,580.6a2.23,2.23,0,0,0-1.51-1.28v-.64a.57.57,0,1,0-1.13,0v.64a2.27,2.27,0,0,0-1.68,1.9l-.76-.19-.33-.65a.57.57,0,0,0,.5-.57,4.6,4.6,0,0,0-1.36-3.3l-.41-.4a1.73,1.73,0,0,1-.49-1.2v-.09a1.58,1.58,0,0,1,.72.58l.51.76a.56.56,0,0,0,.78.16l.09-.07.73-.74,1.3,1.3a.55.55,0,0,0,.8,0,.54.54,0,0,0,.17-.4v-1.29a7.26,7.26,0,0,0,3.17.73h.23a.57.57,0,0,0,.56-.57.56.56,0,0,0-.09-.31,8.19,8.19,0,0,0-2.2-2.23,11.71,11.71,0,0,0,3.86-1.48l1-.59a.56.56,0,0,0-.23-1l-2.74-.31.4-.15a6.84,6.84,0,0,0,3.32-2.63.58.58,0,0,0-.16-.79.57.57,0,0,0-.38-.09L562,566l.26-.22A8.75,8.75,0,0,0,564.85,562.13Zm-25.74,17.11a.56.56,0,0,1-.49-.63.57.57,0,0,1,1.13.07.58.58,0,0,1-.21.44l0,0A.58.58,0,0,1,539.11,579.24Zm18.79,3.41a1.13,1.13,0,0,1-1-.57h2A1.14,1.14,0,0,1,557.9,582.65Zm1-1.7h-.42v-.42a1.13,1.13,0,0,1,.42.42Zm-1.55-.42V581h-.41a1.18,1.18,0,0,1,.41-.42Zm-11.33-12h5.66V575a.57.57,0,0,1-.38.54l-2.45.81-2.44-.81A.57.57,0,0,1,546,575Zm9.53-5.79a2.65,2.65,0,0,0-2-.14,3.26,3.26,0,0,0-2.17,3.74l.21,1.06h-2.06l.29-2a4.25,4.25,0,0,1,4.21-3.65h.65a1.25,1.25,0,0,1,1.22,1l.07.26Zm-2.08-4,.76-.26a1.14,1.14,0,0,1,.58,0l.76.26-.39,2a2.39,2.39,0,0,0-.53-.06h-.8Zm-6.25-1.95,1.63-.65,1.63.65a.57.57,0,0,1,.33.7l-.67,2h-2.58l-.67-2A.57.57,0,0,1,547.2,556.71Zm.23,3.84h2.8l.65,1a5.36,5.36,0,0,0-2,2.83,5.36,5.36,0,0,0-2.05-2.83Zm-4.55-2.15a1.1,1.1,0,0,1,.57,0l.76.26-.38,1.89H543a3,3,0,0,0-.52.05l-.39-1.94Zm1.29,4.15a2.65,2.65,0,0,0-2,.14l-.39.2.06-.26a1.25,1.25,0,0,1,1.22-1h.65a4.25,4.25,0,0,1,4.21,3.65l.29,2h-2.06l.21-1.06a3.21,3.21,0,0,0-.48-2.45,3.26,3.26,0,0,0-1.68-1.29Zm-1,12.23-.12.18-.65-.65a.57.57,0,0,0-.8,0l-.73.74v-.9a.57.57,0,0,0-.57-.57.5.5,0,0,0-.31.1,6.21,6.21,0,0,1-2.41,1,7.06,7.06,0,0,1,2-1.46L540,573a.56.56,0,0,0,.25-.76.56.56,0,0,0-.41-.3l-1.29-.22a10.66,10.66,0,0,1-3.29-1.11l3.41-.38a.57.57,0,0,0,.14-1.1l-2.62-1a5.88,5.88,0,0,1-1.87-1.14l3.09.38a.56.56,0,0,0,.63-.49.59.59,0,0,0-.2-.51l-1.74-1.45a7.57,7.57,0,0,1-2.25-3.16l-.2-.53,7.45,6.13a.56.56,0,0,1,.19.57c0,.2-.11.42-.17.63a1.93,1.93,0,0,0,.8,2.08l0,0a1.91,1.91,0,0,0,2.43-.26l.06-.07.41-.59V571l-.4.3a2.33,2.33,0,0,1-2.68.08.58.58,0,0,0-.79.16.56.56,0,0,0,.16.78,3.46,3.46,0,0,0,3.71.08v1.21a2.64,2.64,0,0,0-1.66,1.14Zm9.7,2.53a3.58,3.58,0,0,1,1,1.94h-.76a4.21,4.21,0,0,0-1.78-1.64.55.55,0,0,0-.72.19l-1.8,2.69L547,577.8a.57.57,0,0,0-.73-.19,4.26,4.26,0,0,0-1.78,1.64h-.75a3.46,3.46,0,0,1,1-1.94l.4-.4a3.25,3.25,0,0,0,.4-.5,1.53,1.53,0,0,0,.46.23l2.62.88a.56.56,0,0,0,.36,0l2.63-.88a1.8,1.8,0,0,0,.46-.23,2.69,2.69,0,0,0,.39.5Zm8.65-12.42-1.75,1.45a.57.57,0,0,0-.07.8.54.54,0,0,0,.5.2l3.09-.38a5.88,5.88,0,0,1-1.87,1.14l-2.62,1a.57.57,0,0,0-.33.73.6.6,0,0,0,.47.37l3.41.38a10.66,10.66,0,0,1-3.29,1.11l-1.29.22a.57.57,0,0,0-.46.65.56.56,0,0,0,.3.41l.44.22a6.92,6.92,0,0,1,2,1.46,6.21,6.21,0,0,1-2.41-1,.55.55,0,0,0-.78.15.63.63,0,0,0-.1.32v.9l-.73-.74a.57.57,0,0,0-.8,0h0l-.64.65-.13-.18a2.64,2.64,0,0,0-1.66-1.14v-1.21a3.46,3.46,0,0,0,3.71-.08.57.57,0,1,0-.63-.94h0a2.33,2.33,0,0,1-2.68-.08l-.4-.3v-1.32l.41.59.06.07a1.91,1.91,0,0,0,2.43.26l0,0a1.93,1.93,0,0,0,.8-2.08c-.06-.21-.11-.43-.16-.63a.56.56,0,0,1,.18-.57L564,561.2l-.2.53A7.54,7.54,0,0,1,561.55,564.89Z" transform="translate(-518.83 -540.75)"/></g></svg>