<?xml version="1.0" encoding="utf-8"?>
<!-- Generator: Adobe Illustrator 24.1.2, SVG Export Plug-In . SVG Version: 6.00 Build 0)  -->
<svg version="1.1" id="Слой_1" xmlns="http://www.w3.org/2000/svg" xmlns:xlink="http://www.w3.org/1999/xlink" x="0px" y="0px"
	 viewBox="0 0 60 60" style="enable-background:new 0 0 60 60;" xml:space="preserve">
<style type="text/css">
	.st0{opacity:0.1;fill:#20C3D0;}
	.st1{fill:#20C3D0;}
</style>
<g>
	<circle class="st0" cx="30" cy="30" r="30"/>
	<g>
		<g>
			<path class="st1" d="M41.1,31L30.8,41.2c-2.8,2.5-7,2.4-9.7-0.3c-2.6-2.6-2.8-6.9-0.3-9.7L34.1,18c1.6-1.6,4.2-1.6,5.9,0
				c1.6,1.6,1.6,4.2,0,5.9L28.6,35.3c-0.5,0.5-1.3,0.5-1.8,0.1c-0.5-0.5-0.5-1.3-0.1-1.8l8.5-8.5c0.6-0.6,0.6-1.7,0-2.4
				c-0.7-0.7-1.7-0.7-2.4,0l-8.5,8.5c-0.9,0.8-1.3,2-1.3,3.2c0,1.2,0.5,2.4,1.3,3.2c1.8,1.7,4.7,1.7,6.5,0l11.4-11.5
				c2.7-2.9,2.7-7.5-0.2-10.4c-2.8-2.8-7.4-2.9-10.4-0.2L18.4,29c-3.7,4.1-3.5,10.4,0.4,14.3c4,3.9,10.3,4,14.3,0.2l10.3-10.3
				c0.6-0.6,0.6-1.7,0-2.4C42.8,30.3,41.7,30.3,41.1,31L41.1,31z M41.1,31"/>
		</g>
	</g>
</g>
</svg>
