<svg id="Слой_1" data-name="Слой 1" xmlns="http://www.w3.org/2000/svg" viewBox="0 0 28.52 32.61"><defs><style>.cls-1{fill:#5222d0;}</style></defs><path class="cls-1" d="M551.57,541.16l-10.26,10.27a7.06,7.06,0,0,1-10-10l13.28-13.28a4.27,4.27,0,0,1,5.89,0,4.17,4.17,0,0,1,0,5.87L539.06,545.5a1.27,1.27,0,0,1-1.86-1.72l8.52-8.5a1.67,1.67,0,0,0-2.36-2.36l-8.52,8.54a4.55,4.55,0,0,0,0,6.45,4.69,4.69,0,0,0,6.46,0l11.44-11.45a7.47,7.47,0,0,0-10.56-10.56L528.9,539.18a10.38,10.38,0,0,0,14.76,14.56l10.27-10.26a1.67,1.67,0,1,0-2.36-2.36Zm0,0" transform="translate(-526.23 -523.89)"/></svg>