<svg id="Слой_1" data-name="Слой 1" xmlns="http://www.w3.org/2000/svg" viewBox="0 0 60 60"><defs><style>.cls-1,.cls-2{fill:#0086c9;}.cls-1{opacity:0.1;}</style></defs><circle class="cls-1" cx="30" cy="30" r="30"/><path class="cls-2" d="M548.69,587.15a16.4,16.4,0,0,1,0-32.8H549a17.3,17.3,0,0,1,12.26,5.06,13.91,13.91,0,0,1,4,10.21,10,10,0,0,1-9.93,9.18h-2.81a1.17,1.17,0,0,0-1,.68,1.15,1.15,0,0,0,.19,1.23,3.89,3.89,0,0,1,.88,3.53,4,4,0,0,1-3.85,2.92Zm.1-30.09a13.69,13.69,0,0,0,0,27.38c.7-.05,1.18-.36,1.29-.85a1.13,1.13,0,0,0-.29-1.12,3.81,3.81,0,0,1-.62-4.12,3.85,3.85,0,0,1,3.51-2.27h2.78a7.29,7.29,0,0,0,7.2-6.55,11.28,11.28,0,0,0-3.26-8.23,14.37,14.37,0,0,0-10.24-4.24Z" transform="translate(-518.83 -540.75)"/><path class="cls-2" d="M548.92,563.75a2.2,2.2,0,1,1,2.19-2.2A2.2,2.2,0,0,1,548.92,563.75Z" transform="translate(-518.83 -540.75)"/><path class="cls-2" d="M540.56,573.78a1.84,1.84,0,0,1-.41,0,2.19,2.19,0,0,1-.81-4,2.12,2.12,0,0,1,1.22-.38,2,2,0,0,1,.42,0,2.13,2.13,0,0,1,1.39.92,2.18,2.18,0,0,1-1.81,3.43Zm1.67-6.69a2.2,2.2,0,1,1,2.12-2.77,2.17,2.17,0,0,1-.21,1.67,2.2,2.2,0,0,1-1.91,1.1Zm13.38,0a2.2,2.2,0,1,1,0-4.39,2.25,2.25,0,0,1,.58.08,2.17,2.17,0,0,1,1.33,1,2.2,2.2,0,0,1-.8,3A2.27,2.27,0,0,1,555.61,567.09Z" transform="translate(-518.83 -540.75)"/></svg>