<svg id="Слой_1" data-name="Слой 1" xmlns="http://www.w3.org/2000/svg" viewBox="0 0 60 60"><defs><style>.cls-1,.cls-2{fill:#5222d0;}.cls-1{opacity:0.1;}</style></defs><circle class="cls-1" cx="30" cy="30" r="30"/><path class="cls-2" d="M556.48,527.19a14.81,14.81,0,0,0-16.1-.49,14.81,14.81,0,0,0-16.1.49,1.32,1.32,0,0,0-.58,1.09v25.35a1.34,1.34,0,0,0,2,1.18,15.27,15.27,0,0,1,14.1,0,.94.94,0,0,0,.15.06l.13,0,.2,0h.19a1.15,1.15,0,0,0,.41-.08l.09,0,.07,0a15.27,15.27,0,0,1,14.1,0,1.38,1.38,0,0,0,.62.15,1.34,1.34,0,0,0,1.34-1.33V528.28A1.32,1.32,0,0,0,556.48,527.19Zm-30.11,24.38V529a12.2,12.2,0,0,1,12.68,0v22.57a17.91,17.91,0,0,0-12.68,0Zm28,0a17.91,17.91,0,0,0-12.68,0V529a12.2,12.2,0,0,1,12.68,0Z" transform="translate(-510.38 -509.76)"/></svg>