<svg id="Слой_1" data-name="Слой 1" xmlns="http://www.w3.org/2000/svg" viewBox="0 0 61 61"><defs><style>.cls-1,.cls-2{fill:#ff8719;}.cls-1{opacity:0.1;}</style></defs><circle class="cls-1" cx="30.5" cy="30.5" r="30.5"/><path class="cls-2" d="M548.55,587a16.64,16.64,0,1,1,16.64-16.64v1.86a6.08,6.08,0,0,1-5.87,6.28h-.13a6,6,0,0,1-4.56-2.14.36.36,0,0,0-.28-.14h0a.5.5,0,0,0-.27.14,8.16,8.16,0,1,1-.21-12.08c.07.07.14.07.28.07h2.55v8.15a2.48,2.48,0,0,0,2.49,2.48h0a2.46,2.46,0,0,0,2.48-2.62v-2a13.12,13.12,0,1,0-13.12,13.18,13.37,13.37,0,0,0,6.29-1.58l1.72,3A16.7,16.7,0,0,1,548.55,587Zm0-21.27a4.63,4.63,0,1,0,4.63,4.63,4.62,4.62,0,0,0-4.63-4.63Z" transform="translate(-518.06 -539.81)"/></svg>