<svg id="Слой_1" data-name="Слой 1" xmlns="http://www.w3.org/2000/svg" viewBox="0 0 60 60"><defs><style>.cls-1,.cls-2{fill:#ec615b;}.cls-1{opacity:0.1;}</style></defs><circle class="cls-1" cx="30" cy="30" r="30"/><path class="cls-2" d="M540.33,555.23A3.77,3.77,0,0,1,537.5,554a4,4,0,0,1-1.14-2.92,4.11,4.11,0,0,1,1.14-3,4,4,0,0,1,5.67,0,4.11,4.11,0,0,1,1.14,3,4,4,0,0,1-1.14,2.92A3.79,3.79,0,0,1,540.33,555.23Zm-2.14-10.85-.94-13.67-.22-5.94h6.61l-.23,5.94-.93,13.67Z" transform="translate(-510.33 -510)"/></svg>