<svg id="Слой_1" data-name="Слой 1" xmlns="http://www.w3.org/2000/svg" viewBox="0 0 30.29 37.23"><defs><style>.cls-1{fill:#5222d0;}</style></defs><path class="cls-1" d="M534.34,534.18h0Zm16.75-.32a2.37,2.37,0,0,0-.39-.3,1.74,1.74,0,0,0-1.32-.15,1.65,1.65,0,0,0-1,.85,9.77,9.77,0,0,1-2.35,3,14.44,14.44,0,0,0,.22-2.54,14.68,14.68,0,0,0-7.4-12.76,1.71,1.71,0,0,0-1.63,0,1.68,1.68,0,0,0-.88,1.38,11.85,11.85,0,0,1-4.16,8.32l-.39.31a14.24,14.24,0,0,0-3.35,3.13,15.13,15.13,0,0,0,6.16,23.41,1.69,1.69,0,0,0,1.57-.16,1.67,1.67,0,0,0,.74-1.4,1.88,1.88,0,0,0-.08-.52,11.8,11.8,0,0,1-.32-4.35,15.13,15.13,0,0,0,7.26,6.76,1.68,1.68,0,0,0,1.21.07,15.15,15.15,0,0,0,6.14-25Zm-6.57,21.6a11.72,11.72,0,0,1-6-7.41,14.89,14.89,0,0,1-.3-1.62,1.69,1.69,0,0,0-1.35-1.43,1.66,1.66,0,0,0-.32,0,1.68,1.68,0,0,0-1.46.85,15,15,0,0,0-2,7.94,11.76,11.76,0,0,1-2-16.61,10.76,10.76,0,0,1,2.63-2.45l.12-.1.51-.42a15.09,15.09,0,0,0,4.88-7.79A11.33,11.33,0,0,1,541.55,540a1.68,1.68,0,0,0,2,2.38,13.22,13.22,0,0,0,6.5-4.52,11.78,11.78,0,0,1-5.52,17.6Zm0,0" transform="translate(-525.14 -521.73)"/></svg>