<svg id="Слой_1" data-name="Слой 1" xmlns="http://www.w3.org/2000/svg" viewBox="0 0 28.07 35.2"><defs><style>.cls-1{fill:#5222d0;}</style></defs><path class="cls-1" d="M554.17,536.15a1.76,1.76,0,0,0-1.56-1h-8.78V524.65a1.76,1.76,0,0,0-3.18-1.12l-14,19.31a1.87,1.87,0,0,0,1.42,2.88h8.78v10.53a1.73,1.73,0,0,0,1.21,1.67,2.44,2.44,0,0,0,.54.09,1.77,1.77,0,0,0,1.42-.72L554,538a1.75,1.75,0,0,0,.14-1.83Zm-13.85,14.7V544a1.76,1.76,0,0,0-1.76-1.75h-7l8.78-12.15v6.88a1.75,1.75,0,0,0,1.75,1.76h7Zm0,0" transform="translate(-526.29 -522.81)"/></svg>