<?xml version="1.0" encoding="utf-8"?>
<!-- Generator: Adobe Illustrator 24.1.2, SVG Export Plug-In . SVG Version: 6.00 Build 0)  -->
<svg version="1.1" id="Слой_1" xmlns="http://www.w3.org/2000/svg" xmlns:xlink="http://www.w3.org/1999/xlink" x="0px" y="0px"
	 viewBox="0 0 50 50" style="enable-background:new 0 0 50 50;" xml:space="preserve">
<style type="text/css">
	.st0{opacity:0.1;fill:#0086C9;}
	.st1{fill:#0086C9;}
</style>
<g>
	<circle class="st0" cx="25" cy="25" r="25"/>
	<g>
		<g>
			<path class="st1" d="M36.8,22.6c-0.7-0.9-1.8-1.4-2.9-1.4h-5.8l0.7-1.8c0.6-1.6,0.4-3.4-0.6-4.8c-1-1.4-2.6-2.2-4.3-2.2
				c-0.5,0-0.9,0.3-1.2,0.7l-3.6,8.1h-3c-2.1,0-3.8,1.7-3.8,3.8v8.9c0,2.1,1.7,3.8,3.8,3.8h16.1c1.8,0,3.4-1.3,3.7-3.1l1.6-8.9
				C37.8,24.6,37.5,23.4,36.8,22.6L36.8,22.6z M18.7,35.1h-2.5c-0.7,0-1.3-0.6-1.3-1.3V25c0-0.7,0.6-1.3,1.3-1.3h2.5V35.1z
				 M35.1,25.2l-1.6,8.9c-0.1,0.6-0.6,1-1.3,1H21.2V22.7l3.4-7.7c0.7,0.2,1.3,0.7,1.6,1.4c0.3,0.7,0.4,1.4,0.1,2.1l-0.7,1.8
				c-0.3,0.8-0.2,1.6,0.3,2.3c0.5,0.7,1.2,1.1,2.1,1.1h5.8c0.4,0,0.7,0.2,1,0.5C35.1,24.5,35.2,24.9,35.1,25.2L35.1,25.2z
				 M35.1,25.2"/>
		</g>
	</g>
</g>
</svg>
