<svg id="Слой_1" data-name="Слой 1" xmlns="http://www.w3.org/2000/svg" viewBox="0 0 30.38 30.38"><defs><style>.cls-1{fill:#5222d0;}</style></defs><path class="cls-1" d="M554.38,537.42a4.58,4.58,0,0,0-3.5-1.64H544l.85-2.17a6.28,6.28,0,0,0-5.91-8.46,1.52,1.52,0,0,0-1.39.9l-4.32,9.73h-3.57a4.56,4.56,0,0,0-4.56,4.56V551a4.56,4.56,0,0,0,4.56,4.56H549a4.56,4.56,0,0,0,4.49-3.74l1.92-10.63a4.56,4.56,0,0,0-1-3.74Zm-21.72,15.07h-3A1.52,1.52,0,0,1,528.1,551V540.34a1.52,1.52,0,0,1,1.52-1.52h3Zm19.74-11.88-1.93,10.64a1.52,1.52,0,0,1-1.52,1.24H535.69V537.62l4.13-9.3a3.2,3.2,0,0,1,2.1,4.23l-.8,2.17a3,3,0,0,0,2.84,4.1h6.92a1.52,1.52,0,0,1,1.17.55,1.48,1.48,0,0,1,.35,1.24Zm0,0" transform="translate(-525.06 -525.15)"/></svg>