<svg id="Слой_1" data-name="Слой 1" xmlns="http://www.w3.org/2000/svg" viewBox="0 0 60 60"><defs><style>.cls-1,.cls-2{fill:#2fdd2f;}.cls-1{opacity:0.1;}</style></defs><circle class="cls-1" cx="30" cy="30" r="30"/><path class="cls-2" d="M565.14,562.83l-6.07-7.05a5.65,5.65,0,0,0-6.9-1.33l-2.23,1.15v-1.11a3.24,3.24,0,1,0-2.22,0v1.11l-2.23-1.15a5.65,5.65,0,0,0-6.9,1.33l-6.07,7.05a1.59,1.59,0,0,0-.24,1.71,1.61,1.61,0,0,0,1.45.93h14v7.44a45.07,45.07,0,0,1-4.82-1.16c-2-.67-2.27-1.21-2.31-1.26s.51-.65,3.25-1.28a1.11,1.11,0,0,0-.25-2.19l-.25,0c-2.66.61-4.05,1.3-4.64,2.29a2.14,2.14,0,0,0-.25,1.67c.47,1.78,2.75,2.66,5.29,3.31-1.78.56-2.82,1.19-3.34,2a2.31,2.31,0,0,0-.31,1.81c.43,1.76,2.72,2.69,5.16,3.47a5,5,0,0,0-2.48,1.93,2.41,2.41,0,0,0-.18,1.84c.43,1.39,1.89,2.27,3.48,3-1.46.78-3.1,2-2.64,4.06a1.11,1.11,0,0,0,1.08.87,1,1,0,0,0,.25,0,1.12,1.12,0,0,0,.84-1.33c-.13-.56.53-1.16,2.12-1.92v2.17a1.11,1.11,0,0,0,2.22,0V590c1.59.76,2.25,1.36,2.12,1.92a1.13,1.13,0,0,0,.15.84,1.06,1.06,0,0,0,.69.49,1.07,1.07,0,0,0,.25,0,1.1,1.1,0,0,0,1.08-.87c.46-2-1.18-3.28-2.63-4.06,1.58-.73,3-1.61,3.47-3a2.36,2.36,0,0,0-.18-1.84,4.93,4.93,0,0,0-2.47-1.93c2.43-.78,4.72-1.71,5.15-3.47a2.31,2.31,0,0,0-.31-1.81c-.52-.81-1.56-1.44-3.33-2,2.54-.65,4.82-1.53,5.28-3.31a2.17,2.17,0,0,0-.24-1.67c-.6-1-2-1.68-4.65-2.29l-.25,0a1.1,1.1,0,0,0-1.08.86,1.09,1.09,0,0,0,.14.84,1.12,1.12,0,0,0,.69.49c2.74.63,3.18,1.17,3.24,1.22s-.26.65-2.29,1.32a45.89,45.89,0,0,1-4.83,1.16v-7.44h14a1.61,1.61,0,0,0,1.46-.93A1.6,1.6,0,0,0,565.14,562.83Zm-16.31-12.4a1,1,0,0,1,1,1,1,1,0,0,1-1,1,1,1,0,0,1,0-2Zm-4.36,6,3.25,1.69v5.13h-4.18l.12-.12a7.21,7.21,0,0,0,1.36-2.21,1.09,1.09,0,0,0,0-.85,1.1,1.1,0,0,0-.61-.59,1.15,1.15,0,0,0-.41-.08,1.1,1.1,0,0,0-1,.71,5.13,5.13,0,0,1-.94,1.53,5.28,5.28,0,0,1-3,1.61h-3.92l5.18-6a3.43,3.43,0,0,1,2.61-1.2A3.51,3.51,0,0,1,544.47,556.42Zm3.25,26.6v3.63c-1-.42-2.78-1.22-3-2a.11.11,0,0,1,0-.11C545.07,584,546.84,583.31,547.72,583Zm0-7.4V580a34,34,0,0,1-3.86-1.3c-1.45-.63-1.59-1.07-1.59-1.2C542.81,576.66,546.08,576,547.72,575.62Zm11-12.37a5.35,5.35,0,0,1-3-1.62,5.13,5.13,0,0,1-.94-1.53,1.1,1.1,0,0,0-1-.71,1.15,1.15,0,0,0-.41.08,1.14,1.14,0,0,0-.61.59,1.09,1.09,0,0,0,0,.85,7.41,7.41,0,0,0,1.36,2.21l.12.12h-4.18v-5.13l3.25-1.69a3.51,3.51,0,0,1,1.59-.38,3.43,3.43,0,0,1,2.61,1.2l5.18,6Zm-8.74,23.4V583c.88.29,2.66.93,3,1.56a.15.15,0,0,1,0,.13C552.72,585.43,551,586.23,549.94,586.65Zm0-6.64v-4.39c1.64.34,4.91,1,5.47,2,0,0-.16.49-1.61,1.12A34,34,0,0,1,549.94,580Z" transform="translate(-518.83 -540.75)"/></svg>