<?xml version="1.0" encoding="utf-8"?>
<!-- Generator: Adobe Illustrator 24.1.2, SVG Export Plug-In . SVG Version: 6.00 Build 0)  -->
<svg version="1.1" id="Слой_1" xmlns="http://www.w3.org/2000/svg" xmlns:xlink="http://www.w3.org/1999/xlink" x="0px" y="0px"
	 viewBox="0 0 50 50" style="enable-background:new 0 0 50 50;" xml:space="preserve">
<style type="text/css">
	.st0{opacity:0.1;fill:#5222D0;}
	.st1{fill:#5222D0;}
</style>
<g>
	<circle class="st0" cx="25" cy="25" r="25"/>
	<g>
		<path class="st1" d="M13,21l11.4,6.6c0.4,0.2,0.9,0.2,1.3,0L37,21c0.4-0.2,0.6-0.6,0.6-1.1c0-0.5-0.2-0.9-0.6-1.1l-11.4-6.6
			c-0.4-0.2-0.9-0.2-1.3,0L13,18.8c-0.4,0.2-0.6,0.6-0.6,1.1C12.3,20.4,12.6,20.8,13,21z M25,14.9l8.9,5.1L25,25l-8.9-5.1L25,14.9z
			 M35.8,23.9L25,30.1l-10.8-6.2c-0.6-0.4-1.4-0.1-1.7,0.5c0,0,0,0,0,0c-0.3,0.6-0.1,1.4,0.5,1.7l11.4,6.6c0.4,0.2,0.9,0.2,1.3,0
			L37,26.1c0.6-0.3,0.8-1.1,0.5-1.7C37.1,23.8,36.4,23.5,35.8,23.9C35.8,23.9,35.8,23.9,35.8,23.9L35.8,23.9z M35.8,29L25,35.1
			L14.2,29c-0.6-0.4-1.4-0.1-1.7,0.5c0,0,0,0,0,0c-0.3,0.6-0.1,1.4,0.5,1.7l11.4,6.6c0.4,0.2,0.9,0.2,1.3,0L37,31.2
			c0.6-0.3,0.8-1.1,0.5-1.7C37.1,28.8,36.4,28.6,35.8,29C35.8,29,35.8,29,35.8,29L35.8,29z"/>
	</g>
</g>
</svg>
