<svg id="Слой_1" data-name="Слой 1" xmlns="http://www.w3.org/2000/svg" viewBox="0 0 30.38 30.97"><defs><style>.cls-1{fill:#5222d0;}</style></defs><path class="cls-1" d="M525.9,535.56l13.67,7.9a1.53,1.53,0,0,0,1.52,0l13.67-7.9a1.5,1.5,0,0,0,.76-1.3,1.48,1.48,0,0,0-.76-1.32l-13.67-7.89a1.53,1.53,0,0,0-1.52,0l-13.67,7.89a1.51,1.51,0,0,0,0,2.62Zm14.43-7.38L551,534.26l-10.64,6.07-10.63-6.07Zm12.92,10.89-12.92,7.34L527.42,539a1.53,1.53,0,0,0-2.08.55h0a1.53,1.53,0,0,0,.56,2.07l13.67,7.9a1.53,1.53,0,0,0,1.52,0l13.67-7.9a1.52,1.52,0,1,0-1.51-2.63h0Zm0,6.08-12.92,7.34-12.91-7.4a1.53,1.53,0,0,0-2.08.55h0a1.53,1.53,0,0,0,.56,2.07l13.67,7.9a1.53,1.53,0,0,0,1.52,0l13.67-7.9a1.52,1.52,0,1,0-1.51-2.64h0Z" transform="translate(-525.14 -524.85)"/></svg>