<svg id="Слой_1" data-name="Слой 1" xmlns="http://www.w3.org/2000/svg" viewBox="0 0 254.86 54.5"><defs><style>.cls-1{fill:#fff;}.cls-2{fill:#4e738a;}.cls-3{fill:#4d868e;}</style></defs><path class="cls-1" d="M489.54,527.58a5.18,5.18,0,0,1-2.1-.42,5.07,5.07,0,0,1-1.68-1.23,5.93,5.93,0,0,1-1.11-2,8.34,8.34,0,0,1-.39-2.65,8,8,0,0,1,.4-2.63,6,6,0,0,1,1.13-2,5,5,0,0,1,1.7-1.25,5.23,5.23,0,0,1,2.15-.43,4.12,4.12,0,0,1,1.95.45,5.15,5.15,0,0,1,1.37,1l-.83,1a4,4,0,0,0-1.09-.83,3,3,0,0,0-1.39-.32,3.52,3.52,0,0,0-1.57.35,3.23,3.23,0,0,0-1.2,1,4.64,4.64,0,0,0-.77,1.54,7.46,7.46,0,0,0-.26,2,7.63,7.63,0,0,0,.26,2.06,4.92,4.92,0,0,0,.75,1.56,3.23,3.23,0,0,0,1.18,1,3.32,3.32,0,0,0,1.56.35,3.2,3.2,0,0,0,1.55-.36,5,5,0,0,0,1.26-1l.85,1a5.53,5.53,0,0,1-1.63,1.29A4.5,4.5,0,0,1,489.54,527.58Z" transform="translate(-412.9 -513.08)"/><path class="cls-1" d="M495.36,527.36v-9h1.48v3.73c0,.48,0,1,0,1.58s-.07,1.15-.11,1.73h.08l.6-1c.23-.36.42-.68.58-1l3.4-5.12h1.43v9H501.3v-3.73c0-.48,0-1,0-1.58s.07-1.16.1-1.75h-.07c-.17.28-.37.61-.6,1s-.42.68-.58,1l-3.42,5.14Z" transform="translate(-412.9 -513.08)"/><path class="cls-1" d="M509.35,527.58a4.38,4.38,0,0,1-1.66-.31,3.78,3.78,0,0,1-1.34-.92,4.48,4.48,0,0,1-.89-1.47,5.89,5.89,0,0,1-.32-2,5.5,5.5,0,0,1,.35-2,4.63,4.63,0,0,1,.94-1.48,4,4,0,0,1,1.38-.93,4.45,4.45,0,0,1,1.66-.31,3.33,3.33,0,0,1,1.51.31,5.24,5.24,0,0,1,1.11.74l-.78,1a3.67,3.67,0,0,0-.82-.57,2.07,2.07,0,0,0-1-.23,2.7,2.7,0,0,0-1.13.25,2.63,2.63,0,0,0-.88.71,3.73,3.73,0,0,0-.59,1.1,4.55,4.55,0,0,0-.21,1.42,4.69,4.69,0,0,0,.2,1.4,3.46,3.46,0,0,0,.57,1.08,2.43,2.43,0,0,0,.88.71,2.63,2.63,0,0,0,1.12.25,2.51,2.51,0,0,0,1.16-.27,4.52,4.52,0,0,0,.95-.64l.67,1a5.26,5.26,0,0,1-1.35.84A4.13,4.13,0,0,1,509.35,527.58Z" transform="translate(-412.9 -513.08)"/><path class="cls-1" d="M516,527.36v-7.74h-3v-1.24h7.53v1.24h-3v7.74Z" transform="translate(-412.9 -513.08)"/><path class="cls-1" d="M525.93,527.58a4.31,4.31,0,0,1-1.69-.32,4.13,4.13,0,0,1-1.37-.92,4.36,4.36,0,0,1-.91-1.47,5.55,5.55,0,0,1-.33-2,5.43,5.43,0,0,1,.34-2,4.9,4.9,0,0,1,.9-1.49,4.16,4.16,0,0,1,1.29-.93,3.71,3.71,0,0,1,1.5-.32,3.89,3.89,0,0,1,1.52.29,3,3,0,0,1,1.13.85,4,4,0,0,1,.69,1.33,5.9,5.9,0,0,1,.24,1.74c0,.16,0,.32,0,.47a2.15,2.15,0,0,1,0,.4h-6.07a3.48,3.48,0,0,0,.9,2.28,2.79,2.79,0,0,0,2.1.84,3.5,3.5,0,0,0,1.19-.19,5.28,5.28,0,0,0,1-.51l.54,1a7.62,7.62,0,0,1-1.31.65A4.68,4.68,0,0,1,525.93,527.58Zm-2.82-5.43h4.8a3.2,3.2,0,0,0-.58-2.08,2,2,0,0,0-1.64-.71,2.34,2.34,0,0,0-.91.18,2.62,2.62,0,0,0-.79.55,2.93,2.93,0,0,0-.58.88A3.78,3.78,0,0,0,523.11,522.15Z" transform="translate(-412.9 -513.08)"/><path class="cls-1" d="M531.46,527.36v-9h1.75l1.76,4.21c.14.37.27.74.41,1.1s.27.73.4,1.08h.08l.41-1.08c.14-.36.28-.73.4-1.1l1.72-4.21h1.74v9h-1.39v-4c0-.19,0-.43,0-.69s0-.54,0-.81l.06-.84c0-.27,0-.53.07-.76h-.08l-.41,1.08c-.15.36-.28.71-.42,1l-1.7,4.16h-1l-1.73-4.16c-.14-.33-.28-.68-.42-1l-.42-1.08h-.07c0,.23,0,.49.05.76s0,.56,0,.84,0,.54,0,.81,0,.5,0,.69v4Z" transform="translate(-412.9 -513.08)"/><path class="cls-1" d="M543.16,527.36v-9h1.51V522H549v-3.64h1.51v9H549v-4h-4.33v4Z" transform="translate(-412.9 -513.08)"/><path class="cls-1" d="M553.54,527.36v-9h1.52v3.31h1.27a6,6,0,0,1,1.46.16,3.2,3.2,0,0,1,1.12.51,2.27,2.27,0,0,1,.73.87,2.74,2.74,0,0,1,.26,1.27,2.86,2.86,0,0,1-.26,1.29,2.34,2.34,0,0,1-.73.89,3.2,3.2,0,0,1-1.12.51,5.57,5.57,0,0,1-1.46.17Zm1.52-1.22h1.11c1.49,0,2.24-.55,2.24-1.64a1.43,1.43,0,0,0-.55-1.24,2.93,2.93,0,0,0-1.69-.39h-1.11Zm6.39,1.22v-9H563v9Z" transform="translate(-412.9 -513.08)"/><path class="cls-1" d="M569.64,527.58a4.35,4.35,0,0,1-1.69-.32,4.13,4.13,0,0,1-1.37-.92,4.36,4.36,0,0,1-.91-1.47,5.55,5.55,0,0,1-.33-2,5.43,5.43,0,0,1,.34-2,4.9,4.9,0,0,1,.9-1.49,4.16,4.16,0,0,1,1.29-.93,3.7,3.7,0,0,1,1.49-.32,3.9,3.9,0,0,1,1.53.29,3,3,0,0,1,1.13.85,4,4,0,0,1,.69,1.33,5.9,5.9,0,0,1,.24,1.74c0,.16,0,.32,0,.47a3.58,3.58,0,0,1,0,.4h-6.07a3.48,3.48,0,0,0,.9,2.28,2.77,2.77,0,0,0,2.1.84,3.5,3.5,0,0,0,1.19-.19,5.28,5.28,0,0,0,1-.51l.54,1a8,8,0,0,1-1.31.65A4.68,4.68,0,0,1,569.64,527.58Zm-2.83-5.43h4.81a3.2,3.2,0,0,0-.58-2.08,2,2,0,0,0-1.64-.71,2.34,2.34,0,0,0-.91.18,2.62,2.62,0,0,0-.79.55,2.93,2.93,0,0,0-.58.88A4.08,4.08,0,0,0,566.81,522.15Z" transform="translate(-412.9 -513.08)"/><path class="cls-1" d="M578.86,531.15V518.38h1.26l.13,1h.06a6.47,6.47,0,0,1,1.34-.88,3.25,3.25,0,0,1,1.52-.37,3.51,3.51,0,0,1,1.53.32,2.86,2.86,0,0,1,1.11.93,4.37,4.37,0,0,1,.68,1.44,7.3,7.3,0,0,1,.23,1.89,6.38,6.38,0,0,1-.31,2,4.72,4.72,0,0,1-.86,1.53,3.61,3.61,0,0,1-1.23,1,3.43,3.43,0,0,1-1.48.32,3.09,3.09,0,0,1-1.25-.27,6.75,6.75,0,0,1-1.25-.76l0,1.57v3Zm3.72-4.84a2.2,2.2,0,0,0,1-.25,2.49,2.49,0,0,0,.82-.7,3.32,3.32,0,0,0,.53-1.12,5.34,5.34,0,0,0,.2-1.5,7,7,0,0,0-.13-1.35,3.15,3.15,0,0,0-.42-1,1.94,1.94,0,0,0-.74-.68,2.27,2.27,0,0,0-1.08-.24,2.38,2.38,0,0,0-1.15.32,6.76,6.76,0,0,0-1.25.9v4.72a4.41,4.41,0,0,0,1.18.73A3,3,0,0,0,582.58,526.31Z" transform="translate(-412.9 -513.08)"/><path class="cls-1" d="M592.76,527.58a4.35,4.35,0,0,1-1.69-.32,4.13,4.13,0,0,1-1.37-.92,4.36,4.36,0,0,1-.91-1.47,5.55,5.55,0,0,1-.33-2,5.43,5.43,0,0,1,.34-2,4.9,4.9,0,0,1,.9-1.49,4.16,4.16,0,0,1,1.29-.93,3.7,3.7,0,0,1,1.49-.32,3.9,3.9,0,0,1,1.53.29,3,3,0,0,1,1.13.85,4,4,0,0,1,.69,1.33,5.9,5.9,0,0,1,.24,1.74c0,.16,0,.32,0,.47a3.58,3.58,0,0,1,0,.4H590a3.53,3.53,0,0,0,.9,2.28,2.77,2.77,0,0,0,2.1.84,3.5,3.5,0,0,0,1.19-.19,5.28,5.28,0,0,0,1-.51l.54,1a8,8,0,0,1-1.31.65A4.68,4.68,0,0,1,592.76,527.58Zm-2.83-5.43h4.81a3.2,3.2,0,0,0-.58-2.08,2,2,0,0,0-1.64-.71,2.34,2.34,0,0,0-.91.18,2.62,2.62,0,0,0-.79.55,2.93,2.93,0,0,0-.58.88A4.08,4.08,0,0,0,589.93,522.15Z" transform="translate(-412.9 -513.08)"/><path class="cls-1" d="M598.29,527.36v-9h1.51v7.74H603v-7.74h1.46v7.74h3.18v-7.74h1.5v9Z" transform="translate(-412.9 -513.08)"/><path class="cls-1" d="M615.77,527.58a4.31,4.31,0,0,1-1.69-.32,4.13,4.13,0,0,1-1.37-.92,4.21,4.21,0,0,1-.91-1.47,5.34,5.34,0,0,1-.34-2,5.43,5.43,0,0,1,.35-2,4.71,4.71,0,0,1,.9-1.49,4.16,4.16,0,0,1,1.29-.93,3.7,3.7,0,0,1,1.49-.32,3.9,3.9,0,0,1,1.53.29,3.07,3.07,0,0,1,1.13.85,4,4,0,0,1,.69,1.33,5.9,5.9,0,0,1,.24,1.74c0,.16,0,.32,0,.47a2.07,2.07,0,0,1-.05.4H613a3.48,3.48,0,0,0,.9,2.28,2.76,2.76,0,0,0,2.1.84,3.54,3.54,0,0,0,1.19-.19,5.28,5.28,0,0,0,1-.51l.54,1a8,8,0,0,1-1.31.65A4.68,4.68,0,0,1,615.77,527.58Zm-2.83-5.43h4.81a3.26,3.26,0,0,0-.58-2.08,2,2,0,0,0-1.64-.71,2.34,2.34,0,0,0-.91.18,2.5,2.5,0,0,0-.79.55,2.93,2.93,0,0,0-.58.88A3.78,3.78,0,0,0,612.94,522.15Z" transform="translate(-412.9 -513.08)"/><path class="cls-1" d="M621.3,527.36v-9h1.51V522h4.33v-3.64h1.51v9h-1.51v-4h-4.33v4Z" transform="translate(-412.9 -513.08)"/><path class="cls-1" d="M631.68,527.36v-9h1.48v3.73c0,.48,0,1,0,1.58s-.07,1.15-.11,1.73h.08l.6-1c.23-.36.42-.68.58-1l3.4-5.12h1.43v9h-1.48v-3.73c0-.48,0-1,0-1.58s.07-1.16.1-1.75h-.07c-.17.28-.37.61-.6,1s-.42.68-.58,1l-3.42,5.14Z" transform="translate(-412.9 -513.08)"/><path class="cls-1" d="M647.08,527.36v-3.55H645.4l-2.48,3.55H641.2l2.74-3.75a3.25,3.25,0,0,1-1.46-.88,2.31,2.31,0,0,1-.6-1.69,2.78,2.78,0,0,1,.27-1.25,2.25,2.25,0,0,1,.74-.82,3.21,3.21,0,0,1,1.12-.45,6.88,6.88,0,0,1,1.41-.14h3.17v9Zm-1.4-4.66h1.4v-3.14h-1.4a3.22,3.22,0,0,0-1.66.36,1.25,1.25,0,0,0-.6,1.16,1.38,1.38,0,0,0,.6,1.21A2.85,2.85,0,0,0,645.68,522.7Z" transform="translate(-412.9 -513.08)"/><path class="cls-1" d="M484.26,565.65v-23h7.9a16.07,16.07,0,0,1,3.56.37,8.08,8.08,0,0,1,2.9,1.23,6.21,6.21,0,0,1,2,2.3,7.73,7.73,0,0,1,.72,3.51,7.91,7.91,0,0,1-.72,3.49,6.82,6.82,0,0,1-2,2.43,8.43,8.43,0,0,1-2.86,1.42,12.91,12.91,0,0,1-3.46.45h-2.86v7.8Zm5.18-11.92H492c2.83,0,4.24-1.23,4.24-3.67a2.81,2.81,0,0,0-1.13-2.54,5.86,5.86,0,0,0-3.25-.74h-2.4Z" transform="translate(-412.9 -513.08)"/><path class="cls-1" d="M537.85,565.65v-23h8.29a16.3,16.3,0,0,1,3.44.35,8,8,0,0,1,2.81,1.18,5.85,5.85,0,0,1,1.9,2.21,7.44,7.44,0,0,1,.71,3.42,7.3,7.3,0,0,1-1.11,4.18,6.82,6.82,0,0,1-3,2.45l5.22,9.21h-5.82l-4.41-8.29H543v8.29ZM543,553.23h2.68a4.91,4.91,0,0,0,3.12-.86,3.09,3.09,0,0,0,1.08-2.56,2.54,2.54,0,0,0-1.08-2.36,5.9,5.9,0,0,0-3.12-.67H543Z" transform="translate(-412.9 -513.08)"/><path class="cls-1" d="M649.49,565.65v-23h8.29a16.37,16.37,0,0,1,3.44.35,8,8,0,0,1,2.8,1.18,5.88,5.88,0,0,1,1.91,2.21,7.44,7.44,0,0,1,.71,3.42,7.23,7.23,0,0,1-1.12,4.18,6.77,6.77,0,0,1-3,2.45l5.22,9.21h-5.82l-4.41-8.29h-2.86v8.29Zm5.18-12.42h2.69a4.93,4.93,0,0,0,3.12-.86,3.08,3.08,0,0,0,1.07-2.56,2.54,2.54,0,0,0-1.07-2.36,5.93,5.93,0,0,0-3.12-.67h-2.69Z" transform="translate(-412.9 -513.08)"/><path class="cls-1" d="M570.38,565.65V547h-6.31v-4.37h17.85V547h-6.31v18.63Z" transform="translate(-412.9 -513.08)"/><polygon class="cls-1" points="197.71 29.56 197.71 52.56 192.38 52.56 184.62 37.73 184.62 52.56 179.68 52.56 179.68 29.56 185.01 29.56 192.77 44.35 192.77 29.56 197.71 29.56"/><path class="cls-1" d="M623.1,565.65v-23h14.39V547h-9.21v4.62h7.84V556h-7.84v5.3h9.57v4.37Z" transform="translate(-412.9 -513.08)"/><path class="cls-1" d="M521.09,542.64h-6.25l-7.19,23h5.19l1.48-5.46h7.29l1.48,5.46h5.19Zm-5.66,13.47,2.53-9.34,2.54,9.34Z" transform="translate(-412.9 -513.08)"/><polygon class="cls-2" points="6.67 14.53 0 7.86 6.67 1.18 9.05 3.56 4.75 7.86 9.05 12.15 6.67 14.53"/><polygon class="cls-3" points="43.23 53.31 40.85 50.93 45.15 46.64 40.85 42.34 43.23 39.96 49.9 46.64 43.23 53.31"/><path class="cls-1" d="M458.92,535V519.26H444l-6.19-6.18L430,520.94l7.86,7.85,6.19-6.17h11.52V535a5.63,5.63,0,0,0-3.63,3.61H424v-3.88H412.9v11.11h3.88V561.4h14.89l6.18,6.19,7.87-7.87-7.87-7.86L431.67,558H420.14V545.88H424V542H452a5.56,5.56,0,1,0,7-7Zm-21.07-11-3.11-3.11,3.11-3.1,3.11,3.1Zm0,32.56,3.11,3.11-3.11,3.11-3.11-3.11Zm-17.19-14.09h-4.4v-4.39h4.4Zm36.58,0a2.2,2.2,0,1,1,2.2-2.19A2.2,2.2,0,0,1,457.24,542.52Z" transform="translate(-412.9 -513.08)"/></svg>