<?xml version="1.0" encoding="utf-8"?>
<!-- Generator: Adobe Illustrator 24.1.2, SVG Export Plug-In . SVG Version: 6.00 Build 0)  -->
<svg version="1.1" id="Слой_1" xmlns="http://www.w3.org/2000/svg" xmlns:xlink="http://www.w3.org/1999/xlink" x="0px" y="0px"
	 viewBox="0 0 254.9 54.5" style="enable-background:new 0 0 254.9 54.5;" xml:space="preserve">
<style type="text/css">
	.st0{fill:#FFFFFF;}
	.st1{fill:#0086C9;}
	.st2{fill:#5222D0;}
</style>
<path class="st0" d="M76.6,14.5c-0.7,0-1.4-0.1-2.1-0.4c-0.6-0.3-1.2-0.7-1.7-1.2c-0.5-0.6-0.9-1.3-1.1-2c-0.3-0.9-0.4-1.8-0.4-2.7
	c0-0.9,0.1-1.8,0.4-2.6c0.2-0.7,0.6-1.4,1.1-2c0.5-0.5,1.1-1,1.7-1.3C75.3,2,76,1.9,76.7,1.9c0.7,0,1.3,0.1,2,0.5
	c0.5,0.3,1,0.6,1.4,1l-0.8,1c-0.3-0.3-0.7-0.6-1.1-0.8c-0.4-0.2-0.9-0.3-1.4-0.3c-0.5,0-1.1,0.1-1.6,0.3c-0.5,0.2-0.9,0.6-1.2,1
	c-0.4,0.5-0.6,1-0.8,1.5c-0.2,0.7-0.3,1.3-0.3,2c0,0.7,0.1,1.4,0.3,2.1c0.2,0.6,0.4,1.1,0.8,1.6c0.3,0.4,0.7,0.8,1.2,1
	c0.5,0.2,1,0.4,1.6,0.3c0.5,0,1.1-0.1,1.5-0.4c0.5-0.3,0.9-0.6,1.3-1l0.9,1c-0.5,0.5-1,1-1.6,1.3C78.1,14.3,77.4,14.5,76.6,14.5z"/>
<path class="st0" d="M82.5,14.3v-9h1.5V9c0,0.5,0,1,0,1.6s-0.1,1.2-0.1,1.7h0.1l0.6-1c0.2-0.4,0.4-0.7,0.6-1l3.4-5.1h1.4v9h-1.5
	v-3.7c0-0.5,0-1,0-1.6s0.1-1.2,0.1-1.8h-0.1c-0.2,0.3-0.4,0.6-0.6,1s-0.4,0.7-0.6,1l-3.4,5.1H82.5z"/>
<path class="st0" d="M96.5,14.5c-0.6,0-1.1-0.1-1.7-0.3c-0.5-0.2-1-0.5-1.3-0.9c-0.4-0.4-0.7-0.9-0.9-1.5c-0.2-0.6-0.3-1.3-0.3-2
	c0-0.7,0.1-1.4,0.4-2c0.2-0.5,0.5-1.1,0.9-1.5c0.4-0.4,0.9-0.7,1.4-0.9c0.5-0.2,1.1-0.3,1.7-0.3c0.5,0,1,0.1,1.5,0.3
	c0.4,0.2,0.8,0.4,1.1,0.7l-0.8,1c-0.2-0.2-0.5-0.4-0.8-0.6c-0.3-0.2-0.7-0.2-1-0.2c-0.4,0-0.8,0.1-1.1,0.3c-0.3,0.2-0.6,0.4-0.9,0.7
	C94.3,7.6,94.1,8,94,8.4c-0.1,0.5-0.2,0.9-0.2,1.4c0,0.5,0.1,0.9,0.2,1.4c0.1,0.4,0.3,0.8,0.6,1.1c0.2,0.3,0.5,0.5,0.9,0.7
	c0.4,0.2,0.7,0.3,1.1,0.3c0.4,0,0.8-0.1,1.2-0.3c0.3-0.2,0.7-0.4,1-0.6l0.7,1c-0.4,0.3-0.9,0.6-1.4,0.8C97.5,14.4,97,14.5,96.5,14.5
	z"/>
<path class="st0" d="M103.1,14.3V6.5h-3V5.3h7.5v1.2h-3v7.7H103.1z"/>
<path class="st0" d="M113,14.5c-0.6,0-1.2-0.1-1.7-0.3c-0.5-0.2-1-0.5-1.4-0.9c-0.4-0.4-0.7-0.9-0.9-1.5c-0.2-0.6-0.3-1.3-0.3-2
	c0-0.7,0.1-1.4,0.3-2c0.2-0.5,0.5-1.1,0.9-1.5c0.4-0.4,0.8-0.7,1.3-0.9c0.5-0.2,1-0.3,1.5-0.3c0.5,0,1,0.1,1.5,0.3
	c0.4,0.2,0.8,0.5,1.1,0.8c0.3,0.4,0.5,0.8,0.7,1.3c0.2,0.6,0.2,1.2,0.2,1.7c0,0.2,0,0.3,0,0.5c0,0.1,0,0.3,0,0.4h-6.1
	c0,0.8,0.3,1.7,0.9,2.3c0.6,0.6,1.3,0.9,2.1,0.8c0.4,0,0.8-0.1,1.2-0.2c0.4-0.1,0.7-0.3,1-0.5l0.5,1c-0.4,0.3-0.9,0.5-1.3,0.7
	C114.2,14.4,113.6,14.5,113,14.5z M110.2,9.1h4.8c0.1-0.7-0.2-1.5-0.6-2.1c-0.4-0.5-1-0.7-1.6-0.7c-0.3,0-0.6,0.1-0.9,0.2
	c-0.3,0.1-0.6,0.3-0.8,0.5c-0.2,0.3-0.4,0.6-0.6,0.9C110.3,8.3,110.2,8.7,110.2,9.1z"/>
<path class="st0" d="M118.6,14.3v-9h1.8l1.8,4.2c0.1,0.4,0.3,0.7,0.4,1.1s0.3,0.7,0.4,1.1h0.1l0.4-1.1c0.1-0.4,0.3-0.7,0.4-1.1
	l1.7-4.2h1.7v9h-1.4v-4c0-0.2,0-0.4,0-0.7s0-0.5,0-0.8l0.1-0.8c0-0.3,0-0.5,0.1-0.8h-0.1l-0.4,1.1c-0.2,0.4-0.3,0.7-0.4,1l-1.7,4.2
	h-1l-1.7-4.2c-0.1-0.3-0.3-0.7-0.4-1l-0.4-1.1h-0.1c0,0.2,0,0.5,0,0.8s0,0.6,0,0.8s0,0.5,0,0.8s0,0.5,0,0.7v4H118.6z"/>
<path class="st0" d="M130.3,14.3v-9h1.5v3.6h4.3V5.3h1.5v9h-1.5v-4h-4.3v4H130.3z"/>
<path class="st0" d="M140.6,14.3v-9h1.5v3.3h1.3c0.5,0,1,0,1.5,0.2c0.4,0.1,0.8,0.3,1.1,0.5c0.3,0.2,0.6,0.5,0.7,0.9
	c0.2,0.4,0.3,0.8,0.3,1.3c0,0.4-0.1,0.9-0.3,1.3c-0.2,0.4-0.4,0.7-0.7,0.9c-0.3,0.2-0.7,0.4-1.1,0.5c-0.5,0.1-1,0.2-1.5,0.2
	L140.6,14.3z M142.2,13.1h1.1c1.5,0,2.2-0.5,2.2-1.6c0-0.5-0.2-0.9-0.5-1.2c-0.5-0.3-1.1-0.4-1.7-0.4h-1.1V13.1z M148.6,14.3v-9h1.5
	v9H148.6z"/>
<path class="st0" d="M156.7,14.5c-0.6,0-1.2-0.1-1.7-0.3c-0.5-0.2-1-0.5-1.4-0.9c-0.4-0.4-0.7-0.9-0.9-1.5c-0.2-0.6-0.3-1.3-0.3-2
	c0-0.7,0.1-1.4,0.3-2c0.2-0.5,0.5-1.1,0.9-1.5c0.4-0.4,0.8-0.7,1.3-0.9c0.5-0.2,1-0.3,1.5-0.3c0.5,0,1,0.1,1.5,0.3
	c0.4,0.2,0.8,0.5,1.1,0.8c0.3,0.4,0.5,0.8,0.7,1.3c0.2,0.6,0.2,1.2,0.2,1.7c0,0.2,0,0.3,0,0.5c0,0.1,0,0.3,0,0.4H154
	c0,0.8,0.3,1.7,0.9,2.3c0.5,0.6,1.3,0.9,2.1,0.8c0.4,0,0.8-0.1,1.2-0.2c0.4-0.1,0.7-0.3,1-0.5l0.5,1c-0.4,0.3-0.9,0.5-1.3,0.7
	C157.9,14.4,157.3,14.5,156.7,14.5z M153.9,9.1h4.8c0.1-0.7-0.2-1.5-0.6-2.1c-0.4-0.5-1-0.7-1.6-0.7c-0.3,0-0.6,0.1-0.9,0.2
	c-0.3,0.1-0.6,0.3-0.8,0.5c-0.2,0.3-0.4,0.6-0.6,0.9C154.1,8.3,154,8.7,153.9,9.1z"/>
<path class="st0" d="M166,18.1V5.3h1.3l0.1,1h0.1c0.4-0.3,0.9-0.6,1.3-0.9c0.5-0.2,1-0.4,1.5-0.4c0.5,0,1.1,0.1,1.5,0.3
	c0.4,0.2,0.8,0.5,1.1,0.9c0.3,0.4,0.5,0.9,0.7,1.4c0.2,0.6,0.2,1.3,0.2,1.9c0,0.7-0.1,1.4-0.3,2c-0.2,0.6-0.5,1.1-0.9,1.5
	c-0.3,0.4-0.8,0.8-1.2,1c-0.5,0.2-1,0.3-1.5,0.3c-0.4,0-0.9-0.1-1.3-0.3c-0.4-0.2-0.9-0.5-1.3-0.8V15v3L166,18.1z M169.7,13.2
	c0.3,0,0.7-0.1,1-0.3c0.3-0.2,0.6-0.4,0.8-0.7c0.2-0.3,0.4-0.7,0.5-1.1c0.1-0.5,0.2-1,0.2-1.5c0-0.5,0-0.9-0.1-1.3
	c-0.1-0.4-0.2-0.7-0.4-1c-0.2-0.3-0.4-0.5-0.7-0.7c-0.3-0.2-0.7-0.3-1.1-0.2c-0.4,0-0.8,0.1-1.2,0.3c-0.4,0.3-0.9,0.6-1.3,0.9v4.7
	c0.4,0.3,0.8,0.6,1.2,0.7C169,13.2,169.3,13.2,169.7,13.2L169.7,13.2z"/>
<path class="st0" d="M179.9,14.5c-0.6,0-1.2-0.1-1.7-0.3c-0.5-0.2-1-0.5-1.4-0.9c-0.4-0.4-0.7-0.9-0.9-1.5c-0.2-0.6-0.3-1.3-0.3-2
	c0-0.7,0.1-1.4,0.3-2c0.2-0.5,0.5-1.1,0.9-1.5c0.4-0.4,0.8-0.7,1.3-0.9c0.5-0.2,1-0.3,1.5-0.3c0.5,0,1,0.1,1.5,0.3
	c0.4,0.2,0.8,0.5,1.1,0.8c0.3,0.4,0.5,0.8,0.7,1.3c0.2,0.6,0.2,1.2,0.2,1.7c0,0.2,0,0.3,0,0.5c0,0.1,0,0.3,0,0.4h-6.1
	c0,0.8,0.3,1.7,0.9,2.3c0.5,0.6,1.3,0.9,2.1,0.8c0.4,0,0.8-0.1,1.2-0.2c0.4-0.1,0.7-0.3,1-0.5l0.5,1c-0.4,0.3-0.9,0.5-1.3,0.7
	C181,14.4,180.4,14.5,179.9,14.5z M177,9.1h4.8c0.1-0.7-0.2-1.5-0.6-2.1c-0.4-0.5-1-0.7-1.6-0.7c-0.3,0-0.6,0.1-0.9,0.2
	c-0.3,0.1-0.6,0.3-0.8,0.5c-0.2,0.3-0.4,0.6-0.6,0.9C177.2,8.3,177.1,8.7,177,9.1z"/>
<path class="st0" d="M185.4,14.3v-9h1.5V13h3.2V5.3h1.5V13h3.2V5.3h1.5v9H185.4z"/>
<path class="st0" d="M202.9,14.5c-0.6,0-1.2-0.1-1.7-0.3c-0.5-0.2-1-0.5-1.4-0.9c-0.4-0.4-0.7-0.9-0.9-1.5c-0.2-0.6-0.4-1.3-0.3-2
	c0-0.7,0.1-1.4,0.3-2c0.2-0.5,0.5-1.1,0.9-1.5c0.4-0.4,0.8-0.7,1.3-0.9c0.5-0.2,1-0.3,1.5-0.3c0.5,0,1,0.1,1.5,0.3
	c0.4,0.2,0.8,0.5,1.1,0.8c0.3,0.4,0.5,0.8,0.7,1.3c0.2,0.6,0.2,1.2,0.2,1.7c0,0.2,0,0.3,0,0.5c0,0.1,0,0.3,0,0.4h-6
	c0,0.8,0.3,1.7,0.9,2.3c0.5,0.6,1.3,0.9,2.1,0.8c0.4,0,0.8-0.1,1.2-0.2c0.4-0.1,0.7-0.3,1-0.5l0.5,1c-0.4,0.3-0.9,0.5-1.3,0.7
	C204,14.4,203.4,14.5,202.9,14.5z M200,9.1h4.8c0-0.7-0.2-1.5-0.6-2.1c-0.4-0.5-1-0.7-1.6-0.7c-0.3,0-0.6,0.1-0.9,0.2
	c-0.3,0.1-0.6,0.3-0.8,0.5c-0.2,0.3-0.4,0.6-0.6,0.9C200.2,8.3,200.1,8.7,200,9.1z"/>
<path class="st0" d="M208.4,14.3v-9h1.5v3.6h4.3V5.3h1.5v9h-1.5v-4h-4.3v4H208.4z"/>
<path class="st0" d="M218.8,14.3v-9h1.5V9c0,0.5,0,1,0,1.6s-0.1,1.2-0.1,1.7h0.1l0.6-1c0.2-0.4,0.4-0.7,0.6-1l3.4-5.1h1.4v9h-1.5
	v-3.7c0-0.5,0-1,0-1.6s0.1-1.2,0.1-1.8h-0.1c-0.2,0.3-0.4,0.6-0.6,1s-0.4,0.7-0.6,1l-3.4,5.1H218.8z"/>
<path class="st0" d="M234.2,14.3v-3.5h-1.7l-2.5,3.5h-1.7l2.7-3.8c-0.6-0.2-1.1-0.5-1.5-0.9c-0.4-0.5-0.6-1.1-0.6-1.7
	c0-0.4,0.1-0.9,0.3-1.3c0.2-0.3,0.4-0.6,0.7-0.8c0.3-0.2,0.7-0.4,1.1-0.5c0.5-0.1,0.9-0.1,1.4-0.1h3.2v9L234.2,14.3z M232.8,9.6h1.4
	V6.5h-1.4c-0.6,0-1.1,0.1-1.7,0.4c-0.4,0.2-0.6,0.7-0.6,1.2c0,0.5,0.2,0.9,0.6,1.2C231.6,9.5,232.2,9.7,232.8,9.6z"/>
<path class="st0" d="M71.4,52.6v-23h7.9c1.2,0,2.4,0.1,3.6,0.4c1,0.2,2,0.6,2.9,1.2c0.8,0.6,1.5,1.4,2,2.3c0.5,1.1,0.8,2.3,0.7,3.5
	c0,1.2-0.2,2.4-0.7,3.5c-0.5,1-1.2,1.8-2,2.4c-0.9,0.7-1.8,1.1-2.9,1.4c-1.1,0.3-2.3,0.5-3.5,0.5h-2.9v7.8L71.4,52.6z M76.5,40.7
	h2.6c2.8,0,4.2-1.2,4.2-3.7c0.1-1-0.3-2-1.1-2.5c-1-0.6-2.1-0.8-3.3-0.7h-2.4L76.5,40.7z"/>
<path class="st0" d="M124.9,52.6v-23h8.3c1.2,0,2.3,0.1,3.4,0.3c1,0.2,2,0.6,2.8,1.2c0.8,0.6,1.5,1.3,1.9,2.2
	c0.5,1.1,0.7,2.2,0.7,3.4c0.1,1.5-0.3,2.9-1.1,4.2c-0.7,1.1-1.8,1.9-3,2.5l5.2,9.2h-5.8l-4.4-8.3h-2.9v8.3H124.9z M130.1,40.1h2.7
	c1.1,0.1,2.2-0.2,3.1-0.9c0.7-0.6,1.1-1.6,1.1-2.6c0.1-0.9-0.3-1.8-1.1-2.4c-1-0.5-2-0.7-3.1-0.7h-2.7V40.1z"/>
<path class="st0" d="M236.6,52.6v-23h8.3c1.2,0,2.3,0.1,3.4,0.3c1,0.2,2,0.6,2.8,1.2c0.8,0.6,1.5,1.3,1.9,2.2
	c0.5,1.1,0.7,2.2,0.7,3.4c0.1,1.5-0.3,2.9-1.1,4.2c-0.7,1.1-1.8,1.9-3,2.5l5.2,9.2H249l-4.4-8.3h-2.9v8.3H236.6z M241.8,40.2h2.7
	c1.1,0.1,2.2-0.2,3.1-0.9c0.7-0.6,1.1-1.6,1.1-2.6c0.1-0.9-0.3-1.8-1.1-2.4c-1-0.5-2-0.7-3.1-0.7h-2.7V40.2z"/>
<path class="st0" d="M157.5,52.6V33.9h-6.3v-4.4H169v4.4h-6.3v18.6L157.5,52.6z"/>
<polygon class="st0" points="197.7,29.6 197.7,52.6 192.4,52.6 184.6,37.7 184.6,52.6 179.7,52.6 179.7,29.6 185,29.6 192.8,44.3 
	192.8,29.6 "/>
<path class="st0" d="M210.2,52.6v-23h14.4v4.3h-9.2v4.6h7.8v4.4h-7.8v5.3h9.6v4.4L210.2,52.6z"/>
<path class="st0" d="M108.2,29.6h-6.3l-7.2,23h5.2l1.5-5.5h7.3l1.5,5.5h5.2L108.2,29.6z M102.5,43l2.5-9.3l2.5,9.3H102.5z"/>
<polygon class="st1" points="6.7,14.5 0,7.9 6.7,1.2 9.1,3.6 4.8,7.9 9.1,12.1 "/>
<polygon class="st2" points="43.2,53.3 40.8,50.9 45.2,46.6 40.8,42.3 43.2,40 49.9,46.6 "/>
<path class="st0" d="M46,21.9V6.2H31.1L24.9,0l-7.8,7.9l7.9,7.8l6.2-6.2h11.5v12.4c-1.7,0.6-3.1,1.9-3.6,3.6H11.1v-3.9H0v11.1h3.9
	v15.6h14.9l6.2,6.2l7.9-7.9L25,38.8l-6.2,6.1H7.2V32.8h3.9v-3.9h28c0.9,2.9,4.1,4.5,7,3.6c2.9-0.9,4.5-4.1,3.6-7
	C49.1,23.8,47.8,22.5,46,21.9L46,21.9z M25,10.9l-3.1-3.1L25,4.7l3.1,3.1L25,10.9z M25,43.5l3.1,3.1L25,49.7l-3.1-3.1L25,43.5z
	 M7.8,29.4H3.4V25h4.4V29.4z M44.3,29.4c-1.2,0-2.2-1-2.2-2.2c0-1.2,1-2.2,2.2-2.2c1.2,0,2.2,1,2.2,2.2c0,0,0,0,0,0
	C46.6,28.4,45.6,29.4,44.3,29.4C44.4,29.4,44.4,29.4,44.3,29.4L44.3,29.4z"/>
</svg>
