<?xml version="1.0" encoding="utf-8"?>
<!-- Generator: Adobe Illustrator 24.1.2, SVG Export Plug-In . SVG Version: 6.00 Build 0)  -->
<svg version="1.1" id="Слой_1" xmlns="http://www.w3.org/2000/svg" xmlns:xlink="http://www.w3.org/1999/xlink" x="0px" y="0px"
	 viewBox="0 0 254.9 54.5" style="enable-background:new 0 0 254.9 54.5;" xml:space="preserve">
<style type="text/css">
	.st0{fill:#FFFFFF;}
	.st1{fill:#0086C9;}
	.st2{fill:#5222D0;}
</style>
<g>
	<g>
		<g>
			<path class="st0" d="M75,15.6c-0.8,0-1.4-0.1-2-0.4c-0.6-0.3-1.1-0.7-1.6-1.2l0.8-0.9c0.4,0.4,0.8,0.7,1.2,0.9
				c0.4,0.2,0.9,0.3,1.5,0.3c1,0,1.7-0.3,2.3-1c0.6-0.7,0.9-1.7,0.9-3.1h-4.6V9h4.6c-0.1-1.2-0.4-2.1-1-2.7
				c-0.6-0.6-1.3-0.9-2.3-0.9c-0.5,0-0.9,0.1-1.4,0.3c-0.4,0.2-0.8,0.4-1.1,0.8l-0.8-0.9c0.4-0.4,0.8-0.7,1.4-0.9
				c0.6-0.3,1.2-0.4,1.9-0.4c0.7,0,1.3,0.1,1.9,0.4c0.6,0.2,1.1,0.6,1.5,1.1c0.4,0.5,0.7,1.1,0.9,1.8c0.2,0.7,0.3,1.5,0.3,2.5
				c0,0.9-0.1,1.8-0.3,2.5c-0.2,0.7-0.6,1.3-1,1.8c-0.4,0.5-0.9,0.8-1.5,1.1C76.3,15.4,75.6,15.6,75,15.6z"/>
			<path class="st0" d="M81.9,15.4V7.2h1.4v3.4h1.6l0.8-1.8c0.2-0.4,0.3-0.6,0.5-0.9c0.2-0.2,0.3-0.4,0.5-0.5
				c0.2-0.1,0.4-0.2,0.6-0.3C87.3,7,87.5,7,87.8,7c0.2,0,0.3,0,0.5,0.1L88,8.4c-0.1,0-0.1,0-0.1,0s-0.1,0-0.1,0c-0.1,0-0.2,0-0.3,0
				c-0.1,0-0.2,0.1-0.3,0.2c-0.1,0.1-0.2,0.2-0.3,0.3c-0.1,0.1-0.2,0.3-0.3,0.6l-0.7,1.6l2.8,4.3h-1.5l-2.3-3.7h-1.6v3.7H81.9z"/>
			<path class="st0" d="M93.2,15.6c-0.5,0-1-0.1-1.5-0.3c-0.5-0.2-0.9-0.5-1.2-0.8c-0.3-0.4-0.6-0.8-0.8-1.3
				c-0.2-0.5-0.3-1.1-0.3-1.8c0-0.7,0.1-1.3,0.3-1.8c0.2-0.5,0.5-1,0.9-1.4c0.4-0.4,0.8-0.6,1.3-0.8c0.5-0.2,1-0.3,1.5-0.3
				c0.5,0,1,0.1,1.4,0.3c0.4,0.2,0.7,0.4,1,0.7l-0.7,0.9c-0.2-0.2-0.5-0.4-0.7-0.5c-0.3-0.1-0.6-0.2-0.9-0.2c-0.4,0-0.7,0.1-1,0.2
				C92,8.5,91.7,8.7,91.5,9c-0.2,0.3-0.4,0.6-0.5,1c-0.1,0.4-0.2,0.8-0.2,1.3s0.1,0.9,0.2,1.3c0.1,0.4,0.3,0.7,0.5,1
				c0.2,0.3,0.5,0.5,0.8,0.6c0.3,0.2,0.7,0.2,1,0.2c0.4,0,0.7-0.1,1-0.2c0.3-0.2,0.6-0.4,0.9-0.6l0.6,0.9c-0.4,0.3-0.8,0.6-1.2,0.8
				C94.1,15.5,93.6,15.6,93.2,15.6z"/>
			<path class="st0" d="M97.6,15.4V7.2h6.5v8.2h-1.4v-7H99v7H97.6z"/>
			<path class="st0" d="M110.2,15.6c-0.5,0-1.1-0.1-1.5-0.3c-0.5-0.2-0.9-0.5-1.2-0.8c-0.4-0.4-0.6-0.8-0.8-1.3
				c-0.2-0.5-0.3-1.1-0.3-1.8c0-0.7,0.1-1.3,0.3-1.8c0.2-0.5,0.5-1,0.8-1.4c0.3-0.4,0.7-0.7,1.2-0.8c0.4-0.2,0.9-0.3,1.4-0.3
				c0.5,0,1,0.1,1.4,0.3c0.4,0.2,0.7,0.4,1,0.8c0.3,0.3,0.5,0.7,0.6,1.2c0.1,0.5,0.2,1,0.2,1.6c0,0.1,0,0.3,0,0.4c0,0.1,0,0.3,0,0.4
				h-5.5c0.1,0.9,0.3,1.6,0.8,2.1c0.5,0.5,1.1,0.8,1.9,0.8c0.4,0,0.8-0.1,1.1-0.2c0.3-0.1,0.6-0.3,0.9-0.5l0.5,0.9
				c-0.4,0.2-0.8,0.4-1.2,0.6C111.2,15.5,110.7,15.6,110.2,15.6z M107.6,10.6h4.4c0-0.8-0.2-1.5-0.5-1.9c-0.4-0.4-0.8-0.6-1.5-0.6
				c-0.3,0-0.6,0.1-0.8,0.2c-0.3,0.1-0.5,0.3-0.7,0.5c-0.2,0.2-0.4,0.5-0.5,0.8C107.7,9.9,107.6,10.2,107.6,10.6z"/>
			<path class="st0" d="M115.2,18.8V7.2h1.1l0.1,0.9h0.1c0.4-0.3,0.8-0.6,1.2-0.8c0.4-0.2,0.9-0.3,1.4-0.3c0.5,0,1,0.1,1.4,0.3
				c0.4,0.2,0.7,0.5,1,0.8c0.3,0.4,0.5,0.8,0.6,1.3c0.1,0.5,0.2,1.1,0.2,1.7c0,0.7-0.1,1.3-0.3,1.9c-0.2,0.5-0.4,1-0.8,1.4
				c-0.3,0.4-0.7,0.7-1.1,0.9c-0.4,0.2-0.9,0.3-1.3,0.3c-0.4,0-0.8-0.1-1.1-0.3c-0.4-0.2-0.8-0.4-1.1-0.7l0,1.4v2.8H115.2z
				 M118.6,14.4c0.3,0,0.6-0.1,0.9-0.2c0.3-0.2,0.5-0.4,0.7-0.6c0.2-0.3,0.4-0.6,0.5-1c0.1-0.4,0.2-0.9,0.2-1.4c0-0.4,0-0.9-0.1-1.2
				c-0.1-0.4-0.2-0.7-0.4-0.9c-0.2-0.3-0.4-0.5-0.7-0.6c-0.3-0.1-0.6-0.2-1-0.2c-0.3,0-0.7,0.1-1,0.3c-0.4,0.2-0.7,0.5-1.1,0.8v4.3
				c0.4,0.3,0.7,0.5,1.1,0.7C118,14.3,118.3,14.4,118.6,14.4z"/>
			<path class="st0" d="M126,15.4v-7h-2.7V7.2h6.8v1.1h-2.7v7H126z"/>
			<path class="st0" d="M131.9,15.4V7.2h1.4v3.3h3.9V7.2h1.4v8.2h-1.4v-3.6h-3.9v3.6H131.9z"/>
			<path class="st0" d="M141.4,15.4V7.2h1.4v3h1.2c0.5,0,0.9,0.1,1.3,0.2c0.4,0.1,0.7,0.3,1,0.5c0.3,0.2,0.5,0.5,0.7,0.8
				c0.2,0.3,0.2,0.7,0.2,1.2c0,0.5-0.1,0.9-0.2,1.2c-0.2,0.3-0.4,0.6-0.7,0.8c-0.3,0.2-0.6,0.4-1,0.5c-0.4,0.1-0.8,0.2-1.3,0.2
				H141.4z M142.8,14.2h1c1.4,0,2-0.5,2-1.5c0-0.5-0.2-0.9-0.5-1.1c-0.3-0.2-0.8-0.4-1.5-0.4h-1V14.2z M148.6,15.4V7.2h1.4v8.2
				H148.6z"/>
			<path class="st0" d="M156,15.6c-0.5,0-1.1-0.1-1.5-0.3c-0.5-0.2-0.9-0.5-1.2-0.8c-0.4-0.4-0.6-0.8-0.8-1.3
				c-0.2-0.5-0.3-1.1-0.3-1.8c0-0.7,0.1-1.3,0.3-1.8c0.2-0.5,0.5-1,0.8-1.4c0.3-0.4,0.7-0.7,1.2-0.8c0.4-0.2,0.9-0.3,1.4-0.3
				c0.5,0,1,0.1,1.4,0.3c0.4,0.2,0.7,0.4,1,0.8c0.3,0.3,0.5,0.7,0.6,1.2c0.1,0.5,0.2,1,0.2,1.6c0,0.1,0,0.3,0,0.4c0,0.1,0,0.3,0,0.4
				h-5.5c0.1,0.9,0.3,1.6,0.8,2.1c0.5,0.5,1.1,0.8,1.9,0.8c0.4,0,0.8-0.1,1.1-0.2c0.3-0.1,0.6-0.3,0.9-0.5l0.5,0.9
				c-0.4,0.2-0.8,0.4-1.2,0.6C157.1,15.5,156.6,15.6,156,15.6z M153.4,10.6h4.4c0-0.8-0.2-1.5-0.5-1.9c-0.4-0.4-0.8-0.6-1.5-0.6
				c-0.3,0-0.6,0.1-0.8,0.2c-0.3,0.1-0.5,0.3-0.7,0.5c-0.2,0.2-0.4,0.5-0.5,0.8C153.6,9.9,153.5,10.2,153.4,10.6z"/>
			<path class="st0" d="M164.4,18.8V7.2h1.1l0.1,0.9h0.1c0.4-0.3,0.8-0.6,1.2-0.8c0.4-0.2,0.9-0.3,1.4-0.3c0.5,0,1,0.1,1.4,0.3
				c0.4,0.2,0.7,0.5,1,0.8c0.3,0.4,0.5,0.8,0.6,1.3c0.1,0.5,0.2,1.1,0.2,1.7c0,0.7-0.1,1.3-0.3,1.9c-0.2,0.5-0.4,1-0.8,1.4
				c-0.3,0.4-0.7,0.7-1.1,0.9c-0.4,0.2-0.9,0.3-1.3,0.3c-0.4,0-0.8-0.1-1.1-0.3c-0.4-0.2-0.8-0.4-1.1-0.7l0,1.4v2.8H164.4z
				 M167.8,14.4c0.3,0,0.6-0.1,0.9-0.2c0.3-0.2,0.5-0.4,0.7-0.6c0.2-0.3,0.4-0.6,0.5-1c0.1-0.4,0.2-0.9,0.2-1.4c0-0.4,0-0.9-0.1-1.2
				c-0.1-0.4-0.2-0.7-0.4-0.9c-0.2-0.3-0.4-0.5-0.7-0.6c-0.3-0.1-0.6-0.2-1-0.2c-0.3,0-0.7,0.1-1,0.3c-0.4,0.2-0.7,0.5-1.1,0.8v4.3
				c0.4,0.3,0.7,0.5,1.1,0.7C167.2,14.3,167.5,14.4,167.8,14.4z"/>
			<path class="st0" d="M177,15.6c-0.5,0-1.1-0.1-1.5-0.3c-0.5-0.2-0.9-0.5-1.2-0.8c-0.4-0.4-0.6-0.8-0.8-1.3
				c-0.2-0.5-0.3-1.1-0.3-1.8c0-0.7,0.1-1.3,0.3-1.8c0.2-0.5,0.5-1,0.8-1.4c0.3-0.4,0.7-0.7,1.2-0.8c0.4-0.2,0.9-0.3,1.4-0.3
				c0.5,0,1,0.1,1.4,0.3c0.4,0.2,0.7,0.4,1,0.8c0.3,0.3,0.5,0.7,0.6,1.2c0.1,0.5,0.2,1,0.2,1.6c0,0.1,0,0.3,0,0.4c0,0.1,0,0.3,0,0.4
				h-5.5c0.1,0.9,0.3,1.6,0.8,2.1c0.5,0.5,1.1,0.8,1.9,0.8c0.4,0,0.8-0.1,1.1-0.2c0.3-0.1,0.6-0.3,0.9-0.5l0.5,0.9
				c-0.4,0.2-0.8,0.4-1.2,0.6C178.1,15.5,177.6,15.6,177,15.6z M174.4,10.6h4.4c0-0.8-0.2-1.5-0.5-1.9c-0.4-0.4-0.8-0.6-1.5-0.6
				c-0.3,0-0.6,0.1-0.8,0.2c-0.3,0.1-0.5,0.3-0.7,0.5c-0.2,0.2-0.4,0.5-0.5,0.8C174.6,9.9,174.5,10.2,174.4,10.6z"/>
			<path class="st0" d="M182,15.4V7.2h1.4v7h2.9v-7h1.3v7h2.9v-7h1.4v8.2H182z"/>
			<path class="st0" d="M197.9,15.6c-0.5,0-1.1-0.1-1.5-0.3c-0.5-0.2-0.9-0.5-1.2-0.8c-0.4-0.4-0.6-0.8-0.8-1.3
				c-0.2-0.5-0.3-1.1-0.3-1.8c0-0.7,0.1-1.3,0.3-1.8c0.2-0.5,0.5-1,0.8-1.4c0.3-0.4,0.7-0.7,1.2-0.8c0.4-0.2,0.9-0.3,1.4-0.3
				c0.5,0,1,0.1,1.4,0.3c0.4,0.2,0.7,0.4,1,0.8c0.3,0.3,0.5,0.7,0.6,1.2c0.1,0.5,0.2,1,0.2,1.6c0,0.1,0,0.3,0,0.4c0,0.1,0,0.3,0,0.4
				h-5.5c0.1,0.9,0.3,1.6,0.8,2.1c0.5,0.5,1.1,0.8,1.9,0.8c0.4,0,0.8-0.1,1.1-0.2c0.3-0.1,0.6-0.3,0.9-0.5l0.5,0.9
				c-0.4,0.2-0.8,0.4-1.2,0.6C199,15.5,198.5,15.6,197.9,15.6z M195.3,10.6h4.4c0-0.8-0.2-1.5-0.5-1.9c-0.4-0.4-0.8-0.6-1.5-0.6
				c-0.3,0-0.6,0.1-0.8,0.2c-0.3,0.1-0.5,0.3-0.7,0.5c-0.2,0.2-0.4,0.5-0.5,0.8C195.5,9.9,195.4,10.2,195.3,10.6z"/>
			<path class="st0" d="M202.9,15.4V7.2h1.4v3.3h3.9V7.2h1.4v8.2h-1.4v-3.6h-3.9v3.6H202.9z"/>
			<path class="st0" d="M212.4,15.4V7.2h1.3v3.4c0,0.4,0,0.9,0,1.4c0,0.5-0.1,1-0.1,1.6h0.1c0.2-0.3,0.3-0.5,0.5-0.9
				c0.2-0.3,0.4-0.6,0.5-0.9l3.1-4.7h1.3v8.2h-1.3V12c0-0.4,0-0.9,0-1.4c0-0.5,0.1-1.1,0.1-1.6h-0.1c-0.2,0.3-0.3,0.6-0.5,0.9
				c-0.2,0.3-0.4,0.6-0.5,0.9l-3.1,4.7H212.4z"/>
			<path class="st0" d="M226.4,15.4v-3.2h-1.5h0l-2.2,3.2H221l2.5-3.4c-0.5-0.2-1-0.4-1.3-0.8c-0.4-0.4-0.5-0.9-0.5-1.5
				c0-0.4,0.1-0.8,0.2-1.1c0.2-0.3,0.4-0.6,0.7-0.7c0.3-0.2,0.6-0.3,1-0.4c0.4-0.1,0.8-0.1,1.3-0.1h2.9v8.2H226.4z M225.1,11.1h1.3
				V8.3h-1.3c-0.6,0-1.1,0.1-1.5,0.3c-0.4,0.2-0.5,0.6-0.5,1.1c0,0.5,0.2,0.8,0.5,1.1C223.9,11,224.4,11.1,225.1,11.1z"/>
		</g>
		<g>
			<g>
				<g>
					<path class="st0" d="M71.4,50.4v-23h7.9c1.3,0,2.5,0.1,3.6,0.4c1.1,0.2,2.1,0.7,2.9,1.2c0.8,0.6,1.5,1.3,2,2.3
						c0.5,1,0.7,2.1,0.7,3.5c0,1.3-0.2,2.5-0.7,3.5c-0.5,1-1.1,1.8-2,2.4c-0.8,0.6-1.8,1.1-2.9,1.4c-1.1,0.3-2.2,0.5-3.5,0.5h-2.9
						v7.8H71.4z M76.6,38.4h2.5c2.8,0,4.2-1.2,4.2-3.7c0-1.2-0.4-2-1.1-2.5c-0.8-0.5-1.8-0.7-3.2-0.7h-2.4V38.4z"/>
				</g>
				<g>
					<path class="st0" d="M125,50.4v-23h8.3c1.2,0,2.4,0.1,3.4,0.4c1.1,0.2,2,0.6,2.8,1.2s1.4,1.3,1.9,2.2c0.5,0.9,0.7,2.1,0.7,3.4
						c0,1.7-0.4,3.1-1.1,4.2c-0.7,1.1-1.7,1.9-3,2.5l5.2,9.2h-5.8l-4.4-8.3h-2.9v8.3H125z M130.2,37.9h2.7c1.4,0,2.4-0.3,3.1-0.9
						c0.7-0.6,1.1-1.4,1.1-2.6c0-1.1-0.4-1.9-1.1-2.4c-0.7-0.4-1.8-0.7-3.1-0.7h-2.7V37.9z"/>
				</g>
				<g>
					<path class="st0" d="M236.5,50.4v-23h8.3c1.2,0,2.4,0.1,3.4,0.4c1.1,0.2,2,0.6,2.8,1.2s1.4,1.3,1.9,2.2
						c0.5,0.9,0.7,2.1,0.7,3.4c0,1.7-0.4,3.1-1.1,4.2c-0.7,1.1-1.7,1.9-3,2.5l5.2,9.2h-5.8l-4.4-8.3h-2.9v8.3H236.5z M241.7,37.9
						h2.7c1.4,0,2.4-0.3,3.1-0.9c0.7-0.6,1.1-1.4,1.1-2.6c0-1.1-0.4-1.9-1.1-2.4c-0.7-0.4-1.8-0.7-3.1-0.7h-2.7V37.9z"/>
				</g>
				<g>
					<path class="st0" d="M157.5,50.4V31.7h-6.3v-4.4H169v4.4h-6.3v18.6H157.5z"/>
				</g>
				<g>
					<polygon class="st0" points="197.7,27.4 197.7,50.4 192.3,50.4 184.6,35.5 184.6,50.4 179.7,50.4 179.7,27.4 185,27.4 
						192.7,42.1 192.7,27.4 					"/>
				</g>
				<g>
					<path class="st0" d="M210.1,50.4v-23h14.4v4.4h-9.2v4.6h7.8v4.3h-7.8V46h9.6v4.4H210.1z"/>
				</g>
				<g>
					<path class="st0" d="M108.2,27.4H102l-7.2,23h5.2l1.5-5.5h7.3l1.5,5.5h5.2L108.2,27.4z M102.6,40.8l2.5-9.3l2.5,9.3H102.6z"/>
				</g>
			</g>
		</g>
	</g>
	<g>
		<polygon class="st1" points="6.8,14.5 0.1,7.9 6.8,1.2 9.2,3.6 4.9,7.9 9.2,12.2 		"/>
		<polygon class="st2" points="43.3,53.3 40.9,50.9 45.2,46.6 40.9,42.3 43.3,40 50,46.6 		"/>
		<path class="st0" d="M46.1,21.9V6.2H31.2L25.1,0l-7.9,7.9l7.9,7.8l6.2-6.2h11.5V22c-1.7,0.5-3.1,1.9-3.6,3.6H11.2v-3.9H0.1v11.1H4
			v15.5h14.9l6.2,6.2l7.9-7.9l-7.9-7.9L18.9,45H7.4V32.8h3.9v-3.9h27.9c0.7,2.2,2.8,3.9,5.3,3.9c3.1,0,5.6-2.5,5.6-5.5
			C50,24.8,48.4,22.6,46.1,21.9z M25.1,11L22,7.9l3.1-3.1l3.1,3.1L25.1,11z M25.1,43.5l3.1,3.1l-3.1,3.1L22,46.6L25.1,43.5z
			 M7.9,29.4H3.5V25h4.4V29.4z M44.4,29.4c-1.2,0-2.2-1-2.2-2.2c0-1.2,1-2.2,2.2-2.2s2.2,1,2.2,2.2C46.6,28.5,45.6,29.4,44.4,29.4z"
			/>
	</g>
</g>
</svg>
