<?xml version="1.0" encoding="utf-8"?>
<!-- Generator: Adobe Illustrator 24.1.2, SVG Export Plug-In . SVG Version: 6.00 Build 0)  -->
<svg version="1.1" id="Слой_1" xmlns="http://www.w3.org/2000/svg" xmlns:xlink="http://www.w3.org/1999/xlink" x="0px" y="0px"
	 viewBox="0 0 257.9 55.2" style="enable-background:new 0 0 257.9 55.2;" xml:space="preserve">
<style type="text/css">
	.st0{fill:#222222;}
	.st1{fill:#0086C9;}
	.st2{fill:#5222D0;}
</style>
<g>
	<g>
		<g>
			<path class="st0" d="M75.8,15.8c-0.8,0-1.4-0.1-2-0.4s-1.1-0.7-1.6-1.2l0.8-0.9c0.4,0.4,0.8,0.7,1.2,0.9c0.4,0.2,1,0.3,1.5,0.3
				c1,0,1.8-0.3,2.3-1c0.6-0.7,0.9-1.8,1-3.2h-4.7V9.1H79c-0.1-1.2-0.4-2.1-1-2.7c-0.6-0.6-1.3-0.9-2.3-0.9c-0.5,0-1,0.1-1.4,0.3
				c-0.4,0.2-0.8,0.4-1.1,0.8l-0.8-0.9c0.4-0.4,0.8-0.7,1.4-1c0.6-0.3,1.2-0.4,1.9-0.4c0.7,0,1.3,0.1,1.9,0.4
				c0.6,0.2,1.1,0.6,1.5,1.1c0.4,0.5,0.7,1.1,1,1.8c0.2,0.7,0.3,1.6,0.3,2.5c0,1-0.1,1.8-0.3,2.5c-0.2,0.7-0.6,1.3-1,1.8
				c-0.4,0.5-0.9,0.8-1.5,1.1C77.1,15.6,76.5,15.8,75.8,15.8z"/>
			<path class="st0" d="M82.8,15.6V7.3h1.4v3.4h1.6l0.8-1.8c0.2-0.4,0.3-0.7,0.5-0.9c0.2-0.2,0.3-0.4,0.5-0.5
				c0.2-0.1,0.4-0.2,0.6-0.3s0.4-0.1,0.6-0.1c0.2,0,0.3,0,0.5,0.1L89,8.5c-0.1,0-0.1,0-0.1,0c0,0-0.1,0-0.1,0c-0.1,0-0.2,0-0.3,0
				c-0.1,0-0.2,0.1-0.3,0.2C88,8.7,87.9,8.8,87.8,9c-0.1,0.1-0.2,0.3-0.3,0.6l-0.7,1.6l2.8,4.4h-1.5l-2.3-3.7h-1.6v3.7H82.8z"/>
			<path class="st0" d="M94.2,15.8c-0.5,0-1.1-0.1-1.5-0.3c-0.5-0.2-0.9-0.5-1.2-0.8c-0.3-0.4-0.6-0.8-0.8-1.4
				c-0.2-0.5-0.3-1.1-0.3-1.8c0-0.7,0.1-1.3,0.3-1.8c0.2-0.5,0.5-1,0.9-1.4c0.4-0.4,0.8-0.7,1.3-0.9c0.5-0.2,1-0.3,1.5-0.3
				c0.5,0,1,0.1,1.4,0.3c0.4,0.2,0.7,0.4,1,0.7L96,9c-0.2-0.2-0.5-0.4-0.8-0.5c-0.3-0.1-0.6-0.2-0.9-0.2c-0.4,0-0.7,0.1-1,0.2
				c-0.3,0.2-0.6,0.4-0.8,0.7c-0.2,0.3-0.4,0.6-0.5,1c-0.1,0.4-0.2,0.8-0.2,1.3c0,0.5,0.1,0.9,0.2,1.3c0.1,0.4,0.3,0.7,0.5,1
				c0.2,0.3,0.5,0.5,0.8,0.6c0.3,0.2,0.7,0.2,1,0.2c0.4,0,0.7-0.1,1.1-0.2c0.3-0.2,0.6-0.4,0.9-0.6l0.6,0.9
				c-0.4,0.3-0.8,0.6-1.2,0.8C95.2,15.7,94.7,15.8,94.2,15.8z"/>
			<path class="st0" d="M98.7,15.6V7.3h6.6v8.3h-1.4V8.4h-3.8v7.1H98.7z"/>
			<path class="st0" d="M111.5,15.8c-0.6,0-1.1-0.1-1.6-0.3c-0.5-0.2-0.9-0.5-1.3-0.9c-0.4-0.4-0.6-0.8-0.8-1.4
				c-0.2-0.5-0.3-1.1-0.3-1.8c0-0.7,0.1-1.3,0.3-1.8c0.2-0.5,0.5-1,0.8-1.4c0.3-0.4,0.7-0.7,1.2-0.9c0.4-0.2,0.9-0.3,1.4-0.3
				c0.5,0,1,0.1,1.4,0.3c0.4,0.2,0.8,0.4,1,0.8c0.3,0.3,0.5,0.7,0.6,1.2c0.1,0.5,0.2,1,0.2,1.6c0,0.1,0,0.3,0,0.4c0,0.1,0,0.3,0,0.4
				h-5.6c0.1,0.9,0.3,1.6,0.8,2.1c0.5,0.5,1.1,0.8,1.9,0.8c0.4,0,0.8-0.1,1.1-0.2c0.3-0.1,0.7-0.3,1-0.5l0.5,0.9
				c-0.4,0.2-0.8,0.4-1.2,0.6C112.5,15.7,112,15.8,111.5,15.8z M108.9,10.8h4.4c0-0.8-0.2-1.5-0.5-1.9c-0.4-0.4-0.9-0.7-1.5-0.7
				c-0.3,0-0.6,0.1-0.8,0.2c-0.3,0.1-0.5,0.3-0.7,0.5c-0.2,0.2-0.4,0.5-0.5,0.8C109,10,108.9,10.3,108.9,10.8z"/>
			<path class="st0" d="M116.5,19V7.3h1.2l0.1,1h0.1c0.4-0.3,0.8-0.6,1.2-0.8c0.4-0.2,0.9-0.3,1.4-0.3c0.5,0,1,0.1,1.4,0.3
				c0.4,0.2,0.7,0.5,1,0.9c0.3,0.4,0.5,0.8,0.6,1.3c0.1,0.5,0.2,1.1,0.2,1.7c0,0.7-0.1,1.3-0.3,1.9c-0.2,0.6-0.5,1-0.8,1.4
				c-0.3,0.4-0.7,0.7-1.1,0.9c-0.4,0.2-0.9,0.3-1.4,0.3c-0.4,0-0.8-0.1-1.1-0.3c-0.4-0.2-0.8-0.4-1.1-0.7l0,1.4V19H116.5z M120,14.6
				c0.3,0,0.7-0.1,0.9-0.2c0.3-0.2,0.5-0.4,0.7-0.6c0.2-0.3,0.4-0.6,0.5-1c0.1-0.4,0.2-0.9,0.2-1.4c0-0.5,0-0.9-0.1-1.2
				c-0.1-0.4-0.2-0.7-0.4-1c-0.2-0.3-0.4-0.5-0.7-0.6c-0.3-0.1-0.6-0.2-1-0.2c-0.4,0-0.7,0.1-1.1,0.3c-0.4,0.2-0.7,0.5-1.1,0.8v4.3
				c0.4,0.3,0.7,0.5,1.1,0.7C119.4,14.5,119.7,14.6,120,14.6z"/>
			<path class="st0" d="M127.5,15.6V8.4h-2.8V7.3h6.9v1.1h-2.8v7.1H127.5z"/>
			<path class="st0" d="M133.5,15.6V7.3h1.4v3.4h4V7.3h1.4v8.3h-1.4v-3.7h-4v3.7H133.5z"/>
			<path class="st0" d="M143.1,15.6V7.3h1.4v3h1.2c0.5,0,0.9,0.1,1.3,0.2c0.4,0.1,0.7,0.3,1,0.5c0.3,0.2,0.5,0.5,0.7,0.8
				c0.2,0.3,0.2,0.7,0.2,1.2c0,0.5-0.1,0.9-0.2,1.2c-0.2,0.3-0.4,0.6-0.7,0.8c-0.3,0.2-0.6,0.4-1,0.5c-0.4,0.1-0.8,0.2-1.3,0.2
				H143.1z M144.5,14.4h1c1.4,0,2.1-0.5,2.1-1.5c0-0.5-0.2-0.9-0.5-1.1c-0.3-0.2-0.9-0.4-1.6-0.4h-1V14.4z M150.3,15.6V7.3h1.4v8.3
				H150.3z"/>
			<path class="st0" d="M157.9,15.8c-0.6,0-1.1-0.1-1.6-0.3c-0.5-0.2-0.9-0.5-1.3-0.9c-0.4-0.4-0.6-0.8-0.8-1.4
				c-0.2-0.5-0.3-1.1-0.3-1.8c0-0.7,0.1-1.3,0.3-1.8c0.2-0.5,0.5-1,0.8-1.4c0.3-0.4,0.7-0.7,1.2-0.9c0.4-0.2,0.9-0.3,1.4-0.3
				c0.5,0,1,0.1,1.4,0.3c0.4,0.2,0.8,0.4,1,0.8c0.3,0.3,0.5,0.7,0.6,1.2c0.1,0.5,0.2,1,0.2,1.6c0,0.1,0,0.3,0,0.4c0,0.1,0,0.3,0,0.4
				h-5.6c0.1,0.9,0.3,1.6,0.8,2.1c0.5,0.5,1.1,0.8,1.9,0.8c0.4,0,0.8-0.1,1.1-0.2c0.3-0.1,0.7-0.3,1-0.5l0.5,0.9
				c-0.4,0.2-0.8,0.4-1.2,0.6C158.9,15.7,158.4,15.8,157.9,15.8z M155.3,10.8h4.4c0-0.8-0.2-1.5-0.5-1.9c-0.4-0.4-0.9-0.7-1.5-0.7
				c-0.3,0-0.6,0.1-0.8,0.2c-0.3,0.1-0.5,0.3-0.7,0.5c-0.2,0.2-0.4,0.5-0.5,0.8C155.4,10,155.3,10.3,155.3,10.8z"/>
			<path class="st0" d="M166.4,19V7.3h1.2l0.1,1h0.1c0.4-0.3,0.8-0.6,1.2-0.8c0.4-0.2,0.9-0.3,1.4-0.3c0.5,0,1,0.1,1.4,0.3
				c0.4,0.2,0.7,0.5,1,0.9c0.3,0.4,0.5,0.8,0.6,1.3c0.1,0.5,0.2,1.1,0.2,1.7c0,0.7-0.1,1.3-0.3,1.9c-0.2,0.6-0.5,1-0.8,1.4
				c-0.3,0.4-0.7,0.7-1.1,0.9c-0.4,0.2-0.9,0.3-1.4,0.3c-0.4,0-0.8-0.1-1.1-0.3c-0.4-0.2-0.8-0.4-1.1-0.7l0,1.4V19H166.4z
				 M169.8,14.6c0.3,0,0.7-0.1,0.9-0.2c0.3-0.2,0.5-0.4,0.7-0.6c0.2-0.3,0.4-0.6,0.5-1c0.1-0.4,0.2-0.9,0.2-1.4c0-0.5,0-0.9-0.1-1.2
				c-0.1-0.4-0.2-0.7-0.4-1c-0.2-0.3-0.4-0.5-0.7-0.6c-0.3-0.1-0.6-0.2-1-0.2c-0.4,0-0.7,0.1-1.1,0.3c-0.4,0.2-0.7,0.5-1.1,0.8v4.3
				c0.4,0.3,0.7,0.5,1.1,0.7C169.2,14.5,169.5,14.6,169.8,14.6z"/>
			<path class="st0" d="M179.1,15.8c-0.6,0-1.1-0.1-1.6-0.3c-0.5-0.2-0.9-0.5-1.3-0.9c-0.4-0.4-0.6-0.8-0.8-1.4
				c-0.2-0.5-0.3-1.1-0.3-1.8c0-0.7,0.1-1.3,0.3-1.8c0.2-0.5,0.5-1,0.8-1.4c0.3-0.4,0.7-0.7,1.2-0.9c0.4-0.2,0.9-0.3,1.4-0.3
				c0.5,0,1,0.1,1.4,0.3c0.4,0.2,0.8,0.4,1,0.8c0.3,0.3,0.5,0.7,0.6,1.2c0.1,0.5,0.2,1,0.2,1.6c0,0.1,0,0.3,0,0.4c0,0.1,0,0.3,0,0.4
				h-5.6c0.1,0.9,0.3,1.6,0.8,2.1c0.5,0.5,1.1,0.8,1.9,0.8c0.4,0,0.8-0.1,1.1-0.2c0.3-0.1,0.7-0.3,1-0.5l0.5,0.9
				c-0.4,0.2-0.8,0.4-1.2,0.6C180.2,15.7,179.7,15.8,179.1,15.8z M176.5,10.8h4.4c0-0.8-0.2-1.5-0.5-1.9c-0.4-0.4-0.9-0.7-1.5-0.7
				c-0.3,0-0.6,0.1-0.8,0.2c-0.3,0.1-0.5,0.3-0.7,0.5c-0.2,0.2-0.4,0.5-0.5,0.8C176.7,10,176.6,10.3,176.5,10.8z"/>
			<path class="st0" d="M184.2,15.6V7.3h1.4v7.1h2.9V7.3h1.3v7.1h2.9V7.3h1.4v8.3H184.2z"/>
			<path class="st0" d="M200.3,15.8c-0.6,0-1.1-0.1-1.6-0.3c-0.5-0.2-0.9-0.5-1.3-0.9c-0.4-0.4-0.6-0.8-0.8-1.4
				c-0.2-0.5-0.3-1.1-0.3-1.8c0-0.7,0.1-1.3,0.3-1.8c0.2-0.5,0.5-1,0.8-1.4c0.3-0.4,0.7-0.7,1.2-0.9c0.4-0.2,0.9-0.3,1.4-0.3
				c0.5,0,1,0.1,1.4,0.3c0.4,0.2,0.8,0.4,1,0.8c0.3,0.3,0.5,0.7,0.6,1.2c0.1,0.5,0.2,1,0.2,1.6c0,0.1,0,0.3,0,0.4c0,0.1,0,0.3,0,0.4
				h-5.6c0.1,0.9,0.3,1.6,0.8,2.1c0.5,0.5,1.1,0.8,1.9,0.8c0.4,0,0.8-0.1,1.1-0.2c0.3-0.1,0.7-0.3,1-0.5l0.5,0.9
				c-0.4,0.2-0.8,0.4-1.2,0.6C201.4,15.7,200.9,15.8,200.3,15.8z M197.7,10.8h4.4c0-0.8-0.2-1.5-0.5-1.9c-0.4-0.4-0.9-0.7-1.5-0.7
				c-0.3,0-0.6,0.1-0.8,0.2c-0.3,0.1-0.5,0.3-0.7,0.5c-0.2,0.2-0.4,0.5-0.5,0.8C197.9,10,197.8,10.3,197.7,10.8z"/>
			<path class="st0" d="M205.4,15.6V7.3h1.4v3.4h4V7.3h1.4v8.3h-1.4v-3.7h-4v3.7H205.4z"/>
			<path class="st0" d="M215,15.6V7.3h1.4v3.4c0,0.4,0,0.9,0,1.5c0,0.5-0.1,1.1-0.1,1.6h0.1c0.2-0.3,0.3-0.6,0.6-0.9
				c0.2-0.3,0.4-0.6,0.5-0.9l3.1-4.7h1.3v8.3h-1.4v-3.4c0-0.4,0-0.9,0-1.5c0-0.5,0.1-1.1,0.1-1.6h-0.1c-0.2,0.3-0.3,0.6-0.6,0.9
				c-0.2,0.3-0.4,0.6-0.5,0.9l-3.1,4.7H215z"/>
			<path class="st0" d="M229.1,15.6v-3.3h-1.5h0l-2.3,3.3h-1.6l2.5-3.5c-0.5-0.2-1-0.4-1.3-0.8c-0.4-0.4-0.5-0.9-0.5-1.6
				c0-0.5,0.1-0.8,0.2-1.1c0.2-0.3,0.4-0.6,0.7-0.8c0.3-0.2,0.6-0.3,1-0.4c0.4-0.1,0.8-0.1,1.3-0.1h2.9v8.3H229.1z M227.8,11.3h1.3
				V8.4h-1.3c-0.6,0-1.2,0.1-1.5,0.3c-0.4,0.2-0.6,0.6-0.6,1.1c0,0.5,0.2,0.9,0.6,1.1C226.7,11.1,227.2,11.3,227.8,11.3z"/>
		</g>
		<g>
			<g>
				<g>
					<path class="st0" d="M72.2,51V27.7h8c1.3,0,2.5,0.1,3.6,0.4c1.1,0.3,2.1,0.7,2.9,1.3c0.8,0.6,1.5,1.4,2,2.3
						c0.5,1,0.7,2.2,0.7,3.6c0,1.4-0.2,2.5-0.7,3.5c-0.5,1-1.1,1.8-2,2.5c-0.8,0.6-1.8,1.1-2.9,1.4c-1.1,0.3-2.3,0.5-3.5,0.5h-2.9
						V51H72.2z M77.5,38.9H80c2.9,0,4.3-1.2,4.3-3.7c0-1.2-0.4-2.1-1.1-2.6c-0.8-0.5-1.9-0.8-3.3-0.8h-2.4V38.9z"/>
				</g>
				<g>
					<path class="st0" d="M126.4,51V27.7h8.4c1.2,0,2.4,0.1,3.5,0.4c1.1,0.2,2,0.6,2.8,1.2c0.8,0.6,1.5,1.3,1.9,2.2
						c0.5,0.9,0.7,2.1,0.7,3.5c0,1.7-0.4,3.1-1.1,4.2c-0.7,1.1-1.8,1.9-3,2.5l5.3,9.3H139l-4.5-8.4h-2.9V51H126.4z M131.7,38.4h2.7
						c1.4,0,2.4-0.3,3.2-0.9c0.7-0.6,1.1-1.4,1.1-2.6c0-1.1-0.4-1.9-1.1-2.4c-0.7-0.5-1.8-0.7-3.2-0.7h-2.7V38.4z"/>
				</g>
				<g>
					<path class="st0" d="M239.4,51V27.7h8.4c1.2,0,2.4,0.1,3.5,0.4c1.1,0.2,2,0.6,2.8,1.2c0.8,0.6,1.5,1.3,1.9,2.2
						c0.5,0.9,0.7,2.1,0.7,3.5c0,1.7-0.4,3.1-1.1,4.2c-0.7,1.1-1.8,1.9-3,2.5l5.3,9.3H252l-4.5-8.4h-2.9V51H239.4z M244.7,38.4h2.7
						c1.4,0,2.4-0.3,3.2-0.9c0.7-0.6,1.1-1.4,1.1-2.6c0-1.1-0.4-1.9-1.1-2.4c-0.7-0.5-1.8-0.7-3.2-0.7h-2.7V38.4z"/>
				</g>
				<g>
					<path class="st0" d="M159.4,51V32.1H153v-4.4H171v4.4h-6.4V51H159.4z"/>
				</g>
				<g>
					<polygon class="st0" points="200.1,27.7 200.1,51 194.7,51 186.8,36 186.8,51 181.8,51 181.8,27.7 187.2,27.7 195.1,42.7 
						195.1,27.7 					"/>
				</g>
				<g>
					<path class="st0" d="M212.7,51V27.7h14.6v4.4h-9.3v4.7h7.9v4.4h-7.9v5.4h9.7V51H212.7z"/>
				</g>
				<g>
					<path class="st0" d="M109.5,27.7h-6.3L95.9,51h5.3l1.5-5.5h7.4l1.5,5.5h5.3L109.5,27.7z M103.7,41.4l2.6-9.5l2.6,9.5H103.7z"/>
				</g>
			</g>
		</g>
	</g>
	<g>
		<polygon class="st1" points="6.8,14.7 0,8 6.8,1.2 9.2,3.6 4.8,8 9.2,12.3 		"/>
		<polygon class="st2" points="43.7,54 41.3,51.6 45.7,47.2 41.3,42.9 43.7,40.5 50.5,47.2 		"/>
		<path class="st0" d="M46.6,22.2v-16H31.5L25.2,0l-8,8l8,7.9l6.3-6.2h11.7v12.6c-1.7,0.5-3.1,1.9-3.7,3.7H11.3V22H0v11.2h3.9v15.7
			H19l6.3,6.3l8-8l-8-8L19,45.5H7.3V33.2h3.9v-3.9h28.3c0.7,2.3,2.9,3.9,5.4,3.9c3.1,0,5.6-2.5,5.6-5.6
			C50.5,25.1,48.8,22.9,46.6,22.2z M25.2,11.1L22.1,8l3.1-3.1L28.4,8L25.2,11.1z M25.2,44.1l3.1,3.1l-3.1,3.1l-3.1-3.1L25.2,44.1z
			 M7.9,29.8H3.4v-4.4h4.5V29.8z M44.9,29.8c-1.2,0-2.2-1-2.2-2.2c0-1.2,1-2.2,2.2-2.2c1.2,0,2.2,1,2.2,2.2
			C47.1,28.8,46.1,29.8,44.9,29.8z"/>
	</g>
</g>
</svg>
