<svg id="Слой_1" data-name="Слой 1" xmlns="http://www.w3.org/2000/svg" viewBox="0 0 257.9 55.15"><defs><style>.cls-1{fill:#222;}.cls-2{fill:#4e738a;}.cls-3{fill:#4d868e;}</style></defs><path class="cls-1" d="M488.94,527.43a5.17,5.17,0,0,1-2.13-.43,4.94,4.94,0,0,1-1.7-1.24,5.78,5.78,0,0,1-1.12-2,8.36,8.36,0,0,1-.4-2.69,8.1,8.1,0,0,1,.41-2.65,6,6,0,0,1,1.14-2,5.1,5.1,0,0,1,1.72-1.27,5.36,5.36,0,0,1,2.17-.44,4.12,4.12,0,0,1,2,.46,5.2,5.2,0,0,1,1.4,1.06l-.84,1a3.92,3.92,0,0,0-1.11-.84,3,3,0,0,0-1.4-.32,3.47,3.47,0,0,0-1.59.35,3.51,3.51,0,0,0-1.22,1,4.74,4.74,0,0,0-.77,1.56,7.29,7.29,0,0,0-.27,2.06,7.44,7.44,0,0,0,.27,2.08,4.84,4.84,0,0,0,.76,1.58,3.35,3.35,0,0,0,1.18,1,3.43,3.43,0,0,0,1.58.36,3.32,3.32,0,0,0,1.58-.37,4.91,4.91,0,0,0,1.27-1l.86,1a5.37,5.37,0,0,1-1.65,1.31A4.59,4.59,0,0,1,488.94,527.43Z" transform="translate(-411.39 -512.76)"/><path class="cls-1" d="M494.83,527.21v-9.09h1.5v3.78c0,.48,0,1-.05,1.59s-.07,1.17-.1,1.75h.07l.61-1c.23-.36.43-.69.59-1l3.44-5.18h1.44v9.09h-1.5v-3.78c0-.49,0-1,.05-1.6s.07-1.17.1-1.77h-.07l-.61,1c-.23.37-.43.69-.59,1l-3.46,5.2Z" transform="translate(-411.39 -512.76)"/><path class="cls-1" d="M509,527.43a4.35,4.35,0,0,1-1.69-.32,3.82,3.82,0,0,1-1.35-.92,4.48,4.48,0,0,1-.9-1.5,5.73,5.73,0,0,1-.33-2,5.37,5.37,0,0,1,.36-2,4.42,4.42,0,0,1,.95-1.5,3.93,3.93,0,0,1,1.4-.94,4.43,4.43,0,0,1,1.67-.32,3.39,3.39,0,0,1,1.53.32,4.76,4.76,0,0,1,1.12.75l-.78,1a3.77,3.77,0,0,0-.83-.58,2.15,2.15,0,0,0-1-.22,2.51,2.51,0,0,0-2,1,3.46,3.46,0,0,0-.59,1.11,4.33,4.33,0,0,0-.22,1.43,4.51,4.51,0,0,0,.21,1.42,3.19,3.19,0,0,0,.57,1.1,2.64,2.64,0,0,0,3.2.69,4.91,4.91,0,0,0,1-.65l.67,1a4.71,4.71,0,0,1-1.36.85A4,4,0,0,1,509,527.43Z" transform="translate(-411.39 -512.76)"/><path class="cls-1" d="M515.74,527.21v-7.84h-3v-1.25h7.63v1.25h-3.05v7.84Z" transform="translate(-411.39 -512.76)"/><path class="cls-1" d="M525.76,527.43a4.42,4.42,0,0,1-1.71-.33,4,4,0,0,1-1.38-.93,4.19,4.19,0,0,1-.93-1.49,5.62,5.62,0,0,1-.34-2,5.5,5.5,0,0,1,.35-2,4.69,4.69,0,0,1,.92-1.5,3.86,3.86,0,0,1,1.3-.95,3.61,3.61,0,0,1,1.51-.33,3.78,3.78,0,0,1,1.54.3,3,3,0,0,1,1.14.86,4.13,4.13,0,0,1,.71,1.35,6,6,0,0,1,.24,1.76c0,.16,0,.32,0,.47a2.3,2.3,0,0,1-.05.41h-6.13a3.51,3.51,0,0,0,.91,2.31,2.82,2.82,0,0,0,2.12.85,3.55,3.55,0,0,0,1.2-.2,5.17,5.17,0,0,0,1.06-.51l.54,1a7.72,7.72,0,0,1-1.32.65A4.61,4.61,0,0,1,525.76,527.43Zm-2.86-5.5h4.86a3.21,3.21,0,0,0-.59-2.1,2,2,0,0,0-1.65-.72,2.28,2.28,0,0,0-.93.19,2.22,2.22,0,0,0-.79.55,2.82,2.82,0,0,0-.59.89A3.85,3.85,0,0,0,522.9,521.93Z" transform="translate(-411.39 -512.76)"/><path class="cls-1" d="M531.35,527.21v-9.09h1.78l1.78,4.26c.13.38.27.75.41,1.11s.27.74.41,1.1h.07l.42-1.1c.15-.36.28-.73.41-1.11l1.74-4.26h1.75v9.09h-1.4v-4.08c0-.2,0-.43,0-.7s0-.54,0-.82,0-.57.05-.85,0-.53.07-.77h-.08c-.13.36-.27.72-.42,1.09s-.28.72-.42,1.06l-1.72,4.21h-1l-1.75-4.21c-.14-.34-.28-.69-.42-1.06s-.29-.73-.43-1.09h-.07c0,.24,0,.49,0,.77s0,.57,0,.85,0,.55.05.82,0,.5,0,.7v4.08Z" transform="translate(-411.39 -512.76)"/><path class="cls-1" d="M543.19,527.21v-9.09h1.54v3.68h4.37v-3.68h1.53v9.09H549.1v-4h-4.37v4Z" transform="translate(-411.39 -512.76)"/><path class="cls-1" d="M553.7,527.21v-9.09h1.54v3.35h1.29a6,6,0,0,1,1.46.16,3.47,3.47,0,0,1,1.15.52,2.32,2.32,0,0,1,.73.88,2.78,2.78,0,0,1,.26,1.28,2.92,2.92,0,0,1-.26,1.31,2.35,2.35,0,0,1-.73.89A3.13,3.13,0,0,1,558,527a6,6,0,0,1-1.46.17Zm1.54-1.24h1.12c1.51,0,2.26-.55,2.26-1.66a1.42,1.42,0,0,0-.55-1.25,2.92,2.92,0,0,0-1.71-.4h-1.12Zm6.47,1.24v-9.09h1.53v9.09Z" transform="translate(-411.39 -512.76)"/><path class="cls-1" d="M570,527.43a4.42,4.42,0,0,1-1.71-.33,4,4,0,0,1-1.38-.93,4.19,4.19,0,0,1-.93-1.49,5.62,5.62,0,0,1-.34-2,5.5,5.5,0,0,1,.35-2,4.69,4.69,0,0,1,.92-1.5,3.86,3.86,0,0,1,1.3-.95,3.61,3.61,0,0,1,1.51-.33,3.78,3.78,0,0,1,1.54.3,3,3,0,0,1,1.14.86,4.13,4.13,0,0,1,.71,1.35,6,6,0,0,1,.24,1.76c0,.16,0,.32,0,.47a2.3,2.3,0,0,1-.05.41h-6.13a3.51,3.51,0,0,0,.91,2.31,2.81,2.81,0,0,0,2.12.85,3.66,3.66,0,0,0,1.21-.2,5.64,5.64,0,0,0,1.05-.51l.54,1a8.11,8.11,0,0,1-1.32.65A4.61,4.61,0,0,1,570,527.43Zm-2.86-5.5H572a3.21,3.21,0,0,0-.59-2.1,2,2,0,0,0-1.65-.72,2.28,2.28,0,0,0-.93.19,2.22,2.22,0,0,0-.79.55,2.82,2.82,0,0,0-.59.89A3.85,3.85,0,0,0,567.13,521.93Z" transform="translate(-411.39 -512.76)"/><path class="cls-1" d="M579.32,531V518.12h1.27l.14,1h0a6.69,6.69,0,0,1,1.36-.9,3.34,3.34,0,0,1,1.54-.38,3.47,3.47,0,0,1,1.55.33,2.92,2.92,0,0,1,1.12.94,4.43,4.43,0,0,1,.69,1.45,7.54,7.54,0,0,1,.23,1.92,6.34,6.34,0,0,1-.32,2.07,4.78,4.78,0,0,1-.86,1.54,3.58,3.58,0,0,1-2.75,1.29,3,3,0,0,1-1.26-.28,6.1,6.1,0,0,1-1.26-.77l0,1.59V531Zm3.76-4.9a2.16,2.16,0,0,0,1-.25,2.52,2.52,0,0,0,.82-.71,3.59,3.59,0,0,0,.54-1.13,5.13,5.13,0,0,0,.2-1.52,6.34,6.34,0,0,0-.13-1.36,3.09,3.09,0,0,0-.42-1.06,2,2,0,0,0-.75-.68,2.2,2.2,0,0,0-1.09-.25,2.46,2.46,0,0,0-1.17.32,6.85,6.85,0,0,0-1.26.92v4.77a4.26,4.26,0,0,0,1.19.74A3.09,3.09,0,0,0,583.08,526.14Z" transform="translate(-411.39 -512.76)"/><path class="cls-1" d="M593.39,527.43a4.38,4.38,0,0,1-1.71-.33,3.91,3.91,0,0,1-1.39-.93,4.31,4.31,0,0,1-.92-1.49,5.41,5.41,0,0,1-.34-2,5.5,5.5,0,0,1,.34-2,4.87,4.87,0,0,1,.92-1.5,3.86,3.86,0,0,1,1.3-.95,3.65,3.65,0,0,1,1.52-.33,3.81,3.81,0,0,1,1.54.3,3.13,3.13,0,0,1,1.14.86,3.94,3.94,0,0,1,.7,1.35,6,6,0,0,1,.24,1.76c0,.16,0,.32,0,.47a2.37,2.37,0,0,1,0,.41h-6.14a3.62,3.62,0,0,0,.91,2.31,2.82,2.82,0,0,0,2.12.85,3.61,3.61,0,0,0,1.21-.2,5.44,5.44,0,0,0,1.06-.51l.54,1a7.83,7.83,0,0,1-1.33.65A4.55,4.55,0,0,1,593.39,527.43Zm-2.86-5.5h4.86a3.26,3.26,0,0,0-.59-2.1,2,2,0,0,0-1.66-.72,2.41,2.41,0,0,0-1.72.74,3.21,3.21,0,0,0-.59.89A3.85,3.85,0,0,0,590.53,521.93Z" transform="translate(-411.39 -512.76)"/><path class="cls-1" d="M599,527.21v-9.09h1.53V526h3.2v-7.83h1.48V526h3.21v-7.83h1.52v9.09Z" transform="translate(-411.39 -512.76)"/><path class="cls-1" d="M616.67,527.43a4.42,4.42,0,0,1-1.71-.33,4.09,4.09,0,0,1-1.39-.93,4.31,4.31,0,0,1-.92-1.49,5.41,5.41,0,0,1-.34-2,5.5,5.5,0,0,1,.35-2,4.67,4.67,0,0,1,.91-1.5,4,4,0,0,1,1.3-.95,3.65,3.65,0,0,1,1.52-.33,3.78,3.78,0,0,1,1.54.3,3,3,0,0,1,1.14.86,3.94,3.94,0,0,1,.7,1.35,5.67,5.67,0,0,1,.25,1.76c0,.16,0,.32,0,.47a2.3,2.3,0,0,1,0,.41h-6.13a3.56,3.56,0,0,0,.9,2.31,2.85,2.85,0,0,0,2.13.85,3.6,3.6,0,0,0,1.2-.2,5.44,5.44,0,0,0,1.06-.51l.54,1a7.83,7.83,0,0,1-1.33.65A4.51,4.51,0,0,1,616.67,527.43Zm-2.86-5.5h4.86a3.26,3.26,0,0,0-.59-2.1,2,2,0,0,0-1.65-.72,2.24,2.24,0,0,0-.93.19,2.22,2.22,0,0,0-.79.55,2.82,2.82,0,0,0-.59.89A3.85,3.85,0,0,0,613.81,521.93Z" transform="translate(-411.39 -512.76)"/><path class="cls-1" d="M622.26,527.21v-9.09h1.53v3.68h4.38v-3.68h1.53v9.09h-1.53v-4h-4.38v4Z" transform="translate(-411.39 -512.76)"/><path class="cls-1" d="M632.77,527.21v-9.09h1.5v3.78c0,.48,0,1,0,1.59s-.07,1.17-.1,1.75h.07l.61-1c.23-.36.43-.69.59-1l3.44-5.18h1.44v9.09h-1.49v-3.78c0-.49,0-1,0-1.6s.07-1.17.1-1.77h-.07l-.61,1c-.23.37-.43.69-.59,1l-3.46,5.2Z" transform="translate(-411.39 -512.76)"/><path class="cls-1" d="M648.35,527.21v-3.59h-1.7l-2.51,3.59H642.4l2.77-3.8a3.24,3.24,0,0,1-1.48-.89,2.38,2.38,0,0,1-.6-1.71,2.55,2.55,0,0,1,.28-1.26,2.28,2.28,0,0,1,.74-.83,3.07,3.07,0,0,1,1.14-.46,6.33,6.33,0,0,1,1.42-.14h3.21v9.09Zm-1.42-4.72h1.42v-3.18h-1.42a3.32,3.32,0,0,0-1.68.37,1.26,1.26,0,0,0-.6,1.17,1.4,1.4,0,0,0,.6,1.22A2.94,2.94,0,0,0,646.93,522.49Z" transform="translate(-411.39 -512.76)"/><path class="cls-1" d="M483.59,566V542.67h8a16.5,16.5,0,0,1,3.6.38,8.17,8.17,0,0,1,2.93,1.25,6.14,6.14,0,0,1,2,2.32,7.77,7.77,0,0,1,.73,3.55,8,8,0,0,1-.73,3.54,6.76,6.76,0,0,1-2,2.46,8.5,8.5,0,0,1-2.89,1.43,12.81,12.81,0,0,1-3.5.46h-2.89V566Zm5.25-12.07h2.57c2.86,0,4.28-1.23,4.28-3.71a2.85,2.85,0,0,0-1.14-2.57,6,6,0,0,0-3.28-.75h-2.43Z" transform="translate(-411.39 -512.76)"/><path class="cls-1" d="M537.82,566V542.67h8.39a16,16,0,0,1,3.48.36,7.92,7.92,0,0,1,2.84,1.2,6,6,0,0,1,1.93,2.23,7.48,7.48,0,0,1,.72,3.46,7.36,7.36,0,0,1-1.13,4.23,6.8,6.8,0,0,1-3,2.48l5.29,9.32h-5.89L546,557.56h-2.89V566Zm5.25-12.56h2.71a5,5,0,0,0,3.16-.88,3.11,3.11,0,0,0,1.09-2.59,2.58,2.58,0,0,0-1.09-2.39,6,6,0,0,0-3.16-.68h-2.71Z" transform="translate(-411.39 -512.76)"/><path class="cls-1" d="M650.79,566V542.67h8.39a16.16,16.16,0,0,1,3.48.36,8,8,0,0,1,2.84,1.2,6,6,0,0,1,1.92,2.23,7.48,7.48,0,0,1,.72,3.46,7.36,7.36,0,0,1-1.13,4.23,6.78,6.78,0,0,1-3,2.48l5.28,9.32h-5.89l-4.46-8.39H656V566ZM656,553.39h2.71a5,5,0,0,0,3.16-.88,3.14,3.14,0,0,0,1.09-2.59,2.6,2.6,0,0,0-1.09-2.39,6.06,6.06,0,0,0-3.16-.68H656Z" transform="translate(-411.39 -512.76)"/><path class="cls-1" d="M570.74,566V547.1h-6.39v-4.43h18.07v4.43H576V566Z" transform="translate(-411.39 -512.76)"/><polygon class="cls-1" points="200.06 29.91 200.06 53.19 194.67 53.19 186.82 38.18 186.82 53.19 181.82 53.19 181.82 29.91 187.21 29.91 195.06 44.88 195.06 29.91 200.06 29.91"/><path class="cls-1" d="M624.08,566V542.67h14.57v4.43h-9.32v4.68h7.93v4.39h-7.93v5.36H639V566Z" transform="translate(-411.39 -512.76)"/><path class="cls-1" d="M520.86,542.67h-6.32l-7.28,23.27h5.25l1.5-5.52h7.38l1.49,5.52h5.26Zm-5.73,13.63,2.57-9.45,2.56,9.45Z" transform="translate(-411.39 -512.76)"/><polygon class="cls-2" points="6.75 14.7 0 7.95 6.75 1.2 9.16 3.6 4.81 7.95 9.16 12.3 6.75 14.7"/><polygon class="cls-3" points="43.74 53.94 41.34 51.54 45.69 47.19 41.34 42.84 43.74 40.44 50.49 47.19 43.74 53.94"/><path class="cls-1" d="M458,535V519H442.89l-6.26-6.25-7.95,8,7.95,7.94,6.26-6.24h11.66V535a5.66,5.66,0,0,0-3.67,3.65H422.64v-3.92H411.39v11.23h3.92v15.71h15.07l6.25,6.26,8-8-8-8-6.25,6.25H418.71V545.94h3.93V542H450.9A5.62,5.62,0,1,0,458,535Zm-21.32-11.1-3.14-3.15,3.14-3.14,3.15,3.14Zm0,32.95,3.15,3.14-3.15,3.15L433.49,560Zm-17.39-14.27h-4.45v-4.43h4.45Zm37,0a2.22,2.22,0,1,1,2.23-2.21A2.21,2.21,0,0,1,456.25,542.54Z" transform="translate(-411.39 -512.76)"/></svg>