<?xml version="1.0" encoding="utf-8"?>
<!-- Generator: Adobe Illustrator 24.1.2, SVG Export Plug-In . SVG Version: 6.00 Build 0)  -->
<svg version="1.1" id="Слой_1" xmlns="http://www.w3.org/2000/svg" xmlns:xlink="http://www.w3.org/1999/xlink" x="0px" y="0px"
	 viewBox="0 0 257.9 55.2" style="enable-background:new 0 0 257.9 55.2;" xml:space="preserve">
<style type="text/css">
	.st0{fill:#222222;}
	.st1{fill:#0086C9;}
	.st2{fill:#5222D0;}
</style>
<path class="st0" d="M77.5,14.7c-0.7,0-1.5-0.1-2.1-0.4c-0.6-0.3-1.2-0.7-1.7-1.2c-0.5-0.6-0.9-1.3-1.1-2c-0.3-0.9-0.4-1.8-0.4-2.7
	c0-0.9,0.1-1.8,0.4-2.7c0.2-0.7,0.6-1.4,1.1-2c0.5-0.5,1.1-1,1.7-1.3c0.7-0.3,1.4-0.4,2.2-0.4c0.7,0,1.4,0.1,2,0.5
	c0.5,0.3,1,0.6,1.4,1.1l-0.8,1c-0.3-0.3-0.7-0.6-1.1-0.8c-0.4-0.2-0.9-0.3-1.4-0.3c-0.6,0-1.1,0.1-1.6,0.3c-0.5,0.2-0.9,0.6-1.2,1
	c-0.4,0.5-0.6,1-0.8,1.6c-0.2,0.7-0.3,1.4-0.3,2.1c0,0.7,0.1,1.4,0.3,2.1c0.2,0.6,0.4,1.1,0.8,1.6c0.3,0.4,0.7,0.8,1.2,1
	c0.5,0.2,1,0.4,1.6,0.4c0.5,0,1.1-0.1,1.6-0.4c0.5-0.3,0.9-0.6,1.3-1l0.9,1c-0.5,0.5-1,1-1.6,1.3C79,14.6,78.3,14.7,77.5,14.7z"/>
<path class="st0" d="M83.4,14.5V5.4h1.5v3.8c0,0.5,0,1,0,1.6s-0.1,1.2-0.1,1.8h0.1l0.6-1c0.2-0.4,0.4-0.7,0.6-1l3.4-5.2h1.4v9.1
	h-1.5v-3.8c0-0.5,0-1,0-1.6s0.1-1.2,0.1-1.8h-0.1l-0.6,1c-0.2,0.4-0.4,0.7-0.6,1l-3.5,5.2L83.4,14.5z"/>
<path class="st0" d="M97.6,14.7c-0.6,0-1.2-0.1-1.7-0.3c-0.5-0.2-1-0.5-1.4-0.9c-0.4-0.4-0.7-0.9-0.9-1.5c-0.2-0.6-0.3-1.3-0.3-2
	c0-0.7,0.1-1.4,0.4-2c0.2-0.6,0.5-1.1,1-1.5C95,6,95.5,5.7,96,5.5c0.5-0.2,1.1-0.3,1.7-0.3c0.5,0,1.1,0.1,1.5,0.3
	c0.4,0.2,0.8,0.4,1.1,0.8l-0.8,1c-0.2-0.2-0.5-0.4-0.8-0.6c-0.3-0.2-0.7-0.2-1-0.2c-0.8,0-1.5,0.4-2,1c-0.3,0.3-0.5,0.7-0.6,1.1
	C95,9,94.9,9.5,95,10c0,0.5,0.1,1,0.2,1.4c0.1,0.4,0.3,0.8,0.6,1.1c0.8,0.9,2.1,1.2,3.2,0.7c0.4-0.2,0.7-0.4,1-0.7l0.7,1
	c-0.4,0.4-0.9,0.6-1.4,0.8C98.7,14.6,98.2,14.7,97.6,14.7z"/>
<path class="st0" d="M104.3,14.5V6.6h-3V5.4h7.6v1.3h-3v7.8H104.3z"/>
<path class="st0" d="M114.4,14.7c-0.6,0-1.2-0.1-1.7-0.3c-0.5-0.2-1-0.5-1.4-0.9c-0.4-0.4-0.7-0.9-0.9-1.5c-0.2-0.6-0.3-1.3-0.3-2
	c0-0.7,0.1-1.4,0.3-2c0.2-0.6,0.5-1.1,0.9-1.5c0.4-0.4,0.8-0.7,1.3-1c0.5-0.2,1-0.3,1.5-0.3c0.5,0,1.1,0.1,1.5,0.3
	c0.4,0.2,0.8,0.5,1.1,0.9c0.3,0.4,0.6,0.9,0.7,1.3c0.2,0.6,0.2,1.2,0.2,1.8c0,0.2,0,0.3,0,0.5c0,0.1,0,0.3,0,0.4h-6.1
	c0,0.9,0.3,1.7,0.9,2.3c0.6,0.6,1.3,0.9,2.1,0.8c0.4,0,0.8-0.1,1.2-0.2c0.4-0.1,0.7-0.3,1.1-0.5l0.5,1c-0.4,0.3-0.9,0.5-1.3,0.7
	C115.5,14.6,114.9,14.7,114.4,14.7z M111.5,9.2h4.9c0.1-0.7-0.2-1.5-0.6-2.1c-0.4-0.5-1-0.8-1.7-0.7c-0.3,0-0.6,0.1-0.9,0.2
	c-0.3,0.1-0.6,0.3-0.8,0.5c-0.3,0.3-0.5,0.6-0.6,0.9C111.7,8.4,111.5,8.8,111.5,9.2z"/>
<path class="st0" d="M120,14.5V5.4h1.8l1.8,4.3c0.1,0.4,0.3,0.8,0.4,1.1s0.3,0.7,0.4,1.1h0.1l0.4-1.1c0.2-0.4,0.3-0.7,0.4-1.1
	l1.7-4.3h1.8v9.1h-1.4v-4.1c0-0.2,0-0.4,0-0.7s0-0.5,0-0.8s0-0.6,0-0.8s0-0.5,0.1-0.8h-0.1c-0.1,0.4-0.3,0.7-0.4,1.1
	s-0.3,0.7-0.4,1.1l-1.7,4.2h-1l-1.8-4.2c-0.1-0.3-0.3-0.7-0.4-1.1s-0.3-0.7-0.4-1.1h-0.1c0,0.2,0,0.5,0,0.8s0,0.6,0,0.8s0,0.5,0,0.8
	s0,0.5,0,0.7v4.1H120z"/>
<path class="st0" d="M131.8,14.5V5.4h1.5V9h4.4V5.4h1.5v9.1h-1.5v-4h-4.4v4H131.8z"/>
<path class="st0" d="M142.3,14.5V5.4h1.5v3.3h1.3c0.5,0,1,0,1.5,0.2c0.4,0.1,0.8,0.3,1.2,0.5c0.3,0.2,0.6,0.5,0.7,0.9
	c0.2,0.4,0.3,0.8,0.3,1.3c0,0.5-0.1,0.9-0.3,1.3c-0.2,0.4-0.4,0.7-0.7,0.9c-0.3,0.2-0.7,0.4-1.1,0.5c-0.5,0.1-1,0.2-1.5,0.2
	L142.3,14.5z M143.8,13.2h1.1c1.5,0,2.3-0.5,2.3-1.7c0-0.5-0.2-1-0.5-1.3c-0.5-0.3-1.1-0.4-1.7-0.4h-1.1V13.2z M150.3,14.5V5.4h1.5
	v9.1H150.3z"/>
<path class="st0" d="M158.6,14.7c-0.6,0-1.2-0.1-1.7-0.3c-0.5-0.2-1-0.5-1.4-0.9c-0.4-0.4-0.7-0.9-0.9-1.5c-0.2-0.6-0.3-1.3-0.3-2
	c0-0.7,0.1-1.4,0.3-2c0.2-0.6,0.5-1.1,0.9-1.5c0.4-0.4,0.8-0.7,1.3-1c0.5-0.2,1-0.3,1.5-0.3c0.5,0,1.1,0.1,1.5,0.3
	c0.4,0.2,0.8,0.5,1.1,0.9c0.3,0.4,0.6,0.9,0.7,1.3c0.2,0.6,0.2,1.2,0.2,1.8c0,0.2,0,0.3,0,0.5c0,0.1,0,0.3,0,0.4h-6.1
	c0,0.9,0.3,1.7,0.9,2.3c0.6,0.6,1.3,0.9,2.1,0.8c0.4,0,0.8-0.1,1.2-0.2c0.4-0.1,0.7-0.3,1-0.5l0.5,1c-0.4,0.3-0.9,0.5-1.3,0.7
	C159.8,14.6,159.2,14.7,158.6,14.7z M155.8,9.2h4.9c0.1-0.7-0.2-1.5-0.6-2.1c-0.4-0.5-1-0.8-1.7-0.7c-0.3,0-0.6,0.1-0.9,0.2
	c-0.3,0.1-0.6,0.3-0.8,0.5c-0.3,0.3-0.5,0.6-0.6,0.9C155.9,8.4,155.8,8.8,155.8,9.2L155.8,9.2z"/>
<path class="st0" d="M167.9,18.2V5.4h1.3l0.1,1l0,0c0.4-0.4,0.9-0.7,1.4-0.9c0.5-0.2,1-0.4,1.5-0.4c0.5,0,1.1,0.1,1.5,0.3
	c0.4,0.2,0.8,0.5,1.1,0.9c0.3,0.4,0.6,0.9,0.7,1.5c0.2,0.6,0.2,1.3,0.2,1.9c0,0.7-0.1,1.4-0.3,2.1c-0.2,0.6-0.5,1.1-0.9,1.5
	c-0.7,0.8-1.7,1.3-2.8,1.3c-0.4,0-0.9-0.1-1.3-0.3c-0.4-0.2-0.9-0.5-1.3-0.8v1.6v3.1H167.9z M171.7,13.3c0.3,0,0.7-0.1,1-0.3
	c0.3-0.2,0.6-0.4,0.8-0.7c0.2-0.3,0.4-0.7,0.5-1.1c0.1-0.5,0.2-1,0.2-1.5c0-0.5,0-0.9-0.1-1.4c-0.1-0.4-0.2-0.7-0.4-1.1
	c-0.2-0.3-0.4-0.5-0.8-0.7c-0.3-0.2-0.7-0.3-1.1-0.3c-0.4,0-0.8,0.1-1.2,0.3c-0.5,0.3-0.9,0.6-1.3,0.9v4.8c0.4,0.3,0.8,0.6,1.2,0.7
	C171,13.3,171.3,13.4,171.7,13.3L171.7,13.3z"/>
<path class="st0" d="M182,14.7c-0.6,0-1.2-0.1-1.7-0.3c-0.5-0.2-1-0.5-1.4-0.9c-0.4-0.4-0.7-0.9-0.9-1.5c-0.2-0.6-0.4-1.3-0.3-2
	c0-0.7,0.1-1.4,0.3-2c0.2-0.6,0.5-1.1,0.9-1.5c0.4-0.4,0.8-0.7,1.3-1c0.5-0.2,1-0.3,1.5-0.3c0.5,0,1.1,0.1,1.5,0.3
	c0.4,0.2,0.8,0.5,1.1,0.9c0.3,0.4,0.6,0.9,0.7,1.3c0.2,0.6,0.2,1.2,0.2,1.8c0,0.2,0,0.3,0,0.5c0,0.1,0,0.3,0,0.4h-6.1
	c0,0.9,0.3,1.7,0.9,2.3c0.6,0.6,1.3,0.9,2.1,0.8c0.4,0,0.8-0.1,1.2-0.2c0.4-0.1,0.7-0.3,1.1-0.5l0.5,1c-0.4,0.3-0.9,0.5-1.3,0.7
	C183.2,14.6,182.6,14.7,182,14.7z M179.1,9.2h4.9c0.1-0.7-0.2-1.5-0.6-2.1c-0.4-0.5-1-0.8-1.7-0.7c-0.6,0-1.3,0.3-1.7,0.7
	c-0.2,0.3-0.4,0.6-0.6,0.9C179.3,8.4,179.2,8.8,179.1,9.2z"/>
<path class="st0" d="M187.6,14.5V5.4h1.5v7.9h3.2V5.4h1.5v7.8h3.2V5.4h1.5v9.1L187.6,14.5z"/>
<path class="st0" d="M205.3,14.7c-0.6,0-1.2-0.1-1.7-0.3c-0.5-0.2-1-0.5-1.4-0.9c-0.4-0.4-0.7-0.9-0.9-1.5c-0.2-0.6-0.4-1.3-0.3-2
	c0-0.7,0.1-1.4,0.3-2c0.2-0.6,0.5-1.1,0.9-1.5c0.4-0.4,0.8-0.7,1.3-1c0.5-0.2,1-0.3,1.5-0.3c0.5,0,1.1,0.1,1.5,0.3
	c0.4,0.2,0.8,0.5,1.1,0.9c0.3,0.4,0.6,0.9,0.7,1.3c0.2,0.6,0.3,1.2,0.3,1.8c0,0.2,0,0.3,0,0.5c0,0.1,0,0.3,0,0.4h-6.1
	c0,0.9,0.3,1.7,0.9,2.3c0.6,0.6,1.3,0.9,2.1,0.8c0.4,0,0.8-0.1,1.2-0.2c0.4-0.1,0.7-0.3,1.1-0.5l0.5,1c-0.4,0.3-0.9,0.5-1.3,0.7
	C206.5,14.6,205.9,14.7,205.3,14.7z M202.4,9.2h4.9c0.1-0.7-0.2-1.5-0.6-2.1c-0.4-0.5-1-0.8-1.7-0.7c-0.3,0-0.6,0.1-0.9,0.2
	c-0.3,0.1-0.6,0.3-0.8,0.5c-0.3,0.3-0.5,0.6-0.6,0.9C202.6,8.4,202.5,8.8,202.4,9.2z"/>
<path class="st0" d="M210.9,14.5V5.4h1.5V9h4.4V5.4h1.5v9.1h-1.5v-4h-4.4v4H210.9z"/>
<path class="st0" d="M221.4,14.5V5.4h1.5v3.8c0,0.5,0,1,0,1.6s-0.1,1.2-0.1,1.8h0.1l0.6-1c0.2-0.4,0.4-0.7,0.6-1l3.4-5.2h1.4v9.1
	h-1.5v-3.8c0-0.5,0-1,0-1.6s0.1-1.2,0.1-1.8h-0.1l-0.6,1c-0.2,0.4-0.4,0.7-0.6,1l-3.5,5.2L221.4,14.5z"/>
<path class="st0" d="M237,14.5v-3.6h-1.7l-2.5,3.6H231l2.8-3.8c-0.6-0.2-1.1-0.5-1.5-0.9c-0.4-0.5-0.6-1.1-0.6-1.7
	c0-0.4,0.1-0.9,0.3-1.3c0.2-0.3,0.4-0.6,0.7-0.8c0.3-0.2,0.7-0.4,1.1-0.5c0.5-0.1,0.9-0.1,1.4-0.1h3.2v9.1L237,14.5z M235.5,9.7h1.4
	V6.6h-1.4c-0.6,0-1.2,0.1-1.7,0.4c-0.4,0.2-0.6,0.7-0.6,1.2c0,0.5,0.2,0.9,0.6,1.2C234.4,9.6,235,9.8,235.5,9.7L235.5,9.7z"/>
<path class="st0" d="M72.2,53.2V29.9h8c1.2,0,2.4,0.1,3.6,0.4c1,0.2,2,0.6,2.9,1.3c0.9,0.6,1.5,1.4,2,2.3c0.5,1.1,0.8,2.3,0.7,3.5
	c0,1.2-0.2,2.4-0.7,3.5c-0.5,1-1.1,1.8-2,2.5c-0.9,0.7-1.8,1.1-2.9,1.4c-1.1,0.3-2.3,0.5-3.5,0.5h-2.9v7.9H72.2z M77.4,41.2H80
	c2.9,0,4.3-1.2,4.3-3.7c0.1-1-0.3-2-1.1-2.6c-1-0.6-2.1-0.8-3.3-0.8h-2.4V41.2z"/>
<path class="st0" d="M126.4,53.2V29.9h8.4c1.2,0,2.3,0.1,3.5,0.4c1,0.2,2,0.6,2.8,1.2c0.8,0.6,1.5,1.3,1.9,2.2
	c0.5,1.1,0.8,2.3,0.7,3.5c0.1,1.5-0.3,3-1.1,4.2c-0.7,1.1-1.8,2-3,2.5l5.3,9.3h-5.9l-4.4-8.4h-2.9v8.4H126.4z M131.7,40.7h2.7
	c1.1,0.1,2.2-0.2,3.2-0.9c0.8-0.6,1.2-1.6,1.1-2.6c0.1-0.9-0.3-1.9-1.1-2.4c-1-0.5-2.1-0.7-3.2-0.7h-2.7V40.7z"/>
<path class="st0" d="M239.4,53.2V29.9h8.4c1.2,0,2.3,0.1,3.5,0.4c1,0.2,2,0.6,2.8,1.2c0.8,0.6,1.5,1.3,1.9,2.2
	c0.5,1.1,0.8,2.3,0.7,3.5c0.1,1.5-0.3,3-1.1,4.2c-0.7,1.1-1.8,2-3,2.5l5.3,9.3H252l-4.5-8.4h-2.9v8.4H239.4z M244.6,40.6h2.7
	c1.1,0.1,2.2-0.2,3.2-0.9c0.8-0.6,1.2-1.6,1.1-2.6c0.1-0.9-0.3-1.8-1.1-2.4c-1-0.5-2.1-0.7-3.2-0.7h-2.7V40.6z"/>
<path class="st0" d="M159.3,53.2V34.3H153v-4.4H171v4.4h-6.4v18.9H159.3z"/>
<polygon class="st0" points="200.1,29.9 200.1,53.2 194.7,53.2 186.8,38.2 186.8,53.2 181.8,53.2 181.8,29.9 187.2,29.9 195.1,44.9 
	195.1,29.9 "/>
<path class="st0" d="M212.7,53.2V29.9h14.6v4.4h-9.3V39h7.9v4.4h-7.9v5.4h9.7v4.5H212.7z"/>
<path class="st0" d="M109.5,29.9h-6.3l-7.3,23.3h5.3l1.5-5.5h7.4l1.5,5.5h5.3L109.5,29.9z M103.7,43.5l2.6-9.5l2.6,9.5H103.7z"/>
<polygon class="st1" points="6.8,14.7 0,7.9 6.8,1.2 9.2,3.6 4.8,7.9 9.2,12.3 "/>
<polygon class="st2" points="43.7,53.9 41.3,51.5 45.7,47.2 41.3,42.8 43.7,40.4 50.5,47.2 "/>
<path class="st0" d="M46.6,22.2v-16H31.5L25.2,0l-8,8l8,7.9l6.3-6.2h11.7v12.5c-1.7,0.6-3.1,1.9-3.7,3.7H11.3V22H0v11.2h3.9v15.7H19
	l6.3,6.3l8-8l-8-8L19,45.4H7.3V33.2h3.9v-3.9h28.3c0.9,3,4.1,4.6,7,3.7c3-0.9,4.6-4.1,3.7-7C49.7,24.2,48.4,22.8,46.6,22.2z
	 M25.3,11.1L22.1,8l3.1-3.1L28.4,8L25.3,11.1z M25.3,44.1l3.1,3.1l-3.1,3.2l-3.2-3.1L25.3,44.1z M7.9,29.8H3.4v-4.4h4.5V29.8z
	 M44.9,29.8c-1.2,0-2.2-1-2.2-2.2c0-1.2,1-2.2,2.2-2.2c1.2,0,2.2,1,2.2,2.2C47.1,28.8,46.1,29.8,44.9,29.8
	C44.9,29.8,44.9,29.8,44.9,29.8L44.9,29.8z"/>
</svg>
