<svg id="Слой_1" data-name="Слой 1" xmlns="http://www.w3.org/2000/svg" viewBox="0 0 60 60"><defs><style>.cls-1,.cls-2{fill:#0086c9;}.cls-1{opacity:0.1;}</style></defs><circle class="cls-1" cx="30" cy="30" r="30"/><path class="cls-2" d="M32,45.51a4.83,4.83,0,0,1-3.26-1.25l-.2-.18-.2.18a4.87,4.87,0,0,1-3.26,1.25,4.81,4.81,0,0,1-1.2-.15,4.89,4.89,0,0,1-3.4-3.09l-.08-.19h-.52A6.63,6.63,0,0,1,14,32.32l.12-.22-.2-.15A6.62,6.62,0,0,1,14.81,21l.17-.1,0-.19a4,4,0,0,1,0-.85A4.9,4.9,0,0,1,19.85,15h.52l.08-.2a4.88,4.88,0,0,1,3.4-3.08,4.81,4.81,0,0,1,1.2-.15,4.87,4.87,0,0,1,3.26,1.25l.2.17.2-.17a4.86,4.86,0,0,1,4.45-1.1,4.91,4.91,0,0,1,3.41,3.08l.07.2h.52a4.9,4.9,0,0,1,4.89,4.89,4.31,4.31,0,0,1,0,.88v.19l.16.09a6.66,6.66,0,0,1,3.31,5.77A6.55,6.55,0,0,1,43,31.94l-.19.16.11.22a6.63,6.63,0,0,1-5.79,9.76h-.52l-.07.19a4.92,4.92,0,0,1-3.41,3.09A4.79,4.79,0,0,1,32,45.51Zm0-14.64a1.43,1.43,0,0,1,.47,2.79,3.76,3.76,0,0,0-2.49,3.52v3.46a2,2,0,0,0,3.88.81l.11-.24-.24-.14a5.82,5.82,0,0,1-.79-.54,1.45,1.45,0,0,1-.51-1A1.44,1.44,0,0,1,33.82,38a1.48,1.48,0,0,1,.92.33,3.74,3.74,0,0,0,5.58-4.87l-.11-.17-.19,0a6.09,6.09,0,0,1-1.13.1,1.43,1.43,0,1,1,0-2.86,3.78,3.78,0,0,0,1.25-.22l.12,0a3.76,3.76,0,0,0,.51-6.81l-.19-.11-.16.15a4.31,4.31,0,0,1-.81.56,1.41,1.41,0,0,1-.71.2,1.44,1.44,0,0,1-.72-2.69,1.87,1.87,0,0,0,.67-.64,2,2,0,0,0,.34-1.11,2,2,0,0,0-2-2h-.4l-.2,0-.05.19a7.3,7.3,0,0,1-.31.82,1.42,1.42,0,0,1-.86.65,1.65,1.65,0,0,1-.38,0,1.35,1.35,0,0,1-.71-.19,1.42,1.42,0,0,1-.52-2,2.08,2.08,0,0,0,.27-1,2,2,0,0,0-4.06,0v6.67l.45-.26a8.4,8.4,0,0,1,1.13-.54,1.62,1.62,0,0,1,.44-.07,1.44,1.44,0,0,1,.47,2.8,3.75,3.75,0,0,0-2.49,3.52v3.2l.45-.26a8.35,8.35,0,0,1,1.13-.53A1.31,1.31,0,0,1,32,30.87ZM23.19,38a1.41,1.41,0,0,1,1.1.52,1.36,1.36,0,0,1,.33,1,1.45,1.45,0,0,1-.51,1,6.81,6.81,0,0,1-.79.53l-.23.14.11.24a2,2,0,0,0,3.87-.81V37.18a3.77,3.77,0,0,0-2.48-3.52,1.43,1.43,0,0,1,.46-2.79,1.37,1.37,0,0,1,.45.07,9.67,9.67,0,0,1,1.13.53l.44.26v-3.2A3.76,3.76,0,0,0,24.59,25a1.43,1.43,0,0,1-.9-1.82,1.42,1.42,0,0,1,1.36-1,1.38,1.38,0,0,1,.45.08,8.28,8.28,0,0,1,1.13.53l.44.26V16.41a2,2,0,0,0-4.06,0,2.11,2.11,0,0,0,.26,1,1.42,1.42,0,0,1-.51,1.92,1.46,1.46,0,0,1-.72.19,1.57,1.57,0,0,1-.37-.05,1.43,1.43,0,0,1-.87-.67c-.1-.23-.21-.49-.3-.76l-.06-.18-.19,0h-.44a2,2,0,0,0-2,2,1.82,1.82,0,0,0,.95,1.75,1.44,1.44,0,0,1-1.43,2.5,6.41,6.41,0,0,1-.75-.57l-.16-.15-.19.11a3.76,3.76,0,0,0,.58,6.81,3.57,3.57,0,0,0,1.3.24,1.43,1.43,0,0,1,0,2.86,6,6,0,0,1-1.12-.1l-.2,0-.11.17a3.83,3.83,0,0,0-.6,2,3.77,3.77,0,0,0,6.19,2.88A1.43,1.43,0,0,1,23.19,38Z" transform="translate(1.45 1.6)"/></svg>