<svg id="Слой_1" data-name="Слой 1" xmlns="http://www.w3.org/2000/svg" viewBox="0 0 60 60"><defs><style>.cls-1,.cls-2{fill:#4d868e;}.cls-1{opacity:0.1;}</style></defs><circle class="cls-1" cx="30" cy="30" r="30"/><path class="cls-2" d="M410.43,415.28a1.46,1.46,0,0,1-1.06-.44,1.51,1.51,0,0,1,0-2.12l1.5-1.5-1.5-1.49a1.51,1.51,0,0,1,0-2.13,1.52,1.52,0,0,1,2.12,0l2.76,2.77a1.18,1.18,0,0,1,.36.85,1.2,1.2,0,0,1-.36.86l-2.76,2.76A1.46,1.46,0,0,1,410.43,415.28Z" transform="translate(-369.55 -369.68)"/><path class="cls-2" d="M409.72,414.49h0a1,1,0,0,1,0-1.42l1.85-1.85-1.85-1.85a1,1,0,0,1,0-1.41h0a1,1,0,0,1,1.42,0l2.76,2.76a.71.71,0,0,1,0,1l-2.76,2.76A1,1,0,0,1,409.72,414.49Z" transform="translate(-369.55 -369.68)"/><path class="cls-2" d="M413,396.39a.85.85,0,0,1-.44-.71v-7.24a1.81,1.81,0,0,0-1.8-1.81h-7a.81.81,0,0,1-.57-.23L400.82,384a1.8,1.8,0,0,0-2.55,0l-2.84,2.84a1.78,1.78,0,0,0-.52,1.27,1.75,1.75,0,0,0,.53,1.28l2.83,2.83a1.81,1.81,0,0,0,1.28.53,1.79,1.79,0,0,0,1.27-.53l2.38-2.37a.8.8,0,0,1,.57-.24h5a.81.81,0,0,1,.8.81v5.25a.87.87,0,0,1-.45.72,3.79,3.79,0,0,0-1.32,1.32.87.87,0,0,1-.72.45H392.46a.65.65,0,0,1-.65-.66,1.65,1.65,0,0,0-1.65-1.65H386a1.81,1.81,0,0,0-1.8,1.8v4.16a1.65,1.65,0,0,0,1.66,1.65.65.65,0,0,1,.65.65v6.79a1.81,1.81,0,0,0,1.81,1.81h7a.79.79,0,0,1,.57.23l2.38,2.38a1.8,1.8,0,0,0,2.55,0l2.84-2.84a1.81,1.81,0,0,0,0-2.55l-2.84-2.84a1.8,1.8,0,0,0-2.55,0l-2.38,2.38a.8.8,0,0,1-.57.24h-5a.81.81,0,0,1-.81-.81v-4.79a.65.65,0,0,1,.66-.65,1.65,1.65,0,0,0,1.65-1.65.65.65,0,0,1,.65-.65H407.1a.86.86,0,0,1,.72.44,3.81,3.81,0,1,0,5.21-5.23Zm-3.25,3.29a1.31,1.31,0,1,1,1.31,1.3A1.31,1.31,0,0,1,409.78,399.68Zm-11.16-10.62a1.31,1.31,0,0,1,0-1.85h0a1.31,1.31,0,0,1,1.85,0h0a1.31,1.31,0,0,1,0,1.85h0a1.31,1.31,0,0,1-1.85,0ZM388,401a1.31,1.31,0,1,1,0-2.61h0a1.31,1.31,0,0,1,0,2.61Zm10.62,9.32h0a1.31,1.31,0,0,1,1.85,0h0a1.31,1.31,0,0,1,0,1.85h0a1.31,1.31,0,0,1-1.85,0h0A1.31,1.31,0,0,1,398.62,410.3Z" transform="translate(-369.55 -369.68)"/><path class="cls-2" d="M388.47,392.16a1.5,1.5,0,0,1-1.06-.44L384.65,389a1.21,1.21,0,0,1,0-1.72l2.76-2.76a1.5,1.5,0,1,1,2.12,2.12l-1.5,1.5,1.5,1.5a1.5,1.5,0,0,1-1.06,2.56Z" transform="translate(-369.55 -369.68)"/><path class="cls-2" d="M389.18,391.37h0a1,1,0,0,0,0-1.42l-1.85-1.85,1.85-1.85a1,1,0,0,0,0-1.41h0a1,1,0,0,0-1.42,0L385,387.6a.71.71,0,0,0,0,1l2.76,2.76A1,1,0,0,0,389.18,391.37Z" transform="translate(-369.55 -369.68)"/></svg>