<svg id="Слой_1" data-name="Слой 1" xmlns="http://www.w3.org/2000/svg" viewBox="0 0 60 60"><defs><style>.cls-1,.cls-2{fill:#5222d0;}.cls-1{opacity:0.1;}</style></defs><circle class="cls-1" cx="30" cy="30" r="30"/><path class="cls-2" d="M532.12,555.91a4.42,4.42,0,0,1-4.42-4.42v-23a4.42,4.42,0,0,1,4.42-4.42H542l.44.15a.47.47,0,0,0,.16,0h0a1.88,1.88,0,0,1,.24.18l9.84,9.84a1.53,1.53,0,0,1,.17.23v0a.39.39,0,0,0,0,.15,2,2,0,0,1,.08.35v16.45a4.42,4.42,0,0,1-4.42,4.42Zm0-29.54a2.14,2.14,0,0,0-2.14,2.14v23a2.14,2.14,0,0,0,2.14,2.14h16.42a2.14,2.14,0,0,0,2.14-2.14V536.72a.5.5,0,0,0-.5-.5H542a1.15,1.15,0,0,1-1.14-1.14v-8.21a.5.5,0,0,0-.5-.5Zm11.49,2.31a.43.43,0,0,0-.19,0,.51.51,0,0,0-.31.46v4.25a.5.5,0,0,0,.5.5h4.26a.5.5,0,0,0,.35-.85L544,528.83A.51.51,0,0,0,543.61,528.68Z" transform="translate(-510.33 -510)"/><path class="cls-2" d="M534.32,551.24V546H536a3.24,3.24,0,0,1,1,.15,1.49,1.49,0,0,1,.72.5,1.58,1.58,0,0,1,.26.95,1.51,1.51,0,0,1-1,1.51,2.67,2.67,0,0,1-1,.18h-.75v1.91Zm.92-2.65h.68c.76,0,1.14-.32,1.14-1a.76.76,0,0,0-.29-.68,1.75,1.75,0,0,0-.88-.18h-.65Z" transform="translate(-510.33 -510)"/><path class="cls-2" d="M539,551.24V546h1.39a2.29,2.29,0,0,1,2.53,2.57,2.65,2.65,0,0,1-.66,2,2.43,2.43,0,0,1-1.82.67Zm.92-.75h.41a1.55,1.55,0,0,0,1.21-.46,2,2,0,0,0,.43-1.42,1.91,1.91,0,0,0-.43-1.39,1.62,1.62,0,0,0-1.21-.44h-.41Z" transform="translate(-510.33 -510)"/><path class="cls-2" d="M543.92,551.24V546h3.14v.78h-2.22v1.47h1.89v.78h-1.89v2.17Z" transform="translate(-510.33 -510)"/></svg>