<svg id="Слой_1" data-name="Слой 1" xmlns="http://www.w3.org/2000/svg" viewBox="0 0 61 61"><defs><style>.cls-1,.cls-2{fill:#2fdd2f;}.cls-1{opacity:0.1;}</style></defs><circle class="cls-1" cx="30.5" cy="30.5" r="30.5"/><path class="cls-2" d="M562.08,576.13v.19c-5.49-2.71-6-3.09-6.77-2-.52.71-1.94,2.39-2.33,2.9s-.84.52-1.61.2a19.47,19.47,0,0,1-5.93-3.68,21.13,21.13,0,0,1-4.13-5.16c-.71-1.29.77-1.42,2.19-4.06a1.3,1.3,0,0,0-.06-1.29c-.2-.39-1.68-4-2.26-5.42s-1.22-1.29-1.68-1.29c-1.41-.19-2.51-.19-3.41.77-4,4.39-3,9,.45,13.74,6.7,8.84,10.32,10.45,16.83,12.71a10.25,10.25,0,0,0,4.64.32c1.42-.19,4.39-1.81,5-3.55a6,6,0,0,0,.46-3.54c-.2-.33-.65-.52-1.42-.84Z" transform="translate(-518.06 -539.81)"/></svg>