<svg id="Слой_1" data-name="Слой 1" xmlns="http://www.w3.org/2000/svg" viewBox="0 0 61 61"><defs><style>.cls-1,.cls-2{fill:#ec615b;}.cls-1{opacity:0.1;}</style></defs><circle class="cls-1" cx="30.5" cy="30.5" r="30.5"/><path class="cls-2" d="M646.32,503.51a.57.57,0,0,1-.31-.4,10.5,10.5,0,0,0-2.3-3.93,15.25,15.25,0,0,0-2.92-2.27l-.4-.23v-4.37a2.43,2.43,0,0,0-1.53-2.25,2.59,2.59,0,0,0-1-.18,2.44,2.44,0,0,0-1.68.66,17.22,17.22,0,0,1-2.27,1.83,5.56,5.56,0,0,1-2.26,1,.51.51,0,0,0-.41.31.54.54,0,0,0,0,.52,9.37,9.37,0,0,1,1.1,2.19.54.54,0,0,0,.51.36l.13,0a10,10,0,0,0,2.84-1.34c.3-.2.61-.41.92-.65v3.06a1.8,1.8,0,0,0,1.12,1.66l.21.1c.19.1.47.24.79.44a11.56,11.56,0,0,1,2.22,1.72,6.65,6.65,0,0,1,1.45,2.54,4.1,4.1,0,0,0,2.72,2.71.18.18,0,0,1,.14.18v2a.23.23,0,0,1-.17.22,4.12,4.12,0,0,0-2.71,2.61,9.56,9.56,0,0,1-2,3.43,7.37,7.37,0,0,1-2.47,1.64,6.79,6.79,0,0,1-.85.28l-.23.05a1.79,1.79,0,0,0-1.53,1.77v1.5a.71.71,0,0,1-.71.71H634a3,3,0,0,0-3-2.49h-5a3,3,0,0,0-3,2.49h-.76a.71.71,0,0,1-.71-.71v-3.28a1.82,1.82,0,0,0-1-1.58l-.09,0a5,5,0,0,1-.43-.31,7.86,7.86,0,0,1-1.42-1.4,10,10,0,0,1-2.1-6.43c0-.46,0-.9.06-1.31a.51.51,0,0,0-.13-.41,9.33,9.33,0,0,1-1.79-2.85.53.53,0,0,0-.5-.34h0a.54.54,0,0,0-.5.36,14.28,14.28,0,0,0-.7,4.55,13.59,13.59,0,0,0,2.89,8.67,11.88,11.88,0,0,0,2,2l.08.06v2.33a4.28,4.28,0,0,0,4.28,4.28h1.25a3,3,0,0,0,3-2.5h4a3,3,0,0,0,3,2.5h1.25a4.28,4.28,0,0,0,4.27-4.28v-.15l.38-.14a10.94,10.94,0,0,0,3.68-2.45,13,13,0,0,0,2.85-4.74.54.54,0,0,1,.31-.37A3.8,3.8,0,0,0,649,509.1v-2A3.77,3.77,0,0,0,646.32,503.51Z" transform="translate(-600.54 -477.22)"/><path class="cls-2" d="M618.53,505.75a3.62,3.62,0,0,0,2.25.74,5.3,5.3,0,0,0,2-.42l6-2.47a4.17,4.17,0,0,0,2.76-3.21,8,8,0,1,0-13,5.36Zm6.68-10.41a4.4,4.4,0,0,1,2.7,4.62,1.61,1.61,0,0,1-.56.35l-6,2.47a2.93,2.93,0,0,1-.65.17,4.46,4.46,0,0,1,2.77-7.95A4.3,4.3,0,0,1,625.21,495.34Z" transform="translate(-600.54 -477.22)"/><path class="cls-2" d="M636.66,506.17a2.41,2.41,0,1,0-2.41-2.41A2.41,2.41,0,0,0,636.66,506.17Z" transform="translate(-600.54 -477.22)"/></svg>