<svg id="Слой_1" data-name="Слой 1" xmlns="http://www.w3.org/2000/svg" viewBox="0 0 61 61"><defs><style>.cls-1,.cls-2{fill:#caeb52;}.cls-1{opacity:0.1;}</style></defs><circle class="cls-1" cx="30.5" cy="30.5" r="30.5"/><path class="cls-2" d="M631,508.43a5.46,5.46,0,1,0-5.45-5.45A5.46,5.46,0,0,0,631,508.43Zm0-8.18a2.73,2.73,0,1,1-2.73,2.73A2.73,2.73,0,0,1,631,500.25Z" transform="translate(-600.54 -477.22)"/><path class="cls-2" d="M647.78,515l-5-5,.12-.17a6.79,6.79,0,0,0,0-6.82A6.82,6.82,0,0,0,637,492.75h0a6.83,6.83,0,0,0-11.82,0h0A6.82,6.82,0,0,0,619.23,503a6.76,6.76,0,0,0,0,6.82,1.63,1.63,0,0,1,.11.17l-5,5a1.37,1.37,0,0,0,.63,2.29l5.35,1.34,1.33,5.34a1.39,1.39,0,0,0,1,1,1.5,1.5,0,0,0,.37,0,1.36,1.36,0,0,0,1-.4l7.13-7.14,7.14,7.14a1.35,1.35,0,0,0,1,.4,1.49,1.49,0,0,0,.36,0,1.37,1.37,0,0,0,1-1l1.34-5.34,5.34-1.34a1.36,1.36,0,0,0,1-1A1.39,1.39,0,0,0,647.78,515Zm-25.84-11.17a1.37,1.37,0,0,0,0-1.71,4.09,4.09,0,0,1,3.81-6.6,1.36,1.36,0,0,0,1.48-.85,4.09,4.09,0,0,1,7.63,0,1.35,1.35,0,0,0,1.47.85,4.09,4.09,0,0,1,3.81,6.6,1.4,1.4,0,0,0,0,1.71,4,4,0,0,1,.58,4.12,3,3,0,0,1-.23.48,4.09,4.09,0,0,1-4.16,2,1.37,1.37,0,0,0-1.47.85,4.09,4.09,0,0,1-7.63,0,1.36,1.36,0,0,0-1.27-.86h-.21a4.1,4.1,0,0,1-2.56-.45,4,4,0,0,1-1.6-1.55,4.23,4.23,0,0,1-.23-.48A4.05,4.05,0,0,1,621.94,503.83ZM623.68,521l-.95-3.8a1.35,1.35,0,0,0-1-1l-3.8-.95,3.27-3.27a6.73,6.73,0,0,0,3.9,1.25h0a6.75,6.75,0,0,0,3.39,2.92Zm16.66-4.79a1.36,1.36,0,0,0-1,1l-1,3.8-4.84-4.84a6.67,6.67,0,0,0,3.39-2.92h0a6.73,6.73,0,0,0,3.9-1.25l3.27,3.27Z" transform="translate(-600.54 -477.22)"/></svg>