<svg id="Слой_1" data-name="Слой 1" xmlns="http://www.w3.org/2000/svg" viewBox="0 0 61 61"><defs><style>.cls-1,.cls-2{fill:#0086c9;}.cls-1{opacity:0.1;}</style></defs><circle class="cls-1" cx="30.5" cy="30.5" r="30.5"/><path class="cls-2" d="M545.73,543.28a2.45,2.45,0,1,0,2.45,2.45A2.45,2.45,0,0,0,545.73,543.28Z" transform="translate(-509.83 -509.83)"/><path class="cls-2" d="M534.93,543.28a2.45,2.45,0,1,0,2.45,2.45A2.45,2.45,0,0,0,534.93,543.28Z" transform="translate(-509.83 -509.83)"/><path class="cls-2" d="M556,542.13a12.61,12.61,0,0,0-12.08-9h-1.8v-4a3.62,3.62,0,1,0-3.6,0v4.07h-1.8a12.62,12.62,0,0,0-12.08,9h-2.32v7.2h2.32a12.61,12.61,0,0,0,12.08,9h7.2a12.6,12.6,0,0,0,12.08-9h2.32v-7.2Zm-3.08,3.62a9,9,0,0,1-9,9h-7.2a9,9,0,0,1,0-18h7.2a9,9,0,0,1,9,9Z" transform="translate(-509.83 -509.83)"/></svg>