<svg id="Слой_1" data-name="Слой 1" xmlns="http://www.w3.org/2000/svg" viewBox="0 0 60 60"><defs><style>.cls-1,.cls-2{fill:#ec615b;}.cls-1{opacity:0.1;}</style></defs><circle class="cls-1" cx="30" cy="30" r="30"/><path class="cls-2" d="M560.56,578.28l4.42-5.15a2.82,2.82,0,0,0,.57-2.67L563,562a1.87,1.87,0,0,0-1.77-1.31l-.26,0a1.84,1.84,0,0,0-1.58,1.82v.12l.33,4.88a1.45,1.45,0,0,0-.84.41l-4.37,4.16a5.41,5.41,0,0,0-1.66,3.87v3.83a2.11,2.11,0,0,0-.9,1.73V586a.79.79,0,0,0,1.57,0v-3h5.86v3a.79.79,0,0,0,1.57,0v-4.5a2.12,2.12,0,0,0-.86-1.71v-.25A1.9,1.9,0,0,1,560.56,578.28Zm-6.46,2.64h4.72a.57.57,0,0,1,.56.46h-5.84A.57.57,0,0,1,554.1,580.92ZM560,570.63,557.53,573a.82.82,0,0,0-.24.55.79.79,0,0,0,.79.79.82.82,0,0,0,.55-.22l2.42-2.39a2.69,2.69,0,0,0,.31-3.46l-.4-5.81a.27.27,0,0,1,.27-.27.29.29,0,0,1,.27.19l2.55,8.51a1.25,1.25,0,0,1-.26,1.2l-4.42,5.15a3.46,3.46,0,0,0-.84,2.09h-4.1v-3.43a3.82,3.82,0,0,1,1.17-2.73L560,569h0l.21-.21-.13.29A1.12,1.12,0,0,1,560,570.63Z" transform="translate(-518.83 -540.75)"/><path class="cls-2" d="M544.8,579.75v-3.92a5.41,5.41,0,0,0-1.66-3.87l-4.37-4.17a1.47,1.47,0,0,0-.84-.4l.34-4.87v-.14a1.82,1.82,0,0,0-1.58-1.81,1.14,1.14,0,0,0-.26,0,1.82,1.82,0,0,0-1.76,1.31l-2.56,8.51a2.82,2.82,0,0,0,.57,2.67l4.43,5.15a2,2,0,0,1,.46,1.24v.34a2.1,2.1,0,0,0-.87,1.71V586a.79.79,0,0,0,.79.78.78.78,0,0,0,.78-.78v-3h5.86v3a.79.79,0,0,0,.79.78.78.78,0,0,0,.78-.78v-4.5A2.11,2.11,0,0,0,544.8,579.75Zm-8.63-17.44a.28.28,0,0,1,.26-.2h0a.27.27,0,0,1,.23.28l-.39,5.79a2.68,2.68,0,0,0,.3,3.46L539,574a.78.78,0,0,0,.55.23.77.77,0,0,0,.56-.23.79.79,0,0,0,.23-.56.76.76,0,0,0-.24-.55l-2.42-2.39a1.18,1.18,0,0,1,0-1.61l4.37,4.16a3.82,3.82,0,0,1,1.17,2.74v3.52h-4.1a3.45,3.45,0,0,0-.84-2.18L533.87,572a1.28,1.28,0,0,1-.26-1.2Zm2.67,18.61h4.73a.57.57,0,0,1,.55.46h-5.84A.57.57,0,0,1,538.84,580.92Z" transform="translate(-518.83 -540.75)"/><path class="cls-2" d="M558.37,560.09a5.37,5.37,0,0,0-1.54-3.81,5.26,5.26,0,0,0-3.78-1.55,5.69,5.69,0,0,0-4.22,1.89,5.67,5.67,0,0,0-4.21-1.89,5.29,5.29,0,0,0-3.79,1.55,5.37,5.37,0,0,0-1.54,3.81c0,3.6,3.13,6.48,7.87,10.83l1.47,1.32a.27.27,0,0,0,.2.08.26.26,0,0,0,.2-.08l1.47-1.32C555.24,566.57,558.37,563.69,558.37,560.09Zm-9.08,9.51-.46.42-.46-.42a56.94,56.94,0,0,1-5.51-5.47,6.48,6.48,0,0,1-1.78-4,3.56,3.56,0,0,1,1-2.55,3.49,3.49,0,0,1,2.52-1,4,4,0,0,1,3,1.4l1,1.19a.3.3,0,0,0,.46,0l1-1.19a4,4,0,0,1,3-1.4,3.52,3.52,0,0,1,2.52,1,3.6,3.6,0,0,1,1,2.55,6.45,6.45,0,0,1-1.79,4A56.94,56.94,0,0,1,549.29,569.6Z" transform="translate(-518.83 -540.75)"/></svg>