<svg id="Слой_1" data-name="Слой 1" xmlns="http://www.w3.org/2000/svg" viewBox="0 0 60 60"><defs><style>.cls-1,.cls-2{fill:#ff8719;}.cls-1{opacity:0.1;}</style></defs><circle class="cls-1" cx="30" cy="30" r="30"/><path class="cls-2" d="M548.88,587.17a16.37,16.37,0,1,1,10.24-3.58,16.42,16.42,0,0,1-10.24,3.58ZM553.12,574a.32.32,0,0,0-.23.09,13.82,13.82,0,0,0-4.4,10.07.33.33,0,0,0,.33.34,13.61,13.61,0,0,0,7.87-2.48.33.33,0,0,0,.13-.36,23.8,23.8,0,0,0-3.13-7.12,2.77,2.77,0,0,0-.22-.29l-.08-.11a.35.35,0,0,0-.24-.14Zm-5.41-5.64a.32.32,0,0,0-.24.11,16.33,16.33,0,0,1-11.64,5.28.4.4,0,0,0-.27.14.33.33,0,0,0,0,.29,13.74,13.74,0,0,0,9.87,9.87h.09a.31.31,0,0,0,.2-.07.31.31,0,0,0,.13-.25A16.5,16.5,0,0,1,551.3,572a.36.36,0,0,0,.11-.24.34.34,0,0,0-.09-.24,23.17,23.17,0,0,0-3.4-3.07A.38.38,0,0,0,547.71,568.4Zm14.54,2a13.64,13.64,0,0,0-6.54,1.72.33.33,0,0,0-.17.23.35.35,0,0,0,.07.28l.36.42a26.64,26.64,0,0,1,3,6.18.34.34,0,0,0,.26.23h.06a.33.33,0,0,0,.26-.13,13.79,13.79,0,0,0,3.08-8.6.34.34,0,0,0-.34-.34ZM537.07,564a.34.34,0,0,0-.29.17,13.81,13.81,0,0,0-1.73,6.61.35.35,0,0,0,.1.24.33.33,0,0,0,.24.1,13.77,13.77,0,0,0,9.68-4,.33.33,0,0,0,.09-.28.31.31,0,0,0-.16-.25l-.22-.13a23.48,23.48,0,0,0-7.66-2.47Zm15.11-6.54a.36.36,0,0,0-.2.06.33.33,0,0,0-.14.27,16.55,16.55,0,0,1-2.3,8.08.33.33,0,0,0,.09.44,25.91,25.91,0,0,1,4,3.66.34.34,0,0,0,.25.11A.34.34,0,0,0,554,570a16.27,16.27,0,0,1,7.79-2.27.32.32,0,0,0,.26-.13.31.31,0,0,0,.06-.29,13.74,13.74,0,0,0-9.88-9.87Zm-3.36-.44a13.69,13.69,0,0,0-9.76,4.06.31.31,0,0,0-.08.33.34.34,0,0,0,.25.24,26.24,26.24,0,0,1,6.79,2.43,5.22,5.22,0,0,1,.47.26l.25.14a.35.35,0,0,0,.17,0,.34.34,0,0,0,.29-.16,13.69,13.69,0,0,0,2-7,.34.34,0,0,0-.34-.34Z" transform="translate(-518.83 -540.75)"/></svg>