<?xml version="1.0" encoding="utf-8"?>
<!-- Generator: Adobe Illustrator 24.1.2, SVG Export Plug-In . SVG Version: 6.00 Build 0)  -->
<svg version="1.1" id="Слой_1" xmlns="http://www.w3.org/2000/svg" xmlns:xlink="http://www.w3.org/1999/xlink" x="0px" y="0px"
	 viewBox="0 0 50 50" style="enable-background:new 0 0 50 50;" xml:space="preserve">
<style type="text/css">
	.st0{opacity:0.1;fill:#CAEB52;}
	.st1{fill:#CAEB52;}
</style>
<g>
	<circle class="st0" cx="25" cy="25" r="25"/>
	<g>
		<path class="st1" d="M37.3,22.1c-0.2-0.5-0.6-0.8-1.1-0.8l-7-1l-3.1-6.4c-0.2-0.4-0.6-0.7-1.1-0.7s-0.9,0.3-1.1,0.7l-3.1,6.4l-7,1
			c-0.5,0.1-0.9,0.4-1,0.8c-0.1,0.4,0,0.9,0.3,1.2l5.1,4.9l-1.2,7c-0.1,0.5,0.1,1,0.5,1.3c0.4,0.3,0.9,0.3,1.3,0.1l6.3-3.3l6.3,3.3
			c0.2,0.1,0.4,0.1,0.6,0.1c0.3,0,0.5-0.1,0.7-0.2c0.4-0.3,0.6-0.8,0.5-1.2l-1.2-7l5.1-4.9C37.3,23.1,37.4,22.6,37.3,22.1L37.3,22.1
			z M29.7,27.1c-0.3,0.3-0.4,0.7-0.4,1.1l0.9,5.2l-4.6-2.5c-0.4-0.2-0.8-0.2-1.2,0l-4.6,2.5l0.9-5.2c0.1-0.4-0.1-0.8-0.4-1.1
			l-3.7-3.7l5.2-0.8c0.4-0.1,0.8-0.3,0.9-0.7l2.2-4.7l2.3,4.7c0.2,0.4,0.5,0.6,0.9,0.7l5.2,0.8L29.7,27.1z M29.7,27.1"/>
	</g>
</g>
</svg>
