<svg id="Слой_1" data-name="Слой 1" xmlns="http://www.w3.org/2000/svg" viewBox="0 0 61 61"><defs><style>.cls-1,.cls-2{fill:#5222d0;}.cls-1{opacity:0.1;}</style></defs><circle class="cls-1" cx="30.5" cy="30.5" r="30.5"/><path class="cls-2" d="M548.56,585.31a15,15,0,1,1,15-15A15,15,0,0,1,548.56,585.31Zm0-26.4a11.4,11.4,0,1,0,11.4,11.4A11.41,11.41,0,0,0,548.56,558.91Zm0,13.2a1.81,1.81,0,0,1-1.28-3.08l5.09-5.09a1.8,1.8,0,0,1,2.55,2.55l-5.09,5.09A1.8,1.8,0,0,1,548.56,572.11Z" transform="translate(-518.06 -539.81)"/></svg>