<svg id="Слой_1" data-name="Слой 1" xmlns="http://www.w3.org/2000/svg" viewBox="0 0 31.73 31.73"><defs><style>.cls-1{fill:#0086c9;}</style></defs><path class="cls-1" d="M538.83,543.89a7.33,7.33,0,0,1,.33-2.27,5.87,5.87,0,0,1,1.24-1.86l1.59-1.63a3.67,3.67,0,0,0,1-2.48,2.8,2.8,0,0,0-.67-2,2.51,2.51,0,0,0-1.94-.72,2.9,2.9,0,0,0-2,.66,2.2,2.2,0,0,0-.75,1.76h-2.25a4.12,4.12,0,0,1,1.4-3.18,5.28,5.28,0,0,1,3.59-1.2,4.93,4.93,0,0,1,3.57,1.23,4.43,4.43,0,0,1,1.29,3.37,6.11,6.11,0,0,1-2,4.18L542,541.07a4,4,0,0,0-.89,2.82Zm-.09,3.86a1.31,1.31,0,0,1,.33-.92,1.25,1.25,0,0,1,1-.38,1.29,1.29,0,0,1,1,.38,1.32,1.32,0,0,1,.34.92,1.3,1.3,0,0,1-.34.91,1.32,1.32,0,0,1-1,.36,1.19,1.19,0,0,1-1.32-1.27Z" transform="translate(-524.47 -524.13)"/><path class="cls-1" d="M540.33,555.87A15.87,15.87,0,1,1,556.2,540,15.89,15.89,0,0,1,540.33,555.87Zm0-29.38A13.51,13.51,0,1,0,553.85,540,13.52,13.52,0,0,0,540.33,526.49Z" transform="translate(-524.47 -524.13)"/></svg>