<svg id="Слой_1" data-name="Слой 1" xmlns="http://www.w3.org/2000/svg" viewBox="0 0 74 74"><defs><style>.cls-1{fill:#5222d0;}.cls-2{fill:#fff;}</style></defs><circle class="cls-1" cx="37" cy="37" r="37"/><path class="cls-2" d="M561,581.17a16.79,16.79,0,0,1-7.62-1.56,17.69,17.69,0,0,1-5.09-3.74l3.24-4.35a17.2,17.2,0,0,0,3.88,2.91,10.09,10.09,0,0,0,5,1.21,7.85,7.85,0,0,0,5-1.5,5,5,0,0,0,1.91-4.15,5.87,5.87,0,0,0-1-3.38A6.11,6.11,0,0,0,563,564.4a22.82,22.82,0,0,0-6.68-.77v-4.94q5.52,0,7.65-1.7a5.3,5.3,0,0,0,2.11-4.3,4.71,4.71,0,0,0-1.47-3.68,5.85,5.85,0,0,0-4.06-1.32,8.36,8.36,0,0,0-4,1,17,17,0,0,0-3.53,2.56L549.52,547a22,22,0,0,1,5.15-3.41,15.7,15.7,0,0,1,14.85,1.26,8.67,8.67,0,0,1,3.36,7.33,8.12,8.12,0,0,1-1.74,5.27,11,11,0,0,1-4.79,3.32v.24a11.54,11.54,0,0,1,5.53,3.23,8.44,8.44,0,0,1,2.23,6.06,9.47,9.47,0,0,1-1.79,5.83,11.54,11.54,0,0,1-4.77,3.7A16.11,16.11,0,0,1,561,581.17Z" transform="translate(-524.2 -524.75)"/></svg>