<svg id="Слой_1" data-name="Слой 1" xmlns="http://www.w3.org/2000/svg" viewBox="0 0 74 74"><defs><style>.cls-1{fill:#5222d0;}.cls-2{fill:#fff;}</style></defs><circle class="cls-1" cx="37" cy="37" r="37"/><path class="cls-2" d="M559,594.41v-3.94q5.24-5.06,9-9a47.33,47.33,0,0,0,5.85-7.24,11.47,11.47,0,0,0,2.06-6.09,6.78,6.78,0,0,0-1.58-4.7,5.85,5.85,0,0,0-4.59-1.77,6.82,6.82,0,0,0-4,1.24,18.67,18.67,0,0,0-3.32,2.94l-3.77-3.77a21.43,21.43,0,0,1,5.36-4.26,13.62,13.62,0,0,1,6.59-1.5,11.83,11.83,0,0,1,8.62,3.12,11.1,11.1,0,0,1,3.21,8.35,14.13,14.13,0,0,1-1.86,6.74,39.61,39.61,0,0,1-4.94,7q-3.09,3.59-6.8,7.53l3.18-.26q1.71-.15,3.06-.15h9.18v5.76Z" transform="translate(-534.45 -538.35)"/></svg>